<svg xmlns="http://www.w3.org/2000/svg" width="1672" height="54" xmlns:v="https://vecta.io/nano"><style><![CDATA[.B{fill:#f6f9ff}.C{fill:#222}.D{font-size:12px}.E{font-family:Arial-BoldMT, Arial}.F{font-weight:700}]]></style><defs><clipPath id="A"><path d="M0,0H27.881V27.881H0Z" fill="#ff4a00"/></clipPath></defs><rect width="138" height="54" rx="27" x="1392" class="B"/><text letter-spacing="0.014em" class="C D E F"><tspan x="1445.299" y="32">Paramantra</tspan></text><path d="M1421.697 41.873c-.211 0-.44.07-.6-.018l-9.249-5.134-3.569-2.057c-.106-.053-.158-.211-.229-.317l5.1-2.848.492-.035a3.53 3.53 0 0 1 .651.211l4.343 2.5c.95.528 1.952.949 2.936 1.424v.492l.018 5.591z" fill="#f9f151"/><path d="M1421.574 36.088v-.492l7.877-4.273 1.442.862c.158.229.264.527.475.651.615.363 1.249.692 1.9.985.44.193.9.316 1.354.475a2.85 2.85 0 0 0 .316-.862q.018-6.558 0-13.169a6.87 6.87 0 0 0-.088-.844.51.51 0 0 1-.035-.158 2.39 2.39 0 0 1 .264.721l.035 13.8c.03.441-.225.852-.633 1.02l-11.165 6.189-1.618.879-.106-.193a6.84 6.84 0 0 0 .158-.826 92.36 92.36 0 0 0-.018-3.868c-.027-.303-.08-.603-.158-.897z" fill="#e3a052"/><path d="M1434.813 19.262a.51.51 0 0 0 .035.158l-4.536 2.549c-.3.176-.563.369-.844.563l-7.912-4.273v-.3c.086-.299.144-.605.176-.914l.018-4.923 6.242 3.323 6.821 3.817z" fill="#734f9c"/><path d="M1421.574 17.961c0 .106-.018.211-.018.3l-2.356 1.108-5.521 3.007h-.369l-1.055-.527-.7-.527-3.52-1.867 2.479-1.565 10.145-5.626c.231-.108.472-.191.721-.246a.49.49 0 0 1-.018.158l-.123 4.079a11.26 11.26 0 0 0 .141 1.53l.141.053z" fill="#70baec"/><path d="M1412.255 21.846l1.055.527v8.194a6.09 6.09 0 0 1-.158.932l-5.1 2.849-.053-9.635.035-5.257 3.517 1.864-.7.334-.475-.387-.123.123.229.686-.7.053a2.73 2.73 0 0 0 2.479.932v.949l.44-.053zm.281 7.279h-.246l.088.51h.158zm.193 2.092l-.053.141c.053.018.105.07.141.053s.035-.088.053-.123z" fill="#accd64"/><path d="M1421.574 17.961l-.053-.141.053-5.82.193.123-.018 4.923a5.26 5.26 0 0 1-.175.915z" fill="#604c99"/><path d="M1421.573 12l-.053 5.82-.141-.035-.018-5.609a.49.49 0 0 0 .018-.158z" fill="#8471be"/><path d="M1413.679 22.374l-.035 9.09-.492.035a6.09 6.09 0 0 0 .158-.932v-8.193z" fill="#bed488"/><path d="M1421.574 36.088c.078.295.131.596.158.9l.018 3.868c-.036.278-.088.554-.158.826l-.018-5.594z" fill="#d6ad36"/><path d="M1429.451 31.32l.018-8.791.844-.563 4.536-2.55a6.87 6.87 0 0 1 .088.844q.018 6.593 0 13.169a2.85 2.85 0 0 1-.317.862l-3.728-2.11z" fill="#b04d50"/><path d="M1430.893 32.185l3.728 2.11-1.354-.475a19.33 19.33 0 0 1-1.9-.985c-.21-.123-.316-.421-.474-.65z" fill="#e99a5a"/><path d="M1412.256 21.846l.44 2.11-.44.053v-.95l-1.407-1.406.7-.334z" fill="#abca6b"/><path d="M1421.363 12.176l.018 5.609a11.26 11.26 0 0 1-.141-1.53l.123-4.079z" fill="#71cbf9"/><path d="M1410.849 21.653l1.407 1.407a2.73 2.73 0 0 1-2.479-.932l.7-.053-.229-.686.123-.123z" fill="#a9cf5b"/><path d="M1412.536 29.125v.51h-.158l-.088-.51z" fill="#abca6b"/><path d="M1412.73 31.218l.141.07c-.018.035-.018.105-.053.123s-.088-.035-.141-.053z" fill="#bed488"/><rect width="134" height="54" rx="27" x="1538" class="B"/><text letter-spacing="0.014em" class="C D E F"><tspan x="1591.299" y="32">Mail Chimp</tspan></text><path d="M1575.28 26.211a2.76 2.76 0 0 1 .623 0c.123-.383.133-.793.029-1.181-.147-.717-.347-1.152-.77-1.081s-.429.588-.282 1.3a2.34 2.34 0 0 0 .4.962zm-3.585.564c.3.135.482.217.552.141.041-.047.035-.135-.041-.253a1.74 1.74 0 0 0-.776-.623 2.1 2.1 0 0 0-2.045.247c-.2.147-.388.353-.364.476l.106.076a12.68 12.68 0 0 1 1.4-.311c.404-.014.805.071 1.169.247zm-.605.347a1.42 1.42 0 0 0-.74.306c-.101.07-.17.178-.188.3l.029.071.065.023c.097-.015.192-.042.282-.082.4-.148.83-.192 1.252-.129.194.018.288.035.335-.035l-.018-.123a1.13 1.13 0 0 0-1.016-.331zm2.979 1.263a.48.48 0 0 0 .646-.112c.1-.194-.041-.458-.306-.588a.48.48 0 0 0-.652.112c-.064.248.072.503.313.588zm1.7-1.493c-.217-.006-.394.229-.394.529s.159.535.376.541.394-.229.4-.523-.171-.545-.383-.545zm-14.421 5.319l-.223-.023-.2.029c-.145.001-.281-.07-.364-.188-.1-.199-.095-.434.012-.629l.047-.118c.302-.499.352-1.11.135-1.651a1.44 1.44 0 0 0-2.351-.37 1.76 1.76 0 0 0-.452 1.493c.035.094.088.118.129.123.076.012.194-.047.276-.253l.018-.065a2.47 2.47 0 0 1 .194-.464c.26-.398.793-.511 1.193-.253a.84.84 0 0 1 .323 1.011 2.4 2.4 0 0 0-.165.9c-.018.47.332.874.8.923.259.023.509-.102.646-.323zm19.838-1.169c-.018-.047-.1-.364-.217-.735l-.241-.64c.353-.489.501-1.096.413-1.693a2.16 2.16 0 0 0-.623-1.2 5 5 0 0 0-2.192-1.093l-.558-.153-.053-1.875a6.23 6.23 0 0 0-.243-1.659c-.188-.77-.582-1.475-1.14-2.039a6.91 6.91 0 0 0 2.256-4.4c-.005-2.625-3.219-3.418-7.186-1.773l-.84.358-1.54-1.51c-4.525-3.948-18.663 11.794-14.144 15.62l.981.834a4.94 4.94 0 0 0-.276 2.245 4.4 4.4 0 0 0 1.528 2.838 4.64 4.64 0 0 0 3 1.211 11.46 11.46 0 0 0 10.489 6.693c5.06.147 9.3-2.227 11.083-6.5.357-.906.563-1.865.611-2.838-.003-1.192-.679-1.686-1.108-1.692zm-20.69 3.19c-.155.029-.313.041-.47.035a3.65 3.65 0 0 1-3.338-3.05 3.01 3.01 0 0 1 2.368-3.523c.226-.047.457-.065.687-.053a2.91 2.91 0 0 1 2.568 2.748c.271 1.769-.158 3.567-1.815 3.843zm-1.7-7.616a3.89 3.89 0 0 0-2.456 1.569c-.383-.293-.732-.628-1.04-1-.876-1.669.952-4.895 2.227-6.723 3.15-4.5 8.092-7.915 10.378-7.3a9 9 0 0 1 1.6 1.54 32.3 32.3 0 0 0-4.414 3.035 20.05 20.05 0 0 0-6.299 8.879zm16.025 6.946l.053-.088-.094-.076a10.6 10.6 0 0 1-4.654-.476c.247-.8.9-.511 1.892-.429a13.62 13.62 0 0 0 4.561-.499 10.41 10.41 0 0 0 3.414-1.7c.225.521.385 1.068.476 1.628.172-.024.348.009.5.094.217.135.37.411.264 1.122a6.21 6.21 0 0 1-1.734 3.414c-.594.642-1.301 1.17-2.086 1.557a8.88 8.88 0 0 1-1.357.576c-3.585 1.169-7.251-.118-8.438-2.885a4.85 4.85 0 0 1-.235-.658c-.531-1.894-.055-3.928 1.263-5.389a.5.5 0 0 0 .159-.323c-.014-.112-.059-.218-.129-.306-.464-.682-2.086-1.833-1.763-4.078a3.06 3.06 0 0 1 2.956-2.68l.335.018c.57.035 1.064.106 1.528.129.848.077 1.69-.204 2.321-.776a1.77 1.77 0 0 1 .887-.505c.11-.027.222-.039.335-.035a1.1 1.1 0 0 1 .57.188c.67.447.764 1.522.8 2.309l.094 1.851c.041.717.229.817.605.94.217.071.417.129.705.206a4 4 0 0 1 1.739.829c.172.167.284.386.317.623.106.764-.588 1.7-2.427 2.562-1.928.848-4.04 1.189-6.137.989l-.594-.071c-1.346-.182-2.115 1.563-1.31 2.762a4.29 4.29 0 0 0 3.361 1.275c3.255 0 5.765-1.393 6.693-2.6l.071-.106-.047-.065c-.758.517-4.143 2.591-7.757 1.969-.287-.049-.568-.126-.84-.229a1.51 1.51 0 0 1-1.069-1.117c1.535.572 3.221.589 4.767.05zm-10.206-13.122a13.36 13.36 0 0 1 3.737-3.056l.07.065c-.151.266-.268.55-.347.846l.071.053c.986-.643 2.113-1.039 3.285-1.154l.035.094a2.87 2.87 0 0 0-.517.517l.041.076c.957.037 1.893.284 2.744.723l-.041.112a11.06 11.06 0 0 0-4.971.018 11.3 11.3 0 0 0-4.037 1.786z"/><rect width="141" height="54" rx="27" class="B"/><path d="M19.002 41.33c.272-.537.489-1.101.647-1.682l1.682-4.269c.003-.181-.042-.359-.129-.517a14.23 14.23 0 0 1-2.2-7.892 13.84 13.84 0 0 1 3.364-8.8 12.68 12.68 0 0 1 8.539-4.916c5.61-1.093 11.314 1.374 14.36 6.21 1.882 2.765 2.666 6.132 2.2 9.444a14.1 14.1 0 0 1-6.727 10.609c-2.706 1.668-5.904 2.353-9.056 1.941a12.81 12.81 0 0 1-6.081-2.2h-.776l-5.563 2.2z" fill="#0083fe"/><path d="M24.362 31.007l6.986-7.374c.259-.259.388-.259.518 0l3.234 3.1h.517l5.175-2.587.388-.259c.034 0 .067.014.091.038s.038.057.038.091l-3.752 4.14-2.717 2.976h-.388l-3.49-3.359h-.388l-6.081 3.234c-.131.13-.131.13-.131 0z" fill="#fff"/><text letter-spacing="0.014em" class="C D E F"><tspan x="53.299" y="32">Messenger</tspan></text><rect width="141" height="54" rx="27" x="149" class="B"/><text letter-spacing="0.014em" class="C D E F"><tspan x="202.299" y="32">Fresh Sales</tspan></text><path d="M168 29.232v-2.435c.271-.406.135-.812.135-1.217-.135-5.816 4.193-10.144 8.656-12.037a9.74 9.74 0 0 1 3.381-.406H193.7c2.029 0 2.57.541 2.84 2.57a.81.81 0 0 1 .135.541c0 4.328.135 8.656-.135 12.984s-2.435 7.439-5.681 10.009-6.357 2.434-9.738 2.434c-5.681-.135-9.468-3.381-12.037-8.115-.475-.972-.752-2.03-.812-3.111a2.03 2.03 0 0 0-.272-1.217z" fill="#fea700"/><path d="M193.968 13z" fill="#fea906"/><path d="M181.255 13z" fill="#fec559"/><path d="M168 25.715h.271a2.03 2.03 0 0 1-.271 1.217z" fill="#feb426"/><path d="M183.554 34.37a5.41 5.41 0 0 1-2.164-.135c-.541-.406-.27-1.353-.27-2.164-.034-.417-.228-.805-.541-1.082l-4.193-3.922v-.27h11.767l-4.463 4.6c-.135.676 0 1.488-.135 2.164s.405.674-.001.809z" fill="#fefdfc"/><path d="M181.931 25.714a3.11 3.11 0 0 1-2.164-3.111 2.57 2.57 0 0 1 2.435-2.435c1.45-.357 2.918.52 3.289 1.967s-.493 2.923-1.936 3.308l-.541.27z" fill="#fefefd"/><path d="M181.931 25.849a24.75 24.75 0 0 0 4.463.271c.644-.121 1.31-.026 1.894.27h-11.767c.683-.286 1.431-.38 2.164-.271a8.79 8.79 0 0 0 3.246-.27z" fill="#fea804"/><path d="M176.521 26.391h.406c-.135.135-.406.271-.406 0z" fill="#fea100"/><path d="M183.554 34.37c.271-.947-.27-2.029.271-2.975s.405 2.029-.271 2.975z" fill="#fea000"/><path d="M181.931 25.715h1.082c-.334.168-.717.216-1.082.135h0z" fill="#fea804"/><rect width="135" height="54" rx="27" x="298" class="B"/><text letter-spacing="0.014em" class="C D E F"><tspan x="351.299" y="32">Webhooks</tspan></text><path d="M327.671 25.592c-2.635-1.938-3.392-5.546-1.76-8.38a6.42 6.42 0 0 1 11.699 5.104l-1.174-.36c.556-3.07-.68-5.49-3.245-6.376a5.19 5.19 0 0 0-6.263 2.431 5.3 5.3 0 0 0 2.482 7.221l-3.821 6.283a2.51 2.51 0 0 1 .608 2.606 2.57 2.57 0 0 1-4.944-1.37 2.5 2.5 0 0 1 2.9-1.957.39.39 0 0 0 .494-.216l3.023-4.986zm-5.191 7.715a1.29 1.29 0 1 0 .8-1.192c-.486.195-.804.668-.801 1.192zm-.289-6.211l.319 1.215a5.17 5.17 0 0 0-3.523 3.07c-.45 1.076-.508 2.275-.165 3.389.54 1.837 2.054 3.222 3.931 3.596a5.15 5.15 0 0 0 5.01-1.814c.874-1.091 1.281-2.483 1.133-3.873h7.169a2.62 2.62 0 0 1 1.463-1.71c.908-.396 1.962-.235 2.709.415a2.57 2.57 0 0 1 .791 2.624 2.38 2.38 0 0 1-2.029 1.823c-1.21.23-2.41-.45-2.833-1.607-.057-.124-.167-.215-.3-.247l-5.779-.01a6.51 6.51 0 0 1-3.049 4.841c-1.258.807-2.77 1.119-4.244.875a6.43 6.43 0 0 1-5.469-6.572 6.26 6.26 0 0 1 4.866-6.015zm16.4 4.934a1.29 1.29 0 1 0 1.267 1.277 1.29 1.29 0 0 0-1.268-1.277zm-5.348-9.723q1.391 2.534 2.822 5.13a6.09 6.09 0 0 1 5.315.093 6.28 6.28 0 0 1 3.039 3.114 6.43 6.43 0 0 1-10.311 7.293l.855-.9a5.17 5.17 0 0 0 7.859-6.633c-1.666-2.369-4.929-2.953-7.313-1.308l-1.7-3.08-1.689-3.049c-1.658.113-2.74-.525-3.121-1.823-.321-1.174.214-2.414 1.288-2.987a2.55 2.55 0 0 1 3.214.7c.814.998.731 2.203-.258 3.45zm-1.782-.587a1.29 1.29 0 0 0 1.204-1.254 1.29 1.29 0 0 0-1.142-1.311c-.462-.018-.898.215-1.141.609a1.28 1.28 0 0 0-.031 1.293c.224.405.648.659 1.11.663z" fill="#4973bf"/><rect width="125" height="54" rx="27" x="441" class="B"/><text letter-spacing="0.014em" class="C D E F"><tspan x="495.299" y="32">Dropbox</tspan></text><g fill="#0062fe"><path d="M466.894 31.832l-3.684-2.121-1.34-.893 6.587-4.465c-.893-.67-1.9-1.116-2.791-1.675l-3.684-2.233-.447-.223.893-.67 4.131-2.791 1.116-.782c.558-.335.782-.335 1.34.112s1.9 1.116 2.791 1.675l3.014 1.786c.335.112.335.223 0 .447l-3.014 2.01-3.349 2.233 3.238 1.9h.223l2.568 1.563.893.447h0l-2.233 1.563-4.019 2.791c-.335.223-.447.112-.67 0z"/><path d="M488.777 19.215l-2.9 2.01a40.43 40.43 0 0 1-3.573 2.456h-.335l-1.228-.67-3.908-2.233-1.34-.893c-.335-.112-.223-.335 0-.447l1.563-1.116 4.243-2.791c1.343-1.005.67-.335 1.228 0 1.262.847 2.567 1.63 3.908 2.345a21.88 21.88 0 0 0 2.342 1.339zm-6.252 14.626l-1.451 1c-.659.409-1.294.856-1.9 1.34l-3.126 2.121c-.163.131-.395.131-.558 0l-2.568-1.563-3.684-2.233c-.335-.112-.335-.223 0-.447l4.689-3.238c.522-.231 1.01-.532 1.451-.893h.447l1.675 1 2.568 1.563a26.69 26.69 0 0 0 2.456 1.34zm-7.146-5.471h0c.112.112.223 0 .335-.112l5.247-3.573 1-.67c.112-.112.112-.112.223 0l1.228.67 2.9 1.675h.112l2.568 1.675-1.34 1-3.461 2.233-1.451 1.116h-.67l-3.8-2.345a22.44 22.44 0 0 1-2.791-1.563z"/></g><rect width="123" height="54" rx="27" x="574" class="B"/><text letter-spacing="0.014em" class="C D E F"><tspan x="627.299" y="32">Zendesk</tspan></text><path d="M606.124 21.817l.124 4.58.247 6.313v2.971a5.07 5.07 0 0 1 .124 1.362c0 .248 0 .371-.248.371h-3.466l-6.436.248h-2.6c-.124-.124 0-.124 0-.248l2.476-2.971c1.362-1.98 2.971-3.961 4.456-5.817l2.723-3.59a24.13 24.13 0 0 0 2.1-2.847zm2.357 9.783v-.248c.124-1.857-.124-3.713-.124-5.57l-.248-6.189a20.9 20.9 0 0 0-.124-2.847c0-.371.124-.5.5-.5h4.58l6.313-.248h1.485l-.99 1.362-2.352 2.847-4.456 5.941a31.67 31.67 0 0 0-2.475 3.218c-.619.619-1.114 1.361-1.733 2.1s-.133.134-.376.134zm-11.764-14.857l4.208-.248h4.58c.248 0 .371 0 .371.248a4.21 4.21 0 0 1 0 1.238c-.407 1.309-1.128 2.499-2.1 3.466a6.44 6.44 0 0 1-4.456 1.733 6.19 6.19 0 0 1-3.837-1.485 5.57 5.57 0 0 1-2.352-3.837c-.1-.19-.143-.405-.124-.619a.37.37 0 0 1 .371-.371zm18.196 13.861c3.13-.131 5.9 2.012 6.56 5.075 0 .124.124.248.124.371s0 .743-.5.743a7.55 7.55 0 0 1-2.352.124l-6.931.248h-2.723a.37.37 0 0 1-.371-.371 6.19 6.19 0 0 1 4.7-5.941z" fill="#031c34"/><rect width="122" height="54" rx="27" x="705" class="B"/><text letter-spacing="0.014em" class="C D E F"><tspan x="758.299" y="32">Hubspot</tspan></text><path d="M748.626 27.574c-.22-1.047-.755-2.001-1.532-2.736a6.13 6.13 0 0 0-2.194-1.536l-1.423-.547h-.438c-.109 0-.219 0-.219-.219s-.11-.547-.11-.766v-2.08h0a.11.11 0 0 1-.109-.11.11.11 0 0 1 .109-.109l.657-.438c.557-.582.801-1.396.657-2.189a1.53 1.53 0 0 0-.219-.657 2.3 2.3 0 0 0-2.736-1.313 1.75 1.75 0 0 0-.985.328c-.573.456-.931 1.13-.985 1.861-.051 1.015.509 1.963 1.423 2.408v.985c0 .657.109 1.313.109 2.08v.219c0 .109 0 .109-.109.109-.704.11-1.377.371-1.97.766h-.219l-1.97-1.423-1.423-.985-2.408-1.751-1.2-.876-1.861-1.313h0a1.86 1.86 0 0 0 0-1.094c-.087-.603-.4-1.15-.875-1.532-.517-.443-1.181-.677-1.861-.657-.812-.026-1.586.34-2.08.985-.426.528-.657 1.186-.655 1.864a6.13 6.13 0 0 0 .438 1.313c.354.568.896.992 1.532 1.2h.11c.742.218 1.543.098 2.189-.328h.109l1.094.766a12.04 12.04 0 0 0 1.532.985 7.77 7.77 0 0 0 1.532 1.094l1.532.985 1.532.985 1.423.985a7 7 0 0 0-1.094 1.423 6.46 6.46 0 0 0-.766 2.189c0 .109-.109.219-.109.328-.007.477.03.953.109 1.423.019.445.093.886.219 1.313a5.8 5.8 0 0 0 1.2 2.3.22.22 0 0 1 0 .328l-.985.876a9.41 9.41 0 0 1-1.423 1.532c0 .06-.049.109-.109.109h-.657a2.3 2.3 0 0 0-2.079 2.189 1.97 1.97 0 0 0 1.532 1.97h.876a2.19 2.19 0 0 0 1.751-2.627c-.01-.12.03-.238.11-.328l.875-.876 1.532-1.751h.219l1.642.766a6.9 6.9 0 0 0 4.816-.219 6.35 6.35 0 0 0 2.736-2.08c.565-.727 1.008-1.54 1.313-2.408.148-.72.185-1.458.11-2.189 0-.518-.074-1.034-.219-1.532zm-3.283 3.174a4.27 4.27 0 0 1-1.97 1.97c-.739.4-1.609.479-2.408.219a3.94 3.94 0 0 1-2.517-2.408c-.146-.497-.183-1.019-.109-1.532.103-.621.326-1.216.657-1.751l1.423-1.094c.431-.261.92-.411 1.423-.438a4.05 4.05 0 0 1 1.642.328 3.5 3.5 0 0 1 2.08 2.517.44.44 0 0 0 .109.328v.328a3.5 3.5 0 0 1-.33 1.533z" fill="#f16019"/><rect width="141" height="54" rx="27" x="836" class="B"/><text letter-spacing="0.014em" class="C D E F"><tspan x="889.299" y="32">Sales Force</tspan></text><path d="M863.518 18.486c1.076-1.131 2.569-1.772 4.13-1.773 2.091.009 4.013 1.149 5.024 2.979a6.94 6.94 0 0 1 2.84-.6c3.894.017 7.038 3.188 7.021 7.082a7.05 7.05 0 0 1-7.021 7.083 6.97 6.97 0 0 1-1.383-.138 5.13 5.13 0 0 1-4.48 2.629 5.11 5.11 0 0 1-2.245-.517c-.918 2.163-3.041 3.568-5.391 3.568a5.86 5.86 0 0 1-5.5-3.833 5.37 5.37 0 0 1-1.117.116c-1.449-.007-2.836-.59-3.856-1.621s-1.588-2.423-1.58-3.872a5.5 5.5 0 0 1 2.723-4.755c-.344-.793-.522-1.648-.521-2.512a6.32 6.32 0 0 1 6.326-6.317 6.32 6.32 0 0 1 5.029 2.486" fill="#00a1e0"/><g fill="#fff"><path d="M854.683 27.822c-.02.053.007.064.014.074a1.95 1.95 0 0 0 .186.112 1.99 1.99 0 0 0 .974.228c.668 0 1.083-.355 1.083-.927v-.011c0-.529-.468-.721-.907-.86l-.057-.019c-.331-.108-.617-.2-.617-.418v-.012c0-.187.167-.324.426-.324a1.92 1.92 0 0 1 .849.217s.064.042.088-.021l.136-.366c.01-.029-.004-.062-.032-.075-.291-.169-.621-.258-.957-.257h-.067c-.259-.029-.519.051-.717.222a.93.93 0 0 0-.321.678v.011c0 .558.471.739.912.865l.071.022c.322.1.6.184.6.41v.011c0 .207-.18.361-.47.361a1.58 1.58 0 0 1-.861-.248l-.11-.069c-.014-.013-.035-.017-.053-.011s-.032.022-.035.041l-.132.366zm9.779 0c-.02.053.007.064.014.074a1.95 1.95 0 0 0 .186.112 1.99 1.99 0 0 0 .974.228c.668 0 1.083-.355 1.083-.927v-.011c0-.529-.468-.721-.907-.86l-.057-.019c-.331-.108-.617-.2-.617-.418v-.012c0-.187.167-.324.426-.324a1.92 1.92 0 0 1 .849.217s.064.042.088-.021l.136-.366c.01-.029-.004-.062-.032-.075-.291-.169-.621-.258-.957-.257h-.067c-.259-.029-.519.051-.717.222a.93.93 0 0 0-.321.678v.011c0 .558.471.739.912.865l.071.022c.322.1.6.184.6.41v.011c0 .207-.181.361-.471.361a1.58 1.58 0 0 1-.861-.248l-.11-.069c-.015-.011-.034-.014-.052-.008s-.031.02-.036.038l-.132.366zm6.677-1.121c.015.265-.048.528-.179.758a.6.6 0 0 1-.543.265.59.59 0 0 1-.54-.265 1.39 1.39 0 0 1-.176-.758 1.38 1.38 0 0 1 .176-.755.6.6 0 0 1 .54-.262.6.6 0 0 1 .543.262c.131.229.194.491.179.755m.558-.6a1.34 1.34 0 0 0-.254-.484c-.117-.139-.263-.25-.428-.326a1.41 1.41 0 0 0-.6-.12 1.41 1.41 0 0 0-.6.12c-.165.076-.312.187-.429.326s-.203.307-.254.484a2.12 2.12 0 0 0-.082.6 2.12 2.12 0 0 0 .082.6 1.35 1.35 0 0 0 .254.484 1.2 1.2 0 0 0 .428.323 1.44 1.44 0 0 0 .6.117 1.44 1.44 0 0 0 .6-.117 1.2 1.2 0 0 0 .428-.323 1.34 1.34 0 0 0 .254-.484 2.1 2.1 0 0 0 .082-.6 2.25 2.25 0 0 0-.082-.6m4.58 1.537c-.004-.014-.014-.026-.028-.033a.05.05 0 0 0-.043-.001 1.28 1.28 0 0 1-.259.074 2.02 2.02 0 0 1-.306.022.85.85 0 0 1-.638-.239c-.176-.213-.261-.487-.239-.762a1.18 1.18 0 0 1 .214-.734.73.73 0 0 1 .619-.272 1.84 1.84 0 0 1 .589.084s.044.019.065-.038l.137-.381a.05.05 0 0 0-.034-.065 2.17 2.17 0 0 0-.372-.094 2.79 2.79 0 0 0-.418-.028 1.53 1.53 0 0 0-.622.12 1.28 1.28 0 0 0-.449.325c-.124.14-.214.306-.271.484-.062.194-.093.396-.091.6-.02.404.112.8.371 1.11a1.41 1.41 0 0 0 1.1.414 2.27 2.27 0 0 0 .79-.141c.024-.012.034-.041.023-.066l-.137-.378zm.976-1.247a1.1 1.1 0 0 1 .153-.445.6.6 0 0 1 .54-.274c.213-.012.416.093.529.274a.93.93 0 0 1 .125.445zm1.878-.395c-.048-.163-.13-.314-.242-.442a1.11 1.11 0 0 0-.358-.273 1.38 1.38 0 0 0-.541-.109 1.47 1.47 0 0 0-.623.121 1.24 1.24 0 0 0-.435.332 1.36 1.36 0 0 0-.256.49c-.056.195-.084.397-.083.6a2.02 2.02 0 0 0 .086.6c.054.179.148.343.274.48a1.24 1.24 0 0 0 .475.315 1.9 1.9 0 0 0 .685.111 1.97 1.97 0 0 0 .951-.189c.021-.012.041-.032.016-.09l-.123-.346c-.005-.014-.015-.025-.029-.031s-.029-.006-.042-.001a1.82 1.82 0 0 1-.775.139.9.9 0 0 1-.646-.222c-.151-.173-.23-.398-.22-.628h1.888c.028 0 .052-.021.055-.049a2.01 2.01 0 0 0-.056-.813zm-16.997.395a1.1 1.1 0 0 1 .153-.445.6.6 0 0 1 .539-.274c.213-.012.416.093.529.274.078.136.121.289.125.445zm1.877-.395a1.17 1.17 0 0 0-.241-.442 1.11 1.11 0 0 0-.358-.273 1.38 1.38 0 0 0-.541-.109 1.48 1.48 0 0 0-.623.121 1.24 1.24 0 0 0-.435.332 1.36 1.36 0 0 0-.256.49c-.056.195-.084.397-.083.6a2.02 2.02 0 0 0 .086.6c.054.178.148.343.274.48a1.24 1.24 0 0 0 .475.315 1.9 1.9 0 0 0 .685.111 1.97 1.97 0 0 0 .951-.189c.021-.012.041-.032.016-.09l-.123-.346c-.005-.014-.016-.025-.029-.031s-.028-.006-.042-.001a1.82 1.82 0 0 1-.775.139.9.9 0 0 1-.645-.222c-.151-.173-.23-.398-.22-.628h1.888c.028 0 .052-.021.055-.049a2.02 2.02 0 0 0-.057-.813zm-5.956 1.631c-.044-.029-.081-.068-.109-.112-.041-.075-.061-.16-.056-.245-.011-.143.052-.281.168-.366a.84.84 0 0 1 .547-.136 3.87 3.87 0 0 1 .512.044v.858h0a3.81 3.81 0 0 1-.51.068.85.85 0 0 1-.553-.11m.751-1.326c-.076-.01-.175-.01-.294-.01a1.79 1.79 0 0 0-.465.06 1.21 1.21 0 0 0-.394.183.91.91 0 0 0-.374.746c-.004.148.025.296.086.431a.78.78 0 0 0 .246.3 1.03 1.03 0 0 0 .385.167 2.21 2.21 0 0 0 .5.051 3.41 3.41 0 0 0 .573-.048l.476-.092.132-.034c.027-.008.045-.034.043-.062v-1.726c.027-.308-.083-.613-.3-.833-.248-.189-.556-.282-.867-.261-.17.002-.339.018-.506.047-.205.037-.402.109-.582.212-.023.017-.031.049-.017.075l.134.359c.004.013.013.023.024.029s.025.007.038.002.021-.009.031-.015c.257-.124.538-.19.823-.192a.76.76 0 0 1 .467.122c.1.079.155.2.155.45v.08l-.311-.037"/><path d="M874.03 25.328c.006-.013.006-.027 0-.04s-.016-.023-.028-.028c-.103-.028-.209-.046-.316-.054a.94.94 0 0 0-.487.078.86.86 0 0 0-.319.235v-.23c.001-.015-.004-.03-.015-.04s-.024-.017-.039-.018h-.484c-.015 0-.029.007-.039.018s-.015.026-.015.04v2.816c0 .032.026.058.058.058h.5c.015 0 .03-.006.041-.017s.017-.026.016-.041v-1.407c-.005-.169.016-.338.063-.5a.71.71 0 0 1 .165-.278.58.58 0 0 1 .233-.14.91.91 0 0 1 .253-.036 1.06 1.06 0 0 1 .207.026c.036 0 .057-.018.069-.051l.142-.4m-4.66-1.296a1.63 1.63 0 0 0-.187-.044 1.48 1.48 0 0 0-.257-.019 1.08 1.08 0 0 0-.8.287 1.56 1.56 0 0 0-.379.856l-.023.128h-.429c-.032 0-.059.024-.063.055l-.07.393c-.005.037.011.061.061.061h.417l-.423 2.362a2.91 2.91 0 0 1-.113.465.95.95 0 0 1-.132.269.35.35 0 0 1-.173.133.7.7 0 0 1-.222.032.85.85 0 0 1-.151-.017.45.45 0 0 1-.1-.033c-.013-.005-.028-.005-.04.001s-.023.016-.028.029l-.14.384c-.006.014-.007.03-.001.044s.016.026.03.032c.057.02.114.037.173.051a1.12 1.12 0 0 0 .277.026c.157.003.314-.022.463-.072a.88.88 0 0 0 .349-.243 1.24 1.24 0 0 0 .245-.423c.075-.206.13-.418.166-.634l.425-2.406h.622c.032 0 .059-.023.063-.055l.071-.392c0-.038-.011-.061-.062-.061h-.6a2.61 2.61 0 0 1 .1-.426.56.56 0 0 1 .132-.2.4.4 0 0 1 .158-.1c.065-.02.132-.03.2-.029.052 0 .104.005.155.015l.1.024c.062.019.07 0 .082-.029l.144-.4c.005-.013.004-.028-.003-.041s-.018-.022-.032-.025m-8.438 4.085c.001.015-.005.029-.015.04s-.024.017-.039.017h-.5c-.015 0-.029-.006-.039-.017s-.016-.025-.015-.04v-4.029c-.001-.015.004-.029.015-.04s.024-.017.039-.017h.5c.015 0 .029.006.039.017s.016.025.015.04v4.029z"/></g><rect width="111" height="54" rx="27" x="985" class="B"/><text letter-spacing="0.014em" class="C D E F"><tspan x="1038.299" y="32">Zapier</tspan></text><g transform="translate(1003.559 13)" clip-path="url(#A)"><path d="M17.426 13.941a8.31 8.31 0 0 1-.523 2.962 8.32 8.32 0 0 1-5.881 0c-.712-1.896-.712-3.985 0-5.881a8.32 8.32 0 0 1 5.881 0c.357.931.534 1.922.523 2.919zm10.281-2.314h-8.146l5.707-5.751a14.03 14.03 0 0 0-3.224-3.267l-5.838 5.668V.174a14.03 14.03 0 0 0-4.661 0v8.147l-5.62-5.707a14.03 14.03 0 0 0-3.311 3.224l5.663 5.838H.174L0 13.941c.013.772.071 1.543.174 2.309h8.147L2.614 22a12.6 12.6 0 0 0 3.311 3.311l5.751-5.751v8.147a14.03 14.03 0 0 0 4.661 0v-8.146l5.62 5.707a14.03 14.03 0 0 0 3.267-3.267L19.6 16.206h8.147a14.03 14.03 0 0 0 0-4.661z" fill="#ff4a00"/></g><rect width="136" height="54" rx="27" x="1104" class="B"/><text letter-spacing="0.014em" class="C D E F"><tspan x="1157.299" y="32">WordPress</tspan></text><path d="M1136.348 13.9a13.41 13.41 0 1 1-9.525 3.923c2.526-2.524 5.954-3.936 9.525-3.923zm0-.9a14.35 14.35 0 0 0-14.344 14.351 14.35 14.35 0 1 0 24.492-10.15A14.35 14.35 0 0 0 1136.348 13zm-11.972 14.347a11.99 11.99 0 0 0 6.726 10.761l-5.65-15.648a12.71 12.71 0 0 0-1.031 4.887zm20.042-.583c-.011-1.177-.353-2.326-.986-3.318a5.69 5.69 0 0 1-1.166-2.824 2.05 2.05 0 0 1 .571-1.473 2.06 2.06 0 0 1 1.447-.634h.135a11.93 11.93 0 0 0-9.555-3.069c-3.482.432-6.596 2.374-8.515 5.31 1.317.059 2.636.014 3.946-.135a.5.5 0 1 1 .09.986l-1.345.135 4.348 12.96 2.6-7.846-1.838-5.111a6.3 6.3 0 0 1-1.255-.135c-.673 0-.583-.986.045-.986 0 0 1.973.179 3.139.179 1.255 0 3.228-.179 3.228-.179.181-.016.356.068.457.22a.49.49 0 0 1 .023.506c-.086.16-.253.26-.435.26l-1.345.135 4.3 12.868 1.255-3.946a14 14 0 0 0 .852-3.9zm-7.842 1.615l-3.591 10.447a11.93 11.93 0 0 0 7.353-.179l-.09-.179zm10.268-6.726l.09 1.166c-.017 1.478-.323 2.939-.9 4.3l-3.678 10.541c5.586-3.261 7.571-10.369 4.484-16.052z" fill="#32373c"/><rect width="136" height="54" rx="27" x="1248" class="B"/><text letter-spacing="0.014em" class="C D E F"><tspan x="1301.299" y="32">Zoho Desk</tspan></text><path d="M1264.867 41.571c-.17-.002-.336-.051-.479-.143a.86.86 0 0 1-.377-.857l2.479-15.229c.273-1.676 1.719-2.906 3.417-2.907h10.21l.571-3.5h-.959c-.423 0-.825-.185-1.1-.507s-.395-.747-.329-1.165l.653-4.05a1.44 1.44 0 0 1 1.429-1.213h3.8a3.48 3.48 0 0 1 3.427 4.029l-1.53 9.425c-.069.412-.31.776-.663 1l-8.548 5.274c-.52.322-1.186.282-1.663-.1l-3.978-3.172c-.372-.299-.431-.842-.133-1.213s.842-.431 1.213-.133l3.825 3.05 8.267-5.124 1.51-9.293c.082-.501-.06-1.012-.388-1.4s-.808-.613-1.316-.612h-3.56l-.56 3.469h.949c.423 0 .825.186 1.099.508s.395.748.329 1.165l-.663 4.07a1.44 1.44 0 0 1-1.428 1.214h-10.466a1.73 1.73 0 0 0-1.714 1.459l-2.172 13.354 3.05-1.887a1.42 1.42 0 0 1 .765-.214H1281a1.73 1.73 0 0 0 1.714-1.459l.694-4.274c.102-.442.53-.73.979-.657s.764.48.721.932l-.694 4.274c-.272 1.675-1.717 2.906-3.414 2.908h-11.1l-4.59 2.846a.8.8 0 0 1-.443.132z" fill="#09954b"/></svg>