<svg xmlns="http://www.w3.org/2000/svg" width="1717" height="54" xmlns:v="https://vecta.io/nano"><style><![CDATA[.B{fill:#f6f9ff}.C{fill:#222}.D{font-size:12px}.E{font-family:Arial-BoldMT, Arial}.F{font-weight:700}]]></style><rect width="105" height="54" rx="27" class="B"/><text letter-spacing="0.014em" class="C D E F"><tspan x="53.299" y="32">Slack</tspan></text><path d="M37.079 18.017l-4.391 1.526-.931-2.861c-.402-1.212.253-2.52 1.464-2.924s2.52.249 2.926 1.459zm-1.331 10.641l4.391-1.53-1.53-4.724-4.391 1.53zm2.262 6.786a2.43 2.43 0 0 0 2.2 1.6 2.39 2.39 0 0 0 .732-.133c1.204-.413 1.856-1.715 1.464-2.927l-.8-2.4-4.394 1.533z" fill="#ffb300"/><path d="M27.765 21.274l-4.391 1.53-.931-2.794c-.262-.784-.085-1.649.463-2.267s1.385-.898 2.195-.733 1.47.75 1.732 1.534zm.931 17.5a2.43 2.43 0 0 0 2.2 1.6 2.39 2.39 0 0 0 .732-.133c1.204-.413 1.856-1.715 1.464-2.927l-.8-2.462-4.391 1.53zm.532-13.04l-4.391 1.53 1.53 4.724 4.391-1.53z" fill="#00bfa5"/><path d="M38.542 22.471l-1.468-4.391 2.728-.931c1.212-.406 2.525.247 2.931 1.459s-.247 2.525-1.459 2.931zm-4.391 1.53l-1.463-4.391-4.923 1.73 1.464 4.391zm-13.572-.2c-1.076.363-1.732 1.451-1.55 2.572s1.147 1.947 2.282 1.952a2.39 2.39 0 0 0 .732-.133l2.731-.931-1.467-4.391z" fill="#00bcd4"/><path d="M26.368 31.918l1.464 4.391-3.127 1.064c-.238.071-.484.115-.732.133-1.135-.006-2.099-.831-2.281-1.951s.472-2.208 1.547-2.572zm19.028-4.125c-.413-1.204-1.715-1.856-2.927-1.464l-2.329.8 1.463 4.459 2.4-.8c1.208-.446 1.83-1.784 1.392-2.995zm-14.637 2.595l1.464 4.391 4.923-1.73-1.464-4.391z" fill="#e91e63"/><path d="M38.543 22.471l-1.464-4.458-4.391 1.53 1.464 4.458z" fill="#388e3c"/><path d="M27.765 21.273l-4.391 1.53 1.464 4.458 4.391-1.53z" fill="#00897b"/><path d="M35.749 28.658l1.464 4.458 4.391-1.53-1.464-4.458z" fill="#bf360c"/><path d="M26.368 31.918l1.464 4.458 4.391-1.53-1.464-4.458z" fill="#4e342e"/><rect width="106" height="54" rx="27" x="113" class="B"/><text letter-spacing="0.014em" class="C D E F"><tspan x="166.299" y="32">Zoom</tspan></text><path d="M131 20.741v9.912a4.06 4.06 0 0 0 4.072 4.036h14.449c.407.002.738-.325.741-.732v-9.913a4.06 4.06 0 0 0-4.072-4.036h-14.449a.74.74 0 0 0-.741.733zm20.183 3.866l5.965-4.357c.518-.429.92-.321.92.455v13.287c0 .884-.491.778-.92.456l-5.965-4.35z" fill="#4494fc"/><rect width="118" height="54" rx="27" x="227" class="B"/><text letter-spacing="0.014em" class="C D E F"><tspan x="280.299" y="32">Outlook</tspan></text><g fill="#006ec4"><path d="M273.664 19.968h-11.59a.83.83 0 0 0-.828.828.83.83 0 0 0 .828.828h9.178l-5.086 3.956-3.648-2.32-.887 1.4 4.139 2.633a.83.83 0 0 0 .952-.045l6.115-4.757v10.726h-10.763a.83.83 0 0 0-.828.828.83.83 0 0 0 .828.828h11.59a.83.83 0 0 0 .828-.828V20.796a.83.83 0 0 0-.828-.828z"/><path d="M262.6 15.192c-.189-.159-.439-.224-.681-.176L248.676 17.5c-.391.072-.675.413-.676.811v18.215c0 .398.284.74.676.813l13.246 2.484a.78.78 0 0 0 .152.015.83.83 0 0 0 .826-.827V15.829c0-.246-.11-.48-.3-.637z"/></g><path d="M255.45 33.214c-2.282 0-4.139-2.229-4.139-4.967s1.858-4.967 4.139-4.967 4.139 2.229 4.139 4.967-1.857 4.967-4.139 4.967zm0-8.279c-1.369 0-2.484 1.485-2.484 3.311s1.114 3.311 2.484 3.311 2.484-1.485 2.484-3.311-1.114-3.31-2.484-3.31z" fill="#fff"/><rect width="201" height="54" rx="27" x="353" class="B"/><text letter-spacing="0.014em" class="C D E F"><tspan x="406.299" y="32">WhatsApp Commerce</tspan></text><path d="M381.013 38.057a12.92 12.92 0 0 0 15.388-20.446 12.92 12.92 0 0 0-20.402 15.446l-1.638 6.613zm.712-16.967a1.27 1.27 0 0 1 1.136-.312l.413.088c.406.083.746.358.913.738l.813 1.8a1.23 1.23 0 0 1-.2 1.325l-.5.588c-.167.196-.196.473-.075.7a7.57 7.57 0 0 0 4.276 3.776.58.58 0 0 0 .675-.25l.363-.563c.41-.58 1.203-.734 1.8-.35l1.5.75c.573.282.842.95.625 1.55-.311 1.221-1.457 2.04-2.713 1.938-4.326-.113-7.715-4.1-9.177-6.152a4.93 4.93 0 0 1-.961-3.315 3.58 3.58 0 0 1 1.112-2.311z" fill="#2aa81a"/><rect width="201" height="54" rx="27" x="562" class="B"/><text letter-spacing="0.014em" class="C D E F"><tspan x="615.299" y="32">WhatsApp Catalogue</tspan></text><path d="M608 22.669h-23v.959a1.92 1.92 0 0 0 .561 1.356c.359.36.847.561 1.356.561h2.876a1.92 1.92 0 0 0 1.356-.561c.36-.359.561-.847.561-1.356a1.92 1.92 0 0 0 .561 1.356c.359.36.847.561 1.356.561h5.753c.509.001.997-.201 1.357-.56a1.92 1.92 0 0 0 .563-1.357 1.92 1.92 0 0 0 .561 1.356c.359.36.847.561 1.356.561h2.876a1.92 1.92 0 0 0 1.356-.561c.36-.359.561-.847.561-1.356v-.959zm-.228-.958l-1.718-6.011a.96.96 0 0 0-.922-.7h-4.391l1.342 6.711zM592.267 15h-4.391a.96.96 0 0 0-.923.7l-1.717 6.011h5.689zm6.519 0h-4.564l-1.342 6.711h7.248zm4.429 11.504a2.86 2.86 0 0 1-1.917-.734 2.86 2.86 0 0 1-1.917.734h-5.753a2.86 2.86 0 0 1-1.917-.734 2.86 2.86 0 0 1-1.917.734h-2.876a2.88 2.88 0 0 1-.959-.171V37.05a.96.96 0 0 0 .959.959h1.917V29.38a.96.96 0 0 1 .959-.959h4.793a.96.96 0 0 1 .959.959v8.628h10.545a.96.96 0 0 0 .959-.959V26.333c-.308.11-.632.167-.959.168zm.959 5.752a.96.96 0 0 1-.959.959h-4.793a.96.96 0 0 1-.959-.959V29.38a.96.96 0 0 1 .959-.959h4.793a.96.96 0 0 1 .959.959z" fill="#4caf50"/><rect width="145" height="54" rx="27" x="771" class="B"/><text letter-spacing="0.014em" class="C D E F"><tspan x="836.299" y="32">Zoho CRM</tspan></text><path d="M805.209 32.695c-.338-.001-.671-.072-.98-.209h0l-6.817-3.038c-1.222-.545-1.771-1.977-1.227-3.2l3.038-6.817c.545-1.222 1.977-1.771 3.2-1.227l6.817 3.038c1.222.545 1.771 1.977 1.227 3.2l-3.038 6.817c-.391.875-1.261 1.438-2.22 1.436zm-.414-1.487c.515.229 1.119-.001 1.351-.515l3.038-6.817c.229-.515-.001-1.119-.515-1.351l-6.821-3.038c-.515-.229-1.119.001-1.351.515l-3.038 6.817c-.229.515.001 1.119.515 1.351z" fill="#089949"/><path d="M826.594 32.699h-7.465c-1.336-.002-2.418-1.084-2.42-2.42v-7.465c.002-1.336 1.084-2.418 2.42-2.42h7.465c1.336.002 2.418 1.084 2.42 2.42v7.46c.001 1.338-1.082 2.423-2.42 2.425zm-7.465-10.908c-.564.002-1.02.458-1.022 1.022v7.461c.002.564.458 1.02 1.022 1.022h7.465c.565 0 1.023-.457 1.025-1.022v-7.465c-.002-.564-.458-1.02-1.022-1.022z" fill="#f9b21d"/><path d="M798.639 24.182l-1.005 2.246-.038.068.392 2.42a1.02 1.02 0 0 1-.844 1.172l-7.371 1.193c-.268.043-.542-.022-.763-.179a1 1 0 0 1-.409-.665l-1.194-7.371c-.043-.268.022-.542.179-.763a1 1 0 0 1 .665-.409l7.371-1.193c.054-.008.108-.013.162-.013.502.002.929.366 1.01.861l.4 2.437 1.039-2.331-.055-.328c-.216-1.317-1.456-2.212-2.774-2l-7.371 1.193a2.37 2.37 0 0 0-1.572.967 2.4 2.4 0 0 0-.426 1.8l1.193 7.371a2.4 2.4 0 0 0 .971 1.577c.409.299.903.458 1.41.456a2.41 2.41 0 0 0 .392-.03l7.371-1.193c1.317-.216 2.212-1.456 2-2.774z" fill="#e42527"/><path d="M807.48 27.702l1.082-2.424-.307-2.254a1.02 1.02 0 0 1 .878-1.146l7.4-1.005c.047 0 .094-.008.141-.008a1.03 1.03 0 0 1 .618.209c.034.025.064.055.094.081.334-.352.766-.595 1.24-.7a2.35 2.35 0 0 0-.49-.5 2.41 2.41 0 0 0-1.789-.473l-7.4 1.005c-.637.083-1.214.419-1.6.933a2.41 2.41 0 0 0-.473 1.789zm12.585 1.248l-.971-7.158a1.02 1.02 0 0 0-.984 1.018v2.1l.575 4.227a1.02 1.02 0 0 1-.878 1.146l-7.4 1.005a1.02 1.02 0 0 1-1.146-.878l-.341-2.509-1.082 2.424.038.273a2.42 2.42 0 0 0 2.396 2.092c.111-.001.222-.008.332-.021l7.388-1a2.42 2.42 0 0 0 2.071-2.722z" fill="#226db4"/><path d="M799.197 36.24l1.056-1.559h-.869c-.047 0-.085-.038-.085-.085v-.209c0-.047.038-.085.085-.085h1.427c.047 0 .085.038.085.085v.081c0 .017-.004.033-.013.047l-1.035 1.559h.929c.047 0 .085.038.085.085v.209c0 .047-.038.085-.085.085h-1.508c-.047 0-.085-.038-.085-.085v-.076c-.003-.018.002-.037.013-.052zm4.448-.878a1.07 1.07 0 0 1 1.108-1.1 1.05 1.05 0 0 1 1.108 1.1 1.07 1.07 0 0 1-.31.806 1.06 1.06 0 0 1-.806.311 1.05 1.05 0 0 1-1.1-1.117zm1.709.008c0-.388-.188-.72-.609-.72s-.588.345-.588.737a.63.63 0 0 0 .147.49c.116.135.283.216.462.222.421-.004.588-.366.588-.728zm3.536-1.073h.315c.047 0 .085.038.085.085v.792h.895v-.792c0-.047.038-.085.085-.085h.315c.047 0 .085.038.085.085v1.981c0 .047-.038.085-.085.085h-.311c-.047 0-.085-.038-.085-.085v-.8h-.895v.8c0 .047-.038.085-.085.085h-.315c-.047 0-.085-.038-.085-.085v-1.981c-.002-.022.006-.044.022-.061s.037-.025.059-.024zm4.725 1.065a1.07 1.07 0 0 1 1.108-1.1 1.05 1.05 0 0 1 1.108 1.1c.016.301-.096.595-.309.809s-.506.327-.807.312a1.05 1.05 0 0 1-1.1-1.121zm1.7.008c0-.388-.188-.72-.609-.72s-.588.345-.588.737a.63.63 0 0 0 .147.49c.116.135.283.216.462.222.426-.004.588-.366.588-.728z"/><rect width="122" height="54" rx="27" x="924" class="B"/><text letter-spacing="0.014em" class="C D E F"><tspan x="977.299" y="32">Adwords</tspan></text><path d="M944.548 32.703l8.828-15.291 7.649 4.417-8.827 15.291z" fill="#fbbc04"/><path d="M969.93 32.65l-8.833-15.3a4.42 4.42 0 0 0-5.937-1.781 4.42 4.42 0 0 0-1.872 5.909l.16.278 8.833 15.3a4.42 4.42 0 0 0 5.981 1.643 4.42 4.42 0 0 0 1.727-5.957l-.059-.1v.01z" fill="#4285f4"/><circle cx="948.417" cy="34.878" fill="#34a853" r="4.417"/><rect width="153" height="54" rx="27" x="1054" class="B"/><text letter-spacing="0.014em" class="C D E F"><tspan x="1103.299" y="32">Google Sheets</tspan></text><g fill="#28b446"><path d="M1090.321 19.688h5.172l-5.978-5.979v5.172a.81.81 0 0 0 .806.807zm-4.032 6.505h3.226v1.613h-3.226zm0 3.225h3.226v1.613h-3.226zm-4.838 0h3.226v1.613h-3.226zm4.838 3.226h3.226v1.613h-3.226z"/><path d="M1077.419 40.762h16.128c1.335-.002 2.417-1.084 2.419-2.419V21.301h-5.645c-1.336-.001-2.419-1.083-2.421-2.419v-5.645h-10.481c-1.335.002-2.417 1.084-2.419 2.419v22.686a2.42 2.42 0 0 0 2.419 2.42zm2.419-15.375c0-.445.361-.806.806-.806h9.677c.445 0 .806.361.806.806v9.677c0 .445-.361.806-.806.806h-9.676c-.445 0-.806-.361-.806-.806zm1.613 7.257h3.226v1.613h-3.226zm0-6.451h3.226v1.613h-3.226z"/></g><rect width="106" height="54" rx="27" x="1215" class="B"/><text letter-spacing="0.014em" class="C D E F"><tspan x="1267.299" y="32">Gmail</tspan></text><path d="M1234.823 37.054h4.252V26.726l-2.785-4.863-3.29.309v13.062a1.82 1.82 0 0 0 1.823 1.823z" fill="#0085f7"/><path d="M1253.656 37.054h4.253a1.82 1.82 0 0 0 1.823-1.823V22.172l-3.286-.306-2.789 4.863v10.328z" fill="#00a94b"/><path d="M1253.656 18.828l-2.5 4.767 2.5 3.131 6.075-4.556v-2.43c0-1.035-.585-1.982-1.511-2.445s-2.034-.363-2.863.258z" fill="#ffbc00"/><path d="M1239.075 26.725l-2.38-5.028 2.38-2.87 7.29 5.468 7.29-5.468v7.9l-7.29 5.468z" fill="#ff4131" fill-rule="evenodd"/><path d="M1233 19.739v2.43l6.075 4.556v-7.9l-1.701-1.278c-.829-.622-1.938-.721-2.865-.257s-1.511 1.412-1.509 2.449z" fill="#e51c19"/><rect width="136" height="54" rx="27" x="1329" class="B"/><text letter-spacing="0.014em" class="C D E F"><tspan x="1381.299" y="32">Fresh Desk</tspan></text><path d="M1358.562 13h12.86l1.062.236c.679.206 1.21.737 1.416 1.416 0 .59.118 1.18.118 1.888 0 3.421-.118 6.843 0 10.265.118 5.9-2.714 9.793-7.787 12.388-1.428.558-2.95.839-4.483.826a19 19 0 0 1-5.191-.236c-2.822-.666-5.324-2.292-7.079-4.6A11.09 11.09 0 0 1 1347 28.34v-3.775a12.39 12.39 0 0 1 1.3-4.955 13.33 13.33 0 0 1 6.725-6.017 18.53 18.53 0 0 1 3.54-.59z" fill="#25c06f"/><path d="M1360.804 18.899l1.18.236a5.78 5.78 0 0 1 4.6 5.781c.118 1.416 0 2.832 0 4.247s-.118 1.77-1.18 2.006-.236.354-.354.59-1.18 2.124-2.95 2.124-1.416.236-1.416-.236.944-.236 1.416-.236a1.27 1.27 0 0 0 .944-.236c.354-.236 0-.118.118 0 .712-.108 1.253-.697 1.3-1.416-.118-.118-.118-.118 0-.236s-1.534-.472-1.534-2.242v-2.714a3.3 3.3 0 0 1 2.124-.118 4.72 4.72 0 0 0-6.489-5.663c-1.418.552-2.446 1.802-2.714 3.3.118.59-.118 1.062 0 1.534s-.118.708.354.708c.592-.075 1.193-.035 1.77.118.59.236.236 1.062.236 1.652.137 1.061.097 2.138-.118 3.186-3.3.354-3.893-.118-3.893-3.421-.02-.946.02-1.891.118-2.832a5.9 5.9 0 0 1 5.191-6.017h.59a.47.47 0 0 1 .708-.118z" fill="#fdfefd"/><rect width="119" height="54" rx="27" x="1473" class="B"/><text letter-spacing="0.014em" class="C D E F"><tspan x="1526.299" y="32">Shopify</tspan></text><path d="M1510.088 15.42l-.872.259a6.9 6.9 0 0 0-.424-1.037c-.443-1.064-1.465-1.773-2.617-1.816-.079-.003-.159.005-.236.024-.024-.047-.071-.071-.094-.118a2.24 2.24 0 0 0-1.816-.731c-1.415.047-2.829 1.061-3.961 2.877a11.19 11.19 0 0 0-1.58 4.126l-2.782.872c-.825.259-.849.283-.943 1.061l-2.24 17.188 17.825 3.089V15.397a2.46 2.46 0 0 0-.26.023zm-4.126 1.273l-2.994.92a7.29 7.29 0 0 1 1.507-2.95 3.79 3.79 0 0 1 1.014-.754 6.6 6.6 0 0 1 .472 2.785zm-1.933-3.725a1.62 1.62 0 0 1 .849.212 4.49 4.49 0 0 0-1.108.849c-.952 1.12-1.594 2.469-1.863 3.914l-2.476.754c.517-2.263 2.427-5.682 4.596-5.729zm-2.741 12.968c.094 1.509 4.079 1.839 4.315 5.4.165 2.806-1.485 4.716-3.867 4.857-1.629.149-3.245-.4-4.448-1.509l.613-2.594c.823.639 1.814 1.024 2.853 1.108a1.14 1.14 0 0 0 1.108-1.2c-.118-1.981-3.372-1.863-3.584-5.116-.189-2.735 1.6-5.494 5.564-5.753a5.01 5.01 0 0 1 2.311.283l-.9 3.4a4.92 4.92 0 0 0-2.216-.377c-1.749.11-1.768 1.218-1.749 1.501zm5.612-9.526c.01-.875-.134-1.745-.424-2.57 1.085.212 1.6 1.415 1.839 2.146q-.633.177-1.411.425zm3.988 24.758l7.4-1.839-3.203-21.668c-.019-.131-.127-.23-.259-.236-.118 0-2.193-.047-2.193-.047l-1.745-1.7z" fill="#81c038"/><rect width="117" height="54" rx="27" x="1600" class="B"/><text letter-spacing="0.014em" class="C D E F"><tspan x="1665.299" y="32">Pay U</tspan></text><g fill="#00ab88"><path d="M1655.676 23.419a.49.49 0 0 1-.517-.517v-2.273h-.207c-1.188 0-1.6.207-1.6 1.292v2.532h0v4.134a2.04 2.04 0 0 1-.258 1.033c-.31.517-.982.723-1.964.723-1.033 0-1.653-.207-1.964-.723a2.04 2.04 0 0 1-.258-1.033v-4.134h0v-2.532c0-1.085-.413-1.292-1.6-1.292h-.366c-1.188 0-1.6.207-1.6 1.292v6.666a4.84 4.84 0 0 0 .723 2.687c.878 1.4 2.635 2.17 5.115 2.17h0c2.48 0 4.237-.775 5.115-2.17a4.96 4.96 0 0 0 .723-2.687v-5.168zm3.514-6.407h1.964c.097-.002.19.035.259.103s.106.162.103.259v1.963c.002.097-.035.19-.103.259s-.162.106-.259.103h-1.964c-.097.002-.19-.035-.259-.103s-.106-.162-.103-.259v-1.963c-.002-.097.035-.19.103-.259s.162-.106.259-.103zm-1.964-1.86h1.342c.07-.004.138.022.187.071s.075.117.071.187v1.342c.004.07-.022.138-.071.187s-.117.075-.187.071h-1.342c-.07.004-.138-.022-.187-.071s-.075-.117-.071-.187V15.41c.009-.138.12-.249.258-.258zm-34.62 5.477h-2.842c-1.5 0-2.17.672-2.17 2.17v9.714c0 .568.207.775.775.775h.207c.568 0 .775-.207.775-.775v-3.772h3.255c2.894 0 4.289-1.292 4.289-4.082s-1.4-4.03-4.289-4.03zm2.532 4.03c0 1.6-.413 2.429-2.532 2.429h-3.255v-4.082c0-.568.207-.775.775-.775h2.48c1.602.051 2.532.413 2.532 2.428zm5.374-1.24a9.37 9.37 0 0 0-2.067.207c-.465.1-.672.207-.672.775v.155a1.03 1.03 0 0 0 .1.465.47.47 0 0 0 .362.155.77.77 0 0 0 .31-.052 11.49 11.49 0 0 1 2.067-.207c1.705 0 2.377.465 2.377 1.6v1.033h-2.116c-2.739 0-4.03.93-4.03 2.894s1.343 3 3.72 3c2.842 0 4.134-.982 4.134-3.152v-3.773c-.054-2.067-1.395-3.1-4.185-3.1zm2.48 5.477v1.343c0 1.085-.413 1.705-2.48 1.705-1.343 0-2.015-.465-2.015-1.5 0-1.085.672-1.55 2.377-1.55zm11.058-5.011c-.1-.155-.362-.155-.568-.155h-.155c-.568 0-.775.155-.93.723l-1.6 6.614c-.207.827-.465.982-.93.982-.568 0-.827-.155-1.033-.982l-1.809-6.614c-.155-.568-.362-.723-.93-.723h-.153c-.207 0-.465 0-.568.155a.65.65 0 0 0 0 .62l1.809 6.666c.362 1.292.723 2.325 2.274 2.325a3.99 3.99 0 0 0 .775-.1c-.465 1.447-.93 2.067-2.325 2.222-.212-.03-.425.048-.568.207a.61.61 0 0 0-.052.517l.052.155c.1.413.207.62.672.62h.155c2.067-.155 3.152-1.24 3.824-3.824l2.222-8.784c-.1-.258-.052-.517-.155-.62z"/><path d="M1658.311 19.751h-2.635a.49.49 0 0 0-.517.517v.362h.207c1.188 0 1.6.207 1.6 1.292v1.55h1.343a.49.49 0 0 0 .517-.517v-2.687a.49.49 0 0 0-.515-.517z"/></g></svg>