<svg xmlns="http://www.w3.org/2000/svg" width="1786" height="54" xmlns:v="https://vecta.io/nano"><style><![CDATA[.B{fill:#f6f9ff}.C{fill:#222}.D{font-size:12px}.E{font-family:Arial-BoldMT, Arial}.F{font-weight:700}.G{fill-rule:evenodd}.H{fill:#006fb4}.I{fill:#009a40}.J{fill:#635bff}]]></style><defs><clipPath id="A"><path d="M739,0h9.409V8.962H739Zm0,0" transform="translate(-739)" class="H"/></clipPath></defs><rect width="120" height="54" rx="27" x="297" class="B"/><text letter-spacing="0.014em" class="C D E F"><tspan x="347.299" y="32">Phonepe</tspan></text><path d="M330.077 12.393c-5.721-1.353-11.693.874-15.132 5.642s-3.667 11.138-.578 16.139 8.887 7.65 14.69 6.71 10.468-5.283 11.82-11.004c1.846-7.811-2.989-15.64-10.8-17.487z" fill="#5f259f"/><path d="M333.638 21.52c-.016-.574-.481-1.034-1.055-1.044h-1.95l-4.465-5.128c-.426-.479-1.091-.669-1.706-.487l-1.548.487a.36.36 0 0 0-.163.568l4.877 4.629h-7.39c-.107-.004-.211.037-.287.113s-.117.18-.113.287v.812c.01.578.477 1.045 1.055 1.055h1.138v3.9c0 2.922 1.543 4.629 4.141 4.629a5.6 5.6 0 0 0 2.274-.407v2.6c-.005.346.131.68.376.924s.578.38.924.376h1.136c.261-.018.469-.226.487-.487V22.739h1.862c.11.006.217-.035.295-.112s.119-.185.112-.295zm-5.206 6.983c-.512.224-1.067.335-1.626.324-1.3 0-1.947-.648-1.947-2.111v-3.9h3.573v5.679z" fill="#fff"/><rect width="130" height="54" rx="27" x="425" class="B"/><text letter-spacing="0.014em" class="C D E F"><tspan x="473.299" y="32">Shiprocket</tspan></text><path d="M452.275 32.266l6.912-3.99a1.37 1.37 0 0 0 0-2.373l-6.76-3.901a1.37 1.37 0 0 0-2.17 1.121v7.941a1.37 1.37 0 0 0 2.018 1.202zm1.175-11.964l8.872 5.123c.559.323 1.247.323 1.806 0l.061-.036a1.37 1.37 0 0 0 0-2.373l-11.764-6.79c-.419-.299-.97-.338-1.427-.102s-.744.708-.743 1.223v.132c0 .114-.06.219-.159.276s-.22.057-.318 0l-1.284-.74a.32.32 0 0 1-.154-.338 3.36 3.36 0 0 1 5.108-2.146l11.727 6.771a3.35 3.35 0 0 1 .023 5.789h0l-13.979 8.075a1.93 1.93 0 0 0-.965 1.671h0a1.37 1.37 0 0 0 2.17 1.121l11.763-6.791a1.37 1.37 0 0 0 0-2.373l-.114-.066c-.099-.057-.16-.162-.16-.276s.061-.219.16-.276l1.281-.74a.32.32 0 0 1 .37.036c.805.715 1.217 1.773 1.109 2.844s-.724 2.025-1.655 2.565l-11.73 6.772a3.35 3.35 0 0 1-5.173-2.787h0V20.583a1.7 1.7 0 0 0-.849-1.473h0c-.419-.299-.97-.338-1.427-.102s-.744.708-.743 1.223v13.714a1.37 1.37 0 0 0 2.17 1.121h0c.098-.057.22-.057.318 0s.159.162.159.276v1.474a.32.32 0 0 1-.218.3 3.34 3.34 0 0 1-4.41-3.171V20.231a3.35 3.35 0 0 1 5-2.918z" fill="#46237a" class="G"/><path d="M452.075 29.582c-.001.19.105.364.273.452s.372.073.527-.038l4.337-2.5c.156-.09.253-.257.253-.438s-.096-.348-.253-.438l-4.337-2.5c-.155-.11-.358-.125-.527-.038s-.274.262-.273.452z" fill="#18f040"/><rect width="148" height="54" rx="27" x="563" class="B"/><text letter-spacing="0.014em" class="C D E F"><tspan x="633.299" y="32">Blue Dart</tspan></text><g class="G"><g class="H"><path d="M577.833 26.035l.488-1.62h2.411a1.62 1.62 0 0 1 1.2.431 1.62 1.62 0 0 1 .431 1.2 1.5 1.5 0 0 1-.205.815c-.131.212-.34.364-.582.423.303.06.574.23.761.476a1.58 1.58 0 0 1 .25.939c.034.468-.138.928-.472 1.258-.394.31-.889.461-1.389.425h-2.405v-4.347zm2.188-.209v.85h.238a.47.47 0 0 0 .337-.11.42.42 0 0 0 .115-.317.41.41 0 0 0-.115-.315.48.48 0 0 0-.337-.108zm0 2.133v.946h.3a.6.6 0 0 0 .405-.123c.188-.195.188-.505 0-.7-.116-.088-.26-.131-.405-.121zm0 0"/><path d="M583.234 24.415h1.812v4.346h1.406l-.486 1.62h-2.732v-4.346h-.491l.488-1.62zm3.317 1.62l.488-1.62h1.8v3.255a1.84 1.84 0 0 0 .114.781.46.46 0 0 0 .78-.006 1.8 1.8 0 0 0 .117-.775v-3.255h1.8v3.238a6.44 6.44 0 0 1-.07 1.047 2.18 2.18 0 0 1-.224.689 2.12 2.12 0 0 1-.822.855c-.743.397-1.636.397-2.379 0a2.12 2.12 0 0 1-1.04-1.536 6.53 6.53 0 0 1-.068-1.055v-1.618zm5.537 0l.488-1.62h3.355l-.48 1.62h-1.115v.578h1.446l-.46 1.524h-.986v.626h1.636l-.485 1.62h-2.915v-4.348zm0 0"/></g><path d="M599.101 24.415h1.453a6.68 6.68 0 0 1 1.19.092 2.33 2.33 0 0 1 .8.283 2.74 2.74 0 0 1 1 1.08 3.53 3.53 0 0 1 0 3.056 2.76 2.76 0 0 1-1 1.08 2.36 2.36 0 0 1-.81.285 7.62 7.62 0 0 1-1.315.09h-1.32v-4.346h-.482l.481-1.617zm1.78 4.138a1.26 1.26 0 0 0 .9-.283 1.18 1.18 0 0 0 .285-.874c.025-.313-.073-.624-.272-.867-.227-.207-.529-.31-.835-.285h-.08zm4.288-2.518l-1.3 4.346h1.934l.154-.754h1.36l.161.754h1.94l-1.754-5.966h-2.492l-.486 1.62zm0 0" class="I"/><path d="M606.257 28.216h.751l-.154-.677q-.113-.513-.154-.791c-.026-.173-.043-.347-.051-.522h-.031c-.008.175-.025.349-.051.522q-.041.277-.154.791zm0 0" class="H"/><g class="I"><path d="M609.687 24.415h2.266a2.05 2.05 0 0 1 1.51.519c.37.406.559.946.522 1.494.015.368-.077.732-.263 1.05a1 1 0 0 1-.709.482l1.34 2.422h-2.019l-.88-1.963v1.96h-1.764v-4.342h0-.484l.485-1.62zm1.764 1.54v1.171h.282c.149.01.294-.044.4-.149a.61.61 0 0 0 .139-.428c.011-.159-.039-.316-.139-.44a.51.51 0 0 0-.4-.154zm0 0"/><path d="M615.366 30.379v-4.344h-1.032l.484-1.62h3.612l-.49 1.62h-.777v4.344zm0 0"/></g></g><g transform="translate(619.091 23)" clip-path="url(#A)" class="G H"><path d="M3.983 4.479l-3.987 4.48 9.409-4.48L-.004-.002zm0 0"/></g><path d="M620.441 27.478l-1.159 3.236 2.871-3.237-2.871-3.237zm0 0" class="G I"/><rect width="118" height="54" rx="27" x="171" class="B"/><text letter-spacing="0.014em" class="C D E F"><tspan x="217.299" y="32">Razorpay</tspan></text><path d="M198.922 21.764l-1.312 4.828 7.508-4.856-4.91 18.322h4.987L212.448 13" fill="#3395ff"/><path d="M190.84 32.36l-2.065 7.703h10.221l4.179-15.67z" fill="#072654"/><rect width="143" height="54" rx="27" x="887" class="B"/><text letter-spacing="0.014em" class="C D E F"><tspan x="966.299" y="32">Bitrix24</tspan></text><path d="M938.876 32.3h5.942v-1.312h-3.942c.537-2.16 3.848-2.631 3.848-5.052 0-1.309-.89-2.251-2.735-2.251a6.48 6.48 0 0 0-2.853.694l.419 1.2a5.19 5.19 0 0 1 2.186-.576c.694 0 1.335.288 1.335 1.086.027 1.787-3.847 1.918-4.2 6.211zm17.826-1.819a3.3 3.3 0 1 1 3.3-3.3 3.32 3.32 0 0 1-3.3 3.3zm0-6.007a2.7 2.7 0 1 0 2.7 2.7 2.69 2.69 0 0 0-2.7-2.701zm1.871 2.709h-1.649v-1.649h-.445v2.094h2.094v-.445zm-53.621-4.673h2.853c2.094 0 3.05 1.2 3.05 2.474.022.845-.433 1.63-1.178 2.029v.026c1.099.244 1.871 1.231 1.845 2.356 0 1.531-1.139 2.892-3.429 2.892h-3.141zm2.644 4.1c.982 0 1.531-.537 1.531-1.309 0-.733-.471-1.309-1.531-1.309h-.825v2.6a14.9 14.9 0 0 0 .825.015zm.275 4.227c1.178 0 1.845-.445 1.845-1.427 0-.825-.641-1.335-1.623-1.335h-1.335v2.762zm4.987-7.748a1.1 1.1 0 1 1 1.086 1.047 1.03 1.03 0 0 1-1.087-1.05zm.2 2.186h1.78v7.015h-1.786zm4.162 5.3v-3.913h-1.27v-1.4h1.27v-1.623l1.78-.51v2.133h2.133l-.445 1.4H919v3.468c0 .667.223.89.694.89.389-.007.767-.13 1.086-.353l.537 1.2a3.96 3.96 0 0 1-2.068.537 1.74 1.74 0 0 1-2.034-1.831zm5.052-5.3h1.492l.2.8a2.63 2.63 0 0 1 1.937-.955 1.82 1.82 0 0 1 .982.288l-.641 1.492a1.45 1.45 0 0 0-.8-.223 2.1 2.1 0 0 0-1.427.694v4.96h-1.78v-7.054zm5.3-2.186a1.09 1.09 0 0 1 1.85-.813c.317.313.411.788.237 1.198a1.09 1.09 0 0 1-1.027.662c-.284.016-.563-.088-.765-.289s-.311-.477-.299-.761zm.2 2.186h1.78v7.015h-1.78zm5.366 3.495l-2.539-3.495h1.845l1.649 2.29 1.688-2.29h1.845l-2.578 3.495 2.6 3.521h-1.845l-1.688-2.356-1.715 2.356h-1.848c0 .009 2.578-3.524 2.578-3.524zm17.203.192v-5.274h-1.112l-4.227 5.5v1.047h3.822v2.094h1.531v-2.094h1.27v-1.27zm-1.518-1.243v1.2h-1.022l-1.086.026 2.16-2.919c.013.262-.052 1.021-.052 1.688z" fill="#41c0f0"/><rect width="163" height="54" rx="27" class="B"/><text letter-spacing="0.014em" class="C D E F"><tspan x="57.299" y="32">WooCommerce</tspan></text><path d="M23.497 16h19.562a2.24 2.24 0 0 1 2.238 2.239V25.7c0 .593-.236 1.163-.656 1.582s-.989.655-1.582.655h-7.018l.96 2.36-4.242-2.36h-9.265a2.24 2.24 0 0 1-2.235-2.237v-7.461A2.24 2.24 0 0 1 23.497 16z" fill="#7d57a4" class="G"/><path d="M22.468 18.027a.81.81 0 0 1 .615-.3.73.73 0 0 1 .859.706q.462 3.073.988 5.217l2.153-4.094c.123-.314.405-.538.739-.586q.647-.045.809.824a18.32 18.32 0 0 0 .93 3.357 15.33 15.33 0 0 1 1.295-5.407c.119-.254.369-.422.65-.435.224-.018.446.051.62.194a.76.76 0 0 1 .3.568c.016.164-.017.328-.095.473a11.68 11.68 0 0 0-.945 3.548 17.97 17.97 0 0 0-.27 3.746 1.2 1.2 0 0 1-.115.643.62.62 0 0 1-.523.355 1.01 1.01 0 0 1-.778-.364c-1.053-1.197-1.8-2.631-2.177-4.18q-.945 1.892-1.418 2.83-.865 1.665-1.483 1.707-.4.028-.683-.673c-.767-2.43-1.31-4.926-1.623-7.455a.84.84 0 0 1 .154-.669zM43.58 19.57a2.28 2.28 0 0 0-1.57-1.135c-1.16-.249-2.338.337-2.839 1.412a5.22 5.22 0 0 0-.763 2.767 3.8 3.8 0 0 0 .473 1.946 2.27 2.27 0 0 0 1.571 1.135 2.55 2.55 0 0 0 .533.058 2.62 2.62 0 0 0 2.305-1.469 5.29 5.29 0 0 0 .765-2.783c.02-.675-.144-1.342-.475-1.931zm-1.239 2.725a2.6 2.6 0 0 1-.747 1.454c-.199.226-.493.344-.793.317q-.36-.072-.578-.636c-.111-.285-.17-.588-.173-.894-.001-.242.023-.483.072-.72a3.24 3.24 0 0 1 .518-1.167q.49-.72 1.023-.6.36.073.577.634c.111.285.169.587.172.893a3.51 3.51 0 0 1-.071.724zm-4.918-2.725a2.28 2.28 0 0 0-1.57-1.135 2.54 2.54 0 0 0-2.838 1.412 5.21 5.21 0 0 0-.765 2.767 3.8 3.8 0 0 0 .473 1.946 2.27 2.27 0 0 0 1.571 1.135 2.55 2.55 0 0 0 .533.058c.983-.019 1.874-.586 2.306-1.469a5.3 5.3 0 0 0 .771-2.783 3.71 3.71 0 0 0-.473-1.93zm-1.239 2.725a2.6 2.6 0 0 1-.749 1.456c-.199.226-.493.344-.793.317q-.359-.072-.576-.638c-.111-.285-.17-.588-.173-.894-.001-.242.023-.483.072-.72a3.27 3.27 0 0 1 .518-1.167q.488-.718 1.023-.6.36.073.576.634c.111.285.17.587.173.893a3.51 3.51 0 0 1-.072.72z" fill="#fff"/><path d="M14.568 32.912c-.538.536-.83 1.272-.806 2.031a2.93 2.93 0 0 0 .8 2.143c.552.552 1.31.848 2.09.814.285-.007.568-.051.842-.131v-1.3a2.67 2.67 0 0 1-.735.124 1.31 1.31 0 0 1-1.026-.431 1.92 1.92 0 0 1 0-2.3c.236-.287.59-.451.961-.444a2.97 2.97 0 0 1 .8.117v-1.317a3.45 3.45 0 0 0-.881-.106c-.762-.024-1.5.265-2.043.8zm5.6-.8a2.16 2.16 0 0 0-1.745.743 3.09 3.09 0 0 0-.622 2.071c-.052.783.168 1.56.622 2.2a2.2 2.2 0 0 0 1.808.764 2.14 2.14 0 0 0 1.766-.764c.448-.622.668-1.379.623-2.144a3.21 3.21 0 0 0-.629-2.128c-.462-.513-1.134-.787-1.823-.742zm.64 4.2a.72.72 0 0 1-.64.342c-.246.008-.475-.125-.591-.342-.171-.432-.239-.899-.2-1.362q0-1.59.8-1.59.855 0 .855 1.609a2.76 2.76 0 0 1-.225 1.344zm5.805-4.042l-.289 1.234q-.113.474-.211.971l-.162.855q-.233-1.28-.632-3.058h-1.877l-.7 5.495h1.406l.382-3.787.96 3.787h1l.916-3.787.4 3.779h1.47l-.746-5.489zm6.725 0l-.289 1.234q-.113.474-.211.971l-.162.855q-.233-1.28-.633-3.058h-1.875l-.707 5.49h1.407l.382-3.787.961 3.787h1l.919-3.782.4 3.779H36l-.745-5.489zm4.563 3.319h1.321v-1.146h-1.321v-1.01h1.519v-1.165h-3v5.494h3.014v-1.176h-1.529zm5.71-.866a1.5 1.5 0 0 0-.378-2c-.489-.324-1.07-.481-1.656-.449h-1.73v5.495h1.485v-2.513h.024l1.2 2.5h1.569l-1.186-2.478a1.43 1.43 0 0 0 .672-.562zm-2.278-.089v-1.308c.264-.014.526.047.756.177.163.132.248.336.229.544q0 .567-.985.584zm3.387-1.718a2.74 2.74 0 0 0-.808 2.031c-.035.792.254 1.564.8 2.139.553.55 1.31.845 2.09.814.286-.005.57-.048.845-.127v-1.3a2.67 2.67 0 0 1-.735.124 1.31 1.31 0 0 1-1.027-.431 1.7 1.7 0 0 1-.386-1.17c-.016-.411.12-.814.382-1.132.236-.287.59-.451.961-.444a2.97 2.97 0 0 1 .805.117v-1.319a3.45 3.45 0 0 0-.883-.106c-.762-.024-1.5.265-2.043.8zm4.819 3.674v-1h1.321v-1.147h-1.321v-1.01h1.519v-1.165h-3v5.494h3.01v-1.176z"/><rect width="160" height="54" rx="27" x="719" class="B"/><text letter-spacing="0.014em" class="C D E F"><tspan x="792.299" y="32">SchoolKnot</tspan></text><path d="M765.238 31.699l-.4.015h-28.7c-.117.017-.235-.022-.319-.106s-.123-.201-.107-.318l-.007-9.926c0-.294.076-.364.367-.364q14.417.012 28.833.007l.33.015v10.677zm-17.617-6.224V23.16c0-.563 0-.549-.553-.567-.271-.009-.354.068-.352.346l.006 6.118c0 .564 0 .55.555.568.274.009.356-.068.351-.346l.007-2.679c.047-.622.548-1.111 1.171-1.143a1.03 1.03 0 0 1 1.085 1.02c.062.846.077 1.694.045 2.542.012.632 0 .627.648.6.16-.006.24-.037.238-.22l-.026-3.009c.013-.65-.359-1.245-.949-1.518-.607-.284-1.324-.186-1.833.251-.129.1-.24.215-.392.353zm-8.211-2.623a2.38 2.38 0 0 0-1.317.3 1.69 1.69 0 0 0-.335 2.724 3.18 3.18 0 0 0 1.082.622c.303.103.592.243.861.416a1.1 1.1 0 0 1-.4 2.022c-.578.107-1.176.026-1.705-.231-.107-.044-.234-.225-.349.01-.193.4-.187.586.06.694a3.5 3.5 0 0 0 2.357.2c.785-.156 1.376-.804 1.459-1.6a1.77 1.77 0 0 0-1-1.851c-.213-.115-.433-.218-.657-.309-.311-.112-.608-.26-.886-.439-.342-.204-.524-.597-.458-.989s.367-.704.758-.784c.497-.118 1.02-.069 1.486.14.158.062.3.124.333-.12.025-.2.327-.445-.071-.6a2.99 2.99 0 0 0-1.215-.205zm12.457 4.4c-.07.826.308 1.626.989 2.097s1.563.543 2.311.187a2.5 2.5 0 0 0 1.379-2.715 2.23 2.23 0 0 0-1.367-1.92c-.761-.336-1.643-.247-2.322.235s-1.054 1.284-.989 2.113zm5.424.237c-.004.834.459 1.601 1.2 1.985a2.37 2.37 0 0 0 3.486-2.113c.102-.684-.109-1.378-.574-1.891s-1.135-.789-1.826-.753c-1.346.027-2.273 1.051-2.285 2.768zm-12.811 2.243a5.98 5.98 0 0 0 .955-.158c.423-.093.237-.36.2-.587-.052-.309-.246-.128-.374-.09-.627.257-1.345.141-1.86-.3a2 2 0 0 1-.258-2.411 1.76 1.76 0 0 1 2.137-.623c.174.062.32.127.35-.133.023-.2.268-.441-.13-.55-.486-.147-.999-.181-1.5-.1a2.39 2.39 0 0 0-2.034 2.6 2.29 2.29 0 0 0 2.516 2.353zm19.451-3.635v-3.2c0-.228-.062-.33-.3-.295-.044.003-.088.003-.132 0-.508.007-.446-.06-.446.431q0 3.006 0 6.012c0 .581 0 .566.568.58.258.006.309-.083.307-.321l-.005-3.2z" fill="#5b90ca"/><path d="M765.238 31.699V21.023l.363-.014q10.345 0 20.69-.009c.333 0 .418.076.417.414q-.021 4.98 0 9.959c0 .277-.075.346-.348.346q-10.411-.012-20.823-.007c-.1 0-.2-.009-.3-.014zm2.168-5.588v-2.613c0-.556 0-.543-.563-.558-.256-.007-.335.06-.333.327l.007 5.723c0 .651 0 .643.647.631.185 0 .25-.053.246-.243l-.014-1.686a1.36 1.36 0 0 1 .431-1.114c.182-.191.241-.152.367.039l1.857 2.774c.063.093.1.229.255.227h.929l-.238-.372-2.192-3.225a.3.3 0 0 1 .021-.446l1.872-2.184.366-.443h-.737c-.232-.034-.461.074-.583.274-.238.331-.511.635-.768.952l-1.57 1.943zm14.352 1.086a2.3 2.3 0 0 0-3.222-2.307 2.4 2.4 0 0 0-1.46 2.41 2.31 2.31 0 0 0 1.571 2.321c.752.259 1.585.12 2.212-.369s.966-1.262.899-2.055zm-9.007-1.623l-.019-.215c-.035-.582-.035-.578-.634-.536-.132.009-.18.026-.178.187l.021 4c0 .61 0 .595.6.61.256.007.313-.077.309-.317v-2.58c-.014-.685.526-1.254 1.211-1.277.625 0 1.044.437 1.071 1.183l.024 2.347c0 .676 0 .668.672.642.176-.007.226-.064.221-.233v-1.224a14.03 14.03 0 0 0-.054-1.981 1.65 1.65 0 0 0-2.069-1.419c-.48.105-.899.396-1.164.81zm10.307 1.541h0v1.323c0 .033 0 .066.007.1-.01.514.321.973.812 1.126.343.094.705.092 1.047-.007.356-.1.122-.382.135-.579.015-.233-.165-.1-.258-.093-.569.071-.862-.144-.874-.7l-.011-2.58c0-.164.058-.207.211-.2h.828c.081 0 .168.025.2-.105.107-.392-.014-.568-.41-.568a5.49 5.49 0 0 0-.562 0c-.229.023-.282-.074-.271-.283l.005-.893c0-.134-.013-.189-.183-.158-.678.125-.68.116-.68.8a1.96 1.96 0 0 0 0 .264c.03.226-.071.285-.282.274-.147-.007-.351-.081-.436.047-.077.173-.085.369-.021.547.03.14.189.056.289.073a.62.62 0 0 0 .2 0c.21-.032.262.06.255.26v1.356z" fill="#fdf001"/><path d="M773.372 32.395c-.003.092-.076.165-.168.168-.043.013-.089.007-.127-.016s-.065-.061-.073-.105c-.018-.12.071-.173.177-.187s.159.048.188.14z" fill="#313131"/><path d="M747.621 25.478l.392-.353c.509-.437 1.226-.535 1.833-.251.59.273.962.869.949 1.518l.027 3.009c0 .183-.078.214-.238.22-.646.024-.636.029-.648-.6a22.6 22.6 0 0 0-.045-2.542 1.03 1.03 0 0 0-1.085-1.02 1.24 1.24 0 0 0-1.171 1.143l-.007 2.679c0 .28-.078.356-.351.346-.554-.019-.555 0-.555-.568l-.006-6.118c0-.278.081-.354.352-.346.553.018.553 0 .553.567z" fill="#f8fafc"/><path d="M739.406 22.853a3 3 0 0 1 1.215.205c.4.155.1.4.071.6-.03.244-.175.183-.333.12a2.32 2.32 0 0 0-1.486-.14c-.39.08-.691.391-.758.784a.96.96 0 0 0 .458.989 4.38 4.38 0 0 0 .886.439c.225.091.444.194.657.309a1.77 1.77 0 0 1 1 1.851c-.083.796-.674 1.444-1.459 1.6a3.5 3.5 0 0 1-2.357-.2c-.247-.107-.253-.3-.06-.694.115-.235.242-.054.349-.01a2.75 2.75 0 0 0 1.705.231 1.1 1.1 0 0 0 .4-2.022 3.93 3.93 0 0 0-.861-.416 3.18 3.18 0 0 1-1.082-.622 1.69 1.69 0 0 1 .335-2.724c.401-.225.858-.329 1.317-.3zm12.461 4.397c-.065-.829.31-1.632.988-2.114s1.559-.572 2.321-.237a2.23 2.23 0 0 1 1.367 1.92 2.5 2.5 0 0 1-1.379 2.715c-.748.355-1.628.282-2.309-.189a2.31 2.31 0 0 1-.988-2.095zm.908-.1a2.18 2.18 0 0 0 .331 1.293c.205.342.558.568.955.609s.789-.106 1.06-.398c.635-.758.708-1.839.181-2.675a1.3 1.3 0 0 0-2.159-.042 2.03 2.03 0 0 0-.368 1.212zm4.517.337c.011-1.718.938-2.742 2.286-2.772a2.31 2.31 0 0 1 1.826.753c.465.512.676 1.206.574 1.891a2.37 2.37 0 0 1-3.486 2.113c-.741-.384-1.204-1.151-1.2-1.985zm.91-.339a2.28 2.28 0 0 0 .16.993 1.35 1.35 0 0 0 1.224.918 1.3 1.3 0 0 0 1.268-.847 2.32 2.32 0 0 0-.008-2.016c-.194-.502-.685-.827-1.223-.809a1.31 1.31 0 0 0-1.205.793 2.1 2.1 0 0 0-.217.968zm-13.72 2.579a2.29 2.29 0 0 1-2.516-2.353 2.39 2.39 0 0 1 2.034-2.6 3.34 3.34 0 0 1 1.5.1c.4.11.152.354.13.55-.03.26-.176.195-.35.133a1.76 1.76 0 0 0-2.137.623 2 2 0 0 0 .258 2.411 1.81 1.81 0 0 0 1.86.3c.128-.038.323-.22.374.09.038.227.224.494-.2.587a6.06 6.06 0 0 1-.955.158z" fill="#fafbfd"/><path d="M763.932 26.095l.005 3.2c0 .237-.048.327-.307.321-.568-.013-.568 0-.568-.58q0-3.006 0-6.012c0-.491-.062-.425.446-.431a.97.97 0 0 0 .132 0c.234-.035.3.067.3.295v3.2z" fill="#fdfdfd"/><path d="M767.407 26.111l1.57-1.943.768-.952c.122-.2.351-.308.583-.274.216.02.436 0 .737 0l-.366.443-1.872 2.184a.3.3 0 0 0-.021.446l2.192 3.225.238.372h-.929c-.159 0-.192-.133-.255-.227l-1.857-2.774c-.126-.191-.186-.231-.367-.039a1.36 1.36 0 0 0-.431 1.114c.043.559 0 1.124.014 1.686 0 .19-.062.24-.246.243-.647.013-.647.02-.647-.631l-.007-5.723c0-.268.077-.334.333-.327.563.015.563 0 .563.558v2.613z" fill="#2b271f"/><path d="M781.753 27.197c.067.793-.271 1.566-.899 2.055s-1.46.628-2.212.369c-.987-.332-1.63-1.282-1.572-2.321a2.4 2.4 0 0 1 1.46-2.41 2.3 2.3 0 0 1 3.223 2.307zm-3.788 0a2.38 2.38 0 0 0 .282 1.144c.21.434.645.715 1.127.727s.93-.248 1.161-.672a2.21 2.21 0 0 0-.005-2.381c-.207-.361-.578-.599-.993-.636s-.822.13-1.091.449c-.315.386-.485.871-.481 1.369z" fill="#28241f"/><path d="M772.746 25.574c.266-.413.684-.705 1.164-.81a1.65 1.65 0 0 1 2.069 1.419 14.01 14.01 0 0 1 .054 1.981v1.224c0 .168-.045.225-.221.233-.672.027-.669.034-.672-.642l-.024-2.347c-.028-.745-.446-1.185-1.071-1.183a1.25 1.25 0 0 0-1.211 1.277v2.58c0 .241-.052.324-.309.317-.6-.015-.6 0-.6-.61l-.021-4c0-.161.046-.178.178-.187.6-.042.6-.045.634.536 0 .052.009.1.019.215z" fill="#2a261f"/><path d="M783.055 27.115v-1.356c.006-.2-.046-.292-.255-.26a.66.66 0 0 1-.2 0c-.1-.017-.258.068-.289-.073-.064-.178-.056-.374.021-.547.085-.128.289-.054.436-.047.211.011.313-.048.282-.274a1.95 1.95 0 0 1 0-.264c0-.681 0-.672.68-.8.171-.031.185.024.184.158l-.005.893c-.011.209.042.306.271.283.186-.019.375 0 .563 0 .4 0 .517.176.41.568-.036.131-.122.1-.2.105h-.827c-.153-.005-.213.038-.211.2l.011 2.58c.012.561.3.776.874.7.093-.012.274-.139.258.093-.013.2.221.482-.135.579a1.92 1.92 0 0 1-1.047.007c-.491-.153-.822-.612-.812-1.126 0-.033-.007-.066-.007-.1v-1.318h0z" fill="#28241f"/><path d="M752.775 27.15a2.03 2.03 0 0 1 .368-1.212 1.3 1.3 0 0 1 2.159.042c.527.836.454 1.917-.181 2.675-.271.292-.664.44-1.06.398a1.27 1.27 0 0 1-.955-.609 2.18 2.18 0 0 1-.331-1.293zm5.427-.002a2.09 2.09 0 0 1 .217-.968 1.31 1.31 0 0 1 1.205-.793c.538-.018 1.029.307 1.223.809a2.32 2.32 0 0 1 .008 2.016c-.197.526-.707.867-1.268.847a1.35 1.35 0 0 1-1.224-.918 2.28 2.28 0 0 1-.16-.993z" fill="#5b90ca"/><path d="M777.965 27.197a2.14 2.14 0 0 1 .481-1.369c.269-.319.676-.486 1.091-.449s.786.275.993.636a2.21 2.21 0 0 1 .005 2.381c-.23.424-.679.683-1.161.672s-.917-.292-1.127-.727a2.38 2.38 0 0 1-.282-1.144z" fill="#fcee00"/><rect width="127" height="54" rx="27" x="1526" class="B"/><text letter-spacing="0.014em" class="C D E F"><tspan x="1598.299" y="32">Stripe</tspan></text><path d="M1588.592 27.222c0-3.05-1.477-5.457-4.3-5.457s-4.551 2.407-4.551 5.433c0 3.586 2.025 5.4 4.933 5.4a6.64 6.64 0 0 0 3.3-.774v-2.386c-.907.449-1.908.673-2.919.655-1.156 0-2.18-.405-2.311-1.811h5.826l.022-1.06zm-5.886-1.132c0-1.346.822-1.906 1.573-1.906.727 0 1.5.56 1.5 1.906zm-7.566-4.325a3.37 3.37 0 0 0-2.335.929l-.155-.739h-2.621v13.893l2.979-.631.012-3.372c.596.484 1.341.75 2.109.751 2.133 0 4.075-1.716 4.075-5.493-.013-3.455-1.975-5.338-4.064-5.338zm-.715 8.209a1.78 1.78 0 0 1-1.406-.56l-.012-4.42c.36-.4.881-.614 1.418-.584 1.084 0 1.835 1.215 1.835 2.776 0 1.597-.738 2.788-1.831 2.788zm-8.495-8.912l2.991-.643V18l-2.991.631z" class="G J"/><path d="M1565.93 21.968h2.991v10.425h-2.991z" class="J"/><path d="M1562.725 22.849l-.191-.882h-2.573v10.426h2.979v-7.066a2.1 2.1 0 0 1 2.264-.62v-2.739a2.02 2.02 0 0 0-2.479.881zm-5.957-3.467l-2.907.62-.012 9.544c-.019.822.301 1.616.884 2.195a2.99 2.99 0 0 0 2.202.867 4.6 4.6 0 0 0 2.085-.393v-2.42c-.381.155-2.264.7-2.264-1.06v-4.23h2.264v-2.538h-2.264zm-8.055 5.612c0-.465.381-.643 1.013-.643a6.65 6.65 0 0 1 2.955.763v-2.8c-.941-.371-1.944-.557-2.955-.548-2.419-.001-4.027 1.262-4.027 3.371 0 3.288 4.528 2.764 4.528 4.182 0 .548-.477.727-1.144.727-1.143-.062-2.257-.388-3.253-.953v2.836a8.26 8.26 0 0 0 3.253.679c2.478 0 4.182-1.227 4.182-3.36-.012-3.551-4.552-2.92-4.552-4.254z" class="G J"/><rect width="152" height="54" rx="27" x="1366" class="B"/><text letter-spacing="0.014em" class="C D E F"><tspan x="1419.299" y="32">Lead Squared</tspan></text><path d="M1386.641 14v12.57h12.588V39.3h12.478V14z" fill="#0c9afc"/><path d="M1399.229 39.305h-12.588V26.57z" fill="#252d33"/><rect width="185" height="54" rx="27" x="1038" class="B"/><text letter-spacing="0.014em" class="C D E F"><tspan x="1116.299" y="32">Borzo (WeFast)</tspan></text><path d="M1062.684 21.374v4.141h.042a2.71 2.71 0 0 1 2.935-2.5h.313c2.185 0 3.475 1.54 3.475 4.371v1.668c0 2.872-1.166 4.454-3.35 4.454h-.335a3.03 3.03 0 0 1-3.039-2.414h-.041v1.082c.012.335-.111.661-.342.904s-.55.383-.885.387h-1.23c-.335-.005-.655-.145-.886-.388s-.354-.57-.341-.905v-10.8a1.3 1.3 0 0 1 1.31-1.374h1.04c.363-.006.712.138.964.399s.386.613.37.975zm33.916 1.685h-6.3c-.339-.015-.67.111-.914.347s-.38.562-.377.902v.978a1.24 1.24 0 0 0 1.374 1.249h1.374a5.08 5.08 0 0 0 1.582-.208l.042.042-3.623 3.142c-.51.382-.805.986-.791 1.623v1a1.28 1.28 0 0 0 1.291 1.332h6.342c.341.017.674-.107.92-.343s.384-.564.38-.906v-1.04a1.24 1.24 0 0 0-1.374-1.249h-1.566a4.9 4.9 0 0 0-1.686.249l-.042-.042 3.85-3.122c.526-.371.831-.98.812-1.623v-1a1.28 1.28 0 0 0-1.294-1.331zm6.931 6.972c-1.248 0-1.77-.521-1.77-1.769s.521-1.769 1.77-1.769 1.769.52 1.769 1.768-.516 1.77-1.764 1.77zm-5.24-2.414v1.29c0 2.81 1.789 4.6 4.807 4.6h.874c3.018 0 4.807-1.789 4.807-4.6v-1.29c0-2.81-1.789-4.6-4.807-4.6h-.872c-3.021.001-4.809 1.79-4.809 4.6zm-32.319.644c0-1.249-.521-1.769-1.769-1.769s-1.727.521-1.727 1.769.478 1.727 1.724 1.727 1.772-.477 1.772-1.727zm15.461-3.828v7.742c-.012.335.111.661.342.904s.55.383.885.387h1.227c.335-.004.655-.144.886-.387s.354-.569.341-.904v-4.142c0-1.123.457-1.5 1.54-1.5h.708a1.1 1.1 0 0 0 1.082-1.123V24.1c.02-.285-.087-.564-.291-.765s-.486-.301-.77-.275h-.23c-1.208 0-1.623.687-1.831 1.686l-.166.77h-.042v-1.08c.013-.361-.121-.712-.373-.971s-.598-.405-.959-.403h-1.04c-.36-.005-.705.14-.954.4s-.377.612-.355.971zm-6.013 5.6c-1.249 0-1.769-.521-1.769-1.769s.521-1.769 1.769-1.769 1.769.521 1.769 1.769-.521 1.767-1.769 1.767zm-5.245-2.416v1.29c0 2.81 1.789 4.6 4.807 4.6h.874c3.018 0 4.807-1.789 4.807-4.6v-1.29c0-2.81-1.789-4.6-4.807-4.6h-.874c-3.016.001-4.807 1.79-4.807 4.6z" fill="#0048ff"/><rect width="125" height="54" rx="27" x="1661" class="B"/><text letter-spacing="0.014em" class="C D E F"><tspan x="1713.299" y="32">Magento</tspan></text><path d="M1692.869 12l-12.863 7.425v14.837l3.673 2.119-.024-14.831 9.189-5.312 9.19 5.312v14.825l3.672-2.113V19.413zm1.825 24.382l-1.837 1.058-1.843-1.056V21.55l-3.673 2.119.006 14.832 5.51 3.181 5.51-3.181V23.669l-3.673-2.119z" fill="#f26322"/><rect width="127" height="54" rx="27" x="1231" class="B"/><text letter-spacing="0.014em" class="C D E F"><tspan x="1284.299" y="32">EaseBuzz</tspan></text><path d="M1251.996 24.735h18.977l-2.134 3.88a2.54 2.54 0 0 1-2.225 1.319h-17.468z" fill="#85e6c4"/><path d="M1259.737 32.462h18.97l-2.134 3.88a2.54 2.54 0 0 1-2.225 1.319h-17.467z" fill="#6d44e5"/><path d="M1259.737 17h18.97l-2.133 3.881a2.54 2.54 0 0 1-2.225 1.319h-17.468z" fill="#517ce3"/></svg>