<svg xmlns="http://www.w3.org/2000/svg" xmlns:xlink="http://www.w3.org/1999/xlink" width="1733" height="54" xmlns:v="https://vecta.io/nano"><style><![CDATA[.B{fill:#f6f9ff}.C{fill:#222}.D{font-size:12px}.E{font-family:Arial-BoldMT, Arial}.F{font-weight:700}.G{fill:#f6e5e2}.H{fill:#484848}.I{fill:#213241}.J{fill:#ca8d50}.K{fill:#1f1f20}.L{fill:#d72b37}.M{fill:#f6e1d9}.N{fill:#f1d6ad}.O{fill:#cc3e49}.P{fill:#f5e2dd}.Q{fill:#c93945}.R{fill:#e3862a}.S{fill:#222223}.T{fill:#e9b77b}.U{fill:#3a3a3a}.V{fill-rule:evenodd}]]></style><defs><clipPath id="A"><path d="M0 0h24.428v24.438H0z" class="K"/></clipPath><clipPath id="B"><path fill="none" d="M0 0h50.419v13.83H0z"/></clipPath><path id="C" d="M625.258 27.618a.7.7 0 0 1-1.14.657.7.7 0 0 1 .451-1.236.64.64 0 0 1 .689.579z"/></defs><rect width="112" height="54" rx="27" x="320" class="B"/><text letter-spacing="0.014em" class="C D E F"><tspan x="372.299" y="32">Msg91</tspan></text><path d="M366.094 14.008c.04-.014.083-.011.121.008s.066.052.079.092c.006.017.009.034.009.052v24.82c0 .086-.07.156-.156.156h-.029l-27.652-1.352c-.083-.004-.148-.073-.148-.156V23.812c-.001-.036.012-.072.035-.1zm-24.633 12.309a.56.56 0 0 0-.643.393.56.56 0 0 0 .332.676l10.1 2.918.226-.186 10.06-8.291a.56.56 0 0 0-.132-.994.56.56 0 0 0-.575.135l-9.831 8.107z" fill="#1e75ba"/><rect width="144" height="54" rx="27" x="440" class="B"/><text letter-spacing="0.014em" class="C D E F"><tspan x="490.299" y="32">Neural Space</tspan></text><path d="M482.396 18.767l-11.282-6.526c-.557-.32-1.243-.32-1.8 0l-11.287 6.526c-.556.324-.899.919-.9 1.563v13.049c.001.644.344 1.239.9 1.563l5.361 3.1c.193.114.432.114.625 0a.62.62 0 0 0 .314-.547V24.336a1.74 1.74 0 0 1 .865-1.5l6.243-3.614c.332-.191.741-.191 1.073 0l.009.006a.55.55 0 0 1 0 .954l-5.925 3.425c-.556.324-.899.919-.9 1.563v7.959c0 .515.275.99.72 1.248l2.815 1.629c.557.32 1.243.32 1.8 0l7.21-4.17a.55.55 0 0 1 .824.475 1.08 1.08 0 0 1-.537.938l-7.525 4.352c-.543.314-1.212.314-1.755 0l-2.482-1.437a.7.7 0 0 0-.714 0 .71.71 0 0 0-.357.62v1.791c0 .495.263.952.691 1.2l2.929 1.693c.274.158.584.241.9.24a1.81 1.81 0 0 0 .9-.24l11.284-6.524c.556-.324.899-.919.9-1.563V25.15a.86.86 0 0 0-1.288-.745l-8.543 4.941a.55.55 0 0 1-.824-.481 1.08 1.08 0 0 1 .537-.932l9.58-5.541c.334-.193.54-.55.54-.936v-1.127c-.001-.644-.344-1.239-.9-1.563z" fill="#45988e"/><rect width="148" height="54" rx="27" x="592" class="B"/><text letter-spacing="0.014em" class="C D E F"><tspan x="648.299" y="32">MyOperator</tspan></text><rect width="29.967" height="30.154" rx="9" fill="#2cbdca" x="611.838" y="12"/><g fill="#fff"><use xlink:href="#C"/><use xlink:href="#C" x="2.183"/><use xlink:href="#C" x="4.374"/><use xlink:href="#C" y="1.876"/><use xlink:href="#C" x="2.183" y="1.876"/><use xlink:href="#C" x="4.374" y="1.876"/><use xlink:href="#C" y="3.752"/><use xlink:href="#C" x="2.183" y="3.752"/><use xlink:href="#C" x="4.374" y="3.752"/><path d="M623.251 33.742l-.088 1.314c-2.011-1.208-3.196-3.423-3.085-5.767a6.73 6.73 0 0 1 2.981-5.362l-.238-.567 1.49 1.08.089 1.751-.267-.339a4.68 4.68 0 0 0-1.759 3.741c-.046 1.426.738 2.749 2.011 3.392zm1.534-9.673l-1.019-.654a7.2 7.2 0 0 1 6.459.2c1.889 1.123 3.113 3.096 3.279 5.288l.387.1-1.665.777-1.528-.8.505-.07a4.67 4.67 0 0 0-2.385-3.422c-1.229-.694-2.723-.731-3.986-.1zm7.449 6.243l1.288-.654a6.83 6.83 0 0 1-3.556 5.849 6.95 6.95 0 0 1-6.08.082l-.326.371.173-1.857 1.439-.953-.15.4c1.325.551 2.834.433 4.056-.319 1.283-.745 2.096-2.094 2.155-3.576zm5.413-7.909a6.1 6.1 0 0 0-1.221-1.643c-1.805-1.746-6.018-2.865-9.469-2.864-2.931 0-6.824.811-8.774 2.126a7.72 7.72 0 0 0-2.393 2.466.3.3 0 0 0-.028.206 2.53 2.53 0 0 0-.826 1.26v.008c.13 1.5 1.733 1.839 3.6 1.733s3.294-.613 3.164-2.116h-.011c-.166-.42-.446-.785-.807-1.056-.055-.287.123-.619.636-.97 1.648-.779 3.441-1.204 5.264-1.247a10.3 10.3 0 0 1 5.428 1.456c.357.336.433.663.387.793-.018.067-.009.139.024.2a2.7 2.7 0 0 0-.634.838c-.13 1.5 1.3 2.022 3.165 2.127s3.432-.271 3.562-1.774a2.38 2.38 0 0 0-1.067-1.543z"/></g><rect width="133" height="54" rx="27" x="179" class="B"/><text letter-spacing="0.014em" class="C D E F"><tspan x="235.299" y="32">Text Local</tspan></text><g fill="#2b388f"><path d="M225.564 22.966c-.326-7.172-4.026-12.664-13.081-8.556-9.182 4.163-20.522 6.8-18.7 14.1s14.9 12.276 24.8 10.367c1.41-.271 2.623-.563 3.668-.871 1.165 1.268 3.386 3.5 4.618 3.543h.086a21.92 21.92 0 0 1-2.233-4.447c6.917-3.168 1.125-7.912.842-14.136z"/><path d="M229.299 26.038c0-8.173-7.378-12.659-18.545-11.135-16.836 2.3-17.7-.295-15.148 12.244 1.038 5.094 2.935 10.049 6.737 12.466-.443.656-1.206 1.53-2.123 1.53a21.03 21.03 0 0 0 4.429-.466 12.6 12.6 0 0 0 6.2.16c10.024-1.974 18.452-6.626 18.452-14.8" opacity=".5"/></g><path d="M203.253 23.672v-4.3c-.002-.075.027-.147.08-.2a.27.27 0 0 1 .2-.08h1.021c.075-.002.147.027.2.08a.27.27 0 0 1 .077.2v1.52h1.272a.27.27 0 0 1 .201.078c.053.053.081.126.077.201v.545a.27.27 0 0 1-.08.2c-.053.052-.125.08-.2.078h-1.27v1.698c-.017.261.061.519.219.727a.73.73 0 0 0 .584.256 2.61 2.61 0 0 0 .328-.027c.099-.015.2-.024.3-.027h.169c.074-.002.146.025.2.075s.083.122.08.195v.474c0 .068-.029.132-.08.177-.055.051-.125.083-.2.093-.401.066-.807.096-1.213.089q-1.965.005-1.965-2.052zm4.535 1.397a2.5 2.5 0 0 1-.7-1.917c-.047-.715.209-1.418.707-1.934a3.19 3.19 0 0 1 3.917 0 2.53 2.53 0 0 1 .7 1.921v.266c.003.077-.026.152-.08.208s-.125.083-.2.082h-3.437c.003.286.118.56.322.761a1.27 1.27 0 0 0 .846.238 1.1 1.1 0 0 0 .894-.306c.127-.159.321-.25.524-.246h.679a.27.27 0 0 1 .2.085.3.3 0 0 1 .08.216q0 1.29-2.494 1.286a2.76 2.76 0 0 1-1.958-.66zm.9-2.413h2.12q-.046-1.076-1.056-1.076-1.01 0-1.066 1.075zm3.98 2.835c-.009-.025-.014-.051-.014-.077a.28.28 0 0 1 .073-.182l1.587-2.1-1.482-2.093c-.039-.052-.064-.115-.071-.18a.2.2 0 0 1 .207-.221h.99a.83.83 0 0 1 .712.4l.757 1.149.757-1.149a.82.82 0 0 1 .711-.4h.989a.2.2 0 0 1 .16.066c.036.043.054.099.05.155a.33.33 0 0 1-.073.18l-1.482 2.093 1.587 2.1a.28.28 0 0 1 .073.182c0 .026-.005.052-.014.077-.022.09-.107.151-.2.141h-.972a.86.86 0 0 1-.711-.4l-.875-1.186-.88 1.186c-.152.245-.419.396-.707.4h-.972c-.092.009-.178-.051-.2-.141zm6.149-1.819v-4.3c-.002-.075.027-.147.08-.2a.27.27 0 0 1 .2-.08h1.02c.075-.003.148.026.2.08s.079.126.077.2v1.52h1.272a.27.27 0 0 1 .201.078c.053.053.081.126.077.201v.545a.27.27 0 0 1-.08.2c-.053.052-.125.08-.2.078h-1.273v1.698c-.017.261.061.519.219.727a.73.73 0 0 0 .584.256 2.61 2.61 0 0 0 .328-.027 2.53 2.53 0 0 1 .3-.027h.169c.074-.002.146.025.2.075s.083.122.08.195v.474c0 .068-.029.132-.08.177-.055.051-.125.083-.2.093-.401.066-.807.096-1.213.089q-1.961.005-1.961-2.052zm-17.366 10.096v-5.981c-.002-.075.027-.147.08-.2a.27.27 0 0 1 .2-.08h1.021c.075-.002.147.027.2.08a.28.28 0 0 1 .077.2v5.981c.003.075-.026.148-.08.2s-.126.08-.2.077h-1.02c-.075.003-.147-.025-.2-.078s-.081-.126-.078-.2zm3.121-.291a2.99 2.99 0 0 1 0-3.869 3.53 3.53 0 0 1 4.092 0c.949 1.115.949 2.754 0 3.869a3.52 3.52 0 0 1-4.092 0zm1.152-3.119a1.96 1.96 0 0 0-.283 1.181c-.033.415.066.83.283 1.186.236.239.558.374.894.374a1.26 1.26 0 0 0 .895-.374 1.96 1.96 0 0 0 .286-1.186 1.94 1.94 0 0 0-.286-1.181 1.27 1.27 0 0 0-1.789 0zm4.209 1.188c-.052-.717.206-1.421.707-1.936.558-.467 1.274-.702 2-.656a3.76 3.76 0 0 1 1.9.4c.434.233.697.693.68 1.185.002.075-.027.148-.081.2s-.129.081-.205.078h-.689a.63.63 0 0 1-.531-.333c-.231-.31-.61-.473-.994-.429-.349-.036-.695.092-.936.348-.213.341-.309.741-.275 1.141a1.8 1.8 0 0 0 .284 1.134 1.19 1.19 0 0 0 .973.35c.383.045.762-.118.994-.426.104-.199.307-.326.531-.335h.688a.28.28 0 0 1 .206.079c.055.053.084.125.081.2a1.3 1.3 0 0 1-.677 1.188 3.74 3.74 0 0 1-1.9.4 2.91 2.91 0 0 1-2.047-.657 2.5 2.5 0 0 1-.709-1.931zm6.399 2.169a1.36 1.36 0 0 1-.6-1.186c-.021-.47.207-.917.6-1.176.466-.291 1.008-.434 1.557-.41h1.509a1 1 0 0 0-.224-.743 1.01 1.01 0 0 0-.708-.21 1.1 1.1 0 0 0-.891.31.64.64 0 0 1-.524.242h-.678c-.075.002-.147-.027-.2-.08a.27.27 0 0 1-.08-.2q0-1.309 2.484-1.309a2.86 2.86 0 0 1 1.743.485c.455.36.701.922.657 1.5v2.822c.004.075-.024.148-.077.201s-.126.081-.201.077h-.88c-.075.003-.148-.026-.2-.08s-.08-.126-.077-.2v-.142a2.74 2.74 0 0 1-1.651.511c-.55.027-1.094-.117-1.559-.412zm.974-1.186a.51.51 0 0 0 .192.41.83.83 0 0 0 .544.159 2.52 2.52 0 0 0 1.357-.41v-.711h-1.4a.76.76 0 0 0-.5.155.5.5 0 0 0-.193.397zm4.792 1.239v-5.981c-.002-.075.027-.147.08-.2a.27.27 0 0 1 .2-.08h1.021c.075-.003.148.026.2.08a.28.28 0 0 1 .077.2v5.981c.003.075-.026.148-.08.2s-.126.08-.2.077h-1.023c-.075.003-.147-.025-.2-.078s-.081-.126-.078-.2z" fill="#fff"/><rect width="134" height="54" rx="27" x="882" class="B"/><text letter-spacing="0.014em" class="C D E F"><tspan x="934.299" y="32">Knowlarity</tspan></text><g clip-path="url(#A)" transform="translate(901 15)" class="K"><path d="M5.054 15.952a6.8 6.8 0 0 0-1.734-.287 3.45 3.45 0 0 1-2.793-5.329 3.45 3.45 0 0 1 3.119-1.558 5.19 5.19 0 0 0 1.41-.195q0 3.684 0 7.369M4.912 6.6c-1.431.678-3.14.29-4.137-.94C-.241 4.421-.276 2.648.692 1.371S3.375-.354 4.843.288c.023.01.04.036.059.054a2.24 2.24 0 0 0-.09.69q.008 2.4 0 4.792a2.36 2.36 0 0 0 .1.771"/><path d="M5.054 15.953q0-3.684 0-7.369a7.59 7.59 0 0 0 2.958-2.357 2.32 2.32 0 0 1 .117.847v1.52c0 .146-.035.311.145.392-1.812 1.831-1.849 4.768-.083 6.643-.181.083-.144.249-.145.4v1.694a.89.89 0 0 1-.182.613L6.731 17.16a4.65 4.65 0 0 0-1.679-1.2m-1.974 8.444a3.46 3.46 0 0 1-.367-6.814 2.71 2.71 0 0 1 .367-.03v6.844"/><path d="M3.079 24.405v-6.844a3.01 3.01 0 0 1 2.233.51q0 2.62 0 5.24c0 .168-.071.367.133.483a3.23 3.23 0 0 1-2.37.611M8.271 8.986c-.18-.082-.144-.246-.145-.392v-1.52a2.33 2.33 0 0 0-.117-.847c.551-.952.823-2.041.783-3.14a3.13 3.13 0 0 1 1.73-2.63q0 3.065 0 6.13c-.022.205.012.413.1.6a5.6 5.6 0 0 0-2.019 1.5c-.1.108-.224.2-.336.3m3.084 6.574c-1.536-.384-2.612-1.766-2.608-3.35-.001-1.523 1.009-2.862 2.474-3.279.2.118.132.317.132.485q.006 3.073 0 6.146"/><path d="M7.865 18.332a.89.89 0 0 0 .182-.613v-1.694c0-.147-.036-.312.144-.4a6.14 6.14 0 0 0 2.1 1.635q-.007 2.923-.012 5.846a2.16 2.16 0 0 1-.083.647 3.11 3.11 0 0 1-1.408-2.489 5.14 5.14 0 0 0-.922-2.937m3.485-2.767q0-3.073 0-6.146c0-.168.069-.366-.132-.485a2.82 2.82 0 0 1 1.789-.054q0 3.346 0 6.693c-.541.153-1.115.151-1.655-.008m2.312 8.532c-.532.284-1.139.395-1.737.32q0-3.433 0-6.865a2.75 2.75 0 0 1 1.653.27q0 2.813 0 5.626a2.14 2.14 0 0 0 .085.65"/><path d="M11.932 17.548q0 3.433 0 6.865a2.97 2.97 0 0 1-1.735-.654c.06-.21.088-.428.083-.647q0-2.923.012-5.846a6.44 6.44 0 0 0 1.641.283m1.924-11.061a2.8 2.8 0 0 1-1.759.415q0-3.438 0-6.876a2.76 2.76 0 0 1 1.735.407c-.106.079-.085.2-.085.3q0 2.708 0 5.415c0 .121-.024.253.105.335"/><path d="M12.096.027q0 3.438 0 6.876c-.499.044-.992.139-1.472.283a1.13 1.13 0 0 1-.1-.6q0-3.065 0-6.13a2.8 2.8 0 0 1 1.572-.43m-7.185 6.57a2.36 2.36 0 0 1-.1-.771q.008-2.4 0-4.792a2.24 2.24 0 0 1 .09-.69 3.43 3.43 0 0 1 .009 6.254m8.758 17.496a2.14 2.14 0 0 1-.085-.65q.007-2.813 0-5.626c1.248.534 2.065 1.753 2.083 3.111s-.766 2.598-2 3.165m-.66-8.524q0-3.346 0-6.693a2.73 2.73 0 0 1 1.568.839 2.16 2.16 0 0 0-.081.608q.009 1.9 0 3.8c-.003.206.025.41.081.608a2.86 2.86 0 0 1-1.567.836m8.889 8.719a2.56 2.56 0 0 1-1.453.087q0-3.4.009-6.8a2.46 2.46 0 0 1 1.326.066q0 3.119 0 6.238c0 .145-.045.31.118.411"/><path d="M20.452 17.571q0 3.4-.009 6.8c-.544-.044-1.061-.254-1.482-.6a2.23 2.23 0 0 0 .087-.686l-.005-3.287a6.59 6.59 0 0 0-.08-1.632 2.78 2.78 0 0 1 1.489-.6m.331-1.908a2.53 2.53 0 0 1-1.324-.337V9.128a2.34 2.34 0 0 1 1.324-.334q0 3.43 0 6.861"/><path d="M19.459 9.128v6.189a3.43 3.43 0 0 1 0-6.189m-5.602-2.64c-.13-.082-.105-.214-.105-.335q0-2.708 0-5.415c0-.108-.02-.224.085-.3a3.2 3.2 0 0 1 1.823 2.957c.079 1.302-.63 2.524-1.8 3.1M21.527.063c.447.043.875.204 1.24.467q0 2.935 0 5.87a2.58 2.58 0 0 1-1.242.472 1.78 1.78 0 0 1-.085-.6q.006-2.653 0-5.306a3.23 3.23 0 0 1 .084-.894m-.741 15.582q0-3.43 0-6.861c.421-.067.852-.013 1.244.155q0 3.271 0 6.542c-.391.166-.82.223-1.241.164"/><path d="M21.527.063a3.23 3.23 0 0 0-.084.894q.005 2.653 0 5.306a1.78 1.78 0 0 0 .085.6 2.8 2.8 0 0 1-1.25-.034q0-3.368.009-6.736c.404-.117.831-.129 1.24-.034"/><path d="M20.287.097q0 3.368-.009 6.736a2.45 2.45 0 0 1-1.234-.519q0-2.855 0-5.709c.359-.28.788-.456 1.24-.508m1.612 24.189c-.163-.1-.118-.266-.118-.411q0-3.119 0-6.238a2.48 2.48 0 0 1 1.345.656c-.167.121-.1.3-.1.457l-.005 4.282a2.21 2.21 0 0 0 .084.647 2.44 2.44 0 0 1-1.2.607m.122-8.796q0-3.271 0-6.542a2.47 2.47 0 0 1 1.25.72c-.072.235-.105.48-.1.726q.01 1.828 0 3.657c-.006.246.028.491.1.726a2.51 2.51 0 0 1-1.252.713m.748-9.094q0-2.935 0-5.87a3.24 3.24 0 0 1 1.651 2.975c.03 1.195-.604 2.309-1.647 2.894M5.448 23.793c-.2-.116-.133-.315-.133-.483q-.007-2.62 0-5.24a3.43 3.43 0 0 1 .136 5.723"/><path d="M19.047.606v5.709c-1.062-.685-1.651-1.907-1.525-3.164A3.27 3.27 0 0 1 19.05.605m-.087 17.562a6.59 6.59 0 0 1 .08 1.632l.005 3.287a2.21 2.21 0 0 1-.087.686 3.09 3.09 0 0 1-1.431-2.467 3.27 3.27 0 0 1 1.433-3.138m4.135 5.512a2.21 2.21 0 0 1-.084-.647l.005-4.283c0-.156-.063-.335.1-.457a3.41 3.41 0 0 1-.026 5.386m.182-8.9a2.26 2.26 0 0 1-.1-.726q.009-1.828 0-3.657c-.005-.246.028-.491.1-.726a3.41 3.41 0 0 1 0 5.11m-8.701-.047c-.056-.198-.084-.402-.081-.608q.008-1.9 0-3.8a2.16 2.16 0 0 1 .081-.608c.7.646 1.098 1.556 1.098 2.508s-.398 1.862-1.098 2.508"/></g><rect width="111" height="54" rx="27" x="1469" class="B"/><text letter-spacing="0.014em" class="C D E F"><tspan x="1521.299" y="32">Sell.do</tspan></text><path d="M1514.596 15.11c-.258 1.703-.319 3.429-.181 5.146l-.007 17.927c0 .978.073 1.752-1.388 1.733l-22.726-.11c.618-1.428 2.357-1.961 2.819-3.513.291-.083.551-.2.611-.547l-.02.12c.318-.137.509-.466.471-.81l-.048-.007c1.835-.771 3.327-2.271 5.578-2.156 3.682.188 6.417-1.656 8.616-4.455.392-.453.819-.873 1.279-1.257.361-.331.81-.592 1.257-.257 2.337 1.756 1.667-.358 1.747-1.376.074-.925 0-1.859.008-2.791 0-.785-.28-1.287-1.155-1.255l-.061-2.784c-.006-.544-.143-.937-.8-.768l-6.347 1.665c2.791 1.189 2.242 2.49.92 3.929a13.22 13.22 0 0 0-1.5 2.1c-.455.901-1.341 1.505-2.346 1.6-4.844.433-8.873 2.293-11.472 6.618l-.452.021-.027-17.581c-.01-1 .226-1.231 1.227-1.226l24 .027z" fill="#27a9de"/><path d="M1489.849 33.869c2.6-4.323 6.628-6.186 11.472-6.618 1.005-.094 1.891-.699 2.346-1.6.431-.747.933-1.45 1.5-2.1 1.323-1.439 1.871-2.74-.92-3.929l6.347-1.665c.657-.17.795.223.8.768l.061 2.784-.158 3.478c-1.8-2.208-2.678-.878-3.437.509-1.88 3.433-4.406 5.876-8.619 5.855-2.62-.014-4.02 1.632-5.118 3.7l.048.007c-.356.154-.669.334-.471.81 0 0 .02-.12.018-.122-.428-.068-.506.253-.609.547-.462 1.552-2.2 2.085-2.819 3.513l-.9.078v-5.597l.452-.421z" fill="#f9fcfd"/><path d="M1489.848 33.868l-.452.421v-.4z" fill="#145671"/><g fill="#1a85a8"><path d="M1494.128 35.051c1.1-2.073 2.5-3.718 5.118-3.7 4.213.023 6.738-2.422 8.619-5.855.759-1.387 1.634-2.717 3.437-.509l.158-3.478c.875-.031 1.161.471 1.155 1.255-.006.93.065 1.866-.008 2.791-.081 1.018.59 3.132-1.747 1.376-.447-.335-.9-.074-1.257.257-.46.384-.888.804-1.28 1.257-2.2 2.8-4.934 4.644-8.616 4.455-2.251-.115-3.742 1.386-5.578 2.156z"/><path d="M1493.704 35.867c-.2-.475.115-.656.471-.81a.79.79 0 0 1-.471.81z"/><path d="M1493.113 36.294c.1-.293.181-.615.609-.547-.058.343-.316.463-.609.547z"/></g><rect width="116" height="54" rx="27" x="1345" class="B"/><text letter-spacing="0.014em" class="C D E F"><tspan x="1396.299" y="32">Kapture</tspan></text><g fill="#dd202c"><path d="M1382.068 38.537l-.823.477c-.066-.011-.131.025-.158.087l-.09.044-.075.037h0a16.43 16.43 0 0 1-4.547 1.3l-.248.014h-2.281l-.171-.012-.965-.172c-.027-.043-.046-.117-.082-.126l-1.964-.512c-.226-.053-.418-.261-.679-.153l-.413-.153a18.69 18.69 0 0 1-2.387-1.333h0a15.36 15.36 0 0 1-3.6-3.894 2.7 2.7 0 0 0-.4-.646v-.006a1.81 1.81 0 0 0-.094-.263c-1.008-1.949-1.528-4.114-1.514-6.309a24.62 24.62 0 0 1 .23-2.535 13.98 13.98 0 0 1 1.943-4.741c2.071-3.282 5.491-5.476 9.338-5.989a12.91 12.91 0 0 1 10.974 3.408 13.07 13.07 0 0 1 4.258 8.34 13.41 13.41 0 0 1-1.792 8.544c-.034.058-.058.122-.087.183-.022.002-.042.013-.055.031s-.017.04-.012.062v.011a2.08 2.08 0 0 0-.375.564l-.151.226a20.99 20.99 0 0 1-2.405 2.532h0l-1.375.979zm-4.051-18.7l-.1.076h0a.79.79 0 0 0-.427.253l-.066.049c-.162.046-.309.133-.427.253-.64.343-1.258.726-1.849 1.147-.107.056-.216.107-.319.17q-2.545 1.55-5.086 3.1c-.102-.006-.203.017-.292.067-.357.127-.224.241-.049.435.117.13.361.064.389.288l-.167.335c-.1-.054-.207-.112-.314-.161-.385-.173-.5-.1-.5.332q0 2.932 0 5.864c0 .13-.033.286.174.3l2.084 1.156a13.59 13.59 0 0 0 1.641.954l2.162 1.272c.197.145.468.136.654-.023l4.323-2.784 1.248-.815-.474-.258-3.694-1.917c-.029-.476-.393-.3-.649-.333h0c-.087-.356-.365-.343-.643-.329h0c.023-.11.231-.259-.1-.276-.179-.01-.363-.05-.546-.046h0c.109-.19.2-.366-.161-.329-.075.008-.2-.005-.222-.048-.192-.418-.554-.246-.861-.266-.021.009-.045-.001-.055-.021 0-.091-.076-.137-.123-.2-.054-.066-.05-.161.01-.222s.157-.066.224-.012c.335.217.821.032 1.094.456.158.244.55.13.766.387.11.132.341-.07.34-.18 0-.174.112-.161.178-.238.188-.219.483-.332.6-.613l.4-.339h0c.512-.287 1.001-.613 1.462-.976h0c.102-.013.193-.072.245-.161h0a4.12 4.12 0 0 0 .931-.63 3.6 3.6 0 0 1 .418-.242c.457-.189.544-.529.538-1l-.013-5.718c0-.123.057-.267-.07-.382a1.71 1.71 0 0 0-.511.313 4.6 4.6 0 0 0-1.062.652h0l-.1.066h0a.95.95 0 0 0-.455.274h0c-.202.073-.387.185-.547.328z"/><path d="M1381.083 39.101c.026-.062.092-.098.158-.087-.026.062-.092.098-.158.087zm5.291-4.878c-.005-.021-.001-.044.012-.062s.033-.029.055-.031z"/></g><path d="M1376.928 29.926l3.694 1.917.474.258-1.248.815-4.323 2.784c-.186.159-.457.168-.654.023l-2.162-1.272c0-.147.013-.281-.208-.319-.185-.032-.429-.073-.4-.375.006-.058-.055-.116-.1-.094-.354.165-.608-.2-.935-.167l-2.086-1.15q-.04-3.06-.081-6.12c0-.251.1-.308.326-.192l1.018.486.172.091.1.05a.38.38 0 0 0 .241.132l.081.032a.41.41 0 0 0 .245.132l.077.031c.061.075.15.123.247.133l.08.029a1.7 1.7 0 0 0 .571.3c.015.023.043.033.069.026a.39.39 0 0 0 .257.14c.014.021.04.03.064.023a.37.37 0 0 0 .261.141c.01.021.035.031.057.024a.46.46 0 0 0 .271.141c.009.02.033.029.053.021a.4.4 0 0 0 .273.144.62.62 0 0 0 .323.162c.01.021.035.03.056.021a7.01 7.01 0 0 0 1.243.64h0a1.87 1.87 0 0 0 .647.324h0a1.79 1.79 0 0 0 .643.329h0c.195.149.415.262.649.333z" fill="#fcfbfb"/><path d="M1369.732 24.89l5.086-3.1c.1-.063.213-.113.319-.17.3.064.525-.217.82-.16.031.1-.072.279.113.28a.2.2 0 0 0 .189-.256c-.064-.189-.2.017-.3-.024.134-.416.524-.526.863-.632.22-.068.293-.137.279-.341.181 0 .324-.045.315-.268l.066-.049c.365.29.313-.121.427-.253.109.058.216.112.247-.078.174-.059.343-.124.4-.326h0c.168-.064.515.166.455-.275h0c.022.006.046.003.065-.01s.032-.033.035-.056h0l.9-.4c.105-.041.172-.144.167-.256a1.72 1.72 0 0 1 .511-.313c.127.116.07.258.07.382l.013 5.718c.006.469-.081.809-.538 1a3.44 3.44 0 0 0-.418.242c-.063-.015-.162-.063-.182-.04-.163.177-.373.304-.606.367-.138.043-.147.177-.143.3h0c-.123-.01-.234 0-.245.16h0c-.731-.04-1.022.58-1.462.975h0c-.248-.024-.46.009-.489.32h-.005l-.072.054-.313.2-.1.068h0a2 2 0 0 1-1.284 0h-.006c-.04-.188-.156-.226-.322-.16h-.005a.29.29 0 0 0-.32-.161l-.221-.09a14.09 14.09 0 0 0-2.138-.967l-.085-.076v-.005a1.09 1.09 0 0 0-.568-.316c-.154-.082-.291-.215-.489-.175-.116-.162-.29-.274-.486-.312-.01-.019-.032-.029-.053-.023l-.385-.216q-.483-.243-.094-.567z" fill="#fdfcfc"/><path d="M1376.297 27.888l.313-.2.072-.054h.005l.086.019c-.119.282-.415.394-.6.613-.066.077-.18.064-.178.238 0 .11-.23.312-.34.18-.216-.257-.608-.143-.766-.387-.273-.422-.759-.238-1.094-.456-.067-.053-.163-.048-.224.012s-.064.156-.01.222c.047.065.12.111.123.2-.121-.021-.234-.077-.323-.162-.025-.174-.151-.156-.273-.144-.02.007-.043-.002-.053-.021-.024-.174-.15-.153-.271-.141-.022.007-.047-.003-.057-.024-.02-.171-.145-.149-.261-.141-.024.007-.05-.002-.064-.023-.021-.166-.141-.148-.257-.14-.026.007-.054-.003-.069-.026-.14-.2-.227-.491-.571-.3l-.08-.029c-.023-.156-.14-.134-.247-.133l-.077-.031c-.023-.153-.138-.134-.245-.132l-.081-.032c-.022-.151-.137-.131-.241-.132l-.1-.05.013-.113c.1-.312.245-.05.313 0 .187.177.48.177.667 0h.4c.028.03.057.055.085.081a13.98 13.98 0 0 1 2.138.967l.221.09c.077.099.195.157.32.159h.005a.53.53 0 0 0 .322.16h.007c.682.455.738.455 1.284 0h0l.1-.068z" class="L"/><path d="M1370.244 26.52l-1.018-.486c-.227-.116-.329-.058-.326.192q.04 3.06.081 6.12c-.208-.011-.174-.168-.174-.3q0-2.932 0-5.864c0-.436.112-.5.5-.332.107.048.21.107.314.161.019.084.053.178.15.086.096-.073.218-.104.337-.085-.269.28.123.314.176.474-.011.011-.023.022-.035.031z" class="O"/><path d="M1377.099 20.487c.014.2-.058.272-.279.341-.338.1-.728.215-.863.632h0c-.295-.057-.524.224-.82.16.591-.422 1.209-.805 1.849-1.147l.111.015z" fill="#f5ecea"/><path d="M1372.707 40.314c-.945-.117-1.865-.384-2.726-.791.261-.109.454.1.679.153l1.964.512c.037.01.055.083.082.126z" fill="#c93d4a"/><path d="M1371.066 33.497c.326-.035.581.333.935.167.047-.023.109.036.1.094-.034.3.211.342.4.375.22.038.2.172.208.319a13.73 13.73 0 0 1-1.641-.954z" fill="#f5e9e3"/><path d="M1374.981 28.937c-.435-.171-.851-.386-1.243-.64.307.019.668-.152.861.266.02.042.148.055.223.048.363-.037.27.139.161.327z" class="L"/><path d="M1377.177 27.311c.441-.4.731-1.015 1.462-.975a11.45 11.45 0 0 1-1.462.975z" class="G"/><path d="M1369.732 24.89q-.39.325.094.567l.385.216-.271.014-.159-.008c-.028-.225-.272-.159-.389-.288-.175-.193-.309-.308.049-.435a.53.53 0 0 1 .292-.067z" class="O"/><path d="M1378.886 26.175c0-.126 0-.259.143-.3.233-.062.443-.19.606-.367.019-.023.12.025.183.04a4.15 4.15 0 0 1-.931.629z" class="G"/><path d="M1380.179 18.518c.005.112-.062.215-.167.256l-.9.4c.323-.264.68-.484 1.062-.652z" class="M"/><path d="M1375.631 29.262a1.87 1.87 0 0 1-.647-.324c.185 0 .367.038.546.046.331.017.123.167.1.276z" class="L"/><path d="M1369.781 25.68l.159.008c-.011.141.121.212.161.328-.119-.018-.241.012-.337.085-.1.091-.131 0-.15-.086l.167-.335z" fill="#e81b2b"/><g class="L"><path d="M1376.928 29.928a2.1 2.1 0 0 1-.649-.333c.255.033.619-.144.649.333z"/><path d="M1376.279 29.594c-.235-.065-.453-.177-.643-.329.279-.012.555-.029.643.329z"/></g><path d="M1377.908 19.915c-.115.132-.063.543-.427.253a.79.79 0 0 1 .427-.253z" class="P"/><path d="M1379.017 19.234c.06.442-.286.212-.455.275a.96.96 0 0 1 .455-.275z" class="M"/><path d="M1376.772 27.65l-.086-.019c.029-.311.241-.343.489-.32l-.4.339z" class="G"/><path d="M1378.561 19.509c-.058.2-.228.267-.4.326h-.146c.16-.142.345-.253.546-.326z" class="M"/><path d="M1377.099 20.487l-.111-.015a.98.98 0 0 1 .427-.253c.008.222-.134.269-.316.268z" class="P"/><path d="M1378.64 26.335c.011-.162.122-.17.245-.16-.053.088-.143.147-.245.16z" class="G"/><path d="M1378.013 19.837h.146c-.031.19-.138.136-.247.078l.1-.076z" class="P"/><path d="M1379.12 19.168c-.003.023-.016.043-.035.056s-.043.016-.065.01z" class="M"/><g class="Q"><path d="M1371.483 27.15c.344-.188.431.108.571.3a1.7 1.7 0 0 1-.571-.3zm.641.332c.116-.008.237-.026.257.14a.39.39 0 0 1-.257-.14zm.32.163c.117-.008.241-.029.261.141-.103-.009-.197-.06-.261-.141zm.319.165c.121-.012.246-.032.271.141a.46.46 0 0 1-.271-.141zm.324.162c.122-.012.248-.03.273.144a.4.4 0 0 1-.273-.144zm-1.931-.983c.107 0 .225-.023.247.133-.097-.01-.186-.058-.247-.133zm-.645-.329c.1 0 .219-.021.241.132-.094-.012-.18-.059-.241-.132zm.323.165c.107 0 .222-.021.245.132a.42.42 0 0 1-.245-.132z"/><path d="M1370.429 26.498l-.013.113-.172-.091.035-.031z"/></g><path d="M1370.428 26.497l-.15-.009c-.053-.16-.446-.194-.176-.474-.04-.116-.173-.187-.161-.328l.271-.014c.021-.007.044.003.053.023-.005.185-.009.355.269.249.056-.022.145.04.217.063.2-.04.335.093.489.175l.167.315c-.187.176-.48.176-.667 0-.068-.049-.216-.31-.313 0z" fill="#de2231"/><path d="M1376.195 27.959c-.546.454-.6.454-1.284 0a1.99 1.99 0 0 0 1.284 0z" class="G"/><path d="M1375.957 21.459c.1.041.239-.165.3.024a.2.2 0 0 1-.189.256c-.186 0-.082-.18-.113-.28z" fill="#f5ecea"/><path d="M1371.408 26.497l-.167-.315c.217.045.415.156.568.316h-.4z" class="Q"/><path d="M1370.753 26.007c-.073-.023-.161-.084-.217-.063-.278.106-.274-.065-.269-.249a.78.78 0 0 1 .486.312z" class="O"/><path d="M1374.905 27.956a.53.53 0 0 1-.322-.16c.166-.065.282-.028.322.16zm-.327-.162a.42.42 0 0 1-.32-.159.29.29 0 0 1 .32.159zm2.103-.16l-.072.054z" class="G"/><path d="M1371.898 26.579l-.085-.076.085.076z" class="Q"/><path d="M1376.296 27.888l-.1.068z" class="G"/><rect width="152" height="54" rx="27" x="1024" class="B"/><text letter-spacing="0.014em" class="C D E F"><tspan x="1102.299" y="32">Biziverse</tspan></text><g clip-path="url(#B)" transform="translate(1044 20)"><g class="R"><path d="M15.961 2.873a13.7 13.7 0 0 1 .651 1.227l.04.1c-.532.106-.6.066-.853-.346-.948-1.643-2.651-2.705-4.543-2.835a5.8 5.8 0 0 0-4.89 1.823 5.67 5.67 0 0 0-1.393 2.489 5.91 5.91 0 0 0-.11 2.712 9.88 9.88 0 0 0 .283.978 5.91 5.91 0 0 1-1.336.328.55.55 0 0 1-.122-.224c-.235-.695-.359-1.422-.368-2.155q.005-.41.01-.82c.132-.385.158-.791.274-1.183.39-1.321 1.168-2.494 2.234-3.367A6.77 6.77 0 0 1 10.362 0a6.89 6.89 0 0 1 4.223 1.478c.367.281.685.626 1.025.941a.83.83 0 0 0 .35.453m-5.476 7.278c-.942.062-1.235-.03-1.214-1.139l.007-4.562c0-.577.2-.773.77-.774q2.172 0 4.344 0c.686-.028 1.279.476 1.361 1.158a2.53 2.53 0 0 1-.167 1.46c-.042.091-.069.23-.222.118a2.08 2.08 0 0 0-1.026-.324c.187-.264.292-.577.3-.9-.016-.235-.1-.341-.33-.341q-1.82 0-3.64 0c-.124 0-.21.028-.209.176q.006 1.944.012 3.889c0 .025.026.051.041.076l-.022 1.168"/></g><path d="M5.506 9.816c.016.015.016.022.014.027l.036.085c.01.015.016.032.016.05l.057.067h0c0 .054.012.1.078.1h-.005l.053.07h0c0 .134-.008.278.189.282h0a.06.06 0 0 0 .056.067h0c-.013.085.028.125.111.13.013.017.012.023.009.028-.004.038.023.073.061.079v-.005c-.001.017.006.033.019.044s.03.015.047.011h0c-.002.017.003.034.013.048s.027.022.044.023a6.94 6.94 0 0 0 1.966 1.395c1.215.545 2.577.667 3.869.346 1.529-.349 2.85-1.307 3.657-2.652.293-.471.3-.484.86-.387a5.47 5.47 0 0 1-.942 1.6 6.83 6.83 0 0 1-4.518 2.545c-1.622.231-3.273-.138-4.643-1.036-.303-.154-.573-.367-.794-.625a.1.1 0 0 0-.116-.067h0l-.063-.058h0c.006-.049-.012-.098-.048-.132s-.086-.049-.135-.04h0c.007-.083-.031-.124-.115-.123h0l-.06-.062h0c.005-.032-.005-.065-.028-.089s-.055-.036-.087-.032h0c0-.086 0-.17-.12-.174h0c.003-.047-.014-.094-.047-.128s-.079-.053-.127-.051l-.07-.092c.014-.085-.018-.135-.109-.14h0c.009-.049-.018-.098-.065-.117l-.053-.054-.05-.067-.021-.081c.006-.039-.018-.076-.056-.087v.005a.1.1 0 0 0-.1-.131c-.011-.004-.018-.016-.016-.028-.074-.233 0-.307.255-.337.248.008.492-.074.684-.231l.015-.008.014.01.261.019" fill="#e4872b"/><path d="M10.48 10.149l.022-1.168 2.991-.007c.44.044.86-.198 1.044-.6.089-.228.113-.476.068-.716-.023-.2-.21-.171-.35-.171h-2.4c-.3 0-.606-.008-.909 0-.16.006-.228-.035-.218-.208.016-.243.016-.487 0-.73-.014-.193.067-.222.236-.221h3.343c.404-.027.799.123 1.084.411s.43.685.398 1.089a2.17 2.17 0 0 1-.8 1.845c-.398.266-.864.413-1.343.424-1.052.078-2.109.094-3.163.049" fill="#18314a"/><g fill="#19334c"><path d="M41.03 8.545c-.003-.019.002-.039.014-.055a.07.07 0 0 1 .05-.027l.056-.07h-.005a.3.3 0 0 0 .242-.351h0a1.96 1.96 0 0 1 .922-.176h2.045c.1 0 .252.059.264-.134.089-.388.043-.459-.349-.464a82.16 82.16 0 0 0-1.79 0 2.82 2.82 0 0 1-.865-.127c-.362-.11-.616-.437-.633-.815a1.08 1.08 0 0 1 .478-1.137 1.81 1.81 0 0 1 .959-.209h3.081a.67.67 0 0 1 .116.026l-.621.885c-.07.1-.176.067-.27.068h-2.23c-.117-.004-.233.012-.345.047-.1.036-.118.146-.114.249s.072.19.172.21a1.79 1.79 0 0 0 .377.04l2.083.024a.98.98 0 0 1 1.081.884c.101.605-.298 1.181-.9 1.3a.89.89 0 0 0-.112.028c-.095-.077-.207-.043-.311-.044h-3.107c-.12 0-.269.041-.29-.153m-5.555-.02q0-.352 0-.7a1.43 1.43 0 0 0 .046-.589c.011-.16 0-.327.247-.259.105.029.1-.055.1-.121l2.611-.013a1.16 1.16 0 0 0 .515-.077c.163-.056.264-.218.242-.389a.39.39 0 0 0-.316-.368 1.98 1.98 0 0 0-.437-.038h-3l.675-.91c.053-.06.133-.087.211-.073l2.669.038a1.46 1.46 0 0 1 1.226.729 1.26 1.26 0 0 1-.785 1.807l.576.621.584.64h-1.433c-.09 0-.111-.062-.152-.112l-.529-.657a.57.57 0 0 0-.555-.276l-1.174.007c-.086 0-.207-.053-.228.1-.1.173-.029.361-.048.542-.009.086.01.179-.073.241a1.26 1.26 0 0 1-.974-.14"/></g><path d="M50.206 8.124c-.193.533-.755.836-1.307.706-.8-.058-1.6-.024-2.4-.008-.231 0-.271-.07-.269-.279v-3.3c0-.14-.022-.265.2-.263l3.843.006c.048.006.095.015.141.029l-.62.864c-.077.111-.186.089-.291.089h-1.819c-.349 0-.4.108-.24.461.037.158.166.105.262.106h1.953c.146-.015.287.054.365.178l-.1.122c-.133 0-.132.088-.121.183h0c-.1-.006-.129.046-.121.134-.028.149-.131.161-.26.16-.572-.005-1.145.017-1.716-.011-.295-.014-.38.085-.334.353a1.58 1.58 0 0 1 .012.173c.084.1.2.059.3.059h2.125c.2 0 .338.05.4.249" fill="#1a344d"/><path d="M34.882 8.076c-.102.21-.24.401-.408.563-.315.059-.637.079-.957.059h-2.31c-.1 0-.225-.053-.267.1-.08-.027-.05-.1-.05-.146q0-1.725 0-3.45c0-.123-.012-.228.171-.228h3.992a7.56 7.56 0 0 1-.656.944c-.054.078-.165.039-.25.04h-1.849c-.156 0-.3-.033-.3.223s.116.233.285.232h2.59a6.84 6.84 0 0 1-.614.851c-.049.065-.148.033-.224.033-.558 0-1.116.022-1.672-.008-.308-.016-.405.083-.356.369.005.049.005.097 0 .146.056.083.156.125.254.107.711-.079 1.423-.011 2.134-.036.1 0 .217.035.309-.048h.118l.067.246" fill="#19334c"/><path d="M20.363 5.947H17.77l.645-.883c.068-.093.17-.083.267-.083h2.963.029c.242.024.521.008.624.286.085.27-.029.564-.274.706q-.97.794-1.93 1.6a2.26 2.26 0 0 0-.221.253h2.637l-.632.918c-.06.087-.154.071-.241.071h-3.168c-.231.03-.454-.094-.549-.307-.084-.23-.002-.487.2-.625l1.969-1.64c.109-.082.204-.18.281-.292" class="R"/><path d="M5.246 9.794l-.014-.01-.015.008c-.389.02-.739.2-1.12.259l-1.617.243a3.9 3.9 0 0 1-1.74-.111c-.6-.184-1.037-.712-.488-1.565a4.51 4.51 0 0 1 .988-1.055 12.76 12.76 0 0 1 2.092-1.414q-.005.41-.01.821l-.32.2a8.62 8.62 0 0 0-2.146 1.8c-.24.313-.161.55.238.6.912.087 1.833.01 2.718-.228a5.9 5.9 0 0 0 1.336-.328c.598-.122 1.186-.289 1.759-.5.1-.035.119-.105.149-.189a.76.76 0 0 1 .723-.539c.321-.025.624.149.766.437.154.28.119.626-.086.87-.233.302-.649.395-.989.221a.56.56 0 0 0-.493-.066l-1.478.439-.25.094" fill="#1b334a"/><path d="M24.458 4.981h1.182c.147-.006.282.079.341.214l1.465 2.3c.292-.372.563-.76.813-1.162q.4-.586.785-1.189c.049-.097.149-.157.258-.155h.968c.155 0 .171.058.1.17q-.6.907-1.2 1.811l-.911 1.347c-.456.737-1.1.756-1.575.035l-2.22-3.36" fill="#1a344c"/><path d="M15.961 2.873a.83.83 0 0 1-.35-.453 16.53 16.53 0 0 1 2.736-.593c.628-.106 1.269-.116 1.9-.029.484.088.806.332.817.7-.013.306-.149.594-.376.8-.338.348-.717.653-1.129.91a.28.28 0 0 1-.164.047c-.29 0-.579 0-.879-.026a15.27 15.27 0 0 0 1.315-.883 2.39 2.39 0 0 0 .6-.584c.162-.247.141-.316-.145-.413a2.68 2.68 0 0 0-1.134-.064 18.91 18.91 0 0 0-3.186.594" fill="#1e354b"/><path d="M16.204 6.884V5.248c0-.181.036-.272.241-.257.215.014.43.014.645 0 .185-.011.232.066.232.239q-.009 1.666 0 3.331c0 .178-.038.27-.243.254a4.47 4.47 0 0 0-.645 0c-.186.012-.232-.065-.23-.238V6.882z" class="R"/><path d="M24.039 6.933v1.664c0 .164-.057.213-.222.219-.887.029-.887.033-.887-.84V5.289c0-.227.061-.329.3-.3a1.69 1.69 0 0 0 .234 0c.583 0 .584 0 .587.595v1.344h-.006" fill="#e48527"/><g class="I"><path d="M41.031 8.546c.021.193.171.152.29.152h3.107c.1 0 .216-.033.311.044a1.35 1.35 0 0 1-.459.071h-3.3c-.045 0-.091-.005-.175-.01l.228-.26m-10.094.26c.042-.155.171-.1.267-.1h2.31a3.86 3.86 0 0 0 .957-.059c-.047.094-.078.182-.223.18l-3.312-.018m19.085-2.098c-.078-.124-.219-.193-.365-.178h-1.953c-.1 0-.225.052-.262-.106h2.76c0 .141-.135.185-.179.282"/><path d="M44.62 7.744c-.011.193-.161.133-.264.134h-2.045a1.96 1.96 0 0 0-.922.176c.054-.2.2-.233.38-.232h2.367a1.22 1.22 0 0 0 .484-.079m5.587.381c-.06-.2-.195-.252-.4-.249h-2.125c-.1 0-.216.04-.3-.059h3.035a.73.73 0 0 1-.212.305m-14.732.403a1.26 1.26 0 0 0 .974.14c.082-.062.063-.155.073-.241.02-.18-.053-.369.048-.542 0 .3.1.671-.037.878-.123.182-.527.026-.8.06-.253.032-.307-.079-.253-.3m-.78-.688c-.092.083-.2.045-.309.048-.711.025-1.423-.043-2.134.036-.098.018-.198-.024-.254-.107l2.7.023"/></g><path d="M4.096 10.054c.381-.055.731-.239 1.12-.259-.195.16-.441.243-.693.233-.253.029-.329.1-.255.337-.111-.074-.128-.2-.172-.31" class="J"/><g class="I"><path d="M35.869 6.851c0 .067 0 .15-.1.121-.251-.069-.236.1-.247.259a1.43 1.43 0 0 1-.046.589l-.01-.6c0-.395 0-.395.406-.366m5.516 1.193a.3.3 0 0 1-.242.351c.047-.137.131-.258.242-.351m-6.502.029l-.067-.246h.229a.3.3 0 0 1-.162.246"/></g><g class="J"><path d="M5.941 10.495c-.2 0-.186-.148-.189-.282.076.086.177.154.189.282m-1.134.66c.048-.002.094.017.127.051s.05.081.047.128c-.09-.017-.16-.088-.174-.179m.439-1.359l.25-.094c0 .038.007.076.011.113l-.261-.019m.138 2.011c.049-.009.099.006.135.04s.054.083.048.132c-.066-.053-.155-.08-.183-.172"/></g><path d="M49.799 7.014c-.011-.095-.012-.183.121-.183-.007.077-.053.146-.121.183" class="I"/><path d="M4.981 11.332c.119 0 .121.088.12.174-.083-.029-.105-.1-.12-.174" class="J"/><path d="M49.682 7.144c-.008-.088.025-.14.121-.134-.015.062-.061.113-.121.134" class="I"/><g class="J"><path d="M6.101 10.689c-.082 0-.123-.045-.111-.13.066.007.115.064.111.13m-1.473.234c.09 0 .123.055.109.14-.058-.025-.099-.078-.109-.14m-.344-.53a.1.1 0 0 1 .1.131c-.059-.016-.1-.07-.1-.131m.816 1.114a.1.1 0 0 1 .115.121l-.115-.121m.172.179c.084 0 .122.04.115.123l-.115-.123m-.708-.879c.047.019.074.068.065.117-.041-.024-.066-.069-.065-.117m1.142-.659c-.066 0-.077-.051-.078-.1.045.013.077.053.078.1m-.079 1.886a.1.1 0 0 1 .116.067l-.116-.067"/></g><path d="M41.151 8.393l-.056.07.056-.07" class="I"/><g class="J"><path d="M5.556 9.928l-.036-.085.036.085m-1.172.592c.038.011.062.048.056.087l-.056-.087m.076.166l.05.067c-.016-.001-.031-.009-.04-.022s-.013-.029-.01-.045m1.294-.47l-.053-.07.053.07m.48.629c-.016.004-.034 0-.047-.011s-.02-.027-.019-.044l.066.055m.056.072c-.017-.001-.033-.01-.044-.023s-.016-.031-.013-.048l.057.071m-.297-.354a.06.06 0 0 1-.056-.067l.056.067m-.779 1.063l.06.062a.06.06 0 0 1-.06-.062m.415-1.58l-.057-.067.057.067"/><path d="M5.566 11.975l.063.058c-.016.001-.032-.004-.044-.015s-.019-.026-.019-.043m.605-1.179c-.038-.006-.065-.041-.061-.079l.061.079"/></g></g><rect width="171" height="54" rx="27" class="B"/><text letter-spacing="0.014em" class="C D E F"><tspan x="55.299" y="32">Survey2Connect</tspan></text><g transform="matrix(.997564 .069756 -.069756 .997564 19.194 12)"><circle cx="14.209" cy="14.209" r="14.209" fill="none" stroke="#222223" stroke-width="3"/><g class="S"><circle cx="8.785" cy="21.423" r="2.057"/><circle cx="9.533" cy="11.327" r="2.057"/><circle cx="16.637" cy="5.344" r="2.057"/><circle cx="14.394" cy="16.188" r="2.057"/><circle cx="16.263" cy="22.918" r="2.057"/></g><g transform="matrix(.970296 -.241922 .241922 .970296 3.461 5.817)" class="S V"><path d="M4.195 6.033l7.956-4.535a.97.97 0 0 1 1.294.33l.368.625a.89.89 0 0 1-.334 1.23L5.524 8.218a.97.97 0 0 1-1.294-.33l-.368-.625a.89.89 0 0 1 .334-1.23z"/><g transform="matrix(-1 0 0 -1 10.782 21.118)"><path d="M6.537 15.104l.041-.028.243-.174c.405-.289.512-.844.245-1.263L4.068 8.942 9.795 5.57c.428-.252.583-.795.354-1.236l-.128-.245c-.114-.221-.311-.387-.547-.462s-.493-.053-.714.061l-.041.025-6.632 3.904a.93.93 0 0 0-.295.274c-.359.302-.439.823-.187 1.219l3.642 5.709c.278.435.855.562 1.291.285z"/><path d="M9.921 3.772L2.917.582C2.464.376 1.93.56 1.7 1l-.128.245c-.239.458-.061 1.022.397 1.261l.045.022 7.005 3.19c.452.206.986.022 1.216-.419l.127-.244c.239-.458.062-1.022-.395-1.262z"/></g></g></g><rect width="145" height="54" rx="27" x="1588" class="B"/><text letter-spacing="0.014em" class="C D E F"><tspan x="1640.299" y="32">Google Meet</tspan></text><path d="M1613.419 16l-6.581 6.581 3.29 2.037 3.29-2.037 1.858-3.29z" fill="#ff2820"/><path d="M1613.419 22.581h-6.581v8.555l3.29 1.807 3.29-1.807z" fill="#0084ff"/><path d="M1606.838 31.135v4.387a2.2 2.2 0 0 0 2.194 2.194h4.387l1.858-3.493-1.858-3.088z" fill="#06d"/><path d="M1631.801 18.339l-4.07 3.224v.033l-1.327 5.068 1.327 5.128 4.052 3.261a.84.84 0 0 0 1.377-.639V18.975c.003-.323-.183-.618-.475-.754s-.638-.091-.884.118z" fill="#00ad3c"/><path d="M1627.732 21.56v-3.392c.002-1.19-.957-2.159-2.147-2.168h-12.166v6.581h8.061v4.277l4.331-.482z" fill="#ffba00"/><path d="M1621.48 31.135h-8.061v6.581h12.166c1.189-.008 2.149-.976 2.147-2.165v-3.757l-2.149-4.414-4.1-.521z" fill="#00ad3c"/><path d="M1621.48 26.858l6.252 4.935V21.56z" fill="#00831e"/><rect width="153" height="54" rx="27" x="1184" class="B"/><text letter-spacing="0.014em" class="C D E F"><tspan x="1260.299" y="32">Instamojo</tspan></text><path d="M1243.777 32.093l-.57-1.353c.017-.019.024-.035.034-.038a.98.98 0 0 0 .7-1.024l.013-.77q0-2.211 0-4.421v-.253h1.833l.009.2q0 2.687 0 5.374a3.4 3.4 0 0 1-.055.685 1.91 1.91 0 0 1-1.41 1.522c-.064.019-.124.049-.185.074zm-10.468-2.262h-1.827v-.254-2.354a2.63 2.63 0 0 0-.066-.561c-.063-.372-.394-.637-.771-.618-.389-.051-.753.202-.842.584a1.84 1.84 0 0 0-.063.479v2.5.23h-1.815c0-.07-.012-.129-.012-.187v-2.7c-.033-1.339.932-2.494 2.255-2.7a2.55 2.55 0 0 1 2.087.518l.151.117a2.68 2.68 0 0 1 4.453 1.774l.036 3.042c0 .141-.075.147-.181.147-.488 0-.977-.007-1.465 0-.161 0-.191-.059-.19-.2v-2.273l-.015-.446c-.038-.579-.349-.892-.873-.883a.84.84 0 0 0-.638.271c-.164.178-.241.419-.212.66v2.618.237zm-6.063.014c-.56 0-1.088 0-1.615-.005-.04 0-.108-.073-.112-.118-.015-.14-.005-.282-.005-.458l-.125.095c-.351.306-.8.476-1.266.476-.842.076-1.663-.292-2.166-.972a2.95 2.95 0 0 1 1.052-4.333 2.89 2.89 0 0 1 4.178 2.064 3.49 3.49 0 0 1 .056.625v2.393.229zm-4.027-2.825v.223a1.11 1.11 0 0 0 .734.98c.438.151.923.007 1.208-.357a1.46 1.46 0 0 0 .2-1.278.98.98 0 0 0-.773-.777c-.41-.12-.851.02-1.116.355a1.22 1.22 0 0 0-.25.855zm17.185 2.823c-1.018.036-1.979-.467-2.532-1.322-.509-.798-.577-1.8-.182-2.66s1.199-1.461 2.136-1.595a3.2 3.2 0 0 1 2.325.423c.847.522 1.323 1.481 1.227 2.471-.031 1.46-1.21 2.636-2.67 2.664l-.3.02zm1.154-2.764l-.061-.474a1.07 1.07 0 0 0-1.1-.883c-.539 0-.991.406-1.05.942a2.71 2.71 0 0 0 0 .743c.061.489.451.871.941.921a1.04 1.04 0 0 0 1.161-.743 3.93 3.93 0 0 0 .107-.5zm7.786 2.761a2.9 2.9 0 0 1-2.561-1.328 2.79 2.79 0 0 1 1.53-4.147c.764-.236 1.586-.201 2.327.1a2.68 2.68 0 0 1 1.655 2.681c-.031 1.459-1.202 2.636-2.661 2.675l-.29.021zm1.126-2.847a5.26 5.26 0 0 0-.1-.527 1.09 1.09 0 0 0-2.016-.133 1.7 1.7 0 0 0-.081 1.13c.103.5.541.861 1.052.866s.956-.348 1.069-.846c.041-.155.052-.318.08-.49zm-42.297 2.847h-1.817c0-.065-.013-.123-.013-.18v-2.7a2.7 2.7 0 0 1 3.96-2.435 2.49 2.49 0 0 1 1.426 2.171l.017 3.062a.42.42 0 0 1-.017.074h-1.8l-.009-.21v-2.434c.001-.162-.014-.324-.045-.483-.059-.411-.431-.701-.844-.659a.79.79 0 0 0-.822.714 2.78 2.78 0 0 0-.032.424v2.413.243zm4.141-.561l.558-1.272a7.47 7.47 0 0 0 .889.242c.433.064.873.08 1.311.112a.29.29 0 0 0 .176-.035c.092-.066.212-.142.236-.236.015-.057-.114-.2-.2-.226-.358-.1-.727-.152-1.086-.244a5.03 5.03 0 0 1-1.06-.322 1.52 1.52 0 0 1-.008-2.586 3 3 0 0 1 1.409-.475 5.24 5.24 0 0 1 2.416.305c.28.112.279.113.157.386l-.443.994c-.307-.107-.621-.193-.939-.257a8.12 8.12 0 0 0-1.05-.029.27.27 0 0 0-.174.045c-.089.083-.2.177-.222.281-.012.07.111.215.2.24.316.09.642.151.967.21a3.83 3.83 0 0 1 1.312.4 1.51 1.51 0 0 1 .037 2.47 2.85 2.85 0 0 1-1.371.519 5.57 5.57 0 0 1-2.809-.355 1.37 1.37 0 0 1-.128-.062l-.178-.1zm9.014.305a7.21 7.21 0 0 1-.776.206 3 3 0 0 1-1.349-.059 1.66 1.66 0 0 1-1.266-1.663l-.012-4.584a1.29 1.29 0 0 1 .017-.144h1.808v.864h1.178v1.466h-1.148a.7.7 0 0 0-.025.119v1.967c-.011.145.043.288.148.388s.249.149.394.133a4.08 4.08 0 0 0 .574-.1l.453 1.41zm-17.712-4.908a2.39 2.39 0 0 0 2.049 0c.006.03.01.061.011.092v4.786c.021.153-.067.3-.212.352a2.27 2.27 0 0 1-1.7-.026.26.26 0 0 1-.163-.273q0-2.434 0-4.867a.36.36 0 0 1 .015-.063zm1.035-1.645c-.267-.001-.522-.109-.708-.3s-.288-.449-.282-.715c-.015-.361.169-.702.48-.887a.98.98 0 0 1 1.008.003c.31.187.493.528.476.889a.99.99 0 0 1-.974 1.01z" fill="#292969"/><rect width="126" height="54" rx="27" x="748" class="B"/><text letter-spacing="0.014em" class="C D E F"><tspan x="818.299" y="32">Clove</tspan></text><path d="M786.07 29.28c-2.613.003-4.736-2.107-4.748-4.72a4.58 4.58 0 0 1 4.742-4.509 4.72 4.72 0 0 1 4.716 4.769 4.6 4.6 0 0 1-4.709 4.459zm2.6-4.623a2.62 2.62 0 0 0-2.773-2.568 2.57 2.57 0 0 0-2.446 2.512c.016.708.317 1.38.834 1.864s1.207.74 1.915.71c1.361-.047 2.447-1.153 2.468-2.515z" class="K"/><path d="M800.947 24.631l-.2-4.278c-.01-.2.031-.269.249-.267q2.793.023 5.586.018c.256 0 .292.074.235.3l-.318 1.5c-.032.168-.1.217-.273.215-1.015-.009-2.029 0-3.044-.007-.218 0-.3.051-.273.28.034.313.05.628.049.943 0 .2.082.245.266.243l2.364-.006c.205 0 .289.04.293.272l.093 1.562c.017.193-.049.23-.226.228-.8-.007-1.6.008-2.394 0-.232 0-.285.079-.261.294a7.4 7.4 0 0 1 .049.914c0 .227.063.3.3.3l3.605-.021c.233 0 .26.071.216.267q-.183.82-.345 1.645c-.001.053-.025.104-.066.137s-.095.048-.148.039q-2.675.009-5.348.032c-.206 0-.188-.117-.195-.243q-.087-1.874-.175-3.747l-.028-.619h-.005z" fill="#212121"/><path d="M773.062 20.011h1.153c.151 0 .182.041.137.19l-.464 1.616a.3.3 0 0 1-.343.263c-.6-.036-1.203-.018-1.8.054a2.63 2.63 0 0 0-2.147 2.709 2.58 2.58 0 0 0 2.571 2.366h1.921c.2 0 .213.06.165.22l-.491 1.7c-.03.1-.047.211-.2.208-.914.066-1.833.004-2.73-.185a4.57 4.57 0 0 1-1.716-7.98c.988-.84 2.266-1.258 3.559-1.163h.385 0z" fill="#202020"/><path d="M775.544 24.694l-.005-4.4c0-.215.044-.29.274-.281h1.6c.229-.008.276.067.274.283l-.048 6.533c0 .3.066.38.369.372l2.572-.015c.228 0 .267.068.209.27l-.461 1.678c-.038.157-.114.179-.242.18l-4.435.021c-.234 0-.192-.126-.192-.261v-4.38h.09z" class="K"/><path d="M795.249 29.253l-5-9.127c.012-.045.054-.074.1-.069h1.743c.137-.013.266.065.318.192q1.838 3.349 3.695 6.688c.102.156.105.356.009.516l-.861 1.8z" fill="#202020"/><path d="M796.753 21.664c-.235-.325-.5-.626-.793-.9-.287-.275-.669-.4-.976-.668.074-.109.181-.07.267-.071q2.038-.005 4.077 0c.329 0 .354.051.208.363l-1.095 2.337c-.079.167-.188.32-.284.48l-.1.012.4-.864a7.66 7.66 0 0 0 .421-1.037h0c.165-.038.167-.17.172-.3.061-.3.353-.488.378-.8a2.6 2.6 0 0 0-.912-.092c-.551-.007-1.1.1-1.649.054a4.79 4.79 0 0 0-1.253-.037c-.165 0-.067.129-.006.175a4.98 4.98 0 0 1 .715.6c.1.112.185.26.36.284-.026.19.267.258.182.471l-.109-.007z" class="T"/><path d="M798.734 33.402q.005.118.011.236c0 .039.005.08-.038.1-.017.011-.039.013-.057.004s-.031-.026-.034-.046c-.046-.188-.117-.051-.177-.014-.282.183-.652.152-.9-.076-.295-.308-.355-.773-.148-1.146.188-.279.539-.397.857-.288a.62.62 0 0 1 .383.344c.021.045.06.115-.024.149-.055.022-.089-.01-.114-.06a.52.52 0 0 0-.665-.289c-.216.061-.368.255-.375.48-.069.297.049.607.3.781.129.085.29.108.438.064s.269-.153.33-.295c.059-.163.048-.273-.168-.257-.078.006-.158 0-.236 0-.043 0-.076-.019-.076-.068s.034-.066.077-.066h.5c.08 0 .083.065.086.127l.021.325h0z" class="H"/><path d="M807.699 33.74c-.269-.015-.513-.073-.608-.37-.018-.057-.072-.14.024-.179s.1.056.132.113a.5.5 0 0 0 .637.262c.128-.042.242-.107.245-.258a.27.27 0 0 0-.227-.272l-.457-.117c-.229-.065-.393-.184-.362-.456.03-.254.207-.342.427-.37a.63.63 0 0 1 .622.288c.033.047.109.123.026.179s-.113-.022-.15-.086a.45.45 0 0 0-.582-.209.24.24 0 0 0-.182.24c-.011.113.063.217.174.243l.429.108c.345.1.486.265.445.517-.038.232-.268.375-.594.369zm-3.983-.859c-.033-.744-.033-.748.718-.742.11 0 .309-.093.317.077.005.117-.2.043-.306.059-.088.006-.177.006-.265 0-.3 0-.418.186-.3.469.042.1.117.088.192.09h.472c.067 0 .184-.049.182.073 0 .1-.108.055-.169.058-.128.006-.256-.005-.383 0s-.316-.074-.27.175c.033.178-.108.477.281.441.186-.017.373-.006.56-.008.052 0 .109.012.11.07s-.05.076-.105.076l-.856.006c-.132 0-.135-.089-.141-.176l-.037-.677z" fill="#444"/><path d="M771.482 33.22c.041-.339-.082-.681.082-.846s.5-.038.767-.056a.78.78 0 0 1 .118 0c.072.007.191-.034.189.076s-.119.073-.193.074a3.83 3.83 0 0 1-.5 0c-.281-.034-.253.147-.272.33-.023.217.081.247.255.237s.355 0 .532 0c.053 0 .107.008.107.07s-.057.07-.108.071a3.06 3.06 0 0 1-.472 0c-.342-.048-.306.163-.324.391-.021.281.147.238.311.234l.532-.006c.063 0 .128 0 .122.085 0 .058-.06.068-.112.068l-.917.006c-.118 0-.117-.078-.116-.16v-.574z" class="H"/><path d="M780.15 33.1v.65c0 .062-.007.126-.084.131s-.084-.063-.085-.123a1.04 1.04 0 0 0 0-.118c-.026-.168.1-.437-.067-.486-.27-.049-.547-.053-.819-.013-.088 0-.068.106-.069.171v.472c0 .05-.01.1-.073.1s-.08-.048-.081-.1q0-.694 0-1.388c0-.049.012-.1.079-.1s.077.048.075.1c-.001.01-.001.019 0 .029.036.177-.1.452.073.517a2.32 2.32 0 0 0 .759.027c.035.006.07-.006.095-.031s.036-.06.03-.095a.61.61 0 0 1 0-.176c.035-.128-.1-.36.09-.365.153 0 .055.228.07.352a3.56 3.56 0 0 1 0 .442z" class="U"/><path d="M775.16 33.103a.74.74 0 0 0 .228.586c.134.112.315.152.484.106s.305-.171.363-.336c.031-.065.023-.189.134-.155.131.041.05.153.025.224-.082.198-.248.349-.453.412s-.427.03-.606-.089c-.357-.276-.463-.768-.252-1.166a.77.77 0 0 1 .929-.377c.166.039.303.157.364.317.023.059.081.132-.018.175-.073.031-.106-.03-.131-.084a.5.5 0 0 0-.647-.264c-.265.105-.433.367-.419.651z" class="H"/><path d="M786.318 33.016a.74.74 0 0 1 .771-.814.77.77 0 0 1 .558.262.78.78 0 0 1 .19.587c.026.214-.043.429-.189.587s-.355.244-.57.235c-.22.004-.431-.089-.577-.253s-.213-.385-.183-.603zm1.35.018a.6.6 0 1 0-1.192.013c-.016.173.041.344.157.474a.62.62 0 0 0 .453.208c.365-.003.588-.272.583-.696zm7.317.001a.69.69 0 0 1-.716.785.76.76 0 0 1-.784-.836.73.73 0 0 1 .723-.823c.472-.006.77.328.777.873zm-1.329-.048c-.021.178.034.356.153.49s.29.21.469.21a.61.61 0 0 0 .555-.668c-.011-.432-.256-.713-.618-.708s-.562.248-.558.676z" fill="#444"/><path d="M796.753 21.664l.109.007c-.004.047.02.092.06.116.004.123.07.236.176.3l.011.172.046.069c.008.129.1.225.131.35.126.563.143 1.146.048 1.715-.049.139-.187.3.1.345a3.24 3.24 0 0 1-.54 1.029c.063-.377.181-.734.243-1.108.155-.761.121-1.548-.1-2.293-.112-.226-.207-.46-.284-.7z" class="N"/><path d="M768.403 33.248v-.264c.017-.121-.019-.243-.099-.335s-.195-.147-.316-.149c-.06-.007-.131 0-.127-.081s.078-.072.135-.073q.515-.007 1.03-.012c.056 0 .13 0 .122.081 0 .054-.059.065-.112.074-.147.023-.348-.083-.428.078a1.23 1.23 0 0 0-.032.464l-.029.734c0 .074.05.21-.094.2s-.072-.139-.075-.215v-.5h.026z" class="H"/><path d="M790.212 32.989v-.62c0-.066-.02-.156.086-.147.077.006.067.084.068.141l.025 1.062c-.006.217.079.273.276.256.176-.015.354-.007.531-.009.055 0 .1.016.1.08 0 .047-.049.055-.089.056l-.856.022c-.116 0-.117-.081-.117-.162v-.679z" fill="#444"/><path d="M783.245 33.136l-.374-.48-.068.005v.559q0 .266 0 .531c0 .052-.007.1-.068.111-.087.012-.09-.054-.09-.114q0-.664-.006-1.328c0-.059-.01-.126.061-.149s.143.014.175.078l.391.586-.021.201zm.647-.82l.026 1.358c0 .061.037.145-.055.179s-.146-.029-.192-.1l-.175-.27.016-.212a.26.26 0 0 1 .1.163c.018.059.057.11.116.1.075-.013.055-.082.045-.137-.04-.363-.04-.729 0-1.092z" class="U"/><path d="M801.286 32.968q.016.309.031.618c0 .065.034.149-.075.153s-.09-.087-.092-.149q-.029-.647-.052-1.294c0-.054-.014-.131.072-.13s.086.062.088.127l.03.676z" fill="#444"/><path d="M797.434 24.737c-.287-.041-.149-.206-.1-.345.181-.024.089-.212.176-.293.173-.151.28-.363.3-.591l.178-.061c0 .042.005.084.008.126s-.018.067-.026.1a.73.73 0 0 0-.273.488l-.012.05-.045.07-.027.1a.2.2 0 0 0-.1.184l-.079.167z" class="T"/><path d="M797.695 24.16c.023-.192.121-.368.273-.488a.48.48 0 0 1-.273.488zm.3-.588c0-.042-.005-.084-.009-.126h0l.05-.063.021-.162.1-.012c.059.172-.044.272-.162.365z" class="N"/><path d="M783.512 33.272l-.016.212c-.069-.04-.117-.108-.132-.187l.1-.107z" class="H"/><path d="M783.468 33.193l-.1.107-.113-.156.126-.059.092.109z" class="U"/><path d="M797.512 24.57a.2.2 0 0 1 .1-.184c.019.09.015.166-.1.184z" class="N"/><g class="H"><path d="M783.772 33.399c.01.055.03.123-.045.137-.059.011-.1-.04-.116-.1.08.095.12.022.161-.037zm.122-1.082l-.118-.009c.006-.051.043-.056.081-.051.014 0 .027.008.035.02s.008.027.002.04z"/><path d="M783.377 33.084l-.126.059v-.007l.024-.2z"/></g><path d="M797.639 24.281l.045-.07c-.015.023-.025.047-.045.07z" class="N"/><path d="M798.057 23.219l-.021.162-.051.063h0l-.178.061c-.06-.144-.038-.309.058-.432a2.95 2.95 0 0 0 .291-.884c.032-.086.009-.183-.059-.244-.062-.051-.122-.029-.188.008-.306.174-.38.129-.4-.236-.026-.514-.034-.522-.538-.522h-.294c-.175-.024-.259-.173-.361-.284-.219-.222-.458-.423-.715-.6-.06-.045-.159-.173.006-.175a4.76 4.76 0 0 1 1.253.037c-.027.071-.068.127.019.2a1.06 1.06 0 0 1 .275.372c.171.395.312.447.693.25.086-.05.191-.05.277 0 .114.059.094.162.089.257 0 .067-.047.143-.027.2.031.086-.013.218.107.253.1.029.152-.071.215-.128.112-.1.171-.273.362-.269a7.63 7.63 0 0 1-.421 1.037l-.4.864z" fill="#f4a752"/><path d="M798.874 21.318c-.191 0-.25.168-.362.269-.064.057-.115.157-.216.128-.12-.035-.076-.167-.107-.253-.02-.056.024-.131.027-.2 0-.1.025-.2-.089-.257-.086-.05-.191-.05-.277 0-.382.2-.522.145-.693-.25-.063-.143-.157-.27-.275-.372-.087-.077-.046-.134-.019-.2.552.048 1.1-.061 1.65-.054a2.6 2.6 0 0 1 .912.092c-.025.311-.317.5-.378.8a.24.24 0 0 0-.172.3z" fill="#f49537"/><path d="M796.68 21.201h.293c.5 0 .512.008.538.522.018.364.092.409.4.236.066-.038.125-.059.188-.008.067.062.091.158.059.244-.049.308-.148.607-.291.884-.095.123-.118.288-.058.432a.89.89 0 0 1-.3.591c-.007-.146.011-.292.051-.432.104-.357.149-.729.133-1.1 0-.222-.067-.334-.3-.309a2.31 2.31 0 0 1-.234 0h-.048c0-.057-.007-.115-.011-.172.071-.176-.016-.258-.176-.3-.04-.024-.063-.069-.06-.116.085-.213-.208-.281-.182-.471z" fill="#fab55f"/><path d="M798.875 21.318a.24.24 0 0 1 .172-.3c-.005.131-.01.261-.172.3z" fill="#f4a752"/><path d="M797.157 22.261c.078.004.156.004.234 0 .236-.025.3.087.3.309.016.371-.029.743-.133 1.1a1.32 1.32 0 0 0-.051.432c-.087.081 0 .269-.176.293a4.48 4.48 0 0 0-.048-1.715c-.033-.126-.122-.222-.131-.35v-.065z" fill="#f5c77d"/><path d="M796.922 21.787c.16.039.248.121.176.3-.106-.064-.172-.177-.176-.3zm.235.474v.065l-.046-.069zm.829 1.184l.051-.063z" class="T"/></svg>