<svg xmlns="http://www.w3.org/2000/svg" width="97.521" height="96.891" viewBox="0 0 97.521 96.891">
  <g id="_64100f772685191e1c939fb6_BB_Icon3" data-name="64100f772685191e1c939fb6_BB Icon3" transform="translate(0)">
    <path id="Path_260830" data-name="Path 260830" d="M10.354,11.085A32.487,32.487,0,0,1,29.524.628,29.788,29.788,0,0,1,39.579.561a30.184,30.184,0,0,1,9.116,3.486,37.331,37.331,0,0,1,3.821,2.48c1.542,1.14,3.083,2.279,4.491,3.553A22.089,22.089,0,0,1,62.57,19.4a42.641,42.641,0,0,1,1.944,11.194,52.9,52.9,0,0,1-.737,12.6c-.871,4.223-2.949,8.245-6.636,10.658a10.059,10.059,0,0,1-10.591.4,13.894,13.894,0,0,1-6.1-8.178,14.12,14.12,0,0,1,1.408-10.658c3.821-6.9,12.065-10.993,19.573-12.266a25.389,25.389,0,0,1,11.864.536,18.3,18.3,0,0,1,9.719,7.641c2.48,3.888,4.022,8.379,5.5,12.669A129.786,129.786,0,0,1,92.6,58.073a149.673,149.673,0,0,1,3.821,28.89c.067,2.413.067,4.759,0,7.172-.067,2.145-3.419,2.145-3.352,0a140.663,140.663,0,0,0-9.183-53.088c-1.408-3.687-2.949-7.641-5.7-10.524a14.809,14.809,0,0,0-9.116-4.357,26.344,26.344,0,0,0-10.725,1.14,27,27,0,0,0-9.25,4.759,15.568,15.568,0,0,0-5.563,8.245,10.977,10.977,0,0,0,1.676,8.245,7.668,7.668,0,0,0,6.569,3.754c3.351-.2,5.966-2.949,7.373-5.832,1.81-3.687,1.877-8.178,2.011-12.2a49.552,49.552,0,0,0-.8-9.92,27.186,27.186,0,0,0-3.486-9.25c-1.743-2.681-4.491-4.558-7.038-6.435a31.418,31.418,0,0,0-7.91-4.022,19.729,19.729,0,0,0-7.91-1.139,30.565,30.565,0,0,0-17.7,6.435,29.655,29.655,0,0,0-3.62,3.486,1.659,1.659,0,0,1-2.346-2.346Z" transform="translate(-9.875 -0.164)" fill="#e5efff"/>
    <path id="Path_260831" data-name="Path 260831" d="M3.937,53.876A167.639,167.639,0,0,0,16.271,75.459c1.139,1.676,2.346,3.419,3.553,5.027a8.534,8.534,0,0,0,1.609,1.877c.469.335.6.2.939-.268a14.323,14.323,0,0,0,1.341-2.145c.536-.871,1.005-1.81,1.475-2.748a49.814,49.814,0,0,0,2.48-5.43A66.665,66.665,0,0,0,31.219,58.9a1.676,1.676,0,0,1,3.217.938,63.944,63.944,0,0,1-3.486,12.6,62.212,62.212,0,0,1-2.681,6.1,38.394,38.394,0,0,1-3.083,5.362c-1.341,1.81-3.418,2.614-5.429,1.408-1.81-1.14-3.016-3.284-4.223-4.96-2.614-3.687-5.094-7.507-7.373-11.4C5.613,64.6,3.2,60.177,1.055,55.619a1.714,1.714,0,0,1,.6-2.279A1.569,1.569,0,0,1,3.937,53.876Z" transform="translate(63.035 11.004)" fill="#e5efff"/>
  </g>
</svg>
