<svg xmlns="http://www.w3.org/2000/svg" xmlns:xlink="http://www.w3.org/1999/xlink" width="237" height="191.001" xmlns:v="https://vecta.io/nano"><style><![CDATA[.B{fill:#f6f9ff}.C{font-family:Arial-BoldMT, Arial}.D{font-weight:700}.E{fill:#24afe5}]]></style><ellipse cx="208" cy="95.501" rx="29" ry="28.5" fill="#005dff"/><path d="M202.858 104.627l-5.894 1.31 1.31-5.894c-2.553-4.822-1.196-10.786 3.193-14.027s10.488-2.786 14.346 1.072 4.314 9.958 1.072 14.346-9.206 5.746-14.027 3.193z" fill="#fff"/><rect width="113" height="52" rx="26" class="B"/><g fill="#4f1deb"><path d="M43.716 40.126l-6.491-3.615a7.89 7.89 0 0 0-4.848-1.315l-8.463.082h-.821V11.94c0-.9 0-.9.9-.9h22.924v23.335c0 .657-.164.986-.9.9a10.93 10.93 0 0 0-1.643 0c-.493-.082-.657.082-.657.575zM24.983 13.094v.329l-.082 19.391c0 .493.246.575.657.575h9.449c.317-.007.63.079.9.246l4.683 2.547 1.232.657v-3.451h3.122V13.094zm9.202 10.846v1.643h-5.012c-.493 0-.739.082-.739.657s.247.657.739.657h5.012v4.683h-6.491c-.986 0-.986 0-.986-.986v-.739h5.176c.493 0 .657-.164.657-.657s-.247-.575-.657-.575H26.79V23.94zm8.956.082v6.162c0 1.561-.082 1.643-1.725 1.315v-2.218h-1.479a15.77 15.77 0 0 1-1.972 0c-.493 0-.657.164-.657.657v.164c0 1.643 0 1.643-1.725 1.479v-7.559zm-1.725 3.451c.041-.437.041-.878 0-1.315 0-.164-.246-.493-.411-.493h-3.2c-.164 0-.411.246-.493.411v1.4z"/><path d="M35.582 14.82h7.066c.329 0 .493.082.493.493v7.148h-1.725v-2.3h-3.78c-.082 0-.329.329-.329.493v1.808h-1.725zm5.752 1.808H37.39a5.1 5.1 0 0 0-.082 1.068c0 .493.164.739.739.739h1.972c1.561 0 1.479.411 1.4-1.561zm-9.614 2.875l2.465 2.958c-.629.041-1.261.041-1.89 0-.207-.025-.39-.147-.493-.329a8.79 8.79 0 0 1-1.479-1.561c-.493-.575-.9-.082-1.4 0-.15.016-.285.101-.365.229s-.097.286-.046.428v1.232h-1.725c0-.246-.082-.493-.082-.739v-6.162c0-.575.164-.739.739-.739h6.08c.575 0 .739.164.739.657a13.15 13.15 0 0 0 0 2.547.74.74 0 0 1-.575.822zm-3.2-.657l3.7-1.4c.164-.082.246-.411.246-.575a.33.33 0 0 0-.329-.246c-1.15-.082-2.383 0-3.615 0z"/></g><text fill="#222" font-size="10" letter-spacing="0.015em" class="C D"><tspan x="54.189" y="29.32">RASA </tspan></text><rect width="131" height="51" rx="25.5" y="70.001" class="B"/><path d="M45.549 87.035c-.238-.011-.45-.153-.552-.368a.83.83 0 0 1 .276-.644l1.932-1.2 1.012-.552c.368-.276.736-.092.828.368.008.219-.096.427-.276.552l-2.116 1.295-.828.46z" class="E"/><path d="M48.033 106.999l.368-.276a.83.83 0 0 1 1.288.644c.092.552 0 1.1.092 1.656s-.184.184-.276.184-.184 0-.184-.184v-1.288c0-.552-.184-.736-.552-.736-.203-.032-.41.035-.555.181s-.213.352-.181.555v1.2c0 .184 0 .276-.184.276-.076.011-.153-.015-.207-.069s-.08-.131-.069-.207v-1.932c0-.092-.092-.276.184-.276s.276-.004.276.272z" fill="#0d1447"/><path d="M35.617 83.63c-5.744 0-10.4 4.656-10.4 10.4s4.656 10.4 10.4 10.4 10.4-4.656 10.4-10.4a10.4 10.4 0 0 0-10.4-10.4zm8.924 7.176c.184.184.184.46.276.644h-.276zm-.184 1.288c.276-.092.46.092.644.276s0 .276-.092.46a2.21 2.21 0 0 1-1.012.552c.184-.46.276-.92.46-1.288zm-1.84-4.6l.644.736c.358.443.553.995.552 1.564a7.91 7.91 0 0 1-.096 1.472h-1.1c-.092 0-.184 0-.184-.092a1.47 1.47 0 0 0-.828-1.1 1.01 1.01 0 0 0-.736 0h-.276l-1.476-1.476c-.092 0-.092-.092-.092-.184v-1.656c0-.184.092-.276.184-.276h.828c.712-.002 1.411.189 2.024.552zm-2.668 3.22a1.01 1.01 0 0 0-.092.46h-.828c-.184 0-.184 0-.184-.184a11.54 11.54 0 0 1 .184-1.38c.351.259.661.569.92.92zm.552-4.876c.092 0 .092 0 .092.092a7.91 7.91 0 0 0-1.472 0c-.092 0-.184 0-.184-.092s-.092-.552-.092-.828a6.99 6.99 0 0 1 1.652.828zm-1.656 5.7h1.012a1.2 1.2 0 0 0 .644.828 1.29 1.29 0 0 0 .828.092h.184a5.52 5.52 0 0 1 .828 1.38c.092.184 0 .184-.092.276l-1.84.552-2.3.46h-.092c-.04-.035-.062-.085-.062-.138s.023-.103.062-.138a2.21 2.21 0 0 1 .184-.736c0-.102.082-.184.184-.184.233-.086.407-.284.462-.525s-.014-.495-.186-.675c-.092-.092-.184-.184-.092-.276a2.04 2.04 0 0 0 .092-.828c-.004-.268.088-.084.18-.084zm-.46 7.176c.009.101-.025.201-.092.276l-1.932 1.1c-.092-.092 0-.184 0-.276s.828-2.116 1.2-3.128 0-.368.184-.46l1.932-.46 2.208-.552h.092a2.21 2.21 0 0 1-.552.736l-.828 1.012c-.092.184-.184.184-.368.184a1.38 1.38 0 0 0-1.84 1.564zm-6.072-6.624v.184l-2.576.644-.828.276h-.192l.552-.828c.348-.559.75-1.083 1.2-1.564.092-.092.184-.184.276-.092.271.132.595.086.818-.117s.3-.521.194-.803v-.276a15.55 15.55 0 0 1 2.944-1.748c0-.024.01-.048.027-.065s.041-.027.065-.027c-.368.828-.644 1.656-.92 2.484 0 .102-.082.184-.184.184-.842.14-1.439.897-1.38 1.748zm2.852.736a3.31 3.31 0 0 0 .368-.828 1.2 1.2 0 0 1 .828-.184h.184a.55.55 0 0 0 .828 0l.276-.276h.46c.184 0 .276 0 .276.184a1.84 1.84 0 0 0-.092.644c-.092.184-.092.276-.276.276-.268.051-.475.265-.516.535s.092.536.332.665c0 .092.092.184.092.276l-.276 1.1h-.092a2.67 2.67 0 0 1-.92.276l-.184-.184a1.1 1.1 0 0 0-1.932.092c-.024 0-.048.01-.065.027s-.027.041-.027.065c0 .276-.184.368-.46.368h-.46c-.092.092-.184 0-.092-.092l.276-1.564c.074-.211.135-.426.184-.644l.184-.184a1.38 1.38 0 0 0 1.1-.552zm-.276-2.576c.276-.92.644-1.748.92-2.576s.092-.184.276-.092a13.89 13.89 0 0 1 2.392 1.656h.092c.046.274.046.554 0 .828 0 .276-.092.552-.092.828s-.092.368-.368.46h-.368a.55.55 0 0 1-.46-.184.55.55 0 0 0-.828.092.46.46 0 0 1-.46.276.55.55 0 0 1-.552 0 1.47 1.47 0 0 0-.46-.828c-.276-.092-.184-.276-.092-.46zm-1.472 6.532h1.2a1.1 1.1 0 0 0 1.932-.276h.736v.276c-.46 1.2-.92 2.392-1.472 3.588l-.184.184-.644.276-.46-.184a8.37 8.37 0 0 1-1.472-1.012h-.184c-.028-.159.005-.324.092-.46.011-.617.073-1.233.184-1.84.092-.46.092-.552.276-.552zm5.152-10.028a6.9 6.9 0 0 1 0 1.38l-1.012-.644-.736-.552.92-.184h.828zm-1.012-1.748c.092-.184.276-.184.46-.184s.368.644.46 1.1h-.092l-1.932.46a3.5 3.5 0 0 1 1.1-1.38zm-4.42-.176a8.83 8.83 0 0 1 2.668-.276h.828c.092.092 0 .092 0 .092a9.57 9.57 0 0 0-1.1 1.564h-.184l-2.116-.644-1.38-.184h-.368zm-5.244 4.048a2.21 2.21 0 0 1 .552-1.012 3.31 3.31 0 0 1 2.672-1.476 6.53 6.53 0 0 1 3.5.552c.184 0 .368 0 .368.184a.92.92 0 0 1-.46.368 13.71 13.71 0 0 0-2.852 1.84c-.092.092-.184.184-.368.092a.55.55 0 0 0-.644.092c-.248.154-.362.456-.276.736.092.092 0 .184 0 .276l-.828.92c-.396.468-.763.96-1.1 1.472-.092.092-.092.184-.184.184l-.184-.276a9.2 9.2 0 0 1-.368-2.208 5.7 5.7 0 0 1 .184-1.748zm1.472 7.36h-1.748c.098-.636.284-1.255.552-1.84.368.552.828 1.2 1.2 1.84zm-3.036-4.416c.132-.61.349-1.198.644-1.748h0c.075.206.107.425.092.644.103.952.351 1.883.736 2.76 0 .092.092.184-.092.184l-1.656.828c0-.896.092-1.791.276-2.668zm.368 5.52c-.184-.184-.184-.46-.276-.644h.368zm-.368-1.748c-.092-.092-.184-.184-.184-.276.397-.416.864-.759 1.38-1.012l-.552 1.564a.83.83 0 0 1-.644-.276zm1.656 4.14c0-.092-.092-.092-.092-.184a2.67 2.67 0 0 1-.46-1.656 1.93 1.93 0 0 1 0-.736c0-.092-.092-.184 0-.276l2.576.184.46.368c.04.035.062.085.062.138s-.023.103-.062.138c-.152.244-.124.558.068.772s.502.274.76.148c.156-.084.349-.045.46.092l.184.276c-.046.735-.046 1.473 0 2.208h-.184a4.51 4.51 0 0 1-2.668-.46 4.23 4.23 0 0 1-1.1-1.012zm4.048 3.128l-1.2-.644h1.1c.092 0 .092 0 .092.092a3.96 3.96 0 0 1 .092.46c.1.088.008.088-.084.088zm.184-5.8c-.016.526-.078 1.049-.184 1.564-.184-.092-.276-.184-.184-.46.066-.241.004-.5-.163-.686s-.418-.274-.665-.234c-.095.063-.213.079-.321.043s-.193-.12-.231-.227h1.656c.092-.092.184-.092.092 0zm.092-.92h-2.484a6.9 6.9 0 0 1-.644-1.1 3.13 3.13 0 0 1-.552-1.1c-.092-.184-.092-.184.092-.276l2.208-.736 1.472-.46a1.84 1.84 0 0 0 .552.644c.092.092 0 .184 0 .276a23.55 23.55 0 0 0-.46 2.484zm.46 4.876c0-.368.092-.828.092-1.2h.184l1.2.828c.092.092.184.092.092.184l-1.38.368c-.096.004-.188.004-.188-.18zm1.1 2.116h-.368c-.46-.184-.552-.644-.644-1.012l.184-.184a7.36 7.36 0 0 0 1.932-.46 6.07 6.07 0 0 1-1.1 1.656zm4.6 0c-1.044.308-2.133.433-3.22.368h-.92c0-.092.092-.092.092-.184a9.57 9.57 0 0 0 1.1-1.564c.092-.184.092-.184.368-.092l1.932.644a6.35 6.35 0 0 0 1.84.276h.184c-.434.237-.894.421-1.372.548zm4.968-4.784a3.68 3.68 0 0 1-1.38 2.76h-.092c-.304.289-.687.481-1.1.552a7.45 7.45 0 0 1-2.852.092l-1.656-.46-.184-.184c.919-.435 1.81-.927 2.668-1.472h.276a1.38 1.38 0 0 0 1.84-.736 1.29 1.29 0 0 0 .092-1.012c-.092-.092-.092-.092 0-.184a13.8 13.8 0 0 0 1.84-2.208h.092l.276.828a5.52 5.52 0 0 1 .184 2.024zm-.368-5.06c-.092-.092-.184-.184-.184-.276l-.552-.828c-.092-.184-.184-.368 0-.552h1.2a6.9 6.9 0 0 1-.46 1.656zm1.38 4.6h-.184c0-.552-.092-1.012-.092-1.564l-.456-1.564c-.092-.184-.092-.184.092-.276a3.59 3.59 0 0 0 1.288-.736h.184a10.03 10.03 0 0 1-.644 3.68.46.46 0 0 0-.184.368z" class="E"/><path d="M34.969 79.858v-1.656a.6.6 0 0 1 .9-.52.6.6 0 0 1 .3.52v3.312c0 .368-.276.552-.644.552a.55.55 0 0 1-.552-.552z" fill="#25b0e5"/><path d="M22.548 84.186c.184-.092.276 0 .368.092l2.76 1.656c.248.154.362.456.276.736 0 .276-.276.368-.552.368h-.276l-2.852-1.752c-.276-.184-.368-.368-.276-.644a.46.46 0 0 1 .552-.46zm7.084-.739c-.238-.011-.45-.153-.552-.368l-1.288-2.576c-.46-.828-.092-.368-.184-.46-.088-.182-.071-.397.045-.562s.313-.255.514-.233.374.15.453.336l.644 1.38.828 1.656a.55.55 0 0 1-.46.828zm11.684 0a.55.55 0 0 1-.552-.828l1.1-2.3a2.76 2.76 0 0 0 .368-.736c.154-.248.456-.362.736-.276.276.184.46.46.276.736l-1.472 3.036a.64.64 0 0 1-.46.368z" class="E"/><path d="M28.345 87.862c-.191.319-.345.659-.46 1.012a5.61 5.61 0 0 0-.092 2.76l.276 1.288h.184a24.38 24.38 0 0 1 1.932-2.392c.092-.092.092-.092.092-.276-.08-.261-.01-.544.183-.737s.476-.263.737-.183c.184.092.276.092.368 0a15 15 0 0 1 3.22-2.116h.092a1.01 1.01 0 0 1-.184.552l-.552.368a12.13 12.13 0 0 0-2.3 1.472c-.092.092-.184.184-.092.276s-.368 1.2-1.012 1.012-.276-.092-.368 0c-.55.63-1.042 1.307-1.472 2.024l-.184.276h.46l2.944-.736h.092c.067.075.101.175.092.276 0 .092-.092.092-.184.184a23.83 23.83 0 0 0-3.4 1.012c-.184.092-.184.092-.092.368a11.78 11.78 0 0 0 1.012 1.84c.067.075.101.175.092.276h-.46c-.184-.092-.184-.276-.276-.368l-.828-1.38c0-.024-.01-.048-.027-.065s-.041-.027-.065-.027a1.75 1.75 0 0 0-.184.644c-.133.261-.226.54-.276.828 0 .092 0 .184-.092.184a.92.92 0 0 1-.644-.184 2.85 2.85 0 0 1 .184-.736l.276-.736a3.13 3.13 0 0 0-1.1.828h-.184c0-.276-.092-.644-.092-.92l.736-.46.828-.368c.092 0 .184-.092.092-.276a5.52 5.52 0 0 1-.552-1.748c-.101-.516-.163-1.039-.184-1.564a5.8 5.8 0 0 1 1.472-2.208zm11.408 3.68h-.92c-.092 0-.184 0-.184.184a3.4 3.4 0 0 1-.184.828c-.092.276 0 .184.092.184.263.186.375.521.276.828a.92.92 0 0 1-.552.46c-.092 0-.092.092-.184.184a6.82 6.82 0 0 0-.184 1.012c-.092.368-.276.092-.46 0l.276-1.012c0-.092.092-.184-.092-.368a.66.66 0 0 1 .276-1.2c.092-.092.184-.092.184-.184s.092-.552.092-.736 0-.184-.092-.184h-.736a.64.64 0 0 1-.46.344c-.199.036-.403-.023-.552-.16h-.92c-.092-.092-.092-.184-.092-.368h.736l.184-.184a.55.55 0 0 1 1.012-.184l.276.184h.552c.102 0 .184-.082.184-.184.092-.552.092-1.1.184-1.656v-.18a.92.92 0 0 1 .46.368v.184a3.4 3.4 0 0 1-.092 1.012v.368c0 .092 0 .184.092.092h.828z" fill="#8cc540"/><path d="M42.513 87.494a4.23 4.23 0 0 0-1.472-.644 6.99 6.99 0 0 0-1.932-.276c-.092 0-.184.092-.092.184v1.748l-.552-.368v-.184a3.77 3.77 0 0 0-.092-1.012c0-.184 0-.276-.184-.276l-1.012.184h-.46l-.46-.184c-.092-.092.092-.184.092-.276l.92-.276.828-.184c.184 0 .276-.092.184-.276s-.092-.644-.368-.828h0l.828.184c.092.184.092.46.184.644s0 .184.184.184h1.38c.337.128.649.315.92.552a5.98 5.98 0 0 1 1.1 1.1z" fill="#8bc540"/><path d="M39.753 102.582a12.6 12.6 0 0 1-2.576-.46l-1.472-.552c-.092-.092-.184 0-.276.092a7.36 7.36 0 0 1-1.2 1.748 1.38 1.38 0 0 1-.828-.184c.644-.276.92-.92 1.38-1.472v-.184l1.2-.46 1.288.46a6.81 6.81 0 0 0 2.392.184 3.59 3.59 0 0 0 2.116-.644l-.368.368a4.97 4.97 0 0 1-1.472.92z" fill="#8cc540"/><path d="M31.841 98.994c-.092 0-.184-.184-.276-.276h-.276c-.307.099-.642-.013-.828-.276a.55.55 0 0 1-.092-.736c.009-.101-.025-.201-.092-.276-.092-.092-.184-.276-.368-.368h.644c0 .092.184.092.276.092.33-.125.7.039.828.368.113.127.178.29.184.46a.46.46 0 0 0 .092.552c0 .276 0 .368-.092.46z" fill="#8cc641"/><path d="M37.637 96.234l-.828 2.392c-.194.414-.348.845-.46 1.288-.092 0-.092.092-.092.184l-.736.276.828-1.84a17.94 17.94 0 0 0 .736-2.024c0-.092.092-.092.092-.184z" fill="#8dc642"/><path d="M27.333 96.878c-.079.914.08 1.833.46 2.668-.328-.393-.607-.826-.828-1.288a9.56 9.56 0 0 1-.368-.92c0-.184-.092-.46.092-.644z" fill="#8cc642"/><path d="M34.233 100.834a8.37 8.37 0 0 0-1.472-1.012v-.46l2.116 1.288z" fill="#8dc644"/><path d="M43.437 91.818l-1.2-.184a.83.83 0 0 1 .092-.46h1.288a1.29 1.29 0 0 1-.184.644z" fill="#8cc541"/><path d="M44.997 92.371a1.38 1.38 0 0 0-.644-.276 1.29 1.29 0 0 1 .184-.644c.035-.04.085-.062.138-.062s.103.023.138.062a3.31 3.31 0 0 1 .184.92z" fill="#89c546"/><path d="M30.277 107.274c0 .024-.01.048-.027.065s-.041.027-.065.027h-2.116v-.184h1.38c.053.047.086.113.092.184h1.472v.184h-.736zm-4.324 1.288h1.38v.184h-2.76v-.184zm0-2.116h-1.288c-.092 0-.092 0-.092-.092v-.184h2.76v.184h-1.38zm1.104-.46h-2.392c-.092 0-.092 0-.092-.092v-.184h1.932a.83.83 0 0 1 .552.276z" fill="#1f70c0"/><path d="M27.057 109.022h0l-.46.276h-2.024v-.184h2.484z" fill="#1f6fbf"/><g fill="#1f70c0"><path d="M26.137 107.09h1.1c-.092.092-.184.092-.184.184h-1.928v-.184zm0 .736h-1.012v-.184h1.932l.184.184zm-2.668-2.116h.92v.184c0 .092 0 .092-.092.092h-1.656v-.184h.828z"/><path d="M23.469 106.446h-.828v-.276h1.748v.276zm0 2.116h.92v.184h-1.748v-.184zm0 .736h-.828v-.184h1.748v.184zm4.876-2.852h-.828v-.276h1.656v.276zm2.3 0h-.828c.067-.075.101-.175.092-.276h1.564v.276h-.828zm-2.392-.46h-.644c-.092 0-.092 0-.092-.092v-.184h1.472c0 .092 0 .184.092.184s0 .092-.092.092zm2.484 0h-.644c-.092 0-.092 0-.092-.092s.092-.092.092-.184h1.38v.184h-.736zm-.368.92h-.644v-.184h1.288v.184zm-1.656 0h-.644v-.184h1.2c.092 0 .092.092.092.184h-.644zm2.208 1.656h.552v.184h-1.2v-.184zm0 .736h-.644v-.184h1.2v.184zm-2.76-.46h-.552v-.276h1.2v.184h-.644zm0 .46h-.552v-.184h1.2v.184zm1.38-1.656h.552v.184h-1.1c0-.092 0-.092-.092-.184z"/><use xlink:href="#B"/><path d="M26.965 106.63h.368v.184h-.736v-.092h.368zm2.576 1.472h.46c-.092.092-.092.092-.092.184h-.736c0-.092 0-.092-.092-.184h.46zm-4.048-1.472h.368v.184h-.736v-.092h.368zm2.944 1.012h.368v.184h-.736v-.184z"/><use xlink:href="#B" x="-1.472"/><use xlink:href="#B" x="1.472"/><use xlink:href="#B" x="-3.496" y="-1.38"/><path d="M30.645 107.642h.368v.184h-.736v-.184h.368z"/><use xlink:href="#B" x="-3.496"/><use xlink:href="#B" x="3.68"/><path d="M23.469 107.642h.368v.184h-.736v-.184h.368z"/><use xlink:href="#B" x="-3.496" y="-0.92"/><path d="M29.265 108.562h.552c-.053.047-.086.113-.092.184h-.368z"/></g><path d="M29.541 109.022h.092v.276h0v-.276h-.092z" fill="#1f6fc0"/><g fill="#0d1447"><path d="M36.257 108.563l.552-2.484.276-.276c.184 0 .276.092.184.368s-.46 1.84-.644 2.76-.184.276-.368.276-.368 0-.368-.276a24.66 24.66 0 0 0-.644-2.484c-.067.075-.101.175-.092.276l-.552 2.208c-.092.276-.184.276-.368.276s-.276 0-.368-.276-.46-1.84-.736-2.76-.092-.276.092-.276.368-.092.368.184l.552 1.932c-.028.159.005.324.092.46.184 0 .092-.184.184-.276s.276-1.38.46-2.116.092-.276.368-.276c.073 0 .143.029.195.081s.081.122.081.195a21.44 21.44 0 0 0 .644 2.3c.006.071.039.137.092.184zm7.636-1.473a1.29 1.29 0 0 0-.828-.092c-.276 0-.46.092-.46.368s.184.276.368.276l.644.184c.266.107.445.358.46.644 0 .368-.092.552-.46.644a1.47 1.47 0 0 1-1.38 0c-.184-.092-.092-.184-.092-.276s.184-.092.276-.092l.828.184c.276-.092.368-.184.368-.368s-.092-.368-.276-.368l-.644-.184c-.319-.046-.555-.321-.552-.644.092-.368.184-.552.552-.644h1.012c.184 0 .368.092.184.368z"/><path d="M40.489 107.826v-.548c0-.092.092-.276-.184-.276s-.092-.092-.092-.184h.092c.368 0 .184-.276.184-.46s0-.276.276-.276.184.184.184.276.092.46.368.46h.276c.092-.092.184-.092.184.092s-.092.184-.184.184a.59.59 0 0 0-.644.644v.736c0 .368.092.46.46.46h.276c.092 0 .092.092.092.184s0 .184-.092.184h-.644a.83.83 0 0 1-.552-.644v-.736zm-.828 1.013v-1.2a1.01 1.01 0 0 0-1.2-1.012h-.46c-.276 0-.368.184-.276.46l.736-.184c.302-.071.611.084.736.368.092.092.092.276-.184.276h-.92a.92.92 0 0 0-.552.92c0 .368.184.552.644.644a.92.92 0 0 0 1.012-.368c0 .276.092.368.276.368s.188-.088.188-.272zm-.46-.552c-.04.338-.306.604-.644.644-.295.012-.56-.177-.644-.46q0-.46.552-.552h.46c.368 0 .368.092.276.368zm7.176-1.473a1.01 1.01 0 0 0-1.2 0c-.46.184-.552.644-.552 1.2a1.2 1.2 0 0 0 2.3.276c.094-.554-.117-1.116-.552-1.472zm-.276 2.024c-.168.091-.369.103-.546.032s-.315-.218-.374-.4a1.1 1.1 0 0 1-.092-.92c.046-.319.321-.555.644-.552.286.015.537.194.644.46a1.01 1.01 0 0 1 .092.46 1.1 1.1 0 0 1-.368.92z"/></g><text fill="#222" font-size="9" letter-spacing="0.015em" class="C D"><tspan x="54" y="99">IBM Watson</tspan></text><rect width="151" height="51" rx="25.5" y="140.001" class="B"/><text fill="#222" font-size="9" letter-spacing="0.015em" class="C D"><tspan x="47" y="169">Google Dialog Flow</tspan></text><g fill-rule="evenodd"><path d="M41.492 156.967l-11.962 6.908-11.969-6.908v13.817l5.984 3.452v6.91l17.947-10.362z" fill="#ef6c00"/><g fill="#ff9800"><path d="M29.53 163.876l-11.969-6.909 11.969-6.908 11.962 6.908z"/><path d="M29.318 163.666l-11.681-6.744-.076.046 11.969 6.908 11.962-6.908-.281-.167z"/><path d="M29.53 163.962v-.086l-11.893-6.865-.076.042z"/></g></g><g fill="none" stroke="#efefef" stroke-width="2" stroke-dasharray="2"><path d="M113 24.257s34.456 1.661 36.154 33.938S179 92.776 179 92.776m-28 72.727s14.618-1.763 15.339-36.025S179 92.778 179 92.778"/><path d="M131.5 95.5l45-3"/></g><defs ><path id="B" d="M26.965 108.286h-.368v-.184h.736v.184h-.368z"/></defs></svg>