<svg xmlns="http://www.w3.org/2000/svg" width="55.264" height="55.265" viewBox="0 0 55.264 55.265">
  <g id="arabic_1_" data-name="arabic (1)" transform="translate(-0.002)">
    <path id="Path_259442" data-name="Path 259442" d="M123.62,92A1.621,1.621,0,0,0,122,93.619v1.619h3.238V93.619A1.621,1.621,0,0,0,123.62,92Z" transform="translate(-108.831 -82.07)" fill="#9ca9ff"/>
    <path id="Path_259443" data-name="Path 259443" d="M50.408,19.645H30.979a4.8,4.8,0,0,0-1.619.3V4.857A4.863,4.863,0,0,0,24.5,0H4.858A4.863,4.863,0,0,0,0,4.857V34.217a1.619,1.619,0,0,0,2.764,1.145l6-6H24.5a4.8,4.8,0,0,0,1.619-.3v14.87a4.863,4.863,0,0,0,4.857,4.857H46.5l6,6a1.619,1.619,0,0,0,2.764-1.145V24.5a4.863,4.863,0,0,0-4.857-4.857ZM19.646,21.264a1.619,1.619,0,0,1-3.238,0V16.407H13.17v4.857a1.619,1.619,0,0,1-3.238,0V11.549a4.857,4.857,0,1,1,9.714,0Zm19.429,17.81h4.857a1.619,1.619,0,1,1,0,3.238H39.075a4.856,4.856,0,0,1-2.612-8.951,4.855,4.855,0,0,1,4.231-7.24,4.879,4.879,0,0,1,4.171,2.37,1.617,1.617,0,1,1-2.776,1.66A1.62,1.62,0,1,0,40.694,32.6h3.238a1.619,1.619,0,1,1,0,3.238H39.075a1.619,1.619,0,0,0,0,3.238Z" transform="translate(0)" fill="#9ca9ff"/>
  </g>
</svg>
