<svg id="arabic" xmlns="http://www.w3.org/2000/svg" width="16.756" height="16.756" viewBox="0 0 16.756 16.756">
  <path id="Path_203441" data-name="Path 203441" d="M225.427,217h-7.2A1.229,1.229,0,0,0,217,218.227v7.2a1.229,1.229,0,0,0,1.227,1.227h7.2a1.229,1.229,0,0,0,1.227-1.227v-7.2A1.229,1.229,0,0,0,225.427,217Zm-1.325,7.57a2.972,2.972,0,0,1-1.939.693,2.637,2.637,0,0,1-2.782-2.454,2.408,2.408,0,0,1,1.317-2.085,1.309,1.309,0,0,1-.335-.86,1.369,1.369,0,0,1,.58-1.087,2.04,2.04,0,0,1,1.22-.386.491.491,0,1,1,0,.982c-.468,0-.818.259-.818.491s.35.491.818.491a1.07,1.07,0,0,0,.631-.189.491.491,0,0,1,.589.785,2.039,2.039,0,0,1-1.22.386,1.5,1.5,0,1,0,0,2.945,1.991,1.991,0,0,0,1.3-.457.491.491,0,0,1,.639.745Z" transform="translate(-209.898 -209.898)" fill="#465def"/>
  <path id="Path_203442" data-name="Path 203442" d="M8.329,6.12H9.654V1.227A1.229,1.229,0,0,0,8.427,0h-7.2A1.229,1.229,0,0,0,0,1.227v7.2A1.229,1.229,0,0,0,1.227,9.654H6.12V8.329a2.2,2.2,0,0,1,.22-.961L6.07,6.65H3.588l-.369.97A.491.491,0,0,1,2.3,7.271L4.268,2.108l.008-.02a.6.6,0,0,1,.552-.37.617.617,0,0,1,.568.368l.009.023L7.068,6.516A2.2,2.2,0,0,1,8.329,6.12Z" fill="#465def"/>
  <path id="Path_203443" data-name="Path 203443" d="M121.065,105.5H122.8l-.865-2.291Z" transform="translate(-117.103 -99.835)" fill="#465def"/>
</svg>
