<svg xmlns="http://www.w3.org/2000/svg" viewBox="0 0 1013.2 190.6"><defs><style>.a{fill:#8c98a4;}</style></defs><path class="a" d="M640.2,53.7c4.4-5.3,8.5-10.4,12.5-15.4,1.1-1.4,2.4-.8,3.7-.9H660L648.5,50.2c4.5.6,6.8,3.7,8.3,7.3,2.6,6,5.1,12.1,7.6,18.3-3.6.7-7.2.3-10.9.4s-7.8-.1-11.7.2-8.4-1-11.1-5.4c-2.2,5-6.3,5.7-10.8,5.5h-7c-4.7.2-8.6-1.1-11.3-5.5-2,4.4-5.6,5.6-9.9,5.5H561.1c-3.5,0-7-.4-9.8-3.6-.3,2.9-.3,5.5-1,7.9-1.5,4.6-4.7,7.1-9.5,7.6-1.5.2-2-.4-2-1.7s-.9-2.2,1.2-2.6c4-.7,5.4-2.7,5.7-7,.6-6.4.2-12.9.3-19.4,0-2.1,2.5-4.3,4.5-4s.6,1,.6,1.5c.1,3.3,0,6.5.1,9.8s2.3,6.5,6.3,6.9h8.9a15.7,15.7,0,0,1-3.2-10.9,13.9,13.9,0,0,1,12.3-13.8,25,25,0,0,1,8.2.5c2.4.6,1.2,2.1,1.1,3.3s-1.1,1.3-2.3,1c-4-1.1-8-1.2-11.1,2.2s-3.3,7.3-2.1,11.4,4.5,6.4,8.8,6.5h12.5c4.5,0,6.6-1.9,6.8-6.2s.1-9.5.2-14.3c0-1.8,2.6-3.8,4.4-3.4s.6,1,.6,1.6V63.4a10.9,10.9,0,0,0,.6,4.4,6.7,6.7,0,0,0,6.6,4.4h10.1c4.2,0,6.4-2.1,6.6-6.4s0-9.4,0-14c0-1.8,2.9-4,4.6-3.5s.5,1.1.6,1.6V63.7c0,6.1,2.4,8.5,8.4,8.5s10.1-.1,15.1,0c1.6,0,2.1-.2,1.4-1.9s-2.3-5.9-3.5-8.8C650.3,54.8,647.8,53.3,640.2,53.7Z"/><path class="a" d="M440.3,70.6c-2,4.3-5.3,5.5-9.6,5.5-11.9-.2-23.7-.1-35.6-.1-.9,0-2.3.9-2.7-.7s1.6-3.5,3.2-3.5h21.7c-1.1-4.6-1.9-9.2-3.2-13.6s-6.1-7.4-11.2-5.4c-1.2.4-2.2,1-3.4,1.5-1.4-3.9-1.2-4.2,2.5-5.6,6.9-2.6,13.3,0,16.4,6.8,2,4.5,2.6,9.4,3.7,14.2.4,1.8,1.1,2.5,2.9,2.3s3.4,0,5-.1c3.5,0,5.4-1.5,6.1-5s.2-8.8.3-13.2,0-4.9,5.1-5.7V64.3a7.6,7.6,0,0,0,1.9,5.2,5.5,5.5,0,0,0,5.6,2.1,5.1,5.1,0,0,0,4.1-4.1c1-3.7.4-7.5.6-11.2.3-5.4.4-10.8.2-16.2-.1-2.6.7-3.9,3.1-4.3.6-.1,1.2-.7,2-.4,0,10.2.3,20.4-.1,30.6-.4,8.4-7.7,12.6-14.4,8.8C442.8,73.8,441.7,72.3,440.3,70.6Z"/><path class="a" d="M330.3,35.3V64a15.8,15.8,0,0,1-.3,3.8c-.7,3.8-2.5,6.9-6.6,7.9a10,10,0,0,1-10.7-3.8l-.9-1.3c-2.2,5-6.4,5.5-11.1,5.5-11.3-.2-22.7-.1-34-.1-.9,0-2.2.7-2.5-.7s1.6-3.5,2.9-3.5h22c-1.1-4.7-1.9-9.3-3.2-13.7s-6.5-7.7-11.8-5.3a22.9,22.9,0,0,0-2.7,1.4c-1.5-3.9-1.3-4.4,2.5-5.7,7-2.6,13.2.1,16.3,6.9,2.1,4.6,2.6,9.6,3.8,14.5.4,1.6,1,2,2.5,1.9h5c3.7,0,5.8-1.7,6.2-5.4s.1-9.8.2-14.7c.1-1.9,2.9-4.3,4.7-3.8s.5,1.1.5,1.6c0,5,.1,10,0,15a7.3,7.3,0,0,0,2.3,5.6c3.2,3.1,7.8,2,9.2-2.2a10.9,10.9,0,0,0,.6-4.4V41.1C325.2,36.4,325.2,36.4,330.3,35.3Z"/><path class="a" d="M630.7,128c0,6.2-.1,12.5,0,18.7,0,1.7-.3,2.4-2.1,2.3-3.7-.1-3.7.1-3.7-3.7V130.8c.1-1.2-.2-1.7-1.6-1.7h-17c-1.7,0-1.9.7-1.9,2.1.1,5.2-.1,10.5.1,15.7.1,2.6-1.4,2.1-2.8,2.1s-2.9.4-2.8-2.1c.1-12.8.1-25.5,0-38.3,0-1.5.4-1.9,2-1.9,3.6,0,3.6,0,3.6,3.5s0,8.3-.1,12.5c0,1.4.5,1.8,1.9,1.8h17c1.4,0,1.7-.4,1.6-1.7,0-4.7.1-9.3,0-14,0-1.5.2-2.4,2-2.1h1.7c1.6-.2,2.1.4,2.1,2.1C630.6,115.2,630.7,121.6,630.7,128Z"/><path class="a" d="M238.4,128.6c-2.8,2.2-4.4,4.7-4,8.4s-.1,6.6.1,10c.1,1.7-.5,2.1-2.1,2-4.4-.1-3.6.4-3.6-3.5s0-5,0-7.5c0-9.6.1-19.2-.1-28.7-.1-2.5.9-2.7,2.9-2.6s3.1-.2,2.9,2.5c-.2,5.7-.1,11.4-.1,17.5,4.8-5.8,9.3-11.1,13.5-16.7,2-2.6,4-3.8,7.1-3.3h2.6l-6.3,7.4c-2.5,3-4.9,5.9-7.5,8.8a2.5,2.5,0,0,0-.2,3.7c4.5,6.4,8.8,12.9,13.2,19.4l2.1,3h-5.6c-1.3.1-1.7-.9-2.2-1.7Z"/><path class="a" d="M386.3,71.9c-1,4.1-1,4.1-5,4.1H352.5c1.9,4.9,8.1,8.2,13.8,7.6l2.5-.4c2.2-.3,3.1.5,3,2.8s-.3,1-.9,1.2c-10.3,2.3-22.1-.7-25.3-13.7-.3-1.5-.1-1.8,1.4-1.8h28.8c2,0,2.5-.6,2.6-2.5.5-8.6-3.1-14.7-10.2-16.8a16.6,16.6,0,0,0-10.8.4c-1.5.5-2.2.4-2.4-1.1s-1.5-2.6,1-3.2c14.6-3.9,28,3.4,27.9,19.7v.8C383.8,71.6,383.8,71.6,386.3,71.9Z"/><path class="a" d="M413,106.2a26.7,26.7,0,0,1,7.7,1c2.7.6,1.2,2.2,1,3.6s-1,1.5-2.4,1.1a21,21,0,0,0-7.9-1.1c-8.5.4-14.1,5.9-15.3,15.1s3.1,15.9,10.4,18.1a23,23,0,0,0,13-.2c.6-.2,1.7-1.3,1.9.3s1.9,3-.3,4.1c-12.6,6.2-28.4-1.6-30.5-15.4-1.4-8.7.4-16.6,7.8-22.4C402.2,107.5,406.8,106.2,413,106.2Z"/><path class="a" d="M281,123.5c3-4.1,6.6-5.7,10.9-5.5s9,3.5,9.7,8.8c1.1,7,.3,14.1.5,21.2,0,.8-.3,1.2-1.2,1.2h-.7c-4.6-.1-3.7.5-3.8-3.6V132.3a16.2,16.2,0,0,0-.1-2.2c-.5-5.1-3-7.6-7.3-7.4s-7.2,3.6-7.3,8.1,0,10.7.1,16c0,1.7-.4,2.3-2.2,2.2-3.5-.1-3.5,0-3.5-3.4,0-8.4.1-16.8,0-25.2,0-1.2.1-2.1,1.5-1.7s3.3-1.1,3.4,1.5C281.1,121.1,281,122,281,123.5Z"/><path class="a" d="M991.8,123.5c3.4-4.5,7.4-6.1,12.2-5.3a9.4,9.4,0,0,1,8.2,8.5c.8,7.1.2,14.2.3,21.2,0,.5.1,1.2-.6,1.2s-3.1.3-4.4-.2-.4-1.9-.5-3V132.4a14.8,14.8,0,0,0-.5-4.7,6.8,6.8,0,0,0-11.7-2.8,8.6,8.6,0,0,0-2.5,6.1c0,5.3-.1,10.5.1,15.7.1,3-1.7,2.1-3.2,2.3s-2.6-.2-2.5-2.4c.1-8.7,0-17.4,0-26.2,0-.9-.2-2.1,1.2-1.7s3.4-1.3,3.7,1.5A26.3,26.3,0,0,1,991.8,123.5Z"/><path class="a" d="M234.4,52.1c0,6.9.1,13.5,0,20.1a16.8,16.8,0,0,0,.8,5.4c1.3,3.9,4.1,6.1,8.1,6.1s7.3-1.8,8.8-5.9a21.8,21.8,0,0,0,1-7.6c0-4.5.1-9-.1-13.5-.1-2.3.6-3.6,2.9-3.9l2.3-.6v3.5c-.3,6.9.6,13.8-.6,20.6s-7,11.9-15.6,11.5c-7.1-.3-11.7-4.9-12.6-12.6s-.1-13.5-.3-20.2a1.3,1.3,0,0,1,1.2-1.6Z"/><path class="a" d="M889.6,123.4a11.8,11.8,0,0,1,10.9-5.4c5.8.4,9.6,4.6,9.9,11.4s0,12.2.1,18.2c0,1.3-.5,1.7-1.6,1.6h-2c-1.6.2-2-.5-2-2,.1-4.9.1-9.8.1-14.7-.1-1.2-.2-2.3-.4-3.5-.7-4.1-2.9-6.2-6.5-6.3a7.6,7.6,0,0,0-7.6,6.2,25.9,25.9,0,0,0-.4,6.2v12c0,1.3-.2,1.9-1.7,1.9-3.8.1-3.8.2-3.8-3.6,0-8.3,0-16.6-.1-25,0-1.1,0-2.1,1.5-1.7s3.5-1.4,3.5,1.6C889.5,121.2,889.5,122.1,889.6,123.4Z"/><path class="a" d="M828.4,125.6c0,5.4.1,10.8-.1,16.2,0,1.8.3,2.6,2.4,2.5,4.6-.2,9.2,0,13.8-.1,2-.1,1.9.9,1.8,2.3s.5,2.6-1.8,2.5h-20c-1.4,0-1.9-.3-1.9-1.8V108.5c0-1.5.4-2,1.8-1.8h1.3c2-.3,2.8.3,2.7,2.6C828.2,114.7,828.4,120.1,828.4,125.6Z"/><path class="a" d="M671.7,143.5c2.8,1.2,5.6,2.3,8.7,1.8s3.8-1.2,4.3-3.5a4.4,4.4,0,0,0-2.5-5c-1.8-.9-3.7-1.6-5.4-2.5-4.2-2.1-6-5-5.4-8.9s3.1-6.3,7.4-7.3a17,17,0,0,1,8.9.7c2.3.7,1.1,2,.8,3.3s-1.2,1.5-2.4.9a9.2,9.2,0,0,0-5.4-.8,4,4,0,0,0-4,3.2,3.9,3.9,0,0,0,2,4.2c1.8,1.2,4,1.7,5.9,2.6s5.4,3.6,5.5,7.3c.3,5.3-2.3,8.6-7.5,9.8a19.6,19.6,0,0,1-9.9-.5c-2.3-.6-2.7-1.7-1.7-3.7A7.7,7.7,0,0,0,671.7,143.5Z"/><path class="a" d="M360.7,149.7a17.2,17.2,0,0,1-7.1-1.3c-2.5-1-.5-2.4-.4-3.6s1.3-1,2.2-.6a14.4,14.4,0,0,0,6.8,1.2c2.3-.3,4-1.3,4.5-3.7s-.7-4-2.7-5-3.1-1.3-4.6-2c-4.5-2-6.6-5.1-6.1-9.3s3.6-6.8,8.2-7.5a15,15,0,0,1,8.6,1.1c2.4,1,.3,2.3.2,3.4s-1,1.2-1.9.7a9.9,9.9,0,0,0-5.6-.9,3.9,3.9,0,0,0-4,3.1c-.6,2,.3,3.4,2,4.3l4.1,1.9c6,2.4,8,5.6,7,10.9s-4.8,7.3-10.5,7.3Z"/><path class="a" d="M751.8,111.3c0,2.5-.8,5.4.2,6.8s4.2.5,6.4.5,1.2,1.4,1.3,2.3.3,2.1-1.4,1.9-3.3.1-5,0-1.6.4-1.6,1.7c.1,5.1,0,10.1.1,15.2s1.4,5.2,5.6,5c.8,0,1.9-.5,1.7,1s1.1,3-1.1,3.4c-6.5,1.3-11.4-.1-11.7-8.1-.2-5.1-.2-10.3-.1-15.4.1-2.1-.2-3.3-2.6-2.8s-2-.6-2-2.1.3-2.2,2-2.1,2.5.9,2.6-1.2-.7-3.5.3-4.3S749.7,111.9,751.8,111.3Z"/><path class="a" d="M480.3,126.7c0,6.8-.1,13.5.1,20.3.1,2.9-1.8,1.8-3.2,2s-2.6.2-2.6-2.1q.1-20.2,0-40.5c0-2.5,1.3-2.1,2.8-2.1s3.1-.5,3,2.2C480.2,113.2,480.3,120,480.3,126.7Z"/><path class="a" d="M466.6,126.6c0,6.8-.1,13.5.1,20.3.1,2.5-1.3,2.1-2.8,2.1s-2.9.4-2.8-2.1q.1-20.2,0-40.5c-.1-2.5,1.3-2.1,2.8-2.1s2.9-.4,2.8,2.1C466.5,113.2,466.6,119.9,466.6,126.6Z"/><path class="a" d="M794.4,126.7c0-6.7.1-13.5-.1-20.2,0-2.1.8-2.4,2.5-2.2s3.2-.8,3.1,2c-.1,13.6-.1,27.2,0,40.7.1,2.7-1.6,1.9-2.9,2s-2.7.3-2.7-2C794.5,140.2,794.4,133.5,794.4,126.7Z"/><path class="a" d="M268.1,134v13.2c.1,1.4-.4,2.2-1.7,1.7s-3.8,1.7-3.8-1.7V120.3c0-1.3.3-1.8,1.6-1.7a6.7,6.7,0,0,0,2,0c1.6-.2,2,.5,1.9,2C268,125,268.1,129.5,268.1,134Z"/><path class="a" d="M731.2,133.8c0-4.4,0-8.9-.1-13.2,0-1.6.4-2.2,1.9-2a8.9,8.9,0,0,0,2.3,0c1.1-.1,1.4.4,1.4,1.4,0,9.2-.1,18.3,0,27.4,0,1.2-.3,1.7-1.5,1.6h-2.3c-1.4.2-1.8-.4-1.8-1.8C731.2,142.7,731.2,138.2,731.2,133.8Z"/><path class="a" d="M342.5,120.7a136.7,136.7,0,0,0,3.4-13.3c.1-1.1.7-1.4,1.6-1.5l4.4-.4a66.5,66.5,0,0,1-5.6,14.3C345.6,121.1,343.9,120.7,342.5,120.7Z"/><path class="a" d="M734,106.7a3.6,3.6,0,0,1,3.6,3.7c-.2,2.1-1.5,3-3.5,3.1a3.3,3.3,0,0,1-3.5-3.4A3.2,3.2,0,0,1,734,106.7Z"/><path class="a" d="M269,110.2a3.3,3.3,0,0,1-3.6,3.3A3.3,3.3,0,0,1,262,110c0-2.1,1.4-3.3,3.5-3.3A3.4,3.4,0,0,1,269,110.2Z"/><path class="a" d="M579.4,39.7a2.8,2.8,0,0,1-2.9,3c-2,0-2.9-1.2-2.9-3a2.9,2.9,0,1,1,5.8,0Z"/><path class="a" d="M551.5,43.8c-.1,1.7-.9,2.9-2.8,3s-2.9-1-2.9-2.9a2.7,2.7,0,0,1,2.9-3C550.4,40.8,551.4,42,551.5,43.8Z"/><path class="a" d="M246.5,44.6c-.2,1.8-.9,3-2.9,3.1s-2.9-1.2-2.9-3a2.7,2.7,0,0,1,3-2.9C245.5,41.8,246.3,42.9,246.5,44.6Z"/><path class="a" d="M825.9,41a2.8,2.8,0,0,1-2.8-3.1c0-1.8,1.1-2.7,2.9-2.8s2.9,1.2,2.8,3.1A2.6,2.6,0,0,1,825.9,41Z"/><path class="a" d="M312.8,37.7c0,2.3-1,3.3-2.9,3.3a2.8,2.8,0,0,1-2.8-3.1,2.8,2.8,0,0,1,2.9-2.8C312,35.1,312.8,36.2,312.8,37.7Z"/><path class="a" d="M628.7,81.9c1.9.1,2.9,1,3,2.8s-.8,3-2.7,3.1a2.7,2.7,0,0,1-3.1-2.8A3,3,0,0,1,628.7,81.9Z"/><path class="a" d="M876.1,35.1a2.6,2.6,0,0,1,3,2.8c0,1.9-.8,3-2.8,3.1s-2.9-.7-2.9-2.6A2.8,2.8,0,0,1,876.1,35.1Z"/><path class="a" d="M441.5,85c-.3,1.7-1.1,2.9-3.1,2.8s-2.7-1.3-2.6-3.1a2.6,2.6,0,0,1,3.1-2.7C440.7,82.1,441.4,83.3,441.5,85Z"/><path class="a" d="M621.2,87.8c-1.9-.1-2.9-1-2.9-2.9s1.1-3,2.9-2.9a2.5,2.5,0,0,1,2.7,2.8C623.9,86.7,623.1,87.8,621.2,87.8Z"/><path class="a" d="M780.3,38a2.7,2.7,0,0,1-2.8,3,2.5,2.5,0,0,1-2.8-2.8,2.7,2.7,0,0,1,2.8-3.1C779.3,35.1,780.2,36.2,780.3,38Z"/><path class="a" d="M871,37.9c0,1.8-.8,3-2.6,3.1a2.8,2.8,0,0,1-3.1-2.9c-.1-1.9,1-2.9,2.9-3A2.6,2.6,0,0,1,871,37.9Z"/><path class="a" d="M430.7,81.9c1.8.2,2.8,1.1,2.8,2.9s-.8,3.1-2.8,3-2.8-1.2-2.8-3.1S429.1,82.1,430.7,81.9Z"/><path class="a" d="M602.9,38c-.1,1.9-1,3-2.9,3a2.7,2.7,0,0,1-2.9-2.7,2.9,2.9,0,0,1,3.1-3.2C602,35.2,602.8,36.2,602.9,38Z"/><path class="a" d="M833.6,41a2.7,2.7,0,0,1-2.6-3,2.8,2.8,0,0,1,3.1-2.9,2.7,2.7,0,0,1,2.7,3A2.9,2.9,0,0,1,833.6,41Z"/><path class="a" d="M377.9,85.4a2.8,2.8,0,0,1-2.9-3,2.6,2.6,0,0,1,2.9-2.9c2,0,2.6,1.3,2.6,3A2.7,2.7,0,0,1,377.9,85.4Z"/><path class="a" d="M832.4,31.5c-.1,1.6-1,2.7-2.6,2.6a2.4,2.4,0,0,1-2.5-2.8,2.4,2.4,0,0,1,2.5-2.5C831.5,28.8,832.3,29.9,832.4,31.5Z"/><path class="a" d="M190.9,14.2c0-8.7-3.7-13-12-14a8.2,8.2,0,0,0-2.7-.2H12.9A15.6,15.6,0,0,0,6.8.9C2.6,2.7.6,6,0,10.3V180.7c.8.3.6,1.1.8,1.7,1.5,4.5,4.8,6.9,9.3,7.8a33.1,33.1,0,0,0,5.5.4H176.9c9.4-.3,13.9-4.9,14-14.2V14.2ZM26.1,15.4c.3-1.6,1-2.3,2.7-1.9a19.8,19.8,0,0,0,3.6.4A17,17,0,0,0,31,22.5c.3,2.2.9,4.2,3.5,4.9s4.1-1,5.4-2.8,2.2-3.9,3.2-5.9c3-6.2,6.1-7.9,12.2-7s8.4,4.6,9.2,10.4a23.3,23.3,0,0,1-1,10.1C63,34,62,34.4,60.3,34.1l-3.6-.4c1.3-2.9,2.6-5.8,2.4-9.1s-2.1-6.1-5-6.4-3.9,1.6-5.1,3.4-2.5,4.9-3.9,7.3c-2.8,4.8-6.3,6.3-11.5,5.3s-7.5-4.7-8.1-9.7A27.8,27.8,0,0,1,26.1,15.4Zm-14,18.8,17.1,5.9c1.8.7.7,2.4.9,3.7s-.1,2.6-2.3,2c-4.6-1.3-9.3-2.4-14-3.4-1.4-.3-1.8-.9-1.7-2.2S12.1,36.4,12.1,34.2ZM9.9,132.4c0-3.1,0-3.1,4.5-3.1s3.1,0,3.1,4.6c0,2.8,0,2.8-4,2.8S9.9,136.7,9.9,132.4Zm54,17c-.1,1.1-1.1,1.5-1.7,2L41,169.8l-2.7,2.4c7.9,0,15.3.1,22.7,0,2.3-.1,2.8.6,2.7,2.7-.2,4.3-.1,4.3-4.5,4.3H14.6c-1.8,0-2.6-.2-2.6-2.4.2-4.7.1-4.7,4.8-4.7H35L20.1,158.3a22.7,22.7,0,0,0-2.8-2.6c-5.1-3.2-6.2-7.9-4.8-13.8l9.5,9c4.3,4.3,8.7,8.5,13.1,12.7,1,1.1,1.7,1.3,2.9.1,8.1-7.7,16.4-15.2,24.6-22.8.3-.3.4-.7,1.3-.6Zm-4.3-13.1H28.3c-1.7,0-2.2-.5-2.2-2.2.1-4.5,0-4.5,4.4-4.5,10.4,0,20.7.1,31.1,0,1.8,0,2.4.4,2.3,2.3C63.8,136.3,63.9,136.3,59.6,136.3Zm-.5-39c-6.7.2-13.5-.4-20.2.4-4.6.6-7.3,2.7-7.9,6.1a9.3,9.3,0,0,0,5.2,10.4,20,20,0,0,0,9.6,2H62.1c1.4,0,1.8.4,1.8,1.8.1,5,.1,5-4.9,5H28.4c-1.9,0-2.6-.5-2.3-2.4.1-.1,0-.3,0-.5,0-3.4,0-3.4,3.4-3.4h2.7c-6.2-4.3-7.7-9.8-6.4-16.2s5.8-9.4,12.6-9.7,16-.1,24-.2c1.3,0,1.5.6,1.5,1.7C64.1,97.3,64.1,97.3,59.1,97.3ZM78.3,81.5c-.5,1.6-1.1,2.3-2.7,1.8s-2.6-.4-4.1-.6a33.3,33.3,0,0,0,2.9-9.1,17.2,17.2,0,0,0-.1-6.4c-.9-4.8-3.8-7.6-8.6-8.5a37.7,37.7,0,0,0-7.5-.3c-.3.5.1.8.4,1,5,4.7,6.2,10.4,4.2,16.7s-7.2,9-13.2,10a23.7,23.7,0,0,1-18.4-3.8,14.8,14.8,0,0,1-.1-24l.3-.5H29.1c-2.5.4-3.3-.5-3.2-3.2s.4-3,2.9-3c11.2.2,22.4.1,33.6.1a19.8,19.8,0,0,1,9,1.7c5.7,2.7,7.6,7.8,8.3,13.6A35.6,35.6,0,0,1,78.3,81.5Z"/><path class="a" d="M524.9,74.3c-2.4-5.4-4.6-10.9-6.9-16.3-1.6-3.8-3.8-7.1-8.6-7.9l11.4-12.6c-6.1-.4-6.1-.4-9.6,3.9l-4.4,5.4-5.4,6.7c7.1.2,9.1,1.1,11.3,5.2a102.7,102.7,0,0,1,5.4,13.5c-9.3,0-18.2-.1-27.1,0-1.5,0-1.9-.5-1.8-1.9,0-4.1.1-8.3-.1-12.5-.3-5.8-3.5-9.1-9-9.9-8.1-1.2-14.3,3.7-15.4,12.3-1.4,10.7,5.4,16.3,12.8,16.2h4.8c1.1,0,1.4.4,1.3,1.5-.1,3.2-1.7,5.3-5.5,6.1-2,.4-1.5,1.4-1.4,2.6s.8,1.9,2.3,1.8a11.2,11.2,0,0,0,9.9-10.1c.3-2,1-2.1,2.6-2.1l32.1-.3C525,76,525.6,75.9,524.9,74.3ZM484.3,64.2v2.5c0,5.3,0,5.3-5.3,5s-8.6-3.1-9-8.8a14.4,14.4,0,0,1,.9-7.1,7.4,7.4,0,0,1,8.1-4.5c3,.5,5.1,3,5.3,6.7.1,2.1,0,4.2,0,6.2Z"/><path class="a" d="M333.3,118.9c-2.8,0-1.4,2.3-2.2,3.3-7.5-7.9-17.8-3.7-21.3,3.6a19.8,19.8,0,0,0-1.6,10.2c.7,5.6,3.1,10.2,8.7,12.1s9.8.8,13.9-3.9v3.2c0,7.1-3.6,10.6-10.7,10.3a14.3,14.3,0,0,1-6.1-1.4c-1.7-1-2.1-.2-2.7,1.3s-.4,2.7,1.4,3.2a44.8,44.8,0,0,0,4.6,1.2c9.7,1,17.6-1.6,18.8-13.3.1-1.3.1-2.6.2-4V122C336.4,118.9,336.4,119,333.3,118.9Zm-2.7,18.3a8.2,8.2,0,0,1-6.2,7c-3.9.8-7.4-.7-9.1-4a14.2,14.2,0,0,1,.1-13.7,8,8,0,0,1,15.1,4v3h.1C330.6,134.7,330.7,136,330.6,137.2Z"/><path class="a" d="M545.6,119.1a13.4,13.4,0,0,0-4,0c-1,.3-.2,1.7-.6,2.5a2.5,2.5,0,0,1-.2.7c-7.4-8.2-19.8-4-22.3,6.4-.3,1.2-.5,2.3-.7,3.5-.9,7.4,3,14.3,9.3,16.1s9.7.3,13.4-4.2a21.3,21.3,0,0,1-.3,6.3,8.4,8.4,0,0,1-8.2,7.3,17.4,17.4,0,0,1-8.4-1.4c-.8-.3-1.9-1.4-2.4.5s-1.8,3,.9,4a24.1,24.1,0,0,0,13,1c5.5-1.1,8.9-4.4,10.1-9.8a30.7,30.7,0,0,0,.6-5.2c.2-8.8-.3-17.5.3-26.2C546.2,120,546.4,119.2,545.6,119.1Zm-5.4,17.6a8.1,8.1,0,0,1-5.9,7.5,8.4,8.4,0,0,1-9.2-3.6c-2.6-4.2-2.3-11.2.7-15.1a7.9,7.9,0,0,1,14.3,4.5c.1,1.1,0,2.2,0,3.2h.1C540.2,134.4,540.3,135.6,540.2,136.7Z"/><path class="a" d="M944.9,145.6v-2.5c0-12.2-.1-24.4.1-36.5,0-2.3-1-2.4-2.7-2.3s-3.1-.4-3,2.2c.2,5.1.1,10.1.1,15.8a12.6,12.6,0,0,0-20.6,2.4,19,19,0,0,0-.6,17.8c4,8.6,14.9,9.8,20.9,2.4.2-.3.3-.3.7-.2a27.1,27.1,0,0,0,.1,2.9c.1.7.1,1.2,1.1,1.4C944.5,149.7,945.2,149.1,944.9,145.6Zm-5.7-7.6a8.5,8.5,0,0,1-6.7,6.9,7.9,7.9,0,0,1-8.8-4.4,14.8,14.8,0,0,1,.4-14.3,7.8,7.8,0,0,1,8.8-3.7,8.2,8.2,0,0,1,6.2,7.8c.1,1.1,0,2.2,0,3.3A16.2,16.2,0,0,1,939.2,138Z"/><path class="a" d="M725,132c-.5-9.6-6.9-15.2-15.7-13.8-3.3.6-5.7,2.5-8.2,5.7v-3.7c0-2.9-2.2-1.2-3.3-1.5s-1.8.2-1.8,1.7c0,12.5.1,25,.1,37.4,0,3.5,0,3.3,3.4,3.5,1.7,0,2.2-.5,2.1-2.2-.1-4.6,0-9.2,0-14.2,7.1,8.2,19.8,4.9,22.6-5.5A20.8,20.8,0,0,0,725,132Zm-6.8,8a8.3,8.3,0,0,1-9.5,5.1,8.8,8.8,0,0,1-6.9-8.4v-2.9a14.8,14.8,0,0,1,.8-5.7,9,9,0,0,1,7.7-5.9c3.5-.1,6.4,1.9,8,5.4A15.3,15.3,0,0,1,718.2,140Z"/><path class="a" d="M448.5,120.4a15.1,15.1,0,0,0-15.5-.8c-5.5,2.7-7.7,7.7-7.9,13.5s1.7,11.9,7.7,15c8.4,4.4,22.2.4,22-14.4C454.8,128.3,453.3,123.4,448.5,120.4Zm-1.6,21.2c-3.8,5.4-10.9,5.1-14.2-.6a12.5,12.5,0,0,1-1.8-6.9,13,13,0,0,1,2-7.8,8.3,8.3,0,0,1,14.4.2A14.6,14.6,0,0,1,446.9,141.6Z"/><path class="a" d="M657.3,118.7c-10.8-3.6-20.8,4.5-20.1,16.1.5,7.6,4.3,12.8,10.5,14.4C658.1,152,666.9,145,667,134,667.1,126.6,663.3,120.7,657.3,118.7Zm.3,24.3a8.1,8.1,0,0,1-12.1-.6c-3.5-4.4-3.6-12.4-.2-16.8a8.2,8.2,0,0,1,13.3,0,14.1,14.1,0,0,1,2.7,7.7C661,137.4,660.2,140.5,657.6,143Z"/><path class="a" d="M971.2,118.7c-6.8-2.2-14,.2-17.6,5.8s-3.3,15.9,1.5,20.9a14.9,14.9,0,0,0,6.6,3.9c10.5,2.6,19-4.4,19.1-15.5C980.9,126.4,977.3,120.7,971.2,118.7Zm1.1,23.6c-3.8,4.5-10,4.2-13.2-.6s-3.1-9.8-.7-14.8a8,8,0,0,1,7.7-4.6c3.5-.1,5.9,1.8,7.5,4.9a19.3,19.3,0,0,1,1.6,6.6C974.9,137,974.3,139.9,972.3,142.3Z"/><path class="a" d="M870.4,119.4c-9.2-4.1-21.7.5-21.6,14.5A17,17,0,0,0,851,143c3,5,8.7,7.5,14.8,6.6a14.3,14.3,0,0,0,12.1-10.7C880.1,130.6,876.9,122.2,870.4,119.4Zm-.3,22.8c-4,5-11.1,4.2-14-1.7a14.3,14.3,0,0,1,.1-13.6,7.9,7.9,0,0,1,7.4-4.6,7.8,7.8,0,0,1,7.5,4.5,13.8,13.8,0,0,1,1.9,6.9A15.3,15.3,0,0,1,870.1,142.2Z"/><path class="a" d="M493.9,135.1c2.8.2,5.7.1,8.5.1h5.5c6.2,0,6.3-.1,5.3-6.2s-3.2-9-8.4-10.5-10.4-.3-14.2,4.1-5.3,15.2-1.3,21.1,14.9,8.3,21.5,4.5c1.7-1,.2-2.3.1-3.5s-1.1-.6-1.7-.4a20,20,0,0,1-5.8,1.2c-5.8.4-10.2-2.9-11.2-8.2C491.9,135.9,491.9,135,493.9,135.1Zm-1.7-5.5a8.5,8.5,0,0,1,10.6-7.4c3.1.8,5.5,4.4,5.4,7.5-.1,1.1-.6,1-1.3,1H493.5C492.7,130.7,492,130.9,492.2,129.6Z"/><path class="a" d="M558.8,135.1h15.5c4.9,0,5-.1,4.4-5s-2.4-9.7-7.8-11.4-10.3-.9-14.3,3.1-6.2,16.3-1.5,22.4,14.1,7.4,20.8,4c2-1,.5-2.3.4-3.5s-1.2-.6-1.8-.4a21.2,21.2,0,0,1-6.1,1.1c-5.9.2-10.1-3.2-10.9-8.8C557.3,135.5,557.6,135.1,558.8,135.1Zm7.4-13.3c4.1.1,7.2,3.1,7.5,7.5.1,1.1-.2,1.5-1.3,1.5H558.9c-.8.1-1.2-.1-1.2-1A9.1,9.1,0,0,1,566.2,121.8Z"/><path class="a" d="M786.7,130.1c-.1-4-.9-7.8-4.5-10.3s-12.6-2.3-16.3.4c-1.6,1.2-.1,2.2.1,3.3s1.1.4,1.6.1a14.3,14.3,0,0,1,8.1-1.4,5.5,5.5,0,0,1,5.1,4.4c.6,2.7.4,3-2.3,3.1s-8.1.9-11.6,3.3a9.5,9.5,0,0,0-3.5,10.9c1.2,3.6,4.4,5.8,8.7,5.8a11.4,11.4,0,0,0,9.2-4.2c.8,3.7.8,3.7,4.2,3.5,1-.1,1.4-.2,1.4-1.4C786.7,141.8,786.8,135.9,786.7,130.1Zm-5.4,6.8c0,5.2-2.7,8.3-7.2,8.3-2.3.1-4.1-.7-5-2.9a5.6,5.6,0,0,1,1.5-6.4c2.8-2.2,6.3-2.5,9.7-2.6.9,0,1,.5,1,1.1Z"/><path class="a" d="M45,79.3a17.4,17.4,0,0,1-8.9-2.1c-3.4-1.8-5.3-4.5-5.3-8.4s2-7.2,5.9-8.7c5.6-2.2,11.2-2.8,16.6.5,7,4.3,7,12.6-.1,16.8A14.6,14.6,0,0,1,45,79.3Z"/><path class="a" d="M1012.9,57.5c-1.2-6.2-5.3-10.4-10.8-10.7s-11.1,3-12.9,9.4a18.5,18.5,0,0,0,2.3,15.6h-2.7c-7,0-14-.2-21,0-12.3.3-14.1-.6-13.7-13.5.2-3.6.1-7.2.1-10.9a19.1,19.1,0,0,1-2.4.7c-2.2.3-3,1.4-2.8,3.7s.1,6.3.1,9.5a18.6,18.6,0,0,1-1,6.6,5.5,5.5,0,0,1-9.2,1.9,8.5,8.5,0,0,1-2.2-6.2V50.3c-5.1,1-5.1,1-5.1,5.8v8a9.7,9.7,0,0,1-.5,3.4,5.5,5.5,0,0,1-9.5,2,6.8,6.8,0,0,1-1.9-5.3V54c0-.5.2-1.1-.3-1.4s-4.8,1.9-4.8,3.1c-.1,3.1,0,6.2-.1,9.3-.3,4.7-2.4,6.5-7.1,6.5h-21c-4.7,0-7.4-2.7-7.4-7.5V47.4l-1.9.5c-2.4.5-3.5,1.6-3.3,4.4a96.9,96.9,0,0,1-.2,13.2c-.3,4.3-2.3,6-6.6,6h-8.1c-6.6,0-8.9-2.3-8.9-9V48.7c0-.5.5-1.4-.8-1.3-2.8.1-4.2,1.5-4.2,4.4v7.5c0,2.6.2,5.2-.6,7.7s-2,3.8-4.4,4.2a5.8,5.8,0,0,1-6.1-3,8.9,8.9,0,0,1-1.1-4.8V50c-5.2,1.3-5.1,1.3-5.2,6.1s.3,6.8-.2,10.2-1.7,4.4-4.3,4.9a5.8,5.8,0,0,1-6.3-3.1,9.7,9.7,0,0,1-1.2-5.5V52.2a13.6,13.6,0,0,1-2.2.7c-2.1.5-3.1,1.6-2.9,4a44.9,44.9,0,0,1-.1,8.2c-.3,4.3-2.3,6.2-6.6,6.2-6,.1-12.1,0-18.2,0l-3.9-.2,4.5-4.5a11.7,11.7,0,0,0-7.6-19.4,11.7,11.7,0,0,0-11.7,6.1,12.4,12.4,0,0,0,1.9,13.8l3.4,4c.2-.1,0,.1-.2.1H734.7c-3.1,0-5.3-1.8-6.5-4.7-2.1-5.4-4.3-10.8-6.5-16.2a5.9,5.9,0,0,0-2.9-3.5c-2.8-1.4-7.7-.5-10.4,1.9s-2.6,5.1-1.3,8.1l.8,2.1c1.6,4.1,3.3,8.1,5,12.4-6.6,0-12.9.1-19.1,0a9.2,9.2,0,0,1-9.2-7.3c-1.5-5.9.7-10.5,5.3-14,1.2-.9.9-1.5.2-2.4s-.7-1.7-2.2-1c-6.1,3.1-9.7,10.8-8.1,17.8s6.9,11.2,14.5,11.3h22.8c2.8,0,2.8,0,1.8-2.6C716.5,67,714,61,711.6,54.8c-.9-2.4-.3-3.7,1.7-4.3s3,.6,3.7,2.2c2.1,5.1,4.3,10.1,6.3,15.2s6,7.8,11.6,7.8c11.2,0,22.4-.1,33.6,0,3.1,0,5.9-1.8,8.7-1.8s5.6,1.8,8.7,1.8c6-.1,12-.2,18,0s8.3-.7,10.4-5.2c6.4,7,11.5,7,17.3,0,5.1,7,11.9,7,17.6-.1,2.3,4.1,6.1,5.4,10.5,5.3,2.9-.1,5.9-.1,8.8,0s7.5-1.2,9.4-5.6c2.9,5,7.3,5.7,12.3,5.6s10.8-.1,16.2,0,9.7.3,12.1-5.4c5.2,7.6,11.6,7.7,17.3.6a10.5,10.5,0,0,0,8.7,5.1c4,.2,6.8-1.8,8.8-5.3,2.4,4.1,5.9,5.4,10.2,5.3h36.6c6,0,10.3-3.1,12.2-8.8A19.9,19.9,0,0,0,1012.9,57.5ZM778.3,68.9a1.5,1.5,0,0,1-1.6.1c-3.7-2.4-6.6-5.1-6.5-9.9s3.3-8.4,7.7-8,7.4,4.5,6.7,9.4S781.5,66.9,778.3,68.9Zm227.7-.2c-2.6,4.5-8,4.7-10.7.2a14.7,14.7,0,0,1-.4-14.5,6.1,6.1,0,0,1,5.9-3.5c2.6,0,4.3,1.5,5.5,3.7a12.7,12.7,0,0,1,1.5,6.7A12.9,12.9,0,0,1,1006,68.7Z"/></svg>