<svg xmlns="http://www.w3.org/2000/svg" viewBox="0 0 799.8 473.5"><defs><style>.a{fill:#8c98a4;}</style></defs><path class="a" d="M189.5,327.4,148.9,303S180,168.5,195.3,156.6,295.7,97.9,307.6,94.5,396,69.8,439.4,74.1s151.3,56.1,161.5,63.8,91,95.2,96.1,109.7,32.4,79.5,32.4,79.5l-.5,11.6-12.3-12.6S574.3,192.9,564.1,182.7s-159.9-59-197.3-59-144,132.7-144,132.7Z"/><path class="a" d="M400.9,0c.4,3.2,2.3,5.8,3.4,8.8s2.7,3.1,5,3.2a19.2,19.2,0,0,1,8.8,1.8c-8.4,4.2-10.6,10.6-6.6,19-1.6-.1-2.2,0-2.5-.2-5.4-4.4-10.8-5-16.5-.5-1.8,1.5-2.7.7-2.5-1.5a3.6,3.6,0,0,1,.2-1.5c2.5-5.5.5-9.5-4.1-12.7-.9-.6-2.2-1.3-2-2.6s1.9-1.6,2.9-1.4c9.5,1.2,10.6-6.2,12.9-12.4Z"/><path class="a" d="M0,325.9l3-.3c6.4-.3,10.4-3.4,11.6-9.8a28.9,28.9,0,0,1,1.7-3.6c3.2,8.5,7.6,14.4,17.9,11.6-7,6-9.8,12.4-5,20.1a3.8,3.8,0,0,1-4.3-.7c-4.8-3.4-9.1-3-13.4.9-.7.6-1.7,2-3,1.3s-.6-2.4-.5-3.6c.4-8.5-.8-10.5-8-13.9Z"/><path class="a" d="M799.8,327.9l-.8.6c-5.6,3.3-8.8,7.8-6.3,14.6a13,13,0,0,1-.1,2.7c-.9-.3-1.7-.2-2.1-.6-4.8-4.6-9.9-6-15.8-1.8-1.3.9-4.1,1.5-2.7-1.4,3.7-7.4.5-12.5-5.2-18,9.2,1.2,15-2.3,17.8-11.5,1.9,8.9,6.2,14,15.2,13.4Z"/><path class="a" d="M719.7,299a314.5,314.5,0,0,0-45.1-87,339.4,339.4,0,0,0-101.9-92.7,325.5,325.5,0,0,0-67.4-30.7,415.9,415.9,0,0,0-42.6-11c-27.6-5.6-55.5-6.1-83.3-4.3a287.8,287.8,0,0,0-68.6,13.1,292.2,292.2,0,0,0-100.6,54.2A298.5,298.5,0,0,0,139.3,227c-12.3,22.3-21.5,45.7-29,69.9-.5,1.5-.7,3.2-1.1,4.8-10.3,4.3-20.3,9.1-29.1,16.1C73.5,323.1,67.4,329,60.9,335c1.5-6.3,2.7-12.6,4.4-18.9q22.2-83.9,81.9-147c43.3-45.6,95.4-76.9,155.8-93.7a341.3,341.3,0,0,1,158.2-6.6c84.9,16.4,154,58.9,207.3,126.7a326.5,326.5,0,0,1,52,96.7,22.7,22.7,0,0,1,.6,2.5C721,296.2,722.6,298.3,719.7,299Z"/><path class="a" d="M450.5,410c.2-6.9,2.8-13.7-1.3-19.8a3.4,3.4,0,0,1,3-.7c3.1.3,7.7-2.7,5.4,5.4s-.6,16.9-.7,25.3c0,1.2.9,2.9-.7,3.6s-2.6-.5-3.6-1.2c-4.2-2.9-6.6-7.5-9.9-11.2s-5.2-6.6-8.3-9.8c.8,6.5-2.8,13.2,1.8,19.2.8,1.1-.3,1.7-1.5,1.8h-4c-3,0-6.9.7-2.7-4.2a4.9,4.9,0,0,0,.4-3.4c-.9-7.9,2.5-16.2-2.1-23.8-.3-.6-.1-1.6.5-1.5,3.2.3,6.7-1.8,9.5,2.1C440.7,398.1,445.8,404,450.5,410Z"/><path class="a" d="M280.1,410.1c-.1-6.8,2.8-13.6-1.7-20.1,3.5-1,6.8-.5,10.8-.3-4.6,5.4-2.7,11.3-3,17s0,11.3,0,17.9c-10.9-4.9-14.4-16-23.1-23.7,1.2,7-1.4,13.4,2.1,19.4.9,1.4.5,2.2-1.1,2.3h-4.5c-2.8,0-6.2.5-2.3-3.8.9-1,.6-2.6.5-3.8-.9-8,2-16.3-1.9-24-.4-.9.3-1.6,1.3-1.6,3.4.2,6.6-.7,9.2,3.2C270.4,398.7,275.5,404.3,280.1,410.1Z"/><path class="a" d="M684.9,401.9c1.3,6.2-1.9,12.8,2.3,18.7.6.8.5,1.8-.6,1.9a60.3,60.3,0,0,1-8.5-.1c-1.4-.2-.6-1.3-.2-2.2,3.4-9,1.6-18.2,1-27.3,0-.8-1.1-1.5-1.8-2.3,5.7-2.3,7.9-1.7,11.3,2.6s8.9,11.1,13.8,16.5c-.4-6.6,2.4-13.4-2-19.6,1.6-1.3,3.3-.5,4.9-.6s7.2-1.5,3.5,4.5c-1.5,2.5-.5,6.5-.5,9.8,0,5.7-.2,11.4,0,17,.2,3.5-1.1,3.6-3.7,2.2a20.5,20.5,0,0,1-5.4-5.2l-12.9-16.3Z"/><path class="a" d="M648.4,389.9c-2.8,7.9-1.8,15.8-1,23.5.3,3.1,3,4.3,6,4.2s5.9-1.2,6.1-4c.5-6.8.2-13.6.1-20.4,0-1.2-1.9-1.5-1.4-3s2.1-.7,3.2-.7c6.3-.2,5.5-.1,5.7,5.5.2,8.6-2.5,17.4,1.6,25.8.9,1.9-.9,1.7-2,1.8-5.1.2-10.3.1-15.4.5-7.1.5-11.3-4.3-11.4-11.6-.1-5.4.2-10.9-.1-16.4s-.5-5.8,6-5.6C646.8,389.5,647.8,389.2,648.4,389.9Z"/><path class="a" d="M699,148.6c1.6.8,2.2.9,2.5,1.3,3.9,5.7,8.9,7.8,15.5,4.8,1.4-.6,4-.6,2.3,1.6-5.3,6.8-3.1,12.7,1.5,18.1-.8,1.3-1.5,1.3-2.1,1.1-6.3-2.2-11.6-1.5-15.1,4.8-.8,1.3-3.1,2.7-3.1.2.2-8.6-4.7-12.4-13.1-14.2C696.7,163.7,700.6,158,699,148.6Z"/><path class="a" d="M578.9,79c-4.1-8.3-9.5-12.7-19.5-9.2,6.9-6.6,8.4-13.4,3.1-21.5,8.2,4.5,14.9,3.7,21.1-3.8-1.8,9,1,15.1,9.8,18.8C584,64.6,579.3,69.5,578.9,79Z"/><path class="a" d="M217.6,45.5a2,2,0,0,1,2.3.9c4.2,4.9,9.1,6.5,15.2,3.1,1.3-.7,3.9-.7,2.5,1.5-4.5,7.1-2.3,12.8,3.3,18.8-8.7-1.9-15.2,0-18,8-1.5,0-1.9-.5-2-1.2-.8-6.7-3.6-11.3-11-12.3-2.7-.4-2.4-1.9-.3-3.1a23.4,23.4,0,0,1,2.7-1.5c4.1-1.4,5.3-4.4,4.9-8.5C217,49.3,216.6,47.3,217.6,45.5Z"/><path class="a" d="M81.1,154.2c4.5-.7,7.9,3,11.7,1.5s4.9-5.2,8.5-6.7c1.6,3.8-.6,8.1,1.8,11.2s6.8,3.2,9.6,6.4a28.4,28.4,0,0,1-3.8,1.6c-5.4,1.1-8.6,4-8.2,9.9.1,1.3-.2,3-1.4,3.5s-2.4-1.1-2.9-2.1c-2.9-5.1-7-6.4-12.5-4.7a14.4,14.4,0,0,1-3.6,0c.4-4.1,5.2-6.4,4.7-10.2S82.5,157.9,81.1,154.2Z"/><path class="a" d="M585.6,397.9c-5.9-3-11.5-5.3-16.7.1-3.1,3.2-3.5,9.9-.7,14,5.5,8.1,12.6,4.9,19.6,2.1-.5,6.8-2.1,8.5-8.1,9.1-12.1,1.2-20.9-6-20.9-17.2-.1-13,13.7-21.8,25.6-16.3C586.2,390.5,586.2,390.5,585.6,397.9Z"/><path class="a" d="M29.4,389.4H46.3c1,0,2.2-.1,2.2,1.2a13.7,13.7,0,0,1-.4,5.4c-.7,1.8-1.9,0-2.8-.3-5.4-1.9-7-1-7.2,3.2s2,3,4.1,3,4.9,2.9,3.6,5.8-1.8.3-2.8.2-4.8-2.2-4.7,1.6-2.7,7.2,3.5,7.3c2.9.1,5.6,0,8.1-1.6.8-.5,1.7-1.4,2.6-.5s0,1.8-.2,2.7c-.7,4-2.8,5.8-7.2,5.3s-8.9-.1-13.4-.1c-2,0-3.7-.3-1.6-2.7s1.1-3.4,1.1-5.2V398.3c-.1-2.8.4-5.7-2.5-7.8Z"/><path class="a" d="M745.6,398.4c-7.1-3.4-12.9-6-18.2-.2-3.1,3.3-3.2,9.3-.7,13.6s5.6,5.5,19.9,2.8c-1.1,6.9-2.5,8.2-9,8.6-8.6.5-15.7-3.2-18.6-9.7s-1.7-15.3,3.7-20.3,13.1-5.5,20.1-3.4C746.9,391,743.5,394.9,745.6,398.4Z"/><path class="a" d="M123.1,414c-1.2,8.6-1.2,8.6-8.7,8.6H102c-1.7,0-2.4-.3-1.9-2.3a56.6,56.6,0,0,0,.1-28.6c-.6-2.2.3-2.2,1.8-2.2,5-.1,10.1-.7,14.9,0s.5,4.8,2.8,7.1c-3.2.1-4.6-1.8-6.7-1.6s-4.6-.6-4.6,3.3,1.2,4.1,4,3.6,4.3.8,4.1,3.9-.4,3.4-3.2,2.1-4.8-2.2-4.6,1.7-2.6,6.9,3.5,7.3C116.1,417.1,119.3,415.6,123.1,414Z"/><path class="a" d="M484.7,453.6c-.3,5.3-.6,10.6-1,15.8-.1,1.6.5,3.7-2.2,3.6s-1.6-2.1-1.5-3.4c.4-7,.9-14,1.4-20.9.1-1.4,0-3.1,2.3-3.1s3,.4,3.6,2.4c1.9,5.9,4,11.6,6.3,18.3,2.3-6.1,4.3-11.5,6.2-16.9.8-2.1,1.2-4.1,4.2-3.9s2,3,2.1,4.6c.6,6.5,1,12.9,1.4,19.4.1,1.5,1,3.5-1.9,3.5s-1.7-1.9-1.8-3.2c-.4-5.6-.7-11.2-1.2-18.1-2.4,6.7-4.4,12.2-6.5,17.7-.5,1.5-.5,3.6-2.9,3.4s-2-1.9-2.4-3.3c-1.9-5.3-3.6-10.6-5.4-15.9Z"/><path class="a" d="M345.6,389.4c2.6,0,5.3-.1,7.9.1s3.7-1.3,4.1.3-.5,4.2-1.3,6.1-1.8.2-2.8-.2c-4.3-1.8-5.5-1-5.6,3.6v14.5c0,1.3.3,2.6.3,3.9s3.5,3.6,1.3,4.4-6.5.4-9.8.2c-.8,0-.7-1-.4-1.6,3.6-7.6,1.2-15.6,1.5-23.4.2-4.4-3.5-1.8-5.6-1.7s-2.5,2-3.5.8.5-3.4.7-5.1,1-2.2,2.7-2.1c3.5.2,7,0,10.5,0Z"/><path class="a" d="M2.3,389.4H19.2c1,0,2.2-.1,2.2,1.2s.3,3.9-.3,5.4-2,0-2.9-.4c-5.5-1.8-7.1-.9-7.2,3.4s1.7,3.2,3.8,2.8,4.3.9,4.1,4-.3,3.5-3.1,2-5.4-.8-4.7,3.4-1.2,6.6,1.5,9.5a1.1,1.1,0,0,1-.8,1.8c-2.9.1-5.7.1-8.5,0-1.1,0-1.5-.8-1-1.7,3.8-7.4.8-15.3,1.7-22.9.3-2.6.5-5.4-2.3-7.3Z"/><path class="a" d="M228.4,412.9c-2.2,9.7-2.2,9.7-9.7,9.7h-12c-2.1,0-3.6-.4-1.4-2.7s1.1-3.5.9-5.2c-.8-8,2.2-16.2-1.8-23.9-.5-1,.7-1.3,1.5-1.3h5c2.9,0,4.7-.8,3,4-2.3,6.8-.7,14.5-.6,21.8,0,1.6,1.5,1.3,2.6,1.5C220.2,417.4,224,416.3,228.4,412.9Z"/><path class="a" d="M518.9,389.9c-3.5,8-1.3,16.4-1.9,24.5-.1,1.8,1,2.2,2.5,2.3,3.6.3,7,.4,10-1.9.7-.5,1.4-1.1,2.2-.5s.2,1.5,0,2.3c-1.1,4.1-2.8,6.9-8.1,6.1s-8.7-.1-13-.1c-1-.1-3-.1-2-1.7,3.2-5.2,1.3-10.7,1.4-16s1.5-9.2-1.3-13.5c-1-1.7.6-1.9,1.8-1.9C513.2,389.6,516.1,389,518.9,389.9Z"/><path class="a" d="M772.3,390.1a12.8,12.8,0,0,1,2.5-.6c2.6,0,5.8-.9,7.8.2s-1.1,3.7-.8,6.2a99.7,99.7,0,0,1,.1,16.4c-.2,3.6,1.2,4.5,4.5,4.6a15.9,15.9,0,0,0,9.9-3.4c.2,7.2-1.5,9.1-7.8,9.1h-13c-1.7,0-3.9-.1-1.5-2.7s1-3.4,1-5.2c.1-5.6,0-11.3.1-16.9C775.1,395.1,775.2,392.4,772.3,390.1Z"/><path class="a" d="M199,465.9c0-6.1-.1-11,0-16,.1-1.5-1.2-4,1.7-4.2s2,2.5,2,4q.2,9.8,0,19.5c0,1.3.9,3.2-1.2,3.8s-3.2-.8-4.3-2.5c-3.5-5.8-7.1-11.5-11.3-18.2v17.5c0,1.4.6,3.2-1.9,3.2s-2-1.6-2-3.1V449c0-1.2-.6-2.9,1.3-3.3a3.4,3.4,0,0,1,4.1,1.8C190.9,453.3,194.6,459,199,465.9Z"/><path class="a" d="M170.8,456.3v6c-.2,7.2-3.3,10.7-9.5,10.8s-10.2-2.4-10.8-10c-.3-5-.1-10-.1-15,0-1.5.2-2.6,2.1-2.6s2.1,1.3,2.1,2.7c0,4.9-.1,9.7,0,14.5s1.2,7.2,5.7,7.4,6.3-3.3,6.5-7.2.1-9.7.1-14.5c0-1.3-.2-2.8,1.9-2.8s2,1.3,2,2.7Z"/><path class="a" d="M364,389.7c1.3-.7,3.2-.2,4.9-.2s5.3-1.5,4.1,4.4c-1.8,8.5-2.3,17.7.7,26.4.4,1.1.7,2.1-.7,2.2a47.1,47.1,0,0,1-8.4,0c-1.8-.2-.8-1.4-.5-2.5C366.3,410.1,365.9,400.2,364,389.7Z"/><path class="a" d="M764.7,390.5c-2.4,2.1-2.5,4.8-2.2,7.4.8,7.7-1.9,15.6,1.7,23,.4,1-.4,1.6-1.3,1.7h-3.5c-3.1,0-5.8,1.6-4.5-4.8,1.6-8.3,2.2-17.5-.8-26-.7-2.1,0-2.3,1.6-2.4h8.4Z"/><path class="a" d="M455,459.3c0-2.2-.2-4.4,0-6.5s-1.4-6.2,1.1-6.8c4.2-.9,8.8-.2,13.3-.1.2,0,.5,1.1.6,1.7s-.8,1.2-1.6,1.2a22.6,22.6,0,0,1-4.5,0c-3.9-.6-5.3.9-4.9,4.8s.6,3.8,3.3,3.4a3.7,3.7,0,0,1,1.5.1c1.8.6,5.2-1.7,5.3,1.6s-3.4,1.8-5.1,1.7c-3.9-.3-5.1.9-5.1,4.9s1.4,4.6,4.9,4.6,6.6-1.9,6.6,1.5-4.3,1.5-6.6,1.5c-8.8.3-8.8.1-8.8-8.6Z"/><path class="a" d="M254.8,459.1c0-1.2-.1-2.3,0-3.5.3-3.3-1.5-8.3.8-9.4s8.1-.5,12.2-.6c1.1,0,2,.4,1.9,1.8s-1,1.4-2,1.4h-4c-4.9.1-6.2,1.9-5,6.7.6,2.7,2.7,1,4,1.5s6-1.8,6,1.8-4.2,1.7-6.2,1.6c-4.3-.4-3.7,2.1-3.9,4.8s.4,5.1,4.2,4.6a40.1,40.1,0,0,1,6,0,1.4,1.4,0,0,1,1.5,1.6c0,.9-.4,1.6-1.5,1.6H256.4c-1.9,0-1.6-1.3-1.6-2.4Z"/><path class="a" d="M609.4,459.4c0-3.5.2-7,0-10.5s.9-3.5,3.4-3.4,6.3.1,9.5.1c1.4,0,2.3.5,2.2,2s-1.4,1.2-2.3,1.2h-4c-2.9-.2-4.7-.1-4.9,4s1.9,4.6,5.1,4.2h.5c1.6.6,4.7-1.3,4.8,1.7s-3.1,1.7-4.7,1.7c-4.9.2-7.4,3.9-5.3,8.2,1.1,2.2,3.3.7,4.9,1.2s6.2-1.5,6.2,1.4-4.2,1.6-6.4,1.7c-9,.3-9,.1-9-9v-4.5Z"/><path class="a" d="M640.6,473.1a10.5,10.5,0,0,1-2.5,0c-1.7-.5-4.7.3-4.2-2.7s2.9-.7,4.3-.5c3.1.3,6.4.8,7.6-2.8s-1.8-5.2-4.6-6.5a23.4,23.4,0,0,1-4.4-2.4,6.8,6.8,0,0,1-1.1-10.1c2.4-2.9,10.2-4,12.5-1.9a1.9,1.9,0,0,1,.4,2.3c-.4.9-1.1.9-2.1.7-3.2-.7-7.2-1.9-8.3,2.6s3.3,4.7,6.1,6,6.7,4.4,5.7,9.2S645.3,473.4,640.6,473.1Z"/><path class="a" d="M234.2,460.5a26.8,26.8,0,0,1,.1-4.9c.5-4.6,0-8-5.9-6.8-1,.2-2.1.1-2.2-1.3s1-1.9,2.2-1.9h16c1.3,0,2.3.4,2.1,2s-1.3,1.4-2.2,1.2c-5.9-1.2-6.3,2.1-6,6.7s0,10,.1,15c0,1.4-.1,2.5-2,2.5s-2.2-1-2.2-2.5c.1-3.3.1-6.6.1-10Z"/><path class="a" d="M589.1,460.7a40.1,40.1,0,0,1,.1-4.9c.4-4.6.1-8.3-6.1-7-1,.2-2.1.1-2.2-1.3s.9-1.9,2.2-1.9H599c1.2,0,2.3.1,2.2,1.8s-1,1.7-2,1.4c-7.3-1.6-6.4,3.3-6.3,7.8s0,9.2,0,13.9c0,1,.4,2.4-1.5,2.5s-2.3-.7-2.2-2.3v-10Z"/><path class="a" d="M217.9,459.8v10.4c0,1.3.3,2.8-1.8,2.9s-2.1-1.1-2.1-2.6V448.2c0-1.5.1-2.7,2.1-2.6s1.8,1.5,1.8,2.8Z"/><path class="a" d="M522.2,459.3v10.9c0,1.3.2,2.7-1.8,2.8s-2.4-1-2.4-2.7q.2-10.9,0-21.9c0-1.6.2-3,2.4-2.8s1.8,1.5,1.8,2.8Z"/><path class="a" d="M193.9,417.1c-.2-.9-.8-1.8-1.1-2.7-2.9-6.9-6.1-13.7-8.4-20.8-1.6-5.1-5.1-4.1-8.6-4.2s-.8,2.9-1.4,4.4c-3.5,8.1-6.6,16.3-10.2,24.3-1.2,2.8-3.3,3.2-6,1a73.9,73.9,0,0,1-8.2-8.6c-1.8-2.2-3-3.5.3-5.6s4.4-5.5,3.2-9.3a8.1,8.1,0,0,0-7.8-5.9c-4.2-.4-8.3-.2-12.5-.2-1.5,0-2.2.1-1.7,2.3,2.3,9.5,2.7,19.1-.2,28.6-.5,1.7,0,2.1,1.5,2.1s5,.1,7.5,0,2-.9,1.2-1.8c-3-3.6-1.1-7.5-1.7-12.6,3.5,4.4,6.1,7.6,8.6,10.9a7.9,7.9,0,0,0,6.3,3.6h15.5c1.7,0,2.9-.1,1.6-2.6s1.1-8.7,3.6-9.1c8.4-1.4,11.1,1.3,10.3,9.9-.1.7-.1,1.5.6,1.5,3.5.1,7.6,1.1,10.2-.3S194.2,419.2,193.9,417.1Zm-52.3-13.4c-3.6.2-.8-3.1-1.9-4.3.8-1.8-1.4-4.9,2.5-4.8s4.6,1.3,4.6,4.1S144.3,403.5,141.6,403.7Zm38.9,1.5c-.4.6-3.1.7-3.6.1-2.2-2.7,1.3-4.5,1.5-6.9C179.7,400.6,182.1,402.6,180.5,405.2Z"/><path class="a" d="M612.6,388.6c-10.6.1-18.6,7.6-18.5,17.4s8.1,17.4,18.6,17.2,17.9-7.8,18-17.4S622.8,388.5,612.6,388.6Zm.1,29c-6.3.1-11.2-5.5-11-12.7s4.7-10.9,10.6-10.8,10.9,5.6,10.8,12.5S618.8,417.6,612.7,417.6Z"/><path class="a" d="M400.9,388.6c-10.5-.2-18.8,7.2-19,16.9s7.4,17.4,17.5,17.7,18.8-7.2,19.1-16.9S411.1,388.8,400.9,388.6Zm-.7,29c-5.9-.1-10.8-5.6-10.9-12.1A10.9,10.9,0,0,1,400,394.1c6.2,0,10.9,5.4,10.9,12.4S406.4,417.8,400.2,417.6Z"/><path class="a" d="M91.3,404.8c-.4-7.5-5-13.1-12.5-14.7-6-1.3-12.1-.4-17.6-.6,1.4,10.5,2.4,20.6-.3,30.5-.5,1.9-.4,2.6,1.4,2.6,5.8-.2,11.7.7,17.3-1.1A16.4,16.4,0,0,0,91.3,404.8Zm-8.7,6.4c-2.2,4.4-6.4,5.5-10.9,5.7-2.1.1-2.5-1-2.5-2.8s0-5.6,0-8.4a13.6,13.6,0,0,1,.1-3.5c.5-2.4-1.9-6,1.6-7a9.6,9.6,0,0,1,10.4,3.3A11.5,11.5,0,0,1,82.6,411.2Z"/><path class="a" d="M498,417.6a44.7,44.7,0,0,0-1.9-4.6c-2.8-6.7-5.6-13.5-8.3-20.3-.7-2-1.5-3.8-4.1-3.3s-5.3-1.9-6,4.3c-1,8.4-6.1,16.3-9.4,24.5-.6,1.4-3.5,1.8-2.3,3.8s3.1.4,4.7.6h3c1.9,0,3.4.1,1.8-2.7s1.5-8.6,3.5-9.1c8-1.8,11.7,1.7,10.5,10.1-.2,1.4.5,1.7,1.6,1.7h4.4c1.5-.4,4.1,1.1,5.2-.7S498.5,419.4,498,417.6ZM484.4,405c-.2.5-3.2.6-3.6.1-1.5-2.5.9-4.4,1.5-7C483.9,400.5,485.5,402.5,484.4,405Z"/><path class="a" d="M327.5,417.8a16.9,16.9,0,0,0-1.2-2.8c-2.9-7-6.2-14-8.4-21.3-1.6-5.3-5.1-4.1-8.6-4.2s-.9,2.9-1.5,4.4c-3.5,7.9-6.7,15.9-9.9,24-.6,1.5-3.4,2.1-2.6,3.8s3.7.6,5.5.9h2c2,0,3.6.5,2-2.9s.2-6.9,3-8.5c5-2.9,12.6,1.3,11.9,6.9s1.9,4.6,6.1,4.3c.7-.2,3.1,1.2,4.1-.4S328,419.4,327.5,417.8Zm-13.9-12.7c-.5.6-3.4.4-3.6-.1-1.1-2.4,1-4.1,2.1-6.3C312.7,400.9,315.6,402.7,313.6,405.1Z"/><path class="a" d="M290.5,445.7c-2.2-.3-4.4,0-6.5-.1s-4.3.9-4,4.1.1,6.6.1,10v4.5c0,9.9,0,9.9,10.2,8.8,7.6-.8,12.2-5.9,12.3-13.8S298.6,446.5,290.5,445.7Zm-2.6,24.4c-3,.2-4.3-.7-4-3.8s0-4.6,0-7h0a12.9,12.9,0,0,1,.1-3.4c.6-2.4-2.1-5.9,1.9-7.1s9.8,1.2,11.6,4.9C301.3,461.3,296.4,469.6,287.9,470.1Z"/><path class="a" d="M428.1,459.4c-2.1-1.5-.4-1.9.3-2.8,3.3-4.2,1.8-8.9-3.3-10.5-2.6-.8-5.3-.6-8-.5s-3.5.9-3.4,3.6c.2,6,.3,12,0,17.9-.2,4.4.3,7.4,5.1,6H422c3.8,0,7-1.3,8.6-4.9S431.3,461.5,428.1,459.4Zm-7.5-10.8c2.8.3,5.7.6,5.4,4.3s-2.8,3.9-5.7,4.2-2.3-2.6-2.6-4S417.2,448.2,420.6,448.6Zm.2,21.6c-3.5.4-3.5-1.9-3.1-4s-2-5.7,2.1-6.1,7.2.7,7.2,5.1S424,469.8,420.8,470.2Z"/><path class="a" d="M373.7,470.5c-.7-2.5-1-5.3-2.3-7.6s-1.9-3.3.5-5.4,2.2-5.8.3-8.7-9.9-4.6-14-3-1.2,3.7-1.4,5.6a71.5,71.5,0,0,0-.1,8v11.5c0,.9-.1,2,1.4,2.1s2.1-.5,2-2,.2-4.3,0-6.5,1.1-3.4,3.5-3.1a5.3,5.3,0,0,1,4.9,4.3l1.5,5.8c.4,1.8,1.9,1.7,3.2,1.4S373.9,471.3,373.7,470.5Zm-10.5-12.2c-4.5.1-2.7-3.1-2.9-3.8-.5-4.1-.5-6.2,3.4-5.9s5.8,1.2,5.9,4.6S366.7,458.1,363.2,458.3Z"/><path class="a" d="M550.5,470.2c-.8-2.6-.7-5.8-2.6-8s-1.1-2.5.4-4.1c4.2-4.6,2-11-4.1-12.2-2.4-.5-4.9-.2-7.4-.3s-3.4,1.2-3.3,3.7c.1,6.6,0,13.3.1,20,0,1.3-1.2,3.7,1.8,3.7s1.5-2.3,1.8-3.7a6.7,6.7,0,0,0,0-2c0-6.2.7-7,4.7-5.7,2,.6,2.9,2.1,3.4,4s1.1,3.8,1.5,5.7,1.9,1.9,3.2,1.7S550.8,471.1,550.5,470.2Zm-10.1-11.9c-4.4.3-3-2.8-3.2-4.7s-.7-5.4,3.5-5,5.8,1.2,5.9,4.7S543.9,458,540.4,458.3Z"/><path class="a" d="M346.6,470.5l-7.9-23.1a2.3,2.3,0,0,0-2.5-1.8c-1.3,0-2.6-.1-3.2,1.7-2.6,7.8-5.3,15.6-8,23.5-.2.7-.7,1.7.4,2.1s2.1.5,2.7-.4a10.5,10.5,0,0,0,1.6-3.6c.7-3.2,2-5.3,5.3-4.4,5.3,0,5.3,0,7,4.7a13.3,13.3,0,0,0,1,2.8c.6,1.4,2,1.2,3,.9S346.8,471.3,346.6,470.5Zm-12.4-8.8c-2.3-.2-2.2-1.1-1.5-2.8s1.8-5.2,2.7-7.9c1.9,1.7,1.9,4,2.6,5.9C339.8,461.5,339.1,462.2,334.2,461.7Z"/><path class="a" d="M403.7,470.3c-2.5-7.5-5.1-14.8-7.5-22.2-.6-1.7-1.3-2.5-3.1-2.5a2.7,2.7,0,0,0-2.9,2.1c-2.7,7.7-5.4,15.4-8,23.1-.4,1.2-.5,2.3,1.1,2.2,3.2.1,3.1-2.4,3.6-4.1s1.7-4.7,5.2-4.5,6.4,0,6.9,4.3a23.1,23.1,0,0,0,1,2.8c.5,1.9,2,1.7,3.2,1.5S403.9,471.1,403.7,470.3ZM392,461.7c-2-.1-2.9-.6-2.1-2.6s1.9-5.3,3.2-9c1,3,1.5,5.1,2.4,7.1C397.5,461.3,395.6,462,392,461.7Z"/><path class="a" d="M580.6,470.1,573,447.9c-.4-1.4-1-2.3-2.6-2.4a3.1,3.1,0,0,0-3.4,2.3l-7.6,22.6c-.3.9-1.1,2,.2,2.5s2.5.5,3.1-.8a20.1,20.1,0,0,0,1.6-4.7c.5-2.1,1.6-2.9,3.8-2.9,4-.1,7.7-.3,8.2,5.2.1,1.1.3,2.8,1.9,3.2s2.8.9,2.9-1.4C580.9,471,580.8,470.5,580.6,470.1Zm-11.8-8.4c-2-.1-2.7-.7-1.9-2.7s1.7-5.2,3-9.1a77.3,77.3,0,0,0,2.5,7.4C574.5,461.6,572.3,461.9,568.8,461.7Z"/><path class="a" d="M720.9,331.3l-.2.2.4.4A1.4,1.4,0,0,0,720.9,331.3Z"/><path class="a" d="M651.1,218.3c-23.3-28.3-50.4-52.1-82.6-70a264.2,264.2,0,0,0-67.2-25.6,246.8,246.8,0,0,0-74.1-6.5,200.9,200.9,0,0,0-64.6,15.1,207.3,207.3,0,0,0-68.2,46.5c-10.9,11-20.2,23.3-28.7,36.2a245.8,245.8,0,0,0-24.9,49.7,274.1,274.1,0,0,0-16.6,73.1h0a14.7,14.7,0,0,0,2.8.8,222.3,222.3,0,0,0,45.4,1.3c18.8-1.4,35.2-7.3,48.3-21.6,15.9-17.3,17.2-37,3-55.7a99.2,99.2,0,0,0-10.8-11.7c-3.3-3.1-6.8-4.7-11.6-4.1s-9.6.4-14.5.3c-8.5-.3-8.4-.4-8.8,8,0,1.2.8,3-.9,3.4s-2.2-1.3-2.9-2.3c-11.8-16.6-8.9-34.5,7-47.2,5.9-4.8,13.7-7.9,16-16.3.2-.7,1.1-1.2,1.7-1.7a23.6,23.6,0,0,0,7.4-8.6c2.2-3.8,5.4-6.3,9.9-6.6a6.6,6.6,0,0,0,3.6-1.6c22.9-15.2,48.2-18.7,74.6-13.3s45.4,22.2,60.9,43.2c19.4,26.5,34.3,55.4,46.7,85.7a122.2,122.2,0,0,0,20,32.5c9.4,11.1,20.6,17.1,35.7,16,19-1.4,37.5-4.1,54-14.2,8.9-5.5,17.9-10.9,27.4-15.2,20.1-9.1,40-9.4,59,3,4.4,2.9,8.3,6.6,12.4,9.9-1.2-5.8-4-10.8-6.4-16.1C689.9,273.8,672.8,244.6,651.1,218.3Z"/><path class="a" d="M720.7,331.5l.2-.2c-2.3-7-4.1-13.1-6.3-19.1-25.8-68.3-68.3-123.6-129.1-164.4a284.6,284.6,0,0,0-96.6-41.7c-1.1-.2-2.2-.7-3.3-1h0a22.9,22.9,0,0,1-2.5-.2,278.6,278.6,0,0,0-78.9-4c-44.9,3.9-85.8,18.3-121.1,46.8-56.1,45.2-82.4,107-96.1,175.6-.5,2.2.1,3.3,2.2,4.2a120.8,120.8,0,0,0,35,9.3h0c-1.6-1.1-1.2-2.6-1-4.1,5.7-47.6,20.8-91.6,49.2-130.8a214.3,214.3,0,0,1,80-67.6c21-10.3,43.3-16.2,66.5-18.6a243.4,243.4,0,0,1,67.1,2.5,268.6,268.6,0,0,1,67.5,21c25.2,11.8,47.8,27.5,68.4,46.3,24.8,22.7,45.1,48.9,62.2,77.7a374.5,374.5,0,0,1,26.3,53.1c.6,1.4,1.9,3,.1,4.5l.4.5C712.3,322.9,716.2,327.1,720.7,331.5Z"/><path class="a" d="M710.4,316.3a374.5,374.5,0,0,0-26.3-53.1c-17.1-28.8-37.4-55-62.2-77.7-20.6-18.8-43.2-34.5-68.4-46.3a268.6,268.6,0,0,0-67.5-21,243.4,243.4,0,0,0-67.1-2.5c-23.2,2.4-45.5,8.3-66.5,18.6a214.3,214.3,0,0,0-80,67.6c-28.4,39.2-43.5,83.2-49.2,130.8-.2,1.5-.6,3,1,4.1a274.1,274.1,0,0,1,16.6-73.1A245.8,245.8,0,0,1,265.7,214c8.5-12.9,17.8-25.2,28.7-36.2a207.3,207.3,0,0,1,68.2-46.5,200.9,200.9,0,0,1,64.6-15.1,246.8,246.8,0,0,1,74.1,6.5,264.2,264.2,0,0,1,67.2,25.6c32.2,17.9,59.3,41.7,82.6,70,21.7,26.3,38.8,55.5,53,86.4,2.4,5.3,5.2,10.3,6.4,16.1C712.3,319.3,711,317.7,710.4,316.3Z"/><path class="a" d="M619.5,164.7c53.9,46.9,91.5,104.4,109.4,174l.9.7c-1-11.8-5.2-22.9-8.1-34.3-.6-2-1.3-4.1-2-6.1a1.8,1.8,0,0,0,.9-1.2c-3.7-12.4-9.1-24-14.6-35.7-14.3-30.8-33.7-58.1-56.5-83a339.7,339.7,0,0,0-51.1-44.7,349.5,349.5,0,0,0-70.6-39c-31.9-13.3-65-21.6-99.5-23.5-31.2-1.7-62.4-.5-93.2,6.5A315,315,0,0,0,280.6,96a292.7,292.7,0,0,0-78.8,50.3,302.6,302.6,0,0,0-56.7,68,333.6,333.6,0,0,0-35.8,81.6c-.6,1.9-1.2,3.9-.1,5.8,13.5-3.9,26.9-4.4,40,1.6,3.4,1.6,3.2-1.3,3.7-3.3,6.1-23.7,14.1-46.7,25.4-68.5,26-50.2,62.9-89.9,112.8-117,44.6-24.2,92.2-35,142.9-30.4,16.2,1.4,32.3,3.7,47.9,8.8,13.9,2.4,26.9,7.5,39.9,12.6A336.6,336.6,0,0,1,619.5,164.7Z"/><path class="a" d="M730.7,334a8.8,8.8,0,0,1-.1,6l3.2,1.9a20.2,20.2,0,0,1-.7-2.3c-3.1-15.2-6.3-30.4-12-44.9-.4,1-.1,2.1-.5,3.1s.3.9.4,1.3C725.3,310.4,727.6,322.3,730.7,334Z"/><path class="a" d="M719.7,299c.7,2,1.4,4.1,2,6.1,2.9,11.4,7.1,22.5,8.1,34.3l.8.6a8.8,8.8,0,0,0,.1-6c-3.1-11.7-5.4-23.6-9.7-34.9-.1-.4-.3-.8-.4-1.3A1.8,1.8,0,0,1,719.7,299Z"/><path class="a" d="M729.9,340.6Z"/><path class="a" d="M721.1,331.9l-.4-.4h-.2l.7.6A.3.3,0,0,0,721.1,331.9Z"/></svg>