<svg xmlns="http://www.w3.org/2000/svg" width="16.756" height="15.515" viewBox="0 0 16.756 15.515"><defs><style>.a{fill:#465def;}</style></defs><path class="a" d="M17.7,3.5H4.051A1.551,1.551,0,0,0,2.5,5.051V7.224h9.309l2.11-2.11a1.862,1.862,0,0,1,3,2.11h2.34V5.051A1.551,1.551,0,0,0,17.7,3.5ZM5.913,5.982a.621.621,0,1,1,.621-.621A.621.621,0,0,1,5.913,5.982Zm2.482,0a.621.621,0,1,1,.621-.621A.621.621,0,0,1,8.4,5.982Zm8.068,1.862L12.678,11.6a.931.931,0,0,1-.658.273H10.7a.931.931,0,0,1-.931-.931V9.631a.931.931,0,0,1,.273-.658l1.129-1.129H2.5v9.619a1.551,1.551,0,0,0,1.551,1.551H17.7a1.551,1.551,0,0,0,1.551-1.551V7.844Zm-11.171,3.1H7.775a.31.31,0,0,1,0,.621H5.293a.31.31,0,0,1,0-.621Zm0,2.482h8.688a.31.31,0,0,1,0,.621H5.293a.31.31,0,0,1,0-.621Zm11.171,3.1H5.293a.31.31,0,0,1,0-.621H16.463a.31.31,0,0,1,0,.621ZM16.1,5.554a1.241,1.241,0,0,1,0,1.756l-3.854,3.854a.3.3,0,0,1-.223.093H10.7a.31.31,0,0,1-.31-.31V9.631a.292.292,0,0,1,.093-.217l3.86-3.86A1.241,1.241,0,0,1,16.1,5.554Z" transform="translate(-2.5 -3.5)"/></svg>