<svg fill="none" height="512" viewBox="0 0 24 24" width="512" xmlns="http://www.w3.org/2000/svg"><path d="m21.4354 2.58198c-.5002-.51338-1.2405-.70464-1.9308-.50332l-16.0966 4.68086c-.7283.20234-1.24451.78317-1.38357 1.52103-.14206.75095.35415 1.70424 1.00241 2.10285l5.03306 3.0934c.51621.3171 1.18248.2376 1.60966-.1933l5.76334-5.7992c.2901-.30199.7703-.30199 1.0605 0 .2901.29193.2901.76505 0 1.06704l-5.7734 5.80026c-.4282.4298-.5082 1.0992-.1931 1.6186l3.0753 5.0836c.3601.6039.9804.9462 1.6606.9462.0801 0 .1701 0 .2502-.0101.7803-.1006 1.4005-.6341 1.6306-1.3891l4.772-16.07601c.2101-.68451.02-1.42942-.4802-1.94281z" fill="rgb(0,0,0)"/></svg>