<svg xmlns="http://www.w3.org/2000/svg" xmlns:xlink="http://www.w3.org/1999/xlink" width="133.689" height="125.5" xmlns:v="https://vecta.io/nano"><g fill="#fff"><use xlink:href="#B"/><use xlink:href="#B" x="13.439" y="3.432"/><path d="M83.59 73.964a2.51 2.51 0 0 1-.33-.014 4.8 4.8 0 0 1-3.74-2.922 12.13 12.13 0 0 1 1.015-11.759c.833-1.504 2.474-2.377 4.187-2.227s3.177 1.295 3.737 2.921a12.13 12.13 0 0 1-1.017 11.759c-.853 1.319-2.284 2.151-3.852 2.242zm-3.955-8.852c-.344 4.021 1.318 7.478 3.726 7.68 1.295.005 2.497-.671 3.167-1.779a10.95 10.95 0 0 0 .9-10.53 3.71 3.71 0 0 0-2.823-2.3c-2.393-.202-4.629 2.894-4.973 6.929zm-10.032 4.485a1.9 1.9 0 0 1-.287-.014 4.27 4.27 0 0 1-3.339-2.676c-1.511-3.481-1.166-7.488.917-10.66.719-1.379 2.198-2.19 3.747-2.054s2.864 1.192 3.332 2.676c1.511 3.481 1.166 7.488-.917 10.66a4.37 4.37 0 0 1-3.453 2.068zm.759-14.247c-1.05.098-1.991.689-2.536 1.591a10.09 10.09 0 0 0-.817 9.46c.29 1.119 1.251 1.935 2.402 2.039s2.243-.527 2.728-1.576a10.09 10.09 0 0 0 .817-9.46 3.2 3.2 0 0 0-2.407-2.039.81.81 0 0 0-.187-.015z"/><path d="M79.475 63.174c-.174.001-.338-.079-.444-.217a4.36 4.36 0 0 0-4.5-1.374.56.56 0 0 1-.717-.376.57.57 0 0 1 .373-.723c2.086-.619 4.34.064 5.732 1.736a.57.57 0 0 1-.086.81.5.5 0 0 1-.358.144zm17.742 7.392a.57.57 0 0 1-.215-.043l-8.211-3.327a.59.59 0 0 1-.315-.752.58.58 0 0 1 .745-.318l8.211 3.327a.58.58 0 0 1-.215 1.114zm-22.7 24.906c-3.65.163-7.2-1.224-9.773-3.818-4.643-4.817-5.316-13.278-5.073-19.512.17-5.331 1.057-10.614 2.637-15.708a.57.57 0 0 1 .745-.333.58.58 0 0 1 .33.752c-1.562 3.978-5.947 25.529 2.192 33.99 3.926 4.079 10.274 4.571 18.843 1.447.295-.092.61.066.713.356a.58.58 0 0 1-.326.728 30.94 30.94 0 0 1-10.288 2.098zm-1.504-17.168a.61.61 0 0 1-.4-.159l-1.949-1.88.287-.405c.043-.058 4.313-6.118 4.528-10.3.004-.209.122-.4.307-.497s.409-.086.583.03.272.317.255.525c-.309 2.546-1.149 4.999-2.465 7.2-.8 1.49-1.591 2.7-1.992 3.3l1.235 1.188a.58.58 0 0 1 .014.824.52.52 0 0 1-.404.174zm21.608-18.327a.6.6 0 0 1-.3-.087c-4.27-2.647-9.7-7.189-11.249-13.813-.598-2.282-.588-4.68.029-6.957a.58.58 0 0 1 .29-.333c.137-.068.296-.078.441-.029.301.106.461.435.358.738a12.77 12.77 0 0 0 .029 6.393c1.175 4.904 4.886 9.415 10.718 13.015.132.08.226.21.261.361s.008.309-.075.439a.64.64 0 0 1-.502.273z"/><path d="M71.48 52.37c-3.447-.041-6.728-1.488-9.082-4.007a.58.58 0 0 1 0-.824c.107-.111.254-.174.408-.174a.57.57 0 0 1 .409.174c3.8 3.775 8.3 4.657 13.384 2.6a22.9 22.9 0 0 0 6.678-4.339.58.58 0 0 1 .817 0c.222.23.222.594 0 .824-2.051 1.939-4.434 3.492-7.036 4.585a14.69 14.69 0 0 1-5.578 1.161zm26.351-11.427a.6.6 0 0 1-.3-.087.57.57 0 0 1-.186-.8 9.52 9.52 0 0 0 1.26-7.273 11.06 11.06 0 0 0-3.8-5.786c-3.883-3.2-10.016-4.368-14.229-.419a.58.58 0 0 1-.817-.029c-.214-.238-.201-.602.029-.824a10.38 10.38 0 0 1 7.967-2.792 13.76 13.76 0 0 1 7.767 3.153 12.24 12.24 0 0 1 4.184 6.408 10.7 10.7 0 0 1-1.4 8.158.51.51 0 0 1-.475.291z"/><path d="M60.575 43.995a.56.56 0 0 1-.516-.333 15.59 15.59 0 0 1-1.361-10.863 12.68 12.68 0 0 1 5.345-7.2 14.99 14.99 0 0 1 9.171-2.459 12.25 12.25 0 0 1 8.568 4.149c.103.114.154.264.144.417s-.083.295-.201.393a.55.55 0 0 1-.8-.058c-1.983-2.246-4.788-3.597-7.781-3.746a13.92 13.92 0 0 0-8.454 2.271 11.54 11.54 0 0 0-4.872 6.552c-.86 3.066-.416 6.451 1.29 10.052.068.137.077.297.026.441s-.159.262-.298.326a.56.56 0 0 1-.261.058z"/><path d="M59.528 64.013a.55.55 0 0 1-.33-.1c-5.359-3.791-5.447-9.793-5.247-12.194.344-3.949 2.121-7.319 4.414-8.4 1.271-.615 2.781-.447 3.886.431a.6.6 0 0 1 .143.81c-.184.256-.538.321-.8.145-.777-.63-1.846-.759-2.751-.333-1.906.9-3.453 3.963-3.754 7.449-.186 2.2-.115 7.695 4.757 11.137a.6.6 0 0 1 .143.81.55.55 0 0 1-.461.245zm24.776 17.834h-.043c-2.621-.255-4.691-2.338-4.929-4.961-.024-.207.065-.41.233-.533s.389-.145.578-.059.317.268.335.475c.014.145.43 3.631 3.883 3.934.303.031.529.294.514.599a.57.57 0 0 1-.571.544z"/><path d="M76.05 85.507c-.273.002-.547-.017-.817-.058-.312-.048-.527-.337-.484-.649a.58.58 0 0 1 .642-.494c1.693.261 3.376-.53 4.256-2a8.17 8.17 0 0 0 1.132-2.531c.044-.203.193-.366.391-.428s.414-.011.565.131a.57.57 0 0 1 .162.556c-.261 1.046-.701 2.04-1.3 2.936a5.39 5.39 0 0 1-4.547 2.536zm19.604-4.513c-.3-.002-.548-.233-.57-.532s.188-.565.484-.611c2.733-.397 5.14-2.008 6.549-4.383 1.071-1.624 1.505-3.587 1.218-5.511a1.92 1.92 0 0 0-1.533-1.5c-1.963-.2-4.256 2.5-5.646 4.9-.106.177-.298.283-.504.28s-.394-.116-.495-.297-.096-.4.01-.576c2.106-3.645 4.643-5.7 6.764-5.467a2.98 2.98 0 0 1 2.493 2.285c.444 1.374.129 4.035-1.333 6.465a10.28 10.28 0 0 1-7.337 4.932c-.032.011-.066.016-.1.015zm.185-3.587a.57.57 0 0 1-.545-.391c-.103-.303.057-.632.358-.738a7.97 7.97 0 0 0 4.428-4.354c.106-.297.433-.453.731-.347a.58.58 0 0 1 .344.738 8.97 8.97 0 0 1-5.13 5.048c-.057.03-.121.045-.186.044zm12.525-14.059a.58.58 0 0 1-.563-.491.58.58 0 0 1 .391-.636 13.11 13.11 0 0 0 7.494-19.6 10.89 10.89 0 0 0-7.81-5.034 11.68 11.68 0 0 0-9.257 2.5c-.111.101-.259.154-.409.146a.56.56 0 0 1-.391-.189c-.211-.236-.192-.598.043-.81a12.84 12.84 0 0 1 10.174-2.777c3.561.469 6.723 2.514 8.612 5.569 2.386 3.795 2.852 8.491 1.258 12.682a14.28 14.28 0 0 1-9.369 8.638c-.058-.007-.116-.006-.173.002z"/><path d="M104.552 78.145c-.289.004-.536-.208-.576-.494s.139-.558.418-.634c9.859-2.777 12.653-6.943 13.255-9.951.518-2.901-.573-5.856-2.852-7.724a.58.58 0 0 1-.086-.81c.094-.118.232-.194.382-.21s.301.028.418.123a9.31 9.31 0 0 1 3.253 8.866c-.673 3.327-3.651 7.912-14.073 10.834z"/><path d="M98.305 90.569c-.034.002-.068-.002-.1-.014a.57.57 0 0 1-.459-.666c.745-4.252 10.059-13.712 10.461-14.117.107-.111.254-.174.409-.174s.302.063.409.174a.58.58 0 0 1 0 .824c-.029.029-2.407 2.444-4.858 5.323-4.012 4.744-5.1 7.058-5.288 8.172a.58.58 0 0 1-.573.478z"/><path d="M87.829 113.163c-1.143.008-2.28-.168-3.367-.521-2.763-.999-4.977-3.115-6.1-5.829l-.129-.26.129-.261c.029-.043 2.35-4.715 1.29-12.078a.57.57 0 0 1 .784-.629.57.57 0 0 1 .348.47 23.2 23.2 0 0 1-1.29 12.5 9.27 9.27 0 0 0 5.3 4.975c3.969 1.331 8.254-.593 9.085-1 2.522-4.411 3.339-11.919 3.582-17.458.258-6.118-.1-11.253-.1-11.311-.023-.209.069-.414.242-.534s.396-.138.585-.044.311.282.32.492c.057.853 1.462 20.843-3.726 29.594l-.086.144-.143.072a15.11 15.11 0 0 1-6.723 1.679z"/><path d="M47.019 106.219a.56.56 0 0 1-.516-.346c-.128-.291-.001-.632.287-.767 11.206-5.106 19.789-6.393 25.005-6.567a26.24 26.24 0 0 1 8.841.868c.301.106.461.435.358.738-.048.145-.153.265-.29.333s-.296.078-.441.028a26.11 26.11 0 0 0-8.512-.8c-5.1.188-13.5 1.461-24.489 6.465a.78.78 0 0 1-.243.048zm73.052 19.281a.57.57 0 0 1-.516-.332 43.44 43.44 0 0 0-14.072-16.88 41.98 41.98 0 0 0-8.641-4.947.58.58 0 0 1-.329-.752.57.57 0 0 1 .745-.333 42.01 42.01 0 0 1 8.884 5.063c6.231 4.451 11.215 10.427 14.473 17.357.128.291.001.632-.287.767a.6.6 0 0 1-.257.057zM24.622 69.365h-.028a.58.58 0 0 1-.544-.607c.33-6.089 1.218-8.1 4.843-14.045.463-.639.704-1.411.688-2.2-.029-.087-.057-.116-.115-.13-.639-.294-1.376-.284-2.006.029-3.138 1.316-6.29 7.579-7.236 10.226a.56.56 0 0 1-.574.376.58.58 0 0 1-.53-.448L15.953 48.16c-1.218-5.8-1.877-9-2.68-9.156-.298-.085-.619.004-.831.231-.645.665-1.548 3.139-.358 12.164.787 5.959 2.078 11.629 2.12 11.861.057.203-.002.422-.154.568s-.372.198-.573.133-.351-.234-.389-.442c-.057-.246-1.347-5.959-2.149-11.976-.975-7.348-.745-11.644.673-13.119.479-.511 1.195-.726 1.877-.564 1.548.318 1.977 2.387 3.582 10.053l2.751 12.627a34.39 34.39 0 0 1 2.249-4.209c1.677-2.647 3.339-4.339 4.93-5 .931-.434 2.006-.434 2.937 0a1.39 1.39 0 0 1 .731.853c.344 1.157-.616 2.821-.817 3.139-3.568 5.829-4.356 7.637-4.686 13.509-.001.143-.058.28-.16.38a.53.53 0 0 1-.383.152z"/><path d="M10.364 68.294c-.516 0-1.175-.289-1.748-1.49-.717-1.5-1.061-4.9-1.218-6.538l-.028-.362a9.7 9.7 0 0 1 .286-4.585c.297-.891.966-1.608 1.834-1.967a3.2 3.2 0 0 1 2.723.376c.271.159.372.501.229.781a.58.58 0 0 1-.773.231 2.2 2.2 0 0 0-1.777-.3c-.549.263-.968.738-1.16 1.316-.379 1.316-.452 2.701-.215 4.05l.028.362c.143 1.446.473 4.831 1.1 6.147.258.55.545.868.76.839.487-.072 1.2-1.331 1.419-2.5.06-.313.362-.517.674-.458s.517.362.458.674c-.23 1.229-1.075 3.254-2.393 3.428a.93.93 0 0 0-.199-.005z"/><path d="M7.211 68.891c-1.146 0-2.134-1.331-2.966-3.949-.086-.275-2.078-6.668.272-9.546a4.17 4.17 0 0 1 3.984-1.287c.317.043.54.333.5.65s-.327.543-.644.507a3.02 3.02 0 0 0-2.952.882c-1.619 1.982-.6 6.769-.057 8.447.788 2.488 1.548 3.139 1.877 3.139.215 0 .688-.376 1.1-1.765a.58.58 0 0 1 .717-.39.59.59 0 0 1 .386.723c-.654 2.123-1.557 2.572-2.217 2.589z"/><path d="M20.05 118.992a.58.58 0 0 1-.43-.2c-7.194-8.375-11.808-21-14.415-30.129C3.099 81.612 1.641 74.384.849 67.068a17.88 17.88 0 0 0-.415-2.849c-.387-1.895-.774-3.862.072-5.771a4.54 4.54 0 0 1 3.481-2.242h.072a.57.57 0 0 1 .545.593c-.014.313-.275.557-.588.55h-.042a3.54 3.54 0 0 0-2.436 1.548c-.7 1.562-.358 3.269 0 5.077a19.24 19.24 0 0 1 .445 3.023c.086 2.43 1.49 11.47 4.313 21.32 2.579 9.011 7.122 21.465 14.186 29.681.207.24.181.602-.057.81a.45.45 0 0 1-.375.184zm12.196-24.749c-.206-.001-.396-.111-.5-.289-3.6-6.278-7.867-19.136-7.71-25.182a.57.57 0 0 1 .299-.489c.18-.098.398-.092.573.014a.57.57 0 0 1 .274.503c-.143 5.4 3.669 17.791 7.552 24.56a.58.58 0 0 1-.215.8c-.079.057-.175.085-.273.082z"/><path d="M3.887 69.61a1.7 1.7 0 0 1-.831-.217c-.913-.639-1.568-1.583-1.849-2.661l-.244-.9a34.27 34.27 0 0 1-.946-3.992c-.024-.207.065-.41.233-.533s.389-.145.578-.059.317.268.335.475a30.21 30.21 0 0 0 .9 3.79l.243.926a3.56 3.56 0 0 0 1.261 1.909.59.59 0 0 0 .559.029c.287-.116.53-1.765.273-2.936-.057-.203.002-.422.154-.568s.372-.198.573-.133.351.234.389.442c.129.55.459 3.7-.974 4.267-.202.107-.427.162-.655.161zm8.488 8.2a.58.58 0 0 1-.574-.579 10.7 10.7 0 0 1 5.044-8.794.57.57 0 0 1 .788.217.58.58 0 0 1-.215.8c-.043.029-4.471 2.69-4.471 7.8-.01.309-.263.555-.572.556z"/></g><path d="M121.561 13.114c.931-2.184 1.376-3.717.7-4.079-1.158-.622-3.466 1.967-.7 4.079zm3.2 1.345c2.278.26 3.668-1.244 2.88-3.211-.463-1.099-1.652.738-2.889 3.211zm7.752-9.4c1.476 3.544 1.29 11.513-9.486 17.849 0 0-5.187-1.62-5.961-2.821-1.237-4.008-1.853-13.381 3.893-18.067 4.371-3.573 10.275 0 11.55 3.037z" fill="#ffc403"/><g fill="#fff"><path d="M127.623 11.248c.8 1.953-.6 3.457-2.88 3.211 1.246-2.473 2.436-4.31 2.88-3.211zm-5.359-2.213c.673.362.229 1.895-.7 4.079-2.764-2.112-.464-4.701.7-4.079z"/><path d="M121.389 22.747a.83.83 0 0 1-.186-.029.54.54 0 0 1-.3-.694c.014-.043 1.734-4.513 3.382-7.811a.52.52 0 0 1 .716-.231.53.53 0 0 1 .229.723c-1.619 3.254-3.324 7.666-3.339 7.709a.55.55 0 0 1-.502.333z"/><path d="M125.258 15.027c-.186 0-.373-.014-.559-.029l-.755-.09.344-.68c1.6-3.211 2.364-3.847 3.024-3.819a.92.92 0 0 1 .817.651 2.84 2.84 0 0 1-.229 2.806 3.23 3.23 0 0 1-2.642 1.161zm1.92-3.471c-.636.708-1.163 1.507-1.561 2.371a2.01 2.01 0 0 0 1.419-.709 1.72 1.72 0 0 0 .143-1.666z"/><path d="M124.757 14.994h-.057c-.694-.091-1.37-.286-2.006-.579-.512-.233-.999-.519-1.451-.853a.55.55 0 0 1-.1-.752.54.54 0 0 1 .745-.1 7.14 7.14 0 0 0 1.247.738c.53.251 1.096.417 1.677.492.294.033.506.299.473.593a.55.55 0 0 1-.528.461z"/><path d="M121.776 13.954l-.545-.405c-1.82-1.4-1.734-3.052-1.1-4.05a1.89 1.89 0 0 1 2.364-.926c1.189.636.416 2.7-.459 4.759zm.1-4.469c-.357.058-.669.277-.845.593a1.68 1.68 0 0 0 .33 2.141c.9-2.256.7-2.647.645-2.7a.34.34 0 0 0-.129-.03z"/><path d="M118.18 20.997a.57.57 0 0 1-.215-.043.52.52 0 0 1-.258-.709q.838-1.866 1.677-3.6l1.705-3.732a.53.53 0 0 1 .7-.275.54.54 0 0 1 .272.709l-1.734 3.761-1.662 3.587c-.094.182-.28.298-.485.302z"/><path d="M123.08 23.495l-.215-.072c-.9-.275-5.4-1.736-6.248-3.037l-.043-.058-.029-.072c-.817-2.926-1.051-5.984-.688-9 .5-4.18 2.149-7.507 4.757-9.647a7.15 7.15 0 0 1 6.478-1.353 9.11 9.11 0 0 1 5.9 4.6 11.62 11.62 0 0 1-.143 8.273c-1.476 3.934-4.686 7.377-9.572 10.255zm-5.546-3.64c.559.694 3.4 1.837 5.417 2.473 4.542-2.719 7.552-5.945 8.913-9.59.986-2.385 1.043-5.053.158-7.478-.8-1.938-3.267-3.5-5.187-3.978-1.927-.546-3.999-.113-5.546 1.158-3.024 2.473-4.056 6.234-4.386 8.955a22.06 22.06 0 0 0 .631 8.46z"/><path d="M120.343 27.622a.72.72 0 0 1-.172-.029c-3.883-1.374-4.127-1.808-4.213-1.953-.1-.174-.33-.579.573-5.626a.531.531 0 1 1 1.046.188 43.84 43.84 0 0 0-.659 4.889 25.89 25.89 0 0 0 3.224 1.345l2.436-3.8a.53.53 0 0 1 .731-.159.54.54 0 0 1 .158.738l-2.665 4.161a.55.55 0 0 1-.459.246zM6.787 38.636a.59.59 0 0 0 .209-.19.54.54 0 0 0-.183-.735 12.46 12.46 0 0 0-5.452-1.584.53.53 0 0 0-.535.512.53.53 0 0 0 .498.549 11.72 11.72 0 0 1 4.936 1.428c.161.097.36.104.527.02zm1.203-2.721a.52.52 0 0 0 .156-.829l-2.623-2.888c-.094-.104-.225-.166-.364-.173a.53.53 0 0 0-.38.136c-.215.198-.231.533-.035.75l2.621 2.888a.52.52 0 0 0 .625.116z"/></g><defs ><path id="B" d="M70.235 63.358a1.49 1.49 0 0 0 1.073-2.539 1.49 1.49 0 0 0-2.549 1.049c-.002.393.153.771.429 1.051s.653.437 1.047.439z"/></defs></svg>