<svg xmlns="http://www.w3.org/2000/svg" width="13.241" height="13.241" viewBox="0 0 13.241 13.241">
  <path id="calendar-minus" d="M10.483,1.1H9.931V.552a.552.552,0,1,0-1.1,0V1.1H4.414V.552a.552.552,0,0,0-1.1,0V1.1H2.759A2.762,2.762,0,0,0,0,3.862v6.621a2.762,2.762,0,0,0,2.759,2.759h7.724a2.762,2.762,0,0,0,2.759-2.759V3.862A2.762,2.762,0,0,0,10.483,1.1Zm-7.724,1.1h7.724a1.657,1.657,0,0,1,1.655,1.655v.552H1.1V3.862A1.657,1.657,0,0,1,2.759,2.207Zm7.724,9.931H2.759A1.657,1.657,0,0,1,1.1,10.483V5.517H12.138v4.966A1.657,1.657,0,0,1,10.483,12.138ZM8.828,8.828a.552.552,0,0,1-.552.552H4.966a.552.552,0,0,1,0-1.1h3.31A.552.552,0,0,1,8.828,8.828Z" fill="#677a9d"/>
</svg>
