<svg xmlns="http://www.w3.org/2000/svg" width="53" height="52" viewBox="0 0 53 52">
  <g id="Group_80922" data-name="Group 80922" transform="translate(-586.748 -6155)">
    <ellipse id="Ellipse_57" data-name="Ellipse 57" cx="26.5" cy="26" rx="26.5" ry="26" transform="translate(586.748 6155)" fill="#fe3da6"/>
    <g id="costumer_support" transform="translate(601.347 6169.099)">
      <path id="Path_259235" data-name="Path 259235" d="M22.8,10.084v3.634a1.819,1.819,0,0,1-1.817,1.817h-.495A8.727,8.727,0,0,1,11.9,22.8a.727.727,0,1,1,0-1.454,7.276,7.276,0,0,0,7.268-7.268V9.721a7.268,7.268,0,1,0-14.535,0v5.087a.726.726,0,0,1-.727.727H2.817A1.819,1.819,0,0,1,1,13.718V10.084A1.819,1.819,0,0,1,2.817,8.268h.495a8.71,8.71,0,0,1,17.18,0h.495A1.819,1.819,0,0,1,22.8,10.084ZM11.9,3.907A5.821,5.821,0,0,0,6.087,9.721v3.634a5.814,5.814,0,1,0,11.628,0V9.721A5.821,5.821,0,0,0,11.9,3.907Z" fill="#fff"/>
    </g>
  </g>
</svg>
