<svg xmlns="http://www.w3.org/2000/svg" xmlns:xlink="http://www.w3.org/1999/xlink" width="261" height="190" viewBox="0 0 261 190">
  <defs>
    <linearGradient id="linear-gradient" x1="0.119" y1="0.881" x2="0.83" y2="0.17" gradientUnits="objectBoundingBox">
      <stop offset="0" stop-color="#fee411"/>
      <stop offset="0.052" stop-color="#fedb16"/>
      <stop offset="0.138" stop-color="#fec125"/>
      <stop offset="0.248" stop-color="#fe983d"/>
      <stop offset="0.376" stop-color="#fe5f5e"/>
      <stop offset="0.5" stop-color="#fe2181"/>
      <stop offset="1" stop-color="#9000dc"/>
    </linearGradient>
    <filter id="Rectangle_44088" x="0" y="100" width="154" height="88" filterUnits="userSpaceOnUse">
      <feOffset dy="3" input="SourceAlpha"/>
      <feGaussianBlur stdDeviation="3" result="blur"/>
      <feFlood flood-color="#6e97f9" flood-opacity="0.161"/>
      <feComposite operator="in" in2="blur"/>
      <feComposite in="SourceGraphic"/>
    </filter>
    <clipPath id="clip-path">
      <circle id="Ellipse_6662" data-name="Ellipse 6662" cx="20.5" cy="20.5" r="20.5" fill="#b02cff"/>
    </clipPath>
    <filter id="Rectangle_44088-2" x="9" y="4" width="249" height="166" filterUnits="userSpaceOnUse">
      <feOffset dy="10" input="SourceAlpha"/>
      <feGaussianBlur stdDeviation="15" result="blur-2"/>
      <feFlood flood-color="#6e98f9" flood-opacity="0.161"/>
      <feComposite operator="in" in2="blur-2"/>
      <feComposite in="SourceGraphic"/>
    </filter>
    <clipPath id="clip-path-2">
      <circle id="Ellipse_6660" data-name="Ellipse 6660" cx="24.5" cy="24.5" r="24.5" transform="translate(11821 10621)" fill="#fc3c63"/>
    </clipPath>
    <linearGradient id="linear-gradient-2" x1="0.686" y1="0.19" x2="0.291" y2="0.936" gradientUnits="objectBoundingBox">
      <stop offset="0" stop-color="#f7d475"/>
      <stop offset="1" stop-color="#fdc435"/>
    </linearGradient>
    <linearGradient id="linear-gradient-3" x1="0.686" y1="0.19" x2="0.291" y2="0.936" gradientUnits="objectBoundingBox">
      <stop offset="0" stop-color="#ffa68d"/>
      <stop offset="1" stop-color="#ff8780"/>
    </linearGradient>
    <linearGradient id="linear-gradient-4" x1="0.686" y1="0.19" x2="0.291" y2="0.936" gradientUnits="objectBoundingBox">
      <stop offset="0" stop-color="#6fd0be"/>
      <stop offset="1" stop-color="#32c491"/>
    </linearGradient>
    <linearGradient id="linear-gradient-5" y1="0.423" x2="1" y2="0.601" gradientUnits="objectBoundingBox">
      <stop offset="0" stop-color="#5db5f6"/>
      <stop offset="1" stop-color="#1677da"/>
    </linearGradient>
  </defs>
  <g id="Group_81410" data-name="Group 81410" transform="translate(-219 -11368)">
    <g id="instagram_2_" data-name="instagram (2)" transform="translate(321.5 11336.434)">
      <circle id="Ellipse_6769" data-name="Ellipse 6769" cx="22.5" cy="22.5" r="22.5" transform="translate(31.5 31.566)" fill="url(#linear-gradient)"/>
      <g id="Group_81408" data-name="Group 81408" transform="translate(41.138 41.117)">
        <path id="Path_260199" data-name="Path 260199" d="M148.592,131h-9.673a7.824,7.824,0,0,0-7.819,7.819v9.673a7.824,7.824,0,0,0,7.819,7.819h9.673a7.824,7.824,0,0,0,7.819-7.819v-9.673A7.824,7.824,0,0,0,148.592,131Zm4.993,17.5a5.008,5.008,0,0,1-5,5h-9.673a5.008,5.008,0,0,1-5-5v-9.673a5.008,5.008,0,0,1,5-5h9.673a5.008,5.008,0,0,1,5,5Z" transform="translate(-131.1 -131)" fill="#fff"/>
        <path id="Path_260200" data-name="Path 260200" d="M198.572,192.1a6.472,6.472,0,1,0,6.472,6.472A6.484,6.484,0,0,0,198.572,192.1Zm0,10.4a3.93,3.93,0,1,1,3.93-3.93A3.933,3.933,0,0,1,198.572,202.5Z" transform="translate(-185.922 -185.912)" fill="#fff"/>
        <circle id="Ellipse_6770" data-name="Ellipse 6770" cx="1.094" cy="1.094" r="1.094" transform="matrix(0.987, -0.16, 0.16, 0.987, 18.186, 4.914)" fill="#fff"/>
      </g>
    </g>
    <g id="Layer_2" data-name="Layer 2" transform="translate(245.605 11379.281)">
      <g id="_10.internet" data-name="10.internet" transform="translate(0.27 -0.406)">
        <circle id="background" cx="21" cy="21" r="21" transform="translate(0.125 0.125)" fill="#018bb0"/>
        <path id="Path_260201" data-name="Path 260201" d="M127.427,116a11.427,11.427,0,1,0,11.427,11.427A11.44,11.44,0,0,0,127.427,116Zm8.946,10.226h-4.311a21.836,21.836,0,0,0-1.347-7.206A9.053,9.053,0,0,1,136.373,126.226Zm-8.946,10.226c-.122-.011-.742-.452-1.341-2.278a21.084,21.084,0,0,1-.891-5.55h4.463a21.008,21.008,0,0,1-.891,5.55C128.169,136,127.548,136.441,127.427,136.453ZM125.2,126.226a21.13,21.13,0,0,1,.891-5.55c.6-1.824,1.219-2.267,1.339-2.278.122.011.742.454,1.341,2.279a21.115,21.115,0,0,1,.891,5.546Zm-1.056-7.206a21.835,21.835,0,0,0-1.347,7.206h-4.311a9.053,9.053,0,0,1,5.658-7.206Zm-5.658,9.608h4.311a21.835,21.835,0,0,0,1.347,7.206A9.053,9.053,0,0,1,118.481,128.628Zm12.233,7.206a21.836,21.836,0,0,0,1.347-7.206h4.311a9.053,9.053,0,0,1-5.658,7.206Z" transform="translate(-105.875 -105.876)" fill="#fff"/>
      </g>
    </g>
    <text transform="translate(436 11472)" fill="#fff" font-size="28" font-family="Inter-SemiBold, Inter" font-weight="600"><tspan x="0" y="0"></tspan></text>
    <g id="Group_81393" data-name="Group 81393" transform="translate(19122 -6116)">
      <g transform="matrix(1, 0, 0, 1, -18903, 17484)" filter="url(#Rectangle_44088)">
        <rect id="Rectangle_44088-3" data-name="Rectangle 44088" width="136" height="70" rx="16" transform="translate(9 106)" fill="#fff"/>
      </g>
      <g id="Group_81392" data-name="Group 81392">
        <g id="Ellipse_6763" data-name="Ellipse 6763" transform="translate(-18886 17602)" fill="none" stroke="#dfe0e4" stroke-width="1">
          <circle cx="23.5" cy="23.5" r="23.5" stroke="none"/>
          <circle cx="23.5" cy="23.5" r="23" fill="none"/>
        </g>
        <g id="Group_81379" data-name="Group 81379" transform="translate(-30815 6983.822)">
          <g id="Group_80015" data-name="Group 80015" transform="translate(11932 10621.178)">
            <circle id="Ellipse_6661" data-name="Ellipse 6661" cx="20.5" cy="20.5" r="20.5" fill="#6e98f9"/>
            <g id="Mask_Group_47" data-name="Mask Group 47" transform="translate(0 0)" clip-path="url(#clip-path)">
              <g id="_2672333" data-name="2672333" transform="matrix(0.999, -0.035, 0.035, 0.999, -5.893, 5.874)">
                <path id="Path_52357" data-name="Path 52357" d="M.067,9.229c.017,1.092.038,2.228.061,3.378H10.66c.02-1.257.035-2.462.046-3.595.032-3.065.035-5.588.032-7.158V.116L0,0V2.448C.009,4.136.026,6.552.067,9.229Z" transform="translate(27 67.895)" fill="#18315b"/>
                <path id="Path_52358" data-name="Path 52358" d="M0,.591c0,1.686.023,4.1.064,6.784A52.812,52.812,0,0,0,10.7,7.158c.032-3.065.035-5.588.032-7.158Z" transform="translate(27.003 69.755)" fill="#000b29"/>
                <path id="Path_52359" data-name="Path 52359" d="M.014,6.816c0,1.718.032,3.685.067,5.793H10.613c.026-1.24.046-2.462.064-3.632.038-2.509.055-4.771.067-6.393s0-2.584,0-2.584L0,.116V3.172C0,4.191.006,5.42.014,6.816Z" transform="translate(13.779 67.892)" fill="#18315b"/>
                <path id="Path_52360" data-name="Path 52360" d="M0,.588V4.226A65.792,65.792,0,0,0,10.663,6.393c.038-2.509.055-4.771.067-6.393Z" transform="translate(13.779 70.482)" fill="#000b29"/>
                <path id="Path_52361" data-name="Path 52361" d="M13.478,11.078S15.17,9.447,15.164,7.84,14.063,6.7,13.478,5.2a3.548,3.548,0,0,0-3.291-2.23c-.959.182-2.975-3.548-5.715-2.9S1.97,4.248.791,4.76-.061,7.367.562,7.834s.869,2.387,1.234,2.343S13.478,11.078,13.478,11.078Z" transform="translate(17.96 0.314)" fill="#18315b"/>
                <path id="Path_52362" data-name="Path 52362" d="M2.11.711S1.047-.709.256.464.584,5.1,2.519,4.256Z" transform="translate(17.923 10.659)" fill="#f97853"/>
                <path id="Path_52363" data-name="Path 52363" d="M1.7,1.953a.165.165,0,0,1-.156-.122A2.5,2.5,0,0,0,.124.325.165.165,0,1,1,.24.018,2.821,2.821,0,0,1,1.859,1.756a.162.162,0,0,1-.113.2A.13.13,0,0,1,1.7,1.953Z" transform="translate(18.333 11.879)" fill="#ea5143"/>
                <path id="Path_52364" data-name="Path 52364" d="M.163.764A.159.159,0,0,1,.076.738.165.165,0,0,1,.027.509a1.512,1.512,0,0,1,.614-.5A.162.162,0,0,1,.855.1.165.165,0,0,1,.774.315,1.159,1.159,0,0,0,.3.689.171.171,0,0,1,.163.764Z" transform="translate(18.75 12.529)" fill="#ea5143"/>
                <path id="Path_52365" data-name="Path 52365" d="M.408.711S1.472-.709,2.262.464,1.935,5.1,0,4.256Z" transform="translate(30.603 10.659)" fill="#f97853"/>
                <path id="Path_52366" data-name="Path 52366" d="M.165,1.94a.165.165,0,0,0,.156-.122A2.5,2.5,0,0,1,1.741.312.165.165,0,0,0,1.625.005,2.821,2.821,0,0,0,.006,1.743a.162.162,0,0,0,.113.2A.13.13,0,0,0,.165,1.94Z" transform="translate(30.876 11.891)" fill="#ea5143"/>
                <path id="Path_52367" data-name="Path 52367" d="M.707.764A.159.159,0,0,0,.794.738.165.165,0,0,0,.843.509a1.512,1.512,0,0,0-.614-.5A.162.162,0,0,0,.014.1.165.165,0,0,0,.1.315,1.159,1.159,0,0,1,.568.689.171.171,0,0,0,.707.764Z" transform="translate(31.438 12.529)" fill="#ea5143"/>
                <path id="Path_52368" data-name="Path 52368" d="M5.04,0V3.444S4.012,5.2,2.624,5.321,0,3.809,0,3.809V.243Z" transform="translate(23.104 17.841)" fill="#ffa681"/>
                <path id="Path_52369" data-name="Path 52369" d="M5.04,0V1.529C4.107,2.564,2.453,2.821,0,2.459V.243Z" transform="translate(23.104 17.841)" fill="#f97853"/>
                <path id="Path_52370" data-name="Path 52370" d="M12.371,4.334a33.562,33.562,0,0,1-.446,4.345c-.064.336-.136.649-.214.93-.727,2.54-2.54,6.894-7.618,5.081C1.85,13.891.81,11.391.347,8.85A24.4,24.4,0,0,1,.008,4.137,3.589,3.589,0,0,1,1.833,1.076,9.58,9.58,0,0,1,10.077.809a3.583,3.583,0,0,1,2.294,3.525Z" transform="translate(19.409 4.657)" fill="#ffa681"/>
                <path id="Path_52371" data-name="Path 52371" d="M0,.22A26.456,26.456,0,0,0,.959,4.226C1.425,5.3,2.7,5.5,3.175,6.4,3.855,7.694,4.892,8.719,6.6,8.09c1.419-.516,1.356-1.243,2.152-1.8a4.353,4.353,0,0,0,2.094-2.9,30.694,30.694,0,0,1,.739-3.34L10.857,0A18.906,18.906,0,0,1,9.826,1.813C9.209.461,6.242,1.445,6.242,1.445l-.565.182L5.1,1.445S2.1.5,1.5,1.92A5.4,5.4,0,0,1,.71.081ZM5.669,2.086c3.4-.579,2.792,1.408,2.772,1.48h0a3.421,3.421,0,0,1-.7.53c-1.318.713-1.448.6-1.981.626a3.887,3.887,0,0,1-2-.545,5.631,5.631,0,0,1-.953-.724S2.283,1.628,5.68,2.086Z" transform="translate(19.744 13.293)" fill="#18315b"/>
                <path id="Path_52372" data-name="Path 52372" d="M.849.666c0,.368-.191.666-.426.666S0,1.043,0,.666.191,0,.423,0,.849.3.849.666Z" transform="translate(22.53 11.138)" fill="#18315b"/>
                <path id="Path_52373" data-name="Path 52373" d="M.846.666c0,.368-.188.666-.423.666S0,1.043,0,.666.191,0,.423,0,.846.3.846.666Z" transform="translate(27.565 11.138)" fill="#18315b"/>
                <path id="Path_52374" data-name="Path 52374" d="M3.1.343A4.692,4.692,0,0,0,0,.233l.133.75a8.648,8.648,0,0,1,2.975.235A1.315,1.315,0,0,0,3.1.343Z" transform="translate(26.56 9.268)" fill="#18315b"/>
                <path id="Path_52375" data-name="Path 52375" d="M.083.344A4.75,4.75,0,0,1,3.2.234L3.067.99a8.638,8.638,0,0,0-3,.238A1.3,1.3,0,0,1,.083.344Z" transform="translate(21.254 9.27)" fill="#18315b"/>
                <path id="Path_52376" data-name="Path 52376" d="M.609,3.2a1.738,1.738,0,0,0,.579-.125.165.165,0,1,0-.125-.3.968.968,0,0,1-.655.061.18.18,0,0,1-.081-.151C.27,2.1.426.2.426.176A.163.163,0,1,0,.1.15,23.313,23.313,0,0,0,0,2.716a.492.492,0,0,0,.238.4A.678.678,0,0,0,.609,3.2Z" transform="translate(24.978 11.393)" fill="#f97853"/>
                <path id="Path_52377" data-name="Path 52377" d="M0,0A1.959,1.959,0,0,0,1.929,1.776,1.888,1.888,0,0,0,3.85,0Z" transform="translate(23.509 15.714)" fill="#fff"/>
                <path id="Path_52378" data-name="Path 52378" d="M12.356,4.326a33.56,33.56,0,0,1-.446,4.345l-.73-.049s.177-1.133.258-1.868.22-2.115-.408-2.285S10.772,2.73,9.9,2.046,7.087.763,5.8,1.554s-2.749.353-3.343.492S1.059,3,1.276,3.764.842,4.992.7,5.791a11.667,11.667,0,0,0,.348,2.92l-.7.139A24.4,24.4,0,0,1,.008,4.137,3.589,3.589,0,0,1,1.833,1.076,9.58,9.58,0,0,1,10.077.809,3.583,3.583,0,0,1,12.356,4.326Z" transform="translate(19.423 4.665)" fill="#18315b"/>
                <path id="Path_52379" data-name="Path 52379" d="M28.411,51.853a58.075,58.075,0,0,1-9.941,1.631l-.449.035c-.455.029-.91.055-1.367.075a56.683,56.683,0,0,1-6.764-.116q-.681-.052-1.364-.122l-.437-.046A59.037,59.037,0,0,1,.009,51.862c-.026-2.482,0-10.33.156-18.828C.183,32.011.2,30.98.226,29.946.464,18.73.924,7.352,1.755,6.193,2.549,5.1,4.942,3.714,7.23,2.462l.408-.223L9.13,1.431C10.144.881,11.019.388,11.561.012v.31s1.231,1.631,2.607,1.512C15.437,1.724,16.4.261,16.563,0a32.326,32.326,0,0,0,2.9,1.657l1.069.579.406.214c2.532,1.341,5.26,2.856,6.083,3.98a1.408,1.408,0,0,1,.174.414c.487,1.642.788,7.088.97,13.684V20.6c0,.266,0,.533.02.805v.1c.061,2.317.1,4.751.139,7.2v.869q0,.721.017,1.448v1.06C28.472,40.91,28.445,49.255,28.411,51.853Z" transform="translate(11.549 21.337)" fill="#006bde"/>
                <path id="Path_52380" data-name="Path 52380" d="M3.789,5.952c-.8-1.3-1.654-2.633-2.459-3.806h0C.991,1.651.661,1.184.348.761A.063.063,0,0,0,.334.738L.044.347A.165.165,0,0,1,.009.281h0A.214.214,0,0,1,.087.046.217.217,0,0,1,.394.086c.967,1.283,2.207,3.128,3.378,5v.072C3.763,5.413,3.784,5.68,3.789,5.952Z" transform="translate(35.968 36.768)" fill="#264cbe"/>
                <path id="Path_52381" data-name="Path 52381" d="M.782,0S5.776,9.151,8.82,13.788c0,0,1.738-1.59,3.986-3.719,2.442-2.317,5.779-6.161,5.779-6.161l1.842,2.2s-7.5,13.5-10.868,15.2S0,11,0,11Z" transform="translate(37.842 27.565)" fill="#006bde"/>
                <path id="Path_52382" data-name="Path 52382" d="M3.937,10.463h0a.226.226,0,0,1-.217-.235C3.98,2.836.148.443.11.42A.226.226,0,1,1,.342.032,6.774,6.774,0,0,1,2.37,2.251a13.931,13.931,0,0,1,1.793,7.992A.226.226,0,0,1,3.937,10.463Z" transform="translate(13.536 53.171)" fill="#264cbe"/>
                <path id="Path_52383" data-name="Path 52383" d="M.241,12.548a.223.223,0,0,1-.223-.209,7.926,7.926,0,0,1,1.04-4.128c.188-.423.385-.869.579-1.344A13.318,13.318,0,0,0,2.257.284.226.226,0,1,1,2.7.2a13.5,13.5,0,0,1-.646,6.839c-.206.492-.4.93-.579,1.356a7.481,7.481,0,0,0-1,3.908.226.226,0,0,1-.209.243Z" transform="translate(33.581 44.122)" fill="#264cbe"/>
                <path id="Path_52384" data-name="Path 52384" d="M0,1.434c.1.727.238,1.671.394,2.743.046.319.093.649.142.988C.692,6.274.855,7.482.994,8.7c.038.327.072.658.1.985.122,1.205.214,2.4.249,3.517,0,.339.014.666,0,.985a15.642,15.642,0,0,1-.154,2.3c-.064.423-.122.834-.174,1.237-.043.336-.081.666-.116.988-.13,1.257-.2,2.427-.217,3.531v.985c0,1.251.081,2.419.185,3.528.032.333.064.66.1.982.136,1.217.29,2.372.455,3.514.046.327.09.652.133.979.067.521.13,1.046.185,1.57s.1,1.211.113,1.932v.988c0,1.083-.023,2.28-.075,3.531,0,.327-.026.66-.043.994-.055,1.159-.13,2.361-.211,3.54-.023.333-.049.663-.072.994C1.361,47,1.26,48.2,1.164,49.316c-.029.339-.061.669-.093.991C.956,51.532.84,52.624.742,53.493a56.706,56.706,0,0,0,6.764.116c.055-.927.2-2.419.339-4.177q.038-.484.078-.991c.084-1.118.159-2.317.211-3.517q.02-.5.035-.991c.035-1.205.035-2.4-.017-3.519-.014-.342-.035-.672-.061-1s-.058-.655-.1-.968A19.354,19.354,0,0,1,7.85,35.89c0-.33,0-.66.023-.991.052-1.159.177-2.294.322-3.514.041-.324.081-.652.122-.988.13-1.086.266-2.236.374-3.493.029-.324.052-.655.078-.991.072-1.08.125-2.242.133-3.5v-1c0-1.095-.058-2.265-.145-3.525l-.026-.339c0-.223-.029-.446-.041-.666a33.892,33.892,0,0,1,.023-3.514c.017-.333.041-.663.064-1C8.87,11.19,9,10.02,9.156,8.893q.067-.5.139-.991c.185-1.228.382-2.384.565-3.418l.174-.979c.125-.7.232-1.321.31-1.848A32.328,32.328,0,0,1,7.447,0c-.165.261-1.127,1.738-2.4,1.834C3.664,1.952,2.445.322,2.445.322V.012C1.889.391,1.014.884,0,1.434Z" transform="translate(20.679 21.325)" fill="#fff"/>
                <path id="Path_52385" data-name="Path 52385" d="M0,.879c.046.319.093.649.142.988A18.263,18.263,0,0,0,4.614,1.3a11.853,11.853,0,0,1,4.864-.113L9.652.21a12.9,12.9,0,0,0-5.26.13A17.07,17.07,0,0,1,0,.879Z" transform="translate(21.073 24.623)" fill="#e3e3e3"/>
                <path id="Path_52386" data-name="Path 52386" d="M0,.885c.038.327.072.658.1.985a20.161,20.161,0,0,0,3.911-.565,11.781,11.781,0,0,1,4.16-.22q.067-.5.139-.991A13,13,0,0,0,3.792.341,18.864,18.864,0,0,1,0,.885Z" transform="translate(21.673 29.136)" fill="#e3e3e3"/>
                <path id="Path_52387" data-name="Path 52387" d="M0,.876c0,.339.014.666,0,.985a20.638,20.638,0,0,0,3.65-.553,11.877,11.877,0,0,1,3.716-.266c.017-.333.041-.663.064-1a13.035,13.035,0,0,0-4,.29A20.155,20.155,0,0,1,0,.876Z" transform="translate(22.026 33.647)" fill="#e3e3e3"/>
                <path id="Path_52388" data-name="Path 52388" d="M0,1.884A19.409,19.409,0,0,0,4.093,1.3a11.9,11.9,0,0,1,3.766-.264L7.833.7c0-.223-.029-.446-.041-.666a13.009,13.009,0,0,0-3.916.3A19.06,19.06,0,0,1,.11.881C.072,1.22.035,1.551,0,1.884Z" transform="translate(21.595 38.163)" fill="#e3e3e3"/>
                <path id="Path_52389" data-name="Path 52389" d="M0,1.883A18.964,18.964,0,0,0,4.314,1.3a11.925,11.925,0,0,1,3.911-.252v-1A13.036,13.036,0,0,0,4.1.342,17.985,17.985,0,0,1,.01.886C0,1.234,0,1.561,0,1.883Z" transform="translate(21.373 42.668)" fill="#e3e3e3"/>
                <path id="Path_52390" data-name="Path 52390" d="M0,.888c.032.333.064.66.1.982a19.524,19.524,0,0,0,4.029-.565,11.965,11.965,0,0,1,3.7-.269c.029-.324.052-.655.078-.991a12.907,12.907,0,0,0-4,.29A18.66,18.66,0,0,1,0,.888Z" transform="translate(21.56 47.191)" fill="#e3e3e3"/>
                <path id="Path_52391" data-name="Path 52391" d="M0,.868c.046.327.09.652.133.979a21.7,21.7,0,0,0,3.441-.542,12.059,12.059,0,0,1,3.2-.3C6.819.677,6.859.349,6.9.013A13.035,13.035,0,0,0,3.351.341,20.477,20.477,0,0,1,0,.868Z" transform="translate(22.113 51.707)" fill="#e3e3e3"/>
                <path id="Path_52392" data-name="Path 52392" d="M0,.835v.988A22.391,22.391,0,0,0,3.128,1.3,12.091,12.091,0,0,1,5.987.991c0-.33,0-.66.023-.991A13.217,13.217,0,0,0,2.92.337,21.937,21.937,0,0,1,0,.835Z" transform="translate(22.545 56.221)" fill="#e3e3e3"/>
                <path id="Path_52393" data-name="Path 52393" d="M0,1.821a21.9,21.9,0,0,0,3.247-.53A11.942,11.942,0,0,1,6.407,1C6.393.66,6.373.329,6.347,0A13.037,13.037,0,0,0,3.024.341a21.626,21.626,0,0,1-2.981.5C.032,1.155.017,1.488,0,1.821Z" transform="translate(22.441 60.747)" fill="#e3e3e3"/>
                <path id="Path_52394" data-name="Path 52394" d="M0,1.852A21.341,21.341,0,0,0,3.531,1.3,11.94,11.94,0,0,1,6.674,1q.02-.5.035-.991a13.135,13.135,0,0,0-3.4.333A20.707,20.707,0,0,1,.072.867C.049,1.192.023,1.522,0,1.852Z" transform="translate(22.157 65.249)" fill="#e3e3e3"/>
                <path id="Path_52395" data-name="Path 52395" d="M0,1.884A20.017,20.017,0,0,0,3.919,1.3,12.045,12.045,0,0,1,6.772.992Q6.81.508,6.851,0A13.034,13.034,0,0,0,3.7.343a19.6,19.6,0,0,1-3.6.536C.061,1.244.029,1.574,0,1.884Z" transform="translate(21.771 69.736)" fill="#e3e3e3"/>
                <path id="Path_52396" data-name="Path 52396" d="M0,51.306l.449-.032c.889-5.229.377-12.9.185-15.251a25.7,25.7,0,0,1,1.043-8.609c.666-2.352.258-7.821-.07-12.192-.093-1.231-.18-2.393-.232-3.349-.168-3.085.95-8.8,1.564-11.659L2.535,0C1.918,2.833.762,8.673.936,11.9c.055.959.142,2.123.235,3.354.324,4.345.73,9.762.087,12.039A26.242,26.242,0,0,0,.2,36.058C.388,38.413.892,46.132,0,51.306Z" transform="translate(29.569 23.55)" fill="#264cbe"/>
                <path id="Path_52397" data-name="Path 52397" d="M1.683,30.012a28.408,28.408,0,0,1,.168,7.717c-.061.782-.125,1.587-.171,2.48C1.541,43,1.069,48.638.857,51.071l.437.046c.211-2.436.684-8.082.826-10.886.043-.886.107-1.692.168-2.468a28.957,28.957,0,0,0-.171-7.821c-.113-.7-.235-1.414-.353-2.12C1.17,24.32.559,20.7.849,18.962c.07-.423.159-.9.258-1.414A29.129,29.129,0,0,0,1.834,10.6C1.677,8.342.762,2.288.411,0L0,.223c.368,2.393,1.248,8.227,1.4,10.4a29.128,29.128,0,0,1-.721,6.848c-.1.513-.188,1-.261,1.422-.29,1.808.29,5.3.915,9.006C1.451,28.6,1.57,29.311,1.683,30.012Z" transform="translate(18.779 23.576)" fill="#264cbe"/>
                <path id="Path_52398" data-name="Path 52398" d="M8.776.031S4.3,14.943,3.2,20.259,2,36.619,2,36.619.048,40.675,0,42.485c-.049,1.923.962,3.456.846,4.716s1.419.579.988-1.976.794-4.864,1.327-4.788-.44,2.787.032,3.766,1.08-.921,1.686-2.074.594-3.806.307-5.669S8.278,23.277,8.295,20L12.573,5.547S11.157-.484,8.776.031Z" transform="translate(3.048 31.215)" fill="#ffa681"/>
                <path id="Path_52399" data-name="Path 52399" d="M11.478,8.641a37.5,37.5,0,0,1-1.367,4.672h0l-.177.533v.023c-.171.516-.35,1.054-.533,1.613h0c-.759,2.3-1.6,4.924-2.317,7.644-.243.924-.469,1.863-.669,2.8-.258,1.191-.475,2.378-.634,3.54-.579,4.186-1.666,9.49-1.666,9.49-1.6.66-4.11-.209-4.11-.209S-.059,31.1.294,28.135A79.715,79.715,0,0,1,2,18.866,118.087,118.087,0,0,1,8.228.4L8.4,0H9.2C10.774.991,11.887,6.06,11.478,8.641Z" transform="translate(4.688 27.759)" fill="#006bde"/>
                <path id="Path_52400" data-name="Path 52400" d="M0,0,.127,1.755A8.263,8.263,0,0,0,4.3,1.984L4.768.417A13.267,13.267,0,0,1,0,0Z" transform="translate(4.565 64.984)" fill="#009cf8"/>
                <path id="Path_52401" data-name="Path 52401" d="M3.667.237h0a.238.238,0,0,1,0,.075C3.612.46,3.557.6,3.5.77V.793c-.174.5-.353,1.043-.533,1.613h0A85.835,85.835,0,0,0,.652,11.494q0-.721.017-1.448C.426,10.969.2,11.908,0,12.841A33.394,33.394,0,0,1,.681,9.17,85.92,85.92,0,0,1,3.267.147a.217.217,0,0,1,.29-.13A.214.214,0,0,1,3.667.237Z" transform="translate(11.132 40.835)" fill="#264cbe"/>
                <path id="Path_52402" data-name="Path 52402" d="M.446,8.18H11.01c-.035-.733-.07-1.434-.1-2.1C10.721,2.465,10.564,0,10.564,0L1.976.382,1.263.414,0,.469S.122,2.674.31,5.9Q.375,6.975.446,8.18Z" transform="translate(94.342 72.327)" fill="#18315b"/>
                <path id="Path_52403" data-name="Path 52403" d="M1.263.417,0,.472S.122,2.677.31,5.9a76.839,76.839,0,0,0,10.6.182C10.721,2.465,10.564,0,10.564,0L1.976.382Z" transform="translate(94.342 72.327)" fill="#000b29"/>
                <path id="Path_52404" data-name="Path 52404" d="M1.15,7.795C.956,4.446.8,1.587.713,0L0,.032C.087,1.613.243,4.458.437,7.795Z" transform="translate(95.605 72.712)" fill="#000b29"/>
                <path id="Path_52405" data-name="Path 52405" d="M10.567,8.177c.055-.907.107-1.767.154-2.561.182-3.073.29-5.147.29-5.147L9.64.408,8.928.377.443,0S.351,1.469.223,3.8C.156,5.043.078,6.535,0,8.177Z" transform="translate(81.121 72.33)" fill="#18315b"/>
                <path id="Path_52406" data-name="Path 52406" d="M0,3.8A93.287,93.287,0,0,0,10.492,5.617c.182-3.073.29-5.147.29-5.147L9.411.408,8.7.377.214,0S.127,1.469,0,3.8Z" transform="translate(81.35 72.33)" fill="#000b29"/>
                <path id="Path_52407" data-name="Path 52407" d="M.713,7.8C.9,4.461,1.063,1.613,1.15.032L.437,0C.35,1.587.191,4.449,0,7.8Z" transform="translate(89.617 72.707)" fill="#000b29"/>
                <path id="Path_52408" data-name="Path 52408" d="M26.405,52.453a50.662,50.662,0,0,1-6.46,1.341q-1.121.156-2.242.261-1.512.139-3.024.188a48.01,48.01,0,0,1-5-.11,50.59,50.59,0,0,1-9.672-1.68c-.029-3,.017-13.782.24-24.179q.017-.7.035-1.4v-.611c0-.33.014-.658.023-.985.017-.669.035-1.33.055-1.987,0-.391.023-.782.035-1.159v-.24l.026-.759h0V20.9c0-.232.017-.463.023-.692s.014-.385.02-.579C.715,12.615,1.08,7.082,1.6,6.3c.886-1.321,3.9-3.076,6.332-4.5C8.8,1.289,9.836.762,10.427.368a3.831,3.831,0,0,0,2.766,1.28C14.621,1.6,14.975.739,15.511,0c.333.217,1.179.91,1.619,1.159.377.223.782.458,1.208.7.658.374,1.356.773,2.048,1.182,1.025.6,2.028,1.225,2.876,1.822a7.254,7.254,0,0,1,1.831,1.657c.475.713.782,5.324.979,11.4,0,.211.014.429.023.646v.078c0,.22.014.446.02.675.02.681.038,1.379.058,2.088V22.2l.017.869v.177c.014.779.029,1.57.043,2.367v.7C26.486,37.245,26.446,49.229,26.405,52.453Z" transform="translate(80.036 21.522)" fill="#006bde"/>
                <path id="Path_52409" data-name="Path 52409" d="M26.03,6.462,22.611,9.918,19.425,6.7,16.239,9.918,13.052,6.686,9.866,9.918,6.683,6.665,3.476,9.918,0,6.4c0-.33.014-.658.023-.985.017-.669.035-1.33.055-1.987L3.464,0,6.671,3.253,9.878,0l3.186,3.23L16.25,0l3.186,3.218L22.623,0l3.351,3.395c.014.779.029,1.57.043,2.367C26.012,5.993,26.03,6.228,26.03,6.462Z" transform="translate(80.325 41.376)" fill="#264cbe"/>
                <path id="Path_52410" data-name="Path 52410" d="M15.27,8.011h0A19.556,19.556,0,0,1,4.35,4.179,25.152,25.152,0,0,1,.054.367.222.222,0,0,1,.39.077,24.767,24.767,0,0,0,4.613,3.811,19.1,19.1,0,0,0,15.27,7.559a.22.22,0,0,1,.22.22.217.217,0,0,1-.22.232Z" transform="translate(85.192 57.639)" fill="#264cbe"/>
                <path id="Path_52411" data-name="Path 52411" d="M7.554,4.261A18.561,18.561,0,0,1,.075.385a.22.22,0,0,1,.29-.33C.405.089,4.452,3.588,8.577,3.965a.22.22,0,0,1-.041.437C8.2,4.371,7.89,4.324,7.554,4.261Z" transform="translate(90.064 58.693)" fill="#264cbe"/>
                <path id="Path_52412" data-name="Path 52412" d="M.221,5.233A.223.223,0,0,1,0,5.054.22.22,0,0,1,.18,4.8C5.742,3.742,7.422.164,7.422.127a.22.22,0,0,1,.29-.107.217.217,0,0,1,.107.29C7.749.466,6.031,4.133.247,5.233Z" transform="translate(89.623 23.959)" fill="#264cbe"/>
                <path id="Path_52413" data-name="Path 52413" d="M2.593.275h0a.317.317,0,0,1-.029.072c-.084.133-.171.269-.258.411L2.291.782c-.29.449-.579.941-.869,1.448h0C.956,3.047.475,3.933,0,4.837l.026-.759h0V3.844C.791,2.427,1.55,1.1,2.19.1a.217.217,0,0,1,.29-.07A.223.223,0,0,1,2.593.275Z" transform="translate(80.458 38.549)" fill="#264cbe"/>
                <path id="Path_52414" data-name="Path 52414" d="M3.276,22.029s7.111-2.285,9.217-6.952C13.1,13.724,8.088,0,8.088,0L5.666.119s.689,4.762,1.109,7.456c.342,2.219.9,4.866,1.086,5.738.041.191.064.29.064.29l-.359.067A36.8,36.8,0,0,0,0,16.511Z" transform="translate(107.803 8.658)" fill="#ffa681"/>
                <path id="Path_52415" data-name="Path 52415" d="M2.146,1.611a.226.226,0,0,0,.316-.049.223.223,0,0,0-.049-.319A17.91,17.91,0,0,0,.3,0C.336.191.359.29.359.29L0,.356A18.283,18.283,0,0,1,2.146,1.611Z" transform="translate(115.369 21.971)" fill="#f97853"/>
                <path id="Path_52416" data-name="Path 52416" d="M.417,1.81S-1.735,6.859,3.742,9.669c3.789,1.947,12.424-3.134,12.424-3.134L13.09,0S5.188,3.259.417,1.81Z" transform="translate(99.779 22.594)" fill="#006bde"/>
                <path id="Path_52417" data-name="Path 52417" d="M4.478.941c-.214.151-.171,1.078-.075,1.952H4.31C4.055,1.735,3.548-.255,3.114.124c-.29.246.1,1.958.356,2.981l-.162.049C2.983,1.941,2.279-.4,1.81.058c-.313.3.29,2.361.62,3.412l-.136.052C1.975,2.506,1.294.576.828,1.031c-.423.408.788,3.322.788,3.322h0L1.935,5.5s-.377.162-.968-.5-1.292-.782-.8.18C.718,6.263,1.535,7.045,1.9,7.812A2.43,2.43,0,0,0,3.395,8.838l2.274-.11s.44-3.841-.408-5.672h0C5.107,1.981,4.852.681,4.478.941Z" transform="translate(110.173 0)" fill="#ffa681"/>
                <path id="Path_52418" data-name="Path 52418" d="M0,7c0,3.873,2.384,6.541,6.254,6.541A6.421,6.421,0,0,0,12.824,6.8a8.264,8.264,0,0,0-.51-2.946,1.253,1.253,0,0,0-.061-.156c-.041-.1-.081-.2-.127-.29-.07-.151-.145-.29-.223-.437A5.731,5.731,0,0,0,6.659,0C2.016-.009,0,3.126,0,7Z" transform="translate(86.527 2.807)" fill="#18315b"/>
                <path id="Path_52419" data-name="Path 52419" d="M2.133.718S1.059-.716.259.469.59,5.156,2.548,4.3Z" transform="translate(85.262 10.753)" fill="#f97853"/>
                <path id="Path_52420" data-name="Path 52420" d="M1.7,1.966a.168.168,0,0,1-.159-.122A2.556,2.556,0,0,0,.108.32.165.165,0,1,1,.223.011,2.846,2.846,0,0,1,1.86,1.749a.168.168,0,0,1-.113.206Z" transform="translate(85.68 12.011)" fill="#ea5143"/>
                <path id="Path_52421" data-name="Path 52421" d="M.166.77A.171.171,0,0,1,.076.744.165.165,0,0,1,.027.515a1.492,1.492,0,0,1,.62-.5A.168.168,0,0,1,.867.1.165.165,0,0,1,.783.315,1.185,1.185,0,0,0,.3.692.165.165,0,0,1,.166.77Z" transform="translate(86.086 12.659)" fill="#ea5143"/>
                <path id="Path_52422" data-name="Path 52422" d="M.414.718S1.489-.716,2.288.469,1.958,5.156,0,4.3Z" transform="translate(98.067 10.753)" fill="#f97853"/>
                <path id="Path_52423" data-name="Path 52423" d="M.153,1.966a.168.168,0,0,0,.159-.122A2.494,2.494,0,0,1,1.761.321a.166.166,0,0,0-.119-.31A2.854,2.854,0,0,0,.005,1.749a.171.171,0,0,0,.116.206Z" transform="translate(98.34 12.01)" fill="#ea5143"/>
                <path id="Path_52424" data-name="Path 52424" d="M.676.758A.171.171,0,0,0,.766.732.168.168,0,0,0,.816.5,1.489,1.489,0,0,0,.193,0a.165.165,0,0,0-.133.29A1.24,1.24,0,0,1,.537.669.165.165,0,0,0,.676.758Z" transform="translate(98.949 12.671)" fill="#ea5143"/>
                <path id="Path_52425" data-name="Path 52425" d="M5.092,0V3.476S4.055,5.252,2.65,5.373,0,3.844,0,3.844V.238Z" transform="translate(90.492 18.032)" fill="#ffa681"/>
                <path id="Path_52426" data-name="Path 52426" d="M5.092,0V1.544C4.151,2.593,2.485,2.853,0,2.488V.243Z" transform="translate(90.492 18.032)" fill="#f97853"/>
                <path id="Path_52427" data-name="Path 52427" d="M12.507,4.375a33.871,33.871,0,0,1-.452,4.4c-.064.336-.136.655-.217.939-.733,2.566-2.566,6.969-7.7,5.136C1.87,14.038.818,11.515.352,8.946A24.763,24.763,0,0,1,.007,4.181,3.635,3.635,0,0,1,1.853,1.087,9.689,9.689,0,0,1,10.186.818,3.627,3.627,0,0,1,12.507,4.375Z" transform="translate(86.751 4.706)" fill="#ffa681"/>
                <path id="Path_52428" data-name="Path 52428" d="M.857.675c0,.371-.194.672-.429.672S0,1.057,0,.675.191,0,.429,0,.857.3.857.675Z" transform="translate(89.881 11.251)" fill="#18315b"/>
                <path id="Path_52429" data-name="Path 52429" d="M.855.675c0,.371-.191.672-.429.672S0,1.057,0,.675.191,0,.426,0,.855.3.855.675Z" transform="translate(94.927 11.236)" fill="#18315b"/>
                <path id="Path_52430" data-name="Path 52430" d="M2.39.264A3.635,3.635,0,0,0,0,.18L.1.759A6.622,6.622,0,0,1,2.4.942,1.008,1.008,0,0,0,2.39.264Z" transform="translate(94.359 9.333)" fill="#18315b"/>
                <path id="Path_52431" data-name="Path 52431" d="M.064.264A3.635,3.635,0,0,1,2.454.18l-.1.579A6.622,6.622,0,0,0,.056.942.99.99,0,0,1,.064.264Z" transform="translate(88.817 9.333)" fill="#18315b"/>
                <path id="Path_52432" data-name="Path 52432" d="M.6,3.239a1.752,1.752,0,0,0,.6-.127A.166.166,0,1,0,1.078,2.8a1,1,0,0,1-.663.064.174.174,0,0,1-.081-.154A25.314,25.314,0,0,1,.432.18.165.165,0,0,0,.281,0,.168.168,0,0,0,.1.151,24.629,24.629,0,0,0,0,2.758a.5.5,0,0,0,.24.406A.7.7,0,0,0,.6,3.239Z" transform="translate(92.392 11.508)" fill="#f97853"/>
                <path id="Path_52433" data-name="Path 52433" d="M0,0A2.474,2.474,0,0,0,2.135,1.92,2.42,2.42,0,0,0,4.267,0Z" transform="translate(90.773 15.587)" fill="#fff"/>
                <path id="Path_52434" data-name="Path 52434" d="M.854.54A1.755,1.755,0,0,0,1.662.314a.169.169,0,0,0-.174-.29A1.448,1.448,0,0,1,.854.2a1.329,1.329,0,0,1-.6-.177A.165.165,0,0,0,.026.079.162.162,0,0,0,.078.305,1.625,1.625,0,0,0,.854.54Z" transform="translate(91.961 18.005)" fill="#f97853"/>
                <path id="Path_52435" data-name="Path 52435" d="M12.329,6.788h-.75c.081-.753.2-2.08-.417-2.271-1.955-.6.579-1.981-.3-2.668s-3.076-.394-4.6-.443a32.91,32.91,0,0,0-4.606.11c-.6.139-.269,1.135-.049,1.906S.861,5.047.7,5.846a3.477,3.477,0,0,0,0,.941H.076C0,5.814-.008,4.908,0,4.181A3.635,3.635,0,0,1,1.849,1.087,9.689,9.689,0,0,1,10.183.818,3.627,3.627,0,0,1,12.5,4.375C12.468,5.11,12.413,5.953,12.329,6.788Z" transform="translate(86.754 4.712)" fill="#18315b"/>
                <path id="Path_52436" data-name="Path 52436" d="M1.877,3.748A1.874,1.874,0,1,1,3.748,1.874,1.874,1.874,0,0,1,1.877,3.748Zm0-3.456A1.582,1.582,0,1,0,3.459,1.874,1.582,1.582,0,0,0,1.877.293Z" transform="translate(88.357 10.127)" fill="#fff"/>
                <path id="Path_52437" data-name="Path 52437" d="M1.874,3.748A1.874,1.874,0,1,1,3.748,1.874,1.874,1.874,0,0,1,1.874,3.748Zm0-3.456A1.582,1.582,0,1,0,3.456,1.874,1.582,1.582,0,0,0,1.874.293Z" transform="translate(93.473 10.127)" fill="#fff"/>
                <path id="Path_52438" data-name="Path 52438" d="M2.257.954a.142.142,0,0,1-.1-.043h0A2.3,2.3,0,0,0,.18.332.151.151,0,0,1,0,.222.145.145,0,0,1,.114.048,2.561,2.561,0,0,1,2.362.7a.148.148,0,0,1-.1.252Z" transform="translate(86.427 10.444)" fill="#fff"/>
                <path id="Path_52439" data-name="Path 52439" d="M.148,1A.156.156,0,0,1,.023.936a.148.148,0,0,1,.043-.2A4.241,4.241,0,0,1,2.575.026.148.148,0,0,1,2.7.194a.148.148,0,0,1-.168.122,4.044,4.044,0,0,0-2.3.66A.133.133,0,0,1,.148,1Z" transform="translate(96.798 10.396)" fill="#fff"/>
                <path id="Path_52440" data-name="Path 52440" d="M1.819.768A1.176,1.176,0,0,0,1.014.293,1.078,1.078,0,0,0,.246.765L0,.605A1.364,1.364,0,0,1,1.014,0,1.448,1.448,0,0,1,2.057.6Z" transform="translate(91.764 10.813)" fill="#fff"/>
                <path id="Path_52441" data-name="Path 52441" d="M20.436,10.738a53.013,53.013,0,0,1-4.3,6.848,17.565,17.565,0,0,1-2.106,2.352c-1.141,1.031-2.256,1.57-3.163,1.112C7.5,19.356,0,5.863,0,5.863l1.848-2.19s3.34,3.855,5.793,6.164c2.245,2.109,3.983,3.7,3.983,3.7.313-.472.643-.994.991-1.544s.747-1.2,1.135-1.836C16.563,5.544,19.683,0,19.683,0Z" transform="translate(61.998 27.811)" fill="#ffa681"/>
                <path id="Path_52442" data-name="Path 52442" d="M3.534,7.424A17.562,17.562,0,0,1,1.428,9.776L0,1.837C.365,1.257.747.634,1.136,0Z" transform="translate(74.601 37.972)" fill="#f97853"/>
                <path id="Path_52443" data-name="Path 52443" d="M6.746,0,0,10.608l2.265,9.33,5.582-9.087S8.522,4.632,6.746,0Z" transform="translate(80.374 46.03)" fill="#006bde"/>
                <path id="Path_52444" data-name="Path 52444" d="M27.715,22.189c-.481-2.671-.956-5.68-1.387-8.6-.1-.646-.188-1.289-.29-1.921-.348-2.422-.655-4.71-.9-6.61-.1-.721-.18-1.387-.258-1.981C24.636,1.176,24.494,0,24.494,0L13.843.4,3.16,0s-.29,2.317-.715,5.709c-.081.614-.168,1.263-.258,1.941-.238,1.773-.507,3.731-.8,5.735v.087q-.139.939-.29,1.883v.026h0C.869,16.9.629,18.42.385,19.88c-.1.6-.2,1.2-.29,1.773l-.1.533Z" transform="translate(45.472 58.319)" fill="#006bde"/>
                <path id="Path_52445" data-name="Path 52445" d="M2.01,1A1.005,1.005,0,1,1,1.005,0,1.005,1.005,0,0,1,2.01,1Z" transform="translate(49.09 60.514)" fill="#264cbe"/>
                <path id="Path_52446" data-name="Path 52446" d="M2.01,1.005A1,1,0,1,1,1.717.294,1.005,1.005,0,0,1,2.01,1.005Z" transform="translate(51.581 64.402)" fill="#264cbe"/>
                <path id="Path_52447" data-name="Path 52447" d="M2.01,1.005A1.005,1.005,0,1,1,1.005,0,1.005,1.005,0,0,1,2.01,1.005Z" transform="translate(56.482 62.394)" fill="#264cbe"/>
                <path id="Path_52448" data-name="Path 52448" d="M2.01,1.005A1,1,0,1,1,1.718.295a1.005,1.005,0,0,1,.293.711Z" transform="translate(48.745 68.532)" fill="#264cbe"/>
                <path id="Path_52449" data-name="Path 52449" d="M2.01,1a1.005,1.005,0,1,1-1-1A1.005,1.005,0,0,1,2.01,1Z" transform="translate(54.869 68.104)" fill="#264cbe"/>
                <path id="Path_52450" data-name="Path 52450" d="M.91.941a1,1,0,0,1-.91,1C.09,1.263.177.614.258,0A1,1,0,0,1,.91.941Z" transform="translate(47.671 64.016)" fill="#264cbe"/>
                <path id="Path_52451" data-name="Path 52451" d="M2.01,1A1.005,1.005,0,1,1,1.005,0,1.005,1.005,0,0,1,2.01,1Z" transform="translate(64.851 74.001)" fill="#264cbe"/>
                <path id="Path_52452" data-name="Path 52452" d="M2.01,1.005A1,1,0,1,1,1.718.295,1.005,1.005,0,0,1,2.01,1.005Z" transform="translate(64.37 68.532)" fill="#264cbe"/>
                <path id="Path_52453" data-name="Path 52453" d="M1.453,1.931a1.049,1.049,0,0,1-.394.078A1.005,1.005,0,1,1,1.059,0a.783.783,0,0,1,.116,0Q1.31.954,1.453,1.931Z" transform="translate(70.347 69.979)" fill="#264cbe"/>
                <path id="Path_52454" data-name="Path 52454" d="M2.01,1.005A1.005,1.005,0,1,1,1.005,0,1.005,1.005,0,0,1,2.01,1.005Z" transform="translate(65.381 78.007)" fill="#264cbe"/>
                <path id="Path_52455" data-name="Path 52455" d="M2.01,1.005A1,1,0,1,1,1.717.294,1.005,1.005,0,0,1,2.01,1.005Z" transform="translate(69.674 76.408)" fill="#264cbe"/>
                <path id="Path_52456" data-name="Path 52456" d="M1.654.438A1,1,0,0,0,0,.438Z" transform="translate(61.094 80.069)" fill="#264cbe"/>
                <path id="Path_52457" data-name="Path 52457" d="M2.01,1.005A1,1,0,1,1,1.718.295a1.005,1.005,0,0,1,.293.711Z" transform="translate(48.085 74.873)" fill="#264cbe"/>
                <path id="Path_52458" data-name="Path 52458" d="M.869.915A1,1,0,0,1,0,1.909s0-.017,0-.026L.29,0A1.011,1.011,0,0,1,.869.915Z" transform="translate(46.578 71.791)" fill="#264cbe"/>
                <path id="Path_52459" data-name="Path 52459" d="M.715.808A1.011,1.011,0,0,1,0,1.773C.1,1.193.2.614.29,0A1,1,0,0,1,.715.808Z" transform="translate(45.559 78.202)" fill="#264cbe"/>
                <path id="Path_52460" data-name="Path 52460" d="M2.01,1a1.005,1.005,0,1,1-1-1A1.005,1.005,0,0,1,2.01,1Z" transform="translate(50.576 78.439)" fill="#264cbe"/>
                <path id="Path_52461" data-name="Path 52461" d="M2.01,1.005A1,1,0,1,1,1.717.294a1.005,1.005,0,0,1,.294.712Z" transform="translate(55.874 77.645)" fill="#264cbe"/>
                <path id="Path_52462" data-name="Path 52462" d="M2.01,1.005A1,1,0,1,1,1.718.295,1.005,1.005,0,0,1,2.01,1.005Z" transform="translate(52.094 72.709)" fill="#264cbe"/>
                <path id="Path_52463" data-name="Path 52463" d="M2.01,1a1.005,1.005,0,1,1-1-1A1.005,1.005,0,0,1,2.01,1Z" transform="translate(57.485 71.707)" fill="#264cbe"/>
                <path id="Path_52464" data-name="Path 52464" d="M2.01,1.005A1,1,0,1,1,1.717.294a1.005,1.005,0,0,1,.294.712Z" transform="translate(59.912 66.409)" fill="#264cbe"/>
                <path id="Path_52465" data-name="Path 52465" d="M1.24,1.981A.893.893,0,0,1,1.023,2,1,1,0,1,1,.982,0C1.057.594,1.144,1.248,1.24,1.981Z" transform="translate(69.378 61.392)" fill="#264cbe"/>
                <path id="Path_52466" data-name="Path 52466" d="M2.01,1.005A1.005,1.005,0,1,1,1.005,0,1.005,1.005,0,0,1,2.01,1.005Z" transform="translate(63.373 62.394)" fill="#264cbe"/>
                <path id="Path_52467" data-name="Path 52467" d="M2.01,1.005A1,1,0,1,1,1.717.294,1.005,1.005,0,0,1,2.01,1.005Z" transform="translate(67.049 65.98)" fill="#264cbe"/>
                <path id="Path_52468" data-name="Path 52468" d="M2.01,1.005A1,1,0,1,1,1.718.295,1.005,1.005,0,0,1,2.01,1.005Z" transform="translate(60.914 74.873)" fill="#264cbe"/>
                <path id="Path_52469" data-name="Path 52469" d="M22.813,37.848c-5.62,3.667-15.932,3.38-22.417,0A60.712,60.712,0,0,0,1.652,24.993c-.017-.562-.043-1.121-.07-1.674-.026-.484-.055-.962-.084-1.448C.937,13.331-.529,6.347.2,5.443A6.746,6.746,0,0,1,1.676,4.186c.252-.174.521-.348.805-.521.675-.408,1.422-.823,2.173-1.225C6.435,1.486,8.245.605,9.152,0a5.7,5.7,0,0,0,2.387.6h.13A5.721,5.721,0,0,0,14.056,0C14.9.562,16.48,1.341,18.1,2.193a34.644,34.644,0,0,1,3.331,1.935A6.627,6.627,0,0,1,22.85,5.35c.356.446.206,2.407-.1,5.312-.29,2.862-.75,6.636-1.023,10.787-.075,1.159-.139,2.335-.18,3.531A60.772,60.772,0,0,0,22.813,37.848Z" transform="translate(47.814 20.737)" fill="#009cf8"/>
                <path id="Path_52470" data-name="Path 52470" d="M15.143,7.935h0a19.347,19.347,0,0,1-10.828-3.8A24.8,24.8,0,0,1,.054.366.221.221,0,1,1,.387.076a24.493,24.493,0,0,0,4.189,3.7A18.977,18.977,0,0,0,15.146,7.5a.217.217,0,1,1,0,.434Z" transform="translate(52.048 46.381)" fill="#006bde"/>
                <path id="Path_52471" data-name="Path 52471" d="M7.492,4.226A18.438,18.438,0,0,1,.074.382.219.219,0,1,1,.363.055C.4.09,4.419,3.56,8.506,3.934a.214.214,0,0,1,.2.235.217.217,0,0,1-.238.2,9.214,9.214,0,0,1-.973-.139Z" transform="translate(56.704 47.456)" fill="#006bde"/>
                <path id="Path_52472" data-name="Path 52472" d="M.223,5.195a.217.217,0,0,1-.041-.432C5.686,3.717,7.36.169,7.378.129a.214.214,0,0,1,.29-.107.211.211,0,0,1,.107.29C7.705.465,6,4.1.266,5.192Z" transform="translate(58.27 26.556)" fill="#006bde"/>
                <path id="Path_52473" data-name="Path 52473" d="M13.443,2.193c-1.095,2.5-3.786,5.084-7.285,4.478A8.393,8.393,0,0,1,0,2.439C1.781,1.486,3.592.605,4.5,0A5.7,5.7,0,0,0,6.885.6h.13A5.709,5.709,0,0,0,9.4,0C10.246.559,11.83,1.341,13.443,2.193Z" transform="translate(52.467 20.746)" fill="#ffa681"/>
                <path id="Path_52474" data-name="Path 52474" d="M7.768,0a.171.171,0,0,0-.174.171c0,.139-.058,3.441-3.021,3.7C1.824,4.107.686,1.474.335.391A.156.156,0,0,0,.188.284H.156a.154.154,0,0,0-.148.2C.382,1.613,1.581,4.333,4.382,4.232H4.6c3.279-.29,3.337-4,3.34-4.038A.174.174,0,0,0,7.768,0Z" transform="translate(55.217 20.928)" fill="#fff"/>
                <path id="Path_52475" data-name="Path 52475" d="M14.085,0s2.65,4.1,2.358,8.374.391,9.206-3.433,8.98S2.368,18.889.2,15.561,14.085,0,14.085,0Z" transform="translate(50.995 3.383)" fill="#18315b"/>
                <path id="Path_52476" data-name="Path 52476" d="M7.317.07S8,6.264,5.066,7.97A4.337,4.337,0,0,1,0,7.77S6.187-.862,7.317.07Z" transform="translate(58.745 10.856)" fill="#000b29"/>
                <path id="Path_52477" data-name="Path 52477" d="M2.1.7S1.039-.7.254.461.582,5.061,2.5,4.227Z" transform="translate(51.759 10.193)" fill="#f97853"/>
                <path id="Path_52478" data-name="Path 52478" d="M1.669,1.928a.162.162,0,0,1-.156-.119A2.483,2.483,0,0,0,.1.315a.163.163,0,0,1,.116-.3,2.8,2.8,0,0,1,1.6,1.712.165.165,0,0,1-.113.2Z" transform="translate(52.171 11.425)" fill="#ea5143"/>
                <path id="Path_52479" data-name="Path 52479" d="M.161.746A.162.162,0,0,1,.025.5,1.5,1.5,0,0,1,.634,0a.162.162,0,0,1,.133.29A1.159,1.159,0,0,0,.3.665.165.165,0,0,1,.161.746Z" transform="translate(52.57 12.071)" fill="#ea5143"/>
                <path id="Path_52480" data-name="Path 52480" d="M.406.7S1.46-.7,2.245.461,1.92,5.061,0,4.227Z" transform="translate(64.324 10.193)" fill="#f97853"/>
                <path id="Path_52481" data-name="Path 52481" d="M.162,1.928A.162.162,0,0,0,.318,1.81,2.483,2.483,0,0,1,1.726.315a.163.163,0,1,0-.116-.3,2.794,2.794,0,0,0-1.6,1.712.165.165,0,0,0,.113.2Z" transform="translate(64.582 11.425)" fill="#ea5143"/>
                <path id="Path_52482" data-name="Path 52482" d="M.674.746A.162.162,0,0,0,.81.5,1.5,1.5,0,0,0,.2,0a.162.162,0,0,0-.133.29A1.185,1.185,0,0,1,.538.665.159.159,0,0,0,.674.746Z" transform="translate(65.179 12.071)" fill="#ea5143"/>
                <path id="Path_52483" data-name="Path 52483" d="M5.005,0V3.418s-1.02,1.738-2.4,1.857S0,3.777,0,3.777V.24Z" transform="translate(56.885 17.331)" fill="#ffa681"/>
                <path id="Path_52484" data-name="Path 52484" d="M5,0V1.515C4.073,2.54,2.433,2.905,0,2.546V.229Z" transform="translate(56.891 17.331)" fill="#f97853"/>
                <path id="Path_52485" data-name="Path 52485" d="M12.272,4.293a33.539,33.539,0,0,1-.443,4.316c-.064.33-.136.643-.214.921-.721,2.52-2.52,6.839-7.555,5.04C1.835,13.777.8,11.3.343,8.778A24.445,24.445,0,0,1,.007,4.1a3.574,3.574,0,0,1,1.81-3.036A9.5,9.5,0,0,1,9.992.8,3.56,3.56,0,0,1,12.272,4.293Z" transform="translate(53.222 4.26)" fill="#ffa681"/>
                <path id="Path_52486" data-name="Path 52486" d="M.84.66c0,.365-.188.66-.42.66S0,1.031,0,.66.188,0,.42,0,.84.3.84.66Z" transform="translate(56.233 10.437)" fill="#18315b"/>
                <path id="Path_52487" data-name="Path 52487" d="M.84.66c0,.365-.188.66-.42.66S0,1.031,0,.66.185,0,.42,0,.84.3.84.66Z" transform="translate(61.421 10.437)" fill="#18315b"/>
                <path id="Path_52488" data-name="Path 52488" d="M.672.267A6.951,6.951,0,0,1,2.468,0a.31.31,0,0,1,.313.365h0a.31.31,0,0,1-.322.258A8.11,8.11,0,0,0,0,.913.475.475,0,0,1,.145.577,1.083,1.083,0,0,1,.672.267Z" transform="translate(55.15 8.864)" fill="#18315b"/>
                <path id="Path_52489" data-name="Path 52489" d="M2.113.269A7.07,7.07,0,0,0,.314,0,.313.313,0,0,0,0,.365H0A.31.31,0,0,0,.326.62,8.275,8.275,0,0,1,2.785.91.458.458,0,0,0,2.643.576,1.1,1.1,0,0,0,2.113.269Z" transform="translate(60.501 8.875)" fill="#18315b"/>
                <path id="Path_52490" data-name="Path 52490" d="M.592,3.2a.684.684,0,0,1-.351-.084A.5.5,0,0,1,0,2.718,23.64,23.64,0,0,1,.094.166.162.162,0,1,1,.416.192a24.574,24.574,0,0,0-.1,2.485A.171.171,0,0,0,.4,2.828a.959.959,0,0,0,.652-.061.162.162,0,1,1,.122.29A1.7,1.7,0,0,1,.592,3.2Z" transform="translate(58.755 10.913)" fill="#f97853"/>
                <path id="Path_52491" data-name="Path 52491" d="M0,0A1.931,1.931,0,0,0,1.9,1.752,1.865,1.865,0,0,0,3.8,0Z" transform="translate(57.288 15.135)" fill="#fff"/>
                <path id="Path_52492" data-name="Path 52492" d="M.837.522A1.622,1.622,0,0,1,.079.3.162.162,0,0,1,.024.076.165.165,0,0,1,.247.024h0A1.341,1.341,0,0,0,.826.2,1.428,1.428,0,0,0,1.452.024a.162.162,0,0,1,.223.055A.165.165,0,0,1,1.62.3,1.709,1.709,0,0,1,.837.522Z" transform="translate(58.333 17.316)" fill="#f97853"/>
                <path id="Path_52493" data-name="Path 52493" d="M13.337,7.118a.542.542,0,0,1-.391.29,10.4,10.4,0,0,1-.058,1.2c-.2,2.346-.791,2.758-.927,2.178a27.751,27.751,0,0,1-.041-3.317,8.067,8.067,0,0,1-.869-.107l-.545-2.28-.191,2.251a7.011,7.011,0,0,1-2.723-.171L6.955,4.92l-.4,2.161a4.537,4.537,0,0,1-2.755.2L3.453,4.96,2.642,7.278S.035,8.216,0,7.278a17.679,17.679,0,0,1,.718-3.27A4.924,4.924,0,0,1,3.094.995a8.644,8.644,0,0,1,7.841-.11C13.441,2.379,13.337,7.118,13.337,7.118Z" transform="translate(52.809 1.169)" fill="#18315b"/>
                <path id="Path_52494" data-name="Path 52494" d="M3.623,0A15.454,15.454,0,0,0,.764,7.126C.057,11.694-.922,15.068,1.83,16.578c2.981,1.634,2.72-1.715,2.679-2.624s-2.578-3.4-.886-10.4A6.245,6.245,0,0,0,3.623,0Z" transform="translate(50.637 3.548)" fill="#18315b"/>
                <path id="Path_52495" data-name="Path 52495" d="M0,0H0C0,.032,0,.214.017.5c0,.177.017.391.035.634.1,1.541.4,4.2,1.277,5.121a2.944,2.944,0,0,0,1.8.62v-1.2A4.794,4.794,0,0,1,1.156,3.832,11.3,11.3,0,0,1,.061.455Z" transform="translate(53.757 12.997)" fill="#000b29"/>
                <path id="Path_52496" data-name="Path 52496" d="M.765.379A.382.382,0,1,1,.385,0,.382.382,0,0,1,.765.379Z" transform="translate(64.767 14.113)" fill="#fff"/>
                <path id="Path_52497" data-name="Path 52497" d="M20.138,17.035c-1.078,3.085-5.9,2.862-11.4,1.173H8.716l-.052-.017-.756-.24-.313-.1q-.886-.29-1.787-.64A60.445,60.445,0,0,1,0,14.634V14.6l.562-1.448.191-.5s10.191,1.112,15.312.041l.255-.055a3.063,3.063,0,0,0-.058-.339c-2.714-9.24.252-11.007,1.246-12.3C17.519-.017,22.171,11.213,20.138,17.035Z" transform="translate(53.145 26.111)" fill="#009cf8"/>
                <path id="Path_52498" data-name="Path 52498" d="M2.4,1.892a.226.226,0,0,1-.1.02.211.211,0,0,1-.194-.122C1.724,1,.406.524,0,.394L.255.339C.235.223.214.11.2,0A4.13,4.13,0,0,1,2.5,1.6a.214.214,0,0,1-.1.29Z" transform="translate(69.222 38.395)" fill="#006bde"/>
                <path id="Path_52499" data-name="Path 52499" d="M4.137,1.257c-2.08,0-3.766-.119-3.916-.13A.217.217,0,1,1,.252.695c.078,0,7.72.545,10.732-.678a.22.22,0,0,1,.29.122.217.217,0,0,1-.119.29A22.212,22.212,0,0,1,4.137,1.257Z" transform="translate(53.217 38.642)" fill="#006bde"/>
                <path id="Path_52500" data-name="Path 52500" d="M0,4.157H0c1.738-.481,3.331-.95,4.244-1.243A5.191,5.191,0,0,0,7.045.131a.218.218,0,0,1,.4.174A5.627,5.627,0,0,1,4.377,3.329c-.663.214-1.677.519-2.85.852A2.636,2.636,0,0,1,0,4.157Z" transform="translate(61.053 39.898)" fill="#006bde"/>
                <path id="Path_52501" data-name="Path 52501" d="M20.772,16.375C5.026,21.682.183,18.206.183,18.206A38.989,38.989,0,0,1,3.027,0,43.074,43.074,0,0,1,5.486,5.214l.345,7.346-.026.206v.1l-.064.5h0l.1.02c4.762,1.005,13.472-.116,13.472-.116Z" transform="translate(44.982 26.186)" fill="#009cf8"/>
                <path id="Path_52502" data-name="Path 52502" d="M2.786.533A15.642,15.642,0,0,0,.4,3.013a.217.217,0,1,1-.345-.264h0A15.932,15.932,0,0,1,2.74,0L2.676.5h0Z" transform="translate(48.025 39.062)" fill="#006bde"/>
                <path id="Path_52503" data-name="Path 52503" d="M0,3.631S1.738-.329,4.394.022l.8,2.865c-1.448.614-1.663,3.1-3.722,3.826Z" transform="translate(64.283 35.836)" fill="#ffa681"/>
                <path id="Path_52504" data-name="Path 52504" d="M9.335,3.552a6.3,6.3,0,0,0-4-3.331C2.441-.53.6.834.413,1.35S1.5,1.373,1.5,1.373A2.506,2.506,0,0,0,.187,2.4c-.481.788,1.159-.061,1.159-.061s-1.185.519-1.335,1,1.411-.33,1.7-.316c0,0-1.393.553-1.385,1.052s1.6-.313,2.792-.249a18.779,18.779,0,0,1,3.013.556,20.2,20.2,0,0,0,2.746.362Z" transform="translate(44.59 35.197)" fill="#ffa681"/>
                <rect id="Rectangle_14038" data-name="Rectangle 14038" width="119.114" height="4.632" rx="2.316" transform="translate(0 80.507)" fill="#1c31b5"/>
                <path id="Path_52505" data-name="Path 52505" d="M119.117,2.21v.107H0V2.21A2.213,2.213,0,0,1,2.21,0H116.919a2.213,2.213,0,0,1,2.2,2.21Z" transform="translate(0 80.507)" fill="#006bde"/>
                <rect id="Rectangle_14039" data-name="Rectangle 14039" width="39.149" height="21.968" rx="5.38" transform="translate(39.522 51.584)" fill="#18315b"/>
                <rect id="Rectangle_14040" data-name="Rectangle 14040" width="6.063" height="6.911" transform="translate(56.062 73.526)" fill="#000b29"/>
                <circle id="Ellipse_3145" data-name="Ellipse 3145" cx="3.01" cy="3.01" r="3.01" transform="translate(56.019 59.828)" fill="#1d567e"/>
                <path id="Path_52506" data-name="Path 52506" d="M1.935,0H13.716a1.926,1.926,0,0,1,1.926,1.926v.527H0V1.926A1.926,1.926,0,0,1,1.935,0Z" transform="translate(51.17 77.987)" fill="#18315b"/>
              </g>
            </g>
          </g>
        </g>
      </g>
      <g id="Group_81398" data-name="Group 81398" transform="translate(0 2)">
        <text id="Live_Chat" data-name="Live Chat" transform="translate(-18830 17621)" fill="#1370e4" font-size="10" font-family="Arial-BoldMT, Arial" font-weight="700"><tspan x="0" y="0">Live Chat</tspan></text>
        <text id="_1000_Leads" data-name="1000 Leads" transform="translate(-18830 17633)" fill="#6b757c" font-size="7" font-family="Arial-BoldMT, Arial" font-weight="700"><tspan x="0" y="0">1000 Leads</tspan></text>
      </g>
    </g>
    <g id="Group_81381" data-name="Group 81381" transform="translate(19122 -6116)">
      <g transform="matrix(1, 0, 0, 1, -18903, 17484)" filter="url(#Rectangle_44088-2)">
        <rect id="Rectangle_44088-4" data-name="Rectangle 44088" width="159" height="76" rx="16" transform="translate(54 39)" fill="#fff"/>
      </g>
      <g id="Ellipse_6763-2" data-name="Ellipse 6763" transform="translate(-18840 17533)" fill="none" stroke="#dfe0e4" stroke-width="1">
        <circle cx="27.5" cy="27.5" r="27.5" stroke="none"/>
        <circle cx="27.5" cy="27.5" r="27" fill="none"/>
      </g>
      <g id="Group_81380" data-name="Group 81380" transform="translate(-30658 6919)">
        <g id="Group_80009" data-name="Group 80009" transform="translate(0 -4)">
          <circle id="Ellipse_6659" data-name="Ellipse 6659" cx="24.5" cy="24.5" r="24.5" transform="translate(11821 10621)" fill="#fc3c63"/>
          <g id="Mask_Group_46" data-name="Mask Group 46" clip-path="url(#clip-path-2)">
            <g id="Group_80008" data-name="Group 80008" transform="translate(10781.857 7421.214)">
              <path id="Path_199578" data-name="Path 199578" d="M532.839,400.907H516.387c-.185-8.411,6.28-13.3,11.841-15.131a28.945,28.945,0,0,0,.324-5.376h8.55a27.764,27.764,0,0,0,.348,5.376c5.538,1.831,12.026,6.72,11.817,15.131Z" transform="translate(530.761 2848.746)" fill="#e4ae7c" fill-rule="evenodd"/>
              <path id="Path_199579" data-name="Path 199579" d="M577.366,387.023c-.533,1.02-2.41,1.993-4.333,2.016s-3.8-.9-4.333-1.877c.046-.788.07-1.506.07-2.062H577.3C577.3,385.633,577.32,386.3,577.366,387.023Z" transform="translate(490.567 2845.133)" fill="#d67f54" fill-rule="evenodd"/>
              <path id="Path_199580" data-name="Path 199580" d="M539.678,349.734c-.046-.44-1.831-.973-2.433.463a2.778,2.778,0,0,0,2.5,3.638c2.039.162,1.437-.185,1.437-.185Z" transform="translate(514.862 2872.67)" fill="#e4ae7c" fill-rule="evenodd"/>
              <path id="Path_199581" data-name="Path 199581" d="M532.837,417.578H516.385c-.162-6.836,4.055-11.331,8.62-13.764l.626-.3a17.526,17.526,0,0,1,2.6-1.066,1.789,1.789,0,0,0,.046-.348,11.626,11.626,0,0,0,9.13.116.83.83,0,0,0,.046.232A21.071,21.071,0,0,1,540,403.49l.672.348c4.565,2.433,8.759,6.928,8.6,13.741Z" transform="translate(530.763 2832.074)" fill="#575756" fill-rule="evenodd"/>
              <path id="Path_199582" data-name="Path 199582" d="M621.331,349.734c.046-.44,1.854-.973,2.433.463a2.789,2.789,0,0,1-2.5,3.638c-2.039.162-1.437-.185-1.437-.185Z" transform="translate(451.352 2872.67)" fill="#e4ae7c" fill-rule="evenodd"/>
              <path id="Path_199583" data-name="Path 199583" d="M554.026,309.391c-10.613.255-15.965-25.906,0-25.234C569.968,283.486,564.615,309.646,554.026,309.391Z" transform="translate(509.574 2922.696)" fill="#e4ae7c" fill-rule="evenodd"/>
              <path id="Path_199584" data-name="Path 199584" d="M627.155,354.82a.116.116,0,0,1-.232,0,1.111,1.111,0,0,0-.139-.672.255.255,0,0,0-.232-.116.556.556,0,0,0-.3.093,1.969,1.969,0,0,0-.788.927,4.12,4.12,0,0,0-.209.533,1.02,1.02,0,0,1,.556-.162l.232.093a.533.533,0,0,1,.162.232.811.811,0,0,1-.162.626c-.023.046-.116.046-.162.023a.116.116,0,0,1-.023-.162c.116-.185.162-.324.116-.417a.116.116,0,0,0-.07-.116l-.116-.046a.7.7,0,0,0-.51.209.146.146,0,0,1-.278-.023h0V355.7a3.523,3.523,0,0,1,.255-.741,2.317,2.317,0,0,1,.88-1.043,1.043,1.043,0,0,1,.44-.116.487.487,0,0,1,.371.185A1.3,1.3,0,0,1,627.155,354.82Z" transform="translate(447.312 2869.181)" fill="#d67f54" fill-rule="evenodd"/>
              <path id="Path_199585" data-name="Path 199585" d="M540.613,354.82a.116.116,0,0,1-.232,0,1.3,1.3,0,0,1,.209-.834.533.533,0,0,1,.394-.185.949.949,0,0,1,.417.116,2.317,2.317,0,0,1,.881,1.043,2.551,2.551,0,0,1,.255.742v.116h0a.116.116,0,0,1-.162.093c-.046,0-.07-.023-.116-.07a.7.7,0,0,0-.487-.209l-.139.046a.116.116,0,0,0-.069.116.556.556,0,0,0,.116.417.116.116,0,0,1-.023.162.139.139,0,0,1-.162-.023.811.811,0,0,1-.162-.626.832.832,0,0,1,.162-.232l.255-.093a1,1,0,0,1,.533.162,4.114,4.114,0,0,0-.209-.533,1.97,1.97,0,0,0-.788-.927.51.51,0,0,0-.3-.093.208.208,0,0,0-.208.116A1.056,1.056,0,0,0,540.613,354.82Z" transform="translate(512.327 2869.181)" fill="#d67f54" fill-rule="evenodd"/>
              <path id="Path_199587" data-name="Path 199587" d="M637.646,447.762a.185.185,0,0,1,.185-.162.162.162,0,0,1,.162.162l-.046,4.773a.162.162,0,0,1-.162.162.185.185,0,0,1-.185-.162Z" transform="translate(437.632 2797.116)" fill="#383546" fill-rule="evenodd"/>
              <path id="Path_199588" data-name="Path 199588" d="M545,336.586c.139-.533.394-2.132.394-1.877.255,4.82,2.155,7.994,3.893,9.384s-.973-3.383,5.353-3.337h.348c6.326-.046,3.638,4.7,5.353,3.337s3.638-4.565,3.893-9.384c.023-.255.255,1.344.394,1.877-1,6.025-4.82,11.748-9.8,11.632S546,342.611,545,336.586Z" transform="translate(508.775 2883.87)" fill="#784928" fill-rule="evenodd"/>
              <path id="Path_199589" data-name="Path 199589" d="M544.59,299.519a7.88,7.88,0,0,0,.185-2.178c-.023-1.413,1.946-2.109,1.692-4.124-.672-5.932,3.916-3.916,7.554-3.916v-5.144h0C544.822,283.762,542.69,292.29,544.59,299.519Z" transform="translate(509.58 2922.698)" fill="#784928" fill-rule="evenodd"/>
              <path id="Path_199590" data-name="Path 199590" d="M596.854,299.4a10.538,10.538,0,0,1-.232-2.062c-.046-1.413-1.923-2.109-1.692-4.124.672-5.932-3.916-3.916-7.531-3.916v-5.144C596.53,283.762,598.685,292.173,596.854,299.4Z" transform="translate(476.2 2922.7)" fill="#784928" fill-rule="evenodd"/>
              <path id="Path_199591" data-name="Path 199591" d="M567,340.106a.95.95,0,0,1,.208,1.321.946.946,0,1,1-1.529-1.112A.95.95,0,0,1,567,340.106Z" transform="translate(493.036 2879.841)" fill="#20201e" fill-rule="evenodd"/>
              <path id="Path_199592" data-name="Path 199592" d="M601.691,340.106a.95.95,0,1,0,1.321.209A.95.95,0,0,0,601.691,340.106Z" transform="translate(465.525 2879.841)" fill="#20201e" fill-rule="evenodd"/>
              <path id="Path_199593" data-name="Path 199593" d="M559.351,354.354c.556.417.579,1.02.07,1.344a1.819,1.819,0,0,1-1.923-.139.785.785,0,0,1-.046-1.367A1.736,1.736,0,0,1,559.351,354.354Z" transform="translate(499.498 2869.044)" fill="#da9077" fill-rule="evenodd"/>
              <path id="Path_199594" data-name="Path 199594" d="M606.657,354.354c-.556.417-.579,1.02-.07,1.344a1.819,1.819,0,0,0,1.923-.139.785.785,0,0,0,.046-1.367A1.736,1.736,0,0,0,606.657,354.354Z" transform="translate(461.739 2869.044)" fill="#da9077" fill-rule="evenodd"/>
              <path id="Path_199595" data-name="Path 199595" d="M563.4,328.848l-.116-.046a2.386,2.386,0,0,0-1.2-.162,2.711,2.711,0,0,0-1.135.348c-.185.116-.834.649-.649.857s.741-.324.927-.394a3.823,3.823,0,0,1,.88-.116,3.15,3.15,0,0,1,.811.162l.069.046c.556.255.51.44.881.185S563.836,329.08,563.4,328.848Z" transform="translate(497.053 2888.527)" fill="#3f2716" fill-rule="evenodd"/>
              <path id="Path_199596" data-name="Path 199596" d="M598.866,328.848l.093-.046a2.387,2.387,0,0,1,1.2-.162,2.619,2.619,0,0,1,1.135.348c.185.116.857.649.672.857s-.765-.324-.95-.394a3.659,3.659,0,0,0-.88-.116,2.8,2.8,0,0,0-.788.162c-.023,0-.069.023-.069.046-.579.255-.51.44-.9.185S598.4,329.08,598.866,328.848Z" transform="translate(467.886 2888.527)" fill="#3f2716" fill-rule="evenodd"/>
              <path id="Path_199597" data-name="Path 199597" d="M585,377.359a.119.119,0,0,1,.116-.209,1.159,1.159,0,0,0,.556.139,1.043,1.043,0,0,0,.556-.139.162.162,0,0,1,.162.046.116.116,0,0,1-.046.162,1.252,1.252,0,0,1-.672.162A1.368,1.368,0,0,1,585,377.359Z" transform="translate(478.094 2851.254)" fill="#d67f54" fill-rule="evenodd"/>
              <path id="Path_199598" data-name="Path 199598" d="M586.616,350.189a.116.116,0,1,1,0-.232,5.167,5.167,0,0,0,.857-.046c.209-.023.371-.093.371-.185s-.348-2.387-.348-2.387a.163.163,0,0,1,.093-.139c.069,0,.139.046.139.093s.347,2.085.347,2.433-.255.371-.556.417A5.9,5.9,0,0,1,586.616,350.189Z" transform="translate(476.891 2874.253)" fill="#d67f54" fill-rule="evenodd"/>
              <path id="Path_199599" data-name="Path 199599" d="M557.3,331.2a3.406,3.406,0,1,1-2.41,1A3.314,3.314,0,0,1,557.3,331.2Zm1.993,1.413a2.827,2.827,0,0,0-4.009,0,2.781,2.781,0,0,0-.811,1.993,2.815,2.815,0,1,0,5.631,0A2.781,2.781,0,0,0,559.29,332.613Z" transform="translate(501.946 2886.546)" fill="#2e1e11" fill-rule="evenodd"/>
              <path id="Path_199600" data-name="Path 199600" d="M594.9,331.2a3.406,3.406,0,0,1,0,6.789,3.395,3.395,0,1,1,0-6.789Zm1.993,1.413a2.758,2.758,0,0,0-1.993-.834,2.711,2.711,0,0,0-1.993.834,2.8,2.8,0,0,0-.834,1.993,2.85,2.85,0,0,0,.834,1.993,2.8,2.8,0,0,0,1.993.834,2.85,2.85,0,0,0,2.827-2.827A2.8,2.8,0,0,0,596.9,332.613Z" transform="translate(473.051 2886.546)" fill="#2e1e11" fill-rule="evenodd"/>
              <path id="Path_199601" data-name="Path 199601" d="M547.446,344.651a.22.22,0,1,1,.139.417l-2.016.741a.232.232,0,0,1-.3-.139.255.255,0,0,1,.139-.3Z" transform="translate(508.577 2876.223)" fill="#2e1e11" fill-rule="evenodd"/>
              <path id="Path_199602" data-name="Path 199602" d="M618.89,345.066a.208.208,0,0,1-.139-.278.232.232,0,0,1,.3-.139l2.016.718a.232.232,0,0,1,.139.3.208.208,0,0,1-.278.139Z" transform="translate(452.124 2876.225)" fill="#2e1e11" fill-rule="evenodd"/>
              <path id="Path_199603" data-name="Path 199603" d="M580.791,341.7a.229.229,0,1,1-.394-.232,1.789,1.789,0,0,1,1.6-.672,1.722,1.722,0,0,1,1.576.672.232.232,0,0,1-.07.324.255.255,0,0,1-.324-.093s-.255-.44-1.182-.44S580.791,341.7,580.791,341.7Z" transform="translate(481.604 2879.17)" fill="#2e1e11" fill-rule="evenodd"/>
              <path id="Path_199604" data-name="Path 199604" d="M579.006,364.8a17.572,17.572,0,0,1-7.206.069C572.565,367.6,578.265,367.557,579.006,364.8Z" transform="translate(488.185 2860.731)" fill="#fff" fill-rule="evenodd"/>
              <path id="Path_199605" data-name="Path 199605" d="M548.2,289.462a7.254,7.254,0,0,0,2.734-.116c1.506-.811,3.174.208,6.349.185,1.437,0,5.283-.3,6.627-1.877.672-.788.324.579-.973,1.46a7.659,7.659,0,0,0,3.429.371c-1.367-3.267-4.24-5.538-9.083-5.329h0C552.44,283.947,549.567,286.218,548.2,289.462Z" transform="translate(506.316 2922.7)" fill="#231a11" fill-rule="evenodd"/>
              <path id="Path_199606" data-name="Path 199606" d="M561.6,404.248a.348.348,0,0,1,.7,0,12.512,12.512,0,0,0,1.761,6.187c.95,1.552,2.2,2.642,3.522,2.642s2.6-1.066,3.545-2.618a12.326,12.326,0,0,0,1.715-6.21.348.348,0,0,1,.7,0,13.16,13.16,0,0,1-1.807,6.558c-1.089,1.761-2.572,2.966-4.148,2.966s-3.035-1.228-4.1-2.989A13.138,13.138,0,0,1,561.6,404.248Z" transform="translate(496.021 2830.69)" fill="#d57b19" fill-rule="evenodd"/>
            </g>
          </g>
        </g>
      </g>
      <text id="Chatbot" transform="translate(-18774 17559)" fill="#0b6fed" font-size="12" font-family="Arial-BoldMT, Arial" font-weight="700"><tspan x="0" y="0">Chatbot</tspan></text>
      <text id="_869_Leads" data-name="869 Leads" transform="translate(-18774 17574)" fill="#6b757c" font-size="7" font-family="Arial-BoldMT, Arial" font-weight="700"><tspan x="0" y="0">869 Leads</tspan></text>
    </g>
    <circle id="Ellipse_6764" data-name="Ellipse 6764" cx="16.5" cy="16.5" r="16.5" transform="translate(447 11414)" fill="url(#linear-gradient-2)"/>
    <circle id="Ellipse_6765" data-name="Ellipse 6765" cx="16.5" cy="16.5" r="16.5" transform="translate(219 11431)" fill="url(#linear-gradient-3)"/>
    <g id="Group_81394" data-name="Group 81394" transform="translate(19315 -5960)">
      <circle id="Ellipse_6766" data-name="Ellipse 6766" cx="19.5" cy="19.5" r="19.5" transform="translate(-18901 17479)" fill="url(#linear-gradient-4)"/>
      <g id="icon" transform="translate(-18892 17487)">
        <path id="Path_203384" data-name="Path 203384" d="M57.086,41.257A10.979,10.979,0,0,0,39.5,53.96l-1.165,5.656a.414.414,0,0,0,.067.329.422.422,0,0,0,.448.175l5.533-1.313a10.979,10.979,0,0,0,12.7-17.549Zm-1.73,13.8a8.609,8.609,0,0,1-9.9,1.622l-.775-.384-3.4.8V57.05L42,53.622l-.379-.746A8.6,8.6,0,0,1,55.356,42.9l.038.052a8.6,8.6,0,0,1-.044,12.109Z" transform="translate(-38.299 -37.997)" fill="#fff"/>
        <path id="Path_203385" data-name="Path 203385" d="M68.3,66.439A3.589,3.589,0,0,1,66.4,68.1c-1.456.349-3.672,0-6.448-2.566l-.035-.032C57.5,63.244,56.862,61.366,57,59.877a3.562,3.562,0,0,1,1.383-2.111.792.792,0,0,1,1.238.291l.894,2.021a.786.786,0,0,1-.1.8l-.454.582a.772.772,0,0,0-.061.859,8.445,8.445,0,0,0,1.535,1.707,9.078,9.078,0,0,0,2.126,1.523.772.772,0,0,0,.842-.178l.521-.53a.789.789,0,0,1,.8-.221l2.126.609a.8.8,0,0,1,.449,1.206Z" transform="translate(-51.543 -51.876)" fill="#fff"/>
      </g>
    </g>
    <g id="Group_81692" data-name="Group 81692">
      <rect id="Rectangle_44089" data-name="Rectangle 44089" width="66" height="52" rx="8" transform="translate(405 11458)" fill="url(#linear-gradient-5)"/>
      <g id="Group_81395" data-name="Group 81395" transform="translate(19318 -5960)">
        <line id="Line_546" data-name="Line 546" x2="46" transform="translate(-18900.5 17432.5)" fill="none" stroke="#fff" stroke-width="1" opacity="0.5"/>
        <line id="Line_546-2" data-name="Line 546" x2="46" transform="translate(-18900.5 17440.5)" fill="none" stroke="#fff" stroke-width="1" opacity="0.5"/>
        <line id="Line_546-3" data-name="Line 546" x2="46" transform="translate(-18900.5 17448.5)" fill="none" stroke="#fff" stroke-width="1" opacity="0.5"/>
        <line id="Line_546-4" data-name="Line 546" x2="46" transform="translate(-18900.5 17456.5)" fill="none" stroke="#fff" stroke-width="1" opacity="0.5"/>
        <text id="_01" data-name="01" transform="translate(-18905 17433)" fill="#fff" font-size="2" font-family="Inter-SemiBold, Inter" font-weight="600"><tspan x="0" y="0">01</tspan></text>
        <text id="_01-2" data-name="01" transform="translate(-18905 17441)" fill="#fff" font-size="2" font-family="Inter-SemiBold, Inter" font-weight="600"><tspan x="0" y="0">01</tspan></text>
        <text id="_01-3" data-name="01" transform="translate(-18905 17449)" fill="#fff" font-size="2" font-family="Inter-SemiBold, Inter" font-weight="600"><tspan x="0" y="0">01</tspan></text>
        <text id="_01-4" data-name="01" transform="translate(-18905 17457)" fill="#fff" font-size="2" font-family="Inter-SemiBold, Inter" font-weight="600"><tspan x="0" y="0">01</tspan></text>
      </g>
      <g id="Group_81397" data-name="Group 81397" transform="translate(19009.23 -6115.504)">
        <path id="Path_260189" data-name="Path 260189" d="M-18604.23,17606.8s18.879,7.229,33.928-8.094,24.725-.018,31.838,1.078" fill="none" stroke="#fff" stroke-width="1.5"/>
        <g id="Group_81396" data-name="Group 81396" transform="translate(-73 22.945)">
          <circle id="Ellipse_6767" data-name="Ellipse 6767" cx="4" cy="4" r="4" transform="translate(-18487 17565.055)" fill="#fff"/>
          <circle id="Ellipse_6768" data-name="Ellipse 6768" cx="2" cy="2" r="2" transform="translate(-18485 17567.055)" fill="#2f89e3"/>
        </g>
      </g>
    </g>
    <g id="donut-chart" transform="translate(226.25 11438.25)">
      <g id="Group_81400" data-name="Group 81400" transform="translate(0 0)">
        <g id="Group_81399" data-name="Group 81399" transform="translate(0 0)">
          <path id="Path_260190" data-name="Path 260190" d="M0,8.06a.542.542,0,0,0,.538.609H2.747a.542.542,0,0,0,.534-.452A6.016,6.016,0,0,1,8.217,3.282a.542.542,0,0,0,.452-.535V.542A.542.542,0,0,0,8.06,0h0A9.285,9.285,0,0,0,0,8.06Z" transform="translate(0 0)" fill="#fff"/>
          <path id="Path_260191" data-name="Path 260191" d="M12.7,274.513a6.006,6.006,0,0,1-9.422-3.9.542.542,0,0,0-.534-.452H.542a.542.542,0,0,0-.538.609H0A9.291,9.291,0,0,0,9.215,278.9a9.193,9.193,0,0,0,5.7-1.955.542.542,0,0,0,.05-.811l-1.56-1.56A.542.542,0,0,0,12.7,274.513Z" transform="translate(0 -260.397)" fill="#fff"/>
          <path id="Path_260192" data-name="Path 260192" d="M270.609,3.282a6.006,6.006,0,0,1,3.9,9.422.542.542,0,0,0,.058.7l1.56,1.56a.542.542,0,0,0,.811-.05h0a9.193,9.193,0,0,0,1.955-5.7A9.291,9.291,0,0,0,270.766,0h0a.542.542,0,0,0-.609.538V2.747a.542.542,0,0,0,.452.535Z" transform="translate(-260.396 0)" fill="#fff"/>
        </g>
      </g>
      <g id="Group_81401" data-name="Group 81401" transform="translate(5.422 5.491)">
        <path id="Path_260193" data-name="Path 260193" d="M231.277,151.964h-.723a.542.542,0,0,0-.542.542v6.323h1.807v-6.323A.542.542,0,0,0,231.277,151.964Z" transform="translate(-227.122 -151.964)" fill="#fff"/>
        <path id="Path_260194" data-name="Path 260194" d="M310.024,197.383h1.265a.542.542,0,0,0,.542-.542V192.5a.542.542,0,0,0-.542-.542h-1.265Z" transform="translate(-304.243 -190.518)" fill="#fff"/>
        <path id="Path_260195" data-name="Path 260195" d="M151.844,231.963H150.58a.542.542,0,0,0-.542.542V235.4a.542.542,0,0,0,.542.542h1.264Z" transform="translate(-150.038 -229.072)" fill="#fff"/>
      </g>
    </g>
    <g id="percentage" transform="translate(456.492 11423.281)">
      <g id="Group_81403" data-name="Group 81403" transform="translate(0 0.216)">
        <g id="Group_81402" data-name="Group 81402">
          <path id="Path_260196" data-name="Path 260196" d="M8.225.216l1.93,1.93L0,12.572,1.648,14.22,11.871,3.862l2.144,2.144V.216Z" transform="translate(0 -0.216)" fill="#fff"/>
        </g>
      </g>
      <g id="Group_81405" data-name="Group 81405" transform="translate(7.331 8.019)">
        <g id="Group_81404" data-name="Group 81404">
          <path id="Path_260197" data-name="Path 260197" d="M270.756,285.251a2.968,2.968,0,1,0,2.968,2.968A2.971,2.971,0,0,0,270.756,285.251Zm0,4.288a1.32,1.32,0,1,1,1.32-1.32A1.321,1.321,0,0,1,270.756,289.539Z" transform="translate(-267.788 -285.251)" fill="#fff"/>
        </g>
      </g>
      <g id="Group_81407" data-name="Group 81407" transform="translate(0.463 0.469)">
        <g id="Group_81406" data-name="Group 81406">
          <path id="Path_260198" data-name="Path 260198" d="M19.873,9.466a2.968,2.968,0,1,0,2.968,2.968A2.971,2.971,0,0,0,19.873,9.466Zm0,4.288a1.32,1.32,0,1,1,1.32-1.32A1.321,1.321,0,0,1,19.873,13.754Z" transform="translate(-16.905 -9.466)" fill="#fff"/>
        </g>
      </g>
    </g>
  </g>
</svg>
