<svg xmlns="http://www.w3.org/2000/svg" viewBox="0 0 685.2 172.4"><defs><style>.a{fill:#8c98a4;}</style></defs><path class="a" d="M279.9,53.4V36.7h20.9V53.4Zm20.9,66.9H279.9V61.8h20.9Z"/><path class="a" d="M330.8,120.3H309.9V61.6h19.2v9.2a25.5,25.5,0,0,1,8-8.3A19.7,19.7,0,0,1,347,60c6.4,0,11.4,2,14.9,6s5.3,9.9,5.3,17.8v36.5H346.3V88c0-3.4-.7-5.9-2-7.4a6.8,6.8,0,0,0-5.6-2.3A7.1,7.1,0,0,0,333,81c-1.5,1.8-2.2,4.7-2.2,8.6Z"/><path class="a" d="M397.6,76.8a8.2,8.2,0,0,1,6.4-2.6,9,9,0,0,1,6.9,2.7,10.5,10.5,0,0,1,2.7,7.6H394.8C395,81.1,396,78.5,397.6,76.8Zm35.6,7.5a34,34,0,0,0-6-13.2,24.5,24.5,0,0,0-10.4-8.3,32.5,32.5,0,0,0-13.2-2.7c-8.9,0-16.1,3-21.6,8.9s-8.1,13.6-8.1,23,2.7,16,8.1,21.7,12.8,8.5,22.3,8.5a33.9,33.9,0,0,0,15.4-3.4,27.6,27.6,0,0,0,10-8.7,18.5,18.5,0,0,0,3-7.5H412.8a7.8,7.8,0,0,1-7.6,4.8,10.2,10.2,0,0,1-7.7-2.9c-1.8-1.9-2.7-4.7-2.9-8.1h39.8A52,52,0,0,0,433.2,84.3Z"/><path class="a" d="M477.1,80.6c1.7,2.2,2.5,5.6,2.5,10.1a24.7,24.7,0,0,1-1.1,7.5,9.5,9.5,0,0,1-3.2,4.6,7.8,7.8,0,0,1-4.7,1.5,7.4,7.4,0,0,1-6.2-3.3Q462,97.7,462,90.2c0-4.2.8-7.5,2.6-9.7a7.7,7.7,0,0,1,6.3-3.3A7.5,7.5,0,0,1,477.1,80.6Zm-14.6,33.9a24,24,0,0,0,3.9,4.5,11.8,11.8,0,0,0,4.2,2.3,18.2,18.2,0,0,0,6.1.9c6.7,0,12.3-2.8,16.9-8.4s6.9-13.2,6.9-22.8a43,43,0,0,0-2.8-16,23.7,23.7,0,0,0-8.3-11.1,21,21,0,0,0-12.2-3.8,19,19,0,0,0-10.6,3,15.5,15.5,0,0,0-6.3,7.4V61.8H441.6v81.3h20.9Z"/><path class="a" d="M532,104.9a9,9,0,0,1-3.3-4.7,24,24,0,0,1-1.3-8.8c0-5.7.9-9.7,2.6-12.2a7.6,7.6,0,0,1,6.4-3.6,6.9,6.9,0,0,1,5.9,3.1c2,2.8,2.9,6.9,2.9,12.2a29.4,29.4,0,0,1-1.1,9.1,9.7,9.7,0,0,1-3.2,4.9,7.3,7.3,0,0,1-4.4,1.5A8.1,8.1,0,0,1,532,104.9ZM514.4,68.7c-5.3,5.7-7.9,13.3-7.9,22.8,0,6.9,1.4,12.7,4.2,17.5a25.5,25.5,0,0,0,11.2,10.2,36.5,36.5,0,0,0,14.4,3,30.9,30.9,0,0,0,16.1-4.1,24.8,24.8,0,0,0,10.4-10.9,35.4,35.4,0,0,0,3.4-15.9c0-9.5-2.6-17-7.9-22.7s-12.6-8.5-22.1-8.5S519.6,62.9,514.4,68.7Z"/><path class="a" d="M594.5,120.3H573.8V39.5h20.7Z"/><path class="a" d="M603.7,54.1V37.4h20.9V54.1Zm20.9,66.2H603.7V61.8h20.9Z"/><path class="a" d="M630.6,102h19.9a7.3,7.3,0,0,0,2.1,5.3,7,7,0,0,0,5.4,2.1,6.8,6.8,0,0,0,4.7-1.5,4.7,4.7,0,0,0,1.6-3.7,4.5,4.5,0,0,0-.9-2.8,5.8,5.8,0,0,0-3.2-1.8l-11.8-3.1c-6-1.7-10.2-3.9-12.6-6.8a15.9,15.9,0,0,1-3.6-10.5,18.5,18.5,0,0,1,2.8-9.9,19.9,19.9,0,0,1,8.4-6.8A36.3,36.3,0,0,1,657.7,60c8.8,0,15.2,1.8,19.2,5.3a18.2,18.2,0,0,1,6.3,13h-19a6,6,0,0,0-6.4-5.7,6.9,6.9,0,0,0-4.5,1.4,3.4,3.4,0,0,0-1.3,2.8,3.7,3.7,0,0,0,1,2.4c.7.7,2.2,1.3,4.7,2l9.9,2.5c6.6,1.6,11.2,4,13.7,7.1a16.3,16.3,0,0,1,3.9,11,19.3,19.3,0,0,1-2.2,9,18.5,18.5,0,0,1-5.8,6.6,28.4,28.4,0,0,1-8.7,3.6,52.2,52.2,0,0,1-10.6,1.1,48.2,48.2,0,0,1-12-1.4,21.3,21.3,0,0,1-8.7-4.6,20.1,20.1,0,0,1-5-7A23.4,23.4,0,0,1,630.6,102Z"/><path class="a" d="M406.3,54.2h11.3l14.3-13.7H414.5Z"/><path class="a" d="M244.2,62.8c-.5-7.7-6.2-12-15.8-12-13.4,0-15.8,15.8-15.8,28.6s2.6,26.9,15.8,26.9c9.8,0,15.4-4.3,15.8-12.5h24.5c.3,21.4-19.9,29-40.3,29-26.2,0-40.3-15.9-40.3-44.4s14.1-43.9,40.3-44.1c20.4,0,40.6,7,40.3,28.5Z"/><path class="a" d="M89.2,0H55.4c9.5,17.9,1.7,37.7-.3,43.8C49.3,62,46.8,69.5,46.8,69.5H80.2s2.6-7.8,8.5-26C90.7,37.3,96.3,18.5,89.2,0Zm1.5,16.9v1.5a.5.5,0,0,1-.5.5H88a.5.5,0,0,1-.5-.5V16.9a.5.5,0,0,1,.5-.5h2.2A.5.5,0,0,1,90.7,16.9Zm-.4-4.8v1.4c.1.3-.1.5-.4.5H87.8a.5.5,0,0,1-.5-.5L87.1,12a.4.4,0,0,1,.4-.4h2.3C90,11.6,90.2,11.8,90.3,12.1Zm-.8-4.9.2,1.5c.1.2-.1.4-.3.4H87.1a.6.6,0,0,1-.6-.5l-.2-1.4a.3.3,0,0,1,.3-.5h2.3A.7.7,0,0,1,89.5,7.2ZM85.3,1.8h2.2a.6.6,0,0,1,.6.5l.4,1.5a.4.4,0,0,1-.3.5H85.9c-.2,0-.5-.3-.6-.5l-.4-1.5C84.9,2,85,1.8,85.3,1.8ZM64.6,11.9l.3,1.5c0,.3-.1.5-.4.5H62.2a.6.6,0,0,1-.5-.5l-.2-1.5a.3.3,0,0,1,.3-.5h2.3A.6.6,0,0,1,64.6,11.9ZM63.5,7,64,8.5a.3.3,0,0,1-.3.5H61.4a.6.6,0,0,1-.6-.5L60.3,7a.4.4,0,0,1,.3-.5h2.3C63.1,6.5,63.4,6.8,63.5,7ZM59.8,4.1a.7.7,0,0,1-.6-.5l-.7-1.5c-.1-.2,0-.4.2-.4H61a1,1,0,0,1,.7.5l.6,1.4c.2.3,0,.5-.2.5ZM52.9,66.9a.6.6,0,0,1-.6.5H50.1c-.3,0-.4-.2-.3-.5l.5-1.5a.6.6,0,0,1,.6-.5h2.2a.3.3,0,0,1,.3.5ZM54.5,62a.7.7,0,0,1-.6.5H51.6a.3.3,0,0,1-.3-.5l.5-1.5a.8.8,0,0,1,.6-.4h2.3a.3.3,0,0,1,.3.5Zm1.6-4.8a.7.7,0,0,1-.6.5H53.2c-.2,0-.4-.2-.3-.4l.5-1.5a.7.7,0,0,1,.6-.5h2.3a.3.3,0,0,1,.3.5Zm1.5-4.9a.6.6,0,0,1-.6.5H54.8c-.3,0-.4-.2-.3-.5l.5-1.5a.6.6,0,0,1,.6-.5h2.2c.3,0,.4.2.3.4Zm1.6-4.8a.8.8,0,0,1-.6.4H56.3a.3.3,0,0,1-.3-.5l.5-1.4a.7.7,0,0,1,.6-.5h2.3a.3.3,0,0,1,.3.5Zm1.6-4.9a.7.7,0,0,1-.6.5H57.9a.4.4,0,0,1-.3-.5l.5-1.5a.7.7,0,0,1,.6-.5H61a.3.3,0,0,1,.3.5Zm1.5-4.9a.6.6,0,0,1-.6.5H59.5c-.3,0-.4-.2-.4-.5l.5-1.5a.8.8,0,0,1,.6-.4h2.3c.2,0,.4.2.3.4Zm1.3-4.8a.6.6,0,0,1-.5.5H60.8c-.3,0-.4-.2-.3-.4l.3-1.5a.5.5,0,0,1,.5-.5h2.3c.3,0,.4.2.4.5Zm1-4.9a.6.6,0,0,1-.6.5H61.8c-.3,0-.5-.2-.4-.5l.2-1.5a.5.5,0,0,1,.5-.5h2.3c.2,0,.4.3.4.5Zm.6-4.9a.5.5,0,0,1-.5.5H62.4a.5.5,0,0,1-.4-.5V21.6a.5.5,0,0,1,.5-.4h2.2a.5.5,0,0,1,.5.5Zm-.4-4.3H62.6a.5.5,0,0,1-.5-.4V16.8a.5.5,0,0,1,.5-.5h2.2a.5.5,0,0,1,.5.5v1.5A.5.5,0,0,1,64.8,18.8ZM79,67.3a.8.8,0,0,1-.7.5H76.1c-.3,0-.4-.2-.3-.5l.5-1.5a.6.6,0,0,1,.6-.5h2.2c.3,0,.4.2.3.4Zm1.5-4.9a.6.6,0,0,1-.6.5H77.7c-.3,0-.4-.2-.3-.5l.4-1.5a.9.9,0,0,1,.7-.5h2.2c.3,0,.4.2.3.4Zm1.6-4.9a.6.6,0,0,1-.6.5H79.2c-.2,0-.3-.2-.3-.5l.5-1.5a.8.8,0,0,1,.6-.4h2.3c.3,0,.4.2.3.4Zm1.6-4.9a.7.7,0,0,1-.6.5H80.8a.3.3,0,0,1-.3-.5l.5-1.5c.1-.2.4-.5.6-.4h2.3a.3.3,0,0,1,.3.5Zm1.6-4.9a.6.6,0,0,1-.6.5H82.4c-.2,0-.3-.2-.3-.5l.5-1.5a.8.8,0,0,1,.6-.4h2.3c.3,0,.4.2.3.5Zm1.6-4.8a.8.8,0,0,1-.6.4H84a.3.3,0,0,1-.3-.5l.5-1.4a.6.6,0,0,1,.6-.5h2.3a.3.3,0,0,1,.3.5ZM88.3,38a.8.8,0,0,1-.6.4H85.4c-.3,0-.4-.2-.3-.5l.4-1.4a.6.6,0,0,1,.6-.5h2.2c.3,0,.4.2.3.5Zm1.1-4.9a.7.7,0,0,1-.6.4H86.6a.4.4,0,0,1-.4-.4l.3-1.5a.5.5,0,0,1,.5-.5h2.3a.5.5,0,0,1,.4.5Zm.7-4.9a.5.5,0,0,1-.5.5H87.4c-.3,0-.5-.3-.4-.5l.2-1.5a.5.5,0,0,1,.5-.5h2.2c.3,0,.5.2.4.5Zm.5-4.9a.5.5,0,0,1-.5.5H87.8c-.2,0-.4-.3-.4-.5V21.8a.5.5,0,0,1,.5-.5h2.2a.5.5,0,0,1,.5.5Z"/><path class="a" d="M170,56.6,159.5,24.4C145.4,39,124.2,37.7,117.8,37.7H90.7l10.4,31.8h27.4C134.9,69.5,154.5,69,170,56.6Zm-15.7,6.6-1.4.5a.5.5,0,0,1-.6-.3l-.7-2.1a.5.5,0,0,1,.3-.6l1.4-.5c.3-.1.6,0,.6.3l.7,2.1A.4.4,0,0,1,154.3,63.2Zm4.5-1.9-1.3.6c-.3.1-.6,0-.6-.2l-.7-2.2a.4.4,0,0,1,.3-.6l1.4-.6c.2-.1.5,0,.5.2l.7,2.2A.4.4,0,0,1,158.8,61.3Zm4.4-2.3-1.3.8a.4.4,0,0,1-.6-.3l-.7-2.1c-.1-.2.1-.5.3-.7l1.3-.7a.4.4,0,0,1,.6.2l.7,2.2C163.6,58.6,163.4,58.9,163.2,59Zm3.8-5.6.7,2.1a.5.5,0,0,1-.3.7l-1.3.9c-.2.1-.4.1-.5-.2l-.7-2.1a.5.5,0,0,1,.3-.7l1.3-.9C166.7,53.1,166.9,53.1,167,53.4ZM151,36.9l-1.3.7a.5.5,0,0,1-.6-.2l-.7-2.2a1.1,1.1,0,0,1,.3-.7l1.4-.6c.2-.2.5-.1.6.2l.6,2.1C151.4,36.5,151.3,36.7,151,36.9Zm4.3-2.6-1.2.9c-.3.2-.5.1-.6-.1l-.7-2.2a.7.7,0,0,1,.3-.7l1.3-.9c.2-.2.5-.1.5.1l.7,2.2A.6.6,0,0,1,155.3,34.3Zm1.7-4.4a.8.8,0,0,1,.2-.8l1.2-1.1c.3-.2.5-.1.6.1l.7,2.2a1.3,1.3,0,0,1-.3.8l-1.2,1c-.2.2-.4.2-.5,0ZM95.1,42.7a.7.7,0,0,1-.6-.4l-.7-2.2c-.1-.2.1-.4.4-.4h1.5a.8.8,0,0,1,.7.4l.7,2.2a.4.4,0,0,1-.4.4Zm5.1,0a.8.8,0,0,1-.6-.4l-.7-2.2c-.1-.2.1-.4.4-.4h1.5a.8.8,0,0,1,.7.4l.7,2.2a.4.4,0,0,1-.4.4Zm5.2,0a.8.8,0,0,1-.7-.4l-.7-2.2c-.1-.2.1-.4.4-.4h1.5a.8.8,0,0,1,.7.4l.7,2.2a.4.4,0,0,1-.4.4Zm5,0a.8.8,0,0,1-.6-.4l-.7-2.2c-.1-.2.1-.4.4-.4h1.6a.8.8,0,0,1,.6.4l.7,2.2c.1.2-.1.4-.4.4Zm5.2,0a.8.8,0,0,1-.7-.4l-.7-2.2c-.1-.2.1-.4.4-.4h1.5a.8.8,0,0,1,.7.4l.7,2.2c.1.2-.1.4-.4.4Zm5.1,0a.8.8,0,0,1-.7-.4l-.7-2.2a.4.4,0,0,1,.4-.4h1.6a.8.8,0,0,1,.6.4l.7,2.2c.1.2-.1.4-.4.4Zm5.1,0a.8.8,0,0,1-.7-.5l-.7-2.1c0-.3.1-.5.4-.5h1.6a.8.8,0,0,1,.6.4l.7,2.2c.1.2-.1.4-.4.4Zm5-.3c-.3,0-.6-.1-.6-.4l-.7-2.1a.3.3,0,0,1,.3-.5l1.5-.2a.8.8,0,0,1,.7.4l.7,2.2a.5.5,0,0,1-.4.5Zm4.9-.6a.5.5,0,0,1-.6-.4l-.7-2.1c-.1-.3.1-.5.4-.6l1.4-.2a.7.7,0,0,1,.7.4l.6,2.1a.3.3,0,0,1-.3.5Zm4.8-1a.4.4,0,0,1-.6-.3l-.7-2.1a.6.6,0,0,1,.4-.6l1.4-.4a.4.4,0,0,1,.6.3l.7,2.1a.5.5,0,0,1-.4.6Zm4.1-1.6-.7-2.2c-.1-.2.1-.5.3-.6l1.4-.5a.4.4,0,0,1,.6.3l.7,2.1a.5.5,0,0,1-.3.6l-1.4.5A.4.4,0,0,1,144.6,39.2ZM102.8,67.6a.8.8,0,0,1-.7-.4l-.7-2.2c-.1-.2.1-.4.4-.4h1.5a.8.8,0,0,1,.7.4l.7,2.2a.4.4,0,0,1-.4.4Zm5.1,0a.8.8,0,0,1-.7-.4l-.6-2.2c-.1-.2.1-.4.3-.4h1.6c.3,0,.6.2.6.4l.7,2.2c.1.2-.1.4-.3.4Zm5.1,0a.8.8,0,0,1-.6-.4l-.7-2.2c-.1-.2.1-.4.4-.4h1.5a.8.8,0,0,1,.7.4l.7,2.2a.4.4,0,0,1-.4.4Zm5.2,0a.8.8,0,0,1-.7-.4l-.6-2.2c-.1-.2,0-.4.3-.4h1.6c.3,0,.6.2.6.4l.7,2.2c.1.2-.1.4-.4.4Zm5.1,0a.8.8,0,0,1-.6-.4L122,65c-.1-.2.1-.4.4-.4h1.5a.8.8,0,0,1,.7.4l.7,2.2a.4.4,0,0,1-.4.4Zm5.2,0a.8.8,0,0,1-.7-.4l-.7-2.2a.4.4,0,0,1,.4-.4h1.6a.8.8,0,0,1,.6.4l.7,2.2c.1.2-.1.4-.4.4Zm5-.2a.8.8,0,0,1-.6-.4l-.7-2.2c-.1-.2.1-.4.4-.4h1.5a.8.8,0,0,1,.7.4l.6,2.1c.1.3,0,.5-.3.5Zm5.1-.4a.8.8,0,0,1-.7-.4l-.6-2.2c-.1-.2,0-.4.3-.5l1.5-.2a.7.7,0,0,1,.6.4l.7,2.2c.1.2-.1.4-.3.5Zm4.8-.8a.6.6,0,0,1-.6-.4l-.7-2.1c-.1-.3.1-.5.4-.6l1.4-.2a.6.6,0,0,1,.7.3l.6,2.2c.1.2,0,.4-.3.5Zm4.8-1.1c-.2.1-.5-.1-.6-.3l-.7-2.2c0-.2.1-.5.4-.5l1.4-.4a.4.4,0,0,1,.6.3l.7,2.1a.5.5,0,0,1-.3.6Z"/><path class="a" d="M141.2,150.9l27.3-20c-18.2-8.8-23.5-29.4-25.5-35.5-6-18.2-8.4-25.7-8.4-25.7l-27,19.7h0s2.5,7.9,8.5,26.1C118.1,121.5,124.6,140.1,141.2,150.9ZM130,138l-.8-1.1c-.2-.3-.2-.6,0-.7l1.9-1.3a.4.4,0,0,1,.6.1l.9,1.2c.2.2.2.5-.1.6l-1.8,1.4A.5.5,0,0,1,130,138Zm3.3,3.7-1-1.1a.4.4,0,0,1,0-.6l1.8-1.3a.5.5,0,0,1,.7.1l1,1.1c.2.2.2.5,0,.6l-1.8,1.3A.5.5,0,0,1,133.3,141.7Zm3.5,3.5-1.1-1c-.2-.2-.2-.5,0-.6l1.8-1.4a.8.8,0,0,1,.8.1l1.1,1c.2.2.2.5,0,.6l-1.9,1.4A.6.6,0,0,1,136.8,145.2Zm6.6,1.9-1.9,1.3a.6.6,0,0,1-.7-.1l-1.2-.9c-.3-.2-.3-.4-.1-.6l1.9-1.3c.2-.2.5-.1.7,0l1.2,1C143.6,146.7,143.6,146.9,143.4,147.1Zm10.7-20.3-1.1-1.1c-.2-.2-.2-.5,0-.6l1.9-1.3a.5.5,0,0,1,.7.1l1,1a.3.3,0,0,1,0,.6l-1.8,1.3C154.6,127,154.3,126.9,154.1,126.8Zm3.8,3.2-1.3-.9a.4.4,0,0,1,0-.6l1.8-1.3a1.1,1.1,0,0,1,.8,0l1.2,1c.3.2.3.4.1.6l-1.9,1.3A.6.6,0,0,1,157.9,130Zm4.6.2h.9l1.4.9c.2.1.3.3.1.5l-1.9,1.3a.6.6,0,0,1-.8,0l-1.4-.8c-.3-.2-.3-.4-.1-.6ZM131.1,75.4c0-.2.1-.6.3-.7l1.8-1.3c.2-.2.4-.1.5.2l.5,1.5a.6.6,0,0,1-.2.7l-1.9,1.3c-.1.2-.4.1-.5-.2Zm1.7,4.9a.8.8,0,0,1,.2-.8l1.8-1.3c.2-.1.4-.1.5.2l.5,1.5a.8.8,0,0,1-.2.8L133.8,82a.4.4,0,0,1-.6-.3Zm1.5,4.8a.6.6,0,0,1,.2-.7l1.9-1.3c.2-.2.4-.1.5.2l.5,1.5a.6.6,0,0,1-.2.7l-1.9,1.3c-.2.2-.4.1-.5-.2Zm1.6,4.9a.8.8,0,0,1,.2-.8l1.9-1.3a.4.4,0,0,1,.5.2l.5,1.5a.8.8,0,0,1-.2.8l-1.9,1.3a.4.4,0,0,1-.5-.2Zm1.6,4.8a.6.6,0,0,1,.2-.7l1.9-1.3c.2-.2.4-.1.5.2l.5,1.5a.6.6,0,0,1-.2.7l-1.9,1.3c-.2.2-.4.1-.5-.2Zm1.6,4.9a.8.8,0,0,1,.2-.8l1.9-1.3a.4.4,0,0,1,.5.2l.5,1.5a1.1,1.1,0,0,1-.3.8l-1.8,1.3a.4.4,0,0,1-.5-.2Zm1.6,4.8c0-.2,0-.6.2-.7l1.9-1.3c.2-.2.4-.1.5.2l.5,1.4a.8.8,0,0,1-.2.8l-1.8,1.3c-.2.2-.5.1-.6-.2Zm1.8,4.7a.6.6,0,0,1,.2-.7l1.8-1.3c.3-.2.5-.1.6.2l.6,1.4a.6.6,0,0,1-.1.7l-1.9,1.3c-.2.2-.4.1-.6-.2Zm2.2,4.5a.5.5,0,0,1,.1-.7l1.8-1.3a.4.4,0,0,1,.6.1l.7,1.4a.6.6,0,0,1-.1.7l-1.9,1.3c-.2.2-.4.1-.6-.2ZM147,118a.6.6,0,0,1,.1-.7L149,116c.2-.1.5-.1.6.1l.9,1.2c.1.3.1.6-.1.7l-1.8,1.3a.5.5,0,0,1-.7-.1Zm2.9,3.3,1.8-1.3a.6.6,0,0,1,.7.1l.9,1.2c.2.2.2.5,0,.6l-1.9,1.4a.6.6,0,0,1-.7-.1l-.9-1.2A.5.5,0,0,1,149.9,121.3Zm-40-30.9a.6.6,0,0,1,.2-.7l1.8-1.4c.2-.1.5,0,.5.2l.5,1.5a.8.8,0,0,1-.2.8l-1.8,1.3c-.2.1-.5.1-.5-.2Zm1.6,4.9a.6.6,0,0,1,.2-.7l1.8-1.4c.2-.1.5,0,.5.2l.5,1.5a.8.8,0,0,1-.2.8L112.5,97c-.2.1-.5,0-.5-.2Zm1.6,4.9a.8.8,0,0,1,.2-.8l1.8-1.3a.5.5,0,0,1,.6.2l.4,1.5a.8.8,0,0,1-.2.8l-1.8,1.3c-.2.1-.5,0-.5-.2Zm1.6,4.9a.8.8,0,0,1,.2-.8l1.8-1.3c.2-.2.5-.1.6.2l.4,1.5a.6.6,0,0,1-.2.7l-1.8,1.4c-.2.1-.5,0-.5-.2Zm1.6,4.9a.8.8,0,0,1,.2-.8l1.8-1.3c.2-.2.4,0,.5.2l.5,1.5a.8.8,0,0,1-.2.8l-1.8,1.3a.4.4,0,0,1-.6-.2Zm1.6,4.8a.6.6,0,0,1,.2-.7l1.8-1.3a.3.3,0,0,1,.5.2l.5,1.5a.6.6,0,0,1-.2.7l-1.8,1.3c-.2.2-.5.1-.6-.2Zm1.7,4.8a.6.6,0,0,1,.2-.7l1.9-1.3c.2-.2.4-.1.5.2l.6,1.4a.6.6,0,0,1-.2.7l-1.9,1.3c-.2.2-.4.1-.5-.2Zm2,4.6a.7.7,0,0,1,.2-.7l1.8-1.3c.2-.2.5-.1.6.2l.6,1.3a.8.8,0,0,1-.1.8l-1.9,1.3a.4.4,0,0,1-.5-.2Zm2.3,4.4a.5.5,0,0,1,.1-.7l1.8-1.3a.4.4,0,0,1,.6.2l.8,1.3a.7.7,0,0,1-.2.7l-1.8,1.3a.4.4,0,0,1-.6-.2Zm2.5,4.2c-.1-.2-.1-.5.1-.6l1.8-1.3a.5.5,0,0,1,.7.1l.8,1.2a.6.6,0,0,1-.1.7l-1.9,1.3c-.2.2-.4.1-.6-.1Z"/><path class="a" d="M42.4,152.5l27.4,19.9c2.8-20.1,20.7-31.5,26-35.3l21.8-15.9-27-19.6h-.1L68.4,117.7C63.2,121.5,47.6,133.4,42.4,152.5ZM51.2,138l.9-1.2a.4.4,0,0,1,.6-.2l1.8,1.4a.4.4,0,0,1,.1.6l-.8,1.2a.5.5,0,0,1-.7.2l-1.8-1.4A.4.4,0,0,1,51.2,138Zm-2.5,4.2.7-1.3a.4.4,0,0,1,.6-.2l1.8,1.3a.5.5,0,0,1,.2.7l-.8,1.3a.4.4,0,0,1-.6.2l-1.8-1.3A.5.5,0,0,1,48.7,142.2Zm-2.2,4.4.6-1.4a.4.4,0,0,1,.6-.1l1.8,1.3a.6.6,0,0,1,.2.7l-.7,1.4c-.1.2-.3.3-.5.1l-1.9-1.3C46.4,147.2,46.4,146.8,46.5,146.6Zm.2,6.8-1.8-1.3a.8.8,0,0,1-.2-.8l.5-1.4c.1-.3.4-.4.6-.2l1.8,1.3a.8.8,0,0,1,.2.8l-.5,1.4C47.2,153.5,46.9,153.6,46.7,153.4Zm22.6,3.9L70,156a.5.5,0,0,1,.6-.2l1.8,1.4a.6.6,0,0,1,.2.7l-.7,1.3a.4.4,0,0,1-.6.2l-1.8-1.3A.8.8,0,0,1,69.3,157.3Zm-1.9,4.6.5-1.4c.1-.3.3-.4.5-.2l1.8,1.3a.6.6,0,0,1,.2.8l-.5,1.4a.3.3,0,0,1-.5.2l-1.8-1.3A.7.7,0,0,1,67.4,161.9Zm1.2,4.6a.8.8,0,0,1,.3.8l-.3,1.6c-.1.2-.3.4-.5.2l-1.8-1.3a.8.8,0,0,1-.3-.8l.3-1.6c.1-.3.3-.4.5-.3Zm42.5-46.8a.6.6,0,0,1,.8,0l1.8,1.3a.4.4,0,0,1,0,.6l-1.3.9a.6.6,0,0,1-.8,0l-1.8-1.3a.4.4,0,0,1,0-.6Zm-4.1,3c.2-.1.6-.2.8,0l1.8,1.3c.2.2.2.4-.1.6l-1.2.9a.6.6,0,0,1-.8,0l-1.8-1.3a.4.4,0,0,1,0-.6Zm-4.2,3c.3-.1.6-.2.8,0l1.8,1.3c.3.2.2.4,0,.6l-1.3.9a.5.5,0,0,1-.7,0l-1.9-1.3c-.2-.1-.1-.4.1-.6Zm-4.1,3h.8l1.8,1.4a.3.3,0,0,1,0,.5l-1.3.9a.6.6,0,0,1-.8,0l-1.8-1.3c-.2-.1-.2-.4.1-.5Zm-4.1,3.1a.8.8,0,0,1,.8-.1l1.8,1.4a.3.3,0,0,1,0,.5l-1.3,1h-.8l-1.8-1.4c-.2-.1-.2-.4.1-.5Zm-4.1,3a.6.6,0,0,1,.7-.1l1.9,1.4c.2.1.2.4-.1.6l-1.2.9H91l-1.8-1.4a.3.3,0,0,1,0-.5Zm-4.1,3a.5.5,0,0,1,.7,0l1.9,1.3c.2.1.2.4-.1.6l-1.2.9a.6.6,0,0,1-.8,0l-1.8-1.3c-.2-.1-.2-.4,0-.6ZM82.5,141a.6.6,0,0,1,.7-.1l1.8,1.3c.2.2.2.5,0,.6l-1.1,1.1c-.2.1-.6.2-.7,0l-1.9-1.3a.4.4,0,0,1,0-.6Zm-3.7,3.4a.6.6,0,0,1,.8-.1l1.8,1.3a.4.4,0,0,1,0,.6l-1,1.1a.6.6,0,0,1-.7.1L77.8,146c-.2-.1-.2-.4,0-.6Zm-3.3,3.5a.6.6,0,0,1,.7-.1l1.8,1.4c.2.1.2.4.1.6l-.9,1.2a.5.5,0,0,1-.7.1l-1.8-1.3c-.2-.1-.2-.4-.1-.7Zm-2.3,3.8L75,153a.5.5,0,0,1,.1.7l-.8,1.3c-.1.2-.4.2-.6.1l-1.9-1.4a.6.6,0,0,1-.1-.6l.9-1.3A.4.4,0,0,1,73.2,151.7Zm17.1-47.6a.6.6,0,0,1,.8,0l1.8,1.3c.2.1.2.4,0,.6l-1.3.9h-.8L89,105.6a.4.4,0,0,1,0-.6Zm-4.2,3c.3-.1.6-.2.8,0l1.8,1.3a.4.4,0,0,1,0,.6l-1.3.9a.5.5,0,0,1-.7,0l-1.9-1.3c-.2-.2-.1-.4.1-.6Zm-4.1,3h.8l1.8,1.4c.2.1.2.4-.1.5l-1.2.9a.8.8,0,0,1-.8.1l-1.8-1.4a.3.3,0,0,1,0-.5Zm-4.2,3.1a.8.8,0,0,1,.8-.1l1.8,1.4c.2.1.2.4,0,.6l-1.3.9h-.8l-1.8-1.3c-.2-.2-.2-.5.1-.6Zm-4.2,3a.6.6,0,0,1,.8,0l1.9,1.3c.2.1.1.4-.1.6l-1.3.9a.5.5,0,0,1-.7,0l-1.9-1.3c-.2-.2-.1-.4.1-.6Zm-4.1,3c.2-.1.6-.2.8,0l1.8,1.3a.4.4,0,0,1,0,.6l-1.3.9a.6.6,0,0,1-.8,0l-1.8-1.3c-.2-.1-.2-.4,0-.6Zm-4,3.2a.8.8,0,0,1,.8-.1l1.8,1.4c.2.1.2.4,0,.6l-1.2.9a.8.8,0,0,1-.8.1l-1.8-1.4a.3.3,0,0,1,0-.5Zm-3.8,3.3a.8.8,0,0,1,.8-.1l1.8,1.3a.5.5,0,0,1,0,.7l-1.1,1a.6.6,0,0,1-.7.1l-1.9-1.4c-.2-.1-.2-.4,0-.6Zm-3.4,3.5a.5.5,0,0,1,.7-.1l1.8,1.3a.5.5,0,0,1,0,.7l-1,1a.5.5,0,0,1-.7.1l-1.8-1.3c-.2-.2-.3-.4-.1-.6ZM55,132.9a.5.5,0,0,1,.7-.1l1.8,1.3a.5.5,0,0,1,.1.7l-.9,1.1a.5.5,0,0,1-.7.1l-1.9-1.3a.4.4,0,0,1,0-.6Z"/><path class="a" d="M10.4,59.2,0,91.4c19.9-3.5,36.3,10,41.5,13.8L63.4,121,73.8,89.3h-.1L51.6,73.1C46.4,69.4,30.2,58.2,10.4,59.2ZM27,63.1l1.4.4a.4.4,0,0,1,.3.6L28,66.2a.4.4,0,0,1-.6.3L26,66.1a.4.4,0,0,1-.3-.6l.7-2.2A.4.4,0,0,1,27,63.1Zm-4.8-1.2,1.5.3a.4.4,0,0,1,.3.6l-.7,2.1a.5.5,0,0,1-.6.4L21.2,65a.5.5,0,0,1-.3-.6l.7-2.1A.6.6,0,0,1,22.2,61.9Zm-4.8-.7,1.4.2c.3,0,.5.3.4.5l-.7,2.2a.6.6,0,0,1-.7.3l-1.5-.2a.3.3,0,0,1-.3-.5l.7-2.1A.7.7,0,0,1,17.4,61.2Zm-6.5,2.3.7-2.1a.8.8,0,0,1,.7-.4h1.5c.3,0,.5.2.4.4l-.7,2.2a.8.8,0,0,1-.7.4H11.3C11,64,10.9,63.8,10.9,63.5Zm3.3,22.8,1.5.2a.4.4,0,0,1,.3.5l-.7,2.2a.6.6,0,0,1-.7.3l-1.5-.2a.4.4,0,0,1-.3-.5l.7-2.2A.6.6,0,0,1,14.2,86.3Zm-5-.5h1.5c.3,0,.5.2.4.4l-.7,2.2a.8.8,0,0,1-.7.4H8.2c-.3,0-.5-.2-.4-.4l.7-2.1A.8.8,0,0,1,9.2,85.8ZM5.3,88.4a.8.8,0,0,1-.7.5L3,89.1c-.3,0-.5-.2-.4-.4l.7-2.1a.8.8,0,0,1,.7-.5l1.6-.2c.3,0,.5.1.4.4Zm57.5,26a.7.7,0,0,1,.3.8l-.7,2.1c-.1.2-.3.3-.6.1l-1.2-.9a.6.6,0,0,1-.3-.7l.7-2.2c.1-.2.3-.3.6-.1Zm-4.1-3a1.1,1.1,0,0,1,.3.8l-.7,2.1a.4.4,0,0,1-.6.1l-1.3-.9a.7.7,0,0,1-.2-.7l.7-2.2c.1-.2.3-.3.5-.1Zm-4.1-3a.8.8,0,0,1,.2.8l-.7,2.1c-.1.2-.3.3-.5.1l-1.3-.9a1.1,1.1,0,0,1-.3-.7l.7-2.2a.4.4,0,0,1,.6-.1Zm-4.2-3a.8.8,0,0,1,.3.8l-.7,2.1a.4.4,0,0,1-.6.1l-1.3-.9a.7.7,0,0,1-.2-.7l.7-2.2c.1-.2.3-.3.6-.1Zm-4.1-3a.8.8,0,0,1,.2.8l-.7,2.1c0,.3-.3.3-.5.1l-1.3-.9a.6.6,0,0,1-.2-.7l.7-2.2c.1-.2.3-.3.5-.1Zm-4.2-3a.7.7,0,0,1,.3.8l-.7,2.1c-.1.2-.3.3-.6.1l-1.2-.9c-.2-.2-.4-.5-.3-.7l.7-2.2a.4.4,0,0,1,.6-.1ZM38,96.5c.2.1.3.5.3.7l-.7,2.1a.4.4,0,0,1-.6.2l-1.3-.9a.7.7,0,0,1-.2-.7l.7-2.2c.1-.2.3-.3.5-.1Zm-4.2-2.8a1.1,1.1,0,0,1,.3.7l-.8,2.1a.3.3,0,0,1-.5.2L31.5,96a.6.6,0,0,1-.3-.7l.7-2.2a.4.4,0,0,1,.6-.2Zm-4.4-2.4c.3.2.4.4.3.7L29,94.1a.4.4,0,0,1-.6.3l-1.3-.7c-.2-.2-.4-.4-.3-.7l.7-2.1c.1-.3.4-.4.6-.2ZM25,89.2a.4.4,0,0,1,.3.6L24.6,92a.5.5,0,0,1-.6.3l-1.4-.5a.4.4,0,0,1-.3-.6l.7-2.1a.4.4,0,0,1,.6-.3Zm-4.3-1L20,90.4a.6.6,0,0,1-.6.3L18,90.3a.6.6,0,0,1-.4-.6l.8-2.2c0-.2.3-.3.6-.3l1.4.4A.4.4,0,0,1,20.7,88.2Zm50.6,1.6a1.1,1.1,0,0,1,.3.7l-.8,2.2c0,.2-.3.3-.5.1L69,91.9a.7.7,0,0,1-.2-.7l.7-2.2c.1-.2.3-.3.5-.1Zm-4.2-3c.2.2.4.5.3.7l-.7,2.2a.4.4,0,0,1-.6.1l-1.2-.9a.6.6,0,0,1-.3-.7l.7-2.2c.1-.2.3-.3.6-.1Zm-4.1-3a.6.6,0,0,1,.2.7l-.7,2.1c-.1.3-.3.3-.6.2l-1.2-.9a.8.8,0,0,1-.3-.8l.7-2.1c.1-.3.4-.3.6-.1Zm-4.2-3.1a1.1,1.1,0,0,1,.3.8l-.8,2.1c0,.3-.3.3-.5.2l-1.3-1a.6.6,0,0,1-.2-.7L57,80c.1-.3.3-.3.5-.2Zm-4.2-3a.6.6,0,0,1,.3.7l-.7,2.2c-.1.2-.3.3-.6.1l-1.2-.9c-.2-.2-.4-.5-.3-.7l.7-2.2c.1-.2.3-.3.6-.1Zm-4.1-3a.7.7,0,0,1,.2.7L50,77.6c-.1.2-.3.3-.5.1l-1.3-.9a1.1,1.1,0,0,1-.3-.7l.8-2.2c0-.2.3-.3.5-.1Zm-4.3-2.8a.5.5,0,0,1,.3.7l-.7,2.1c-.1.3-.3.3-.6.2L44,74.1a.6.6,0,0,1-.3-.7l.7-2.2A.4.4,0,0,1,45,71Zm-4.3-2.6a.5.5,0,0,1,.3.7l-.7,2.1a.4.4,0,0,1-.5.2l-1.4-.7c-.2-.2-.4-.4-.3-.7l.7-2.1c.1-.3.4-.4.6-.2Zm-4.4-2.2a.4.4,0,0,1,.3.6l-.7,2.1a.4.4,0,0,1-.6.3l-1.3-.7a.4.4,0,0,1-.3-.6l.7-2.2a.4.4,0,0,1,.6-.2Zm-4.5-2a.4.4,0,0,1,.3.6l-.7,2.2a.4.4,0,0,1-.6.2l-1.4-.5c-.2-.1-.4-.4-.3-.6l.7-2.2a.5.5,0,0,1,.6-.2Z"/></svg>