<svg xmlns="http://www.w3.org/2000/svg" width="27.681" height="27.681" viewBox="0 0 27.681 27.681">
  <g id="cupid" transform="translate(13.839 -0.003) rotate(45)">
    <g id="Group_80923" data-name="Group 80923" transform="translate(0.003 0.001)">
      <path id="Path_259236" data-name="Path 259236" d="M19.568.3a.326.326,0,0,0-.32-.293c-.17,0-2.783-.016-3.353,0a2.236,2.236,0,0,0-2.052,1.348,1.729,1.729,0,0,0,.414,1.906,1.7,1.7,0,0,0,1.112.485L5.412,13.7H2.286a.325.325,0,0,0-.231.1L.1,15.756a.326.326,0,0,0,.231.557H3.264v2.935a.326.326,0,0,0,.557.231l1.957-1.957a.327.327,0,0,0,.1-.231V14.165L15.838,4.2a1.776,1.776,0,0,0,.5,1.143,1.742,1.742,0,0,0,1.24.535,1.771,1.771,0,0,0,.675-.137A2.218,2.218,0,0,0,19.569,3.7C19.57,3.666,19.587.49,19.568.3Z" transform="translate(-0.003 -0.001)" fill="#6393c4"/>
    </g>
  </g>
</svg>
