<svg xmlns="http://www.w3.org/2000/svg" viewBox="0 0 415.8 116.4" xmlns:v="https://vecta.io/nano"><path d="M291.9.1a14.3 14.3 0 0 1 10.9 3.2c3.7 3.2 5.4 8.3 5.3 13.1a18.7 18.7 0 0 1-3.4 11.7 14 14 0 0 1-9.6 5.2 14.5 14.5 0 0 1-11.7-3.2c-3.6-3.3-5.2-8.3-5.2-13A18 18 0 0 1 283.1 4a13.7 13.7 0 0 1 8.8-3.9m-.2 5.9a6.3 6.3 0 0 0-4.2 3.1 15.5 15.5 0 0 0-2 7.7 15.2 15.2 0 0 0 2.1 7.8 6.4 6.4 0 0 0 5.4 3.1 6.3 6.3 0 0 0 5.6-3c1.9-2.9 2.2-6.7 1.9-10.1a11.6 11.6 0 0 0-3.2-7.3 6 6 0 0 0-5.6-1.3zM347.6.1a14.2 14.2 0 0 1 10.9 3.2c3.7 3.2 5.4 8.3 5.3 13.1a18.7 18.7 0 0 1-3.4 11.7 13.6 13.6 0 0 1-9.5 5.2 14.6 14.6 0 0 1-11.8-3.2c-3.6-3.3-5.2-8.3-5.1-13s1.4-9.7 4.8-13a13.8 13.8 0 0 1 8.8-4m-.2 5.9a6.9 6.9 0 0 0-4.2 3.1 14.7 14.7 0 0 0-1.9 7.7 13.5 13.5 0 0 0 2.1 7.8 6.3 6.3 0 0 0 5.4 3.1 6.2 6.2 0 0 0 5.6-3.2c1.9-3 2.2-6.7 1.8-10.2a11 11 0 0 0-3.3-7.1 6.4 6.4 0 0 0-5.5-1.2zM403.3.3a19 19 0 0 1 11.3 1.3L413 7.5a12.8 12.8 0 0 0-7.9-1.4c-1.4.2-3 1.1-3 2.7a2.8 2.8 0 0 0 1.2 2.7c2.5 1.7 5.5 2.3 8 3.9a9.7 9.7 0 0 1 3.9 4.4 9.9 9.9 0 0 1-2.1 10.4 13.5 13.5 0 0 1-8.6 3.3 21.6 21.6 0 0 1-10-2l1.4-6a17.2 17.2 0 0 0 8 2c1.4-.1 3.1-.3 4.1-1.5a3.3 3.3 0 0 0-.2-4.3c-1.9-1.8-4.5-2.2-6.7-3.3s-5-3.3-5.8-6.1a9.1 9.1 0 0 1 1.3-8 10.7 10.7 0 0 1 6.7-4zm-308 0h31.8v9.6H118v23.3h-13.3l.1-18c-.2-1.8.2-3.6-.1-5.3h-9.5l.1-9.6zm41 0c4.4-.2 8.8 0 13.3 0a.5.5 0 0 1 .7.4L163 33.2q-6.5-.2-12.9 0l-6.8-19.6-6.7 19.5h-12.8L136.3.3zm23.7 0h31.8q-.2 4.8 0 9.6h-9.2v23.3c-4.4 0-8.8-.1-13.2 0V9.9H160zm41 .1c2.1-.3 4.3 0 6.4-.1a62.6 62.6 0 0 1 7.5.1l12.8 32.8h-13c-2-6.2-4.2-12.3-6.3-18.4-.1-.3-.2-.8-.6-.9l-6.5 19.2h-12.8L201 .4zm167.6.6a59.5 59.5 0 0 1 10.3-.7c3.1.1 6.4.5 8.9 2.4s4.2 9.1.9 12.6a8 8 0 0 1-3.3 2.2 7.8 7.8 0 0 1 3.5 4.1c1.3 3.7 1.8 7.6 3.2 11.3h-7.3a65.5 65.5 0 0 1-2.2-7.9c-.3-1.4-.8-3.1-2-4s-3.4-.8-5.1-.8c.1 4.2 0 8.5.1 12.8h-7V1m6.9 5c.1 2.9 0 5.9.1 8.8 2.1 0 4.4.3 6.3-.9s2.7-5.7.2-7.3-4.4-.8-6.6-.6zM241.9.6h9.4c2 7.4 4.4 14.8 5.7 22.3a1.7 1.7 0 0 0 .4-1.2c1.6-7.2 3.9-14.1 6-21.1h9.3l1.6 32.3h-6.9c-.1-6.7-.6-13.4-.7-20.1a52.3 52.3 0 0 0-.1-5.6c-2.2 8.5-4.8 16.8-7.3 25.2h-5.5c-1.9-7.2-4-14.4-5.5-21.7a35.9 35.9 0 0 0-.8-3.5c-.2 8.5-.7 17.1-1 25.7h-6.6l2-32.3zm67.1 0h23.8v6.1h-8.4v26.2h-7.1V6.7H309z" fill="#0066b2"/><path d="M130.9 70.1c-4.8 0-7.6 2.5-9.1 6.9-3.3 9.5-6.9 18.8-9.9 28.2-1.2 3.7-3 4.7-6.7 4.7l-79.9-.1c-2.2 0-4.3-.5-4.3 3.1s1.9 2.8 4 2.8l87.8.2c2.8 0 4.1-.9 5-3.6q5-14.5 10.2-29.1c.6-1.7.5-4.6 2.9-4.7s2.4 2.8 3 4.5l9.3 26.3c2.5 7.1 2.5 7.1 10.6 5.9l-13.6-38.4c-1.5-4.5-4.5-6.7-9.3-6.7zm216.9 8l18.9.1c3 .1 3.4-1.4 3.1-3.7s1.2-4.6-2.7-4.5c-7.6.2-15.3-.2-22.9.4-10.4.8-15.1 12.1-8.7 20.4 1.1 1.5 1.6 2.1.1 3.8-3.6 4-3.6 8.9-1.6 13.6s5.8 7.1 10.9 7.4 7.3 0 11 0h0c3.5 0 7-.2 10.5.1s3.6-1.1 3.5-3.8.4-4.6-3.4-4.4c-6.3.3-12.7 0-19 .1-3.9.1-6.7-1.3-6.6-5.5s2.9-5.5 6.8-5.5l18.9.1c3.5.2 3.3-1.8 3.2-4s.4-4.3-3.1-4.2c-6.3.2-12.6 0-19 .1-3.8.1-6.8-1-6.8-5.3s3-5.3 6.9-5.2zM226.1 88.7c-3.9-.1-7.7-.1-11.5 0s-6.5-1.2-6.6-5.1 2.8-5.6 6.7-5.5l19 .1c3.2.1 3.4-1.6 3.2-4s.6-4.3-3-4.2c-7.1.2-14.3-.1-21.4.2s-12.7 5.5-12.6 13.2 4.9 12.8 12.6 13.2c4.5.3 9 .1 13.5.1s6 2.1 5.9 5.9-2.5 5.1-6 5.1c-6.4-.1-12.7.1-19-.1-3-.1-4.9 0-4.9 4s1.6 4.4 4.8 4.2 6.3-.1 9.5-.1h9.9c9.2-.3 13.7-4.9 13.7-13.6s-4.7-13.1-13.8-13.4zm-41.4 0c-4.1-.2-8.3-.1-12.5 0s-6-1.6-6-5.1 2.4-5.5 6.2-5.5h16c2 0 4.2.7 6.2-.6-.4-2.6 2.9-6.9-2.2-7.2-7.5-.5-15.1.1-22.6.2s-11.5 5.1-11.8 12.3 4.2 12.9 11.1 13.6a139.8 139.8 0 0 0 14.5.3c4 0 6.5 1.6 6.4 5.8s-2.6 5.3-6.4 5.2c-6.5-.1-13 .1-19.4-.1-3.3-.1-4 1.1-3.9 4s.2 4.4 3.7 4.2c6.8-.3 13.6 0 20.4-.1 9.2-.3 13.7-4.9 13.7-13.6s-4.6-12.9-13.4-13.4zm92-18c-1.4 9-.2 18.1-.6 27.1-.3 6.9-3.7 10.2-10.7 10.3s-11.5-3.7-11.6-10.6-.1-15.9.1-23.9c.1-2.9-1-3.8-3.7-3.5s-4.6-.5-4.5 3.3c.3 8.7 0 17.3.2 25.9s4.6 13.8 12 15.9c9.4 2.7 19.4 0 23.5-6.3 1.4-2.3 2.6-4.7 2.3-7.5l.3-25.1c.1-6.7 0-6.7-7.3-5.6zM2.8 109.8c-2.1 0-2.7.8-2.8 2.9s1.1 3 3.3 3 3-.7 2.6-2.9-.8-3-3.1-3zm10.3.1c-2.7-.5-2.6 1.3-2.7 3.3s1.3 2.4 3.1 2.5 2.7-1.4 2.8-3.4-1.3-2.6-3.2-2.4zm308.2-6.7c-3.4-1.8-6.8-3.8-10.1-5.7a1.9 1.9 0 0 0 .2-.8h1.8c9.3-.3 14.5-5.1 14.5-13.4s-5-13-14.2-13.2c-6.4-.1-12.9.1-19.4-.1-2.4 0-3.5.5-3.5 3.3v39.3c-.1 3.4 1.8 3.2 4 3.2s4.3.3 4.1-3.2-.1-8.7-.1-13.8l29 17.6c1.1-9 1.1-9-6.3-13.2zm-20-14.1c-1.9 0-2.8-.6-2.7-2.6a17.8 17.8 0 0 0 0-4c-.5-3.4.8-4.9 4.4-4.4a40.1 40.1 0 0 0 4.9 0h6c3.6 0 5.8 1.9 5.7 5.5s-2 5.2-5.4 5.3l-12.9.2zm114-2.6c-1.7-10.4-7.6-15.8-18.2-16.3-5.8-.3-11.6 0-17.4-.2-2.7-.1-3.4.8-3.4 3.4.2 6.5.1 13 .1 19.4l-.1 19c-.1 2.8.4 4.2 3.7 4 5.5-.3 11 0 16.5-.2 11.1-.4 17.5-6.2 19-17.2a39.6 39.6 0 0 0-.2-11.9zm-7.8 10.8c-.9 7.4-4.3 10.3-11.9 10.4-11.2.1-11.2.1-11.2-10.9v-4a20.8 20.8 0 0 1 .1-5c.9-3.2-2.9-8.5 2.4-9.4 13-2.3 18.5.4 20.3 8.5a28 28 0 0 1 .3 10.4z" fill="#d7df20"/></svg>