<svg xmlns="http://www.w3.org/2000/svg" viewBox="0 0 795.5 268" xmlns:v="https://vecta.io/nano"><path d="M373.2 76.6q.2-13.6 6.6-23.7a43.5 43.5 0 0 1 16.9-15.3 47.9 47.9 0 0 1 45.9.7 38 38 0 0 1 16.9 18.1h-10a30.8 30.8 0 0 0-13.1-12.1 39 39 0 0 0-18.2-4.1 37.6 37.6 0 0 0-19.2 5.7 35.5 35.5 0 0 0-12.8 13.6 39.2 39.2 0 0 0-4.7 17.1 32.2 32.2 0 0 0 5.6 18.7 39.2 39.2 0 0 0 14.2 12.7 40 40 0 0 0 16.9 4.9c6.6.3 13.7-1.7 21.4-6.1a29.4 29.4 0 0 0 14.6-19.3h-47.9v-7.7h58.4c-1.6 13.2-6.9 23.4-15.9 30.7a45.9 45.9 0 0 1-30.4 10.4c-12.1-.1-22.7-4.5-31.7-13.2s-13.6-19-13.5-31.1zm103.2 17.2V55.9h8.6v36.6q0 9.6 5.7 15a19.1 19.1 0 0 0 27.4-.4c3.9-3.9 5.8-9.4 5.8-16.4V55.9h8.6v63.6h-7.9v-10a20.4 20.4 0 0 1-8.6 8.6 25.8 25.8 0 0 1-12.4 3 27.6 27.6 0 0 1-19-7.3c-5.4-4.9-8.2-11.5-8.2-20zm71 22.1v-60h8.7v62.7a27.2 27.2 0 0 1-4.6 15.3c-3 4.7-8.7 7.3-17 7.8v-8.3a14.5 14.5 0 0 0 9.4-3.6c2.3-2.3 3.5-6.9 3.5-13.9zm8.7-82.4v14.7h-8.7V33.5zm12 54.6a32.4 32.4 0 0 1 5-18 33.7 33.7 0 0 1 12.8-11.8 31.4 31.4 0 0 1 16.2-4c11.7.3 20 5 25 13.9V55.9h8.4v63.6h-8.4v-12.1a24.3 24.3 0 0 1-10.6 10.2 29.1 29.1 0 0 1-15.1 3.3 34.7 34.7 0 0 1-16.2-4.3 33 33 0 0 1-12.5-11.5 30.9 30.9 0 0 1-4.6-17zm8.8-1.9a24.4 24.4 0 0 0 1.6 10.5 25.7 25.7 0 0 0 5.4 8.5 26.6 26.6 0 0 0 8.2 5.4 30.6 30.6 0 0 0 9.3 2.1c7.3 0 13.4-2.4 18.3-7.5s7.4-10.7 7.4-17.1a23.9 23.9 0 0 0-7.1-17.6 24.6 24.6 0 0 0-17.4-7.7 21.8 21.8 0 0 0-13 3.2 25.9 25.9 0 0 0-9.3 9.3 20.9 20.9 0 0 0-3.4 10.9zm73.4 33.3V55.7h8v9.5c3.6-7.3 9.7-10.9 18.6-10.9V63a16.9 16.9 0 0 0-8.3 2.2 20.8 20.8 0 0 0-7.1 6.1 15.3 15.3 0 0 0-2.7 8.9v39.3zm32.3-31.4c.1-6.9 1.7-12.9 5-18a33.7 33.7 0 0 1 12.8-11.8 31.5 31.5 0 0 1 16.3-4c11.6.3 19.9 5 25 13.9V55.9h8.3v63.6h-8.3v-12.1a24.6 24.6 0 0 1-10.7 10.2 28.9 28.9 0 0 1-15 3.3 35.1 35.1 0 0 1-16.3-4.3 33 33 0 0 1-12.5-11.5 30.9 30.9 0 0 1-4.6-17zm8.8-1.9a24.7 24.7 0 0 0 7.1 19 25 25 0 0 0 8.1 5.4 31.2 31.2 0 0 0 9.4 2.1 24.4 24.4 0 0 0 18.3-7.5c4.9-5 7.4-10.7 7.4-17.1a24.3 24.3 0 0 0-7.1-17.6 25 25 0 0 0-17.5-7.7 21.8 21.8 0 0 0-13 3.2 25.9 25.9 0 0 0-9.3 9.3 21.9 21.9 0 0 0-3.4 10.9zm80.7 33.3V63.7h-13.3v-7.8h13.3V33.5h8.6v22.4h14.8v7.8h-14.8v55.8zm-188 57.8v-43.5h-11v-4.3h26.6v4.3h-10.8v43.5zm15.7-18.3a17.4 17.4 0 0 1 2.6-8.9 18.8 18.8 0 0 1 16.4-8.9 15.2 15.2 0 0 1 6.1 1.3 18.2 18.2 0 0 1 5.6 3.5 20.9 20.9 0 0 1 4.3 5.4 15.7 15.7 0 0 1 1.9 6.6 17.4 17.4 0 0 1-2.1 10 18.2 18.2 0 0 1-6.9 7.4 18.6 18.6 0 0 1-9.5 2.6 18.2 18.2 0 0 1-8.9-2.3 16.9 16.9 0 0 1-6.9-6.6 19 19 0 0 1-2.6-10.1zm4.7.2c0 4.3 1.3 7.7 4 10.2a14.9 14.9 0 0 0 9.8 4.2 13.5 13.5 0 0 0 6.3-1.7 14.3 14.3 0 0 0 5.2-4.9 15.1 15.1 0 0 0 2-7.8 12.2 12.2 0 0 0-1.9-6.5 14.4 14.4 0 0 0-5-5.1 11.4 11.4 0 0 0-6.6-1.8 13.8 13.8 0 0 0-9.6 4 12.2 12.2 0 0 0-4.2 9.4zm38.7 3.8v-21h4.8v20.3a11.3 11.3 0 0 0 3.1 8.3 11 11 0 0 0 7.5 3.1 11.3 11.3 0 0 0 7.8-3.3c2.1-2.2 3.2-5.2 3.2-9.1V142h4.7v35.3H670v-5.6a11.1 11.1 0 0 1-4.8 4.8 14.7 14.7 0 0 1-6.9 1.7 15.3 15.3 0 0 1-10.5-4.1 14.2 14.2 0 0 1-4.6-11.1zm39.3 14.3v-35.5h4.4v5.3c2-4 5.5-6 10.4-6v4.8a8.1 8.1 0 0 0-4.6 1.2 11.9 11.9 0 0 0-4 3.4 8.4 8.4 0 0 0-1.5 4.9v21.9zm19.3 0V142h4.8v35.3zm0-39.6v-8.2h4.8v8.2zm11.3 14.6a9.5 9.5 0 0 1 1.1-6.1 9.2 9.2 0 0 1 4-3.8 10.6 10.6 0 0 1 4.7-1.2 10.1 10.1 0 0 1 6.9 2.4 9.4 9.4 0 0 1 3.3 7.1h-4.9c0-1.8-.5-3.1-1.6-3.8a5.6 5.6 0 0 0-3.7-1.1 5.9 5.9 0 0 0-3.5 1.2 4.3 4.3 0 0 0-1.7 3.7 2.9 2.9 0 0 0 .2.9c0 .3.1.6.1.8s2.4 2.8 5.8 4a27.9 27.9 0 0 1 8 4.2c1.8 1.5 2.5 4.2 2 8.1s-1.6 5.5-3.9 7a11.6 11.6 0 0 1-7.1 2.3 10.2 10.2 0 0 1-7.9-3.2 10.8 10.8 0 0 1-3.1-7.9h4.8a6.6 6.6 0 0 0 2 4.9 7.1 7.1 0 0 0 4.5 2 6.8 6.8 0 0 0 4.2-1.9 6.1 6.1 0 0 0 .4-8.2 7.6 7.6 0 0 0-4.4-2.5c-6.3-1.7-9.7-4.6-10.2-8.8zm26.7-10.3h4.5v4.7a9.5 9.5 0 0 1 3.8-4.1 11.6 11.6 0 0 1 5.6-1.4 15.4 15.4 0 0 1 7.2 1.8 13.7 13.7 0 0 1 5.2 4.9 14.1 14.1 0 0 1 5-5 12.8 12.8 0 0 1 6.3-1.6 14.8 14.8 0 0 1 10.3 4 12.5 12.5 0 0 1 4.5 9.9v22.1h-4.7V156c0-3.2-.9-5.7-2.9-7.5a10.4 10.4 0 0 0-7.1-2.6 9.6 9.6 0 0 0-6.3 2.3 8.4 8.4 0 0 0-2.7 6.6v22.5h-4.9v-21.7a8.9 8.9 0 0 0-3-7.1 10.4 10.4 0 0 0-7.1-2.6 8.8 8.8 0 0 0-6.3 2.4c-1.8 1.7-2.6 4-2.6 7.1v21.9h-4.8zM123.1.1h201.7V268H128.3l-4-9.7-1.9-20.4 21.4-43.9-28.3-3.1V7.8z" fill="#ab5236" fill-rule="evenodd"/><path d="M316.9 0h5.2v268.01h-5.2z" fill="#fff"/><path d="M322.2 0h5.2v268.01h-5.2z" fill="#ab5236"/><path d="M327.4 0h14.9v268.01h-14.9z" fill="#f58733"/><g fill-rule="evenodd"><g fill="#fff"><path d="M327.4 0l14.9 14.9-14.9 14.9z"/><path d="M327.4 29.8l14.9 14.9-14.9 14.9z"/><path d="M327.4 59.6l14.9 14.9-14.9 14.8z"/><path d="M327.4,89.3l14.9,14.9-14.9,14.9Z"/><path d="M327.4 119.1l14.9 14.9-14.9 14.9z"/><path d="M327.4,148.9l14.9,14.9-14.9,14.8Z"/><path d="M327.4,178.6l14.9,14.9-14.9,14.9Z"/><path d="M327.4,208.4l14.9,14.9-14.9,14.9Z"/><path d="M327.4,238.2l14.9,14.9-14.9,14.8Z"/></g><g fill="#f58733"><path d="M126.8 25.3h5.8c0-3.5 2-11 3-13.9A38.2 38.2 0 0 1 141 .1h-.3c-4.2.6-9.9 6.1-11.6 9.1a32.8 32.8 0 0 0-2.8 7.8c-.3 2.2-1.2 8.3.5 8.3zm-36.6 31c0-.1 5.2-7.7 5.9-8.6 1.9-2.6 4.2-5.7 7-7.4 5.1-3.1 13-7.8 20.8-7.8h.9c4.4 0 10.1 2.1 12.4 4.5s2.1 2.8 3.6 4.9 1.9 4.5 2.8 6l.9 8.4.3.3-2.3 13.4h.6c.5-2 3.3-5.3 4-8.1s2.1-6.3 2.1-10.1c0-12.4-8.8-23.8-20.7-23.8h-.8c-8.4 0-18.9 4.1-23.9 8.5s-13.6 12-13.6 19.8z"/><path d="M138.6,12.2c.5-6,2.4-8.9,6.6-12.1h-9.6a28.1,28.1,0,0,0-13.2,10.3A48.7,48.7,0,0,0,117.7,21a50.1,50.1,0,0,0-1.2,8.1c-14.2,8.8-22.7,11.5-39.8,36.7-1.5.4-20.7,14.3-23.8,16.4-6.3,4.3-14,15.5-14,26.1,0,3.8.7,7.2-1.2,9.8s-3.7,3.7-5.7,5.8c-3.7,3.9-7.7,7.3-11.6,11.3S0,152,0,160.7c0,3.8,4.5,12.1,8.1,12.2.7,2.9.2,4.7,1.3,7.7a26.5,26.5,0,0,0,3,5.8c1.6,2.1,7.1,7.4,10,7.4h1.1c.3,1.1,4.6,7.3,5.5,8.4,2.5,2.8,4.8,3.7,8.2,5.5.5-.4.9-.3.9-1.2v-.3s-1.1-4.4-1.3-5.8a11.5,11.5,0,0,1,.1-6.1c9.2,1.6,20.3-3.3,21.9-11.7,2.1-10.6-.7-17.2-4-24.9,5,5.3,8.9,15.9,6.8,23.1,1,3.6,3.5,9,3.5,12.4v1.1c0,6.9-2.1,9.5-4.8,13.6s-7.9,6.3-9.5,8.5l-4.9-2.7c-.7-.4-3.8-2.7-4.6-2.7s-.9,1.1-.9,1.8,4.2,10.7,4.9,11v2.4c0,6.3,3.8,12.3,6.9,15.5s10.2,5.9,16.4,5.9,17.7-4,17.7-7.7c0-25.2,20.4-32.9,44-44.9-33.9,20.6-26.3,55.7-2,73-9.6-41.1,29.1-62.1,31.4-128.2-1.1,52.8-30.2,105.8,22.2,121-22.6-51.3,19.3-69-3.3-122.4,24.7,14.9-5.6,91.1,40.4,101.1-13.4-25.9,31.9-90.1-55.2-140.2,67.5,18.2,62.9,90.2,78.4,116.2C266.7,140.8,227.1,97,177.8,77.1c45,4.2,77.4,49.1,83.8,102.5h0C289.8,86.4,218,44.6,161.3,44c27.9-5.8,74.8,8.2,93.7,27.8-21.5-42-72.3-60.2-100.5-47.8,1.6-5.7,22-12.4,28.2-12.4a72.8,72.8,0,0,1,13.9,2c-29.5-15.2-45-10.4-58-1.4Z"/></g><path d="M62.3 122.3c0-1.1 16.3-18.4 10.5-18.4-4.3 3-11 5-17.8 5h-1.4l-2.3-.3c-1.7.1-1.6 2.4.4 2.6l4 .5c-1.7 4 .3 8 4.9 8.3a8.8 8.8 0 0 0-.6 2.9v1c.1 1.2 2 1.2 2.2 0a7.6 7.6 0 0 0 .1-1.6zm-36.2 41.2a2.5 2.5 0 1 1-2.5 2.5 2.5 2.5 0 0 1 2.5-2.5zm9.8-4.6a2.5 2.5 0 1 1-2.5 2.5 2.5 2.5 0 0 1 2.5-2.5zm-12.5 14.3a2.4 2.4 0 1 1-2.4 2.4 2.4 2.4 0 0 1 2.4-2.4z" fill="#fff"/><path d="M116.8,29.5c-3-12.6-.4-19.3,7.4-29.4h-4.4c-22.2,9.3-27.4,32.7-23,56.3a9,9,0,0,0,.9,2.9Z" fill="#f58733"/><g fill="#fff"><path d="M36 169.9a2.5 2.5 0 0 1 0 4.9 2.5 2.5 0 1 1 0-4.9zm11-3.4a2.5 2.5 0 0 1 0 4.9 2.5 2.5 0 1 1 0-4.9zm-14.2 16a2.5 2.5 0 1 1-2.4 2.4 2.5 2.5 0 0 1 2.4-2.4zm10.8-3.1a2.4 2.4 0 1 1 0 4.8 2.4 2.4 0 0 1-2.5-2.4 2.5 2.5 0 0 1 2.5-2.4zm250-44.4c2.8.8 5.7 2.2 10 3.7 6.3 2.3 9.8.3 9.6-4.7s-3.2-7-9.6-4.8c-4.3 1.5-7.2 2.8-10 3.7a.9.9 0 0 0-.8 1c0 .6.4 1.1.8 1.1zm-11.5-22c2.1-2 4.7-3.8 8.1-6.7 5.2-4.4 5.2-8.4.8-10.7s-7.7-.7-8.9 5.9c-.9 4.5-1.2 7.6-1.9 10.5a.9.9 0 0 0 .5 1.2 1.1 1.1 0 0 0 1.4-.2zm8.7 9.4c2.8-.6 6-.9 10.4-1.7 6.7-1.2 8.7-4.6 6-8.9s-6.3-4.4-10.7.7c-2.9 3.4-4.8 6-6.8 8.1a1 1 0 0 0-.1 1.3.8.8 0 0 0 1.2.5zm-1 24.8c2 2.2 3.8 4.8 6.8 8.2 4.3 5.2 8.3 5.2 10.6.8s.8-7.7-5.9-8.9c-4.4-.9-7.6-1.2-10.4-1.9h0a.9.9 0 0 0-1.2.5c-.3.5-.3 1.1.1 1.3zm-9.4 8.8c.7 2.8.9 6 1.7 10.4 1.2 6.7 4.7 8.7 8.9 6s4.5-6.3-.6-10.7c-3.5-2.9-6-4.8-8.2-6.8h0a1 1 0 0 0-1.3-.1.9.9 0 0 0-.5 1.2zm-7.5-43.2a21.6 21.6 0 0 1 0 42.5V150a16.5 16.5 0 0 0 0-31.9zm20.7 108.9c2.8.8 5.7 2.1 10 3.7 6.3 2.3 9.8.3 9.6-4.7s-3.2-7-9.6-4.8c-4.3 1.5-7.2 2.8-10 3.7h0a.9.9 0 0 0-.8 1c0 .6.4 1.1.8 1.1zm-11.5-22c2.1-2 4.7-3.8 8.1-6.7 5.2-4.4 5.2-8.4.8-10.7s-7.7-.7-8.9 5.9c-.9 4.5-1.2 7.6-1.9 10.5-.2.3 0 .9.5 1.2a1.1 1.1 0 0 0 1.4-.2zm8.7 9.4c2.8-.6 6-.9 10.4-1.7 6.7-1.2 8.7-4.6 6-8.9s-6.3-4.4-10.7.7c-2.9 3.4-4.8 6-6.8 8.1a1 1 0 0 0-.1 1.3.8.8 0 0 0 1.2.5zm-1 24.8c2 2.2 3.8 4.8 6.8 8.2 4.3 5.2 8.3 5.2 10.6.8s.8-7.7-5.9-9c-4.4-.8-7.6-1.1-10.4-1.8a.9.9 0 0 0-1.2.5c-.3.5-.3 1.1.1 1.3zm-9.4 8.8c.7 2.8.9 6 1.7 10.4 1.2 6.7 4.7 8.7 8.9 6s4.5-6.3-.6-10.7c-3.5-2.9-6-4.8-8.2-6.8h0c-.2-.4-.8-.4-1.3-.2a1.1 1.1 0 0 0-.5 1.3zm-7.5-43.2a21.6 21.6 0 0 1 0 42.5v-5.4a16.4 16.4 0 0 0 0-31.8zm20.7-151.4c2.8.9 5.7 2.2 10 3.8 6.3 2.3 9.8.3 9.6-4.7s-3.2-7-9.6-4.8c-4.3 1.5-7.2 2.8-10 3.7a1 1 0 0 0 0 2zm-11.5-21.9c2.1-2 4.7-3.8 8.1-6.7 5.2-4.4 5.2-8.4.8-10.7s-7.7-.7-8.9 5.9c-.9 4.5-1.2 7.6-1.9 10.4a1.1 1.1 0 0 0 1.9 1.1zm8.7 9.4c2.8-.6 6-.9 10.4-1.7 6.7-1.2 8.7-4.7 6-8.9s-6.3-4.5-10.7.7c-2.9 3.4-4.8 6-6.8 8.1a1 1 0 0 0-.1 1.3.9.9 0 0 0 1.2.5zm-1 24.8c2 2.2 3.8 4.7 6.8 8.2 4.3 5.2 8.3 5.2 10.6.7s.8-7.6-5.9-8.9c-4.4-.8-7.6-1.1-10.4-1.8z"/><path d="M290.4 59.5l.5-.9a.9.9 0 0 0-1.2.5c-.3.5-.3 1.1.1 1.3zm-10 9.6c.7 2.9.9 6 1.7 10.5 1.2 6.6 4.7 8.7 8.9 6s4.5-6.3-.6-10.7c-3.5-3-6-4.8-8.2-6.8h0a.9.9 0 0 0-1.3-.2c-.5.3-.7.9-.5 1.2zm-7.5-43.2a21.6 21.6 0 0 1 0 42.5v-5.3a16.4 16.4 0 0 0 0-31.8z"/></g></g><path d="M267.7 0h5.2v268.01h-5.2z" fill="#fff"/></svg>