<svg xmlns="http://www.w3.org/2000/svg" viewBox="0 0 685.2 172.4" xmlns:v="https://vecta.io/nano"><path d="M279.9 53.4V36.7h20.9v16.7h-20.9zm20.9 66.9h-20.9V61.8h20.9v58.5zm30 0h-20.9V61.6h19.2v9.2c2-3.3 4.7-6.2 8-8.3 3-1.7 6.4-2.6 9.9-2.5 6.4 0 11.4 2 14.9 6s5.3 9.9 5.3 17.8v36.5h-20.9V88c0-3.4-.7-5.9-2-7.4-1.4-1.6-3.5-2.5-5.6-2.3A7.41 7.41 0 0 0 333 81c-1.5 1.8-2.2 4.7-2.2 8.6v30.7zm66.8-43.5c1.6-1.8 4-2.7 6.4-2.6 2.6-.1 5.1.9 6.9 2.7 1.9 2.1 2.8 4.8 2.7 7.6h-18.8c.2-3.4 1.2-6 2.8-7.7zm35.6 7.5c-1-4.8-3.1-9.3-6-13.2-2.6-3.7-6.2-6.5-10.4-8.3s-8.7-2.7-13.2-2.7c-8.9 0-16.1 3-21.6 8.9s-8.1 13.6-8.1 23 2.7 16 8.1 21.7 12.8 8.5 22.3 8.5c5.3.1 10.6-1.1 15.4-3.4 4-2 7.4-5 10-8.7 1.5-2.2 2.6-4.8 3-7.5h-19.9c-1.3 3-4.3 5-7.6 4.8-2.9.2-5.7-.9-7.7-2.9-1.8-1.9-2.7-4.7-2.9-8.1h39.8c.1-4.1-.3-8.1-1.2-12.1zm43.9-3.7c1.7 2.2 2.5 5.6 2.5 10.1 0 2.5-.3 5.1-1.1 7.5a9.88 9.88 0 0 1-3.2 4.6c-1.4 1-3 1.5-4.7 1.5-2.5 0-4.8-1.2-6.2-3.3-1.6-2.2-2.4-5.8-2.4-10.8 0-4.2.8-7.5 2.6-9.7 1.4-2.1 3.8-3.3 6.3-3.3s4.8 1.3 6.2 3.4zm-14.6 33.9c1.1 1.7 2.4 3.2 3.9 4.5 1.2 1 2.7 1.8 4.2 2.3a20.95 20.95 0 0 0 6.1.9c6.7 0 12.3-2.8 16.9-8.4s6.9-13.2 6.9-22.8c.1-5.5-.9-10.9-2.8-16a24.05 24.05 0 0 0-8.3-11.1c-3.6-2.5-7.8-3.8-12.2-3.8-3.8-.1-7.4 1-10.6 3-2.8 1.7-5 4.3-6.3 7.4v-8.7h-18.7v81.3h20.9v-28.6zm69.5-9.6c-1.6-1.2-2.7-2.8-3.3-4.7-1-2.8-1.4-5.8-1.3-8.8 0-5.7.9-9.7 2.6-12.2 1.4-2.2 3.8-3.6 6.4-3.6 2.4 0 4.6 1.1 5.9 3.1 2 2.8 2.9 6.9 2.9 12.2.1 3.1-.3 6.1-1.1 9.1-.5 1.9-1.7 3.6-3.2 4.9a7.1 7.1 0 0 1-4.4 1.5c-1.6 0-3.2-.6-4.5-1.5zm-17.6-36.2c-5.3 5.7-7.9 13.3-7.9 22.8 0 6.9 1.4 12.7 4.2 17.5 2.6 4.5 6.5 8 11.2 10.2 4.5 2 9.4 3 14.4 3 5.6.1 11.2-1.3 16.1-4.1 4.5-2.5 8.1-6.3 10.4-10.9 2.4-5 3.5-10.4 3.4-15.9 0-9.5-2.6-17-7.9-22.7s-12.6-8.5-22.1-8.5-16.6 2.8-21.8 8.6zm80.1 51.6h-20.7V39.5h20.7v80.8zm9.2-66.2V37.4h20.9v16.7h-20.9zm20.9 66.2h-20.9V61.8h20.9v58.5zm6-18.3h19.9c0 2 .7 3.9 2.1 5.3s3.4 2.2 5.4 2.1c1.7.1 3.4-.4 4.7-1.5 1.1-.9 1.6-2.3 1.6-3.7 0-1-.3-2-.9-2.8-.8-.9-2-1.6-3.2-1.8l-11.8-3.1c-6-1.7-10.2-3.9-12.6-6.8-2.4-3-3.7-6.7-3.6-10.5 0-3.5.9-6.9 2.8-9.9 2.1-3 5-5.4 8.4-6.8 4.5-1.8 9.4-2.6 14.3-2.5 8.8 0 15.2 1.8 19.2 5.3 3.8 3.3 6.1 8 6.3 13h-19c-.2-3.3-3-5.9-6.3-5.7h-.1c-1.6-.1-3.2.4-4.5 1.4-.9.7-1.3 1.7-1.3 2.8 0 .9.4 1.7 1 2.4.7.7 2.2 1.3 4.7 2l9.9 2.5c6.6 1.6 11.2 4 13.7 7.1 2.6 3.1 4 7 3.9 11 0 3.1-.7 6.2-2.2 9-1.4 2.6-3.4 4.9-5.8 6.6a27.64 27.64 0 0 1-8.7 3.6c-3.5.7-7 1.1-10.6 1.1-4 0-8.1-.4-12-1.4-3.2-.8-6.2-2.4-8.7-4.6-2.2-1.9-3.9-4.3-5-7-.9-2.3-1.4-4.7-1.6-7.1zM406.3 54.2h11.3l14.3-13.7h-17.4l-8.2 13.7zm-162.1 8.6c-.5-7.7-6.2-12-15.8-12-13.4 0-15.8 15.8-15.8 28.6s2.6 26.9 15.8 26.9c9.8 0 15.4-4.3 15.8-12.5h24.5c.3 21.4-19.9 29-40.3 29-26.2 0-40.3-15.9-40.3-44.4s14.1-43.9 40.3-44.1c20.4 0 40.6 7 40.3 28.5h-24.5z" fill="#1858a5"/><g fill="#fdb927"><path d="M89.2 0H55.4c9.5 17.9 1.7 37.7-.3 43.8l-8.3 25.7h33.4l8.5-26c2-6.2 7.6-25 .5-43.5zm1.5 16.9v1.5a.47.47 0 0 1-.5.5H88a.47.47 0 0 1-.5-.5v-1.5a.47.47 0 0 1 .5-.5h2.2a.47.47 0 0 1 .5.5zm-.4-4.8v1.4c.1.3-.1.5-.4.5h-2.1a.47.47 0 0 1-.5-.5l-.2-1.5c0-.2.2-.4.4-.4h0 2.3c.2 0 .4.2.5.5zm-.8-4.9l.2 1.5c.1.2-.1.4-.3.4h-2.3c-.3 0-.6-.2-.6-.5l-.2-1.4c-.1-.1-.1-.3 0-.4s.2-.1.3-.1h2.3c.3 0 .5.2.6.5zm-4.2-5.4h2.2c.3 0 .6.2.6.5l.4 1.5c.1.2-.1.4-.3.5h-2.3c-.2 0-.5-.3-.6-.5l-.4-1.5c0-.3.1-.5.4-.5zM64.6 11.9l.3 1.5c0 .3-.1.5-.4.5h-2.3a.47.47 0 0 1-.5-.5l-.2-1.5c-.1-.1-.1-.3 0-.4s.2-.1.3-.1h2.3a.47.47 0 0 1 .5.5zM63.5 7l.5 1.5c.1.1.1.3 0 .4s-.2.1-.3.1h-2.3c-.3 0-.6-.2-.6-.5L60.3 7c-.1-.2.1-.4.3-.5h2.3c.2 0 .5.3.6.5zm-3.7-2.9c-.3 0-.5-.2-.6-.5l-.7-1.5c-.1-.2 0-.4.2-.4H61c.3.1.6.2.7.5l.6 1.4c.2.3 0 .5-.2.5h-2.3zm-6.9 62.8c0 .3-.3.5-.6.5h-2.2c-.3 0-.4-.2-.3-.5l.5-1.5c0-.3.3-.5.6-.5h2.2c.2 0 .3 0 .4.2 0 .1 0 .2-.1.3l-.5 1.5zm1.6-4.9c-.1.3-.3.5-.6.5h-2.3c-.2 0-.3 0-.4-.2 0-.1 0-.2.1-.3l.5-1.5c.1-.2.3-.4.6-.4h2.3c.2 0 .3 0 .4.2 0 .1 0 .2-.1.3l-.5 1.4zm1.6-4.8c-.1.3-.3.5-.6.5h-2.3c-.2 0-.4-.2-.3-.4l.5-1.5c.1-.3.3-.5.6-.5h2.3c.2 0 .3 0 .4.2 0 .1 0 .2-.1.3l-.5 1.4zm1.5-4.9c0 .3-.3.5-.6.5h-2.2c-.3 0-.4-.2-.3-.5l.5-1.5c0-.3.3-.5.6-.5h2.2c.3 0 .4.2.3.4l-.5 1.6zm1.6-4.8c-.1.2-.3.4-.6.4h-2.3c-.2 0-.3 0-.4-.2 0-.1 0-.2.1-.3l.5-1.4c.1-.3.3-.5.6-.5h2.3c.2 0 .3 0 .4.2 0 .1 0 .2-.1.3l-.5 1.5zm1.6-4.9c-.1.3-.3.5-.6.5h-2.3c-.2 0-.4-.3-.3-.5l.5-1.5c.1-.3.3-.5.6-.5H61c.2 0 .3 0 .4.2 0 .1 0 .2-.1.3l-.5 1.5zm1.5-4.9c0 .3-.3.5-.6.5h-2.2c-.3 0-.4-.2-.4-.5l.5-1.5c.1-.2.3-.4.6-.4h2.3c.2 0 .4.2.3.4l-.5 1.5zm1.3-4.8a.47.47 0 0 1-.5.5h-2.3c-.3 0-.4-.2-.3-.4l.3-1.5a.47.47 0 0 1 .5-.5h2.3c.3 0 .4.2.4.5l-.4 1.4zm1-4.9c0 .3-.3.5-.6.5h-2.2c-.3 0-.5-.2-.4-.5l.2-1.5a.47.47 0 0 1 .5-.5h2.3c.2 0 .4.3.4.5l-.2 1.5zm.6-4.9a.47.47 0 0 1-.5.5h-2.3c-.2 0-.4-.3-.4-.5v-1.5c0-.2.3-.4.5-.4h2.2a.47.47 0 0 1 .5.5v1.4zm-.4-4.3h-2.2c-.2 0-.5-.2-.5-.4v-1.6a.47.47 0 0 1 .5-.5h2.2a.47.47 0 0 1 .5.5v1.5a.47.47 0 0 1-.5.5h0zM79 67.3c-.1.3-.4.5-.7.5h-2.2c-.3 0-.4-.2-.3-.5l.5-1.5c0-.3.3-.5.6-.5h2.2c.3 0 .4.2.3.4l-.4 1.6zm1.5-4.9c0 .3-.3.5-.6.5h-2.2c-.3 0-.4-.2-.3-.5l.4-1.5c.1-.3.4-.5.7-.5h2.2c.3 0 .4.2.3.4l-.5 1.6zm1.6-4.9c0 .3-.3.5-.6.5h-2.3c-.2 0-.3-.2-.3-.5l.5-1.5c.1-.2.3-.4.6-.4h2.3c.3 0 .4.2.3.4l-.5 1.5zm1.6-4.9c-.1.3-.3.5-.6.5h-2.3c-.2 0-.3 0-.4-.2 0-.1 0-.2.1-.3l.5-1.5c.1-.2.4-.5.6-.4h2.3c.2 0 .3 0 .4.2 0 .1 0 .2-.1.3l-.5 1.4zm1.6-4.9c0 .3-.3.5-.6.5h-2.3c-.2 0-.3-.2-.3-.5l.5-1.5c.1-.2.3-.4.6-.4h2.3c.3 0 .4.2.3.5l-.5 1.4zm1.6-4.8c-.1.2-.3.4-.6.4H84c-.2 0-.3 0-.4-.2 0-.1 0-.2.1-.3l.5-1.4c0-.3.3-.5.6-.5h2.3c.2 0 .3 0 .4.2 0 .1 0 .2-.1.3l-.5 1.5zm1.4-4.9c-.1.2-.3.4-.6.4h-2.3c-.3 0-.4-.2-.3-.5l.4-1.4c0-.3.3-.5.6-.5h2.2c.3 0 .4.2.3.5l-.3 1.5zm1.1-4.9c-.1.2-.3.4-.6.4h-2.2c-.2 0-.4-.2-.4-.4h0l.3-1.5a.47.47 0 0 1 .5-.5h2.3c.2 0 .4.3.4.5l-.3 1.5zm.7-4.9a.47.47 0 0 1-.5.5h-2.2c-.3 0-.5-.3-.4-.5l.2-1.5a.47.47 0 0 1 .5-.5h2.2c.3 0 .5.2.4.5l-.2 1.5zm.5-4.9a.47.47 0 0 1-.5.5h-2.3c-.2 0-.4-.3-.4-.5v-1.5a.47.47 0 0 1 .5-.5h2.2a.47.47 0 0 1 .5.5v1.5z"/><path d="M170 56.6l-10.5-32.2c-14.1 14.6-35.3 13.3-41.7 13.3H90.7l10.4 31.8h27.4c6.4 0 26-.5 41.5-12.9zm-15.7 6.6l-1.4.5c-.2.1-.5-.1-.6-.3l-.7-2.1c-.1-.2.1-.5.3-.6l1.4-.5c.3-.1.6 0 .6.3l.7 2.1c.1.2 0 .4-.1.5s-.1.1-.2.1zm4.5-1.9l-1.3.6c-.3.1-.6 0-.6-.2l-.7-2.2c-.1-.2 0-.4.1-.5 0 0 .1 0 .2-.1l1.4-.6c.2-.1.5 0 .5.2l.7 2.2c.1.2 0 .4-.1.5s-.1.1-.2.1zm4.4-2.3l-1.3.8c-.2.1-.4 0-.5-.1 0 0 0-.1-.1-.2l-.7-2.1c-.1-.2.1-.5.3-.7l1.3-.7a.47.47 0 0 1 .6.1v.1l.7 2.2c.1.2-.1.5-.3.6zm3.8-5.6l.7 2.1c.1.2 0 .5-.2.7h-.1l-1.3.9c-.2.1-.4.1-.5-.2l-.7-2.1c-.1-.2 0-.5.2-.7h.1l1.3-.9c.2-.1.4-.1.5.2zm-16-16.5l-1.3.7c-.2.1-.5 0-.6-.2l-.7-2.2c0-.3.1-.5.3-.7l1.4-.6c.2-.2.5-.1.6.2l.6 2.1c.1.3 0 .5-.3.7zm4.3-2.6l-1.2.9c-.3.2-.5.1-.6-.1l-.7-2.2c0-.3.1-.5.3-.7l1.3-.9c.2-.2.5-.1.5.1l.7 2.2c.1.3 0 .6-.3.7zm1.7-4.4c-.1-.3 0-.6.2-.8l1.2-1.1c.3-.2.5-.1.6.1l.7 2.2c0 .3-.1.6-.3.8l-1.2 1c-.2.2-.4.2-.5 0l-.7-2.2zM95.1 42.7c-.3 0-.5-.2-.6-.4l-.7-2.2c-.1-.2.1-.4.4-.4h1.5c.3 0 .6.2.7.4l.7 2.2c0 .2-.2.4-.4.4h0-1.6zm5.1 0c-.3 0-.5-.2-.6-.4l-.7-2.2c-.1-.2.1-.4.4-.4h1.5c.3 0 .6.2.7.4l.7 2.2c0 .2-.2.4-.4.4h0-1.6zm5.2 0c-.3 0-.6-.2-.7-.4l-.7-2.2c-.1-.2.1-.4.4-.4h1.5c.3 0 .6.2.7.4l.7 2.2c0 .2-.2.4-.4.4h0-1.5zm5 0c-.3 0-.5-.2-.6-.4l-.7-2.2c-.1-.2.1-.4.4-.4h1.6c.3 0 .5.2.6.4l.7 2.2c.1.2-.1.4-.4.4h-1.6zm5.2 0c-.3 0-.6-.2-.7-.4l-.7-2.2c-.1-.2.1-.4.4-.4h1.5c.3 0 .6.2.7.4l.7 2.2c.1.2-.1.4-.4.4h-1.5zm5.1 0c-.3 0-.6-.2-.7-.4l-.7-2.2c0-.2.2-.4.4-.4h0 1.6c.3 0 .5.2.6.4l.7 2.2c.1.2-.1.4-.4.4h-1.5zm5.1 0c-.3 0-.6-.2-.7-.5l-.7-2.1c0-.3.1-.5.4-.5h1.6c.3 0 .5.2.6.4l.7 2.2c.1.2-.1.4-.4.4l-1.5.1zm5-.3c-.3 0-.6-.1-.6-.4l-.7-2.1c-.1-.1-.1-.3 0-.4s.2-.1.3-.1l1.5-.2c.3 0 .6.2.7.4l.7 2.2c0 .2-.2.5-.4.5l-1.5.1zm4.9-.6c-.3.1-.5-.1-.6-.4l-.7-2.1c-.1-.3.1-.5.4-.6l1.4-.2c.3 0 .6.1.7.4l.6 2.1c.1.1.1.3 0 .4s-.2.1-.3.1l-1.5.3zm4.8-1c-.2.1-.4 0-.5-.1 0 0 0-.1-.1-.2l-.7-2.1c0-.3.1-.5.4-.6l1.4-.4c.2-.1.4 0 .5.1 0 0 0 .1.1.2l.7 2.1c.1.3-.1.5-.4.6l-1.4.4zm4.1-1.6l-.7-2.2c-.1-.2.1-.5.3-.6l1.4-.5c.2-.1.4 0 .5.1 0 0 0 .1.1.2l.7 2.1c.1.2-.1.5-.3.6l-1.4.5c-.2.1-.4.1-.6-.2 0 .1 0 0 0 0h0zm-41.8 28.4c-.3 0-.6-.2-.7-.4l-.7-2.2c-.1-.2.1-.4.4-.4h1.5c.3 0 .6.2.7.4l.7 2.2c0 .2-.2.4-.4.4h0-1.5zm5.1 0c-.3 0-.6-.2-.7-.4l-.6-2.2c-.1-.2.1-.4.3-.4h1.6c.3 0 .6.2.6.4l.7 2.2c.1.2-.1.4-.3.4h-1.6zm5.1 0c-.3 0-.5-.2-.6-.4l-.7-2.2c-.1-.2.1-.4.4-.4h1.5c.3 0 .6.2.7.4l.7 2.2c0 .2-.2.4-.4.4h0-1.6zm5.2 0c-.3 0-.6-.2-.7-.4l-.6-2.2c-.1-.2 0-.4.3-.4h1.6c.3 0 .6.2.6.4l.7 2.2c.1.2-.1.4-.4.4h-1.5zm5.1 0c-.3 0-.5-.2-.6-.4L122 65c-.1-.2.1-.4.4-.4h1.5c.3 0 .6.2.7.4l.7 2.2c0 .2-.2.4-.4.4h0-1.6zm5.2 0c-.3 0-.6-.2-.7-.4l-.7-2.2c0-.2.2-.4.4-.4h0 1.6c.3 0 .5.2.6.4l.7 2.2c.1.2-.1.4-.4.4h-1.5zm5-.2c-.3 0-.5-.2-.6-.4l-.7-2.2c-.1-.2.1-.4.4-.4h1.5c.3 0 .6.2.7.4l.6 2.1c.1.3 0 .5-.3.5h-1.6zm5.1-.4c-.3 0-.6-.2-.7-.4l-.6-2.2c-.1-.2 0-.4.3-.5l1.5-.2c.3 0 .5.2.6.4l.7 2.2c.1.2-.1.4-.3.5l-1.5.2zm4.8-.8c-.3 0-.5-.1-.6-.4l-.7-2.1c-.1-.3.1-.5.4-.6l1.4-.2c.3-.1.6 0 .7.3l.6 2.2c.1.2 0 .4-.3.5l-1.5.3zm4.8-1.1c-.2.1-.5-.1-.6-.3l-.7-2.2c0-.2.1-.5.4-.5l1.4-.4c.2-.1.4 0 .5.1 0 0 0 .1.1.2l.7 2.1c.1.2-.1.5-.3.6l-1.5.4z"/><path d="M141.2 150.9l27.3-20c-18.2-8.8-23.5-29.4-25.5-35.5l-8.4-25.7-27 19.7h0l8.5 26.1c2 6 8.5 24.6 25.1 35.4zM130 138l-.8-1.1c-.2-.3-.2-.6 0-.7l1.9-1.3c.2-.1.4-.1.6 0v.1l.9 1.2c.2.2.2.5-.1.6l-1.8 1.4c-.2.1-.5.1-.7-.2zm3.3 3.7l-1-1.1c-.2-.1-.2-.4 0-.6l1.8-1.3c.2-.2.5-.1.7.1l1 1.1c.2.2.2.5 0 .6l-1.8 1.3c-.2.2-.5.1-.7-.1zm3.5 3.5l-1.1-1c-.2-.2-.2-.5 0-.6l1.8-1.4c.3-.1.6-.1.8.1l1.1 1c.2.2.2.5 0 .6l-1.9 1.4c-.2.1-.5.1-.7-.1zm6.6 1.9l-1.9 1.3c-.2.1-.5.1-.7-.1l-1.2-.9c-.3-.2-.3-.4-.1-.6l1.9-1.3c.2-.2.5-.1.7 0l1.2 1c.3.2.3.4.1.6h0zm10.7-20.3l-1.1-1.1c-.2-.2-.2-.5 0-.6l1.9-1.3c.2-.2.5-.1.7.1l1 1c.2 0 .3.1.3.3s-.1.3-.3.3l-1.8 1.3c-.2.2-.5.1-.7 0h0zm3.8 3.2l-1.3-.9c-.2-.1-.2-.4 0-.6l1.8-1.3a1.1 1.1 0 0 1 .8 0l1.2 1c.3.2.3.4.1.6l-1.9 1.3c-.2.1-.5.1-.7-.1h0zm4.6.2h.9l1.4.9c.2.1.3.3.1.5l-1.9 1.3a.61.61 0 0 1-.8 0l-1.4-.8c-.3-.2-.3-.4-.1-.6l1.8-1.3zm-31.4-54.8c0-.2.1-.6.3-.7l1.8-1.3c.2-.2.4-.1.5.2l.5 1.5c.1.3 0 .5-.2.7l-1.9 1.3c-.1.2-.4.1-.5-.2l-.5-1.5zm1.7 4.9c-.1-.3 0-.6.2-.8l1.8-1.3c.2-.1.4-.1.5.2l.5 1.5c.1.3 0 .6-.2.8l-1.8 1.3c-.2.1-.4 0-.5-.1 0 0 0-.1-.1-.2l-.4-1.4zm1.5 4.8c-.1-.3 0-.5.2-.7l1.9-1.3c.2-.2.4-.1.5.2l.5 1.5c.1.3 0 .5-.2.7l-1.9 1.3c-.2.2-.4.1-.5-.2l-.5-1.5zm1.6 4.9c-.1-.3 0-.6.2-.8l1.9-1.3c.2-.1.4 0 .5.2l.5 1.5c.1.3 0 .6-.2.8l-1.9 1.3c-.2.1-.4 0-.5-.2l-.5-1.5zm1.6 4.8c-.1-.3 0-.5.2-.7l1.9-1.3c.2-.2.4-.1.5.2l.5 1.5c.1.3 0 .5-.2.7l-1.9 1.3c-.2.2-.4.1-.5-.2l-.5-1.5zm1.6 4.9c-.1-.3 0-.6.2-.8l1.9-1.3c.2-.1.4 0 .5.2l.5 1.5c0 .3-.1.6-.3.8l-1.8 1.3c-.2.1-.4 0-.5-.2l-.5-1.5zm1.6 4.8c0-.2 0-.6.2-.7l1.9-1.3c.2-.2.4-.1.5.2l.5 1.4c.1.3 0 .6-.2.8l-1.8 1.3c-.2.2-.5.1-.6-.2l-.5-1.5zm1.8 4.7c-.1-.3 0-.5.2-.7l1.8-1.3c.3-.2.5-.1.6.2l.6 1.4c.1.2.1.5-.1.7l-1.9 1.3c-.2.2-.4.1-.6-.2l-.6-1.4zm2.2 4.5c-.2-.2-.1-.5.1-.7l1.8-1.3c.2-.1.4-.1.6 0v.1l.7 1.4c.1.2.1.5-.1.7l-1.9 1.3c-.2.2-.4.1-.6-.2l-.6-1.3zm2.3 4.3c-.1-.2-.1-.5.1-.7l1.9-1.3c.2-.1.5-.1.6.1l.9 1.2c.1.3.1.6-.1.7l-1.8 1.3c-.2.2-.5.1-.7-.1l-.9-1.2zm2.9 3.3l1.8-1.3c.2-.1.5-.1.7.1l.9 1.2c.2.2.2.5 0 .6l-1.9 1.4c-.2.1-.5.1-.7-.1l-.9-1.2c-.2-.2-.1-.5.1-.7zm-40-30.9c-.1-.3 0-.5.2-.7l1.8-1.4c.2-.1.5 0 .5.2l.5 1.5c.1.3 0 .6-.2.8l-1.8 1.3c-.2.1-.5.1-.5-.2l-.5-1.5zm1.6 4.9c-.1-.3 0-.5.2-.7l1.8-1.4c.2-.1.5 0 .5.2l.5 1.5c.1.3 0 .6-.2.8l-1.8 1.3c-.2.1-.5 0-.5-.2l-.5-1.5zm1.6 4.9c-.1-.3 0-.6.2-.8l1.8-1.3c.2-.1.5 0 .6.2l.4 1.5c.1.3 0 .6-.2.8l-1.8 1.3c-.2.1-.5 0-.5-.2l-.5-1.5zm1.6 4.9c-.1-.3 0-.6.2-.8l1.8-1.3c.2-.2.5-.1.6.2l.4 1.5c.1.3 0 .5-.2.7l-1.8 1.4c-.2.1-.5 0-.5-.2l-.5-1.5zm1.6 4.9c-.1-.3 0-.6.2-.8l1.8-1.3c.2-.2.4 0 .5.2l.5 1.5c.1.3 0 .6-.2.8l-1.8 1.3a.47.47 0 0 1-.6-.1v-.1l-.4-1.5zm1.6 4.8c-.1-.3 0-.5.2-.7l1.8-1.3c.1-.1.3-.1.4 0 0 0 .1.1.1.2l.5 1.5c.1.3 0 .5-.2.7l-1.8 1.3c-.2.2-.5.1-.6-.2l-.4-1.5zm1.7 4.8c-.1-.3 0-.5.2-.7l1.9-1.3c.2-.2.4-.1.5.2l.6 1.4c.1.3 0 .5-.2.7l-1.9 1.3c-.2.2-.4.1-.5-.2l-.6-1.4zm2 4.6c-.1-.3 0-.5.2-.7l1.8-1.3c.2-.2.5-.1.6.2l.6 1.3c.1.3.1.6-.1.8l-1.9 1.3c-.2.1-.4 0-.5-.2l-.7-1.4zm2.3 4.4c-.2-.2-.1-.5.1-.7l1.8-1.3a.47.47 0 0 1 .6.1v.1l.8 1.3c.1.3 0 .5-.2.7l-1.8 1.3a.47.47 0 0 1-.6-.1v-.1l-.7-1.3zm2.5 4.2c-.1-.2-.1-.5.1-.6l1.8-1.3c.2-.2.5-.1.7.1l.8 1.2c.1.2.1.5-.1.7l-1.9 1.3c-.2.2-.4.1-.6-.1l-.8-1.3z"/><path d="M42.4 152.5l27.4 19.9c2.8-20.1 20.7-31.5 26-35.3l21.8-15.9-27-19.6h-.1l-22.1 16.1c-5.2 3.8-20.8 15.7-26 34.8zm8.8-14.5l.9-1.2c.1-.2.3-.3.5-.2h.1l1.8 1.4c.2.1.3.4.1.5v.1l-.8 1.2c-.1.2-.4.3-.7.2l-1.8-1.4c-.2-.1-.3-.4-.1-.6zm-2.5 4.2l.7-1.3c.1-.2.3-.3.5-.2h.1l1.8 1.3c.2.1.3.4.2.7l-.8 1.3c-.1.2-.3.3-.5.2h-.1l-1.8-1.3c-.2-.2-.3-.5-.1-.7zm-2.2 4.4l.6-1.4c.1-.2.4-.3.5-.1h.1l1.8 1.3c.2.2.3.4.2.7l-.7 1.4c-.1.2-.3.3-.5.1l-1.9-1.3c-.2-.1-.2-.5-.1-.7h0zm.2 6.8l-1.8-1.3c-.2-.2-.3-.5-.2-.8l.5-1.4c.1-.3.4-.4.6-.2l1.8 1.3c.2.2.3.5.2.8l-.5 1.4c-.1.3-.4.4-.6.2zm22.6 3.9l.7-1.3c.1-.2.4-.3.6-.2l1.8 1.4c.2.2.3.4.2.7l-.7 1.3c-.1.2-.3.3-.5.2h-.1l-1.8-1.3c-.2-.2-.3-.5-.2-.8h0zm-1.9 4.6l.5-1.4c.1-.3.3-.4.5-.2l1.8 1.3c.3.2.4.5.2.8l-.5 1.4c0 .2-.2.3-.3.3s-.1 0-.2-.1l-1.8-1.3c-.2-.2-.3-.5-.2-.8zm1.2 4.6c.2.2.4.5.3.8l-.3 1.6c-.1.2-.3.4-.5.2l-1.8-1.3c-.2-.2-.4-.5-.3-.8l.3-1.6c.1-.3.3-.4.5-.3l1.8 1.4zm42.5-46.8a.61.61 0 0 1 .8 0l1.8 1.3c.2.1.2.4 0 .6l-1.3.9a.61.61 0 0 1-.8 0l-1.8-1.3c-.2-.1-.2-.4 0-.6l1.3-.9zm-4.1 3c.2-.1.6-.2.8 0l1.8 1.3c.2.2.2.4-.1.6l-1.2.9a.61.61 0 0 1-.8 0l-1.8-1.3c-.2-.1-.2-.4 0-.6l1.3-.9zm-4.2 3c.3-.1.6-.2.8 0l1.8 1.3c.3.2.2.4 0 .6l-1.3.9c-.2.2-.5.2-.7 0l-1.9-1.3c-.2-.1-.1-.4.1-.6l1.2-.9zm-4.1 3h.8l1.8 1.4c.1.1.2.3.1.4l-.1.1-1.3.9a.61.61 0 0 1-.8 0l-1.8-1.3c-.2-.1-.2-.4.1-.5l1.2-1zm-4.1 3.1c.2-.2.5-.2.8-.1l1.8 1.4c.1.1.2.3.1.4l-.1.1-1.3 1h-.8l-1.8-1.4c-.2-.1-.2-.4.1-.5l1.2-.9zm-4.1 3c.2-.2.5-.2.7-.1l1.9 1.4c.2.1.2.4-.1.6l-1.2.9H91l-1.8-1.4c-.1-.1-.2-.3-.1-.4l.1-.1 1.3-.9zm-4.1 3c.2-.2.5-.2.7 0l1.9 1.3c.2.1.2.4-.1.6l-1.2.9a.61.61 0 0 1-.8 0l-1.8-1.3c-.2-.1-.2-.4 0-.6l1.3-.9zm-3.9 3.2c.2-.2.5-.2.7-.1l1.8 1.3c.2.2.2.5 0 .6l-1.1 1.1c-.2.1-.6.2-.7 0l-1.9-1.3c-.2-.1-.2-.4 0-.6l1.2-1zm-3.7 3.4c.2-.2.5-.3.8-.1l1.8 1.3c.2.1.2.4 0 .6l-1 1.1c-.2.2-.5.2-.7.1l-1.9-1.4c-.2-.1-.2-.4 0-.6l1-1zm-3.3 3.5c.2-.2.5-.2.7-.1l1.8 1.4c.2.1.2.4.1.6l-.9 1.2c-.2.2-.5.3-.7.1l-1.8-1.3c-.2-.1-.2-.4-.1-.7l.9-1.2zm-2.3 3.8L75 153c.2.2.3.5.1.7l-.8 1.3c-.1.2-.4.2-.6.1l-1.9-1.4c-.1-.2-.2-.4-.1-.6l.9-1.3c.1-.2.4-.3.6-.1zm17.1-47.6a.61.61 0 0 1 .8 0l1.8 1.3c.2.1.2.4 0 .6l-1.3.9h-.8l-1.8-1.3c-.2-.1-.2-.4 0-.6l1.3-.9zm-4.2 3c.3-.1.6-.2.8 0l1.8 1.3c.2.1.2.4 0 .6l-1.3.9c-.2.2-.5.2-.7 0l-1.9-1.3c-.2-.2-.1-.4.1-.6l1.2-.9zm-4.1 3h.8l1.8 1.4c.2.1.2.4-.1.5l-1.2.9c-.2.2-.5.2-.8.1l-1.8-1.4c-.1-.1-.2-.3-.1-.4l.1-.1 1.3-1zm-4.2 3.1c.2-.2.5-.2.8-.1l1.8 1.4c.2.1.2.4 0 .6l-1.3.9h-.8l-1.8-1.3c-.2-.2-.2-.5.1-.6l1.2-.9zm-4.2 3a.61.61 0 0 1 .8 0l1.9 1.3c.2.1.1.4-.1.6l-1.3.9c-.2.2-.5.2-.7 0l-1.9-1.3c-.2-.2-.1-.4.1-.6l1.2-.9zm-4.1 3c.2-.1.6-.2.8 0l1.8 1.3c.2.1.2.4 0 .6l-1.3.9a.61.61 0 0 1-.8 0l-1.8-1.3c-.2-.1-.2-.4 0-.6l1.3-.9zm-4 3.2c.2-.2.5-.2.8-.1l1.8 1.4c.2.1.2.4 0 .6l-1.2.9c-.2.2-.5.2-.8.1l-1.8-1.4c-.1-.1-.2-.3-.1-.4l.1-.1 1.2-1zm-3.8 3.3c.2-.2.5-.2.8-.1l1.8 1.3c.2.2.2.5 0 .7l-1.1 1c-.2.2-.5.2-.7.1l-1.9-1.4c-.2-.1-.2-.4 0-.6l1.1-1zm-3.4 3.5c.2-.2.5-.3.7-.1h0l1.8 1.3c.2.2.2.5 0 .7l-1 1c-.2.2-.5.3-.7.1h0l-1.8-1.3c-.2-.2-.3-.4-.1-.6l1.1-1.1zm-3.3 3.7c.2-.2.5-.3.7-.1h0l1.8 1.3c.2.2.3.5.1.7l-.9 1.1c-.2.2-.5.3-.7.1h0l-1.9-1.3c-.2-.1-.2-.4 0-.6l.9-1.2z"/><path d="M10.4 59.2L0 91.4c19.9-3.5 36.3 10 41.5 13.8L63.4 121l10.4-31.7h-.1L51.6 73.1c-5.2-3.7-21.4-14.9-41.2-13.9zM27 63.1l1.4.4c.2 0 .4.2.4.4 0 .1 0 .1-.1.2l-.7 2.1c0 .2-.2.4-.4.4-.1 0-.1 0-.2-.1l-1.4-.4c-.2 0-.4-.2-.4-.4 0-.1 0-.1.1-.2l.7-2.2c.1-.2.3-.3.6-.2-.1 0 0 0 0 0zm-4.8-1.2l1.5.3c.2 0 .4.2.4.4 0 .1 0 .1-.1.2l-.7 2.1c0 .3-.3.5-.6.4l-1.5-.3c-.2-.1-.4-.4-.3-.6l.7-2.1c.1-.3.3-.4.6-.4zm-4.8-.7l1.4.2c.3 0 .5.3.4.5l-.7 2.2c-.1.3-.4.4-.7.3l-1.5-.2c-.2 0-.3 0-.4-.2 0-.1 0-.2.1-.3l.7-2.1c.1-.3.4-.4.7-.4zm-6.5 2.3l.7-2.1c.1-.2.4-.4.7-.4h1.5c.3 0 .5.2.4.4l-.7 2.2c-.1.2-.4.4-.7.4h-1.5c-.3 0-.4-.2-.4-.5zm3.3 22.8l1.5.2c.2 0 .4.3.3.5l-.7 2.2c-.1.3-.4.4-.7.3l-1.5-.2c-.2 0-.4-.3-.3-.5l.7-2.2c.1-.3.4-.4.7-.3zm-5-.5h1.5c.3 0 .5.2.4.4l-.7 2.2c-.1.2-.4.4-.7.4H8.2c-.3 0-.5-.2-.4-.4l.7-2.1c.1-.3.4-.5.7-.5zm-3.9 2.6c-.1.3-.4.5-.7.5l-1.6.2c-.3 0-.5-.2-.4-.4l.7-2.1c.1-.3.4-.5.7-.5l1.6-.2c.3 0 .5.1.4.4l-.7 2.1zm57.5 26c.3.2.4.5.3.8l-.7 2.1c-.1.2-.3.3-.6.1l-1.2-.9c-.3-.1-.4-.4-.3-.7l.7-2.2c.1-.2.3-.3.6-.1l1.2.9zm-4.1-3c.2.2.3.5.3.8l-.7 2.1c-.1.2-.4.3-.5.1h-.1l-1.3-.9c-.2-.2-.3-.4-.2-.7l.7-2.2c.1-.2.3-.3.5-.1l1.3.9zm-4.1-3c.2.2.3.5.2.8l-.7 2.1c-.1.2-.3.3-.5.1l-1.3-.9c-.2-.2-.3-.4-.3-.7l.7-2.2c.1-.2.4-.3.5-.1h.1l1.3.9zm-4.2-3c.2.2.4.5.3.8l-.7 2.1c-.1.2-.4.3-.5.1h-.1l-1.3-.9c-.2-.2-.3-.4-.2-.7l.7-2.2c.1-.2.3-.3.6-.1l1.2.9zm-4.1-3c.2.2.3.5.2.8l-.7 2.1c0 .3-.3.3-.5.1l-1.3-.9c-.2-.2-.3-.4-.2-.7l.7-2.2c.1-.2.3-.3.5-.1l1.3.9zm-4.2-3c.3.2.4.5.3.8l-.7 2.1c-.1.2-.3.3-.6.1l-1.2-.9c-.2-.2-.4-.5-.3-.7l.7-2.2c.1-.2.4-.3.5-.1h.1l1.2.9zM38 96.5c.2.1.3.5.3.7l-.7 2.1c-.1.2-.3.3-.5.2H37l-1.3-.9c-.2-.2-.3-.4-.2-.7l.7-2.2c.1-.2.3-.3.5-.1l1.3.9zm-4.2-2.8c.2.2.3.4.3.7l-.8 2.1c0 .2-.2.3-.3.3s-.1 0-.2-.1l-1.3-.7c-.3-.1-.4-.4-.3-.7l.7-2.2c.1-.2.3-.3.5-.2h.1l1.3.8zm-4.4-2.4c.3.2.4.4.3.7l-.7 2.1c0 .2-.2.4-.4.4-.1 0-.1 0-.2-.1l-1.3-.7c-.2-.2-.4-.4-.3-.7l.7-2.1c.1-.3.4-.4.6-.2l1.3.6zM25 89.2c.2 0 .4.2.4.4 0 .1 0 .1-.1.2l-.7 2.2c-.1.2-.4.4-.6.3l-1.4-.5c-.2 0-.4-.2-.4-.4 0-.1 0-.1.1-.2l.7-2.1c0-.2.2-.4.4-.4.1 0 .1 0 .2.1l1.4.4zm-4.3-1l-.7 2.2c-.1.2-.4.3-.6.3l-1.4-.4c-.3-.1-.4-.3-.4-.6l.8-2.2c0-.2.3-.3.6-.3l1.4.4c.2 0 .4.2.4.4-.1.1-.1.2-.1.2zm50.6 1.6c.2.2.3.4.3.7l-.8 2.2c0 .2-.3.3-.5.1l-1.3-.9c-.2-.2-.3-.4-.2-.7l.7-2.2c.1-.2.3-.3.5-.1l1.3.9zm-4.2-3c.2.2.4.5.3.7l-.7 2.2c-.1.2-.4.3-.5.1h-.1l-1.2-.9c-.3-.1-.4-.4-.3-.7l.7-2.2c.1-.2.3-.3.6-.1l1.2.9zm-4.1-3c.2.2.3.4.2.7l-.7 2.1c-.1.3-.3.3-.6.2l-1.2-.9c-.2-.2-.4-.5-.3-.8l.7-2.1c.1-.3.4-.3.6-.1l1.3.9zm-4.2-3.1c.2.2.3.5.3.8l-.8 2.1c0 .3-.3.3-.5.2l-1.3-1c-.2-.2-.3-.4-.2-.7L57 80c.1-.3.3-.3.5-.2l1.3.9zm-4.2-3c.3.1.4.4.3.7l-.7 2.2c-.1.2-.3.3-.6.1l-1.2-.9c-.2-.2-.4-.5-.3-.7l.7-2.2c.1-.2.3-.3.6-.1l1.2.9zm-4.1-3c.2.2.3.4.2.7l-.7 2.2c-.1.2-.3.3-.5.1l-1.3-.9c-.2-.2-.3-.4-.3-.7l.8-2.2c0-.2.3-.3.5-.1l1.3.9zm-4.3-2.8c.3.1.4.4.3.6v.1l-.7 2.1c-.1.3-.3.3-.6.2l-1.2-.8c-.3-.1-.4-.4-.3-.7l.7-2.2c.1-.2.3-.3.5-.2h.1l1.2.9zm-4.3-2.6c.3.1.4.4.3.6v.1l-.7 2.1c-.1.2-.3.3-.5.2l-1.4-.7c-.2-.2-.4-.4-.3-.7l.7-2.1c.1-.3.4-.4.6-.2l1.3.7zm-4.4-2.2c.2 0 .4.2.4.4 0 .1 0 .1-.1.2l-.7 2.1c0 .2-.2.4-.4.4-.1 0-.1 0-.2-.1l-1.3-.7c-.2 0-.4-.2-.4-.4 0-.1 0-.1.1-.2l.7-2.2c.1-.2.3-.3.5-.2h.1l1.3.7zm-4.5-2c.2 0 .4.2.4.4 0 .1 0 .1-.1.2l-.7 2.2c-.1.2-.3.3-.5.2H32l-1.4-.5c-.2-.1-.4-.4-.3-.6l.7-2.2c.1-.2.4-.3.6-.2l1.4.5z"/></g></svg>