<svg xmlns="http://www.w3.org/2000/svg" viewBox="0 0 773 285.7" xmlns:v="https://vecta.io/nano"><path d="M698 168.8c-5.8 2.2-8.3 6.2-11.1 9.8-3.9 5-8.5 9.3-13.7 13-17.1 12.6-42.5 12.8-60 .7-5.6-3.9-10.1-9.3-12.9-15.6-1.2-2.6-1.4-4.4 2.5-3.9 2 .2 4 .2 6 0 7.8-.8 13.4.2 17.1 9.2s16.2 14 26.8 10.7 15.2-11.7 14.9-23.2l-2.7-125.9c-.1-3.5 1.1-4.6 4.5-4.4 5.3.4 11.9-2 15.5 1s1.3 9.6 1.4 14.7l2 98.8c.1 6.7 1.8 11.8 9.7 15.1z" fill="#ea1c24"/><path d="M733.7 120.9l.1 75.4c0 4.1-.7 6.3-5.4 5.6s-10.5 2-13.4-1.1-.8-8.6-.9-13L712.9 45c-.1-4.3.8-6.5 5.6-5.8s11.3-2.1 14.3 1.3.8 9.2.8 14l.1 66.4z" fill="#ea1d24"/><path d="M366.6 285.4H6.3c-2 0-5.8 1.5-5.7-1.6s3.8-1.4 5.8-1.4l721.6-.5c.5-.1 1-.1 1.5 0 1.4.3 4-1 3.9 1.6s-2.6 1.5-4 1.5H366.6v.4zm.3-69.5H6.6c-2.1 0-6 1.8-6.1-1.6s3.8-1.5 5.8-1.5h721.1c2 0 5.8-1.5 5.8 1.4s-4 1.7-6.1 1.7H366.9z" fill="#2a2728"/><path d="M299.6 268.7l-14.7-29.3h-.9l-2.8 19.2-.8 6.5s-.5 2.9-2.6 2.7-1.7-2.1-1.5-3.3l4.4-31.1c.2-2.6.9-5.1 2.1-7.4l16.8 33.8 16.5-33.8h1.1l3.8 25.7c.6 3.9 1.2 7.9 1.6 11.8.2 1.4 1.8 3.5-1 4.1s-3-1.9-3.2-3.8c-1.2-8.1-2.2-16.1-4.2-24.6l-14.6 29.5zm140 .1c-13.8-.1-22-6-24.8-15.8-3-9.6.8-20 9.3-25.3 8.2-5.2 20.5-4.4 27.5 2 1.2 1 4.1 2 2.1 4.5s-3.2.1-4.7-1c-7.4-6.2-18.3-5.9-25.4.7-6.5 6.5-6.9 17.8-.8 24.6s17.5 8.2 25.3 2.4c.8-.6 1.6-1.2 2.3-1.9 1.3-1.5 2.4-.6 3.3.3s.3 2.1-.5 2.9c-4.6 4.6-10.3 6.5-13.6 6.6z" fill="#272425"/><path d="M4.3 246.3v-17.4c-.1-2.6.7-3.6 3.3-3.5 5 .2 10 .1 15 0 1.5 0 3 0 2.9 2.3s-1.6 2.1-3.1 2.1-6 .2-9-.1-4.9.6-4.8 4.5c.2 8.5 0 8.5 8.3 8.5 1.7-.1 3.3 0 5 .1 1.4.1 3.5-.9 3.6 1.9s-1.9 2.2-3.4 2.2c-2.8.2-5.7.2-8.5 0-3.7-.4-5.4.7-5 4.8s.1 8.6.1 13c-.1 1.4.2 3-2.2 3s-2.2-1.4-2.2-2.9v-18.5z" fill="#262424"/><path d="M703.7 225.9c2.8-1.3 4.6-.1 6 2.4 2.7 4.6 5.6 9 8.8 14.3l8.5-13.8c.6-1.2 1.5-2.2 2.5-3.1 1-.7 2.3-.6 3.2.1 1 .9 0 1.8-.5 2.6-.4.9-.9 1.8-1.5 2.6-7.3 9.8-12 20.5-9.9 33.2.2 1.4.7 3.5-2.1 3.5s-2.6-1.7-2.3-3.3c2.3-13.3-3.2-24.2-10.7-34.4a23.81 23.81 0 0 1-1.8-3c-.2-.3-.1-.7-.2-1.1z" fill="#2a2728"/><path d="M618.2 248.3c0-4.6-.3-9.3 0-13.9s-.7-5.4-4.5-4.7h-2.5c-1.8.1-2.3-.8-2.3-2.4s1.1-1.9 2.4-1.9h18.4c1.6 0 2.5.4 2.4 2.2s-1.1 2.2-2.6 2.1H627c-3.6-.6-4.3 1.1-4.2 4.5.2 9.7.1 19.5 0 29.3 0 1.8 1 4.3-2.5 4.2s-2.1-2.4-2.1-4c-.1-5.1 0-10.3 0-15.4z" fill="#2b292a"/><path d="M182.3 246.4V229c.1-1.6-.5-3.5 2.2-3.6s2.5 2 2.5 3.8l-.1 29.9c0 3.4.9 4.7 4.5 4.4 3-.2 5.9-.2 8.9 0 1.4 0 2.7-.1 2.7 1.9s-.7 2.4-2.4 2.4c-5.3-.1-10.6-.1-15.9 0-2.6 0-2.4-1.7-2.4-3.4v-18zm-82 .1V229c0-1.5-.6-3.5 2.1-3.6s2.5 1.6 2.5 3.3v36c0 1.5.1 3-2.2 3.1s-2.4-1.7-2.4-3.3v-18z" fill="#272425"/><path d="M531 246.1v-17.4c0-1.6-.3-3.4 2.3-3.2s2 1.8 2 3.2v35.8c0 1.6.3 3.4-2.4 3.2s-1.9-1.8-1.9-3.2v-18.4z" fill="#262324"/><path d="M61.2 246.4c-.6 3.4-2.3 5.2-5.4 5s-4.8-2.1-4.6-5.3c0-2.4 1.9-4.4 4.4-4.4h.5c3.2 0 4.6 2.1 5.1 4.7zm88.9.3c-.5 3-2.2 4.9-5.3 4.7s-4.9-2-4.7-5.2 2.1-4.5 4.9-4.5 4.7 2 5.1 5zm92.2-5.1c3.2.4 5 2.1 4.8 5.3s-2 4.5-4.8 4.5-5-1.8-5-4.9 2.1-4.7 5-4.9z" fill="#e12c31"/><path d="M488.9 246.7c-.6 3.1-2.3 5-5.4 4.7s-4.7-2.2-4.5-5.4 2.1-4.4 5-4.3 4.6 2.1 4.9 5z" fill="#e12e33"/><path d="M669.9 241.6c3.1.2 5 1.9 5 5 .1 2.7-2.1 4.9-4.8 5s-4.9-2.1-5-4.8c-.1-3.2 1.8-4.8 4.8-5.2z" fill="#ea1c24"/><path d="M577.9 246.4c-.4 3-1.9 5-5 5-2.4.3-4.6-1.5-4.9-3.9v-.5c-.2-3.2 1.4-5.1 4.5-5.3s4.8 1.7 5.4 4.7z" fill="#e22a30"/><path d="M248.4 5.8c-6.2.7-11.9-2.2-18-2.4-2.8-.1-5.5-.6-8.7-.1 2.9 3.4 8.1 1.2 10.4 4.9l-18.8-4.6c12-3.7 23.5-.8 35.1 2.2z" fill="#d7383b"/><path d="M469.1 2.9c1.2-2.7-1.4-1.4-2.1-2 2.6-1.3 5.4-.8 8.8-.8-1.7 1.8-4.2 2.8-6.7 2.8z" fill="#d94b4e"/><path d="M726.3 10.7c-35.9-.9-71.9-.8-107.9-.5-33.6.2-66.9 1.9-99.4 11.7-23.9 7.2-47.4 15.7-69.9 26.6-4.1 2-5 1.3-4.8-3.1.5-8.7.7-17.3.7-26 0-3.7 1.4-5.9 4.5-7.5 6.3-3.5 12.9-6.5 19.6-9 .7-.4 1.5-1.1.9-1.8s-2-.7-3-.2c-1.6.4-3.2.8-4.8 1-12.7.5-24.8 3.7-36.7 8.1-28.4 10.5-53.6 26.4-76.5 46.1-1.8 1.5-3.1 3.1-5.7.7-20.6-18.4-44.2-31.9-69.2-43.2a96.65 96.65 0 0 0-25.7-7.8c-2.6-.5-5.2-.6-7.8-1.3-5.3-1.2-10.7-2-16.2-2.2-1.3 0-2.9-.7-3.1 1.3s1.3 1.5 2.5 1.9 5.9.7 8.3 2.7c4.3 1.7 8.6 3.5 13 5 2.7 1 3.8 2.6 3.8 5.6-.1 9.8-.1 19.7.2 29.5.1 3.9-.9 4.2-4.1 2.5-7.4-3.9-14.8-7.7-22.4-11.1-25.7-11.6-52.2-21-80.5-24.2-16.7-1.9-33.6-1.7-50.4-2.1-29-.6-58 .3-87 .4-3.8.1-4.3 2.1-4.6 5s2.6 2.4 4.2 2.3c34.1-2 68.3-.8 102.4 1.1 13.4.8 27 .7 40.2 3.6 37.7 8.5 69.9 28.1 100.1 51.3 2 1.6 2.3 3.4 2.4 5.7l.3 27.4.5 64c0 11.8-6 17.1-17.5 15.8-2.1-.3-2.6.4-2.5 2.3.1 1.7.2 3.3.1 5-.3 3.3.9 4.6 4.5 4.6l57.5.1c1.1 0 3 0 3.2-.5 1.3-3.7.6-7.6-.2-11.2s-2.8-.5-4.2-.5a9.89 9.89 0 0 1-7.6-3.1c-3.3-3.5-5.3-8.1-5.6-13-1.2-21.6-.9-43.3-.8-64.9 0-1.5-.5-3 .8-4.8 1.4 1.2 2.8 2.3 4 3.5 9.2 8.9 18.2 18.1 26.5 27.9 1.5 1.7 2.6 3.8 4.4 0 6.6-14.5 15.8-27.4 25.1-40.2 3.9-5.2 3.9-5.2 7.9-.4 10.5 12.9 20.8 26 28.7 41.2 12.6-12.9 26-25.1 40.1-36.4 1.3 1.1 1.1 2.1 1.1 3.1l.6 73.5c.1 8-4.2 12.8-12.5 13.2-4.1.3-5.1 1.8-4.8 5.4a20.68 20.68 0 0 1-.3 3.5c-.5 2.6.6 3.5 3.2 3.5h58c1.5 0 2.8.1 3.2-2.1 1.2-6.4-.2-9-6.5-10.9-9.1-2.9-11.2-5.8-11.3-15.5l-1-91.4c0-3.3.8-5.5 3.7-7.4 17.1-11.4 34.6-22 53.2-30.7 22.7-10.6 46-20.2 71.1-22.3 51.2-4.1 102.5-6.3 153.8-3.6 2.4.1 5.4 1.2 5.5-3.4s-2.7-3.7-5.3-3.8zM326.6 73.8c-5.3 5.6-10.3 11.4-15.3 17.2-1.8 2.1-3.1 2.2-5.3.4-8.3-6.9-17-13.2-26-19.3-1.5-1.1-2.9-2-2.9-4.3l.1-35.9c13.4 7.5 26.1 16.3 37.8 26.3 3.8 3.2 7.3 6.7 11.1 9.9 2.2 1.9 2.7 3.4.5 5.7zm74.7 1.2c-7.5 3.6-14.2 9.1-21.2 13.9-2.2 1.5-3.5 1.6-5.4-.4-4-4.2-8.2-8.3-12.5-12.3-1.8-1.7-2-2.9-.1-4.8 14.9-15 31.4-28.3 49.4-39.4 2.6-1.6 3.5-1.1 3.4 1.9-.1 5.2 0 10.3 0 17.2 4 11.3-2.3 18.4-13.6 23.9zM220.2 197.7l-14-40.6-36.8-107.7c-1.2-3.4-2.7-4.7-6.3-4.6-5.5.2-11 .2-16.5-.2-3.1-.1-3.7.8-2.6 3.8l10.3 30.2c1.2 3.2 1.1 6.8-.5 9.9l-46.9 100c-3.3 7-9.5 8.3-15.5 3.1-3.8-3.3-6.4-7.8-7.3-12.8-1.2-5.3-3.9-10.3-7.6-14.3l-6.3-7c9.8-3.4 18.9-6.8 27-12.5 15.5-11 21.1-26 15.4-44.1-9.4-29.8-30.1-48.4-59.1-58.3-16.3-5.5-32.5-6.7-48.7.6-3.5 1.6-4.9 3.7-4.8 7.6l.2 55.5.1 95.4c0 3.9.9 5.4 5 5.1a86.55 86.55 0 0 1 14.4 0c4.5.3 6.1-.9 5.8-5.7-.7-11.3-.9-22.6-1.1-34-.2-5.5 2-8.5 6.3-9.2 12.2-2.3 24.1 5.2 27.4 17.2 4.8 17.4 17.5 27 35.6 26.9 9.8-.1 19.6-.3 29.4 0 3.8.1 5.5-1 6.6-4.8l16.4-56.6c.9-3.3 2.3-4.6 5.8-4.4 5.5.4 11 .6 16.5.3 4.5-.2 6.6 1.1 8 5.8l17.8 55.6c.9 3.1 2.3 4.2 5.6 4.1 5.8-.3 11.6-.3 17.4-.1 3.7.2 4.2-.9 3-4.2zM52 150.8c-3.6.9-7.2 1.2-10.9 1.1-8.9-.6-16.6-7.2-16.1-16.8s.2-20.3.2-30.4h-1.5l-.1-29c-.3-12.4 6.9-20.3 19.6-20.7 26.2-.8 45.7 16.9 49.2 43.2 2.8 20.8-9.7 46.3-40.4 52.6zm113.5-27.5c-13.8 1.4-13.8 1.5-9.7-11.4l4-12.3h1.1l6.8 20.7c.7 2.2 0 2.7-2.2 3zm429.6-14.6c-3.3-21.8-11.1-41.4-28-56.5-19.1-17-43.7-16.3-61.8 1.8-4.4 4.3-8.2 9.2-11.2 14.6-11.3 20.3-14.1 42.1-11.3 64.8 2.6 20.6 9.8 39.3 25 54.2 20.1 19.9 46.9 19.5 66.3-1 16.4-17.3 21.5-38.9 22.1-61.9.1-5.4-.3-10.7-1.1-16zm-26.8 61.9c-2.5 5.5-5.4 10.7-9.7 15-10.2 10.6-22.8 10.9-33.6.9-8.9-8.4-14.1-18.9-17.6-30.3-8.3-27.4-9-54.7.6-82 2.5-7.4 6.7-14.2 12.2-19.8 9.1-8.8 20.3-9.5 30.3-1.7s15.3 19.1 19.5 30.8c2.2 6.5 3.9 13.1 4.9 19.9 1.1 7.2 1.7 14.4 1.9 21.7-.3 16.1-2.2 31.2-8.5 45.5z" fill="#ea1c24"/><path d="M757.8 5.1c-8 .3-14.4 6.9-14.5 14.9.1 8.2 6.9 14.9 15.1 14.8 8.2.5 15.3-5.8 15.8-14s-5.8-15.3-14-15.8c-.8 0-1.6 0-2.4.1zm.2 27.1c-6.7-.2-12.1-5.8-11.9-12.5s5.8-12.1 12.5-11.9c6.6.1 11.9 5.4 11.8 12v.2c.1 6.6-5.2 12.1-11.8 12.2h-.6z" fill="#323132"/><path d="M761.8 23.1c-.9-1.1-1.6-1.9.1-2.9 1.9-1 2.6-3.3 1.7-5.2-.8-2.1-2.8-2.6-4.9-2.8-6.9-.8-7-.8-7 6.1v7.4c.1 1-.1 2.3 1.3 2.2s1-1.4 1.2-2.3-1-3.6 1.6-4 3.1 1.7 4.1 3.1 1.3 4.2 4.8 2.9c-.9-1.6-1.8-3.1-2.9-4.5zm-4.1-4c-2.3.1-3.6 0-3.6-2.2s1.5-2.7 3.3-2.6 3.6.1 3.7 2.4-2.3 2.3-3.4 2.4z" fill="#333132"/></svg>