<svg xmlns="http://www.w3.org/2000/svg" viewBox="0 0 1013.2 190.6" xmlns:v="https://vecta.io/nano"><style><![CDATA[.I{fill:#252122}.J{fill:#231f20}.K{fill:#262223}.L{fill:#242021}]]></style><path d="M640.2 53.7l12.5-15.4c1.1-1.4 2.4-.8 3.7-.9h3.6l-11.5 12.8c4.5.6 6.8 3.7 8.3 7.3 2.6 6 5.1 12.1 7.6 18.3-3.6.7-7.2.3-10.9.4s-7.8-.1-11.7.2-8.4-1-11.1-5.4c-2.2 5-6.3 5.7-10.8 5.5h-7c-4.7.2-8.6-1.1-11.3-5.5-2 4.4-5.6 5.6-9.9 5.5h-30.6c-3.5 0-7-.4-9.8-3.6-.3 2.9-.3 5.5-1 7.9-1.5 4.6-4.7 7.1-9.5 7.6-1.5.2-2-.4-2-1.7s-.9-2.2 1.2-2.6c4-.7 5.4-2.7 5.7-7 .6-6.4.2-12.9.3-19.4 0-2.1 2.5-4.3 4.5-4s.6 1 .6 1.5c.1 3.3 0 6.5.1 9.8s2.3 6.5 6.3 6.9h8.9a15.7 15.7 0 0 1-3.2-10.9 13.9 13.9 0 0 1 12.3-13.8 25 25 0 0 1 8.2.5c2.4.6 1.2 2.1 1.1 3.3s-1.1 1.3-2.3 1c-4-1.1-8-1.2-11.1 2.2s-3.3 7.3-2.1 11.4 4.5 6.4 8.8 6.5h12.5c4.5 0 6.6-1.9 6.8-6.2s.1-9.5.2-14.3c0-1.8 2.6-3.8 4.4-3.4s.6 1 .6 1.6v13.6a10.9 10.9 0 0 0 .6 4.4 6.7 6.7 0 0 0 6.6 4.4h10.1c4.2 0 6.4-2.1 6.6-6.4s0-9.4 0-14c0-1.8 2.9-4 4.6-3.5s.5 1.1.6 1.6v13.8c0 6.1 2.4 8.5 8.4 8.5h15.1c1.6 0 2.1-.2 1.4-1.9l-3.5-8.8c-2.8-6.7-5.3-8.2-12.9-7.8zM440.3 70.6c-2 4.3-5.3 5.5-9.6 5.5l-35.6-.1c-.9 0-2.3.9-2.7-.7s1.6-3.5 3.2-3.5h21.7c-1.1-4.6-1.9-9.2-3.2-13.6s-6.1-7.4-11.2-5.4c-1.2.4-2.2 1-3.4 1.5-1.4-3.9-1.2-4.2 2.5-5.6 6.9-2.6 13.3 0 16.4 6.8 2 4.5 2.6 9.4 3.7 14.2.4 1.8 1.1 2.5 2.9 2.3s3.4 0 5-.1c3.5 0 5.4-1.5 6.1-5s.2-8.8.3-13.2 0-4.9 5.1-5.7v16.3a7.6 7.6 0 0 0 1.9 5.2 5.5 5.5 0 0 0 5.6 2.1 5.1 5.1 0 0 0 4.1-4.1c1-3.7.4-7.5.6-11.2.3-5.4.4-10.8.2-16.2-.1-2.6.7-3.9 3.1-4.3.6-.1 1.2-.7 2-.4 0 10.2.3 20.4-.1 30.6-.4 8.4-7.7 12.6-14.4 8.8-1.7-1-2.8-2.5-4.2-4.2zm-110-35.3V64a15.8 15.8 0 0 1-.3 3.8c-.7 3.8-2.5 6.9-6.6 7.9a10 10 0 0 1-10.7-3.8l-.9-1.3c-2.2 5-6.4 5.5-11.1 5.5l-34-.1c-.9 0-2.2.7-2.5-.7s1.6-3.5 2.9-3.5h22c-1.1-4.7-1.9-9.3-3.2-13.7s-6.5-7.7-11.8-5.3a22.9 22.9 0 0 0-2.7 1.4c-1.5-3.9-1.3-4.4 2.5-5.7 7-2.6 13.2.1 16.3 6.9 2.1 4.6 2.6 9.6 3.8 14.5.4 1.6 1 2 2.5 1.9h5c3.7 0 5.8-1.7 6.2-5.4s.1-9.8.2-14.7c.1-1.9 2.9-4.3 4.7-3.8s.5 1.1.5 1.6v15a7.3 7.3 0 0 0 2.3 5.6c3.2 3.1 7.8 2 9.2-2.2a10.9 10.9 0 0 0 .6-4.4V41.1c0-4.7 0-4.7 5.1-5.8zM630.7 128v18.7c0 1.7-.3 2.4-2.1 2.3-3.7-.1-3.7.1-3.7-3.7v-14.5c.1-1.2-.2-1.7-1.6-1.7h-17c-1.7 0-1.9.7-1.9 2.1.1 5.2-.1 10.5.1 15.7.1 2.6-1.4 2.1-2.8 2.1s-2.9.4-2.8-2.1v-38.3c0-1.5.4-1.9 2-1.9 3.6 0 3.6 0 3.6 3.5l-.1 12.5c0 1.4.5 1.8 1.9 1.8h17c1.4 0 1.7-.4 1.6-1.7v-14c0-1.5.2-2.4 2-2.1h1.7c1.6-.2 2.1.4 2.1 2.1-.1 6.4 0 12.8 0 19.2zm-392.3.6c-2.8 2.2-4.4 4.7-4 8.4s-.1 6.6.1 10c.1 1.7-.5 2.1-2.1 2-4.4-.1-3.6.4-3.6-3.5V138l-.1-28.7c-.1-2.5.9-2.7 2.9-2.6s3.1-.2 2.9 2.5c-.2 5.7-.1 11.4-.1 17.5 4.8-5.8 9.3-11.1 13.5-16.7 2-2.6 4-3.8 7.1-3.3h2.6l-6.3 7.4-7.5 8.8a2.5 2.5 0 0 0-.2 3.7c4.5 6.4 8.8 12.9 13.2 19.4l2.1 3h-5.6c-1.3.1-1.7-.9-2.2-1.7zm147.9-56.7c-1 4.1-1 4.1-5 4.1h-28.8c1.9 4.9 8.1 8.2 13.8 7.6l2.5-.4c2.2-.3 3.1.5 3 2.8s-.3 1-.9 1.2c-10.3 2.3-22.1-.7-25.3-13.7-.3-1.5-.1-1.8 1.4-1.8h28.8c2 0 2.5-.6 2.6-2.5.5-8.6-3.1-14.7-10.2-16.8a16.6 16.6 0 0 0-10.8.4c-1.5.5-2.2.4-2.4-1.1s-1.5-2.6 1-3.2c14.6-3.9 28 3.4 27.9 19.7v.8c-.1 2.6-.1 2.6 2.4 2.9zm26.7 34.3a26.7 26.7 0 0 1 7.7 1c2.7.6 1.2 2.2 1 3.6s-1 1.5-2.4 1.1a21 21 0 0 0-7.9-1.1c-8.5.4-14.1 5.9-15.3 15.1s3.1 15.9 10.4 18.1a23 23 0 0 0 13-.2c.6-.2 1.7-1.3 1.9.3s1.9 3-.3 4.1c-12.6 6.2-28.4-1.6-30.5-15.4-1.4-8.7.4-16.6 7.8-22.4 3.8-2.9 8.4-4.2 14.6-4.2zm-132 17.3c3-4.1 6.6-5.7 10.9-5.5s9 3.5 9.7 8.8c1.1 7 .3 14.1.5 21.2 0 .8-.3 1.2-1.2 1.2h-.7c-4.6-.1-3.7.5-3.8-3.6v-13.3a16.2 16.2 0 0 0-.1-2.2c-.5-5.1-3-7.6-7.3-7.4s-7.2 3.6-7.3 8.1 0 10.7.1 16c0 1.7-.4 2.3-2.2 2.2-3.5-.1-3.5 0-3.5-3.4v-25.2c0-1.2.1-2.1 1.5-1.7s3.3-1.1 3.4 1.5c.1.9 0 1.8 0 3.3zm710.8 0c3.4-4.5 7.4-6.1 12.2-5.3a9.4 9.4 0 0 1 8.2 8.5c.8 7.1.2 14.2.3 21.2 0 .5.1 1.2-.6 1.2s-3.1.3-4.4-.2-.4-1.9-.5-3v-13.5a14.8 14.8 0 0 0-.5-4.7 6.8 6.8 0 0 0-11.7-2.8 8.6 8.6 0 0 0-2.5 6.1c0 5.3-.1 10.5.1 15.7.1 3-1.7 2.1-3.2 2.3s-2.6-.2-2.5-2.4v-26.2c0-.9-.2-2.1 1.2-1.7s3.4-1.3 3.7 1.5a26.3 26.3 0 0 1 .2 3.3zM234.4 52.1v20.1a16.8 16.8 0 0 0 .8 5.4c1.3 3.9 4.1 6.1 8.1 6.1s7.3-1.8 8.8-5.9a21.8 21.8 0 0 0 1-7.6c0-4.5.1-9-.1-13.5-.1-2.3.6-3.6 2.9-3.9l2.3-.6v3.5c-.3 6.9.6 13.8-.6 20.6s-7 11.9-15.6 11.5c-7.1-.3-11.7-4.9-12.6-12.6s-.1-13.5-.3-20.2a1.3 1.3 0 0 1 1.2-1.6zm655.2 71.3a11.8 11.8 0 0 1 10.9-5.4c5.8.4 9.6 4.6 9.9 11.4s0 12.2.1 18.2c0 1.3-.5 1.7-1.6 1.6h-2c-1.6.2-2-.5-2-2l.1-14.7c-.1-1.2-.2-2.3-.4-3.5-.7-4.1-2.9-6.2-6.5-6.3a7.6 7.6 0 0 0-7.6 6.2 25.9 25.9 0 0 0-.4 6.2v12c0 1.3-.2 1.9-1.7 1.9-3.8.1-3.8.2-3.8-3.6l-.1-25c0-1.1 0-2.1 1.5-1.7s3.5-1.4 3.5 1.6c0 .9 0 1.8.1 3.1z" class="J"/><path d="M828.4 125.6l-.1 16.2c0 1.8.3 2.6 2.4 2.5 4.6-.2 9.2 0 13.8-.1 2-.1 1.9.9 1.8 2.3s.5 2.6-1.8 2.5h-20c-1.4 0-1.9-.3-1.9-1.8v-38.7c0-1.5.4-2 1.8-1.8h1.3c2-.3 2.8.3 2.7 2.6-.2 5.4 0 10.8 0 16.3z" class="L"/><path d="M671.7 143.5c2.8 1.2 5.6 2.3 8.7 1.8s3.8-1.2 4.3-3.5a4.4 4.4 0 0 0-2.5-5l-5.4-2.5c-4.2-2.1-6-5-5.4-8.9s3.1-6.3 7.4-7.3a17 17 0 0 1 8.9.7c2.3.7 1.1 2 .8 3.3s-1.2 1.5-2.4.9a9.2 9.2 0 0 0-5.4-.8 4 4 0 0 0-4 3.2 3.9 3.9 0 0 0 2 4.2c1.8 1.2 4 1.7 5.9 2.6s5.4 3.6 5.5 7.3c.3 5.3-2.3 8.6-7.5 9.8a19.6 19.6 0 0 1-9.9-.5c-2.3-.6-2.7-1.7-1.7-3.7a7.7 7.7 0 0 0 .7-1.6zm-311 6.2a17.2 17.2 0 0 1-7.1-1.3c-2.5-1-.5-2.4-.4-3.6s1.3-1 2.2-.6a14.4 14.4 0 0 0 6.8 1.2c2.3-.3 4-1.3 4.5-3.7s-.7-4-2.7-5-3.1-1.3-4.6-2c-4.5-2-6.6-5.1-6.1-9.3s3.6-6.8 8.2-7.5a15 15 0 0 1 8.6 1.1c2.4 1 .3 2.3.2 3.4s-1 1.2-1.9.7a9.9 9.9 0 0 0-5.6-.9 3.9 3.9 0 0 0-4 3.1c-.6 2 .3 3.4 2 4.3l4.1 1.9c6 2.4 8 5.6 7 10.9s-4.8 7.3-10.5 7.3zm391.1-38.4c0 2.5-.8 5.4.2 6.8s4.2.5 6.4.5 1.2 1.4 1.3 2.3.3 2.1-1.4 1.9-3.3.1-5 0-1.6.4-1.6 1.7l.1 15.2c.1 5.1 1.4 5.2 5.6 5 .8 0 1.9-.5 1.7 1s1.1 3-1.1 3.4c-6.5 1.3-11.4-.1-11.7-8.1-.2-5.1-.2-10.3-.1-15.4.1-2.1-.2-3.3-2.6-2.8s-2-.6-2-2.1.3-2.2 2-2.1 2.5.9 2.6-1.2-.7-3.5.3-4.3 3.2-1.2 5.3-1.8z" class="J"/><path d="M480.3 126.7l.1 20.3c.1 2.9-1.8 1.8-3.2 2s-2.6.2-2.6-2.1q.1-20.2 0-40.5c0-2.5 1.3-2.1 2.8-2.1s3.1-.5 3 2.2c-.2 6.7-.1 13.5-.1 20.2z" class="I"/><path d="M466.6 126.6l.1 20.3c.1 2.5-1.3 2.1-2.8 2.1s-2.9.4-2.8-2.1q.1-20.2 0-40.5c-.1-2.5 1.3-2.1 2.8-2.1s2.9-.4 2.8 2.1c-.2 6.8-.1 13.5-.1 20.2zm327.8.1l-.1-20.2c0-2.1.8-2.4 2.5-2.2s3.2-.8 3.1 2V147c.1 2.7-1.6 1.9-2.9 2s-2.7.3-2.7-2c.2-6.8.1-13.5.1-20.3z" class="L"/><path d="M268.1 134v13.2c.1 1.4-.4 2.2-1.7 1.7s-3.8 1.7-3.8-1.7v-26.9c0-1.3.3-1.8 1.6-1.7a6.7 6.7 0 0 0 2 0c1.6-.2 2 .5 1.9 2-.1 4.4 0 8.9 0 13.4zm463.1-.2l-.1-13.2c0-1.6.4-2.2 1.9-2a8.9 8.9 0 0 0 2.3 0c1.1-.1 1.4.4 1.4 1.4v27.4c0 1.2-.3 1.7-1.5 1.6h-2.3c-1.4.2-1.8-.4-1.8-1.8l.1-13.4z" class="J"/><path d="M342.5 120.7a136.7 136.7 0 0 0 3.4-13.3c.1-1.1.7-1.4 1.6-1.5l4.4-.4a66.5 66.5 0 0 1-5.6 14.3c-.7 1.3-2.4.9-3.8.9z" class="L"/><path d="M734 106.7a3.6 3.6 0 0 1 3.6 3.7c-.2 2.1-1.5 3-3.5 3.1a3.3 3.3 0 0 1-3.5-3.4 3.2 3.2 0 0 1 3.4-3.4zm-465 3.5a3.3 3.3 0 0 1-3.6 3.3 3.3 3.3 0 0 1-3.4-3.5c0-2.1 1.4-3.3 3.5-3.3a3.4 3.4 0 0 1 3.5 3.5z" class="I"/><path d="M579.4,39.7a2.8,2.8,0,0,1-2.9,3c-2,0-2.9-1.2-2.9-3a2.9,2.9,0,1,1,5.8,0Z" class="K"/><path d="M551.5 43.8c-.1 1.7-.9 2.9-2.8 3s-2.9-1-2.9-2.9a2.7 2.7 0 0 1 2.9-3c1.7-.1 2.7 1.1 2.8 2.9z" fill="#272324"/><path d="M246.5 44.6c-.2 1.8-.9 3-2.9 3.1s-2.9-1.2-2.9-3a2.7 2.7 0 0 1 3-2.9c1.8 0 2.6 1.1 2.8 2.8z" fill="#282526"/><path d="M825.9 41a2.8 2.8 0 0 1-2.8-3.1c0-1.8 1.1-2.7 2.9-2.8s2.9 1.2 2.8 3.1a2.6 2.6 0 0 1-2.9 2.8z" class="K"/><path d="M312.8 37.7c0 2.3-1 3.3-2.9 3.3a2.8 2.8 0 0 1-2.8-3.1 2.8 2.8 0 0 1 2.9-2.8c2 0 2.8 1.1 2.8 2.6z" class="I"/><path d="M628.7 81.9c1.9.1 2.9 1 3 2.8s-.8 3-2.7 3.1a2.7 2.7 0 0 1-3.1-2.8 3 3 0 0 1 2.8-3.1z" class="K"/><path d="M876.1 35.1a2.6 2.6 0 0 1 3 2.8c0 1.9-.8 3-2.8 3.1s-2.9-.7-2.9-2.6a2.8 2.8 0 0 1 2.7-3.3z" class="I"/><path d="M441.5 85c-.3 1.7-1.1 2.9-3.1 2.8s-2.7-1.3-2.6-3.1a2.6 2.6 0 0 1 3.1-2.7c1.8.1 2.5 1.3 2.6 3z" class="L"/><path d="M621.2 87.8c-1.9-.1-2.9-1-2.9-2.9s1.1-3 2.9-2.9a2.5 2.5 0 0 1 2.7 2.8c0 1.9-.8 3-2.7 3z" class="I"/><path d="M780.3 38a2.7 2.7 0 0 1-2.8 3 2.5 2.5 0 0 1-2.8-2.8 2.7 2.7 0 0 1 2.8-3.1c1.8 0 2.7 1.1 2.8 2.9zm90.7-.1c0 1.8-.8 3-2.6 3.1a2.8 2.8 0 0 1-3.1-2.9c-.1-1.9 1-2.9 2.9-3a2.6 2.6 0 0 1 2.8 2.8z" class="K"/><path d="M430.7 81.9c1.8.2 2.8 1.1 2.8 2.9s-.8 3.1-2.8 3-2.8-1.2-2.8-3.1 1.2-2.6 2.8-2.8zM602.9 38c-.1 1.9-1 3-2.9 3a2.7 2.7 0 0 1-2.9-2.7 2.9 2.9 0 0 1 3.1-3.2c1.8.1 2.6 1.1 2.7 2.9z" class="I"/><path d="M833.6 41a2.7 2.7 0 0 1-2.6-3 2.8 2.8 0 0 1 3.1-2.9 2.7 2.7 0 0 1 2.7 3 2.9 2.9 0 0 1-3.2 2.9z" fill="#272324"/><path d="M377.9 85.4a2.8 2.8 0 0 1-2.9-3 2.6 2.6 0 0 1 2.9-2.9c2 0 2.6 1.3 2.6 3a2.7 2.7 0 0 1-2.6 2.9z" class="K"/><path d="M832.4 31.5c-.1 1.6-1 2.7-2.6 2.6a2.4 2.4 0 0 1-2.5-2.8 2.4 2.4 0 0 1 2.5-2.5c1.7 0 2.5 1.1 2.6 2.7z" fill="#292526"/><path d="M190.9 14.2c0-8.7-3.7-13-12-14a8.2 8.2 0 0 0-2.7-.2H12.9a15.6 15.6 0 0 0-6.1.9C2.6 2.7.6 6 0 10.3v170.4c.8.3.6 1.1.8 1.7 1.5 4.5 4.8 6.9 9.3 7.8a33.1 33.1 0 0 0 5.5.4h161.3c9.4-.3 13.9-4.9 14-14.2V14.2zM26.1 15.4c.3-1.6 1-2.3 2.7-1.9a19.8 19.8 0 0 0 3.6.4 17 17 0 0 0-1.4 8.6c.3 2.2.9 4.2 3.5 4.9s4.1-1 5.4-2.8 2.2-3.9 3.2-5.9c3-6.2 6.1-7.9 12.2-7s8.4 4.6 9.2 10.4a23.3 23.3 0 0 1-1 10.1c-.5 1.8-1.5 2.2-3.2 1.9l-3.6-.4c1.3-2.9 2.6-5.8 2.4-9.1s-2.1-6.1-5-6.4-3.9 1.6-5.1 3.4-2.5 4.9-3.9 7.3c-2.8 4.8-6.3 6.3-11.5 5.3s-7.5-4.7-8.1-9.7a27.8 27.8 0 0 1 .6-9.1zm-14 18.8l17.1 5.9c1.8.7.7 2.4.9 3.7s-.1 2.6-2.3 2c-4.6-1.3-9.3-2.4-14-3.4-1.4-.3-1.8-.9-1.7-2.2s0-3.8 0-6zm-2.2 98.2c0-3.1 0-3.1 4.5-3.1s3.1 0 3.1 4.6c0 2.8 0 2.8-4 2.8s-3.6 0-3.6-4.3zm54 17c-.1 1.1-1.1 1.5-1.7 2L41 169.8l-2.7 2.4H61c2.3-.1 2.8.6 2.7 2.7-.2 4.3-.1 4.3-4.5 4.3H14.6c-1.8 0-2.6-.2-2.6-2.4.2-4.7.1-4.7 4.8-4.7H35l-14.9-13.8a22.7 22.7 0 0 0-2.8-2.6c-5.1-3.2-6.2-7.9-4.8-13.8l9.5 9c4.3 4.3 8.7 8.5 13.1 12.7 1 1.1 1.7 1.3 2.9.1l24.6-22.8c.3-.3.4-.7 1.3-.6zm-4.3-13.1H28.3c-1.7 0-2.2-.5-2.2-2.2.1-4.5 0-4.5 4.4-4.5h31.1c1.8 0 2.4.4 2.3 2.3-.1 4.4 0 4.4-4.3 4.4zm-.5-39c-6.7.2-13.5-.4-20.2.4-4.6.6-7.3 2.7-7.9 6.1a9.3 9.3 0 0 0 5.2 10.4 20 20 0 0 0 9.6 2h16.3c1.4 0 1.8.4 1.8 1.8.1 5 .1 5-4.9 5H28.4c-1.9 0-2.6-.5-2.3-2.4.1-.1 0-.3 0-.5 0-3.4 0-3.4 3.4-3.4h2.7c-6.2-4.3-7.7-9.8-6.4-16.2s5.8-9.4 12.6-9.7 16-.1 24-.2c1.3 0 1.5.6 1.5 1.7.2 5 .2 5-4.8 5zm19.2-15.8c-.5 1.6-1.1 2.3-2.7 1.8s-2.6-.4-4.1-.6a33.3 33.3 0 0 0 2.9-9.1 17.2 17.2 0 0 0-.1-6.4c-.9-4.8-3.8-7.6-8.6-8.5a37.7 37.7 0 0 0-7.5-.3c-.3.5.1.8.4 1 5 4.7 6.2 10.4 4.2 16.7s-7.2 9-13.2 10a23.7 23.7 0 0 1-18.4-3.8 14.8 14.8 0 0 1-.1-24l.3-.5h-2.3c-2.5.4-3.3-.5-3.2-3.2s.4-3 2.9-3c11.2.2 22.4.1 33.6.1a19.8 19.8 0 0 1 9 1.7c5.7 2.7 7.6 7.8 8.3 13.6a35.6 35.6 0 0 1-1.4 14.5z" fill="#0b2443"/><path d="M524.9 74.3c-2.4-5.4-4.6-10.9-6.9-16.3-1.6-3.8-3.8-7.1-8.6-7.9l11.4-12.6c-6.1-.4-6.1-.4-9.6 3.9l-4.4 5.4-5.4 6.7c7.1.2 9.1 1.1 11.3 5.2a102.7 102.7 0 0 1 5.4 13.5c-9.3 0-18.2-.1-27.1 0-1.5 0-1.9-.5-1.8-1.9 0-4.1.1-8.3-.1-12.5-.3-5.8-3.5-9.1-9-9.9-8.1-1.2-14.3 3.7-15.4 12.3-1.4 10.7 5.4 16.3 12.8 16.2h4.8c1.1 0 1.4.4 1.3 1.5-.1 3.2-1.7 5.3-5.5 6.1-2 .4-1.5 1.4-1.4 2.6s.8 1.9 2.3 1.8a11.2 11.2 0 0 0 9.9-10.1c.3-2 1-2.1 2.6-2.1l32.1-.3c1.4.1 2 0 1.3-1.6zm-40.6-10.1v2.5c0 5.3 0 5.3-5.3 5s-8.6-3.1-9-8.8a14.4 14.4 0 0 1 .9-7.1 7.4 7.4 0 0 1 8.1-4.5c3 .5 5.1 3 5.3 6.7.1 2.1 0 4.2 0 6.2zm-151 54.7c-2.8 0-1.4 2.3-2.2 3.3-7.5-7.9-17.8-3.7-21.3 3.6a19.8 19.8 0 0 0-1.6 10.2c.7 5.6 3.1 10.2 8.7 12.1s9.8.8 13.9-3.9v3.2c0 7.1-3.6 10.6-10.7 10.3a14.3 14.3 0 0 1-6.1-1.4c-1.7-1-2.1-.2-2.7 1.3s-.4 2.7 1.4 3.2a44.8 44.8 0 0 0 4.6 1.2c9.7 1 17.6-1.6 18.8-13.3.1-1.3.1-2.6.2-4V122c.1-3.1.1-3-3-3.1zm-2.7 18.3a8.2 8.2 0 0 1-6.2 7c-3.9.8-7.4-.7-9.1-4a14.2 14.2 0 0 1 .1-13.7 8 8 0 0 1 15.1 4v3h.1c0 1.2.1 2.5 0 3.7zm215-18.1a13.4 13.4 0 0 0-4 0c-1 .3-.2 1.7-.6 2.5a2.5 2.5 0 0 1-.2.7c-7.4-8.2-19.8-4-22.3 6.4-.3 1.2-.5 2.3-.7 3.5-.9 7.4 3 14.3 9.3 16.1s9.7.3 13.4-4.2a21.3 21.3 0 0 1-.3 6.3 8.4 8.4 0 0 1-8.2 7.3 17.4 17.4 0 0 1-8.4-1.4c-.8-.3-1.9-1.4-2.4.5s-1.8 3 .9 4a24.1 24.1 0 0 0 13 1c5.5-1.1 8.9-4.4 10.1-9.8a30.7 30.7 0 0 0 .6-5.2c.2-8.8-.3-17.5.3-26.2.1-.6.3-1.4-.5-1.5zm-5.4 17.6a8.1 8.1 0 0 1-5.9 7.5 8.4 8.4 0 0 1-9.2-3.6c-2.6-4.2-2.3-11.2.7-15.1a7.9 7.9 0 0 1 14.3 4.5c.1 1.1 0 2.2 0 3.2h.1c0 1.2.1 2.4 0 3.5zm404.7 8.9v-2.5l.1-36.5c0-2.3-1-2.4-2.7-2.3s-3.1-.4-3 2.2c.2 5.1.1 10.1.1 15.8a12.6 12.6 0 0 0-20.6 2.4 19 19 0 0 0-.6 17.8c4 8.6 14.9 9.8 20.9 2.4.2-.3.3-.3.7-.2a27.1 27.1 0 0 0 .1 2.9c.1.7.1 1.2 1.1 1.4 3.5.7 4.2.1 3.9-3.4zm-5.7-7.6a8.5 8.5 0 0 1-6.7 6.9 7.9 7.9 0 0 1-8.8-4.4 14.8 14.8 0 0 1 .4-14.3 7.8 7.8 0 0 1 8.8-3.7 8.2 8.2 0 0 1 6.2 7.8c.1 1.1 0 2.2 0 3.3a16.2 16.2 0 0 1 .1 4.4zM725 132c-.5-9.6-6.9-15.2-15.7-13.8-3.3.6-5.7 2.5-8.2 5.7v-3.7c0-2.9-2.2-1.2-3.3-1.5s-1.8.2-1.8 1.7l.1 37.4c0 3.5 0 3.3 3.4 3.5 1.7 0 2.2-.5 2.1-2.2-.1-4.6 0-9.2 0-14.2 7.1 8.2 19.8 4.9 22.6-5.5a20.8 20.8 0 0 0 .8-7.4zm-6.8 8a8.3 8.3 0 0 1-9.5 5.1 8.8 8.8 0 0 1-6.9-8.4v-2.9a14.8 14.8 0 0 1 .8-5.7 9 9 0 0 1 7.7-5.9c3.5-.1 6.4 1.9 8 5.4a15.3 15.3 0 0 1-.1 12.4zm-269.7-19.6a15.1 15.1 0 0 0-15.5-.8c-5.5 2.7-7.7 7.7-7.9 13.5s1.7 11.9 7.7 15c8.4 4.4 22.2.4 22-14.4 0-5.4-1.5-10.3-6.3-13.3zm-1.6 21.2c-3.8 5.4-10.9 5.1-14.2-.6a12.5 12.5 0 0 1-1.8-6.9 13 13 0 0 1 2-7.8 8.3 8.3 0 0 1 14.4.2 14.6 14.6 0 0 1-.4 15.1zm210.4-22.9c-10.8-3.6-20.8 4.5-20.1 16.1.5 7.6 4.3 12.8 10.5 14.4 10.4 2.8 19.2-4.2 19.3-15.2.1-7.4-3.7-13.3-9.7-15.3zm.3 24.3a8.1 8.1 0 0 1-12.1-.6c-3.5-4.4-3.6-12.4-.2-16.8a8.2 8.2 0 0 1 13.3 0 14.1 14.1 0 0 1 2.7 7.7c-.3 4.1-1.1 7.2-3.7 9.7zm313.6-24.3c-6.8-2.2-14 .2-17.6 5.8s-3.3 15.9 1.5 20.9a14.9 14.9 0 0 0 6.6 3.9c10.5 2.6 19-4.4 19.1-15.5.1-7.4-3.5-13.1-9.6-15.1zm1.1 23.6c-3.8 4.5-10 4.2-13.2-.6s-3.1-9.8-.7-14.8a8 8 0 0 1 7.7-4.6c3.5-.1 5.9 1.8 7.5 4.9a19.3 19.3 0 0 1 1.6 6.6c-.3 3.2-.9 6.1-2.9 8.5zm-101.9-22.9c-9.2-4.1-21.7.5-21.6 14.5a17 17 0 0 0 2.2 9.1c3 5 8.7 7.5 14.8 6.6a14.3 14.3 0 0 0 12.1-10.7c2.2-8.3-1-16.7-7.5-19.5zm-.3 22.8c-4 5-11.1 4.2-14-1.7a14.3 14.3 0 0 1 .1-13.6 7.9 7.9 0 0 1 7.4-4.6 7.8 7.8 0 0 1 7.5 4.5 13.8 13.8 0 0 1 1.9 6.9 15.3 15.3 0 0 1-2.9 8.5zm-376.2-7.1c2.8.2 5.7.1 8.5.1h5.5c6.2 0 6.3-.1 5.3-6.2s-3.2-9-8.4-10.5-10.4-.3-14.2 4.1-5.3 15.2-1.3 21.1 14.9 8.3 21.5 4.5c1.7-1 .2-2.3.1-3.5s-1.1-.6-1.7-.4a20 20 0 0 1-5.8 1.2c-5.8.4-10.2-2.9-11.2-8.2-.3-1.4-.3-2.3 1.7-2.2zm-1.7-5.5a8.5 8.5 0 0 1 10.6-7.4c3.1.8 5.5 4.4 5.4 7.5-.1 1.1-.6 1-1.3 1h-13.4c-.8 0-1.5.2-1.3-1.1zm66.6 5.5h15.5c4.9 0 5-.1 4.4-5s-2.4-9.7-7.8-11.4-10.3-.9-14.3 3.1-6.2 16.3-1.5 22.4 14.1 7.4 20.8 4c2-1 .5-2.3.4-3.5s-1.2-.6-1.8-.4a21.2 21.2 0 0 1-6.1 1.1c-5.9.2-10.1-3.2-10.9-8.8-.2-1.1.1-1.5 1.3-1.5zm7.4-13.3c4.1.1 7.2 3.1 7.5 7.5.1 1.1-.2 1.5-1.3 1.5h-13.5c-.8.1-1.2-.1-1.2-1a9.1 9.1 0 0 1 8.5-8zm220.5 8.3c-.1-4-.9-7.8-4.5-10.3s-12.6-2.3-16.3.4c-1.6 1.2-.1 2.2.1 3.3s1.1.4 1.6.1a14.3 14.3 0 0 1 8.1-1.4 5.5 5.5 0 0 1 5.1 4.4c.6 2.7.4 3-2.3 3.1s-8.1.9-11.6 3.3a9.5 9.5 0 0 0-3.5 10.9c1.2 3.6 4.4 5.8 8.7 5.8a11.4 11.4 0 0 0 9.2-4.2c.8 3.7.8 3.7 4.2 3.5 1-.1 1.4-.2 1.4-1.4-.2-5.8-.1-11.7-.2-17.5zm-5.4 6.8c0 5.2-2.7 8.3-7.2 8.3-2.3.1-4.1-.7-5-2.9a5.6 5.6 0 0 1 1.5-6.4c2.8-2.2 6.3-2.5 9.7-2.6.9 0 1 .5 1 1.1z" class="J"/><path d="M45,79.3a17.4,17.4,0,0,1-8.9-2.1c-3.4-1.8-5.3-4.5-5.3-8.4s2-7.2,5.9-8.7c5.6-2.2,11.2-2.8,16.6.5,7,4.3,7,12.6-.1,16.8A14.6,14.6,0,0,1,45,79.3Z" fill="#0b2443"/><path d="M1012.9 57.5c-1.2-6.2-5.3-10.4-10.8-10.7s-11.1 3-12.9 9.4a18.5 18.5 0 0 0 2.3 15.6h-2.7c-7 0-14-.2-21 0-12.3.3-14.1-.6-13.7-13.5.2-3.6.1-7.2.1-10.9a19.1 19.1 0 0 1-2.4.7c-2.2.3-3 1.4-2.8 3.7s.1 6.3.1 9.5a18.6 18.6 0 0 1-1 6.6 5.5 5.5 0 0 1-9.2 1.9 8.5 8.5 0 0 1-2.2-6.2V50.3c-5.1 1-5.1 1-5.1 5.8v8a9.7 9.7 0 0 1-.5 3.4 5.5 5.5 0 0 1-9.5 2 6.8 6.8 0 0 1-1.9-5.3V54c0-.5.2-1.1-.3-1.4s-4.8 1.9-4.8 3.1c-.1 3.1 0 6.2-.1 9.3-.3 4.7-2.4 6.5-7.1 6.5h-21c-4.7 0-7.4-2.7-7.4-7.5V47.4l-1.9.5c-2.4.5-3.5 1.6-3.3 4.4a96.9 96.9 0 0 1-.2 13.2c-.3 4.3-2.3 6-6.6 6h-8.1c-6.6 0-8.9-2.3-8.9-9V48.7c0-.5.5-1.4-.8-1.3-2.8.1-4.2 1.5-4.2 4.4v7.5c0 2.6.2 5.2-.6 7.7s-2 3.8-4.4 4.2a5.8 5.8 0 0 1-6.1-3 8.9 8.9 0 0 1-1.1-4.8V50c-5.2 1.3-5.1 1.3-5.2 6.1s.3 6.8-.2 10.2-1.7 4.4-4.3 4.9a5.8 5.8 0 0 1-6.3-3.1 9.7 9.7 0 0 1-1.2-5.5V52.2a13.6 13.6 0 0 1-2.2.7c-2.1.5-3.1 1.6-2.9 4a44.9 44.9 0 0 1-.1 8.2c-.3 4.3-2.3 6.2-6.6 6.2-6 .1-12.1 0-18.2 0l-3.9-.2 4.5-4.5a11.7 11.7 0 0 0-7.6-19.4 11.7 11.7 0 0 0-11.7 6.1 12.4 12.4 0 0 0 1.9 13.8l3.4 4c.2-.1 0 .1-.2.1h-37.3c-3.1 0-5.3-1.8-6.5-4.7l-6.5-16.2a5.9 5.9 0 0 0-2.9-3.5c-2.8-1.4-7.7-.5-10.4 1.9s-2.6 5.1-1.3 8.1l.8 2.1 5 12.4h-19.1a9.2 9.2 0 0 1-9.2-7.3c-1.5-5.9.7-10.5 5.3-14 1.2-.9.9-1.5.2-2.4s-.7-1.7-2.2-1c-6.1 3.1-9.7 10.8-8.1 17.8s6.9 11.2 14.5 11.3h22.8c2.8 0 2.8 0 1.8-2.6l-7.3-18.3c-.9-2.4-.3-3.7 1.7-4.3s3 .6 3.7 2.2l6.3 15.2c2 5.1 6 7.8 11.6 7.8h33.6c3.1 0 5.9-1.8 8.7-1.8s5.6 1.8 8.7 1.8c6-.1 12-.2 18 0s8.3-.7 10.4-5.2c6.4 7 11.5 7 17.3 0 5.1 7 11.9 7 17.6-.1 2.3 4.1 6.1 5.4 10.5 5.3 2.9-.1 5.9-.1 8.8 0s7.5-1.2 9.4-5.6c2.9 5 7.3 5.7 12.3 5.6s10.8-.1 16.2 0 9.7.3 12.1-5.4c5.2 7.6 11.6 7.7 17.3.6a10.5 10.5 0 0 0 8.7 5.1c4 .2 6.8-1.8 8.8-5.3 2.4 4.1 5.9 5.4 10.2 5.3h36.6c6 0 10.3-3.1 12.2-8.8a19.9 19.9 0 0 0 .6-9.7zM778.3 68.9a1.5 1.5 0 0 1-1.6.1c-3.7-2.4-6.6-5.1-6.5-9.9s3.3-8.4 7.7-8 7.4 4.5 6.7 9.4-3.1 6.4-6.3 8.4zm227.7-.2c-2.6 4.5-8 4.7-10.7.2a14.7 14.7 0 0 1-.4-14.5 6.1 6.1 0 0 1 5.9-3.5c2.6 0 4.3 1.5 5.5 3.7a12.7 12.7 0 0 1 1.5 6.7 12.9 12.9 0 0 1-1.8 7.4z" class="J"/></svg>