<svg xmlns="http://www.w3.org/2000/svg" viewBox="0 0 1009.5 120.7" xmlns:v="https://vecta.io/nano"><path d="M144.4 16h46.9v8.8h-36v28h29.2v8.8h-29.2v37.3h-10.9zm88.4 84c-18.4 0-32.5-13.1-32.5-33.8s14.5-33.5 33-33.5 32.9 12.9 32.9 33.5-14.9 33.8-33.4 33.8zm0-9.5c11.3 0 22.3-7.8 22.3-24.3s-10.8-24.1-22-24.1-21.7 7.7-21.7 24.1 10.1 24.3 21.4 24.3zm58.5 8.4h-10.8V33.7h10.8v10.6c3.7-7.2 10.7-11.8 21-11.8v11.2h-2.8c-10.4 0-18.2 4.7-18.2 19.8zm25.8-65.2h11l15 54.7 16.2-54.7h11.1l15.8 54.8 14.7-54.8h10.7l-20.3 65.2h-11.2l-15.7-51.7-15.7 51.7h-11.2zm132.1-1c12.1 0 20.5 6.1 24.3 12.9V33.7h10.9v65.2h-10.9V86.8c-4 7-12.4 13.2-24.4 13.2-17.4 0-30.8-13.7-30.8-33.9s13.4-33.4 30.9-33.4zm2.1 9.4c-11.9 0-22 8.6-22 24s10.1 24.4 22 24.4 22.2-9 22.2-24.3-10.3-24.1-22.2-24.1zm62.2 56.8h-10.8V33.7h10.8v10.6c3.7-7.2 10.7-11.8 21.1-11.8v11.2h-2.9c-10.3 0-18.2 4.7-18.2 19.8zM574 32.7c10.3 0 19.7 5.2 24.2 12.7V10.9h10.9v88h-10.9V86.6c-3.9 7.3-12.4 13.4-24.3 13.4-17.5 0-30.9-13.7-30.9-33.9s13.4-33.4 31-33.4zm2.1 9.4c-11.9 0-22 8.6-22 24s10.1 24.4 22 24.4 22.1-9 22.1-24.3-10.2-24.1-22.1-24.1zm109.8 22.2H670v34.6h-10.8V16h26.7c19.5 0 28.7 10.7 28.7 24.3s-8.1 24-28.7 24zm0-8.9c12.4 0 17.6-5.9 17.6-15.1s-5.2-15.4-17.6-15.4H670v30.5zm69-22.7c12.1 0 20.5 6.1 24.3 12.9V33.7h10.9v65.2h-10.9V86.8c-4 7-12.4 13.2-24.4 13.2-17.4 0-30.8-13.7-30.8-33.9s13.4-33.4 30.9-33.4zm2.1 9.4c-11.8 0-22 8.6-22 24s10.2 24.4 22 24.4 22.2-9 22.2-24.3-10.3-24.1-22.2-24.1zm62.2 56.8h-10.8V33.7h10.8v10.6c3.7-7.2 10.7-11.8 21.1-11.8v11.2h-2.9c-10.3 0-18.2 4.7-18.2 19.8zm61.3-66.2c16.1 0 26.7 8.3 30.1 22h-11.7c-2.3-7.9-8.8-12.9-18.4-12.9-11.9 0-20.7 8.5-20.7 24.4s8.8 24.6 20.7 24.6c9.6 0 16-4.6 18.4-12.8h11.7c-3.4 12.9-14 22-30.1 22-18.6 0-31.8-13.1-31.8-33.8s13.2-33.5 31.8-33.5zm72.6 67.3c-18.5 0-32.2-13.1-32.2-33.8s13.2-33.5 32.2-33.5 31.3 13.3 31.3 31.1a47.8 47.8 0 0 1-.4 6.6h-52c.8 13.2 10.1 20.4 21.1 20.4s16-5 18.3-12h11.7c-3.3 11.9-13.8 21.2-30 21.2zm-21-38.4h41.1c.1-12.8-9.4-19.8-20.6-19.8s-19.3 7-20.5 19.8zm66.6-50.7h10.8v88h-10.8z" fill="#221f1f"/><path d="M90.2 27.9L64.9 53.2a21.6 21.6 0 0 1-30.5 0L9.1 27.9a8.3 8.3 0 0 1 2.2-13.3L31.6 4.3a40.5 40.5 0 0 1 36.2 0L88 14.6a8.3 8.3 0 0 1 2.2 13.3z" fill="#0f0"/><path d="M48.7 75.9v39.2a5.4 5.4 0 0 1-9.2 3.8L2.3 81.8A7.9 7.9 0 0 1 0 76.2V37a5.4 5.4 0 0 1 9.2-3.9l37.1 37.2a8 8 0 0 1 2.4 5.6z" fill="#00adee"/><path d="M98.5 80.8l-38.6 38.6a4.5 4.5 0 0 1-7.7-3.2l.4-40.3a7.9 7.9 0 0 1 2.3-5.6l38.6-38.6a4.5 4.5 0 0 1 7.7 3.2l-.4 40.3a8.3 8.3 0 0 1-2.3 5.6z" fill="#eb008b"/></svg>