<svg xmlns="http://www.w3.org/2000/svg" viewBox="0 0 766.8 221.6" xmlns:v="https://vecta.io/nano"><path d="M0 125.9h55.2v14.3H22.1v26.4h30.6V181H22.1v40.6H0zm101.8 48.8c0-9.4-.1-16-.5-22.3H121l.5 13.2h.6c3.4-9.8 11.5-14.8 18.9-14.8a17 17 0 0 1 4.1.5v16.4a32.5 32.5 0 0 0-5.1-.5c-8.4 0-14.1 5.4-15.6 13.2a27.8 27.8 0 0 0-.6 5.4v35.8h-22zm74.9 46.9c-8.3 0-16.4-1.9-22.3-5.2l-1.9-1 4.9-18.2 3.1 1.9a36.4 36.4 0 0 0 16.4 4.6c5.5 0 8.3-1.7 8.3-5s-.6-4.4-9.5-7.5c-18.4-6.4-21-17-20.9-22.8 0-14.3 11.9-24.4 28.9-24.4 7.1 0 14.4 1.7 19.6 4.5l1.9 1-4.9 17.8-3-1.8a29.4 29.4 0 0 0-13.3-3.6c-2.1 0-7 .5-7 4.6 0 2.4 1.5 4 10.3 7.1 13.7 4.9 20.1 12.5 20.2 23.6 0 14.8-12.1 24.4-30.8 24.4zm71.3 0c-7 0-13.2-2.4-17.1-6.6s-6.1-11.2-6.1-21.1v-29.8h-9.9v-18.5h9.9v-15.1l22.5-5.4v20.5h16.6v18.5h-16.6v27.8c0 9.3 2.9 10.1 6.2 10.1a23.1 23.1 0 0 0 6.1-.8l3.4-.9.4 18.7-1.8.7c-3.1 1.2-8 1.9-13.6 1.9z" fill="#40356b"/><g fill="#176096"><path d="M381.8 126.5h-.5c-3.7 12.8-8.3 26.4-13.8 41.5l-19.2 52.9h-10.7L319.9 169c-5.1-15.4-9.5-29.5-12.6-42.5h-.3c-.3 13.6 1.8 95.1 1.8 95.1h-13.5l.8-109.1h18l18.6 52.7c4.6 13.5 8.3 25.5 11 36.8h.5c2.8-11 6.7-23 11.5-36.8l19.4-52.7h18l-.9 109.1h-13.8l3.4-95.1zm39.4 61.6c.2 16.9 11 23.8 23.5 23.8 9 0 14.4-1.5 19.1-3.5l2.1 8.9c-4.4 2-11.9 4.3-22.9 4.3-21.1 0-33.8-13.9-33.8-34.7s12.2-37 32.3-37c22.4 0 28.4 19.7 28.4 32.3a36.9 36.9 0 0 1-.5 5.9zm36.6-9c.1-7.9-3.3-20.3-17.3-20.3s-18.2 11.6-19.2 20.3zm21.4-4.8c0-8.1-.1-15.1-.6-21.5h11l.4 13.5h.6c3.1-9.2 10.6-15 19-15a13.7 13.7 0 0 1 3.6.4v11.8a18.5 18.5 0 0 0-4.3-.4c-8.8 0-15.1 6.6-16.8 16a48.3 48.3 0 0 0-.5 5.8v36.7h-12.4zM605 119.2v83.1c0 6.1.2 13 .6 17.7h-11.2l-.6-11.9h-.3c-3.8 7.6-12.2 13.5-23.4 13.5-16.6 0-29.4-14.1-29.4-35-.2-22.8 14-36.9 30.8-36.9 10.5 0 17.6 5 20.7 10.5h.3v-41zm-12.5 60.1a23.8 23.8 0 0 0-.5-5.3 18.4 18.4 0 0 0-18.1-14.5c-12.9 0-20.6 11.4-20.6 26.6s6.8 25.4 20.3 25.4c8.4 0 16.1-5.6 18.4-14.9a23.1 23.1 0 0 0 .5-5.4zm89.2 40.7l-1-8.7h-.4a25.5 25.5 0 0 1-21 10.3c-13.9 0-21-9.8-21-19.8 0-16.6 14.7-25.7 41.3-25.5v-1.5c0-5.6-1.6-15.9-15.6-15.9a33.5 33.5 0 0 0-17.9 5.2l-2.9-8.3c5.7-3.7 13.9-6.1 22.6-6.1 21 0 26.1 14.4 26.1 28.1v25.7a91.9 91.9 0 0 0 1.2 16.5zm-1.8-35.1c-13.7-.3-29.1 2.2-29.1 15.5 0 8.1 5.4 11.9 11.7 11.9a17.1 17.1 0 0 0 16.7-11.5 13.4 13.4 0 0 0 .7-3.9zm28.4-13.5c0-7.1-.2-12.9-.6-18.6h11.1l.7 11.4h.3c3.4-6.5 11.3-12.9 22.7-12.9 9.5 0 24.3 5.7 24.3 29.2v41.1h-12.5v-39.7c0-11-4.1-20.3-15.9-20.3-8.3 0-14.6 5.9-16.8 12.8a20.3 20.3 0 0 0-.8 5.8v41.4h-12.5zm-187.2-23.9h10.5v74.11h-10.5z"/><rect x="520.8" y="124.6" width="10.7" height="14.47" rx="1.2"/></g><path d="M69.1 147.5h20.4v74.11H69.1zm17.9-7H70.9c-1.3 0-2.3-.5-2.3-1.2v-12c0-.7 1-1.2 2.3-1.2H87c1.3 0 2.4.5 2.4 1.2v12c0 .7-1.1 1.2-2.4 1.2z" fill="#40356b"/><g fill="#176096"><path d="M619.2 147.5h10.5v74.11h-10.5z"/><rect x="618.9" y="124.6" width="10.7" height="14.47" rx="1.2"/><path d="M375.1 31.5a110.8 110.8 0 0 0-13.7-11.7h0c-.4 9.4-7.4 22.9-19.1 35.8 1.4 1.5 2.7 3 4.2 4.5 19.2 19.2 41.1 28.3 49 20.4s-1.3-29.8-20.4-49z"/></g><path d="M323.2,19.8a118,118,0,0,0-13.6,11.7c-19.2,19.2-28.4,41.2-20.5,49s29.9-1.2,49-20.4q2.3-2.2,4.2-4.5c-11.6-12.9-18.7-26.4-19-35.8Z" fill="#91908f"/><path d="M323.3 19.8c.3 9.4 7.4 22.9 19 35.8C354 42.7 361 29.2 361.4 19.8zm11.592-12.181l7.637-7.637 7.665 7.665-7.637 7.637z" fill="#40356b"/></svg>