<svg xmlns="http://www.w3.org/2000/svg" viewBox="0 0 752 268.8" xmlns:v="https://vecta.io/nano"><path d="M263.3 137.1a135.6 135.6 0 0 1-21.1 70.3c-11.8.4-21.5-1.2-29.2-4.8-3.5-1.7-5.7-2.8-5.1-7.2s9.8-3.3 13.5-3.6 13.4-1 13.7-7.2-7.6-6.4-11.3-7.2c-16-3.5-28.4-6.9-37.1-10.2-2.9-1.1-6.4-2.4-6.1-6.3s5.9-3.5 9-3l33.2 5.7c10.7 1.7 7.7-4.2.2-6.6-11.4-3.8-22.7-7.9-33.9-12.6-2.8-1.1-5.6-4.3-4.5-7.7s5.4-3.6 8.3-2.6l28.6 11.2c2.5.2 2.7-.6.8-2.5l-21.4-11.3c-3.3-1.7-6.3-3.4-4-7.9s6.4-2.9 9.4-1.2c17.4 9.8 29.7 15.5 36.9 17 1.2.3 3.4.9 2.8-1.4-1.4-5.9-16.3-17.6-20.9-21.7-2-1.8-4.3-4.3-2.1-7.2s6.6 0 8.6 1.6c6.5 5.2 16.1 12.2 26.1 23.4l5.6 3zm-11.3 7.8a14.5 14.5 0 0 1-2.8-1.4v-2l-2.2 2.7a1.7 1.7 0 0 0 0 1.5c.5.6.7.8 1.6 3.6a31 31 0 0 1 1 4.2 7.3 7.3 0 0 1 2-.7c.5 0 1.1.4 1.6-.3l1.6-1.7 1.7-2.7.9-1.9-.5-2.7s.6-2.1-1.3.1a13.5 13.5 0 0 1-2.6 2.5zm-93.9 121.2a129.7 129.7 0 0 1-26.6 2.7 126.6 126.6 0 0 1-29.1-3.3 15 15 0 0 0 4-1.8c1.5-1.3 2-.6 2.3-1.1s0-1.1 0-2.1.4-1.8.3-2.7 3.3-1.1 5.2-2.2 1.1-1.8 1.2-3.2.2-.8.9-1.3.1-.7.4-2.5 0-1.1 0-2.4 1.4-.6 2.4-1.9.3-.9.4-1.9a12 12 0 0 0-.5-3.7c-.4-2-.2-1.7-.2-1.7l-3.9-2c-.8-.4-3.5-.1-4.8-.9a3.6 3.6 0 0 0-2.7-.2l-3.5-1-.2-2c-1.5-17.7-2-31.7-1.4-41.9.2-3.4.4-7.5 4.6-8.4s5.5 5 5.9 8.4l5 36.4c1.6 11.8 6.8 6.6 6.9-1.9.2-13.1.9-26.2 2-39.4.3-3.3 2.7-7.3 6.6-7.2s5.6 4.4 5.4 7.8l-2.3 33.4c.6 2.6 1.5 2.6 2.8 0l4.9-25.9c.7-4 1.5-7.7 6.9-6.8s5.1 5.7 4.3 9.3c-4.6 21.4-6.5 36-5.7 44 .2 1.4.2 3.9 2.4 2.6 5.7-3.4 13-22.8 15.8-28.9 1.2-2.6 3-5.9 6.7-4.5s2.2 6.8 1.2 9.5c-3.3 8.4-7.5 20.7-15.8 34.8-1.1 5.1-2.1 9.6-1.8 13.9zm-59.5-1.5a129.4 129.4 0 0 1-21.1-7.6c-3.5-10.9-4.7-20.6-3.5-29.1.5-4.2 1-6.8 5.8-7.7s6.6 9.2 8.2 12.9 3.4 8.6 6.8 11v2.1a65.3 65.3 0 0 0 2.1 7.7c1.1 3.7 1.2 4.4 1.5 5.7a16 16 0 0 1 0 4.4 2.1 2.1 0 0 0 .2.6zM132 0a129.7 129.7 0 0 1 75.1 24.3c-.1 11.4-2.1 20.9-5.9 28.5-1.8 3.7-3 5.9-7.7 5.3s-3.2-10.5-3.5-14.4-.7-14.2-7.3-14.7-7 7.9-7.9 11.8c-4.1 16.8-8 29.9-11.7 39-1.2 3.1-2.6 6.8-6.8 6.4s-3.5-6.4-2.9-9.6l6.8-35.1c2.1-11.3-4.3-8.2-7-.4q-6.3 18-14.1 35.7c-1.3 2.9-4.7 5.8-8.2 4.6s-3.8-5.8-2.6-8.9l12.5-30c.2-2.6-.6-2.9-2.6-.9L125.7 64c-1.9 3.4-3.8 6.6-8.5 4s-2.9-6.7-1.1-9.9C127 39.9 133.2 27 135 19.4c.3-1.3 1-3.6-1.4-3.1-6.3 1.4-19 16.9-23.4 21.7-2 2-4.7 4.5-7.7 2.1s.1-7 1.9-9.1c5.6-6.8 13.2-16.7 25.3-27.1L132 0zM0 125.5a135.1 135.1 0 0 1 31.1-78.1c12.3-.1 22.6 1.9 30.8 6 4 1.9 6.4 3.2 5.7 8.2s-11.2 3.6-15.4 4-15.3.8-15.7 7.9 8.6 7.4 12.7 8.4c18.2 4.2 32.2 8.3 42.1 12.2 3.3 1.3 7.3 2.8 6.9 7.3s-6.8 3.8-10.3 3.2l-37.8-7c-12.1-2.1-8.7 4.7-.3 7.6q19.4 6.6 38.4 14.7c3.2 1.4 6.4 5.1 5.1 8.9s-6.3 4.1-9.5 2.8l-32.5-13.1c-2.8-.3-3 .7-.9 2.8l24.2 13.2c3.7 2.1 7.1 4 4.4 9.1s-7.2 3.2-10.6 1.2c-19.7-11.4-33.6-18.1-41.8-19.9-1.5-.3-3.9-1.1-3.3 1.5 1.5 6.8 18.3 20.3 23.5 25.1 2.2 2 4.9 4.9 2.3 8.2s-7.5-.1-9.8-2c-7.3-6-18.1-14.1-29.4-27a86.8 86.8 0 0 0-9.9-5.2z" fill="#ffd000" fill-rule="evenodd"/><path d="M245 202.8a133.1 133.1 0 0 1-72.2 59.3 54.4 54.4 0 0 1-8.1-8.7c-2.6-3.5-4.2-5.8-1.3-9.9s11.7 2 15.5 3.6 14 6.3 17.7.2-4.2-10.6-7.5-13.3q-21.2-18.3-31.7-30.3c-2.3-2.7-5.2-5.9-2.7-9.6s7.8-.3 10.6 1.9l30.3 23.6c9.8 7.5 9.9-.1 3.8-6.5q-14.2-14.8-27.3-30.9c-2.2-2.7-3.3-7.4-.4-10.2s7.4-.8 9.7 1.9l22.7 26.6c2.4 1.5 3.1.8 2.1-2l-15.3-22.9c-2.4-3.6-4.5-6.9.3-10.1s7.9.4 10 3.8c12.1 19.2 21.4 31.6 27.8 36.9 1.2 1 3 2.8 3.7.2 1.8-6.7-7-26.4-9.3-33-1-2.9-2.1-6.7 1.7-8.4s6.6 3.5 7.8 6.2c3.3 7.7 8.2 18 12.1 31.6zM220.8 35.6a134.9 134.9 0 0 1 41.3 80.7 61 61 0 0 1-15.1 9.5c-4.1 1.6-6.7 2.6-9.9-1.2s4.7-10.8 7.2-14.2 9.5-12 4.5-17-11.3 1.5-14.8 3.9c-15.1 10.9-27.5 18.7-37 23.5-3.1 1.6-6.9 3.6-10 .3s1.6-7.6 4.4-9.8l30.3-23.7c9.6-7.7 2.3-9.6-5.5-5.3-11.8 6.8-24 13.2-36.5 19.1-3.2 1.5-8 1.4-10-2.1s1.1-7.4 4.2-9l31.3-15.6c2.1-1.9 1.6-2.8-1.5-2.5l-25.9 9.3c-4 1.5-7.7 2.7-9.7-2.7s2.4-7.5 6.1-8.8c21.6-7.1 35.8-13.2 42.6-18.1 1.2-.9 3.4-2.2 1.1-3.5-6.1-3.3-27.4.4-34.4 1-3 .3-6.9.5-7.7-3.6s5.1-5.6 8-6.1c8.8-1.5 21.2-3.9 37-4.1zM37.3 40.4A130.3 130.3 0 0 1 119.2.6a59.8 59.8 0 0 1 9.9 17.5c1.4 4.2 2.2 6.8-1.8 9.8s-10.5-5.4-13.7-8.1-11.4-10.2-16.7-5.5.7 11.3 3 14.9c9.8 15.9 16.8 28.7 21 38.5 1.4 3.2 3.2 7.1-.3 9.9s-7.5-2-9.5-5L89.4 40.9c-7.1-10.1-9.5-2.9-5.6 5.1 6 12.3 11.5 24.9 16.6 37.7 1.3 3.3 1 8.1-2.7 9.8S90.4 92 89 88.8L75.5 56.5c-1.8-2.1-2.7-1.7-2.7 1.4l7.7 26.5c1.2 4 2.2 7.8-3.3 9.5s-7.4-2.9-8.4-6.7c-5.8-22-10.9-36.6-15.4-43.7-.8-1.2-1.9-3.5-3.4-1.3-3.7 5.9-1.4 27.3-1.1 34.4.1 3-.1 6.9-4.2 7.4s-5.2-5.4-5.5-8.3c-.9-8.6-2.5-20.4-1.9-35.3zm6.4 194.2a135.1 135.1 0 0 1-40.8-70.8c9.2-12.3 18.7-20.7 28.6-25.1 4-1.8 6.6-2.8 9.9 1S37 150.6 34.6 154s-9.2 12.3-4.1 17.2 11.2-1.8 14.7-4.4q22.4-16.8 36.4-24.4c3.1-1.7 6.8-3.8 9.9-.6s-1.4 7.6-4.1 9.9l-29.6 24.5c-9.5 8-2 9.7 5.6 5.1 11.7-7.1 23.7-13.7 36-20 3.1-1.5 7.9-1.6 10 1.9s-.8 7.4-3.9 9.1l-30.9 16.4c-2 1.9-1.5 2.8 1.5 2.5l25.7-10.1c4-1.5 7.7-2.8 9.8 2.5s-2.2 7.6-5.9 8.9c-21.4 7.8-35.5 14.2-42.1 19.3-1.2.9-3.3 2.3-1 3.5 6.2 3.2 27.3-1.1 34.3-2 3.1-.3 7-.5 7.8 3.5s-4.9 5.7-7.8 6.3c-9.3 1.8-22.4 4.8-39.6 5.2-5.3 1.9-9.8 3.6-13.6 6.3zM422.1 77.2c-17.2-13.6-34-19.3-50.6-17.2-21 2.7-39.3 16.5-48.5 35.3-12 24.3-11.9 67.3 2.6 90.6 11.3 18.3 33.2 25.8 53.9 25.7a55.7 55.7 0 0 0 38.7-14.8c-3.4-9.3-6.9-17.8-10.6-25.7-11.7 7.1-21.7 10.2-29.9 9.6-22.9-1.9-25.3-30.6-24.8-48.2s6.3-41.9 28.7-42.4c8.1-.2 16 4 23.7 12.4 5-4.4 10.6-12.8 16.8-25.3zm11.6-3.9q16.7-13.2 52.5-13.5c19.7 1.4 33.3 7.2 40.9 17.3s7 18.2 7.1 28.6v87.7c-6.5 14-42.9 17.9-56 18.2-28.6.5-50.9-15.1-52.7-45.1-1.7-27.9 18.3-42.8 42.7-47.9a147.3 147.3 0 0 1 30.9-2.6c.5-6.1.4-11.2-.6-15.1-3.1-13.4-16.5-12.2-27.1-10.4a94.6 94.6 0 0 0-26.1 8.8c-6.1-7-10-15.7-11.7-26zm65.3 64.9c-10.7 1.1-19.3 3.5-25.8 7-16.8 9.2-18.8 37.5 3.1 40.6 6.3.9 14-1.3 23-6.6zm95.7-23.9v93.3h-36.6V103.4c-.1-13.6-2.1-24-6.2-31.1 5.1-3.3 14.8-8.6 29.1-16 4.5 6.4 7.6 14.5 9.3 24.5q22.2-33.1 51.6-14.4c-2.7 7.1-6.7 17.3-12.2 30.5-12.4-6.6-23.5-3.3-33.4 10.1-1.9 2.7-1.6 4-1.6 7.3zm99.4-55.2c34.6 0 54 28.4 57.3 59.5a127.1 127.1 0 0 1-.3 27.5q-32.9-.4-80.1 0 .2 32.4 27.3 33.9c13.4.4 26.3-3.4 38.9-11.3h0a79.8 79.8 0 0 1 7.4 12.8 38.2 38.2 0 0 1 3.2 13.4c-18.4 12.8-36.8 18.6-55.4 17.5a49.3 49.3 0 0 1-8.6-1h-.3c-29.8-6.1-52.4-37.6-52.4-75.6 0-42.3 28.2-76.6 63-76.6zm-1.3 30.1c11.7 0 21.3 12.8 22 29.1h-44.1c.6-16.3 10.3-29.1 22.1-29.1z" fill-rule="evenodd" fill="#ed6824"/></svg>