<svg xmlns="http://www.w3.org/2000/svg" width="40" height="40" viewBox="0 0 40 40">
  <g id="Group_81588" data-name="Group 81588" transform="translate(-226 -11058)">
    <g id="Ellipse_6791" data-name="Ellipse 6791" transform="translate(226 11058)" fill="#fff" stroke="#e6e6e6" stroke-width="1">
      <circle cx="20" cy="20" r="20" stroke="none"/>
      <circle cx="20" cy="20" r="19.5" fill="none"/>
    </g>
    <g id="flash_2_" data-name="flash (2)" transform="translate(177.389 11068.002)">
      <g id="layer1" transform="translate(61.612 -0.001)">
        <path id="path23918" d="M69.847,280.066a.342.342,0,0,0-.264.147l-7.909,11.346a.344.344,0,0,0,.282.541h5.472l-.657,8.226a.344.344,0,0,0,.624.223L75.3,289.2a.344.344,0,0,0-.282-.541H69.177a.344.344,0,1,0,0,.688h5.188l-6.807,9.764.586-7.33a.344.344,0,0,0-.343-.373H62.613l6.807-9.764-.477,5.96a.344.344,0,1,0,.685.056l.579-7.226A.344.344,0,0,0,69.847,280.066Z" transform="translate(-61.612 -280.066)"/>
      </g>
    </g>
  </g>
</svg>
