<svg xmlns="http://www.w3.org/2000/svg" width="105.2" height="110.658" viewBox="0 0 105.2 110.658">
  <g id="forward_parcel" transform="translate(2 -0.03)">
    <path id="Path_308029" data-name="Path 308029" d="M90.2,27.9,64.9,53.2a21.6,21.6,0,0,1-30.5,0L9.1,27.9a8.3,8.3,0,0,1,2.2-13.3L31.6,4.3a40.5,40.5,0,0,1,36.2,0L88,14.6a8.3,8.3,0,0,1,2.2,13.3Z" fill="#00ff01"/>
    <path id="Path_308030" data-name="Path 308030" d="M48.7,68.892V101.9a4.62,4.62,0,0,1-3.338,4.172A6.162,6.162,0,0,1,39.5,105.1L2.3,73.86A6.162,6.162,0,0,1,0,69.145V36.137A4.593,4.593,0,0,1,3.292,31.9a6.164,6.164,0,0,1,5.908.956L46.3,64.177A6.276,6.276,0,0,1,48.7,68.892Z" transform="translate(-2 4)" fill="#00aee9"/>
    <path id="Path_308031" data-name="Path 308031" d="M98.5,72.96l-38.6,32.6a5.117,5.117,0,0,1-4.927.838,3.846,3.846,0,0,1-2.773-3.54l.4-34.036a6.188,6.188,0,0,1,2.3-4.73l38.6-32.6a5.117,5.117,0,0,1,4.927-.838,3.846,3.846,0,0,1,2.773,3.54l-.4,34.036a6.5,6.5,0,0,1-2.3,4.73Z" transform="translate(2 4)" fill="#ed008c"/>
  </g>
</svg>
