<svg xmlns="http://www.w3.org/2000/svg" width="16.756" height="16.756" viewBox="0 0 16.756 16.756">
  <g id="workflow" transform="translate(-3 -3)">
    <path id="Path_203463" data-name="Path 203463" d="M20.578,25a.579.579,0,0,0-.578.578v2.889a.579.579,0,0,0,.578.578h6.356a.579.579,0,0,0,.578-.578V25.578A.579.579,0,0,0,26.933,25Zm1.156,2.311h-.289a.289.289,0,0,1,0-.578h.289a.289.289,0,0,1,0,.578Zm1.444,0h-.289a.289.289,0,0,1,0-.578h.289a.289.289,0,1,1,0,.578Zm2.889,0H24.333a.289.289,0,1,1,0-.578h1.733a.289.289,0,1,1,0,.578Z" transform="translate(-12.089 -15.644)" fill="#465def"/>
    <path id="Path_203464" data-name="Path 203464" d="M23.978,41A2.9,2.9,0,0,0,21.1,43.6h-.592V42.444a.579.579,0,0,0-.578-.578H13.578a.579.579,0,0,0-.578.578v2.889a.579.579,0,0,0,.578.578h6.356a.579.579,0,0,0,.578-.578V44.178H21.1A2.889,2.889,0,1,0,23.978,41Zm-7.8,3.178H14.444a.289.289,0,1,1,0-.578h1.733a.289.289,0,1,1,0,.578Zm1.444,0h-.289a.289.289,0,1,1,0-.578h.289a.289.289,0,1,1,0,.578Zm1.444,0h-.289a.289.289,0,1,1,0-.578h.289a.289.289,0,1,1,0,.578Zm6.289-.971-1.444,1.733a.282.282,0,0,1-.211.1h-.012a.291.291,0,0,1-.205-.084l-.867-.867a.29.29,0,0,1,.41-.41l.641.644,1.242-1.491a.289.289,0,0,1,.445.37Z" transform="translate(-7.111 -27.022)" fill="#465def"/>
    <circle id="Ellipse_5686" data-name="Ellipse 5686" cx="0.5" cy="0.5" r="0.5" transform="translate(5 5)" fill="#465def"/>
    <path id="Path_203465" data-name="Path 203465" d="M3.254,6.753l.419.055-.26.335a.291.291,0,0,0,.023.381l.818.818a.291.291,0,0,0,.381.023l.338-.26.052.419a.29.29,0,0,0,.286.254H6.467a.29.29,0,0,0,.286-.254L6.8,8.1l.338.26a.291.291,0,0,0,.381-.023l.818-.818a.291.291,0,0,0,.023-.381L8.1,6.808l.419-.055a.29.29,0,0,0,.254-.286V6.178h.578V7.333a.568.568,0,0,0,.555.578h6.4a.568.568,0,0,0,.555-.578V4.444a.567.567,0,0,0-.555-.578H9.91a.567.567,0,0,0-.555.578V5.6H8.778V5.311a.29.29,0,0,0-.254-.286L8.1,4.973l.26-.338a.291.291,0,0,0-.023-.381l-.818-.815a.288.288,0,0,0-.381-.026L6.8,3.676l-.052-.422A.29.29,0,0,0,6.467,3H5.311a.29.29,0,0,0-.286.254l-.052.422-.338-.263a.288.288,0,0,0-.381.026l-.818.815a.291.291,0,0,0-.023.381l.26.338-.419.052A.29.29,0,0,0,3,5.311V6.467a.29.29,0,0,0,.254.286ZM15.134,5.6h.289a.289.289,0,0,1,0,.578h-.289a.289.289,0,0,1,0-.578Zm-1.444,0h.289a.289.289,0,1,1,0,.578h-.289a.289.289,0,0,1,0-.578Zm-3.178,0h2.022a.289.289,0,1,1,0,.578H10.511a.289.289,0,1,1,0-.578ZM5.889,4.733A1.156,1.156,0,1,1,4.733,5.889,1.155,1.155,0,0,1,5.889,4.733Z" transform="translate(0)" fill="#465def"/>
    <path id="Path_203466" data-name="Path 203466" d="M51.178,15.247A2.457,2.457,0,0,1,48.722,17.7H48v.578h.722a3.034,3.034,0,0,0,.722-5.98v.6a2.46,2.46,0,0,1,1.733,2.349Z" transform="translate(-32 -6.613)" fill="#465def"/>
    <path id="Path_203467" data-name="Path 203467" d="M3.578,34.033a2.457,2.457,0,0,1,2.456-2.456h1.3V31h-1.3a3.034,3.034,0,0,0-.722,5.98v-.6a2.46,2.46,0,0,1-1.733-2.349Z" transform="translate(0 -19.911)" fill="#465def"/>
  </g>
</svg>
