<svg xmlns="http://www.w3.org/2000/svg" width="256.19" height="130.69" xmlns:v="https://vecta.io/nano"><style><![CDATA[.B{fill:#477fff}.C{stroke-linejoin:round}.D{stroke-width:1.5}.E{fill:#2164ff}.F{fill:#fdffff}.G{fill:#7aa2ff}.H{fill:#6493ff}.I{fill:#90b2ff}]]></style><path d="M92.28 80.29v-31.1H62.56c-2.29-.04-4.241 1.656-4.52 3.93a4.35 4.35 0 0 0 4.33 4.78h14.58a3.01 3.01 0 0 1 2.99 2.35 2.94 2.94 0 0 1-2.88 3.52h-7.04c-2.29-.04-4.241 1.656-4.52 3.93a4.35 4.35 0 0 0 4.33 4.78h7.54c1.311-.03 2.435.93 2.61 2.23a2.48 2.48 0 0 1-2.47 2.74h-7.49c-2.29-.04-4.241 1.656-4.52 3.93a4.35 4.35 0 0 0 4.33 4.78h12.66a2.88 2.88 0 0 1 2.88 2.88h0a2.88 2.88 0 0 1-2.88 2.88H56.17c-2.29-.04-4.241 1.656-4.52 3.93a4.35 4.35 0 0 0 4.33 4.78h46.09c1.402-.025 2.628.941 2.93 2.31.169.845-.05 1.721-.596 2.387s-1.362 1.053-2.224 1.053H84.54c-2.29-.04-4.241 1.656-4.52 3.93a4.35 4.35 0 0 0 4.33 4.78h34.75v-34.8H92.27z" fill="#7ea5ff"/><path d="M119.211 86.63h7.1v44.06h-7.1z" class="B"/><path d="M122.76 130.69v-29.98a2.26 2.26 0 0 1 2.26-2.26h1.29V86.63h-7.1v44.06z" class="E"/><path d="M155.61 84.43V39.37h-51.17a21.22 21.22 0 0 0-21.22 21.22v21.26c.005.914.268 1.809.76 2.58h71.62z" fill="#e9f2ff"/><path d="M83.76 55.92c-.35 1.532-.528 3.098-.53 4.67v21.26a4.78 4.78 0 0 0 4.78 4.78h67.61V55.92H83.76z" fill="#d2dae6"/><path d="M155.61 84.29v-9.55H83.22v7.1a4.69 4.69 0 0 0 .69 2.44h71.7z" fill="#bac2cc"/><path d="M154.12 39.37h2.99c10.889.004 19.716 8.831 19.72 19.72v25.18h-42.44V59.09c.004-10.889 8.831-19.716 19.72-19.72z" class="E"/><path d="M176.83 82.8H62.69c.454 2.229 2.415 3.83 4.69 3.83h109.45z" class="B"/><g fill="none" class="C D"><g stroke="#fff"><circle cx="180.061" cy="37.25" r="2.58"/><circle cx="54.221" cy="84.27" r="2.58"/></g><g stroke="#2164ff" stroke-linecap="round"><path d="M89.791 27.05v6.09"/><path d="M92.841 30.09h-6.1m68.869 65.27v6.1"/><path d="M158.661 98.41h-6.09"/></g></g><rect width="33.89" height="4.57" rx="2.12" fill="#fff" x="97.91" y="46.34"/><path d="M120.75 61.51a4.94 4.94 0 0 0 0 9.88 4.94 4.94 0 0 0 3.494-8.434 4.94 4.94 0 0 0-3.494-1.446z" class="B"/><path d="M120.75 66.45h0c-.287.001-.562-.112-.765-.315s-.316-.478-.315-.765V23.56c-.001-.287.112-.562.315-.765s.478-.316.765-.315h0c.287-.001.562.112.765.315s.316.478.315.765v41.81c.001.287-.112.562-.315.765s-.478.316-.765.315z" class="E"/><path d="M108.6 25.25h11.07v7.89H108.6a1.42 1.42 0 0 1-1.42-1.42v-5.06a1.42 1.42 0 0 1 1.42-1.42z" fill="#cddffa"/><path d="M40.54 78.06v-.09a2.37 2.37 0 0 0-2.37-2.37H9.36a2.37 2.37 0 0 0-2.37 2.37v.09a2.37 2.37 0 0 0 2.37 2.37h4.14a2.37 2.37 0 0 1 2.37 2.37h0a2.37 2.37 0 0 1-2.37 2.37H2.37A2.37 2.37 0 0 0 0 87.54v.09A2.37 2.37 0 0 0 2.37 90H29.5a2.37 2.37 0 0 0 2.37-2.37v-.09a2.37 2.37 0 0 0-2.37-2.37h-1.52a2.37 2.37 0 0 1-2.37-2.37h0a2.37 2.37 0 0 1 2.37-2.37h10.18a2.37 2.37 0 0 0 2.37-2.37zm180.99-6.45h0a1.83 1.83 0 0 1 1.83-1.83h1.66c1.391-.001 2.519-1.129 2.52-2.52h0c-.001-1.391-1.129-2.519-2.52-2.52H212.8c-.982-.002-1.778-.798-1.78-1.78h0c.002-.982.798-1.778 1.78-1.78h5.55c1.391-.001 2.519-1.129 2.52-2.52h0c-.001-1.391-1.129-2.519-2.52-2.52h-.86a2.48 2.48 0 0 1-2.48-2.48h0a2.48 2.48 0 0 1 2.48-2.48h10.59c1.391-.001 2.519-1.129 2.52-2.52h0c-.001-1.391-1.129-2.519-2.52-2.52h-26.14c-1.391.001-2.519 1.129-2.52 2.52h0c.001 1.391 1.129 2.519 2.52 2.52h.41a2.48 2.48 0 0 1 2.48 2.48h0a2.48 2.48 0 0 1-2.48 2.48h-11.58c-1.391.001-2.519 1.129-2.52 2.52h0c.001 1.391 1.129 2.519 2.52 2.52h8.67c.982.002 1.778.798 1.78 1.78h0c-.002.982-.798 1.778-1.78 1.78h-3.45c-1.391.001-2.519 1.129-2.52 2.52h0c.001 1.391 1.129 2.519 2.52 2.52H206a1.83 1.83 0 0 1 1.83 1.83h0a1.83 1.83 0 0 1-1.83 1.83h-7.13c-1.391.001-2.519 1.129-2.52 2.52h0c.001 1.391 1.129 2.519 2.52 2.52h36.41c1.391-.001 2.519-1.129 2.52-2.52h0c-.001-1.391-1.129-2.519-2.52-2.52h-11.93a1.83 1.83 0 0 1-1.83-1.83z" fill="#7ea5ff"/><path d="M56.54 17.18h0c.001-.263-.103-.515-.289-.701s-.438-.29-.701-.289H45.7v9h5.32c.263.001.515-.103.701-.289s.29-.438.289-.701h0c.001-.263-.103-.515-.289-.701s-.438-.29-.701-.289h-1.43a.76.76 0 0 1-.76-.76h0a.76.76 0 0 1 .76-.76h3.77c.263.001.515-.103.701-.289s.29-.438.289-.701h0c.001-.263-.103-.515-.289-.701s-.438-.29-.701-.289h-1.15a.76.76 0 0 1-.76-.76h0a.76.76 0 0 1 .76-.76h3.33c.263.001.515-.103.701-.289s.29-.438.289-.701zm-52.12 0h0c-.001-.263.103-.515.289-.701s.438-.29.701-.289h9.85v9H9.94c-.263.001-.515-.103-.701-.289s-.29-.438-.289-.701h0c-.001-.263.103-.515.289-.701s.438-.29.701-.289h1.43a.76.76 0 0 0 .76-.76h0a.76.76 0 0 0-.76-.76H7.6c-.263.001-.515-.103-.701-.289s-.29-.438-.289-.701h0c-.001-.263.103-.515.289-.701s.438-.29.701-.289h1.15a.76.76 0 0 0 .76-.76h0a.76.76 0 0 0-.76-.76H5.42c-.263.001-.515-.103-.701-.289s-.29-.438-.289-.701z" class="F"/><path d="M14.291 13.82h32.37v19.1h-32.37z" class="G"/><path d="M46.66 32.92L30.48 20.53 14.29 32.92z" class="H"/><path d="M14.29 13.82l14.63 11.2c.918.7 2.192.7 3.11 0l14.63-11.2H14.29z" class="I"/><path d="M256.18 98.65h0a1.1 1.1 0 0 0-1.1-1.1h-10.93v9.98h5.91a1.1 1.1 0 0 0 1.1-1.1h0a1.1 1.1 0 0 0-1.1-1.1h-1.58a.84.84 0 0 1-.84-.84h0a.84.84 0 0 1 .84-.84h4.19a1.1 1.1 0 0 0 1.1-1.1h0a1.1 1.1 0 0 0-1.1-1.1h-1.28a.84.84 0 0 1-.84-.84h0a.84.84 0 0 1 .84-.84h3.7a1.1 1.1 0 0 0 1.1-1.1zm-57.81 0h0a1.1 1.1 0 0 1 1.1-1.1h10.93v9.98h-5.91a1.1 1.1 0 0 1-1.1-1.1h0a1.1 1.1 0 0 1 1.1-1.1h1.58a.84.84 0 0 0 .84-.84h0a.84.84 0 0 0-.84-.84h-4.19a1.1 1.1 0 0 1-1.1-1.1h0a1.1 1.1 0 0 1 1.1-1.1h1.28a.84.84 0 0 0 .84-.84h0a.84.84 0 0 0-.84-.84h-3.7a1.1 1.1 0 0 1-1.1-1.1z" class="F"/><path d="M209.321 94.91h35.91v21.19h-35.91z" class="G"/><path d="M245.23 116.1l-17.96-13.74-17.95 13.74z" class="H"/><path d="M209.32 94.91l16.23 12.42c1.018.78 2.432.78 3.45 0l16.23-12.42z" class="I"/><path d="M251.12 4.54h0a1.34 1.34 0 0 0-1.34-1.34H236.5v12.13h7.17a1.34 1.34 0 0 0 1.34-1.34h0a1.34 1.34 0 0 0-1.34-1.34h-1.92a1.03 1.03 0 0 1-1.03-1.03h0a1.03 1.03 0 0 1 1.03-1.03h5.09a1.34 1.34 0 0 0 1.34-1.34h0a1.34 1.34 0 0 0-1.34-1.34h-1.55a1.03 1.03 0 0 1-1.03-1.03h0a1.03 1.03 0 0 1 1.03-1.03h4.49a1.34 1.34 0 0 0 1.34-1.34zm-70.24 0h0a1.34 1.34 0 0 1 1.34-1.34h13.28v12.13h-7.17a1.34 1.34 0 0 1-1.34-1.34h0a1.34 1.34 0 0 1 1.34-1.34h1.92a1.03 1.03 0 0 0 1.03-1.03h0a1.03 1.03 0 0 0-1.03-1.03h-5.09a1.34 1.34 0 0 1-1.34-1.34h0a1.34 1.34 0 0 1 1.34-1.34h1.55a1.03 1.03 0 0 0 1.03-1.03h0a1.03 1.03 0 0 0-1.03-1.03h-4.49a1.34 1.34 0 0 1-1.34-1.34z" class="F"/><path d="M194.19 0h43.63v25.74h-43.63z" class="G"/><path d="M237.82 25.74L216 9.05l-21.81 16.69z" class="H"/><path d="M194.19 0l19.72 15.09c1.235.95 2.955.95 4.19 0L237.82 0h-43.63z" class="I"/><path d="M148.3 59.53h14.64a2.47 2.47 0 0 1 2.47 2.47h0a2.47 2.47 0 0 1-2.47 2.47H148.3a2.47 2.47 0 0 1-2.47-2.47h0a2.47 2.47 0 0 1 2.47-2.47z" class="B"/><path d="M148.3 59.53h0a2.47 2.47 0 0 0-2.47 2.47h0a2.47 2.47 0 0 0 2.47 2.47h0a2.47 2.47 0 0 0 2.47-2.47h0a2.47 2.47 0 0 0-2.47-2.47z" fill="#97b6ff"/><path d="M144.14 72.75h22.95a2.79 2.79 0 0 1 2.79 2.79v.39a2.79 2.79 0 0 1-2.79 2.79h-22.95a2.79 2.79 0 0 1-2.79-2.79v-.39a2.79 2.79 0 0 1 2.79-2.79z" class="B"/><path d="M169.88 75.02h-28.53a2.27 2.27 0 0 1 2.27-2.27h24a2.27 2.27 0 0 1 2.27 2.27h0z" fill="#97b6ff"/></svg>