<svg xmlns="http://www.w3.org/2000/svg" width="50" height="50" viewBox="0 0 50 50">
  <g id="Group_81364" data-name="Group 81364" transform="translate(-855 -3526)">
    <rect id="Rectangle_13105" data-name="Rectangle 13105" width="50" height="50" rx="8" transform="translate(855 3526)" fill="#d9e7ff"/>
    <g id="snowflake" transform="translate(865 3536)">
      <path id="Path_41762" data-name="Path 41762" d="M100.632,91a9.632,9.632,0,1,0,9.632,9.632A9.643,9.643,0,0,0,100.632,91Zm6.317,10.071a.875.875,0,0,1-1.178.382l-1.882-.959-1.84.6,1.138,1.566,2.087.331a.875.875,0,1,1-.274,1.729l-1.582-.25-.25,1.581a.876.876,0,0,1-1.731-.275l.331-2.088-1.137-1.565-1.137,1.565.331,2.088a.876.876,0,0,1-1.731.275l-.25-1.581-1.582.25a.875.875,0,1,1-.274-1.729l2.087-.331,1.138-1.566-1.84-.6-1.882.959a.876.876,0,0,1-.8-1.56l1.426-.727L95.4,97.741a.875.875,0,0,1,1.56-.8l.959,1.883,1.841.6V97.492L98.261,96A.876.876,0,1,1,99.5,94.759l1.132,1.132,1.132-1.132A.876.876,0,1,1,103,96l-1.495,1.495v1.935l1.841-.6.959-1.883a.875.875,0,0,1,1.56.8l-.725,1.426,1.426.727A.875.875,0,0,1,106.949,101.071Z" transform="translate(-86.053 -86.053)" fill="#005dff"/>
      <path id="Path_41763" data-name="Path 41763" d="M366.078,194.55h-.76a13.817,13.817,0,0,0,4.4-13.944.816.816,0,0,0-1.58.406,12.232,12.232,0,0,1-4.507,12.832v-1.552a.815.815,0,0,0-1.631,0v3.074a.939.939,0,0,0,.158.457.883.883,0,0,0,.675.358h3.245a.815.815,0,1,0,0-1.631Z" transform="translate(-340.997 -168.884)" fill="#005dff"/>
      <path id="Path_41764" data-name="Path 41764" d="M183.017,2.016a12.232,12.232,0,0,1,12.831,4.507h-1.62a.815.815,0,1,0,0,1.631h3.145a.848.848,0,0,0,.609-.287.888.888,0,0,0,.206-.528V4.077a.815.815,0,1,0-1.631,0v.763a13.819,13.819,0,0,0-13.949-4.4.816.816,0,0,0,.408,1.58Z" transform="translate(-170.779)" fill="#005dff"/>
      <path id="Path_41765" data-name="Path 41765" d="M47.228,368.138A12.232,12.232,0,0,1,34.4,363.631h1.552a.815.815,0,1,0,0-1.631H32.866a.888.888,0,0,0-.61.288.912.912,0,0,0-.205.527v3.235a.815.815,0,1,0,1.631,0v-.742a13.819,13.819,0,0,0,13.953,4.409.816.816,0,0,0-.408-1.58Z" transform="translate(-30.309 -340.997)" fill="#005dff"/>
      <path id="Path_41766" data-name="Path 41766" d="M2.016,49.2A12.235,12.235,0,0,1,6.523,36.367v1.587a.815.815,0,1,0,1.631,0V34.836a.861.861,0,0,0-.292-.612.925.925,0,0,0-.524-.2H4.078a.815.815,0,1,0,0,1.631h.768A13.817,13.817,0,0,0,.436,49.606a.816.816,0,0,0,1.58-.406Z" transform="translate(0 -32.172)" fill="#005dff"/>
    </g>
  </g>
</svg>
