<svg xmlns="http://www.w3.org/2000/svg" xmlns:xlink="http://www.w3.org/1999/xlink" width="235" height="120" xmlns:v="https://vecta.io/nano"><style><![CDATA[.B{flood-color:#deeafb}.C{fill:#fff}.D{fill:#fc9d1d}.E{fill:#4759ff}.F{fill:#51faff}.G{fill:#cde1e6}.H{fill:#e1ebf0}]]></style><defs><filter id="A" x="0" y="0" width="64" height="64" filterUnits="userSpaceOnUse"><feOffset dy="3"/><feGaussianBlur stdDeviation="3" result="A"/><feFlood class="B"/><feComposite operator="in" in2="A"/><feComposite in="SourceGraphic"/></filter><filter id="B" x="0" y="56" width="64" height="64" filterUnits="userSpaceOnUse"><feOffset dy="3"/><feGaussianBlur stdDeviation="3" result="A"/><feFlood class="B"/><feComposite operator="in" in2="A"/><feComposite in="SourceGraphic"/></filter><filter id="C" x="58" y="0" width="64" height="64" filterUnits="userSpaceOnUse"><feOffset dy="3"/><feGaussianBlur stdDeviation="3" result="A"/><feFlood class="B"/><feComposite operator="in" in2="A"/><feComposite in="SourceGraphic"/></filter><filter id="D" x="58" y="56" width="64" height="64" filterUnits="userSpaceOnUse"><feOffset dy="3"/><feGaussianBlur stdDeviation="3" result="A"/><feFlood class="B"/><feComposite operator="in" in2="A"/><feComposite in="SourceGraphic"/></filter><filter id="E" x="114" y="0" width="64" height="64" filterUnits="userSpaceOnUse"><feOffset dy="3"/><feGaussianBlur stdDeviation="3" result="A"/><feFlood class="B"/><feComposite operator="in" in2="A"/><feComposite in="SourceGraphic"/></filter><filter id="F" x="114" y="56" width="64" height="64" filterUnits="userSpaceOnUse"><feOffset dy="3"/><feGaussianBlur stdDeviation="3" result="A"/><feFlood class="B"/><feComposite operator="in" in2="A"/><feComposite in="SourceGraphic"/></filter><filter id="G" x="171" y="0" width="64" height="64" filterUnits="userSpaceOnUse"><feOffset dy="3"/><feGaussianBlur stdDeviation="3" result="A"/><feFlood class="B"/><feComposite operator="in" in2="A"/><feComposite in="SourceGraphic"/></filter><filter id="H" x="171" y="56" width="64" height="64" filterUnits="userSpaceOnUse"><feOffset dy="3"/><feGaussianBlur stdDeviation="3" result="A"/><feFlood class="B"/><feComposite operator="in" in2="A"/><feComposite in="SourceGraphic"/></filter><path id="I" d="M1044.205 3925.681h-1.6c-.19 0-.343-.154-.343-.343s.154-.343.343-.343h1.6c.19 0 .344.154.344.343s-.154.343-.344.343z"/><path id="J" d="M1061.603 3931.29h-4.807c-.19 0-.344-.154-.344-.343s.154-.343.344-.343h4.807c.19 0 .343.154.343.343s-.154.343-.343.343z"/><path id="K" d="M1063.204 3910.687h-4.258c-.19 0-.344-.154-.344-.343s.154-.343.344-.343h4.258c.19 0 .343.154.343.343s-.154.343-.343.343z"/></defs><g transform="translate(-906 -3892)"><g transform="translate(906 3892)" filter="url(#A)" class="C"><rect width="46" height="46" rx="7" transform="translate(9 6)"/></g><g transform="translate(906 3892)" filter="url(#B)" class="C"><rect width="46" height="46" rx="7" transform="translate(9 62)"/></g><g transform="translate(906 3892)" filter="url(#C)" class="C"><rect width="46" height="46" rx="7" transform="translate(67 6)"/></g><g transform="translate(906 3892)" filter="url(#D)" class="C"><rect width="46" height="46" rx="7" transform="translate(67 62)"/></g><g transform="translate(906 3892)" filter="url(#E)" class="C"><rect width="46" height="46" rx="7" transform="translate(123 6)"/></g><g transform="translate(906 3892)" filter="url(#F)" class="C"><rect width="46" height="46" rx="7" transform="translate(123 62)"/></g><g transform="translate(906 3892)" filter="url(#G)" class="C"><rect width="46" height="46" rx="7" transform="translate(180 6)"/></g><g transform="translate(906 3892)" filter="url(#H)" class="C"><rect width="46" height="46" rx="7" transform="translate(180 62)"/></g><rect width="24.861" height="20.236" rx="1.5" fill="#c6e2f8" x="925.57" y="3912.039"/><path d="M950.431 3913.774v4.625H925.57v-4.625c0-.958.777-1.735 1.735-1.735h21.392c.958.001 1.734.777 1.734 1.735zm-13.008 13.494a.91.91 0 0 1-.578-.254l-2.059-2.024c-.339-.339-.339-.887 0-1.226.161-.165.382-.259.613-.259s.452.093.613.259l1.411 1.411 3.469-3.469c.161-.165.382-.259.613-.259s.452.093.613.259c.339.339.339.887 0 1.226l-4.117 4.082a.91.91 0 0 1-.578.254z" fill="#1367f7"/><path d="M929.906 3913.776a.88.88 0 0 1-.867-.87v-2.313a.87.87 0 0 1 .867-.868.87.87 0 0 1 .868.868v2.313a.88.88 0 0 1-.867.867zm5.4 0a.87.87 0 0 1-.614-.255c-.163-.163-.254-.385-.253-.615v-2.313a.87.87 0 0 1 1.301-.751.87.87 0 0 1 .434.751v2.313a.88.88 0 0 1-.867.867zm5.389 0a.88.88 0 0 1-.867-.867v-2.316a.87.87 0 0 1 .867-.867.87.87 0 0 1 .867.867v2.313c.001.231-.09.452-.253.615a.87.87 0 0 1-.615.255zm5.4 0a.88.88 0 0 1-.867-.867v-2.316a.87.87 0 0 1 .867-.867.87.87 0 0 1 .868.867v2.313a.88.88 0 0 1-.867.867z" fill="#186bfb"/><path d="M1006.625 3916.028l-1.65 6.6a2.2 2.2 0 0 1-2.134 1.672H991.6a1.1 1.1 0 0 1-1.1-.9l-1.815-10.1h15.806a2.2 2.2 0 0 1 2.134 2.728z" fill="#8087ef"/><g fill="#515bbf"><circle cx="993.25" cy="3930.899" r="1.65"/><circle cx="1000.949" cy="3930.899" r="1.65"/></g><g fill="#8087ef"><path d="M992.7 3923a1.1 1.1 0 0 1-.9 1.3h-.2a1.1 1.1 0 0 1-1.1-.9l-1.815-10.1-.2-1.1H986.1a1.1 1.1 0 0 1-.953-1.65 1.1 1.1 0 0 1 .953-.55h2.387a2.2 2.2 0 0 1 2.2 1.8l.231 1.5z"/><path d="M1003.7 3928.699h-12.1a3.3 3.3 0 0 1 0-6.6h8.8a1.1 1.1 0 0 1 0 2.2h-8.8a1.1 1.1 0 1 0 0 2.2h12.1a1.1 1.1 0 0 1 0 2.2z"/></g><path d="M995.45 3921a1.1 1.1 0 0 1-1.1-1.1v-2.2a1.1 1.1 0 1 1 2.2 0v2.2a1.1 1.1 0 0 1-1.1 1.1zm4.4 0a1.1 1.1 0 0 1-1.1-1.1v-2.2a1.1 1.1 0 1 1 2.2 0v2.2a1.1 1.1 0 0 1-1.1 1.1z" fill="#caccff"/><path d="M1054.757 3914.007l-.709 2.289s3.011 3.2 2.952 5.151a5.72 5.72 0 0 1-4.9 5.265l-3.767-.364-.946.946c-.071.071-.107.169-.1.269s.058.192.139.251a7.9 7.9 0 0 0 12.551-7.029 7.9 7.9 0 0 0-5.22-6.778z" class="E"/><path d="M1058.281 3921.636a6.17 6.17 0 0 0-2.15-4.878 4.02 4.02 0 0 1-1.373-2.752 7.84 7.84 0 0 0-1.459-.368c-.099-.015-.2.014-.275.079s-.12.16-.12.261v3.39c0 .153.101.288.249.33 1.722.483 2.893 2.078 2.839 3.865a3.98 3.98 0 0 1-3.8 3.773c-.697.015-1.384-.157-1.991-.5-.134-.076-.303-.053-.412.056l-1.451 1.451a6.18 6.18 0 0 0 9.945-4.711z" fill="#647cef"/><path d="M1050.908 3913.638a7.85 7.85 0 0 0-.9.193l-1.26 3.123 1.042 1.042c.109.109.277.132.411.056.269-.152.556-.271.853-.354.148-.042.25-.176.25-.33v-3.39c0-.1-.043-.196-.12-.261s-.177-.094-.276-.079z" fill="#00d7df"/><path d="M1044.305 3922.705a7.86 7.86 0 0 0 1.432 3.416c.059.08.151.131.251.138s.198-.029.268-.1l2.4-2.4c.109-.108.132-.276.057-.41a3.89 3.89 0 0 1 0-3.813c.075-.134.052-.302-.057-.41l-1.042-1.042-1.017.009z" class="D"/><path d="M1045.737 3916.771a7.86 7.86 0 0 0-1.532 4.675c0 .422.033.843.1 1.259h.957c.329-.001.644-.133.875-.367s.36-.55.357-.879v-.013c-.002-1.211.39-2.39 1.117-3.359l-1.355-1.355c-.071-.071-.169-.107-.268-.1s-.191.058-.251.139z" fill="#facf23"/><path d="M1049.942 3915.616l.061-1.785c-.927.255-1.8.679-2.575 1.249-.081.059-.131.151-.139.251s.029.198.1.269l1.355 1.355a5.62 5.62 0 0 1 .632-.411 1.1 1.1 0 0 0 .566-.928z" class="F"/><path d="M1042.067 3924.88c-.127 0-.243-.07-.303-.181s-.053-.247.018-.353l2.137-3.2c.062-.097.169-.156.284-.158h1.6c.19 0 .343.154.343.343s-.154.343-.343.343h-1.414l-2.035 3.052c-.064.096-.172.153-.287.153z" fill="#fee785"/><path d="M1060.001 3928.634c-.091 0-.178-.036-.243-.1s-.1-.152-.1-.243v-1.954l-2.2-1.273c-.164-.095-.221-.305-.126-.469s.305-.221.469-.126l2.377 1.372c.107.062.173.176.172.3v2.152c-.001.092-.038.179-.103.243s-.154.099-.246.098z" fill="#76a3fe"/><path d="M1041.8 3928.542h3.2a.8.8 0 0 0 .8-.8v-3.2a.8.8 0 0 0-.8-.8h-3.2a.8.8 0 0 0-.8.8v3.2a.8.8 0 0 0 .8.8z" class="G"/><path d="M1041 3927.627h3.09a.8.8 0 0 0 .8-.8v-3.092h-3.09a.8.8 0 0 0-.8.8z" class="H"/><g class="D"><use xlink:href="#I"/><use xlink:href="#I" y="1.603"/></g><path d="M1049.013 3915.494h-2.4c-.091 0-.178-.036-.243-.1l-2.4-2.4c-.134-.134-.134-.352 0-.486s.352-.134.486 0l2.3 2.3h2.261c.19 0 .343.154.343.343s-.154.343-.343.343z" fill="#9bfcff"/><path d="M1055.993 3927.741h6.41a.8.8 0 0 1 .8.8v3.2a.8.8 0 0 1-.8.8h-6.41a.8.8 0 0 1-.8-.8v-3.2a.8.8 0 0 1 .8-.8z" class="G"/><path d="M1055.993 3927.741h6.066v3.09a.8.8 0 0 1-.8.8h-6.066v-3.09a.8.8 0 0 1 .8-.8z" class="H"/><g fill="#647cef"><use xlink:href="#J"/><use xlink:href="#J" y="-1.602"/></g><path d="M1053.044 3919.36l-3.028 3.028a2.29 2.29 0 0 0 4.353-.619 2.29 2.29 0 0 0-1.325-2.409z" fill="#b4d2d7"/><path d="M1053.248 3920.302a2.29 2.29 0 0 0-3.908-1.619 2.29 2.29 0 0 0 1.619 3.908 2.28 2.28 0 0 0 2.289-2.289z" fill="#9bb9c3"/><use xlink:href="#K" class="E"/><use xlink:href="#K" y="3.205" class="F"/><use xlink:href="#K" y="1.602" class="D"/><circle cx="1057.345" cy="3913.548" r=".343" class="F"/><circle cx="1057.345" cy="3911.945" r=".343" class="D"/><circle cx="1057.345" cy="3910.343" r=".343" class="E"/><path d="M1041.8 3913.543h4.807a.8.8 0 0 0 .8-.8v-1.6a.8.8 0 0 0-.8-.8h-4.807a.8.8 0 0 0-.8.8v1.6a.8.8 0 0 0 .8.8z" class="G"/><path d="M1041 3912.632h4.693a.8.8 0 0 0 .8-.8v-1.489h-4.693a.8.8 0 0 0-.8.8z" class="H"/><path d="M1045.807 3912.289h-3.2c-.19 0-.343-.154-.343-.343s.154-.343.343-.343h3.2c.19 0 .343.154.343.343s-.154.343-.343.343z" fill="#00d7df"/><path d="M1116.685 3914.755c-1.336-2.635-3.922-4.409-6.862-4.706-.654-.066-1.314-.066-1.968 0-2.94.297-5.527 2.071-6.864 4.706a9.37 9.37 0 0 0 1.287 10.315l5.892 7.163c.165.201.411.317.67.317s.505-.116.67-.317l5.892-7.163a9.37 9.37 0 0 0 1.283-10.315z" fill="#fb5968"/><circle cx="1108.799" cy="3918.605" r="4.556" fill="#d8304c"/><path d="M1007.269 3975.911a1.65 1.65 0 0 0-.916-2.819l-5.27-.765c-.537-.078-1.002-.414-1.244-.9l-2.357-4.78a1.65 1.65 0 0 0-2.964 0l-2.356 4.78c-.242.486-.707.822-1.244.9l-5.27.766a1.65 1.65 0 0 0-.916 2.818l3.813 3.716c.389.38.567.927.475 1.463l-.9 5.249c-.107.621.149 1.248.658 1.617s1.185.418 1.742.125l4.712-2.478a1.65 1.65 0 0 1 1.538 0l4.713 2.478a1.65 1.65 0 0 0 2.4-1.742l-.9-5.249a1.65 1.65 0 0 1 .475-1.463zm0 0" fill="#fec22d"/><path d="M990.014 3986.817l.9-5.249a1.65 1.65 0 0 0-.475-1.463l-3.813-3.721a1.65 1.65 0 0 1 .916-2.819l5.27-.766a1.65 1.65 0 0 0 1.244-.9l2.357-4.782c.176-.364.482-.65.858-.8-.358-.43-.91-.649-1.465-.583s-1.04.408-1.288.91l-2.357 4.778c-.242.486-.707.822-1.244.9l-5.27.766a1.65 1.65 0 0 0-.916 2.823l3.813 3.717c.389.38.567.927.475 1.463l-.9 5.249a1.65 1.65 0 0 0 2.252 1.81c-.311-.369-.442-.858-.357-1.333zm0 0" fill="#eeb11a"/><g fill="#423e4f"><path d="M991.776 3977.013c-.196 0-.355-.159-.355-.355v-.765c0-.196.159-.355.355-.355s.355.159.355.355v.765c0 .094-.037.184-.104.251s-.157.104-.251.104zm8.451 0c-.094 0-.184-.037-.251-.104s-.104-.157-.104-.251v-.765c0-.127.068-.244.177-.307s.245-.063.355 0 .178.181.177.307v.765c0 .196-.159.355-.355.355zm0 0"/><path d="M996.001 3977.421c-.5.004-.978-.209-1.31-.583-.129-.148-.114-.372.034-.501s.372-.114.501.034c.2.217.481.34.775.34s.576-.123.775-.34c.129-.148.354-.163.502-.034s.163.354.034.501c-.332.374-.81.587-1.311.583zm0 0"/></g><path d="M943.242 3988.218l-3.051-3.051h-7.99c-1.556-.002-2.817-1.263-2.819-2.819v-10.147c.002-1.556 1.263-2.817 2.819-2.819h14.657c1.556.002 2.817 1.263 2.819 2.819v10.147c-.002 1.556-1.263 2.817-2.819 2.819h-1.691v2.254c.002.457-.273.87-.694 1.045s-.908.079-1.231-.245z" fill="#0ca0f2"/><path d="M947.982 3978.965v-9.344a2.8 2.8 0 0 0-1.124-.239h-14.657c-1.556.002-2.817 1.263-2.819 2.819v10.147c.002 1.556 1.263 2.817 2.819 2.819h2.293l1.688-1.692h7.29c2.49-.003 4.507-2.02 4.51-4.51z" fill="#0588e2"/><path d="M931.638 3985.166a1.13 1.13 0 0 1-1.128-1.128v-2.253h-1.691c-1.556-.002-2.817-1.263-2.819-2.819v-10.147c.002-1.556 1.263-2.817 2.819-2.819h14.657c1.556.002 2.817 1.263 2.819 2.819v10.147c-.002 1.556-1.263 2.817-2.819 2.819h-7.99l-3.052 3.051c-.211.211-.497.33-.796.33z" fill="#47caf0"/><g fill="#eff3f9"><path d="M936.147 3976.147c-.15 0-.293-.059-.399-.165s-.165-.249-.165-.399v-.434c.015-.843.494-1.61 1.245-1.993.557-.311.84-.955.692-1.576a1.41 1.41 0 0 0-2.765.137c-.044.308-.33.523-.638.478s-.523-.33-.479-.638a2.54 2.54 0 0 1 3.1-2.11 2.54 2.54 0 0 1 .639 4.7c-.389.188-.643.574-.662 1.006v.43c0 .15-.059.293-.165.399s-.249.165-.399.165z"/><circle cx="935.754" cy="3977.808" r=".513"/></g><path d="M1055.558 3968.641l-.673.2a5.25 5.25 0 0 0-.328-.8 2.28 2.28 0 0 0-2.02-1.4.7.7 0 0 0-.182.018c-.018-.036-.055-.055-.073-.091a1.73 1.73 0 0 0-1.4-.564 4.04 4.04 0 0 0-3.057 2.22 8.64 8.64 0 0 0-1.219 3.185l-2.147.673c-.637.2-.655.218-.728.819l-1.729 13.267 13.758 2.384v-19.929a1.9 1.9 0 0 0-.202.018zm-3.185.983l-2.311.71a5.62 5.62 0 0 1 1.165-2.275 2.94 2.94 0 0 1 .783-.582 5.09 5.09 0 0 1 .364 2.147zm-1.492-2.875a1.25 1.25 0 0 1 .655.164 3.45 3.45 0 0 0-.855.655 6.5 6.5 0 0 0-1.438 3.021l-1.911.582c.401-1.747 1.875-4.386 3.549-4.423zm-2.114 10.009c.073 1.165 3.148 1.419 3.33 4.167.127 2.166-1.147 3.64-2.985 3.749-1.26.117-2.51-.307-3.44-1.165l.473-2a4.13 4.13 0 0 0 2.2.855.88.88 0 0 0 .855-.928c-.091-1.529-2.6-1.438-2.766-3.949-.146-2.111 1.237-4.24 4.295-4.44a3.87 3.87 0 0 1 1.79.217l-.691 2.621a3.8 3.8 0 0 0-1.711-.291c-1.35.09-1.365.945-1.35 1.164zm4.331-7.352a5.8 5.8 0 0 0-.328-1.984c.837.164 1.237 1.092 1.419 1.656q-.487.136-1.088.327zm3.079 19.107l5.714-1.422-2.477-16.722c-.014-.101-.098-.177-.2-.182-.091 0-1.692-.036-1.692-.036l-1.347-1.31z" fill="#81c038"/><path d="M1099.857 3985.968c-3.809-3.817-3.809-9.998 0-13.815l3.565-3.565 3.761 3.761-3.565 3.565a4.45 4.45 0 0 0 6.293 6.293l3.565-3.568 3.761 3.761-3.569 3.568c-3.817 3.809-9.998 3.809-13.815 0z" fill="#1367f7"/><path d="M1113.473 3978.642l2.589-2.589 3.761 3.761-2.589 2.589zm-10.052-10.054l2.589-2.589 3.761 3.761-2.589 2.589z" fill="#c6e2f8"/><path d="M1120.241 3969.056l-8.52.965 2.01 2.01-4.339 2.527 8.507-.907-1.988-1.988z" fill="#fec22d"/></g></svg>