<svg xmlns="http://www.w3.org/2000/svg" xmlns:xlink="http://www.w3.org/1999/xlink" width="126.193" height="84.189" xmlns:v="https://vecta.io/nano"><defs><clipPath id="A"><path fill="none" d="M0 0h126.193v84.189H0z"/></clipPath><path id="B" d="M8.694 3.773c-.002.874-.711 1.581-1.585 1.58s-1.582-.71-1.581-1.584.709-1.582 1.583-1.582c.42 0 .823.168 1.12.465s.463.701.463 1.121"/><path id="C" d="M91.188 72.271c-.002-.874-.711-1.581-1.585-1.58s-1.582.71-1.581 1.584.709 1.582 1.583 1.582c.42 0 .823-.168 1.12-.465s.463-.701.463-1.121"/></defs><g clip-path="url(#A)"><use xlink:href="#B" fill="#04ca00"/><path d="M13.312 3.773c-.002.874-.711 1.581-1.585 1.58s-1.582-.71-1.581-1.584.709-1.582 1.583-1.582c.42 0 .823.168 1.12.465s.463.701.463 1.121" fill="#f5411f"/><path d="M17.931 3.773c-.002.874-.711 1.581-1.585 1.58s-1.582-.71-1.581-1.584.709-1.582 1.583-1.582c.42 0 .823.168 1.12.465s.463.701.463 1.121" fill="#ffc403"/><path d="M40.109 28.791a.1.1 0 0 1-.1-.1V3.878H19.584a.1.1 0 0 1 0-.2h20.525a.1.1 0 0 1 .1.1v24.917a.1.1 0 0 1-.1.1"/><g fill="#fff"><path d="M107.994 58.2a2.55 2.55 0 0 1-2.546 2.552H30.542a2.55 2.55 0 0 1-2.546-2.552v-.935l.955-.854 77.545-.118 1.5.972z"/><path d="M107.994 57.264h-80V12.389a2.96 2.96 0 0 1 2.959-2.959h74.08a2.96 2.96 0 0 1 2.959 2.959z"/></g><path d="M107.995 57.366h-80a.1.1 0 0 1-.1-.1V12.39c.002-1.69 1.371-3.059 3.061-3.061h74.079c1.69.002 3.059 1.371 3.061 3.061v44.875a.1.1 0 0 1-.1.1m-79.9-.2h79.8V12.39a2.86 2.86 0 0 0-2.858-2.858H30.956a2.86 2.86 0 0 0-2.858 2.858z"/><path d="M105.262 54.627H30.728a.1.1 0 0 1-.1-.1v-42.06a.4.4 0 0 1 .4-.4h73.941a.4.4 0 0 1 .4.4v42.06a.1.1 0 0 1-.1.1m-74.432-.2h74.331V12.465a.2.2 0 0 0-.195-.195H31.024a.2.2 0 0 0-.195.195zm74.613 6.426H30.542c-1.463-.004-2.647-1.191-2.647-2.654a.1.1 0 1 1 .2 0 2.45 2.45 0 0 0 2.445 2.451h74.91a2.45 2.45 0 0 0 2.445-2.451.1.1 0 0 1 .2 0c0 1.463-1.185 2.651-2.648 2.654"/><path d="M80.089 68.501H55.897a2.51 2.51 0 0 1-2.508-2.508v-5.241h29.2v5.241a2.51 2.51 0 0 1-2.508 2.508" fill="#fff"/><path d="M80.09 68.603H55.9c-1.441-.002-2.608-1.169-2.61-2.61v-5.241a.1.1 0 0 1 .1-.1h29.2a.1.1 0 0 1 .1.1v5.241c-.002 1.44-1.169 2.608-2.609 2.61m-26.6-7.749v5.14a2.41 2.41 0 0 0 2.407 2.407h24.188a2.41 2.41 0 0 0 2.407-2.407v-5.14z"/><path d="M81.51 62.674H54.481a.1.1 0 0 1 0-.2H81.51a.1.1 0 1 1 0 .2"/><g fill="#e2eaff"><path d="M89.334 20.244H59.947c-.453 0-.871-.241-1.097-.633a1.27 1.27 0 0 1 0-1.267c.226-.392.645-.634 1.097-.633h29.387c.453 0 .871.241 1.097.633a1.27 1.27 0 0 1 0 1.267c-.226.392-.645.634-1.097.633m35.591 0H95.538c-.7 0-1.267-.567-1.267-1.267s.567-1.267 1.267-1.267h29.387c.453 0 .871.241 1.097.633a1.27 1.27 0 0 1 0 1.267c-.226.392-.645.634-1.097.633m-39.778 6.621h-25.2c-.453 0-.871-.241-1.097-.633a1.27 1.27 0 0 1 0-1.267c.226-.392.645-.634 1.097-.633h25.2c.7 0 1.267.567 1.267 1.267s-.567 1.267-1.267 1.267m34.084-.001h-27.88c-.453 0-.871-.241-1.097-.633a1.27 1.27 0 0 1 0-1.267c.226-.392.645-.634 1.097-.633h27.88c.453 0 .871.241 1.097.633a1.27 1.27 0 0 1 0 1.267c-.226.392-.645.634-1.097.633m-26.756 6.619H68.396c-.7 0-1.267-.567-1.267-1.267s.567-1.267 1.267-1.267h24.076c.453 0 .871.241 1.097.633a1.27 1.27 0 0 1 0 1.267c-.226.392-.645.634-1.097.633m22.991.001H98.679c-.453 0-.871-.241-1.097-.633a1.27 1.27 0 0 1 0-1.267c.226-.392.645-.634 1.097-.633h16.784c.453 0 .871.241 1.097.633a1.27 1.27 0 0 1 0 1.267c-.226.392-.645.634-1.097.633m-29.269 6.623H59.948c-.453 0-.871-.241-1.097-.633a1.27 1.27 0 0 1 0-1.267c.226-.392.645-.634 1.097-.633h26.246c.453 0 .871.241 1.097.633a1.27 1.27 0 0 1 0 1.267c-.226.392-.645.634-1.097.633m38.73 0H92.397c-.7 0-1.267-.567-1.267-1.267s.567-1.267 1.267-1.267h32.527c.453 0 .871.241 1.097.633a1.27 1.27 0 0 1 0 1.267c-.226.392-.645.634-1.097.633m-30.355 6.622H68.396a1.27 1.27 0 0 1-1.267-1.267 1.27 1.27 0 0 1 1.267-1.267h26.169a1.27 1.27 0 0 1 1.267 1.268 1.27 1.27 0 0 1-1.267 1.267m24.042-.001h-17.834a1.27 1.27 0 0 1-1.267-1.267 1.27 1.27 0 0 1 1.267-1.267h17.834a1.27 1.27 0 0 1 1.267 1.268 1.27 1.27 0 0 1-1.267 1.267"/></g><path fill="#fff" d="M.101 30.237h49.678v40.788H.101z"/><path d="M49.779 71.127H.1a.1.1 0 0 1-.1-.1v-40.79a.1.1 0 0 1 .1-.1h49.679a.1.1 0 0 1 .1.1v40.788a.1.1 0 0 1-.1.1M.2 70.924h49.478V30.339H.2z"/><path d="M21.847 30.237L20.808 37.2l-.586.032s1.331 4.158 4.795 4.733 3.1-3.42 3.1-3.42l-2.03-.921.693-5.611z" fill="#fff"/><path d="M26.089 37.726h-.013a.1.1 0 0 1-.088-.113l.683-5.531-4.742-1.707-1.021 6.841c-.008.055-.06.093-.115.085s-.093-.06-.085-.115l1.039-6.963a.1.1 0 0 1 .135-.08l4.935 1.776a.1.1 0 0 1 .066.108l-.693 5.611a.1.1 0 0 1-.1.089"/><path d="M30.258 25.565a2.95 2.95 0 0 0 1.282-1.909 2.91 2.91 0 0 0-.97-2.542 4.3 4.3 0 0 0-2.583-1.024 8.53 8.53 0 0 0-2.8.341 7.9 7.9 0 0 0-2.6 1.123c-.796.537-1.363 1.351-1.59 2.284a1.25 1.25 0 0 0-1.164.528 3.87 3.87 0 0 0 1.6 6.2 4.67 4.67 0 0 0 4.168-.7c.968-.713 1.74-1.659 2.244-2.75.248-.508.24-.777.814-.9a4.54 4.54 0 0 0 1.6-.65"/><path d="M21.937 29.034a.82.82 0 0 0-1.093-.338 1.33 1.33 0 0 0-.662 1.037 1.74 1.74 0 0 0 .577 1.553c.457.376 1.1.428 1.611.13.882 1.054 2.114 1.756 3.471 1.977.74.088 1.485-.105 2.09-.54.392-.339.676-.786.815-1.285a5.79 5.79 0 0 0 .21-1.526 14.54 14.54 0 0 0-.547-4.4 1.84 1.84 0 0 0-.289-.654 1.67 1.67 0 0 0-.867-.5 4.36 4.36 0 0 0-2.288-.089c-.761.182-1.424.646-1.854 1.3-.371.649-.534 1.396-.468 2.141-.018.493-.283.945-.706 1.2" fill="#fff"/><path d="M26.14 33.506c-.107 0-.21 0-.306-.01a5.83 5.83 0 0 1-3.482-1.951c-.539.274-1.189.203-1.657-.18-.469-.409-.7-1.028-.614-1.644a1.41 1.41 0 0 1 .718-1.115.99.99 0 0 1 .767-.033.83.83 0 0 1 .369.263l.6-1.023a3.74 3.74 0 0 1 .485-2.17 3.17 3.17 0 0 1 1.915-1.342 4.46 4.46 0 0 1 2.341.09 1.77 1.77 0 0 1 .917.532 1.93 1.93 0 0 1 .307.689 14.6 14.6 0 0 1 .551 4.434 5.9 5.9 0 0 1-.214 1.552 2.72 2.72 0 0 1-.847 1.334 2.92 2.92 0 0 1-1.855.573m-3.77-2.191a.1.1 0 0 1 .074.032 5.71 5.71 0 0 0 3.4 1.946 2.9 2.9 0 0 0 2.019-.518c.377-.326.649-.756.782-1.236a5.72 5.72 0 0 0 .206-1.5 14.39 14.39 0 0 0-.543-4.372 1.74 1.74 0 0 0-.271-.618 1.6 1.6 0 0 0-.816-.464 4.25 4.25 0 0 0-2.234-.087 2.97 2.97 0 0 0-1.793 1.253 3.56 3.56 0 0 0-.453 2.082.1.1 0 0 1-.014.057l-.706 1.2a.1.1 0 0 1-.094.05.1.1 0 0 1-.087-.061.59.59 0 0 0-.347-.312c-.198-.074-.417-.065-.608.025a1.23 1.23 0 0 0-.606.959 1.64 1.64 0 0 0 .541 1.461 1.31 1.31 0 0 0 1.492.123.1.1 0 0 1 .054-.016m-.645-.715a.1.1 0 0 1-.1-.086.96.96 0 0 0-.59-.734c-.034-.013-.058-.043-.064-.079s.008-.072.036-.095.066-.029.1-.016c.379.151.651.49.717.892a.1.1 0 0 1-.085.116h-.015m10.54 40.326l.489-8.452-22.659.888-2.328 7.564z"/><path d="M64.299 44.676c.262-.882.465-1.781.608-2.69a1.66 1.66 0 0 1 1.312-1.358c4.4-.906 5.363-3.748 5.363-3.748a.94.94 0 0 0-.034-.735 1.33 1.33 0 0 0-1.643-.738c-2.295.509-4.643.737-6.993.68-2.411.04-4.14.734-5.085 2.095a18.25 18.25 0 0 0-1.237 2.2z" fill="#fff"/><path d="M64.299 44.774a.1.1 0 0 1-.029 0 .1.1 0 0 1-.069-.126c.261-.878.464-1.772.606-2.677a1.76 1.76 0 0 1 1.392-1.442c4.283-.883 5.278-3.654 5.288-3.682a.84.84 0 0 0-.032-.664 1.23 1.23 0 0 0-1.518-.679c-2.304.513-4.662.743-7.021.685-2.4.04-4.086.73-5 2.052-.459.702-.87 1.434-1.229 2.191-.025.05-.086.07-.135.046s-.07-.086-.045-.135c.364-.766.779-1.507 1.244-2.216.957-1.378 2.7-2.1 5.167-2.139 2.34.058 4.679-.169 6.964-.676.707-.232 1.474.116 1.767.8a1.03 1.03 0 0 1 .033.814c-.007.021-1.033 2.9-5.436 3.807-.636.126-1.128.634-1.233 1.274a20.95 20.95 0 0 1-.611 2.7.1.1 0 0 1-.1.073"/><path d="M66.799 38.897a.1.1 0 1 1-.012-.2 14.3 14.3 0 0 0 4.354-1.241.1.1 0 0 1 .061-.085.1.1 0 0 1 .078 0l.063.026a.1.1 0 0 1 .006.186 14.5 14.5 0 0 1-4.538 1.316h-.012"/><path d="M9.133 53.627l.952 9.741 8.3.1z" fill="#5479f7"/><path d="M56.592 40.407l-.568 1.221c-1.21 2.816-3.011 7.129-7.511 6.5-2.807-.392-6.8-4.035-9.414-6.722a11.01 11.01 0 0 0-6.892-3.284l-5.426-.5-.4-1.541-1.055 1.192-.761-.942-4.145-1.424-.854 2.366c-3.182-.136-6.358.401-9.318 1.577-5.931 2.482-4.486 11.206-2.685 14.559s5.013 14.713 14.284 14.45 14.529-9.669 14.529-9.669l11.152 1.022c11.06-.328 15.245-9.273 16.757-14.572.181-.635-7.692-4.236-7.692-4.236" fill="#465def"/><g fill="#fff"><path d="M23.926 39.665a.1.1 0 0 1-.028 0c-1.532-.443-3.001-1.082-4.37-1.9a.1.1 0 1 1 .1-.174c1.326.793 2.748 1.416 4.23 1.853l.327-.947c.012-.034.041-.06.077-.067s.072.006.096.033.031.065.019.1l-.358 1.038a.1.1 0 0 1-.1.068m2.254-.391a.1.1 0 0 1-.081-.162l.708-.946a.1.1 0 0 1 .141-.02c.044.034.054.097.021.141l-.708.946a.1.1 0 0 1-.081.041m2.872 12.762l-3.167-13.019-.055-1.375-.5.041-.695.057.37 1.435 2.106 14.093zm-7.719 5.303a.1.1 0 0 1-.09-.054l-4.093-7.725a2.2 2.2 0 0 1-.128-1.766c.012-.034.042-.059.077-.066s.072.006.096.034.03.066.018.1a2 2 0 0 0 .116 1.6l4.093 7.725a.1.1 0 0 1-.09.149"/><path d="M20.543 58.032a.1.1 0 0 1-.063-.181c.069-.055 6.976-5.522 11.689-7.274.052-.02.111.007.131.06a.1.1 0 0 1-.06.13c-4.683 1.741-11.564 7.188-11.633 7.243a.1.1 0 0 1-.063.022m-7.878 5.117a.1.1 0 0 1-.089-.052l-3.855-6.9c-.028-.049-.01-.111.039-.139s.111-.01.138.039l3.855 6.9a.1.1 0 0 1-.088.151m20.801-1.813a.1.1 0 0 1-.068-.026 12.56 12.56 0 0 1-4.142-8.576.1.1 0 1 1 .2-.012 12.36 12.36 0 0 0 4.074 8.437.1.1 0 0 1 .008.143.1.1 0 0 1-.076.034m28.709-13.423a.1.1 0 0 1-.061-.02 44.68 44.68 0 0 0-6.729-4.2c-.05-.025-.07-.086-.045-.136s.086-.07.136-.045a44.9 44.9 0 0 1 6.76 4.218.1.1 0 0 1-.061.182m1.407 36.176l-7.265-26.005H35.473l7.261 26.006z"/></g><path d="M63.579 84.189H42.733a.1.1 0 0 1-.1-.074l-7.261-26.006a.1.1 0 0 1 .1-.129h20.843a.1.1 0 0 1 .1.074l7.261 26.006a.1.1 0 0 1-.1.129m-20.768-.2h20.637l-7.2-25.8H35.606z"/><path d="M53.287 64.664H42.959l-.565-2.069h10.328z" fill="#fff"/><path d="M53.288 64.763H42.959a.1.1 0 0 1-.1-.075l-.565-2.069a.1.1 0 0 1 .1-.128h10.328a.1.1 0 0 1 .1.075l.565 2.069a.1.1 0 0 1-.1.128m-10.251-.2h10.118l-.509-1.867H42.527z"/><path d="M57.835 74.177h-14.64l-1.976-7.418h14.642z" fill="#fff"/><path d="M57.835 74.278h-14.64a.1.1 0 0 1-.1-.075l-1.976-7.418a.1.1 0 0 1 .1-.127h14.64a.1.1 0 0 1 .1.075l1.976 7.418a.1.1 0 0 1-.1.128m-14.562-.2h14.43l-1.922-7.215h-14.43z"/><path d="M32.204 50.673l2.555-.811c6.666-1.744 9.764 1.927 11.32 6.658.285.865.531 1.645.7 2.246a.84.84 0 0 1-1.166.993c-.775-.436-1.295-1.217-1.4-2.1 0 0 .543 2.553-.563 2.553-.983 0-1.555-1.578-1.555-1.578s.3 1.578-.563 1.578c-.958 0-1.581-1.714-1.581-1.714s.415 1.714-.439 1.84c-.445.066-.875-.2-1.415-1.147-.351-.618-1.008-1-1.719-1a2.51 2.51 0 0 1-2.372-1.7z" fill="#fff"/><path d="M39.385 60.447c-.477 0-.908-.38-1.379-1.207a1.88 1.88 0 0 0-1.631-.945 2.61 2.61 0 0 1-2.468-1.765c-.012-.034-.004-.072.019-.1s.06-.04.096-.033.065.032.077.067a2.41 2.41 0 0 0 2.277 1.628 2.08 2.08 0 0 1 1.807 1.047c.6 1.055 1.016 1.14 1.312 1.1a.42.42 0 0 0 .3-.19c.308-.457.058-1.515.055-1.526-.016-.054.014-.11.068-.126s.11.014.126.068c.006.016.61 1.647 1.486 1.647a.4.4 0 0 0 .326-.145c.194-.409.243-.872.138-1.313-.015-.055.018-.112.073-.127s.112.018.127.073c.005.015.559 1.511 1.46 1.511a.44.44 0 0 0 .362-.169c.456-.563.105-2.245.1-2.262-.012-.055.023-.11.079-.121s.11.023.121.079c.105.852.604 1.605 1.348 2.033a.74.74 0 0 0 1.025-.874l-.7-2.242c-1.941-5.9-5.6-8.054-11.2-6.591l-2.55.809c-.053.017-.11-.013-.127-.066s.013-.11.066-.127l2.555-.811c3.107-.813 5.684-.5 7.666.915a11.05 11.05 0 0 1 3.781 5.807 55.16 55.16 0 0 1 .7 2.25c.101.355-.014.737-.295.976s-.676.293-1.011.137c-.508-.253-.91-.678-1.133-1.2a2.25 2.25 0 0 1-.271 1.416.64.64 0 0 1-.519.244c-.661 0-1.138-.635-1.4-1.116a1.45 1.45 0 0 1-.232.9.6.6 0 0 1-.482.218c-.623 0-1.1-.639-1.385-1.152.042.344-.021.693-.182 1a.62.62 0 0 1-.438.277.94.94 0 0 1-.139.01"/><path d="M44.2 57.716a.1.1 0 0 1-.1-.079 10.99 10.99 0 0 0-.62-1.93c-.022-.052.002-.111.054-.133s.111.002.133.053a11.2 11.2 0 0 1 .631 1.966.1.1 0 0 1-.077.121h-.022m-2.137.966a.1.1 0 0 1-.1-.083l-.636-2.718c-.015-.054.016-.11.07-.126s.11.016.126.07l.641 2.737a.1.1 0 0 1-.081.118h-.018m-2.117-.081a.1.1 0 0 1-.1-.077l-.464-1.576-.24-.773c-.016-.054.014-.11.068-.126s.11.014.126.068l.239.769.467 1.588a.1.1 0 0 1-.074.123c-.008.001-.016.001-.024 0"/><path d="M65.285 33.255l-1.9-1.043c-9.518-5.236-11.649-14.9-12.558-25.749l.7-.11c6.425-.45 9.571-1.532 13.749-6.252 4.988 4.54 9.75 6.2 14.421 6.2l.046.01c-.862 10.931-3.032 20.688-12.632 25.943z" fill="#fff"/><path d="M65.284 33.357a.1.1 0 0 1-.049-.013l-1.9-1.043a21.03 21.03 0 0 1-9.552-10.821c-1.988-4.793-2.662-10.276-3.059-15.008a.1.1 0 0 1 .085-.109l.7-.11c6.156-.432 9.415-1.391 13.689-6.219a.1.1 0 0 1 .144-.008c4.562 4.153 9.256 6.171 14.352 6.171h.021l.046.01a.1.1 0 0 1 .08.107c-.353 4.475-1.018 10.239-3.047 15.131a21.12 21.12 0 0 1-9.638 10.893l-1.835 1a.1.1 0 0 1-.049.013M50.939 6.549c1 11.777 3.514 20.632 12.5 25.575l1.847 1.016 1.786-.977c9.116-4.99 11.627-13.908 12.572-25.762-5.1-.017-9.792-2.03-14.35-6.155-4.288 4.815-7.577 5.777-13.75 6.209z"/><path d="M61.305 28.179a.1.1 0 0 1-.062-.021c-2.771-2.214-4.827-5.196-5.911-8.573a46.2 46.2 0 0 1-2.038-11.1.1.1 0 0 1 .085-.109l.58-.091c5.064-.355 7.744-1.144 11.258-5.113a.1.1 0 0 1 .144-.008c3.751 3.415 7.612 5.075 11.8 5.075h.021l.038.008c.055.011.091.065.08.12s-.065.091-.12.08l-.028-.006c-4.211 0-8.088-1.658-11.852-5.059-3.528 3.956-6.238 4.747-11.319 5.1l-.478.075c.725 8.548 2.347 15.126 7.864 19.435a.1.1 0 0 1-.063.181m3.989 2.459a.1.1 0 0 1-.049-.19l1.51-.827c5.517-3.02 8.537-8.042 9.792-16.285.008-.055.06-.093.115-.085s.093.06.085.115c-1.265 8.311-4.317 13.379-9.9 16.432l-1.51.826a.1.1 0 0 1-.049.012m.075-2.056a.1.1 0 0 1-.1-.1V5.324a.1.1 0 0 1 .2 0v23.148a.1.1 0 0 1-.1.1"/><g fill="#e2eaff"><use xlink:href="#C"/><path d="M95.803 72.271c-.002-.874-.711-1.581-1.585-1.58s-1.582.71-1.581 1.584.709 1.582 1.583 1.582c.42 0 .823-.168 1.12-.465s.463-.701.463-1.121m4.622 0c-.002-.874-.711-1.581-1.585-1.58s-1.582.71-1.581 1.584.709 1.582 1.583 1.582c.42 0 .823-.168 1.12-.465s.463-.701.463-1.121"/></g><path d="M118.548 72.372h-16.469a.1.1 0 0 1 0-.2h16.368V54.466a.1.1 0 0 1 .2 0v17.807a.1.1 0 0 1-.1.1"/></g></svg>