<svg xmlns="http://www.w3.org/2000/svg" width="16.756" height="16.748" viewBox="0 0 16.756 16.748"><defs><style>.a{fill:#465def;}</style></defs><g transform="translate(-1.995 -2)"><path class="a" d="M17.256,4.2C16.059,2.837,13.488,2,10.373,2S4.687,2.837,3.49,4.2C1.5,6.513,1.5,14.251,3.49,16.545c1.2,1.365,3.768,2.2,6.883,2.2s5.686-.837,6.883-2.2c1.993-2.311,1.993-10.032,0-12.343ZM10.373,14.979a.837.837,0,1,1,.837-.837A.837.837,0,0,1,10.373,14.979Zm.837-4.086v.737a.837.837,0,1,1-1.675,0v-.779a1.583,1.583,0,0,1,1.114-1.532A.955.955,0,1,0,9.418,8.4a.837.837,0,1,1-1.675,0,2.638,2.638,0,0,1,5.142-.687,2.638,2.638,0,0,1-1.675,3.182Z" transform="translate(0)"/></g></svg>