<svg xmlns="http://www.w3.org/2000/svg" xmlns:xlink="http://www.w3.org/1999/xlink" viewBox="0 0 518.6 415" xmlns:v="https://vecta.io/nano"><style><![CDATA[.u{fill:#ddddf0}.v{fill:#f2f2fa}.w{fill:#ecb4bf}.x{fill:#ccccf0}.y{fill:#fff}.z{fill:#1f1440}.AA{enable-background:new}.AB{fill:#251f69}.AC{fill:#e694be}.AD{opacity:.5}.AE{fill:#5220dc}.AF{fill:#322a8d}.AG{fill:#1d1d29}.AH{fill:#fea26f}.AI{fill:#fe9459}.AJ{fill:#dde4fc}.AK{fill:#ed7d2b}.AL{fill:#522874}.AM{fill:#d96e31}.AN{fill:#feb187}.AO{fill:#150f30}.AP{fill:#eaeffc}.AQ{fill:#e98eb4}.AR{fill:#f7d9e3}]]></style><ellipse cx="176.7" cy="308.2" rx="26.9" ry="15.5" class="x AA AD"/><linearGradient id="A" gradientUnits="userSpaceOnUse" x1="429.35" y1="371" x2="306.85" y2="371"><stop offset="0" stop-color="#ccccf0"/><stop offset=".08" stop-color="#d0d0f1"/><stop offset=".64" stop-color="#e6e6f5"/><stop offset="1" stop-color="#fff"/></linearGradient><path d="M307.3,328h122.5v86H307.3V328z" fill="url(#A)"/><path d="M341.1 365.9l83.1 48a10.6 10.6 0 0 0 9.2 0l83.1-48c2.6-1.5 2.6-3.9 0-5.4l-83.1-48a10.6 10.6 0 0 0-9.2 0l-83.1 48c-2.6 1.5-2.6 3.9 0 5.4h0 0z" class="x"/><linearGradient id="B" gradientUnits="userSpaceOnUse" x1="519.14" y1="351.45" x2="339.89" y2="351.45"><stop offset="0" stop-color="#f7f7ff"/><stop offset="1" stop-color="#eeeef6"/></linearGradient><path d="M341.2 354.1l83.1 48c2.9 1.5 6.4 1.5 9.3 0l83.1-48c2.5-1.4 2.5-3.8 0-5.3l-83.1-48c-2.9-1.5-6.4-1.5-9.3 0l-83.1 48c-2.5 1.5-2.5 3.9 0 5.3h0z" fill="url(#B)"/><path d="M433 402.1l83.1-48c2.6-1.4 2.6-3.8 0-5.3l-83.1-48c-1.3-.7-2.8-1-4.3-1.1 1.7 0 3.4.3 4.9 1.1l83.1 48c2.5 1.5 2.5 3.9 0 5.3l-83.1 48c-1.5.9-3.2 1.2-4.9 1.1a9.16 9.16 0 0 0 4.3-1.1h0 0z" class="y"/><path d="M440.6 377.2l-43.7-6.8c-.2 0-.3-.1-.4-.3l-11.7-25.2c-.1-.2 0-.4.2-.6l32-18.5h.3l43.7 6.7.4.3 11.7 25.2c.1.2.1.5-.1.6h-.1l-32 18.5-.3.1h0 0zm20-43.8l-43.3-6.7-31.5 18.2 11.5 24.6 43.3 6.7L472 358l-11.4-24.6h0zm-31.9 35.7l-29.8-17.2-.2-.4c0-.2.1-.4.2-.4l29.8-17.2h.5l29.7 17.2c.2 0 .3.2.3.4s-.1.3-.3.4l-29.7 17.2h-.5zm.2-34.3l-28.8 16.7 28.8 16.6 28.9-16.6-28.9-16.7z" class="u"/><ellipse cx="443.8" cy="342.9" rx="2.1" ry="1.2" class="v"/><path d="M442.1 344.1a1.3 1.3 0 0 1-.8-1.2c0-.5.3-1 .8-1.3a4.04 4.04 0 0 1 3.4 0c.7.3 1 1 .8 1.7-.1.4-.4.7-.8.8-1.1.6-2.3.6-3.4 0zm.5-1.7c-.2 0-.4.3-.4.5s.1.3.4.5c.8.3 1.7.3 2.5 0 .2-.2.4-.4.4-.5-.1-.2-.2-.4-.4-.5-.4-.2-.8-.3-1.3-.3-.4 0-.8.1-1.2.3z" class="u"/><path d="M412.6 359.2c-.8.5-.8 1.2 0 1.7a2.99 2.99 0 0 0 2.9 0c.9-.5.9-1.2 0-1.7a2.99 2.99 0 0 0-2.9 0z" class="v"/><path d="M412.4 361.3c-.7-.2-1.1-.9-.9-1.6.1-.4.5-.8.9-.9a4.04 4.04 0 0 1 3.4 0c.7.4.9 1.2.6 1.9h0c-.1.2-.4.5-.6.6-1.1.6-2.3.6-3.4 0zm.4-1.7c-.2 0-.4.3-.4.5s.1.3.4.4c.8.4 1.7.4 2.5 0 .3-.1.4-.3.4-.4s-.2-.5-.4-.5l-1.2-.3c-.5 0-.9.1-1.3.3z" class="u"/><ellipse cx="458.7" cy="351.5" rx="2.1" ry="1.2" class="v"/><path d="M457 352.7c-.7-.3-.9-1.1-.6-1.7v-.1h0c.1-.2.4-.5.6-.6a4.04 4.04 0 0 1 3.4 0c.7.4.9 1.2.6 1.9h0c-.1.2-.4.5-.6.6-1.1.6-2.4.5-3.4-.1h0zm.4-1.7c-.2.1-.4.3-.4.5l.4.4a2.97 2.97 0 0 0 2.6 0l.4-.4c-.1-.2-.2-.4-.4-.5a2.97 2.97 0 0 0-2.6 0z" class="u"/><path d="M427.5 333.4c-.9.5-.9 1.3 0 1.7a2.99 2.99 0 0 0 2.9 0c.8-.4.8-1.2 0-1.7-.9-.4-2-.4-2.9 0z" class="v"/><path d="M427.2 335.5a1.3 1.3 0 0 1-.8-1.2c0-.5.3-1 .8-1.3a4.04 4.04 0 0 1 3.4 0c.6.4.9.8.9 1.3 0 .6-.4 1-.9 1.2-1.1.6-2.3.6-3.4 0zm.5-1.7c-.2 0-.4.3-.4.5s.1.3.4.5c.8.3 1.7.3 2.5 0 .3-.2.4-.4.4-.5s-.2-.5-.4-.5c-.4-.2-.8-.3-1.3-.3l-1.2.3z" class="u"/><ellipse cx="414.1" cy="342.9" rx="2.1" ry="1.2" class="v"/><path d="M412.4 344.1c-.7-.2-1.1-.9-.9-1.6a1.96 1.96 0 0 1 .9-.9 4.04 4.04 0 0 1 3.4 0c.4.3.7.8.8 1.3a1.3 1.3 0 0 1-.8 1.2c-1.1.6-2.3.6-3.4 0zm.4-1.7c-.2 0-.4.3-.4.5s.1.3.4.5c.8.3 1.7.3 2.5 0 .3-.2.4-.4.4-.5s-.2-.5-.4-.5l-1.2-.3c-.5 0-.9.1-1.3.3z" class="u"/><ellipse cx="399.2" cy="351.5" rx="2.1" ry="1.2" class="v"/><path d="M397.5 352.7c-.5-.2-.9-.7-.9-1.2.1-.5.4-1 .9-1.3a4.04 4.04 0 0 1 3.4 0c.7.4.9 1.2.6 1.9h0c-.1.2-.4.5-.6.6-1.1.6-2.3.6-3.4 0zm.4-1.7c-.2.1-.4.3-.4.5l.4.4c.8.4 1.7.4 2.5 0 .3-.1.4-.3.4-.4s-.2-.5-.4-.5l-1.2-.3c-.5 0-.9.1-1.3.3z" class="u"/><path d="M442.3 359.2c-.8.5-.8 1.2 0 1.7a3.19 3.19 0 0 0 3 0c.8-.5.8-1.2 0-1.7a3.19 3.19 0 0 0-3 0z" class="v"/><path d="M442.1 361.3c-.7-.3-.9-1.1-.6-1.7v-.1h0c.1-.2.4-.5.6-.6a4.04 4.04 0 0 1 3.4 0c.7.2 1.1.9.9 1.6-.1.4-.5.8-.9.9-1.1.6-2.4.5-3.4-.1h0zm.5-1.7c-.2 0-.4.3-.4.5s.1.3.4.4c.8.4 1.7.4 2.5 0 .2-.1.4-.3.4-.4-.1-.2-.2-.4-.4-.5-.4-.2-.8-.3-1.3-.3-.4 0-.8.1-1.2.3z" class="u"/><path d="M427.5 350.6c-.9.5-.9 1.2 0 1.7a2.99 2.99 0 0 0 2.9 0c.8-.5.8-1.2 0-1.7a2.99 2.99 0 0 0-2.9 0z" class="v"/><use xlink:href="#y" class="u"/><path d="M427.5 367.8c-.9.5-.9 1.2 0 1.7a2.99 2.99 0 0 0 2.9 0c.8-.5.8-1.2 0-1.7a2.99 2.99 0 0 0-2.9 0z" class="v"/><use xlink:href="#y" y="17.2" class="u"/><path d="M458.5 334.4a5.1 5.1 0 0 0 4.8 0c1.4-.8 1.4-2 0-2.8a5.1 5.1 0 0 0-4.8 0c-1.3.8-1.3 2 0 2.8z" class="v"/><path d="M458.3 334.8c-1-.3-1.5-1.3-1.3-2.2 0-.1 0-.1.1-.2a1.8 1.8 0 0 1 1.2-1.2 6.95 6.95 0 0 1 5.3 0c1 .5 1.4 1.7.9 2.7a1.96 1.96 0 0 1-.9.9c-.8.4-1.8.6-2.7.6s-1.8-.2-2.6-.6h0 0zm.5-2.8c-.5.3-.8.6-.8 1a1.59 1.59 0 0 0 .8 1 5.36 5.36 0 0 0 4.3 0 1.59 1.59 0 0 0 .8-1c0-.4-.3-.7-.8-1-.7-.3-1.4-.4-2.2-.5-.7 0-1.4.2-2.1.5h0 0z" class="u"/><path d="M470.6 359.4a5.1 5.1 0 0 0 4.8 0c1.4-.8 1.4-2 0-2.8a5.75 5.75 0 0 0-4.8 0c-1.3.8-1.3 2 0 2.8z" class="v"/><path d="M470.4 359.8c-1-.3-1.5-1.3-1.3-2.2 0-.1 0-.1.1-.2a1.8 1.8 0 0 1 1.2-1.2 6.95 6.95 0 0 1 5.3 0c1 .5 1.4 1.7.9 2.7a1.96 1.96 0 0 1-.9.9c-.8.4-1.8.6-2.7.6s-1.8-.2-2.6-.6h0 0zm.4-2.8c-.4.3-.7.6-.7 1s.3.7.7 1a4.87 4.87 0 0 0 4.4 0c.5-.3.8-.6.8-1a1.59 1.59 0 0 0-.8-1 4.87 4.87 0 0 0-4.4 0z" class="u"/><path d="M415.2 327.4a5.1 5.1 0 0 0 4.8 0c1.3-.8 1.3-2 0-2.8a5.75 5.75 0 0 0-4.8 0c-1.3.8-1.3 2 0 2.8z" class="v"/><path d="M415 327.8c-1-.3-1.5-1.3-1.3-2.2 0-.1 0-.1.1-.2a1.8 1.8 0 0 1 1.2-1.2c1.6-.8 3.6-.8 5.2 0a2.06 2.06 0 0 1 1.2 2.5c-.2.5-.7.9-1.2 1.1-1.6.8-3.6.8-5.2 0h0zm.4-2.8c-.4.3-.7.6-.7 1s.2.7.7 1a4.87 4.87 0 0 0 4.4 0c.5-.3.7-.6.7-1-.1-.4-.4-.7-.7-1a4.87 4.87 0 0 0-4.4 0z" class="u"/><path d="M437.9 378.3a5.1 5.1 0 0 0 4.8 0c1.3-.8 1.3-2 0-2.8a5.75 5.75 0 0 0-4.8 0c-1.3.8-1.3 2 0 2.8z" class="v"/><path d="M437.6 378.7c-1-.5-1.4-1.7-.9-2.7a1.96 1.96 0 0 1 .9-.9 6.95 6.95 0 0 1 5.3 0c1 .4 1.5 1.4 1.2 2.4a1.8 1.8 0 0 1-1.2 1.2c-.8.4-1.7.6-2.6.6s-1.9-.2-2.7-.6h0 0zm.5-2.8a1.59 1.59 0 0 0-.8 1c0 .4.3.7.8 1a4.87 4.87 0 0 0 4.4 0c.4-.3.7-.6.7-1-.1-.4-.4-.7-.7-1a4.87 4.87 0 0 0-4.4 0z" class="u"/><path d="M394.5 371.3c1.5.8 3.4.8 4.9 0 1.3-.7 1.3-2 0-2.8-1.6-.7-3.3-.7-4.9 0-1.3.8-1.3 2.1 0 2.8z" class="v"/><path d="M394.3 371.7c-1-.3-1.5-1.3-1.3-2.2 0-.1 0-.1.1-.2a1.8 1.8 0 0 1 1.2-1.2 6.95 6.95 0 0 1 5.3 0c1 .5 1.4 1.7.9 2.7a1.96 1.96 0 0 1-.9.9c-.8.5-1.7.7-2.6.7-1 .1-1.9-.2-2.7-.7h0 0zm.5-2.7c-.4.2-.7.5-.8.9 0 .4.3.7.8 1 1.3.7 3 .7 4.3 0 .5-.3.8-.6.8-1-.1-.4-.4-.7-.8-.9-.6-.4-1.4-.6-2.1-.6-.8 0-1.5.2-2.2.6h0 0z" class="u"/><path d="M382.9 346.1a5.1 5.1 0 0 0 4.8 0c1.3-.8 1.3-2.1 0-2.8a5.1 5.1 0 0 0-4.8 0c-1.3.7-1.3 2 0 2.8z" class="v"/><path d="M382.7 346.5c-1-.3-1.5-1.3-1.3-2.2 0-.1 0-.1.1-.2a1.8 1.8 0 0 1 1.2-1.2c1.7-.9 3.6-.9 5.3 0 .7.4 1.1 1 1.2 1.8-.1.8-.5 1.4-1.2 1.8-.8.4-1.8.6-2.7.6s-1.8-.2-2.6-.6h0 0zm.4-2.8c-.4.3-.7.6-.7 1s.3.8.7.9a4.87 4.87 0 0 0 4.4 0c.4-.1.7-.5.8-.9 0-.4-.3-.7-.8-1a4.87 4.87 0 0 0-4.4 0z" class="u"/><g transform="translate(-57.8 -148.5)"><linearGradient id="C" gradientUnits="userSpaceOnUse" x1="26.118" y1="785.228" x2="25.718" y2="783.768" gradientTransform="matrix(179.3 0 0 -62.42 -4162.4795 49476.8398)"><stop offset="0" stop-color="#fff"/><stop offset="1" stop-color="#d3d3e8"/></linearGradient><path d="M399 502.6l83.1 48c2.9 1.5 6.4 1.5 9.3 0l83.1-48c1.1-.4 1.9-1.4 1.9-2.6v10.6c-.1 1.2-.8 2.2-1.9 2.7l-83.1 48c-2.9 1.5-6.4 1.5-9.3 0l-83.1-48c-1.1-.5-1.8-1.5-1.9-2.7V500c0 1.2.8 2.2 1.9 2.6z" fill="url(#C)"/><linearGradient id="D" gradientUnits="userSpaceOnUse" x1="574.008" y1="532.594" x2="394.749" y2="528.979"><stop offset="0" stop-color="#fe9845"/><stop offset=".18" stop-color="#fa9647"/><stop offset=".35" stop-color="#ef914c"/><stop offset=".52" stop-color="#dc8756"/><stop offset=".68" stop-color="#c17a63"/><stop offset=".85" stop-color="#9f6973"/><stop offset="1" stop-color="#775587"/></linearGradient><path d="M575.3 508.3l-83.1 48a12.29 12.29 0 0 1-10.9 0l-83.1-48-1.1-.8v-1.6c.4.6 1 1.1 1.6 1.5l83.2 48c1.5.8 3.1 1.1 4.8 1.1 1.7.1 3.4-.3 4.9-1.1l83.1-48c.7-.4 1.2-.9 1.7-1.5v1.6l-1.1.8h0z" fill="url(#D)"/><linearGradient id="E" gradientUnits="userSpaceOnUse" x1="179.85" y1="420.7" x2="57.35" y2="420.7"><stop offset="0" stop-color="#ccccf0"/><stop offset=".08" stop-color="#d0d0f1"/><stop offset=".64" stop-color="#e6e6f5"/><stop offset="1" stop-color="#fff"/></linearGradient><path d="M57.8 377.7h122.5v86H57.8v-86z" fill="url(#E)"/></g><path d="M33.9 268l83.1 48a10.6 10.6 0 0 0 9.2 0l83.1-48c2.6-1.5 2.6-3.9 0-5.4l-83.1-47.9c-2.9-1.5-6.3-1.5-9.2 0l-83.1 47.9c-2.6 1.5-2.6 3.9 0 5.4z" class="x"/><g transform="translate(-57.8 -148.5)"><linearGradient id="F" gradientUnits="userSpaceOnUse" x1="269.626" y1="401.15" x2="90.326" y2="401.15"><stop offset="0" stop-color="#f7f7ff"/><stop offset="1" stop-color="#eeeef6"/></linearGradient><path d="M91.7 403.8l83.1 48c2.9 1.5 6.3 1.5 9.2 0l83.1-48c2.6-1.4 2.6-3.8 0-5.3l-83.1-48c-2.9-1.5-6.3-1.5-9.2 0l-83.1 48c-2.6 1.5-2.6 3.9 0 5.3h0 0z" fill="url(#F)"/><linearGradient id="G" gradientUnits="userSpaceOnUse" x1="26.12" y1="785.227" x2="25.72" y2="783.767" gradientTransform="matrix(179.3 0 0 -62.42 -4469.8799 49377.4102)"><stop offset="0" stop-color="#fff"/><stop offset="1" stop-color="#d3d3e8"/></linearGradient><path d="M91.7 403.8l83.1 48c2.9 1.5 6.3 1.5 9.2 0l83.1-48c1.1-.4 1.9-1.4 1.9-2.6v10.6c-.1 1.2-.8 2.2-1.9 2.7l-83.1 48c-2.9 1.5-6.3 1.5-9.2 0l-83.1-48c-1.1-.4-1.9-1.5-2-2.7v-10.6c.1 1.2.9 2.2 2 2.6h0 0z" fill="url(#G)"/><linearGradient id="H" gradientUnits="userSpaceOnUse" x1="266.321" y1="433.788" x2="87.062" y2="430.172"><stop offset="0" stop-color="#fe9845"/><stop offset=".18" stop-color="#fa9647"/><stop offset=".35" stop-color="#ef914c"/><stop offset=".52" stop-color="#dc8756"/><stop offset=".68" stop-color="#c17a63"/><stop offset=".85" stop-color="#9f6973"/><stop offset="1" stop-color="#775587"/></linearGradient><path d="M267.9 409.5l-83.1 48c-3.4 1.7-7.4 1.7-10.8 0l-83.1-48-1.2-.8v-1.6c.5.6 1 1.1 1.7 1.5l83.1 47.9a10.6 10.6 0 0 0 9.8 0l83.1-47.9c.6-.4 1.2-.9 1.6-1.5v1.6l-1.1.8z" fill="url(#H)"/></g><g class="u"><path d="M112.5 279.6l-36.7-21.2c-.2-.1-.3-.2-.3-.4v-10.7c0-.2.1-.3.3-.4l36.7-21.2h18.9l36.7 21.2.2.4V258c0 .2-.1.3-.2.4l-36.7 21.2c0 0-18.9 0-18.9 0zm54.9-21.9v-10.1l-36.4-21h-18.2l-36.3 21v10.1l36.3 21H131l36.4-21zm-48.9 9.5l-4.4-.7c-.2 0-.4-.3-.4-.5l.2-1.6-4-1.3-2.8 1.1h-.4l-3.2-1.9c-.2-.1-.2-.2-.2-.4 0-.1 0-.3.1-.4l1.4-1.2c-.8-.6-1.6-1.3-2.2-2.1h-3.1c-.2 0-.4-.1-.4-.3l-1.2-2.5c-.1-.1-.1-.2 0-.4s.1-.2.3-.2l2.4-.7c-.2-.8-.2-1.7-.1-2.5l-2.5-.7-.3-.2c-.1-.2-.1-.3 0-.4l1.2-2.6.4-.2h2.8c.6-.9 1.4-1.6 2.2-2.3l-1.4-1.2c-.1-.1-.1-.2-.1-.4s.1-.3.2-.3l3.2-1.9h.4l2.5.9 4.1-1.4-.2-1.5c0-.2.1-.5.4-.5l4.4-.7.4.2 1.3 1.5h4.8l1.4-1.6.4-.2 4.4.7c.3 0 .4.2.4.5l-.2 1.6 3.8 1.3 3-1.1h.4l3.2 1.9c.1 0 .2.2.2.3s-.1.3-.1.4l-1.7 1.5 1.9 1.9h3.7l.5.2 1.1 2.6c.1.1.1.2 0 .4s-.1.2-.3.2l-3.1.9c.1.7.1 1.3.1 2l3.2 1c.2 0 .3.1.3.2s.1.3 0 .4l-1.1 2.5c-.1.2-.3.4-.5.3h-3.7l-1.7 1.8 1.8 1.6c.1.2.1.3.2.4s-.1.3-.3.4l-3.2 1.9h-.4l-3.1-1.2c-1.1.6-2.3 1-3.5 1.3l.2 1.9c0 .2-.2.5-.4.5l-4.4.7-.4-.2-1.5-1.8c-1.5.2-3 .3-4.5.1l-1.5 1.8-.4.2h0 0zm1.8-2.9c1.6.1 3.2.1 4.8-.1.1 0 .2 0 .3.2l1.6 1.7 3.6-.6v-1.8c-.1-.2.1-.4.3-.5h0l3.9-1.4h.4l3 1.1 2.5-1.4-1.8-1.5c-.1-.1-.1-.2-.1-.4 0-.1 0-.2.1-.3.8-.7 1.6-1.4 2.2-2.3.1-.1.2-.2.4-.2l3.6.2.9-1.8-3.2-.9c-.2 0-.3-.2-.3-.5.1-.8.1-1.7-.1-2.5-.1-.3.1-.5.4-.6h0l3-.8-.8-1.8h-4.1c-.7-.8-1.5-1.6-2.3-2.3-.2-.1-.2-.2-.2-.4s.1-.3.2-.3l1.6-1.4-2.5-1.5-2.9 1.2h-.4c-1.4-.6-2.8-1.1-4.2-1.4-.2-.1-.4-.3-.3-.5v-1.7l-3.7-.5-1.4 1.6-.4.2h-5l-.4-.2-1.3-1.5-3.7.5v1.5c.1.2.1.3 0 .4h-.3c-1.6.4-3.1.9-4.5 1.6h-.4l-2.4-1-2.5 1.5 1.3 1.1.2.4-.2.3c-1 .7-1.8 1.6-2.5 2.6l-.4.2h-2.7l-.8 1.8 2.3.7c.3 0 .4.2.4.5-.2 1-.2 2 .1 2.9.1.2-.1.4-.3.5h0l-2.4.7.9 1.8h3.4c.7 1 1.6 1.9 2.6 2.5.2.1.2.2.2.4s-.1.3-.1.4l-1.4 1.1 2.5 1.4 2.7-1h.4c1.4.6 2.9 1.1 4.4 1.3.2.1.4.3.3.5v1.6l3.7.6 1.5-1.7.3-.2h0 0zm-7.3-6.2c-2.5-1.4-3.9-3.4-3.9-5.4s1.4-4 3.9-5.5c5.6-2.8 12.3-2.8 17.9 0 2.4 1.5 3.8 3.4 3.8 5.5s-1.4 4-3.8 5.4c-5.6 2.8-12.3 2.8-17.9 0zm.4-10.1c-2.1 1.3-3.3 2.9-3.3 4.7s1.2 3.3 3.3 4.6c5.3 2.7 11.7 2.7 17 0 2.2-1.3 3.4-2.9 3.4-4.6s-1.2-3.4-3.4-4.7a19.5 19.5 0 0 0-17 0h0 0z"/><path d="M143 253.1l35.3-.7h.2l8.4-4.9c.2-.1.3-.3.2-.5v-.1c-.1-.2-.4-.3-.6-.2h0l-8.4 4.8-35.1.6a.47.47 0 1 0 0 1h0 0zM121.6 241c.2 0 .5-.2.5-.4l1.4-20.2 8.3-4.7c.2-.1.2-.4.1-.7s-.4-.3-.5-.1h-.1l-8.4 4.8c-.2.1-.3.2-.3.4l-1.4 20.4c-.1.2.1.5.4.5zm20.7.7h.2l17.1-9.9c.2-.1.3-.3.2-.5v-.1c-.2-.2-.4-.3-.7-.2l-17 9.9c-.2.1-.3.4-.2.5h0c0 .2.2.3.4.3zm-37.2 1.6c.2 0 .3-.1.4-.3s0-.4-.2-.6l-20.2-11.7c-.3 0-.5 0-.6.2s-.1.4 0 .6h.1l20.3 11.7.2.1zm-47.3 15.3h.2l8.3-4.8 34.6-.5c.3 0 .5-.2.5-.4v-.1c0-.2-.2-.4-.4-.4h-.1l-34.7.4H66l-8.5 4.9c-.2.1-.3.4-.1.5h0c-.1.2.1.4.3.4 0 0 .1 0 .1 0zm55.1 31.9h.3l8.4-4.9c.1 0 .2-.2.2-.3l1.9-20.4c0-.2-.2-.5-.4-.5s-.5.2-.5.4l-1.9 20.1-8.2 4.7c-.2.2-.3.4-.2.6s.2.3.4.3h0 0zm-27.5-16h.2l17-9.8c.2-.1.2-.4.1-.7h0c-.1-.2-.4-.3-.5-.1h-.1l-16.9 9.7c-.2.2-.3.4-.2.7h0c.1.2.2.2.4.2h0 0z"/></g><path d="M157 232.7a5.1 5.1 0 0 0 4.8 0c.7-.2 1.1-1 1-1.7a2.41 2.41 0 0 0-1-1 5.1 5.1 0 0 0-4.8 0c-1.4.7-1.4 2 0 2.7z" class="v"/><path d="M156.7 233.1c-.9-.3-1.4-1.2-1.1-2.1 0-.1.1-.2.1-.3.2-.5.5-.9 1-1.1a6.95 6.95 0 0 1 5.3 0c.6.4 1.1 1 1.2 1.7 0 .8-.5 1.5-1.2 1.8-.8.4-1.7.6-2.6.6s-1.9-.2-2.7-.6h0zm.5-2.8a1.59 1.59 0 0 0-.8 1c0 .5.3.9.8 1.1 1.4.6 3 .6 4.4 0 .4-.2.7-.6.7-1.1-.1-.4-.4-.7-.7-1-1.4-.6-3-.6-4.4 0z" class="u"/><path d="M83 275.4a5.1 5.1 0 0 0 4.8 0c.7-.2 1.1-1 1-1.7a2.41 2.41 0 0 0-1-1 5.1 5.1 0 0 0-4.8 0c-.7.2-1.1 1-1 1.7.1.5.5.9 1 1z" class="v"/><path d="M82.8 275.8c-.7-.3-1.2-.9-1.2-1.7s.5-1.5 1.2-1.8c1.6-.8 3.6-.8 5.2 0 1 .4 1.4 1.5 1 2.5-.2.5-.6.8-1 1-1.6.8-3.6.8-5.2 0zm.4-2.8c-.4.2-.7.6-.8 1.1a1.59 1.59 0 0 0 .8 1c1.4.6 3 .6 4.4 0a1.59 1.59 0 0 0 .8-1c-.1-.4-.4-.8-.8-1.1a4.87 4.87 0 0 0-4.4 0z" class="u"/><path d="M129.1 216.7a5.1 5.1 0 0 0 4.8 0c1.4-.8 1.4-2.1 0-2.8a5.1 5.1 0 0 0-4.8 0c-1.3.7-1.3 2 0 2.8z" class="v"/><use xlink:href="#z" class="u"/><path d="M82.5 232.5a5.1 5.1 0 0 0 4.8 0c1.3-.8 1.3-2 0-2.8a5.75 5.75 0 0 0-4.8 0c-1.4.8-1.4 2 0 2.8z" class="v"/><path d="M82.2 232.9c-.7-.3-1.2-1-1.2-1.8.1-.7.5-1.4 1.2-1.7 1.7-.9 3.6-.9 5.3 0 .7.3 1.2.9 1.2 1.7s-.5 1.5-1.2 1.8c-.8.4-1.7.6-2.6.6s-1.9-.2-2.7-.6zm.5-2.8a1.59 1.59 0 0 0-.8 1c0 .4.3.7.8 1a4.87 4.87 0 0 0 4.4 0c.5-.3.7-.6.7-1-.1-.4-.4-.7-.7-1-1.4-.6-3-.6-4.4 0zm13.2 18.5l.4-.2c.1-.3 0-.5-.2-.7L75.9 236c-.3-.1-.5 0-.7.2s-.1.5.1.7h.1l20.2 11.6.3.1h0z" class="u"/><path d="M73.2 237.8a5.1 5.1 0 0 0 4.8 0c1.4-.7 1.4-2 0-2.7a5.1 5.1 0 0 0-4.8 0c-.7.2-1.1 1-1 1.7.1.5.5.9 1 1z" class="v"/><path d="M73 238.2c-.7-.3-1.2-.9-1.2-1.7s.5-1.5 1.2-1.8a6.95 6.95 0 0 1 5.3 0c.9.5 1.4 1.5 1 2.5a1.65 1.65 0 0 1-1 1c-.8.4-1.8.6-2.7.6s-1.8-.2-2.6-.6zm.4-2.8c-.4.2-.7.6-.7 1.1 0 .4.3.8.7 1 1.4.6 3 .6 4.4 0a1.59 1.59 0 0 0 .8-1c-.1-.4-.4-.8-.8-1.1-1.4-.6-3-.6-4.4 0zm40.9 2.5l.4-.2c.1-.2.1-.4 0-.6h-.1l-20.3-11.7c-.2-.1-.5-.1-.6.1v.1c-.1.3-.1.5.2.6l20.2 11.7h.2 0z" class="u"/><path d="M91.7 227.2a5.1 5.1 0 0 0 4.8 0c1.3-.8 1.3-2 0-2.8a5.1 5.1 0 0 0-4.8 0c-1.3.8-1.3 2 0 2.8z" class="v"/><path d="M91.5 227.6c-1-.5-1.4-1.7-.9-2.7a1.96 1.96 0 0 1 .9-.9c1.6-.8 3.6-.8 5.2 0 1 .5 1.4 1.7.9 2.7a1.96 1.96 0 0 1-.9.9c-1.6.8-3.6.8-5.2 0zm.4-2.8c-.5.3-.8.6-.8 1a1.59 1.59 0 0 0 .8 1 4.87 4.87 0 0 0 4.4 0 1.59 1.59 0 0 0 .8-1c0-.4-.3-.7-.8-1a4.87 4.87 0 0 0-4.4 0zm67.8 50l.5-.2c.1-.2 0-.4-.2-.6l-20.2-11.7c-.3-.1-.6-.1-.7.1-.1.3 0 .5.2.7l20.2 11.7h.2z" class="u"/><path d="M162.2 273c-1.5-.8-3.4-.8-4.9 0-.7.2-1.1 1-1 1.7.1.5.5.9 1 1 1.5.8 3.4.8 4.9 0 .7-.2 1.1-1 1-1.7a2.41 2.41 0 0 0-1-1z" class="v"/><path d="M157.1 276.1c-.7-.3-1.2-.9-1.2-1.7s.5-1.5 1.2-1.8a6.95 6.95 0 0 1 5.3 0c1 .4 1.4 1.5 1 2.5-.2.5-.6.8-1 1-.8.5-1.7.8-2.7.7-.9 0-1.8-.2-2.6-.7zm.5-2.8c-.4.2-.7.6-.8 1.1a1.59 1.59 0 0 0 .8 1 5.36 5.36 0 0 0 4.3 0 1.59 1.59 0 0 0 .8-1c-.1-.4-.4-.8-.8-1.1-.7-.3-1.4-.5-2.2-.5-.7 0-1.4.2-2.1.5zM169 269c.2 0 .3-.1.4-.3s0-.4-.2-.6L149 256.4c-.3 0-.5 0-.6.2s-.1.4 0 .6h.1l20.3 11.7c0 .1.1.1.2.1h0 0z" class="u"/><path d="M171.4 267.6a5.75 5.75 0 0 0-4.8 0c-1.3.8-1.3 2 0 2.8a5.1 5.1 0 0 0 4.8 0c1.3-.8 1.3-2 0-2.8z" class="v"/><path d="M166.4 270.8c-1-.2-1.6-1.2-1.3-2.2.2-.7.7-1.2 1.3-1.3 1.6-.9 3.6-.9 5.2 0 .7.3 1.2.9 1.2 1.7s-.5 1.5-1.2 1.8c-1.6.8-3.6.8-5.2 0zm.4-2.8a1.59 1.59 0 0 0-.8 1c0 .5.3.9.8 1a4.87 4.87 0 0 0 4.4 0c.5-.1.8-.5.8-1a1.59 1.59 0 0 0-.8-1c-1.4-.6-3-.6-4.4 0zm-16.3 12.2c.2 0 .3-.1.4-.3s0-.4-.1-.6h-.1l-20.2-11.7c-.3-.1-.6 0-.7.3 0 .2 0 .4.2.5h.1l20.2 11.7.2.1h0z" class="u"/><path d="M152.9 278.3a5.1 5.1 0 0 0-4.8 0c-1.3.8-1.3 2 0 2.8a5.1 5.1 0 0 0 4.8 0c1.3-.8 1.3-2 0-2.8z" class="v"/><path d="M147.9 281.5c-1-.3-1.5-1.3-1.3-2.2 0-.1 0-.1.1-.2a1.8 1.8 0 0 1 1.2-1.2c1.6-.8 3.6-.8 5.2 0 1 .5 1.4 1.7.9 2.7a1.96 1.96 0 0 1-.9.9c-1.6.8-3.6.8-5.2 0h0zm.4-2.8c-.5.3-.8.6-.8 1a1.59 1.59 0 0 0 .8 1 4.87 4.87 0 0 0 4.4 0 1.59 1.59 0 0 0 .8-1c0-.4-.3-.7-.8-1a4.87 4.87 0 0 0-4.4 0z" class="u"/><path d="M55.4 259.5a5.1 5.1 0 0 0 4.8 0c1.3-.7 1.3-2 0-2.8a5.75 5.75 0 0 0-4.8 0c-1.3.8-1.3 2.1 0 2.8z" class="v"/><path d="M55.2 259.9c-.8-.3-1.2-1-1.2-1.8s.5-1.4 1.2-1.7c1.6-.9 3.6-.9 5.2 0 .7.3 1.2.9 1.2 1.7s-.5 1.5-1.2 1.8c-1.6.8-3.6.8-5.2 0zm.4-2.8a1.59 1.59 0 0 0-.8 1c0 .5.3.9.8 1a4.87 4.87 0 0 0 4.4 0c.5-.1.8-.5.8-1a1.59 1.59 0 0 0-.8-1 4.87 4.87 0 0 0-4.4 0z" class="u"/><path d="M110.6 291.4a5.1 5.1 0 0 0 4.8 0c1.3-.8 1.3-2 0-2.8a5.1 5.1 0 0 0-4.8 0c-1.4.8-1.4 2 0 2.8z" class="v"/><path d="M110.4 291.7c-.7-.3-1.2-.9-1.3-1.7.1-.8.6-1.4 1.3-1.8 1.6-.8 3.6-.8 5.2 0 .7.3 1.1 1 1.2 1.8 0 .8-.5 1.5-1.2 1.7a4.88 4.88 0 0 1-5.2 0zm.4-2.7c-.5.1-.8.5-.8 1a1.59 1.59 0 0 0 .8 1 4.87 4.87 0 0 0 4.4 0c.4-.2.6-.6.7-1 0-.4-.3-.8-.7-1a4.33 4.33 0 0 0-4.4 0z" class="u"/><path d="M186 247.6a5.1 5.1 0 0 0 4.8 0c1.4-.8 1.4-2.1 0-2.8a5.1 5.1 0 0 0-4.8 0c-1.3.7-1.3 2 0 2.8z" class="v"/><g class="u"><use xlink:href="#z" x="56.9" y="30.9"/><path d="M307.3 312.9l-17.4-10.1c-.5-.2-.7-.8-.5-1.3l.5-.5 17.4-10.1c.7-.3 1.6-.3 2.3 0L327 301c.5.2.7.8.5 1.3-.1.2-.3.4-.5.5l-17.4 10.1c-.4.2-.8.3-1.2.3-.4.1-.8 0-1.1-.3zm.4-21.2l-17.4 10.1h-.1c0 .1 0 .1.1.1l17.4 10.1a1.71 1.71 0 0 0 1.4 0l17.4-10.1h0l-17.4-10.1h-1.4v-.1zm-75.6-23.4l-17.4-10c-.4-.1-.7-.5-.7-.9 0-.1 0-.1.1-.2 0-.1.1-.2.1-.3.1-.2.3-.4.5-.5l17.4-10c.7-.3 1.6-.3 2.3 0l17.4 10c.5.3.7.9.5 1.4-.1.2-.3.4-.5.5l-17.4 10c-.4.2-.8.3-1.2.3-.4.1-.8 0-1.1-.3zm.4-21.1l-17.3 10h-.2l.2.2 17.3 10a1.71 1.71 0 0 0 1.4 0l17.4-10 .2-.2h-.2l-17.4-10-.7-.2-.7.2zm126.3 63.5l-17.4-10.1c-.5-.2-.7-.8-.5-1.3l.5-.5 17.4-10.1c.7-.3 1.6-.3 2.3 0l17.4 10.1c.5.2.7.8.5 1.3-.1.2-.3.4-.5.5l-17.4 10.1c-.4.2-.7.4-1.1.3-.4 0-.8-.1-1.2-.3h0 0zm.5-21.2l-17.4 10.1h0l17.4 10.3a1.71 1.71 0 0 0 1.4 0l17.3-10.1h0l-17.3-10.1h-1.4v-.2h0z" class="AA AD"/></g><path d="M303.6 231l72.7 42c7.7 4.5 13.9.9 13.9-8V70.8c0-8.9-6.2-19.7-13.9-24.1l-72.7-42c-7.7-4.4-13.9-.8-13.9 8V207c0 8.8 6.2 19.6 13.9 24h0 0z" fill="#f3e3ff"/><path d="M303.6 10.1l14 8.1v2.1c.2 3.2 1.9 6.2 4.6 8l35.5 20.5c2.6 1.5 4.6.3 4.6-2.7V44l14 8.1c5.2 2.9 9.3 10.1 9.3 16v194.2c0 5.9-4.1 8.3-9.3 5.4l-72.7-42c-5.1-3-9.3-10.2-9.3-16.1V15.4c0-5.9 4.2-8.3 9.3-5.3h0 0z" fill="#0f2ad7"/><linearGradient id="I" gradientUnits="userSpaceOnUse" x1="339.95" y1="241.722" x2="339.95" y2="139.102"><stop offset="0" stop-color="#fff"/><stop offset="1" stop-color="#322a8d"/></linearGradient><path d="M345.2 223.1l-1.5-.9-.8-2 .8-1.2 1.5.9.8 2.1-.8 1.1h0zm-2.9 4.6l-.8-2.1-1.6-.9-.8 1.1.8 2.2 1.6.9.8-1.2zm3.1-52.5l-.5-1.2-.9-.6-.5.7.5 1.2.9.6.5-.7zm.9 67.5l-.9-2.3-1.9-1.1-.9 1.3.9 2.4 1.9 1 .9-1.3h0zm-.1-5.2l-.9-2.2-1.7-1.1-.9 1.3.9 2.3 1.7 1 .9-1.3zm-.2-20.7l-.8-2-1.5-.8-.7 1 .7 2 1.5.8.8-1zm-.5-36.4l-.5-1.3-1.1-.6-.5.7.5 1.3 1.1.6.5-.7zm.1 5.2l-.6-1.4-1.1-.7-.5.8.5 1.4 1.1.7.6-.8zm.8 62.3l-1-2.4-1.9-1.1-.9 1.3.9 2.5 1.9 1.1 1-1.4h0zm-.5-36.3l-.7-1.9-1.5-.8-.7 1 .7 1.9 1.5.8.7-1zm-.3-20.8l-.6-1.5-1.1-.7-.6.8.6 1.5 1.1.7.6-.8zm.1 5.2l-.6-1.6-1.3-.7-.6.9.6 1.5 1.3.8.6-.9zm.1 10.4l-.7-1.8-1.3-.8-.7 1 .7 1.8 1.3.7.7-.9zm0-5.2l-.7-1.7-1.3-.7-.6.9.6 1.7 1.3.7.7-.9zm.4 31.2l-.9-2.2-1.7-1-.8 1.2.8 2.2 1.7 1 .9-1.2zm-4.1-25.4l-.7-1.8-1.4-.8-.7 1 .7 1.7 1.4.8.7-.9zm-.1-5.2l-.6-1.7-1.3-.8-.7 1 .7 1.6 1.3.8.6-.9h0zm-.1-5.2l-.6-1.6-1.2-.7-.6.8.6 1.6 1.2.7.6-.8zm.4 25.9l-.8-2-1.6-.9-.8 1.1.8 2 1.6 1 .8-1.2h0zm-.2-10.4l-.7-1.8-1.4-.8-.7 1 .7 1.8 1.4.9.7-1.1h0zm-.2-20.7l-.6-1.5-1.2-.7-.6.8.6 1.5 1.2.7.6-.8zm.3 25.9l-.7-1.9-1.5-.9-.8 1.1.8 1.9 1.5.9.7-1.1zm-.7-51.9l-.4-1.1-.8-.5-.4.6.4 1.1.8.5.4-.6zm0-5.2l-.4-1-.8-.4-.4.5.4 1 .8.4.4-.5zm.3 26l-.6-1.4-1-.7-.6.8.6 1.4 1 .6.6-.7h0zm-.8-36l.3-.4-.3-.8-.6-.4-.3.5.3.8.6.3h0zm.4 4.8l-.4-.9-.6-.4-.4.5.4.9.6.4.4-.5zm.3 26l-.5-1.4-1-.5-.5.7.5 1.3 1 .6.5-.7h0zm-.1-10.4l-.5-1.2-.8-.5-.5.7.5 1.1.8.5.5-.6zm.1 5.2l-.5-1.3-1-.5-.5.7.5 1.2 1 .6.5-.7zm4.4 51.4l-.8-2.1-1.7-1-.8 1.2.8 2.1 1.7.9.8-1.1h0zm2.9-57.5l-.4-1-.8-.5-.4.6.4 1 .8.5.4-.6zm0-5.2l-.4-.9-.8-.5-.3.6.3.9.8.5.4-.6zm-17.7 74.8l-.9-2.5-1.9-1.1-1 1.4 1 2.4 1.9 1.1.9-1.3h0zm17.9-59.2l-.5-1.2-1-.6-.4.7.4 1.2 1 .6.5-.7zm-.1-5.2l-.4-1.1-.9-.5-.5.6.5 1.1.9.6.4-.7h0zm.1 10.4l-.5-1.3-1-.6-.5.7.5 1.4 1 .5.5-.7h0zm-.3-26l-.3-.9-.7-.4-.4.5.4.9.7.4.3-.5zm4.6 67l-.7-2-1.6-.9-.8 1.1.8 2 1.6.9.7-1.1zm.4 26l-1-2.5-1.9-1.1-.9 1.4.9 2.4 1.9 1.1 1-1.3h0zm-.3-20.8l-.8-2.1-1.6-1-.9 1.2.9 2.1 1.6 1 .8-1.2zm-.1-10.4l-.8-1.9-1.5-.9-.7 1.1.7 1.9 1.5.9.8-1.1zm-4.2-30.6l-.5-1.4-1.1-.6-.6.7.6 1.5 1.1.6.5-.8zm4.5 56.6l-.9-2.4-1.8-1-1 1.3 1 2.3 1.8 1.1.9-1.3h0zm-.1-5.2l-.8-2.3-1.8-1-.9 1.2.9 2.3 1.8 1 .8-1.2zm0-5.2l-.9-2.2-1.7-1-.8 1.2.8 2.2 1.7 1 .9-1.2zm-8.3-66.7l-.5-1.1-.9-.6-.4.7.4 1.1.9.5.5-.6h0zm-.2-15.6l-.4-.9-.7-.4-.3.5.3.9.7.4.4-.5zm4.8 93.3l-.9-2.4-1.8-1.1-.9 1.3.9 2.4 1.8 1.1.9-1.3zm0-5.2l-.9-2.3-1.8-1-.9 1.2.9 2.3 1.8 1 .9-1.2zm-4.7-77.7l-.4-1.1-.9-.4-.4.6.4 1 .9.5.4-.6zm4.6 72.5l-.8-2.2-1.7-1-.9 1.2.9 2.2 1.7 1 .8-1.2zm-5.1-87.6l.3-.5v-.2l-1.1-.6h-.1l.3.8.6.5h0zm.4 9.9l-.4-1-.7-.4-.4.5.4 1 .7.5.4-.6zm4.3 46.5l-.6-1.7-1.3-.7-.7.9.7 1.7 1.3.7.6-.9zm-.1-10.4l-.6-1.5-1.2-.7-.5.9.5 1.5 1.2.6.6-.8zm0 5.2l-.6-1.6-1.2-.7-.6.9.6 1.6 1.2.7.6-.9zm.4 31.2l-.8-2.1-1.6-1-.8 1.2.8 2.1 1.6.9.8-1.1h0zm-.2-20.8l-.7-1.8-1.4-.8-.6 1 .6 1.8 1.4.8.7-1zm.2 15.6l-.8-2-1.6-.9-.8 1.1.8 2 1.6.9.8-1.1zm-.2-10.4l-.7-1.9-1.4-.8-.7 1 .7 1.9 1.4.8.7-1zm.1 5.2l-.7-2-1.5-.8-.8 1.1.8 1.9 1.5.8.7-1zm-15.8-71l-.4-.9-.7-.4-.3.5.3.9.7.4.4-.5zm-3.6 10.6l-.4-1.1-.9-.5-.5.6.5 1.1.9.6.4-.7h0zM335 239l-.9-2.4-1.8-1-.9 1.3.9 2.3 1.8 1.1.9-1.3h0zm-.1-10.4l-.9-2.2-1.7-1-.8 1.2.8 2.2 1.7 1 .9-1.2zm.1 5.2l-.9-2.3-1.8-1-.9 1.2.9 2.3 1.8 1 .9-1.2zm-4.7-77.7l-.5-1-.8-.5-.4.6.4 1 .8.5.5-.6zm-.6-15.1l.4-.5v-.2l-1.1-.6h-.1l.3.8.5.5h0zm.5 9.9l-.4-.9-.7-.5-.4.6.4.9.7.5.4-.6zm12.2 82l-.8-2.2-1.7-.9-.9 1.2.9 2.2 1.7.9.8-1.2zm-7.9-35.5l-.7-1.7-1.3-.7-.6.9.6 1.7 1.3.7.7-.9zm-.1-5.2l-.6-1.6-1.2-.7-.6.9.6 1.6 1.2.7.6-.9zm.4 31.2l-.8-2.1-1.6-1-.8 1.2.8 2.1 1.6 1 .8-1.2zm-.2-20.8l-.7-1.7-1.4-.8-.7.9.7 1.8 1.4.8.7-1zm.2 15.6l-.8-2-1.6-.9-.8 1.1.8 2 1.6.9.8-1.1zm-.1-5.2l-.8-1.9-1.5-.9-.7 1.1.7 1.9 1.5.9.8-1.1zm-.1-5.2l-.7-1.8-1.4-.9-.7 1.1.7 1.8 1.4.8.7-1h0zm-4.5-62.1l-.3-.8-.7-.5-.4.5.4.9.7.4.3-.5h0zm.3 20.8l-.5-1.2-.9-.6-.5.7.5 1.3.9.5.5-.7zm.5 36.4l-.8-1.9-1.4-.8-.7 1 .7 1.9 1.4.8.8-1zm0 5.2l-.7-1.9-1.5-.9-.8 1.1.8 1.9 1.5.9.7-1.1zm.1 5.2l-.8-2-1.6-.9-.7 1.1.7 2 1.6.9.8-1.1zm.3 20.8l-1-2.4-1.8-1.1-.9 1.3.9 2.4 1.8 1.1 1-1.3zm-.2-10.4l-.8-2.2-1.7-1-.9 1.2.9 2.2 1.7 1 .8-1.2zm.1 5.2l-.9-2.3-1.8-1-.8 1.2.8 2.3 1.8 1 .9-1.2zm-.1-10.4l-.9-2.1-1.6-1-.8 1.2.8 2.1 1.6.9.9-1.1h0zm-.6-41.6l-.5-1.4-1.1-.6-.6.8.6 1.4 1.1.6.5-.8zm0-5.2l-.6-1.3-1-.6-.5.7.5 1.4 1 .6.6-.8h0zm.1 10.4l-.6-1.5-1.1-.7-.6.9.6 1.5 1.1.6.6-.8zm.1 10.4l-.6-1.7-1.3-.7-.7.9.7 1.7 1.3.7.6-.9zm0-5.2l-.7-1.6-1.2-.7-.6.9.6 1.6 1.2.7.7-.9zm.1 10.4l-.7-1.8-1.4-.7-.6.9.6 1.8 1.4.8.7-1zm3.6-10.7l-.6-1.5-1.2-.6-.6.8.6 1.5 1.2.7.6-.9zm3.7-.6l-.6-1.4-1.1-.7-.6.8.6 1.5 1.1.7.6-.9h0zm-.1-5.1l-.5-1.5-1.1-.6-.6.8.6 1.4 1.1.6.5-.7zm0-5.2l-.5-1.4-1.1-.6-.5.8.5 1.3 1.1.6.5-.7h0zm.2 20.7l-.6-1.6-1.3-.8-.7.9.7 1.7 1.3.8.6-1h0zm.2 10.4l-.7-1.8-1.5-.8-.7 1 .7 1.8 1.5.8.7-1zm-.1-5.2l-.7-1.7-1.3-.8-.7 1 .7 1.7 1.3.8.7-1zm-.4-31.1l-.5-1.3-.9-.5-.5.7.5 1.2.9.5.5-.6h0zm.3 20.7l-.6-1.5-1.3-.8-.6.9.6 1.6 1.3.7.6-.9zm4.3 51.7l-.9-2.3-1.8-1.1-.9 1.3.9 2.4 1.8 1 .9-1.3h0zm-4.9-93.2l-.3-.9-.7-.4-.3.5.3.9.7.4.3-.5zm.2 15.6l-.4-1.2-.9-.5-.4.6.4 1.2.9.5.4-.6zm4.7 72.4l-.9-2.3-1.8-1-.9 1.3.9 2.3 1.8 1 .9-1.3zm-4.7-77.6l-.4-1.1-.9-.5-.4.6.4 1.1.9.5.4-.6zm-.5-15.2l.3-.4v-.3l-1.1-.6v.2l.3.8.5.3h0zm.4 10l-.4-1-.7-.4-.4.5.4 1 .7.4.4-.5zm-3.7 5.8l-.4-1.1-.8-.5-.4.6.4 1.1.8.4.4-.5zm-.1-5.2l-.3-1-.8-.5-.4.6.4 1 .8.4.3-.5zm.4 25.9l-.6-1.4-1.1-.6-.5.8.5 1.4 1.1.6.6-.8zm-.8-35.9l.3-.4-.3-.8-.6-.4-.3.4.3.8.6.4zm.6 20.3l-.5-1.1-.9-.5-.4.6.4 1.2.9.5.5-.7zm4.3 46.2l-.7-1.9-1.5-.9-.8 1.1.8 1.9 1.5.9.7-1.1zm15 3.5l-.7-1.8-1.4-.9-.8 1.1.8 1.8 1.4.8.7-1h0zm-19.2-44.5l-.5-1.2-1-.6-.5.7.5 1.3 1 .5.5-.7zm0 5.2l-.5-1.3-1-.6-.5.7.5 1.4 1 .6.5-.8h0zm4.6 67l-.9-2.5-1.9-1-1 1.3 1 2.5 1.9 1.1.9-1.4h0zm-.3-26l-.8-2-1.5-.9-.8 1.1.8 2 1.5.9.8-1.1zm.1 10.4l-.8-2.2-1.7-1-.9 1.3.9 2.1 1.7 1 .8-1.2h0zm0-5.2l-.8-2.1-1.7-.9-.8 1.1.8 2.1 1.7 1 .8-1.2h0zm.1 10.4l-.9-2.3-1.7-1-.9 1.3.9 2.2 1.7 1.1.9-1.3zm.1 5.2l-.9-2.4-1.9-1-.9 1.3.9 2.3 1.9 1.1.9-1.3h0zm9.7-83.8l.3-.5-.3-.8-.6-.3-.3.4.3.8.6.4h0zm30.3 43.6l.4-.7-.4-1.3-1-.5-.5.7.5 1.2 1 .6zm.5 4.5l-.5-1.4-1-.6-.6.8.6 1.3 1 .6.5-.7h0zm.1 5.2l-.6-1.5-1.1-.6-.5.8.5 1.4 1.1.6.6-.7zm3.9 60.1l-.3-.8-1.9-1.1-1 1.3.6 1.5c.9 0 1.9-.3 2.6-.9h0 0zm-3.9-54.9l-.5-1.5-1.2-.7-.6.8.6 1.5 1.2.7.5-.8zm4 15l-.7-1.8-1.4-.8-.6 1 .6 1.7 1.4.8.7-.9zm-3.9-9.9l-.6-1.5-1.2-.7-.7.8.7 1.6 1.2.7.6-.9h0zm4.1 25.4l-.8-2-1.6-.9-.7 1.1.7 2.1 1.6.9.8-1.2h0zm-4-15l-.6-1.7-1.4-.8-.7 1 .7 1.7 1.4.8.6-1zm3.9 9.9l-.7-2-1.5-.8-.8 1 .8 2 1.5.8.7-1zm0-5.2l-.8-1.9-1.4-.8-.7 1 .7 1.8 1.4.9.8-1zm.3 25.9l-.9-2.2-1.8-1.1-.8 1.3.8 2.3 1.8 1 .9-1.3h0zm.1 5.2l-1-2.3-1.8-1.1-.9 1.3.9 2.4 1.8 1 1-1.3zm-.2-15.6l-.9-2.1-1.6-.9-.8 1.2.8 2.1 1.6.9.9-1.2zm0 5.2l-.8-2.2-1.7-.9-.9 1.2.9 2.2 1.7.9.8-1.2zm-4.1-30.6l-.7-1.6-1.3-.8-.6.9.6 1.7 1.3.8.7-1h0zm-8-40.7l-.4-1-.9-.5-.4.6.4 1.1.9.4.4-.6zm-.1-5.2l-.4-.9-.7-.5-.4.6.4.9.7.5.4-.6zm.2 10.4l-.5-1.1-.9-.5-.4.6.4 1.2.9.5.5-.7zm-.6-20.3l.3-.4-.3-.9-.7-.3-.3.4.3.8.7.4zm.6 25.5l-.5-1.2-.9-.6-.5.7.5 1.3.9.5.5-.7zm.2 10.4l-.6-1.4-1.1-.6-.5.8.5 1.4 1.1.6.6-.8zm-.1-5.2l-.5-1.3-1.1-.6-.5.7.5 1.4 1.1.6.5-.8h0zm7.9 35.5l-.7-1.8-1.4-.8-.8 1 .8 1.8 1.4.9.7-1.1h0zm-8.3-61.5l-.3-.8-.7-.4-.3.4.3.9.7.4.3-.5h0zm8.4 71.9l-.7-2-1.6-.9-.8 1.1.8 2 1.6.9.7-1.1zm-7.9-35.5l-.6-1.5-1.1-.7-.6.9.6 1.5 1.1.6.6-.8zm8 40.7l-.8-2.1-1.6-.9-.9 1.1.9 2.1 1.6 1 .8-1.2h0zm.2 15.6l-.9-2.4-1.8-1-1 1.3 1 2.4 1.8 1 .9-1.3zm-.1-10.4l-.9-2.2-1.7-1-.8 1.3.8 2.1 1.7 1 .9-1.2h0zm0 5.2l-.8-2.3-1.8-1-.9 1.3.9 2.3 1.8 1 .8-1.3zm-.2-20.8l-.8-1.9-1.5-.9-.7 1.1.7 1.9 1.5.9.8-1.1zm5.8-16v-2.4l-.4-.3-.6.9.6 1.6.4.2zm0-5.2v-2.3l-.4-.3-.6.8.6 1.5.4.3zm0-5.2v-2.2l-.4-.2-.5.7.5 1.4.4.3zm0-5.3v-2l-.3-.2-.5.7.5 1.3.3.2zm0 20.9v-2.6l-.5-.2-.6.9.6 1.7.5.2h0zm0 10.5v-2.9l-.5-.3-.7 1 .7 1.9.5.3zm-2.3-15.8l-.6-1.7-1.3-.8-.7 1 .7 1.6 1.3.8.6-.9h0zm1.6 41.5l.5.3.2-2.4v-1l-.7-.4-.9 1.2.9 2.3zm.7-20.5v-3l-.6-.3-.7 1 .7 2 .6.3zm-90.9-35.1l-.4.6v.2c0 .7.1 1.4.2 2.1l.2.6 1.8 1.1.9-1.3-.9-2.3-1.8-1h0zm90.9-22.4v-1.5h-.2l-.4.5.4 1h.2zm0 15.7v-1.9l-.3-.2-.5.7.5 1.2.3.2zm0-5.2v-1.8l-.3-.2-.4.7.4 1.1.3.2zm-.5-16.7l.3.9h.2v-1.4h-.2l-.3.5zm.5 11.5V190h-.2l-.4.6.4 1 .2.1h0zm0 41.8v-2.8l-.5-.3-.7 1 .7 1.8.5.3zm-2.5-31.4l-.6-1.3-1-.6-.5.7.5 1.3 1 .6.6-.7zm-.1-5.2l-.5-1.2-1-.6-.4.7.4 1.2 1 .6.5-.7zm-.1-5.2l-.4-1.2-.9-.5-.5.7.5 1.1.9.5.4-.6zm0-5.2l-.5-1.1-.8-.4-.4.5.4 1.1.8.5.5-.6zm.4 31.2l-.7-1.6-1.2-.7-.6.9.6 1.5 1.2.7.7-.8h0zm2.3 31.4V246l-.6-.4-.8 1.2.8 2 .6.3h0zm-2.5-41.8l-.5-1.4-1.1-.7-.6.8.6 1.4 1.1.7.5-.8zm.1 5.2l-.6-1.5-1.2-.7-.5.8.5 1.5 1.2.7.6-.8zm1.7 53.5h0l-1 1.3v.2c.4-.4.8-.9 1-1.5zm.7-6.4v-3.4l-.7-.4-.8 1.2.8 2.2.7.4h0zm-2.8-78.3l-.4-1-.8-.4-.3.5.3 1 .8.4.4-.5zm2.8 73.1v-3.3l-.6-.4-.8 1.2.8 2.1.6.4zm-2.9-78.3l-.3-.9-.7-.4-.4.5.4.9.7.4.3-.5zm-.4-4.7l.4-.5-.2-.3-1-.6v.2l.3.8.5.4h0zm-13.9 53.2l-.7-1.9-1.4-.8-.7 1 .7 1.9 1.4.8.7-1zM356.9 200l-.6-1.5-1.2-.6-.5.8.5 1.5 1.2.7.6-.9zm.1 5.2l-.7-1.5-1.2-.8-.6.9.6 1.6 1.2.7.7-.9zm.1 10.4l-.7-1.7-1.4-.8-.6 1 .6 1.7 1.4.8.7-1zm-.1-5.2l-.6-1.6-1.3-.8-.7.9.7 1.7 1.3.8.6-1h0zm.4 26l-.9-2.1-1.6-.9-.8 1.1.8 2.1 1.6 1 .9-1.2h0zm-.2-10.4l-.7-1.9-1.5-.9-.8 1.1.8 1.9 1.5.9.7-1.1zm0-5.2l-.8-1.8-1.4-.8-.7 1 .7 1.8 1.4.8.8-1zm.1 10.4l-.8-2-1.6-.9-.7 1.1.7 2 1.6.9.8-1.1zm-.8-62.3l-.4-1-.8-.5-.3.6.3 1 .8.4.4-.5zm-.5-10l.4-.4-.4-.8-.6-.4-.3.5.3.8.6.3h0zm.6 15.2l-.5-1.1-.8-.5-.4.6.4 1.1.8.5.5-.6zm0 5.2l-.4-1.2-.9-.5-.5.6.5 1.2.9.5.4-.6zm.2 15.5l-.5-1.4-1.1-.6-.6.8.6 1.4 1.1.6.5-.8zm0-5.1l-.6-1.4-1-.6-.5.8.5 1.3 1 .6.6-.7h0zm-.1-5.2l-.5-1.3-1-.5-.4.6.4 1.3 1 .5.5-.6zm-3.7.2l-.5-1.3-1-.6-.6.7.6 1.4 1 .6.5-.8h0zm-.1-10.4l-.5-1.1-.9-.5-.4.6.4 1.2.9.5.5-.7zm3.5-10.6l-.3-.9-.7-.4-.4.5.4.9.7.4.3-.5zm-3.5 15.8l-.4-1.2-1-.6-.5.7.5 1.3 1 .5.4-.7zm.2 10.4l-.6-1.4-1.1-.6-.5.8.5 1.4 1.1.6.6-.8zm.2 15.6l-.7-1.7-1.3-.7-.6.9.6 1.7 1.3.7.7-.9zm-.2-10.4l-.5-1.5-1.2-.6-.6.8.6 1.5 1.2.7.5-.9zm.1 5.2l-.6-1.6-1.2-.7-.7.9.7 1.6 1.2.7.6-.9zm4.4 51.7l-1-2.4-1.8-1-.9 1.3.9 2.3 1.8 1.1 1-1.3h0zm-4.8-82.9l-.4-1-.8-.5-.5.6.5 1.1.8.4.4-.6zm19.2 44.8l-.6-1.6-1.3-.7-.6.9.6 1.6 1.3.7.6-.9zm-14.5 32.9l-.9-2.3-1.8-1-.8 1.3.8 2.2 1.8 1.1.9-1.3zm-4.8-88l-.4-.9-.7-.4-.3.5.3.8.7.4.4-.4h0zm-.4-4.8l.3-.4v-.3l-1-.6h-.2l.4.8.5.5h0zm.4 10l-.3-1-.8-.5-.4.6.4 1 .8.4.3-.5zm4.7 77.6l-.8-2.2-1.7-1-.9 1.2.9 2.2 1.7 1 .8-1.2zm10.3-74.2l-.4-.9-.6-.4-.4.5.4.9.6.4.4-.5zm-.4-4.7l.3-.5v-.2l-1-.6h-.1l.3.8.5.5h0zm5.3 98l-.9-2.4-1.9-1.1-.9 1.4.9 2.3 1.9 1.1.9-1.3zm-.1-5.2l-.9-2.3-1.7-1-.9 1.2.9 2.3 1.7 1 .9-1.2zm-4.6-72.5l-.5-1.1-.8-.6-.5.7.5 1.1.8.6.5-.7zm-.1-5.2l-.4-1-.8-.5-.4.6.4 1 .8.5.4-.6zm.2 10.4l-.5-1.2-1-.6-.5.7.5 1.2 1 .6.5-.7zm-.2-15.6l-.4-1-.8-.4-.4.6.4.9.8.5.4-.6zm4.4 56.9l-.7-1.8-1.5-.9-.7 1 .7 1.9 1.5.8.7-1zm-.1-5.2l-.7-1.8-1.3-.7-.7.9.7 1.8 1.3.8.7-1zm0-5.2l-.7-1.7-1.3-.7-.6.9.6 1.7 1.3.7.7-.9zm.2 20.8l-.8-2-1.5-.9-.8 1.1.8 2 1.5.9.8-1.1zm0-5.2l-.8-1.9-1.5-.9-.7 1.1.7 1.9 1.5.9.8-1.1zm.1 10.4l-.8-2.1-1.7-1-.8 1.2.8 2.1 1.7.9.8-1.1h0zm.1 5.2l-.9-2.2-1.7-1-.8 1.2.8 2.2 1.7 1 .9-1.2zm-4.4-51.7l-.6-1.4-1-.6-.6.7.6 1.5 1 .6.6-.8zm.6 46.8l-.9-2.2-1.7-1-.8 1.2.8 2.2 1.7 1 .9-1.2zm-.1-5.2l-.8-2.1-1.6-1-.8 1.2.8 2.1 1.6.9.8-1.1h0zm-.1-10.4l-.8-2-1.5-.8-.7 1 .7 2 1.5.8.8-1zm.1 5.2l-.8-2-1.6-.9-.8 1.1.8 2 1.6.9.8-1.1zm.3 26l-1-2.5-1.9-1.1-.9 1.4.9 2.4 1.9 1.1 1-1.3zm-.1-5.2l-.9-2.4-1.8-1.1-.9 1.3.9 2.4 1.8 1.1.9-1.3zm0-5.2l-.9-2.3-1.8-1-.9 1.2.9 2.3 1.8 1 .9-1.2zm-.5-36.4l-.7-1.7-1.2-.7-.7.9.7 1.7 1.2.7.7-.9zm-15-3.5l-.6-1.7-1.4-.8-.7.9.7 1.8 1.4.8.6-1zm14.9-1.7l-.6-1.6-1.2-.7-.6.9.6 1.6 1.2.7.6-.9zm-9.7 47.9l1.9 1.1 1-1.4-1-2.4-1.9-1.1-.9 1.3.9 2.5zm9.7-53.1l-.6-1.5-1.2-.7-.6.9.6 1.5 1.2.6.6-.8zm-.2-10.4l-.5-1.3-1-.6-.5.7.5 1.3 1 .6.5-.7zm.4 26l-.7-1.8-1.4-.8-.7 1 .7 1.8 1.4.8.7-1zm-48.5.5l-.9-2.2-1.7-1-.8 1.3.8 2.1 1.7 1 .9-1.2h0zm-23.2-59.8l-.5-1.4-1.1-.6-.6.8.6 1.4 1.1.6.5-.8zm-.1-5.2l-.5-1.3-1-.6-.5.8.5 1.3 1 .6.5-.8zm.2 10.4l-.6-1.5-1.2-.6-.5.8.5 1.5 1.2.7.6-.9zm-.9-42.3l-.6-.4-.3.5.3.8.6.3.3-.4-.3-.8zm.7 26.8l-.5-1.3-1-.5-.4.6.4 1.3 1 .5.5-.6zm7.2-21.7l-.4-.8-.6-.4-.3.5.3.8.6.4.4-.5h0zm-3.9-5.2l-1-.6v.2l.3.8.6.3.3-.4-.2-.3h0zm-5.6 51.3l.7 1.7 1.3.8.6-1-.6-1.6-1.3-.8-.7.9h0zm.7-6l-.6.9.6 1.6 1.2.7.7-.9-.7-1.6-1.2-.7zm22.8-32.6l-.3.5.3.8.7.3.3-.4-.3-.8-.7-.4h0zm-23.5 43.7v.2l.6 1.6 1.4.8.7-1-.7-1.7-1.4-.8-.6.9zm2.1-39.9l-.4-1.1-.8-.5-.4.6.4 1.1.8.5.4-.6zm0-5.2l-.4-1-.8-.5-.3.6.3 1 .8.4.4-.5zm.1 10.4l-.4-1.2-.9-.5-.5.6.5 1.2.9.5.4-.6zm-.5-15.1l.3-.5-.3-.9-.7-.4-.4.5.4.9.7.4h0zm26.8 27.5l-.4-1.2-.9-.5-.5.7.5 1.1.9.5.4-.6zm.4 31.2l-.6-1.7-1.3-.8-.7 1 .7 1.6 1.3.8.6-.9h0zm-.1-5.2l-.6-1.6-1.2-.7-.6.8.6 1.6 1.2.7.6-.8zm0-5.2l-.6-1.5-1.2-.7-.5.8.5 1.5 1.2.7.6-.8zm-1.9 23.2l-.8 1 .8 2 1.5.8.7-1-.7-2-1.5-.8zm37.4 47l-.9 1.3.9 2.4 1.8 1 .9-1.3-.9-2.3-1.8-1.1h0zM323 172.6l-.5-1.4-1.1-.7-.6.8.6 1.4 1.1.7.5-.8zm-.6-36.7l-1-.6v.2l.3.8.6.4.3-.5-.2-.3h0zm.9 57.5l-.7-1.8-1.4-.8-.6 1 .6 1.7 1.4.8.7-.9zm-1-51.5l.3-.5-.3-.9-.7-.4-.4.5.4.9.7.4zm.4 4.7l-.4-1-.8-.4-.3.5.3 1 .8.4.4-.5zm-1.5 49.3l-.7 1 .7 1.8 1.4.9.7-1-.7-1.9-1.4-.8zm1.7-28.5l-.5-1.3-1-.6-.5.7.5 1.3 1 .6.5-.7zm0-5.2l-.5-1.3-1-.5-.4.7.4 1.2 1 .6.5-.7zm-.2-10.4l-.4-1.1-.8-.4-.4.5.4 1.1.8.5.4-.6zm-28.4 32.5v.5l.6 1.5 1.4.8.8-1-.8-1.8-1.4-.9-.6.9zm0 20.1v1.6l.5 1.1 1.7 1 .8-1.2-.8-2.2-1.7-1-.5.7h0zm6.8 1.9l-.9-2.2-1.7-.9-.8 1.2.8 2.2 1.7.9.9-1.2zm-.2-10.4l-.7-2-1.6-.9-.8 1.1.8 2 1.6.9.7-1.1zm.2 15.6l-.8-2.3-1.8-1-.9 1.3.9 2.3 1.8 1 .8-1.3zm7.8 17.3l3.5 2-.8-2.1-1.9-1.1-.8 1.2h0zm-7.7-12.1l-.9-2.3-1.8-1.1-1 1.3 1 2.4 1.8 1 .9-1.3h0zm2.4 9l1.3.7-.8-2-1.9-1.1-.7.9c.6.6 1.3 1.1 2.1 1.5h0zm-2.3-3.8l-1-2.4-1.9-1.1-.8 1.2c.7 1.3 1.7 2.6 2.8 3.6l.9-1.3zm-.3-20.8l-.8-2.1-1.6-.9-.9 1.1.9 2.1 1.6 1 .8-1.2h0zm-.5-36.3l-.5-1.5-1.2-.7-.6.8.6 1.5 1.2.7.5-.8zm.4 25.9l-.8-1.9-1.5-.9-.7 1.1.7 1.9 1.5.9.8-1.1zm-.3-20.7l-.6-1.6-1.2-.7-.7.8.7 1.6 1.2.7.6-.8zm-.1-10.4l-.6-1.4-1.1-.7-.5.8.5 1.4 1.1.6.6-.7h0zm.2 15.6l-.7-1.7-1.3-.8-.6 1 .6 1.6 1.3.8.7-.9h0zm.1 10.3l-.7-1.8-1.4-.8-.8 1 .8 1.8 1.4.9.7-1.1h0zm-.1-5.2l-.6-1.7-1.4-.8-.7 1 .7 1.7 1.4.8.6-1zm60.8 78.8l3.5 2-.8-2-1.9-1.1-.8 1.1h0zm-35.1-112.8l-.4-.9-.7-.4-.3.5.3.9.7.4.4-.5zm-10 86.8l3.5 2-.8-2-1.9-1.1-.8 1.1h0zm47.8 24.5l.9-1.3-.9-2.3-1.9-1.1-.9 1.3.9 2.4 1.9 1zm4.8 5.9l3.5 2-.8-2.1-1.9-1.1-.8 1.2h0zm-74.7-69.2v1.1l.5 1.3 1.6.9.8-1.1-.8-2-1.6-.9-.5.7zm64.3 48.6l-.9 1.3.9 2.3 1.8 1 .9-1.3-.9-2.3-1.8-1zm-64.3-43.6v1.4l.5 1.2 1.6 1 .9-1.2-.9-2.1-1.6-.9-.5.6zm2.2 15.6l-1.5-.9c.4 1.5 1 3 1.8 4.3l.7-1-1-2.4h0zm34.9 26.9l3.5 2-.8-2.1-1.9-1.1-.8 1.2h0zm-7.5-4.4l3.5 2-.8-2-1.9-1.1-.8 1.1h0zm-29.6-48.1v.8l.6 1.4 1.5.9.7-1.1-.7-1.9-1.5-.9-.6.8zm44.7 56.8l3.4 2-.7-2-1.9-1.1-.8 1.1zm-38.6-91.7l-.5-1.4-1-.5-.6.7.6 1.3 1 .6.5-.7h0zm46.1 96l3.5 2.1-.8-2.1-1.9-1.1-.8 1.1h0zm7.5 4.4l3.5 2-.8-2.1-1.9-1.1-.8 1.2h0zm21.5-57.1l-.5-1.3-1-.6-.5.8.5 1.3 1 .6.5-.8zm-.1-10.3l-.4-1.2-.9-.5-.5.6.5 1.2.9.5.4-.6zm.1 5.2l-.5-1.3-1-.5-.4.6.4 1.3 1 .5.5-.6zm.1 10.3l-.5-1.4-1.1-.6-.6.8.6 1.4 1.1.6.5-.8zm.2 15.6l-.6-1.6-1.3-.8-.7.9.7 1.7 1.3.8.6-1h0zm-.1-5.2l-.6-1.6-1.2-.7-.6.9.6 1.6 1.2.7.6-.9zm0-5.2l-.6-1.5-1.2-.6-.6.8.6 1.5 1.2.7.6-.9zm.2 15.6l-.7-1.7-1.4-.8-.7.9.7 1.8 1.4.8.7-1zm-11 17l-.8-2.1-1.7-.9-.8 1.2.8 2.1 1.7.9.8-1.2zm-.1-5.1l-.8-2.1-1.5-.9-.8 1.1.8 2.1 1.5.9.8-1.1zm-.1-5.2l-.7-2-1.5-.8-.8 1 .8 2 1.5.8.7-1zm10.6-53.4l-.4-1-.8-.5-.3.6.3 1 .8.4.4-.5zm-.1-5.2l-.3-.9-.7-.4-.4.5.4.9.7.4.3-.5zm.1 10.4l-.4-1.1-.8-.5-.4.6.4 1.1.8.4.4-.5zm-.5-15.2l.3-.4v-.3l-1-.6v.2l.3.8.4.3h0zm1.5 87.9l-.9-2.3-1.8-1-.9 1.3.9 2.2 1.8 1.1.9-1.3h0zm2.3-83l.3-.4-.3-.8-.6-.4-.4.5.4.8.6.3h0zm.4 10l-.4-1-.7-.4-.4.5.4 1 .7.4.4-.5zm0-5.2l-.4-.9-.7-.4-.3.5.3.9.7.4.4-.5zm-3.1 52.2l-.7-1.8-1.4-.9-.7 1.1.7 1.8 1.4.8.7-1h0zm.5 36.4l-.9-2.5-1.9-1.1-1 1.4 1 2.4 1.9 1.1.9-1.3zm9.2-90.6h-.1l-.3.4.3.8h.1v-1.2zm-6.4 17.6l-.5-1.2-.9-.5-.4.6.4 1.2.9.5.5-.6zm-.5-4.6l.4-.6-.4-1.1-.8-.5-.5.6.5 1.1.8.5zm-2.6 51.6l-.8-2-1.6-.9-.8 1.1.8 2 1.6.9.8-1.1zm-.1-5.2l-.7-1.9-1.5-.9-.8 1.1.8 1.9 1.5.9.7-1.1zm.1 10.4l-.8-2.1-1.6-.9-.8 1.1.8 2.1 1.6 1 .8-1.2h0zm.1 5.2l-.8-2.2-1.7-1-.9 1.2.9 2.2 1.7 1 .8-1.2zm-11.5-24.5l-.7-1.9-1.5-.8-.7 1 .7 1.9 1.5.8.7-1zm10.7 36.2l.9-1.3-.9-2.4-1.8-1-.9 1.3.9 2.3 1.8 1.1zm-14.7-56.7l-.6-1.6-1.2-.7-.6.8.6 1.6 1.2.7.6-.8zm.1 10.3l-.6-1.7-1.4-.8-.7 1 .7 1.7 1.4.8.6-1zm-.6-46.7l-.3-1-.8-.4-.4.5.4 1 .8.4.3-.5zm.7 51.9l-.7-1.8-1.4-.8-.7 1 .7 1.8 1.4.9.7-1.1h0zm-.1-10.3l-.7-1.7-1.3-.8-.6 1 .6 1.6 1.3.8.7-.9h0zm.2 15.5l-.8-1.9-1.5-.9-.7 1.1.7 1.9 1.5.9.8-1.1zm.1 10.4l-.8-2.1-1.6-.9-.8 1.1.8 2.1 1.6 1 .8-1.2h0zm0-5.2l-.8-2-1.6-.9-.8 1.1.8 2 1.6.9.8-1.1zm-.7-51.9l-.5-1.2-.9-.5-.4.6.4 1.2.9.5.5-.6zm-.1-5.2l-.4-1.1-.8-.5-.4.6.4 1.1.8.5.4-.6zm.9 67.5l-.9-2.2-1.7-.9-.8 1.2.8 2.2 1.7.9.9-1.2zm-.6-41.5l-.5-1.5-1.2-.7-.6.8.6 1.5 1.2.7.5-.8zm-.8-35.9l.4-.5-.4-.9-.7-.4-.3.5.3.9.7.4zm.8 30.7l-.6-1.4-1.1-.7-.5.8.5 1.4 1.1.6.6-.7h0zm-.1-5.2l-.5-1.4-1-.5-.5.7.5 1.3 1 .6.5-.7h0zm4.1 30.9l-.7-1.8-1.3-.8-.7 1 .7 1.7 1.3.8.7-.9zm-4.2-36.1l-.4-1.3-1-.5-.5.7.5 1.2 1 .6.4-.7zm3.9 15.3l-.5-1.4-1.1-.7-.6.8.6 1.4 1.1.7.5-.8zm0-5.2l-.5-1.3-1.1-.6-.5.7.5 1.3 1.1.6.5-.7zm-.1-5.2l-.5-1.2-.9-.6-.5.7.5 1.2.9.6.5-.7zm.3 26l-.6-1.7-1.3-.8-.7 1 .7 1.6 1.3.8.6-.9h0zm-.4-31.2l-.4-1.2-.9-.5-.5.7.5 1.1.9.5.4-.6zm.3 20.8l-.6-1.5-1.1-.7-.6.8.6 1.5 1.1.7.6-.8zm.1 5.2l-.6-1.6-1.3-.7-.6.9.6 1.5 1.3.7.6-.8h0zm-.6-41.6l-.3-.9-.7-.4-.4.5.4.9.7.4.3-.5zm-3.9-10.4l-1-.6v.2l.3.8.6.3.3-.4-.2-.3h0zm2.4 85.2l-.9 1.2.9 2.2 1.7 1 .8-1.3-.8-2.1-1.7-1h0zm0 5l-.9 1.3.9 2.3 1.7 1 .9-1.3-.9-2.2-1.7-1.1zm1.2-84.5l.3-.5-.3-.8-.7-.4-.3.5.3.8.7.4zm.4 9.9l-.4-1-.7-.4-.4.5.4 1 .7.4.4-.5zm.1 5.2l-.4-1.1-.9-.4-.4.5.4 1.1.9.5.4-.6zm12.4 89.4c1 .6 2.1 1 3.2 1.1l-.5-1.1-1.9-1.1-.8 1.1h0zM320 230.3l-.9-2.4-1.9-1-.9 1.3.9 2.4 1.9 1 .9-1.3zm-.1-5.2l-.9-2.3-1.7-1-.9 1.3.9 2.2 1.7 1.1.9-1.3zm-4.8-88l-.3-.9-.7-.4-.4.5.4.9.7.4.3-.5zm.1 10.4l-.4-1.1-.8-.5-.4.6.4 1.1.8.4.4-.5zm-.5-15.2l.3-.4v-.3l-1-.6h-.1l.3.9.5.4h0zm5.1 82.4l-.8-2.1-1.7-.9-.8 1.1.8 2.1 1.7 1 .8-1.2h0zm-4.6-72.4l-.4-1-.8-.5-.4.6.4 1 .8.4.4-.5zm.1 10.4l-.4-1.2-.9-.5-.5.6.5 1.2.9.5.4-.6zm4.1 30.8l-.6-1.5-1.3-.7-.6.8.6 1.6 1.3.7.6-.9h0zm-.1-5.1l-.6-1.5-1.1-.7-.6.8.6 1.5 1.1.7.6-.8zm.4 31.1l-.8-2-1.5-.9-.8 1.1.8 2 1.5.9.8-1.1zm-.2-20.8l-.7-1.6-1.3-.8-.6.9.6 1.7 1.3.8.7-1h0zm-19.2-39.5l-.4-1.3-1-.5-.5.7.5 1.2 1 .6.4-.7zm19.2 44.7l-.7-1.7-1.3-.8-.7 1 .7 1.7 1.3.8.7-1zm.1 5.2l-.7-1.8-1.5-.8-.7 1 .7 1.8 1.5.9.7-1.1h0zm-3.8-10.1l-.7-1.7-1.4-.8-.7.9.7 1.8 1.4.8.7-1zm.2 20.8l-.8-2.1-1.6-.9-.8 1.1.8 2.1 1.6 1 .8-1.2h0zm0-5.2l-.8-2-1.6-.9-.8 1.1.8 2 1.6.9.8-1.1zm-.1-5.2l-.7-1.9-1.5-.9-.8 1.1.8 1.9 1.5.9.7-1.1zm.3 26l-.9-2.4-1.8-1-.9 1.3.9 2.3 1.8 1.1.9-1.3h0zm-.4-31.2l-.7-1.8-1.4-.9-.7 1.1.7 1.8 1.4.8.7-1h0zm.4 26l-.9-2.3-1.8-1-.9 1.3.9 2.2 1.8 1.1.9-1.3zm-.1-5.2l-.8-2.2-1.7-1-.9 1.2.9 2.2 1.7 1 .8-1.2zm3.2-41.8l-.6-1.5-1.1-.6-.5.8.5 1.4 1.1.6.6-.7zm-3.8-5l-.5-1.4-1.1-.6-.6.8.6 1.4 1.1.6.5-.8zm.1 5.2l-.6-1.5-1.2-.6-.6.8.6 1.5 1.2.7.6-.9zm-.2-15.6l-.5-1.2-1-.5-.5.6.5 1.3 1 .5.5-.7h0zm0 5.2l-.5-1.3-1-.6-.5.8.5 1.3 1 .6.5-.8zm.3 20.8l-.6-1.6-1.3-.8-.7.9.7 1.7 1.3.7.6-.9h0zm-.1-5.2l-.6-1.6-1.2-.7-.6.9.6 1.6 1.2.7.6-.9zm11-16.7l-.5-1.1-.9-.6-.4.7.4 1.1.9.5.5-.6h0zm.4 31.2l-.7-1.7-1.3-.7-.6.9.6 1.7 1.3.7.7-.9zm-7.8-25.1l-.5-1.4-1.1-.6-.5.8.5 1.3 1.1.6.5-.7h0zm8.1 51.1l-.8-2.1-1.6-1-.9 1.2.9 2.1 1.6.9.8-1.1h0zm-.1-10.4l-.8-2-1.5-.8-.7 1 .7 2 1.5.8.8-1zm-.1-5.2l-.7-1.9-1.4-.8-.8 1 .8 1.9 1.4.8.7-1zm.1 10.4l-.7-2.1-1.6-.9-.8 1.2.8 2 1.6.9.7-1.1h0zm-.4-31.2l-.5-1.5-1.2-.7-.6.8.6 1.5 1.2.7.5-.8zm.2 15.6l-.6-1.8-1.4-.8-.7 1 .7 1.8 1.4.7.6-.9zm-.6-46.8l-.3-1-.8-.4-.4.5.4 1 .8.5.3-.6zm-.4-9.9l.3-.5-.3-.8-.6-.3-.4.4.4.8.6.4h0zm.5 15.1l-.4-1.1-.8-.4-.5.6.5 1 .8.5.4-.6zm.1 10.4l-.4-1.2-1-.6-.5.7.5 1.2 1 .6.4-.7zm.1 5.2l-.5-1.3-1-.6-.6.7.6 1.3 1 .6.5-.7zm-10.4 58.3l-.9-2.5-1.9-1.1-1 1.4 1 2.4 1.9 1.1.9-1.3h0zm10.5-53.1l-.6-1.4-1.1-.7-.5.8.5 1.4 1.1.7.6-.8zm.1 10.4l-.6-1.6-1.2-.7-.7.9.7 1.6 1.2.7.6-.9zm-8.4-45.4l.4-.5-.4-.9-.7-.4-.3.5.3.9.7.4zm.4 4.7l-.4-1-.7-.4-.4.5.4 1 .7.4.4-.5zm4.9 87.7l-.9-2.4-1.9-1.1-1 1.3 1 2.5 1.9 1.1.9-1.4h0zm-4.7-77.3l-.5-1.2-.9-.5-.4.6.4 1.2.9.5.5-.6zm0 5.2l-.5-1.3-.9-.5-.5.7.5 1.2.9.5.5-.6h0zm4.7 66.9l-1-2.3-1.8-1.1-.9 1.3.9 2.4 1.8 1 1-1.3h0zm-4.8-77.3l-.4-1.1-.9-.5-.4.6.4 1.1.9.5.4-.6zm3.7 57.7l.8-1.2-.8-2-1.6-.9-.7 1.1.7 2.1 1.6.9h0zm4.8 24.5l-.9-2.3-1.8-1.1-1 1.3 1 2.4 1.8 1 .9-1.3h0zm-.1-5.2l-.8-2.2-1.8-1-.9 1.2.9 2.3 1.8 1 .8-1.3zm-3.8-15.3l-.9-2.1-1.6-.9-.8 1.2.8 2.1 1.6.9.9-1.2zm.1 10.4l-.9-2.2-1.8-1.1-.8 1.3.8 2.3 1.8 1 .9-1.3zm-.1-5.2l-.8-2.2-1.7-.9-.9 1.2.9 2.2 1.7.9.8-1.2zm3.8 5l-.9-2.2-1.7-1-.8 1.2.8 2.2 1.7 1 .9-1.2zm-7.7-20l-.8-1.9-1.5-.9-.7 1.1.7 1.9 1.5.9.8-1.1zM304 143.7l-.5-1.1-.8-.4-.4.5.4 1.1.8.5.5-.6zm-.1-5.2l-.4-1-.7-.4-.4.5.4 1 .7.4.4-.5zm-.4-4.7l.3-.5-.3-.9-.7-.4-.4.5.4.9.7.4zm.5 15.1l-.4-1.2-.9-.5-.5.7.5 1.1.9.5.4-.6zm.2 15.6l-.5-1.4-1.1-.7-.6.8.6 1.4 1.1.7.5-.8zm0-5.2l-.6-1.3-1-.6-.5.7.5 1.3 1 .6.6-.7zm-.1-5.2l-.5-1.2-.9-.6-.5.7.5 1.2.9.6.5-.7zm4.7 72.1l-1-2.4-1.9-1.1-.9 1.4.9 2.4 1.9 1.1 1-1.4zm-.3-25.9l-.8-2-1.6-1-.8 1.2.8 2 1.6.9.8-1.1h0zm0 5.2l-.8-2.1-1.6-1-.8 1.2.8 2.1 1.6.9.8-1.1h0zm-.1-10.4l-.8-2-1.5-.8-.7 1 .7 2 1.5.8.8-1zm.3 26l-.9-2.4-1.8-1.1-.9 1.3.9 2.4 1.8 1.1.9-1.3zm-.1-10.4l-.9-2.2-1.7-1-.8 1.2.8 2.2 1.7 1 .9-1.2zm-.3-20.8l-.7-1.9-1.4-.8-.7 1 .7 1.9 1.4.8.7-1zm.4 26l-.9-2.3-1.8-1-.9 1.2.9 2.3 1.8 1 .9-1.2zm-4.4-46.2l-.6-1.5-1.1-.7-.6.8.6 1.5 1.1.7.6-.8zm-4.2-36.1l-.3-1-.8-.4-.4.5.4 1 .8.4.3-.5zm4.9 88l-.9-2.3-1.9-1.1-.9 1.3.9 2.4 1.9 1 .9-1.3h0zm-.1-5.2l-.9-2.2-1.7-1.1-.9 1.3.9 2.3 1.7 1 .9-1.3zm-5.2-87.5l.4-.5-.4-.9-.7-.4-.3.5.3.9.7.4h0zm.6 15.1l-.5-1.2-.9-.5-.4.6.4 1.2.9.5.5-.6zm4.5 67.2l-.8-2.1-1.7-1-.9 1.2.9 2.2 1.7.9.8-1.2h0zm-4.6-72.4l-.4-1.1-.8-.5-.4.6.4 1.1.8.5.4-.6zm4.5 62l-.8-2-1.5-.9-.8 1.1.8 2.1 1.5.9.8-1.2h0zm.1 5.2l-.8-2.1-1.7-.9-.8 1.2.8 2.1 1.7.9.8-1.2zm-.2-15.5l-.8-1.9-1.4-.8-.7 1 .7 1.9 1.4.8.8-1zm-.2-10.4l-.6-1.7-1.3-.8-.7 1 .7 1.6 1.3.8.6-.9h0zm.1 5.2l-.7-1.8-1.3-.8-.7 1 .7 1.7 1.3.8.7-.9zm-.1-10.4l-.7-1.6-1.2-.7-.6.9.6 1.5 1.2.7.7-.8h0zm.2 20.8l-.7-2-1.5-.8-.8 1 .8 2 1.5.8.7-1zm6.7-58.1l-.3-.8-.7-.4-.3.4.3.9.7.4.3-.5h0zm.6 46.8l-.6-1.7-1.3-.7-.6.9.6 1.7 1.3.7.6-.9zm.1 5.2l-.7-1.8-1.3-.7-.7.9.7 1.8 1.3.8.7-1zm-.2-15.6l-.6-1.5-1.1-.7-.6.9.6 1.5 1.1.6.6-.8zm.5 36.4l-.8-2.1-1.7-1-.8 1.2.8 2.1 1.7.9.8-1.1h0zm-.1-5.2l-.8-2-1.5-.9-.8 1.1.8 2 1.5.9.8-1.1zm-.1-10.4l-.7-1.8-1.5-.9-.7 1 .7 1.9 1.5.8.7-1zm0 5.2l-.7-1.9-1.5-.9-.8 1.1.8 1.9 1.5.9.7-1.1zm-.2-20.8l-.6-1.6-1.3-.7-.6.9.6 1.6 1.3.7.6-.9zm-.4-31.2l-.4-1-.9-.5-.4.6.4 1 .9.5.4-.6zm-.1-5.2l-.4-.9-.7-.5-.4.6.4.9.7.5.4-.6zm.3 26l-.5-1.4-1.1-.6-.5.8.5 1.4 1.1.6.5-.8zm-.7-35.9l.3-.4-.3-.9-.7-.3-.3.4.3.8.7.4zm.7 30.7l-.5-1.3-1.1-.6-.5.7.5 1.4 1.1.6.5-.8h0zm-.1-5.2l-.5-1.2-.9-.6-.5.7.5 1.3.9.5.5-.7zm-.1-5.2l-.4-1.1-.9-.5-.4.6.4 1.2.9.5.4-.7zm-3.4 15.9l-.6-1.5-1.2-.7-.6.9.6 1.5 1.2.6.6-.8zm-.2-10.4l-.5-1.3-1-.6-.5.7.5 1.3 1 .6.5-.7zm0-5.2l-.5-1.2-1-.6-.5.7.5 1.2 1 .6.5-.7zm4.4 62.1l-.8-2.2-1.7-1-.9 1.2.9 2.2 1.7 1 .8-1.2zm-4.1-36.1l-.7-1.7-1.3-.7-.6.9.6 1.7 1.3.7.7-.9zm-.4-31.2l-.5-1.1-.9-.6-.4.7.4 1.1.9.6.5-.7zm.3 26l-.6-1.6-1.2-.7-.6.9.6 1.6 1.2.7.6-.9zm.2 10.4l-.7-1.8-1.4-.8-.7 1 .7 1.8 1.4.8.7-1zm-.3-20.8l-.6-1.4-1.1-.6-.5.7.5 1.4 1.1.7.6-.8h0zm-.3-20.8l-.4-1-.8-.5-.4.6.4 1 .8.5.4-.6zm4.7 77.7l-.9-2.3-1.7-1-.9 1.2.9 2.3 1.7 1 .9-1.2zm-4.8-88.1l-.4-.9-.7-.4-.3.5.3.9.7.4.4-.5zm4.9 93.3l-.9-2.4-1.9-1.1-.9 1.4.9 2.3 1.9 1.1.9-1.3zm-5.3-98l.3-.5v-.2l-1-.6h-.1l.3.8.5.5h0zm.5 9.9l-.4-1-.8-.4-.4.5.4 1 .8.5.4-.6z" opacity=".4" fill="url(#I)"/><path d="M293.6 3.9h0zM390.2 265V70.8c0-8.9-6.2-19.7-13.9-24.1l-72.7-42c-3.8-2.2-7.3-2.4-9.8-1 .9-.5 6.6-3.5 7.5-3.7 2.7 0 5.3.6 7.7 1.8l72.7 42c7.7 4.4 13.9 15.2 13.9 24.1v194.2c0 4.1-1.3 7-3.5 8.6-2 1.4-4.2 2.7-6.5 3.6h-.1c2.9-1.3 4.7-4.5 4.7-9.3h0 0z" class="AB"/><path d="M242.3 180.8l1.1-.9.4-.2 1.1-.3c.7-.4 1.1-1.1 1.1-1.9l-1-14.3c0-.8-.6-1.1-1.4-.7-.8.5-1.3 1.4-1.4 2.3l-1 15.5c-.1.8.5 1 1.1.5h0 0z" class="AH"/><g class="AI"><path d="M241.7 180.8l.4-.2 1.1-.9.5-.3 1.1-.3c.6-.3.9-.9.9-1.6l-1-14.3c0-.2-.1-.6-.4-.6l-.5.2c-.7.5-1.2 1.2-1.3 2.1l-1 15.4c0 .2 0 .4.1.4l.1.1h0z"/><path d="M226.7 172l1-15.5c.1-1 .7-1.8 1.5-2.3.3-.2.7-.3 1-.1l14.5 8.3c-.4-.1-.8-.1-1.1.1-.8.5-1.3 1.4-1.4 2.3l-1 15.5c-.1.3 0 .5.2.7l-14.4-8.3c-.2-.2-.3-.4-.3-.7z"/></g><path d="M244.9 165.1l-2.5 1.4v-1.6c.1-.8.5-1.6 1.2-2.1l.6-.2c.3 0 .4.4.4.6l.3 1.9h0z" fill="#f77d38"/><path d="M242.5 164.9c0-.6.2-1.1.6-1.6h.1c.4 0 .6.3.6.8l.2 1.5-1.6.9.1-1.6h0z" class="AM"/><g class="AN"><path d="M241 160.6l-1.6-.9c-.1 0-.1-.1-.1-.2h.1l1.6.9.2.3-.2-.1z"/><path d="M239.3 159.4l1.8 1.3-1.2.7-1.8-1.3 1.2-.7z"/></g><path d="M239.8 161.4l-1.6-1-.2-.2h.2l1.6 1c.1 0 .1.1.1.2h-.1z" class="AM"/><g class="AN"><path d="M235 157.1l-1.6-.9-.2-.3h.2l1.6.9v.2c.1.1.1.2 0 .1z"/><path d="M233.3 155.9l1.8 1.2-1.2.7-1.9-1.2 1.3-.7h0 0z"/></g><path d="M233.8 157.8l-1.7-.9v-.2c0-.1.1-.2.1-.1l1.7.9v.3h-.1z" class="AM"/><g class="w"><path d="M231.8 136.8l.9-.2c1-.4 1.6-1.4 1.4-2.5v-.8l-2.5-17.9v-.7c-.1-.3-.1-.5-.2-.8-.6-1.1-1.7-1.8-2.9-1.9l-1.2.2c-1.4.6-2.2 2.1-1.8 3.6v.9l3.9 17.4.2.9c0 .2 0 .3.1.3a2.16 2.16 0 0 0 2.1 1.5h0 0z"/><path d="M237.1 152.6c.4.1.8-.1 1-.4.3-.4.4-1 .2-1.5-.3-1.4-3.3-12.9-3.9-15.2v-1.1c-.2-1.1-1.1-1.9-2.2-1.9h-.5c-1.2.2-2.1 1.3-1.9 2.5v.7c.6 3.8 2.6 9.2 6.2 15.8l.2.4c.1.4.5.7.9.7z"/></g><path d="M226.6 125.7c-.6-1.7-1.1-6.6-1.8-9.8-.4-1.7.5-3.5 2.2-4.1 1.7-.7 3.7 0 4.5 1.7h0c0 .1.1.2.1.3.1.3.2.5.2.8.6 3.7.5 6.5 1.3 10.3.2 1.3-5.9 2.4-6.5.8z" class="AE"/><path d="M236.1 148.5c.6-.2 1.3 0 1.6.5v.3l1.1 2.7 1.1 3.4c.1.1.1.2 0 .3h0l-.4 1.9-2.8-1-.5-1.1-.5-1.6c-.1-.1-.1-.3-.1-.5v-1.7l-.6-1.5c-.3-.7 0-1.4.7-1.7h.4 0 0z" class="w"/><path d="M239.5 160.2c.3 0 .5-.2.5-.4v-.1c0-.1-.1-3.2-2.5-4.1-1-.4-2.1-.2-3 .4-.2.1-.3.3-.2.5 0 .1.1.1.1.2.1.3.4.3.7.1.6-.4 1.4-.5 2.1-.3 1.7.7 1.8 3.2 1.8 3.3.1.2.3.4.5.4h0 0z" class="AN"/><g class="AC"><path d="M238.1 158.4l-.8-1.2c-.1-.2 0-.4.2-.4h.3l.6.8.4 1h-.2c-.2.1-.4 0-.5-.2h0 0z"/><path d="M237.8 157.9v-.8l-.3-.3-.3-.8c0-.2-.1-.3-.2-.3l-.4.2-.2 1.3.6 1.3.8-.6h0z"/><path d="M236.4 156.8v-1.2c0-.1-.1-.3-.2-.3-.2 0-.3.1-.3.3h0 0l-.3 1.2.4.8c.1.3.4.5.7.5h.2l-.5-1.3h0z"/><path d="M236.1 157.7l-.8-.4c-.1 0-.1-.1-.1-.3v-.9l.2-.2.2.2v.8l.5.8h0z"/></g><path d="M236.9 151.9a3.75 3.75 0 0 0 0 2.1l.6 2.1v1.1l-.5.7c-.1.3-.1.6-.1.9-.1.1 0 .3.2.4.2 0 .3-.1.4-.2.2-.3.5-.6.8-.8.1-.1.1-.3.2-.6l.5-4.7-2.1-1h0z" class="w"/><ellipse cx="217.4" cy="220" rx="26.9" ry="15.5" class="x AA AD"/><path d="M211.4 222.5l2.6-.4s-1.6-4.9-2.6-4.9 0 5.3 0 5.3h0 0zm8.1-3.5l2.4-.5s-1.6-5.6-2.4-5.5 0 6 0 6z" fill="#272333"/><g class="AF"><path d="M227.3 219.2l-.6 3.5c-.3 1-6 1.3-6.3-1.1l-.9-7.2v4.7l-.8-.6v-4.2c-.1-1.1 0-2.2.3-3.2.5-1.1 5.1 4.9 5.1 4.9l3.2 3.2h0z"/><path d="M222.9 222.3l-.5 3.4c0 .3-8.3 1-8.6-.9s-1.4-5.3-2.4-6.3v3.9c0 .5-1.4-.7-1.4-.7v-7.6c.2-1 12.9 8.2 12.9 8.2h0 0z"/></g><path d="M225.6 205.3v7.5c.2 1.8 2.1 5.3 1.6 6.7s-4.5 1.6-5.8-.5c-.6-1.4-1.1-3-1.4-4.5-.6-1-.9-2.2-.9-3.4.1-1.5.9-3.6.9-5.8h5.6 0zm-14.7 2.8l-.2 3.7c-.7 1-1 2.2-.8 3.4l4 6.1c1.4 1.4 3.3 2.2 5.3 2.2 2.2 0 3.4-.4 3.6-1 .2-.8-.1-1.6-.8-2.1-1.8-1.4-3.2-3.3-3.8-5.5s-1.1-4.5-1.3-6.8h-6 0z" class="z"/><path d="M210.9 208.1l.2.2c.9.5 1.8.6 2.8.5 1 .1 1.9-.1 2.8-.4l.2-.3c0-.1 0-.2-.1-.2-.9-.4-1.9-.5-2.9-.5-.9 0-1.8.2-2.7.4l-.3.3zm9.1-2.8h0c.3.4 1.4.6 2.8.6 1 .1 2-.1 2.8-.6h0c-.1-.4-1.3-.7-2.8-.7-.9 0-1.9.1-2.7.5-.1 0-.1.1-.1.2z" fill="#524d66"/><g transform="translate(-57.8 -148.5)"><linearGradient id="J" gradientUnits="userSpaceOnUse" x1="279.573" y1="344.314" x2="268.869" y2="344.314"><stop offset="0" stop-color="#ffc2ce"/><stop offset=".29" stop-color="#fdbecd"/><stop offset=".59" stop-color="#f6b2c8"/><stop offset=".88" stop-color="#eb9ec1"/><stop offset="1" stop-color="#e694be"/></linearGradient><path d="M268.9 356.8c.9.5 1.8.6 2.8.5 1 .1 1.9-.1 2.8-.4-.1-.1 0-.3.1-.5l4.9-21h.1c.1-2.1-1.6-3.9-3.7-4.1h0c-1.8-.1-3.4 1-3.9 2.7h0l-3 22.3c-.1.2-.1.3-.1.5h0z" fill="url(#J)"/><linearGradient id="K" gradientUnits="userSpaceOnUse" x1="288.072" y1="341.142" x2="277.832" y2="341.142"><stop offset="0" stop-color="#ffc2ce"/><stop offset=".29" stop-color="#fdbecd"/><stop offset=".59" stop-color="#f6b2c8"/><stop offset=".88" stop-color="#eb9ec1"/><stop offset="1" stop-color="#e694be"/></linearGradient><path d="M277.8 353.9c.3.4 1.4.6 2.8.6 1 .1 2-.1 2.8-.6h0l4.6-21.5v-.2c.2-2.1-1.1-4-3.2-4.4-2.1-.3-4 1.1-4.4 3.1h0v.2l-2.6 22.6v.2h0z" fill="url(#K)"/></g><path d="M219.9 147.2c.5-3.7 3.8-6.3 7.5-5.9 3.1.4 5.6 2.8 6 5.9v.6l-2.9 35.5c-.1 2-1.8 3.6-3.8 3.5-2 .1-3.7-1.5-3.9-3.5l-2.8-35.5c-.1-.1-.1-.4-.1-.6z" fill="#efc2cc"/><path d="M211.2 150.4c-.1-3.7 2.9-6.7 6.6-6.8h.2a6.7 6.7 0 0 1 6.7 6.7h0v.5l-2.9 35.5c-.1 2-1.8 3.6-3.8 3.6-2 .1-3.7-1.5-3.8-3.5l-2.9-35.5c0-.2-.1-.3-.1-.5z" class="w"/><path d="M232.4 140.7c1.6 3.4 2.9 8.3 2.1 17.6-.6 6.4-2.6 14.6-2.2 25.3.3 6.9-23.7 7.3-23.3 3.4s2.2-13.1 2.4-18.9c.4-10.7-2.8-20.6 2.2-25.7s17.2-5.1 18.8-1.7h0 0z" class="AF"/><g class="AE"><path d="M234.3 144.6c-.3-2.1-1.9-5-3.1-7.3s-1-5.2 0-6.6 2.3-3 1.3-5.3a45.78 45.78 0 0 1-1.8-7.3c-.2-1 .1-6.4-2.3-6.5s-4.9 1.2-8.2 2.6-9.4 4.4-10.2 7.4 2.5 11.1 3.2 14.4-2.2 8.9-2.2 12.2 23.7.1 23.3-3.6h0 0z"/><path d="M228.6 148.2l-2.1.5-1 .3-1.5.3h-.1l-1.4.3h-.1l-1.4.3h-1.5l-1.6.2H211v-.9c0-.1 0-.2.1-.3v-.6c.1-.1.1-.2.1-.3 0-.2.1-.4.1-.6v-.2c.1-.3.2-.6.2-.9l.3-1c.1-.2.1-.5.2-.8s.1-.3.2-.4.1-.5.1-.7c.1-.1.1-.2.1-.3l.3-1 .3-1.6c0-.3.1-.5.1-.8s.1-.5.1-.7-.1-.9-.1-1.3-2.5-8.9-3-10.4 3.7 8 9.4 6.7c3.4-.8 3.2-2.6 5.9-3.4s2.8.6 5.3 0c1-.2 1.8-1 2.1-1.9v.5h-.1c0 .3-.1.6-.2.9h0l-.5.9h0l-.6.7-.2.3h-.1l-.2.3h0v1.2c-.1 0-.1.1-.1.2v.5h-.1v.5c0 .3 0 .7.1 1h0v.4c0 .1.1.1.1.2s0 .3.1.4h0c.1.3.1.6.2.8l.3.7.5.9c.1.3.3.7.5.9l.4 1 .5.9.3.7h0l.3.6.2.6h0c.1.1.1.2.1.4h.1c0 .2 0 .3.1.4h0c0 .2.1.3.1.5v.2h0l-.3.4h0l-.2.2-.7.6h-.2l-.6.4-1.1.5-1.7.7-1.2.1h0z"/></g><g class="w"><path d="M214.9 118.8c.4 1.5 3.5 2 6.9 1.1s5.7-3 5.3-4.5-3.5-2-6.9-1.1-5.7 3-5.3 4.5z"/><path d="M220.4 106.3c1.6 0 2.8 1.2 3 2.8l.2 7.6c.3 1.6-.7 3.2-2.3 3.5s-3.1-.7-3.4-2.3c-.1-.4-.1-.7 0-1.1l-.2-7.5c-.1-1.5 1.1-2.8 2.7-3h0zm-11.9 37.6c.8-.2 1.5-.8 1.8-1.6v-.8l5.5-17.2.3-.8c0-.2.1-.4.1-.7 0-.8-.2-1.6-.7-2.2-.6-.6-1.3-1-2.1-1.1h-.8c-1.2.3-2.2 1.2-2.5 2.4v1l-4.1 17.4-.2.7v.4c-.1.6.1 1.2.5 1.7s1 .8 1.6.8h.6 0z"/><path d="M226.5 138.9c-.3-.5-.9-.7-1.5-.7l-15.7.8h-1.1c-.6 0-1.2.3-1.7.7s-.7 1-.7 1.6c0 .4.1.8.3 1.1.3.7 1 1.2 1.8 1.2h.7c3.9.2 9.5-.8 16.8-2.9h.3c.4 0 .7-.3.8-.7.2-.3.2-.8 0-1.1h0 0z"/></g><path d="M216.7 123.7l-2.7 8.5c-.7 1.7-6.5-.5-6.1-2.1l1.9-8.3c.4-1.9 2.4-3.2 4.3-2.7 1.8.4 3 2 2.8 3.8-.1.3-.1.6-.2.8z" class="AE"/><path d="M226.5 138.9l4.5-5.1a.55.55 0 0 1 .5-.3l3.9-.7c.1 0 .2.1.1.2l-4.4 5.2-4.6.7h0z" class="AF"/><path d="M220.8 138.4l2.8-.3 2.5-2.1c.3-.3.7-.5 1.1-.6l1.7-.5 1.4-.3-.7.8-.4.4-1.4.7 1.6-.3 3-1 .4.2c.1.1 0 .3-.1.4l-2.3 1.4 3.1-1.7h.3c.2.2.2.4 0 .5l-1.3 1.1c0 .1 0 .2-.1.3l-3.6 3-4.2.7-2.9.8c-1.7.3-2.4-3.1-.9-3.5h0 0z" class="w"/><path d="M220.4 106.3c1.6 0 2.8 1.2 3 2.8l.2 6.8c-.6.3-1.3.4-2 .4-1.4 0-2.7-.4-3.7-1.3l-.2-5.7c-.1-1.5 1.1-2.8 2.7-3z" class="AC"/><path d="M229.7 104.5s0 4.1-.9 5c-.4.6-1.3.8-1.9.4l1.4-5.2c0 0 1.4-.2 1.4-.2z" fill="#626495"/><g class="z"><path d="M218.9 99.1c1.8 0 3-.8 3.1-1.9a2.22 2.22 0 0 0-2.2-2.2h-.4c-1.7.1-3.1 1.5-2.8 2.6s2.3 1.5 2.3 1.5h0 0z"/><path d="M218.4 102c1.3-.3 2.2-1.5 2.1-2.8 0-.2-.1-.3-.1-.5-.5-1.4-2-2.2-3.5-1.9l-.4.2c-1.5.5-2.3 2-1.8 3.5v.1h.1c.4 1.3 1.9 1.8 3.6 1.3v.1h0z"/></g><path d="M223.4 100.6a2.47 2.47 0 0 0 .5-2.2c-.3-1.2-1.5-1.9-2.7-1.6h0c-1.1.3-3.6 1.9-3.9 3.4s1.2 2 2.5 1.8c1.3-.3 2.5-.8 3.6-1.4h0 0z" fill="#352364"/><linearGradient id="L" gradientUnits="userSpaceOnUse" x1="228.563" y1="108.298" x2="215.703" y2="108.298"><stop offset="0" stop-color="#ffc2ce"/><stop offset=".29" stop-color="#fdbecd"/><stop offset=".59" stop-color="#f6b2c8"/><stop offset=".88" stop-color="#eb9ec1"/><stop offset="1" stop-color="#e694be"/></linearGradient><path d="M224.9 116.7h1.1c.1-.1.9-1.7 1.3-2.3.7-.8 1.1-1.8 1.2-2.9.1-1.4-.3-2.6-.2-3.4 1.1-3.2-.6-6.7-3.8-7.9-1.1-.3-2.3-.4-3.4-.2-2.9.3-5.1 2.7-5.3 5.6-.1 2.5.7 5 2.4 6.9 1.3 1.5 2.8 2.8 4.5 3.7.7.3 1.4.5 2.2.5z" fill="url(#L)"/><g class="z"><path d="M219.3 100c-.5.9 1 4.7 3.2 5.2s4.1-.7 5.7 1.4c.6.8.8 1.9.6 2.9 0 0 2.1-2.5 1.8-4.4-.4-1.7-1.6-3.2-3.3-3.8 0-1-.7-1.9-1.6-2.3-2.2-.8-5.9.1-6.4 1z"/><path d="M222.2 99.5c-1.4.1-2.8.4-4.2.7-1.7.5-3 1.8-3.4 3.5-.5 1.9 1.7 4.2 1.5 8.1s1.7 2.4 1.7 2.4c.1-1.3.4-2.5 1-3.7.9-2.1 3.7-1.3 5.9-5.4s-2.5-5.6-2.5-5.6z"/></g><path d="M219.7 109.7c-1.1-.7-2.3-.7-2.7-.1s.1 1.8 1.2 2.5 2.4.7 2.8 0-.2-1.7-1.3-2.4z" class="w"/><path d="M172.8 266.9l-.3-.2c-.1 0-.1-.1 0-.2l1-.6h.6v.2l-1 .6-.3.2zm-1.3 1l1-.7c.1-.1.1-.1 0-.2h-.6l-1 .6c-.1.1-.1.2 0 .2l.3.2.3-.1zm-1.5 1l1-.7v-.2h-.4c0-.1-.2-.1-.2 0l-1 .7c-.1 0-.1.1 0 .1l.3.2.3-.1h0zm-1.6 1l1-.7c.1 0 .1-.1 0-.1l-.3-.2h-.3l-1 .7c-.1 0-.1.1 0 .1l.3.2h.3zm-1.6 1l1.1-.7h0l-.4-.2h-.2l-1 .7c-.1 0-.1.1 0 .1l.3.2.2-.1h0zm-1.5 1l1-.7c.1 0 .1-.1 0-.1l-.3-.2h-.3l-1 .7c-.1 0-.1.1 0 .1l.3.2h.3zm-1.6 1l1.1-.7h0l-.4-.2h-.2l-1.1.7h.1l.3.2h.2 0zm-1.5 1l1-.7c.1 0 .1-.1 0-.1l-.3-.2h-.3l-1 .7c-.1 0-.1.1 0 .1l.3.2h.3zm-1.6 1l1.1-.7h-.1l-.3-.2h-.2l-1.1.7h0l.4.2h.2 0zm-1.5 1l1-.7c.1 0 .1-.1 0-.1l-.3-.2h-.3l-1 .7c-.1 0-.1.1 0 .1l.3.2h.3zm-1.6 1l1-.7c.1 0 .1-.1 0-.1l-.3-.2h-.3l-1 .7h0l.4.2c0 .2.2.1.2.1h0 0zm17.1-11.1l1-.6c.1-.1.1-.1 0-.2h-.6l-1 .6c-.1.1-.1.1 0 .2l.4.2.2-.2h0zm-7 3.7l1-.6h0l-1.1-.5h-.1l-1 .6h0l1.1.5h.1zm-1.3.8l1-.6c.1 0 .1-.1 0-.1l-1-.5h-.2l-1 .6h0l1.2.6h0zm-1.3.9l1.1-.7h-.1l-1-.5h-.1l-1 .7h0l1 .6.1-.1zm-1.2.8l1-.7h0l-1.1-.6h-.1l-1 .7c-.1 0-.1 0 0 .1l1 .5h.2 0zm-1.3.8l1-.6h0l-1.1-.6h-.1l-1 .6h0l1.1.5.1.1zm-1.3.8l1-.6c.1 0 .1-.1 0-.1l-1-.5h-.2l-1 .6h0l1.1.5c0 .2.1.2.1.1h0 0zm-1.2.9l1-.7h0l-1.1-.5h-.1l-1 .6c-.1.1-.1.1 0 .1l1 .6.2-.1h0zm-1.3.8l1-.7h0l-1.1-.6h-.1l-1 .7h0l1.1.6h.1zm-2 1.3l1.7-1.1c.1-.1.1-.1 0-.1l-1-.6h-.2l-1.7 1.1h0l1.1.6.1.1h0zm8-11.5l1-.6c.1-.1.1-.1 0-.1l-1-.5h-.2l-1 .6h0l1.1.5.1.1h0zm-1.2.8l1-.6h0l-1.1-.5h-.1l-1 .6c-.1.1-.1.1 0 .1l1 .5.2-.1h0zm-1.3.9l1-.7h0l-1.1-.5h-.1l-1 .7h0l1.1.6.1-.1zm-7.6 4.9l1-.6h0l-1.1-.6h-.1l-1 .7c-.1 0-.1 0 0 .1l1 .5.2-.1h0zm-1.3.8l1-.6h0l-1.1-.5h-.1l-1 .6h0l1.1.5h.1zm-2 1.3l1.7-1.1c.1 0 .1-.1 0-.1l-1-.5h-.2l-1.7 1.1h0l1.1.5.1.1h0zm3.9.8l-1 .7h0l1 .6h.2l1-.7h0l-1.1-.5-.1-.1h0zm1.2-.8l-1 .6h0l1.1.6h.1l1-.6c.1 0 .1-.1 0-.1l-1-.5h-.2 0zm1.3-.8l-1 .6h0l1.1.5h.1l1-.6c.1 0 0-.1 0-.1l-1.1-.5-.1.1zm1.3-.9l-1 .7h0l1.1.5h.1l1-.6h0l-1.1-.6h-.1zm1.3-.8l-1 .7h0l1 .6h.2l1-.7h0l-1.2-.6h0zm1.2-.8l-1 .6h0l1.1.6h.1l1-.7c.1 0 .1 0 0-.1l-1-.5-.2.1h0zm1.3-.8l-1 .6h0l1.1.5h.1l1-.6h0l-1.1-.5h-.1zm1.3-.8l-1 .6c-.1 0-.1.1 0 .1l1 .5h.2l1-.6h0l-1.2-.6h0zm1.2-.9l-1 .7h0l1.1.5h.1l1-.7h0l-1-.6-.2.1h0zm1.3-.8l-1 .7h0l1.1.6h.1l1-.7h0l-1.1-.5-.1-.1zm-1.9-.3l-1 .6h0l1.1.6h.1l1-.6h0l-1.1-.5-.1-.1zm-1.3.8l-1 .7h0l1.1.6h.1l1-.7c.1 0 .1 0 0-.1l-1-.5h-.2 0zm-1.2.8l-1 .7c-.1 0-.1 0 0 .1l1 .5h.2l1-.7h0l-1.2-.6h0zm-1.3.9l-1 .6c-.1 0 0 .1 0 .1l1.1.5h.1l1-.6h0l-1.1-.6h-.1zm-1.3.8l-1 .6h0l1.1.5h.1l1-.6h0l-1.1-.5h-.1zm-1.3.8l-1 .6h0l1.1.6h.1l1-.7c.1 0 .1 0 0-.1l-1-.5-.2.1h0zm-1.2.8l-1 .7h0l1 .6h.2l1-.7h0l-1.2-.6h0zm-1.3.8l-1 .7h0l1.1.5h.1l1-.6h0l-1.1-.6h-.1zm-1.3.9l-1.7 1.1h0l1.1.6h.1l1.7-1.1c.1 0 .1-.1 0-.1l-1-.5c-.1-.1-.1-.1-.2 0h0 0zm11.5-7.4l-1 .6c-.1 0-.1.1 0 .1l1 .5h.2l1-.6h0l-1.1-.5-.1-.1h0zm5.1-1.8l-1 .6h0l1.1.5h.1l1-.6c.1 0 .1-.1 0-.1l-1-.5-.2.1h0zm-1.2.8l-1 .7h0l1 .6h.2l1-.7h0l-1.1-.5-.1-.1h0zm2.5-1.6l-1 .6h0l1.1.5h.1l1-.6h0l-1.1-.5c0-.1-.1-.1-.1 0zm.1 1.5l-1 .6c-.1 0-.1.1 0 .1l1 .5h.2l1-.6h0l-1.1-.5c0-.2-.1-.2-.1-.1h0 0zm-5.4-2.8l-1 .7h0l.5.3h.1l1-.7h0l-.5-.2-.1-.1h0zm-1.3.8l-1 .7h0l.5.2h.1l1-.7h0l-.5-.3-.1.1h0zm2.6-1.6l-1 .6c-.1.1-.1.1 0 .1l.4.3h.2l1-.6h0l-.5-.2-.1-.2h0zm-.6 1.2l-1 .6h0l.5.2h.1l1-.6h0l-.5-.2h-.1zm3.4 3.2l-1 .6h0l1.1.6h.1l1-.7h0l-1.1-.5h-.1zm2.5-1.7l-1 .7h0l1.1.5h.1l1-.6c.1-.1.1-.1 0-.1l-1-.6-.2.1h0zm-5.6 3.5l1.7-1.1h0l-1.1-.6-1.3-.7h-.2l-1 .7h0l1.3.6h0l-.6.3c-.1.1-.1.1 0 .1l1 .6.2.1h0zm-2.2-3.1l-2.6 1.8h0l1 .6h.2l2.6-1.7h0l-1.2-.7h0 0zm-4.1 2.7l-1 .7h0l1 .6h.2l1-.7h0l-1.2-.6h0zm-1.3.8l-1 .7h0l1.1.5h.1l1-.6h0l-1.1-.6h-.1zm-1.3.9l-1 .6h0l1.1.5h.1l1-.6c.1 0 .1-.1 0-.1l-1-.5-.2.1h0zm-1.3.8l-1 .6h.1l1 .6h.1l1-.7c.1 0 .1-.1 0-.1l-1-.5-.2.1h0zm-1.2.8l-1 .7h0l1 .6h.2l1-.7h0l-1.2-.6h0zm-1.3.8l-1 .7h0l1.1.5h.1l1-.7h0l-1.1-.6-.1.1zm-1.3.9l-1 .6h0l1.1.5h.1l1-.6c.1-.1.1-.1 0-.1l-1-.5-.2.1h0zm-1.2.8l-1.4.9c-.1 0-.1 0 0 .1l1 .5h.2l1.4-.9h0l-1.1-.5-.1-.1h0zm10.1-6.6l-1 .7h0l1.1.5h.1l1-.7h0l-1.1-.6-.1.1zm5.9 2.3l2.2-1.5h0l-1-.6h-.2l-2.2 1.5c-.1 0-.1 0 0 .1l1 .5h.2zm-13.1 2.2l6.1-4h0l-1-.6h-.2l-6.1 4h.1l1.1.6h0 0z" class="y"/><path d="M146.6 216.9s2.5-1.1 2.2-3.1-3.1-1.8-3.1-1.8l.9 4.9h0z" class="AB"/><g class="AI"><path d="M151.6 246.9c0-.2-.1-.3-.1-.4l-6.4-16.9c-.8-1.9 0-4.1 1.9-5 2-1 4.4-.2 5.5 1.7.1.2.1.4.2.6l5.6 17.1c.6 1.7-.2 3.6-1.8 4.4-1.8.9-3.9.2-4.9-1.5h0 0z"/><path d="M164.7 260c-1.3.9-3.1.6-4.1-.7l-8.5-11.4v-.2c-1.2-1.7-.8-4 .9-5.1l.1-.1a3.82 3.82 0 0 1 5.2 1h0v.2l7.4 12.2c.8 1.4.3 3.2-1.1 4.1h.1 0z"/></g><linearGradient id="M" gradientUnits="userSpaceOnUse" x1="165.644" y1="257.576" x2="160.534" y2="257.576"><stop offset="0" stop-color="#f7f7ff"/><stop offset="1" stop-color="#eeeef6"/></linearGradient><path d="M161.7 255.6a2.53 2.53 0 0 1 3.4.8c.5 1.3-.1 2.7-1.4 3.3-.9.4-2 .2-2.7-.6h0c-.8-1-.6-2.5.4-3.3h.3v-.2h0z" fill="url(#M)"/><path d="M170.7 312.2c0 .2 0 .5.1.7.9.9 1.8 1.6 2.9 2.2 1.2 1 2.7 1.5 4.2 1.5 1.8 0 4-.3 4.6-1 .2-.2.3-.5.2-.8h-.1s.4.1.5 1.2c0 .7-.3 1.3-.9 1.7a9.26 9.26 0 0 1-7.3-.3c-1.7-1-1.5-1.5-2.5-2.1s-1.6-1-1.7-1.6c-.1-.5-.1-1 0-1.5h0 0z" fill="#0c0c11"/><path d="M178.5 298.1c-.1 1.2-.3 2.4-.6 3.6-.5 1.2-.7 2.5-.6 3.8 0 0 .1.8 2.5 1.2s3.4.5 4.6 1.1c1.4 1 3.1 1.5 4.8 1.6 2.3.1 4.1-.4 4.4-1.1s-.2-1.1-1-1.5-4.2-1.8-5.3-2.9c-1.3-1.5-2.4-3.3-3.3-5.1-.6-1.3-5.4-1.7-5.5-.7h0 0z" class="AG"/><path d="M193.6 308v.3c-.3.7-2.1 1.2-4.4 1.1-1.7-.1-3.4-.6-4.8-1.6-1.2-.6-2.2-.7-4.6-1.1s-2.5-1.2-2.5-1.2v-.2l-.2 1.6c.4.5 1 .8 1.7.8a25.85 25.85 0 0 1 4 .9c1.3.3 3.2 1.5 4.5 1.7 4.3.5 5.8-.3 6-.6.2-.5.3-1.1.3-1.7h0 0z" fill="#0c0c11"/><g class="AG"><path d="M179.3 303.6l-1.8-.2c.1-.6.2-1.1.4-1.7.3-1.2.5-2.4.6-3.6.1-1 4.9-.6 5.5.7.2.7.6 1.3 1 1.8a6.49 6.49 0 0 1-5.7 3h0 0zm-8.7 2.5c.1 1.1.1 2 .1 2.8s-.2 3.5.1 4c.9.9 1.8 1.6 2.9 2.2 1.3 1.1 2.9 1.7 4.6 1.7 1.8.1 3.8-.3 4.4-1.2s-.2-1.2-.9-1.6c-1.4-.9-2.7-1.9-3.9-3.1-1.6-1.7-2.5-5-3.4-5.7s-3.9-.2-3.9.9h0 0z"/><path d="M174.5 305.2c.7.5 1.3 2.4 2.2 4-1.2 1.7-3.2 2.6-5.3 2.5h-.7c-.1-.9-.1-1.9 0-2.8v-2.8c-.1-1.1 2.6-1.8 3.8-.9h0 0z"/></g><g class="AF"><path d="M141.2 260.6c1.2-3.7 5-5.7 8.7-4.6h.1l31.8 10.3c1.4.6 2.6 1.7 3.2 3.1 0 .1.1.3.1.4.2.5.3 1 .3 1.5 0 10.1-.9 18.4-.3 28.5.1 2.8-8.5 2.8-8.5 0 0-8.7-.9-16.2-1.2-24.6l-28.9-5.6h-.7c-3.7-1.1-5.8-5-4.7-8.7.1-.1.1-.1.1-.3h0 0z"/><path d="M134.4 260.2c2.2-3.2 6.4-4.1 9.7-2.1h.1l28 18.2 1.1 1v.2l.3.4c.4.7.7 1.4.8 2.2 1.2 10 1.2 18.1 2.4 28 .3 2.8-7.7 3.4-8 .6-1.1-9.1-2.8-16.1-4-24.8l-27.6-13.6-.7-.3c-3.3-2.1-4.3-6.5-2.1-9.8-.1 0-.1 0 0 0h0 0z"/></g><path d="M151.6 225.6c-1-2.5-7.5-1.4-12.6.5s-9.5 4.7-10.9 8.6c-.5 1.2 1.9 9 3.1 17.3l2.5 16.6c.5 2.8 24.5-5.3 23.3-9.6a93.82 93.82 0 0 1-3.3-16.6c-.2-1.3-.2-12.1-2.1-16.8h0 0z" class="AH"/><path d="M166.1 263.4l-3.6 14.9c-.1.3-.1.5-.2.6s0 .1-.1.2l-.3.4h-.2l-.3.3c-.7.4-1.5.4-2.2 0l-11.7-6c-.1 0-.2 0-.2-.2h0v-.5c0-.1.1.2.2.1l20-13.1h.3l1.9.9 10.1 5.2a2.56 2.56 0 0 0 2.1 0l.6-.4c.3-.3.6-.7.7-1.2l3.2-13.3-20.3 12.1h0z" class="u"/><g transform="translate(-57.8 -148.5)"><linearGradient id="N" gradientUnits="userSpaceOnUse" x1="244.24" y1="413.9" x2="205.04" y2="413.9"><stop offset="0" stop-color="#f7f7ff"/><stop offset="1" stop-color="#eeeef6"/></linearGradient><path d="M244.2 399.5l-3.2 13.3c-.1.5-.4.9-.7 1.2l-.6.4a2.56 2.56 0 0 1-2.1 0l-10.2-5.2-1.8-.9h-.3l-20 13.1c-.2 0-.3.1-.3.3s.1.3.3.3h0l11.7 6a1.99 1.99 0 0 0 2.1 0l.4-.3h.1c.2-.1.3-.3.4-.4v-.3c.1-.1.1-.3.2-.6l5.3-14.2 18.7-12.7h0z" fill="url(#N)"/><linearGradient id="O" gradientUnits="userSpaceOnUse" x1="228.765" y1="410.382" x2="219.252" y2="410.382"><stop offset=".03" stop-color="#ecb4bf"/><stop offset=".38" stop-color="#ebb0bf"/><stop offset=".71" stop-color="#e9a5bf"/><stop offset="1" stop-color="#e694be"/></linearGradient><path d="M222.9 405.5c1.1 1.3 2.3 2.5 3.5 3.7l1.7 1.3.7 2.3v.6c-.1.3-.2.5-.4.5l-.2 1.1c0 .2-.1.3-.3.3v.4c0 .2-.1.3-.3.3l-.3-.2-1.1-3.4-.6-.7.3.8 1 3.1c.1.2-.1.4-.3.5h0c-.2.1-.4 0-.5-.2l-1.7-3.2-2-1.7.8 1.7 1 .9.3 1.1c.1.1 0 .2-.1.3h-.6l-.7-.7-.9-.6-1.1-1.3-.9-2.9c-.4-1-.7-2-.9-3-.2-1.5 2-2.8 3.6-1h0 0z" fill="url(#O)"/></g><path d="M161.7 279.2l-.5.7.6-.3 20.1-13.7.6-.4c.3-.3.6-.7.7-1.2l3.7-14.2s-.5-.5-.7-.3l-16.6 10.9-3.2 2.1c-.2.2-.4.3-.4.5l-3.5 14.6c-.1.3-.1.5-.2.6s-.1.1-.1.2-.2.3-.4.4l-.1.1h0z" class="u"/><path d="M162 279.5l20.2-13.3.6-.4c.3-.3.6-.7.7-1.2l3.4-14.3c.1-.2-.2-.4-.4-.3L170 260.9l-3.3 2.2a.55.55 0 0 0-.3.5l-3.6 14.6c-.1.3-.1.5-.2.6h-.1l-.3.5-.2.2h0z" class="AJ"/><path d="M177.6 262.7c.1-1.1-.6-1.6-1.6-1.1-1.1.6-1.8 1.7-1.9 2.9-.1 1.1.6 1.6 1.6 1.1 1.1-.6 1.8-1.7 1.9-2.9z" fill="#f9f9fc" class="AA AD"/><path d="M170 260.9l-3.3 2.2a.55.55 0 0 0-.3.5l-3 12.3c8.4-2.8 14-10.8 13.6-19.6l-7 4.6z" opacity=".3" class="y AA"/><g transform="translate(-57.8 -148.5)"><linearGradient id="P" gradientUnits="userSpaceOnUse" x1="202.086" y1="372.098" x2="194.651" y2="372.098"><stop offset=".03" stop-color="#ecb4bf"/><stop offset="1" stop-color="#e694be"/></linearGradient><path d="M195 378.8v-.3l-.4-9.5c-.1-1.9 1.5-3.5 3.4-3.6h0c1.9-.1 3.6 1.4 3.7 3.3h0l.4 9.4c0 .2-.1.3-.1.5l-7 .2h0z" fill="url(#P)"/><linearGradient id="Q" gradientUnits="userSpaceOnUse" x1="200.874" y1="417.746" x2="200.874" y2="390.53"><stop offset="0" stop-color="#fe9459"/><stop offset=".47" stop-color="#fe9960"/><stop offset="1" stop-color="#fea26f"/></linearGradient><path d="M211.4 411.5c-6.5 3.8-19.5 7.6-19.9 5.6l-2.5-16.6c-.6-4.1-1.5-8.1-2.2-11.2h2.9s4.4 7.3 8.6 7 10.4-4.2 12.6-5.6l.6-.7v.9c.1.5.1 1.3.3 2.5s.1.5.1.8.6 3.9 1.2 6.8 1 4.1 1.7 6.5-1.2 2.5-3.4 4h0 0z" fill="url(#Q)"/></g><g class="AH"><path d="M131.9 254.9c-.1-.1-.1-.2-.1-.4l-3.8-17.6c-.5-2 .6-4.1 2.6-4.7 2.1-.7 4.3.4 5.1 2.5h0c.1.2.1.4.2.6l3 17.8c.4 2-.9 3.8-2.9 4.2h-.1c-1.7.3-3.5-.7-4-2.4h0 0z"/><path d="M147.9 266.4c-1.1 1.2-2.9 1.3-4.1.2l-.1-.1-10.6-9.5c-.1 0-.1 0-.1-.1h0a3.87 3.87 0 0 1 0-5.3 3.87 3.87 0 0 1 5.3 0h.1l9.6 10.5c1.1 1.2 1 3-.1 4.2v.1h0z"/></g><linearGradient id="R" gradientUnits="userSpaceOnUse" x1="148.87" y1="264.63" x2="143.648" y2="264.63"><stop offset="0" stop-color="#f7f7ff"/><stop offset="1" stop-color="#eeeef6"/></linearGradient><path d="M144.4 262.9c.9-1 2.5-1.2 3.5-.2 1 .9 1.2 2.5.3 3.5h0l-.5.4c-1 .9-2.5.8-3.4-.2l-.1-.1c-.9-1-.8-2.5.2-3.4h0z" fill="url(#R)"/><path d="M136.9 221.5c0-1.9 1.6-3.5 3.5-3.7 1.5 0 2.8.8 3.5 2.1v.4l.2 5.9c-1 .5-2 .6-3.1.5-1.5 0-2.9-.6-4-1.5l-.1-3.7h0 0z" class="AC"/><linearGradient id="S" gradientUnits="userSpaceOnUse" x1="148.369" y1="218.277" x2="135.669" y2="218.277"><stop offset="0" stop-color="#ffc2ce"/><stop offset=".29" stop-color="#fdbecd"/><stop offset=".59" stop-color="#f6b2c8"/><stop offset=".88" stop-color="#eb9ec1"/><stop offset="1" stop-color="#e694be"/></linearGradient><path d="M145.4 226.3l1.1-.3c.1 0 .7-1.7 1-2.2a5.29 5.29 0 0 0 .9-3c0-1.3-.5-2.4-.4-3.2.3-1.4.1-2.9-.5-4.2-1.4-2.5-4.3-3.7-7.1-2.9-2.7.6-4.7 3-4.7 5.8.2 2.4 1.2 4.6 2.9 6.3 1.3 1.4 2.9 2.5 4.7 3.2l2.1.5h0z" fill="url(#S)"/><path d="M147.4 213.3s-1.6-1.8-6.1 0c0 0 2.6-4.5 4.9-3.9s1.2 3.9 1.2 3.9h0 0z" fill="#131036"/><path d="M135.7 210.3c.8-.5 1.7-.9 2.6-1.1l.6-.5c1.6-1.1 3.5-.3 4.4-.1s2.4-.5 4 .6.1 4.1.1 4.1-.5-2.8-2.5-2.7-2.7 4.2-4.1 4.5h-.9c0 .7-.2 1.4-.5 2.1-.2.4-1.3 1-1.3 2v1.7s-.4 2.3-.9 2.4-2-2.7-3-5.8c-.4-1.1-.6-2.2-.6-3.4h-.1c-.4-.2.2-2.3 2.2-3.8z" class="AB"/><path d="M138.5 219.5c.8 1 1 2.2.4 2.6-.9.4-2 .1-2.5-.8-.8-.9-.9-2.2-.4-2.7s1.7 0 2.5.9z" fill="#ffacc8"/><g class="AI"><path d="M137.1 226.4c.6 2.2 2.7 3.7 5 3.5 0 0 .3 5-.3 5.2s-5.6-2.6-5.7-5c.1-1.3.4-2.5 1-3.7z"/><path d="M142.1 229.9s1.5 4.9 2.3 4.3 1.1-3.5.8-5-.6-1.9-1-2.8 0 2.8-2.1 3.5z"/></g><linearGradient id="T" gradientUnits="userSpaceOnUse" x1="160.875" y1="267.457" x2="144.525" y2="267.457"><stop offset=".03" stop-color="#ecb4bf"/><stop offset=".38" stop-color="#ebb0bf"/><stop offset=".71" stop-color="#e9a5bf"/><stop offset="1" stop-color="#e694be"/></linearGradient><path d="M146 266.9l1.7.6 5.1 3.3 2.7 1.4 1.3-.3.2-.2h.4l.9-.3.4-.7.7.2c.2.1.4 0 .5-.2s.1-.4 0-.6h-.1l-2.1-1.8 2.5 1.4c.3.1.5.1.7-.2s0-.3-.1-.5l-1.4-1.7-3.4-2.1-7.7-2.1-1.1-.3c-1-.3-2 .2-2.4 1.2-.5 1-.2 2.2.8 2.7.1 0 .1.1.2.1h.2v.1h0z" fill="url(#T)"/><path d="M266 297.7h.4v-11.6l-.4.3v11.3h0z" class="y"/><linearGradient id="U" gradientUnits="userSpaceOnUse" x1="275.704" y1="271.743" x2="261.144" y2="271.743"><stop offset="0" stop-color="#ffc2ce"/><stop offset=".29" stop-color="#fdbecd"/><stop offset=".59" stop-color="#f6b2c8"/><stop offset=".88" stop-color="#eb9ec1"/><stop offset="1" stop-color="#e694be"/></linearGradient><path d="M273 281.2c.5-.2 1.7-3.5 2.2-4.5s-.1-2.5.1-4.1c.7-2.4.4-5-.9-7.1-2.1-2.9-6.9-4.1-9.8-2.5s-4.1 6.7-3.1 10 8.5 7.3 8.5 7.3l3 .9h0z" fill="url(#U)"/><path d="M273.1 281.1h-.1l-3-.9 1.6-3.9c.3 1.7.8 3.3 1.5 4.8z" class="AC"/><linearGradient id="V" gradientUnits="userSpaceOnUse" x1="270.764" y1="281.9" x2="260.324" y2="281.9"><stop offset="0" stop-color="#ffc2ce"/><stop offset=".29" stop-color="#fdbecd"/><stop offset=".59" stop-color="#f6b2c8"/><stop offset=".88" stop-color="#eb9ec1"/><stop offset="1" stop-color="#e694be"/></linearGradient><path d="M268.3 273.8c1.8.7 2.8 2.7 2.3 4.6l-3.1 9.3c-.7 1.9-2.8 2.9-4.7 2.3-1.9-.7-2.9-2.7-2.3-4.6l3.2-9.3c.7-1.9 2.7-2.9 4.6-2.3z" fill="url(#V)"/><path d="M259.9 282.6l2.4-4.6c.7-1.2 6.4 1.8 7.4 4.3l2.5 7-12.3-6.7h0z" class="AE"/><path d="M280.7 285.9l3.4-1.9v1l-1.5 1h1.7l2.8 1.3c.4.1 0 .9-.5.8l-2.7-.7-1.5.4 1.8.3 2.1.9c.2.1.1.6-.4.6l-1.4-.3v.7l-2 .2c-.4 0-.8.1-1.1.3-.7.8-1.5 1.5-2.4 2.1-1 .4 1.7-6.7 1.7-6.7h0 0z" class="AC"/><linearGradient id="W" gradientUnits="userSpaceOnUse" x1="283.1" y1="288.9" x2="272.495" y2="288.9"><stop offset=".03" stop-color="#ecb4bf"/><stop offset=".38" stop-color="#ebb0bf"/><stop offset=".71" stop-color="#e9a5bf"/><stop offset="1" stop-color="#e694be"/></linearGradient><path d="M272.6 292.3l4.1-3.2c1.3-1.4 2.4-2.9 3.4-4.5.3-.4 2.7-2.3 3-2.6l-.5 1.6a9.51 9.51 0 0 0-1.5 2c.3 1.7.3 3.5-.1 5.2 0 .6-1.9 2.2-4.8 3.1l-2.1 1.9-1.5-3.5z" fill="url(#W)"/><path d="M280.7 288.8l3.2-8.7c.1-.3.5-.5.8-.4l3.6 1.3c.3.1.5.5.4.8l-3.2 8.7c-.1.3-.5.5-.8.4l-3.6-1.3c-.3-.1-.5-.5-.4-.8z" class="AF"/><path d="M280.9 288.1l2.8-7.5 4.7 1.8-2.7 7.5-4.8-1.8z" class="AJ"/><path d="M277.6 288.3c.4-.4.9-.7 1.5-1l2.4-.4 1.9-.7c.2 0 .8.5.4 1-.4.6-1 .9-1.7 1.1l-1.5.6c-.5 1.4-1.6 2.6-3 3.2-1.9.5 0-3.8 0-3.8h0 0z" class="w"/><path d="M276.3 289.3c-1.4-.1-2.6 1-2.8 2.4v.2c-.1 1.4 1 2.7 2.4 2.8h.2c1.5 0 2.7-1.2 2.8-2.7 0-1.4-1.1-2.6-2.5-2.7h-.1 0 0z" class="AJ"/><path d="M277 291.2c-1-1.3-2.9-1.5-4.2-.6h0l-11.6 8.2h-.1a3.78 3.78 0 0 0-.8 5.2h.1c1.2 1.6 3.6 1.9 5.2.7l.1-.1h.1l10.8-9.3c1.1-1.1 1.3-2.8.4-4.1h0 0z" fill="#f8e6ba"/><ellipse cx="268.4" cy="384.8" rx="26.9" ry="15.5" class="x AA AD"/><path d="M269.4 381.9a13.33 13.33 0 0 1-.3 2.8c-.3.6-1.6 3.3-1.2 5.1 0 0 .6 1 2.8.9s3.9-.8 6.2-.7 5.8-.2 7-1.6.8-2.3 0-2.6-2.4.2-3.7-.4-3.6-2.6-4.1-4.2-6.6-.1-6.7.7h0 0z" class="z"/><path d="M276.1 381.2c-.5-1.6-6.6-.1-6.7.7a13.33 13.33 0 0 1-.3 2.8c-.1.1-.2.3-.2.5.8.5 1.7.7 2.6.7 2.3 0 4.4-1.4 5.2-3.6-.3-.3-.5-.7-.6-1.1z" class="AG"/><path d="M284.6 386.6c.2.4 0 1-.7 1.8s-4.7 1.7-7 1.6-4.1.6-6.2.7-2.8-.9-2.8-.9v1.6c0 .3.4 1.1 2.6 1.2s5.6-.6 7.2-.7 4.9-.4 5.8-1c.7-.6 1.2-1.3 1.5-2.2 0-.7-.2-1.4-.4-2.1z" class="AO"/><path d="M252.8 382.6c1.2 1.1 3.1.6 5.2-.9s4.3-1.6 6.4-3.2 2.3-3.7.4-4.2-4.3.3-5.6.1-4.1-.8-5.4 1.9-2.3 5.2-1 6.3h0 0z" class="z"/><path d="M256.4 379.7c3 0 5.4-2.4 5.5-5.4-.9.2-1.8.2-2.7.1-1.2-.1-4.1-.8-5.4 1.9l-.9 2.2c1 .8 2.2 1.3 3.5 1.2h0 0z" class="AG"/><path d="M252.1 382.8v-1.6c0 .5.2 1.1.6 1.4 1.2 1.1 3.1.6 5.2-.9s4.3-1.6 6.4-3.2a3.94 3.94 0 0 0 1.7-2.5v1.5h0c0 .8-.6 1.6-1.7 2.5s-4.3 1.8-6.4 3.2-4 2-5.2.9c-.4-.3-.6-.9-.6-1.4v.1h0z" class="AO"/><g fill="#133a50"><path d="M256.3 347.3v-33.5c0-.3.1-.5.1-.8.5-4 4-6.8 8-6.4 3.9.5 6.8 4 6.4 8h0l-4.2 34.2-.3 1.2c-1.5 9.4-3.3 13.9-4.5 26.2-.3 2.8-9.7 3.3-9.3.5 1.7-10.2 2.3-19.1 3.8-29.4h0 0z"/><path d="M266.9 322.2c0-.3-.1-.5-.1-.8.1-4 3.5-7.2 7.5-7.1 4 .2 7.2 3.5 7.1 7.5h0l-1.3 34.4v.4c-1 10.3-2.7 17.3-2.6 26.5.1 2.8-10 3.1-9.7.2 1-10.2 1-17.2 1.9-27.3l-2.8-33.8h0 0z"/></g><g class="AE"><path d="M282.3 326.2c.2 1.9 1.9 6.5-8.9 6.5s-18-7.3-18-9.6c.1-7.4.3-12.4-.3-17.2s-4.3-23.4-.7-25.9 10 1.6 12.3 3 9.9 6.6 12 9.1 2.6 6.6 1.5 10.8c-.6 3-.5 6.1.2 9.1.5 2.1 1.7 12.3 1.9 14.2z"/><path d="M275 312.2c1.8.1 3.5-.1 5.2-.8.1.2.1.4.2.6.5 2.1 1.7 12.3 1.9 14.2s1.9 6.5-8.9 6.5-18-7.3-18-9.6c.1-7.3.3-12.2-.3-16.9 5.8 2.5 15 6 19.9 6h0 0z"/></g><g class="z"><path d="M262.9 276.4c.1 1.2 3.9 2.1 5 .9s2.8-5 4-4.9c.7.2 1.2.9 1.2 1.6l.9-.4c-.1-1.1-.1-2.2.2-3.2.4-.9.8-1.5-.2-1.7s-11.3-4.5-12.6-2.5c-1.2 1.9-1.3 4.3-.4 6.4.7 2.1 1.9 2.4 1.9 3.8h0 0z"/><path d="M262.5 266.7c-1-.6-1.4-2-.8-3 0 0 0-.1.1-.1 0-.1 0-.1.1-.2l.3-.4c1.1-1.2 4-1.4 5.6-1.2s5.4 1.3 6.4.7c.8-.5 1.9-.3 2.5.5l.3.8c.1 1.7.1 4.5-4 4.9s-8.9-.8-10.5-2h0 0z"/></g><linearGradient id="X" gradientUnits="userSpaceOnUse" x1="287.615" y1="333.84" x2="280.882" y2="333.84"><stop offset=".03" stop-color="#ecb4bf"/><stop offset=".38" stop-color="#ebb0bf"/><stop offset=".71" stop-color="#e9a5bf"/><stop offset="1" stop-color="#e694be"/></linearGradient><path d="M284.5 327.8l.4 1.4 2.6 4.9v4.1l-1.3 1.5-1 .9h-.5c-.1-.1-.1-.2 0-.4v-.2l-1.5.7c-.1.1-.2 0-.3-.1h0c-.1 0-.1-.2 0-.2h0l.4-.5-1.4.7c-.1.1-.2 0-.3-.1h-.1c0-.1 0-.2.1-.3l1.1-1.1.8-1v-2.2l-.5 2.2-1.7 1.7h-.4c-.1 0-.2-.1-.2-.2h0c.1 0 .1 0 .1-.1h0l1-2v-2.1s-1.7-3.8-1-6c-.3-1.1.4-2.2 1.5-2.4.8-.2 1.6.1 2.2.8h0 0z" fill="url(#X)"/><path d="M280.8 327.5c-1 .9-1.1 2.5-.2 3.5h.1c.8 1 2.4 1.2 3.4.3l.1-.1h.1c1-1 1.1-2.6.1-3.6s-2.6-1.1-3.6-.1h0z" class="AJ"/><g transform="translate(-57.8 -148.5)"><linearGradient id="Y" gradientUnits="userSpaceOnUse" x1="342.598" y1="469.656" x2="330.263" y2="469.656"><stop offset="0" stop-color="#552adc"/><stop offset="1" stop-color="#6462dc"/></linearGradient><path d="M340.8 479.3c1.5-.6 2.2-2.3 1.7-3.8l-4.9-13.4v-.2c-.8-1.8-2.9-2.7-4.7-2h-.2c-1.8.7-2.8 2.7-2.2 4.5 0 .1 0 .1.1.1h0v.5l6.2 12.8c.5 1.4 2 2.2 3.4 1.7.1 0 .1 0 .2-.1h.4v-.1z" fill="url(#Y)"/><linearGradient id="Z" gradientUnits="userSpaceOnUse" x1="338.672" y1="453.761" x2="330.372" y2="453.761"><stop offset="0" stop-color="#552adc"/><stop offset="1" stop-color="#6462dc"/></linearGradient><path d="M330.4 463.7v-19.1c.2-2.3 2.2-4 4.5-3.8 1.8.2 3.4 1.5 3.8 3.3v.7l-.8 18.6c-.3 2.1-2.2 3.6-4.2 3.3h-.1c-1.6-.2-2.9-1.4-3.2-3h0z" fill="url(#Z)"/></g><path d="M411.6 286.9l-.2 1c-.2.4-.1.9.2 1.2l.6.5.5-2.2-1.1-.5zm.3 4.7l1.2 2c.1.2.2.2.4.2h.1c.1 0 .2-.2.2-.3l-.4-1.2-.5-1.5 1.5 2c.1.2.3.2.5.1.1-.1.1-.3.1-.5l-.9-1.5-.7-1.4 1.1 1.2c.2.1.4 0 .5-.2v-.3l-1.9-2.4-1.2 3.8h0z" class="AC"/><path d="M413.7 279.4l-1.2 3c-.1.3-1 5.2-1.1 5.6v2.9l.5 2.7c.2.9.4.4.6.3l.2-.4-.3-3 1-3 1.1-.6.9 1.2.4 1.1 1.2 1.2a.61.61 0 0 0 .8 0c.2-.2.2-.5 0-.7l-.7-1.1-.5-1.7-1.6-3.8 2-3.4-3.3-.3h0z" class="w"/><path d="M419.1 242.2c-2.2-.4-4.4 1-4.8 3.3h0c-.1.2-.1.5-.1.7v18.7c0 2 1.7 3.7 3.8 3.6h.2 0c1.7-.1 3.1-1.3 3.5-3v-.4l1-18.7c0-2.1-1.5-3.9-3.5-4.3l-.1.1h0z" class="AI"/><path d="M414.8 278.4c1.3.3 2.1 1.4 1.9 2.7h0v.2c-.2 1.3-1.3 2.3-2.7 2.1-.1 0-.2 0-.2-.1h-.1c-1.4-.2-2.3-1.5-2-2.9v-.1h0c.3-1.4 1.7-2.2 3.1-1.9h0 0z" class="AP"/><path d="M414 282.5a3.18 3.18 0 0 1-2.4-3.5l2.5-14.1v-.2c.5-2 2.5-3.2 4.5-2.8 1.9.4 3.2 2.3 2.8 4.3h0v.2l-3.8 13.7c-.4 1.6-1.9 2.7-3.6 2.4z" class="AK"/><ellipse cx="431" cy="349.2" rx="27" ry="15.6" class="x AA AD"/><path d="M427.9 337c0 1.1.1 2.3.4 3.4.3 1.2.4 2.4.4 3.6 0 0-.1.8-2.4 1.1-1.5 0-3.1.3-4.5.9-1.4.8-2.9 1.3-4.5 1.3-2.2 0-3.9-.5-4.1-1.1s.2-1.3.8-1.5h.1c.7-.3 4.1-1.5 5.1-2.5 1.3-1.5 2.5-3.1 3.4-4.8.6-1.2 5.2-1.3 5.3-.4h0 0z" class="z"/><path d="M413.1 345.9c0 .2 0 .3.1.3s1.9 1.1 4.1 1.1c1.6 0 3.1-.5 4.5-1.3 1.4-.6 3-.9 4.5-.9 2.3-.3 2.4-1.1 2.4-1.1v1.4c0 .2-.5.6-1.6.7l-3.8.6c-1.3.4-3.2 1.4-4.3 1.5-4.2.4-5.6-.5-5.7-.8-.2-.5-.3-1-.2-1.5h0 0zm33.1 2.1l-.3 2.1c-.5 1.8-3.6 2.5-6.1 2.3s-2.2-1-1.9-1.7c-.3.8-.4 1.7-.5 2.5.1.9.6 1.4 2.6 1.6s4.8-.5 5.6-1.8.6-5 .6-5h0 0z" class="AO"/><path d="M445.7 339.2c.2.7 1.1 8 .2 11.1s-3.4 3.3-6.4 2.9-2.1-1.9-1.7-2.7c.8-1.7 1.5-3.5 2-5.3.4-1.6.9-5.4 1.8-6s3.9-.7 4.1 0z" class="z"/><path d="M441.3 345.5l-1.5-.2h0c.4-1.6.9-5.4 1.8-6s3.9-.7 4.1 0c.3 1.3.5 2.7.5 4.1-1.2 1.4-3 2.2-4.9 2.1zm-16.1-3.7c-1.6 0-3.2-.5-4.4-1.6.8-1.1 1.5-2.3 1.8-2.8s5.2-1.3 5.3-.4c0 1.1.1 2.3.4 3.4 0 .2.1.4.1.6-1 .6-2.1.8-3.2.8h0 0z" class="AG"/><g fill="#233862"><path d="M428.7 339c-1-10.4-.7-19.4-1.7-29.8-.5-2.8-3.2-4.6-6-4h-.1c-2.4.4-4.2 2.5-4.2 5 1 10.4 2.7 19.5 3.7 29.9.3 2.8 8.6 1.7 8.3-1.1h0 0z"/><path d="M429.1 275.5a1.1 1.1 0 0 0 0-.8c.2-4-2.8-7.4-6.8-7.7s-7.4 2.6-7.8 6.6v.2h0c-.1.5 0 1.1.1 1.6h0l2.1 34.5c.2 2.8 2.6 5 5.4 4.9 2.7-.1 4.8-2.2 5-4.9l2-34.4h0 0zm17.2 66.7c-1.6-10.3-2-19-3.5-29.3-.6-2.8-3.2-4.7-6-4.4-2.8.5-4.8 3.1-4.3 6h0c1.5 10.3 4.4 16.1 6 28.7.3 2.8 8.2 1.8 7.8-1h0 0z"/><path d="M442.8 313.2l-2.7-34.4c0-.3-.1-.5-.1-.8-.9-3.9-4.6-6.4-8.5-5.8-3.8.7-6.4 4.3-5.9 8.2h.1v.2h0l6.8 33.9c.3 2.8 2.9 4.8 5.7 4.4h.2c2.8-.4 4.8-3 4.4-5.9v.2h0z"/></g><path d="M437.6 286.5c.8.1 1.6.1 2.4-.2.2-5.7.9-34 .3-36s-6.6-5.2-12.3-6.5c-2.3-.6-4.7-.9-7.1-.9-3.3 0-4.6.7-4.8 1.4-1 3.9-.3 11.6 0 15.3.1 1 .2 1.7.2 2.1s-.3 4.1-.6 8.6l-.6 10.2c0 .3.1.5.3.5 2.6 2.8 15.9 5.5 22.2 5.5z" class="AP"/><path d="M431.1 243.7c4.8 1.6 9.5 4.3 10.1 6.3s-.9 13-.7 24.6c.2 6.6 1.6 12.7 1.6 13.7s-9.9 4.3-17.5 2.5c.1-14.4 6.7-47.1 6.5-47.1h0 0zm-15.8 18c0-1.4-1.4-12.5-.1-17.6.5-2.2 4.3-2.5 9-1.9-1.9 1.5-1.6 9.7-1.9 13.7-1 11.3-1 23.8-1.1 33.7-4.5-1.2-8-5.4-7.9-7 .5-8.4 2-19.6 2-20.9z" fill="#ff9843"/><path d="M432.9 247.9c-.2 1.5-3.1 2.3-6.5 1.9s-6-2.1-5.8-3.5 3.1-2.4 6.5-1.9 6 2 5.8 3.5z" class="w"/><path d="M423.6 242l-2.2 33.9c-2-8.8-3.4-17.7-4.1-26.7l3.4-.3-2.4-2.6c1.3-1.7 5.3-4.3 5.3-4.3h0 0z" class="AK"/><path d="M427.1 232.2a3.9 3.9 0 0 1 3.7 3.7v9.8a3.76 3.76 0 0 1-3.7 3.7h0c-2 .1-3.6-1.5-3.7-3.5v-.2-9.8a3.9 3.9 0 0 1 3.7-3.7z" class="w"/><path d="M421.2 227.2c-2.1-.4-3.2 2.7-2.5 3.9s2 .7 2.7 1.7 1.8-5.2-.2-5.6h0 0z" class="AB"/><path d="M427.1 231.2a3.9 3.9 0 0 1 3.7 3.7v7.8c-1 .5-2.2.8-3.3.7-1.4.1-2.9-.3-4.1-1.1v-7.4a3.9 3.9 0 0 1 3.7-3.7h0 0z" class="AC"/><linearGradient id="a" gradientUnits="userSpaceOnUse" x1="432.1" y1="234.202" x2="418.6" y2="234.202"><stop offset="0" stop-color="#e694be"/><stop offset=".12" stop-color="#eb9ec1"/><stop offset=".41" stop-color="#f6b2c8"/><stop offset=".71" stop-color="#fdbecd"/><stop offset="1" stop-color="#ffc2ce"/></linearGradient><path d="M422 242.7c-.4.1-.8 0-1.2-.2-.1 0-.8-1.8-1.1-2.4-.7-.9-1-2-1-3.1 0-1.4.5-2.7.4-3.4-.4-1.5-.2-3.2.5-4.6 1.5-2.6 4.6-3.9 7.5-3.1 3 .5 5.1 3.1 5.1 6.1-.2 2.6-1.3 5-3.1 6.8-1.4 1.5-3.1 2.6-4.9 3.4-.7.4-1.4.5-2.2.5h0 0z" fill="url(#a)"/><g class="AB"><path d="M434.1 229.8c.7 2.3-1.7 5.7-1.7 7.8s-1.6 3.1-1.6 2.9v-5.2s-.6-.7-1.2 1-1.3.4-1.2-.3c.2-.8.3-1.7.2-2.5-.1-.6-1.1-.7-1.4-1.8s6.5-3.7 6.9-1.9h0 0z"/><path d="M432.8 229.8c1.4-.9 1.6-3.1-2.5-4.4-1.2-.4-7.6-.2-8.5-.4s-2.2-.6-3.3.1-1.9 4.3 3 5.9c3.8 1.2 7.9.7 11.3-1.2h0 0z"/></g><g class="AK"><path d="M430.5 252.7l3.3 2.2-8.1 22.2c.1-.4-2.3-15.4 2.9-26 1.4-2.8 2.2-5.9 2.2-9.1 0 0 3.3 5.3 3.7 9.5l-4 1.2z"/><path d="M445.5 270.7c0-.1-.1-.2-.1-.4l-2.8-18.5c-.5-2.2-2.7-3.7-4.9-3.2h-.1c-1.9.4-3.2 2.1-3.3 4h0c0 .2.1.4.1.6l3.6 18.3c.5 2 2.5 3.3 4.6 2.8 1.7-.4 2.9-1.9 2.9-3.6h0 0z"/></g><g class="AH"><use xlink:href="#AA"/><use xlink:href="#AA"/><use xlink:href="#AB"/></g><use xlink:href="#AA" class="AK"/><use xlink:href="#AB" class="AP"/><path d="M422 269.4l-5.9-5.2-.6-.2-4.5-.2c-.1.1-.2.2-.2.3h.1l5.8 5.2 5.3.1h0z" class="AB"/><path d="M427.4 268.1l-2.4-.4-2.9-1.7-1.3-.5-2.1-.3h-1.6l.9.8.5.4 1.7.5h-1.8l-3.6-.7-.4.2c-.1.2-.1.5.1.6h.1l2.8 1.1-3.8-1.4c0-.1-.1-.2-.2-.1s-.2.1-.2.2-.1.4.1.5l1.7 1c-.1.2 0 .3.1.4l4.6 2.8 4.9.2 2.6.2c1.9-.1 1.9-3.5.2-3.8h0 0z" class="w"/><path d="M428.9 236s.4 3.4-.8 4.6c-1.8 1.4-4 2.3-6.3 2.6-1.6.1-1.9-.9-2.3-2.2-.4-.9-.6-1.9-.8-2.9-.3-1 1.6-.9 2.5-.5 1.4.9 3.1 1.2 4.7.8 1.8-.6 2.6-3 2.6-3l.4.6h0z" class="AB"/><path d="M429.1 235.7c-.7 1.1-.8 2.4-.1 2.8s1.8 0 2.5-1.1.9-2.4.2-2.9-1.8.1-2.6 1.2z" class="w"/><path d="M445.4 209.6l22.6 13c.6.4 1 1.1 1 1.8v17.8c0 .6-.4.9-1 .6l-7.9-4.6c-.4-.2-.7-.2-.9.1l-1.6 2.3c-.4.5-1.4 0-1.8-1l-1.6-4.2c-.2-.4-.5-.8-.9-1.1l-7.9-4.6c-.6-.3-1-1-1-1.7v-17.8c0-.7.5-.9 1-.6h0 0z" fill="#575ca9"/><path d="M462.2 227.9c.9.7 1.4 1.6 1.6 2.7 0 1.1-.7 1.5-1.6 1-.9-.6-1.5-1.7-1.6-2.8 0-1 .7-1.5 1.6-.9zm-7.1-2.3c.1 1.1.7 2.2 1.6 2.8.9.5 1.6.1 1.6-.9 0-1.1-.6-2.2-1.6-2.8-.9-.5-1.6-.1-1.6.9zm-5.5-3.2a3.19 3.19 0 0 0 1.6 2.8c.9.5 1.6.1 1.6-.9-.1-1.1-.7-2.1-1.6-2.8-.9-.5-1.6-.1-1.6.9z" class="y"/><g transform="translate(-57.8 -148.5)"><linearGradient id="b" gradientUnits="userSpaceOnUse" x1="30.878" y1="777.52" x2="30.478" y2="777.13" gradientTransform="matrix(26.9 0 0 -34.46 -307.94 27159)"><stop offset="0" stop-color="#dedeee"/><stop offset="1" stop-color="#d3d3e8"/></linearGradient><path d="M526.8 390.7v-17.8c0-.7-.4-1.4-1-1.8l-22.6-13c-.2-.1-.4-.2-.6-.1l2.6-1.1c.2-.1.4 0 .6.1l22.7 13c.5.5.9 1.1 1 1.8v17.8c0 .3-.2.6-.4.7l-2.6 1c.2-.1.3-.4.3-.6h0z" fill="url(#b)"/><linearGradient id="c" gradientUnits="userSpaceOnUse" x1="68.001" y1="594.552" x2="67.351" y2="593.442" gradientTransform="matrix(3.5 0 0 -2.64 280.2 1956.0901)"><stop offset="0" stop-color="#dedeee"/><stop offset="1" stop-color="#d3d3e8"/></linearGradient><path d="M515.4 389.1l1.6-2.3c.2-.3.5-.3.9-.1l.7.4-.6.9h-.2l-2.7 1.2.3-.1z" fill="url(#c)"/></g><path d="M160.3 170.8l-22.7 13c-.6.4-1 1.1-1 1.8v17.8c0 .6.5.9 1 .5l8-4.5c.3-.2.7-.2.8 0l1.7 2.4c.4.5 1.3-.1 1.7-1.1l1.7-4.1c.1-.4.4-.8.8-1.1l8-4.6c.6-.4 1-1.1 1-1.8v-17.7c0-.7-.5-1-1-.6h0 0z" fill="#575ca9"/><path d="M145.1 190a3.66 3.66 0 0 1-1.6 2.7c-.9.5-1.6.1-1.6-.9.1-1.1.7-2.1 1.6-2.8.8-.5 1.6-.1 1.6 1zm3.8-4.1c-.9.7-1.4 1.6-1.6 2.7 0 1.1.8 1.5 1.6 1 1-.6 1.6-1.7 1.7-2.8 0-1-.8-1.4-1.7-.9zm5.5-3.2c-.9.7-1.5 1.7-1.6 2.8 0 1 .7 1.4 1.6.9.9-.6 1.5-1.7 1.6-2.8 0-1-.7-1.4-1.6-.9z" class="y"/><g transform="translate(-57.8 -148.5)"><linearGradient id="d" gradientUnits="userSpaceOnUse" x1="30.925" y1="777.857" x2="30.005" y2="776.927" gradientTransform="matrix(26.9 0 0 -34.47 -618.74 27129.3594)"><stop offset="0" stop-color="#dedeee"/><stop offset="1" stop-color="#d3d3e8"/></linearGradient><path d="M194.4 351.9v-17.8c0-.7.4-1.4 1-1.8l22.7-13c.2-.1.4-.2.6-.1l-2.6-1.1c-.2-.1-.5 0-.7.1l-22.6 13c-.6.4-1 1.1-1 1.8v17.8c0 .2.1.5.3.6l2.6 1.1c-.2-.1-.3-.4-.3-.6z" fill="url(#d)"/><linearGradient id="e" gradientUnits="userSpaceOnUse" x1="66.588" y1="595.122" x2="66.328" y2="594.662" gradientTransform="matrix(3.6 0 0 -2.65 -34.76 1925.7)"><stop offset="0" stop-color="#dedeee"/><stop offset="1" stop-color="#d3d3e8"/></linearGradient><path d="M205.9 350.3l-1.7-2.4c-.1-.2-.5-.2-.8 0l-.8.4.6.9h.2l2.8 1.2-.3-.1z" fill="url(#e)"/></g><path d="M206.2 83l-22.6 13.1c-.6.4-1 1-1 1.7v17.8c0 .7.5.9 1 .6l8-4.6c.3-.2.7-.2.8.1l1.7 2.3c.4.6 1.3 0 1.7-1l1.6-4.2c.2-.4.5-.8.9-1.1l7.9-4.6c.6-.4 1-1 1.1-1.7V83.6c0-.6-.5-.9-1.1-.6h0 0z" class="AQ"/><g transform="translate(-57.8 -148.5)"><linearGradient id="f" gradientUnits="userSpaceOnUse" x1="30.912" y1="777.86" x2="29.992" y2="776.93" gradientTransform="matrix(26.9 0 0 -34.44 -572.74 27018.9102)"><stop offset="0" stop-color="#dedeee"/><stop offset="1" stop-color="#d3d3e8"/></linearGradient><path d="M240.4 264.1v-17.8c0-.7.4-1.3 1-1.7l22.6-13.1h.7l-2.6-1.1c-.2-.1-.4 0-.7.1l-22.6 13c-.6.4-1 1-1 1.7V263c0 .4.1.6.3.7l2.6 1.1c-.2-.2-.3-.4-.3-.7z" fill="url(#f)"/><linearGradient id="g" gradientUnits="userSpaceOnUse" x1="68.339" y1="601.88" x2="68.069" y2="601.43" gradientTransform="matrix(3.5 0 0 -2.75 13.7 1913.5)"><stop offset="0" stop-color="#dedeee"/><stop offset="1" stop-color="#d3d3e8"/></linearGradient><path d="M251.9 262.5l-1.7-2.3c-.1-.3-.5-.3-.8-.1l-.8.5.6.8.2.2c.1 0 2.7 1.2 2.7 1.1s-.2 0-.2-.2z" fill="url(#g)"/></g><path d="M195.4 104v1.6l-1.2.6v-1.6c-1 .5-2.1.6-3.1.2l.7-2a3.31 3.31 0 0 0 2.4 0v-2.4c-1.4.2-2.9.4-2.9-1.6a4.98 4.98 0 0 1 2.9-4.3v-1.6l1.2-.5v1.5c.8-.3 1.7-.3 2.5-.2l-.7 2c-.6-.1-1.2-.1-1.8.1v2.4c1.3-.3 2.8-.4 2.8 1.6-.1 1.8-1.2 3.4-2.8 4.2h0 0zm-1.2-5.7v-2c-.5.3-.9.9-.9 1.5 0 .5.3.6.9.5zm2.1 2.5c0-.5-.4-.6-.9-.6v2c.5-.3.8-.8.9-1.4z" class="AR"/><path d="M250.6 222.7l22.6 13c.6.4 1 1.1 1.1 1.8v17.7c0 .7-.5 1-1.1.6l-7.9-4.5c-.2-.2-.5-.2-.8-.1h-.1l-1.6 2.3c-.4.6-1.3 0-1.7-1l-1.7-4.2a1.59 1.59 0 0 0-.8-1l-8-4.6c-.6-.4-1-1.1-1-1.8v-17.7c0-.6.5-.9 1-.5z" class="AQ"/><g transform="translate(-57.8 -148.5)"><linearGradient id="h" gradientUnits="userSpaceOnUse" x1="30.859" y1="777.553" x2="30.469" y2="777.153" gradientTransform="matrix(26.9 0 0 -34.47 -502.74 27181.2402)"><stop offset="0" stop-color="#dedeee"/><stop offset="1" stop-color="#d3d3e8"/></linearGradient><path d="M332.1 403.7V386c-.1-.7-.5-1.4-1.1-1.8l-22.6-13c-.2-.1-.4-.2-.6-.1l2.6-1.1c.2-.1.5 0 .7.1l22.6 13c.6.4 1 1.1 1 1.8v17.7c0 .4-.1.6-.4.7l-2.5 1.1c.2-.2.3-.4.3-.7z" fill="url(#h)"/><linearGradient id="i" gradientUnits="userSpaceOnUse" x1="65.89" y1="592.776" x2="65.25" y2="591.646" gradientTransform="matrix(3.62 0 0 -2.61 82.428 1949.75)"><stop offset="0" stop-color="#dedeee"/><stop offset="1" stop-color="#d3d3e8"/></linearGradient><path d="M320.6 402.1l1.6-2.3c.2-.2.5-.2.8-.1h.1l.8.4-.6.8-.2.2c-.1 0-2.7 1.2-2.8 1.1s.2.1.3-.1h0 0z" fill="url(#i)"/></g><path d="M262.7 243.4l-2.3-1.4c0-1.8-2.5-3.6-2.5-6.4s1.5-2.4 3.8-1.1c1.9 1.2 3.4 2.9 4.3 4.9l-1.8.2c-.4-1.1-1.2-2-2.2-2.6s-1.7-.4-1.7.4 2.4 3.5 2.4 6h0 0zm-1.1 3.7c-.9-.5-1.5-1.4-1.5-2.4 0-.9.6-1.3 1.5-.8.8.6 1.3 1.4 1.4 2.4 0 .9-.6 1.3-1.4.8z" class="AR"/><path d="M255.4 53.6L280.3 68c.6.5 1 1.2 1.1 1.9v19.6c0 .7-.5 1-1.1.6l-8.8-5c-.4-.2-.7-.2-.9.1l-1.8 2.5c-.4.6-1.5 0-1.9-1.1l-1.8-4.6c-.2-.5-.6-.9-1-1.2l-8.7-5c-.7-.4-1.1-1.2-1.1-2V54.3c0-.7.5-1 1.1-.7h0 0z" class="AQ"/><g transform="translate(-57.8 -148.5)"><linearGradient id="j" gradientUnits="userSpaceOnUse" x1="30.313" y1="778.946" x2="29.913" y2="778.546" gradientTransform="matrix(29.6 0 0 -37.83 -564.46 29680.0801)"><stop offset="0" stop-color="#dedeee"/><stop offset="1" stop-color="#d3d3e8"/></linearGradient><path d="M339.2 238v-19.6c-.1-.7-.5-1.4-1.1-1.9l-24.9-14.4h-.7l2.8-1.2h.8l24.9 14.5c.7.4 1.1 1.1 1.1 1.9v19.5c0 .3-.2.6-.4.7l-2.9 1.2c.2-.1.4-.4.4-.7h0 0z" fill="url(#j)"/><linearGradient id="k" gradientUnits="userSpaceOnUse" x1="63.018" y1="615.25" x2="62.368" y2="614.15" gradientTransform="matrix(3.9 0 0 -2.94 81.56 2045.25)"><stop offset="0" stop-color="#dedeee"/><stop offset="1" stop-color="#d3d3e8"/></linearGradient><path d="M326.6 236.2l1.8-2.5c.2-.3.5-.3.9-.1l.9.5-.7.9-.2.2c-.1 0-2.9 1.3-3 1.2l.3-.2h0z" fill="url(#k)"/></g><path d="M267.4 67.7v8.4l-1.7-.8v-3.5l-3.4-1.7v3.5l-1.7-.9v-8.4l1.7.9v3.3l3.4 1.7v-3.3l1.7.8zm1.4.8c0-.6.4-.9 1-.6a1.78 1.78 0 0 1 1 1.6c0 .6-.4.8-1 .5-.6-.2-1-.8-1-1.5zm.2 2l1.6.8v6.5l-1.6-.9v-6.4zm2.9 6.9c0-.6.4-.8 1-.5a1.78 1.78 0 0 1 1 1.6c0 .6-.4.8-1 .5a1.78 1.78 0 0 1-1-1.6zm0-7.3l2 .9-.3 5.4-1.3-.7-.4-5.6h0z" class="AR"/><path d="M382.3 97.5l-2-.7h0c.3-2.4 0-4.9-.9-7.2-1.4-3.4-4.4-7.2-10.6-8.7h.1c-2.1-3.7-5.3-6.8-9.1-8.7a17.54 17.54 0 0 0-9.8-2v-1.6c.9-.1 1.6-.8 1.6-1.7.1-.9-.5-1.6-1.4-1.8h-.1c-1 0-1.8.8-1.9 1.8-.1.8.5 1.6 1.3 1.7h.1v1.7h-.4l-4.4.8c-2.2-.5-4.4-.5-6.6-.1l-17.1 4-2.5.6h-.2c-2.7 1.2-4 4-4.6 6l-3.6 1.5h-.2c-.4.3-.6.7-.6 1.1 0 0-1.1 11.2-1 12.6-.2.8.3 1.6 1.1 1.8h.1l2.3.7c-.2 3.4.6 6.9 2.2 9.9-4.4 2.4-7.4 6.1-7.8 11.6-1.1 15 9.4 44.3 19.4 59.9 5.4 8.6 11.2 11.9 16.5 12.6s11.1-.2 16.5-6.8c10-12.2 20.4-37.8 19.4-53.2-.4-5.2-2.9-9.6-6.8-13.4h.2c1.7-1.1 2.9-2.9 3.2-4.9l6.5-1.6s.9-.2 1.1-2.1l1.1-12.1c0-.7-.5-1.4-1.1-1.7h0 0z" fill="#0f2bb7"/><path d="M318.5 167.3s-4.1 7.9-9.6 1.5c3.2 1.7 7.1 1.1 9.6-1.5z" fill="#8b21fe"/><path d="M308.1 164.5s-10.7-29.7-.1-41.1c0 0 5.3-5.2 9.5 1.7s3 9.9 3.3 12.9c0 0-1.1 22.9-2.3 24.6 0 0-2.3 5.3-10.4 1.9z" class="x"/><linearGradient id="l" gradientUnits="userSpaceOnUse" x1="360.737" y1="152.61" x2="297.773" y2="142.314"><stop offset="0" stop-color="#fefeff"/><stop offset=".29" stop-color="#f9f8ff"/><stop offset=".69" stop-color="#e9e7ff"/><stop offset="1" stop-color="#d9d4ff"/></linearGradient><path d="M307.5 166.4s-10.9-31-.2-42.9c0 0 5.2-5.3 9.5 1.9s3 10.3 3.4 13.5c0 0-1.1 23.8-2.2 25.5 0 0-2.3 5.6-10.5 2h0 0z" fill="url(#l)"/><path d="M309.8 162.6c-5.6-10.6-6.9-22.9-3.6-34.4 0 0 2.5 33.5 3.6 34.4z" class="x"/><path d="M307.5 166.4s1.9 6.5 5.1 6.4c0 0 5.2 0 5.8-10 0 0-1.9 7.6-10.9 3.6z" class="AL"/><linearGradient id="m" gradientUnits="userSpaceOnUse" x1="297.659" y1="140.993" x2="371.359" y2="156.024"><stop offset="0" stop-color="#fefeff"/><stop offset="1" stop-color="#d9d4ff"/></linearGradient><path d="M302 120.4c1-14.7 21-16.6 35.9-14.9 14.9 3.5 34.9 12.4 35.9 27.4s-9.4 41-19.4 53.2c-5.4 6.7-11.2 7.9-16.5 6.8s-11.1-4-16.5-12.5c-10-15.7-20.5-44.9-19.4-60z" fill="url(#m)"/><ellipse transform="matrix(.1857 -.9826 .9826 .1857 156.4154 430.2625)" cx="337.8" cy="120.8" rx="15.5" ry="29.1" class="x"/><path d="M327.7 156.6c0-.8.1-1.6.2-2.4-2.4-.8-4.8-1.7-7-2.9l1.6 5.5c3 1.6 6.1 2.8 9.3 3.8-.5 4.6-.5 9.1-.1 13.7-2.4-.2-4.8-.8-6.9-2l-3.2-8c1.2.7 2.5 1.3 3.8 1.8l.6 1.7 2.2.7-.3-3.4c-.3-.2-.6-.5-.7-.9-2.4-.7-4.6-1.8-6.7-3.1-.3-.2-.5-.5-.6-.8-2.9-7.5-4.4-11.6-5.2-16.9 6 3.3 12.5 5.7 19.2 7.1-.7 2.5-1.2 5.1-1.5 7.7l-4.7-1.6h0z" class="AL"/><g transform="translate(-57.8 -148.5)"><linearGradient id="n" gradientUnits="userSpaceOnUse" x1="402.85" y1="275.888" x2="402.612" y2="268.675"><stop offset="0" stop-color="#c1b7ff"/><stop offset="1" stop-color="#e2cfec"/></linearGradient><path d="M400.4 281.5l7-9.4-9.4-1.5 2.4 10.9h0z" fill="url(#n)"/><linearGradient id="o" gradientUnits="userSpaceOnUse" x1="32.217" y1="759.761" x2="31.797" y2="760.391" gradientTransform="matrix(20.22 0 0 -15.8 -238.112 12263.5)"><stop offset="0" stop-color="#c1b7ff"/><stop offset="1" stop-color="#e2cfec"/></linearGradient><path d="M428.3 260.7s.5 5.1-3.3 7.3-10.7 5.4-10.7 5.4l-6.2-4.1 3-11.7 14.5 2 2.7 1.1h0z" fill="url(#o)"/><linearGradient id="p" gradientUnits="userSpaceOnUse" x1="33.792" y1="766.519" x2="32.935" y2="767.428" gradientTransform="matrix(18.21 0 0 -20.7 -178.066 16135.5996)"><stop offset="0" stop-color="#c1b7ff"/><stop offset="1" stop-color="#e2cfec"/></linearGradient><path d="M416.1 251.2s3.3.7 3.3 2.2-1.4 13.7-1.4 13.7l16.6-5.6s1-.2 1.2-2.1l1.1-12.1c.1-.8-.4-1.5-1.1-1.8l-4-1.5-16.6 5.8.9 1.4h0z" fill="url(#p)"/><linearGradient id="q" gradientUnits="userSpaceOnUse" x1="30.02" y1="767.023" x2="29.669" y2="767.674" gradientTransform="matrix(32.09 0 0 -21.03 -536.4139 16378.5)"><stop offset="0" stop-color="#c1b7ff"/><stop offset="1" stop-color="#e2cfec"/></linearGradient><path d="M433.8 244.7c.2-2.4-.1-4.9-.9-7.2-1.5-3.5-4.6-7.4-11.1-8.8s-7.7-1.1-7.7-1.1l-12.3 7.2 3 5.1 10.2 6.4 1.2 4.7 17.6-6.3h0z" fill="url(#q)"/><linearGradient id="r" gradientUnits="userSpaceOnUse" x1="57.759" y1="617.601" x2="57.509" y2="618.071" gradientTransform="matrix(4.6 0 0 -3 101.54 2084.8101)"><stop offset="0" stop-color="#c1b7ff"/><stop offset="1" stop-color="#e2cfec"/></linearGradient><path d="M366.8 232.3l-3.3-1.1 4.6-1.9-1.3 3h0 0z" fill="url(#r)"/><linearGradient id="s" gradientUnits="userSpaceOnUse" x1="30.283" y1="728.486" x2="30.156" y2="729.014" gradientTransform="matrix(28.6 0 0 -8.19 -480.46 6191.52)"><stop offset="0" stop-color="#c1b7ff"/><stop offset="1" stop-color="#e2cfec"/></linearGradient><path d="M376.5 226.3l-1.5-.5-3.1-2.2 13.8-3.2s4.8-1 7.9.7 3.2 3.1 3.2 3.1l-19.4 2.6-.9-.5h0z" fill="url(#s)"/><linearGradient id="t" gradientUnits="userSpaceOnUse" x1="29.246" y1="756.438" x2="28.821" y2="757.737" gradientTransform="matrix(38.3 0 0 -14.83 -706.8799 11454.8604)"><stop offset="0" stop-color="#c1b7ff"/><stop offset="1" stop-color="#e2cfec"/></linearGradient><path d="M422.4 228.8l-17 6.8-21.3-13.7 13.6-2.7 5-1c2.4-.1 5.8-.7 10.6 1.9 3.8 2 7 5 9.1 8.7h0 0z" fill="url(#t)"/><linearGradient id="u" gradientUnits="userSpaceOnUse" x1="420.494" y1="252.188" x2="362.653" y2="252.188"><stop offset="0" stop-color="#d7d2ff"/><stop offset="1" stop-color="#fff"/></linearGradient><path d="M415.5 266.4s.1 13.3-10.9 10.2l-3-.9-1.2 5.8-6.2-8-18.7-9.5s-10.2-2.7-10.1-16.5l-1.1-.4c-.8-.2-1.3-.9-1.3-1.7l-.1-13.1c0-.7.6-1.3 1.3-1.3h.4l2.2.7s.7-6.4 5.3-8.3c2.7-.9 5.6-.6 8.1.6 0 0 2.4-2.5 11.1.6s11.2 5.6 14.3 10.6c0 0 5.9 1 8.9 5.6 1.9 3 2.8 6.6 2.4 10.1l2.4.6s1.2.2 1 3.1l-.9 11.3c-.1.7-.7 1.3-1.4 1.2h-.4l-2.1-.7h0z" fill="url(#u)"/></g><path d="M316.8 109.2l29.7 13.6c2.1 1.1 4.5.3 5.4-1.8h0c.2-.3.3-.7.3-1.1l2.2-15.9c.3-3.4-1.5-6.9-4.6-8.5l-32.5-15c-3.1-1.4-5.5.4-5.5 3.9v17.1c.1 3.2 2.1 6.2 5 7.7z" class="AL"/><path d="M342.4 113s-10.9 4-20.2-9.2c0 0 9.7 10.5 20.2 9.2z" class="y"/><path d="M342.5 112.9c-7.8.8-14.8-4.1-18.3-7.2 3.3 3 9.9 7.6 17.3 7.3-1.8.5-3.8.6-5.7.3-3.3-.6-8.2-2.5-12.9-8.7l-1.2-1.2c3.5 4.9 7 7.5 9.9 8.9 3.6 1.7 7.5 2 11 .8l.9-.3-1 .1zm11-1.8l1.1-8.1s.1-5.1-4.4-7.5l-33.5-15.4s-4.2-1.3-4.8 3.8V92s.5-7.6 5.6-7.3L349 99.6s4 3.6 4.5 11.5zm-27.7-14.6l-2.6 2c-.3.3-.9.1-1.2-.4l-2.5-3.9c-.4-.6-.4-1.3 0-1.6l2.6-2.2c.4-.3.9-.1 1.3.5l2.4 4c.3.7.3 1.4 0 1.6zm17.9 8.4l-2.8 2.4a.95.95 0 0 1-1.3-.2l-2.5-3.7c-.4-.5-.3-1.2.2-1.6l3.2-2.3c.4-.3 1-.1 1.3.4l2.1 3.6c.3.5.2 1.1-.2 1.4z" fill="#431d68"/><path d="M326 96.4l-2.5 2.1c-.3.3-.9.1-1.2-.4l-2.2-3.6c-.3-.5-.3-1.2.1-1.5l2.6-2.2c.4-.3.9-.1 1.2.4l2.1 3.7c.3.6.2 1.2-.1 1.5zm18.1 8.2l-2.8 2.4c-.4.3-1 .3-1.2-.2l-2.2-3.4c-.3-.5-.2-1.2.3-1.5l3.1-2.3c.4-.3 1-.1 1.2.3l1.8 3.3c.3.5.2 1.1-.2 1.4z" class="y"/><path d="M345.4 67.3h.4l-.3 5.5h-.4l.3-5.5z" fill="#431d68"/><radialGradient id="v" cx="-44.644" cy="937.846" r="1.33" gradientTransform="matrix(3.3938 5.970002e-02 -5.879991e-02 3.5687 785.1694 -2846.1489)" gradientUnits="userSpaceOnUse"><stop offset="0" stop-color="#c9c9c9"/><stop offset="1" stop-color="#f0f0f0"/></radialGradient><path d="M343.7 64.6c.5-.9 1.6-1.2 2.4-.7s1.1 1.6.5 2.4c-.5.9-1.6 1.2-2.4.7-.8-.4-1-1.5-.5-2.4z" fill="url(#v)"/><path d="M368.1 180.1s10.8-29.7.1-41.1c0 0-4.6-4.8-9.5 1.7-3.4 4.5-3.3 9.9-3.3 13 0 0 1.2 22.8 2.3 24.5 0 0 2.3 5.4 10.4 1.9h0 0z" class="x"/><linearGradient id="w" gradientUnits="userSpaceOnUse" x1="313.406" y1="168.557" x2="376.074" y2="158.423"><stop offset="0" stop-color="#fefeff"/><stop offset=".29" stop-color="#f9f8ff"/><stop offset=".69" stop-color="#e9e7ff"/><stop offset="1" stop-color="#d9d4ff"/></linearGradient><path d="M368.7 182s11-31 .3-42.8c0 0-4.8-5.1-9.6 1.8-3.1 4.5-3.4 9.6-3.3 13.5 0 0 1 23.8 2.2 25.5 0 0 2.3 5.6 10.4 2z" fill="url(#w)"/><path d="M366.5 178.2c5.6-10.6 6.9-22.9 3.6-34.4 0 0-2.5 33.5-3.6 34.4h0 0z" class="x"/><path d="M368.8 182s-1.9 6.5-5.1 6.4c0 0-5.3 0-5.9-10 0 0 1.9 7.7 11 3.6z" class="AL"/><defs ><path id="y" d="M427.2 352.7c-.7-.3-.9-1.1-.6-1.7v-.1h0c.1-.2.4-.5.6-.6a4.04 4.04 0 0 1 3.4 0c.7.2 1.1.9.9 1.6-.1.4-.5.8-.9.9-1.1.6-2.4.5-3.4-.1h0zm.5-1.7c-.2 0-.4.3-.4.5s.1.3.4.4c.8.4 1.7.4 2.5 0 .3-.1.4-.3.4-.4s-.2-.5-.4-.5c-.4-.2-.8-.3-1.3-.3-.4 0-.8.1-1.2.3z"/><path id="z" d="M128.9 217c-.8-.2-1.3-.9-1.2-1.7 0-.8.5-1.5 1.2-1.8 1.6-.8 3.6-.8 5.2 0 .7.4 1.2 1 1.3 1.8-.1.8-.6 1.4-1.3 1.7a4.88 4.88 0 0 1-5.2 0zm.4-2.7c-.5.2-.8.6-.7 1 0 .4.3.8.7 1 1.4.6 3 .6 4.4 0a1.59 1.59 0 0 0 .8-1c-.1-.5-.4-.8-.8-1a4.33 4.33 0 0 0-4.4 0z"/><path id="AA" d="M424.4 270c.1-1.6 1.4-2.9 3-2.9h14.5c2.1.2 3.7 1.9 3.6 4h0c-.1 2-1.8 3.7-3.8 3.6h-.3l-14.2-1.3c-1.6-.1-2.9-1.4-2.8-3v-.1h0v-.3h0z"/><path id="AB" d="M429.7 270.3c-.1 1.4-1.2 2.5-2.6 2.4h-.1c-1.4.2-2.6-.7-2.9-2.1v-.2c-.2-1.4.8-2.7 2.2-2.9h1c1.3.1 2.4 1.3 2.4 2.6h0v.2z"/></defs></svg>