<svg xmlns="http://www.w3.org/2000/svg" xmlns:xlink="http://www.w3.org/1999/xlink" width="31" height="31" viewBox="0 0 31 31">
  <defs>
    <linearGradient id="linear-gradient" x1="0.202" y1="0.19" x2="0.798" y2="0.773" gradientUnits="objectBoundingBox">
      <stop offset="0" stop-color="#1c9b0b"/>
      <stop offset="0.26" stop-color="#1c9b0b" stop-opacity="0.78"/>
      <stop offset="0.79" stop-color="#1c9b0b" stop-opacity="0.2"/>
      <stop offset="0.97" stop-color="#1c9b0b" stop-opacity="0"/>
      <stop offset="1" stop-color="#1c9b0b" stop-opacity="0"/>
    </linearGradient>
  </defs>
  <g id="Group_56701" data-name="Group 56701" transform="translate(-10805 3008)">
    <g id="Layer_2" data-name="Layer 2" transform="translate(10805 -3008)">
      <g id="_75.discord" data-name="75.discord" transform="translate(0)">
        <path id="background" d="M15.5,0A15.5,15.5,0,1,1,0,15.5,15.5,15.5,0,0,1,15.5,0Z" fill="#3fbd2d"/>
        <path id="shadow" d="M64.588,48.626a14.721,14.721,0,0,1-11.7,12.927L43.7,52.363c-.168-13.132,12.485-12.135,12.485-12.135Z" transform="translate(-34.752 -31.177)" fill="url(#linear-gradient)"/>
      </g>
    </g>
    <g id="message" transform="translate(10813.888 -2999.505)">
      <g id="Group_56696" data-name="Group 56696">
        <path id="Path_203470" data-name="Path 203470" d="M11.058,0H2.853A2.856,2.856,0,0,0,0,2.853v8.206a2.856,2.856,0,0,0,2.853,2.853h8.206a2.856,2.856,0,0,0,2.853-2.853V2.853A2.856,2.856,0,0,0,11.058,0Zm-4.1,10.488A5.524,5.524,0,0,1,5.507,10.3l-1.648.843L4.1,9.675A3.6,3.6,0,0,1,2.337,6.684c0-2.1,2.068-3.8,4.619-3.8s4.619,1.7,4.619,3.8S9.507,10.488,6.956,10.488Z" fill="#fff"/>
      </g>
    </g>
  </g>
</svg>
