<svg id="Layer_2" data-name="Layer 2" xmlns="http://www.w3.org/2000/svg" xmlns:xlink="http://www.w3.org/1999/xlink" width="31" height="31" viewBox="0 0 31 31">
  <defs>
    <linearGradient id="linear-gradient" x1="0.5" y1="0.995" x2="0.5" y2="0.067" gradientUnits="objectBoundingBox">
      <stop offset="0" stop-color="#ee9823"/>
      <stop offset="0.24" stop-color="#d83234"/>
      <stop offset="0.65" stop-color="#e21e89"/>
      <stop offset="1" stop-color="#7914e9"/>
    </linearGradient>
    <linearGradient id="linear-gradient-2" x1="0.04" y1="0.027" x2="0.779" y2="0.776" gradientUnits="objectBoundingBox">
      <stop offset="0" stop-color="#99155b"/>
      <stop offset="0.14" stop-color="#99155b" stop-opacity="0.91"/>
      <stop offset="0.39" stop-color="#99165a" stop-opacity="0.659"/>
      <stop offset="0.74" stop-color="#99175a" stop-opacity="0.271"/>
      <stop offset="0.97" stop-color="#991859" stop-opacity="0"/>
    </linearGradient>
  </defs>
  <g id="_05.instagram" data-name="05.instagram" transform="translate(0 0)">
    <path id="background" d="M31,15.54a15.3,15.3,0,0,1-.2,2.517A15.5,15.5,0,1,1,31,15.54Z" transform="translate(0.004 -0.051)" fill="url(#linear-gradient)"/>
    <path id="shadow" d="M64.529,52.838a15.558,15.558,0,0,1-12.84,12.827l-8.934-8.934c-1.478-9.138.893-13.032.893-13.032h11.74Z" transform="translate(-33.733 -34.882)" fill="url(#linear-gradient-2)"/>
    <g id="icon" transform="translate(7.721 7.71)">
      <path id="Path_203382" data-name="Path 203382" d="M48.924,38H42.635A4.641,4.641,0,0,0,38,42.635v6.289a4.641,4.641,0,0,0,4.635,4.635h6.289a4.639,4.639,0,0,0,4.635-4.635V42.635A4.641,4.641,0,0,0,48.924,38Zm3.071,10.924a3.071,3.071,0,0,1-3.071,3.071H42.635a3.071,3.071,0,0,1-3.071-3.071V42.635a3.071,3.071,0,0,1,3.071-3.071h6.289a3.071,3.071,0,0,1,3.071,3.071Z" transform="translate(-38 -38)" fill="#fff"/>
      <path id="Path_203383" data-name="Path 203383" d="M60.357,56.35a4.025,4.025,0,1,0,4.023,4.023,4.025,4.025,0,0,0-4.023-4.023Zm0,6.479a2.457,2.457,0,1,1,2.457-2.457A2.457,2.457,0,0,1,60.357,62.829Z" transform="translate(-52.578 -52.594)" fill="#fff"/>
      <ellipse id="Ellipse_5683" data-name="Ellipse 5683" cx="0.995" cy="0.995" rx="0.995" ry="0.995" transform="translate(10.831 2.762)" fill="#fff"/>
    </g>
  </g>
</svg>
