<svg id="instagram_1_" data-name="instagram (1)" xmlns="http://www.w3.org/2000/svg" width="16.756" height="16.756" viewBox="0 0 16.756 16.756">
  <g id="Group_56690" data-name="Group 56690" transform="translate(12.842 3.1)">
    <g id="Group_56689" data-name="Group 56689">
      <path id="Path_203431" data-name="Path 203431" d="M392.808,94.739a.407.407,0,1,0,.407.407A.407.407,0,0,0,392.808,94.739Z" transform="translate(-392.401 -94.739)" fill="#465def"/>
    </g>
  </g>
  <g id="Group_56692" data-name="Group 56692" transform="translate(4.772 4.772)">
    <g id="Group_56691" data-name="Group 56691">
      <path id="Path_203432" data-name="Path 203432" d="M149.41,145.8a3.606,3.606,0,1,0,3.606,3.606A3.61,3.61,0,0,0,149.41,145.8Z" transform="translate(-145.804 -145.804)" fill="#465def"/>
    </g>
  </g>
  <g id="Group_56694" data-name="Group 56694">
    <g id="Group_56693" data-name="Group 56693">
      <path id="Path_203433" data-name="Path 203433" d="M12.162,0H4.593A4.6,4.6,0,0,0,0,4.593v7.569a4.6,4.6,0,0,0,4.593,4.593h7.569a4.6,4.6,0,0,0,4.593-4.593V4.593A4.6,4.6,0,0,0,12.162,0ZM8.378,12.974a4.6,4.6,0,1,1,4.6-4.6A4.6,4.6,0,0,1,8.378,12.974ZM13.249,4.9a1.4,1.4,0,1,1,1.4-1.4A1.4,1.4,0,0,1,13.249,4.9Z" fill="#465def"/>
    </g>
  </g>
</svg>
