<svg xmlns="http://www.w3.org/2000/svg" width="302.9" height="479.985" viewBox="0 0 302.9 479.985">
  <g id="Instagram_Bot" data-name="Instagram Bot" transform="translate(14852 -3203)">
    <g id="Group_124719" data-name="Group 124719" transform="translate(-14813.311 3294.151)">
      <path id="Rectangle_44865" data-name="Rectangle 44865" d="M17.5,0h129A17.5,17.5,0,0,1,164,17.5v0A17.5,17.5,0,0,1,146.5,35H3.889A3.889,3.889,0,0,1,0,31.111V17.5A17.5,17.5,0,0,1,17.5,0Z" fill="#efefef"/>
      <text id="Thanks_for_the_mention_" data-name="Thanks for the mention!" transform="translate(15 22)" fill="#00253c" font-size="11" font-family="Inter-SemiBold, Inter" font-weight="600"><tspan x="0" y="0">Thanks for the mention!</tspan></text>
      <g id="Rectangle_44891" data-name="Rectangle 44891" transform="translate(-38.689 -91.15)" fill="#fff" stroke="#fff" stroke-width="1">
        <path d="M26,0H276.9a26,26,0,0,1,26,26V479.985a0,0,0,0,1,0,0H0a0,0,0,0,1,0,0V26A26,26,0,0,1,26,0Z" stroke="none"/>
        <path d="M26,.5H276.9A25.5,25.5,0,0,1,302.4,26V478.985a.5.5,0,0,1-.5.5H1a.5.5,0,0,1-.5-.5V26A25.5,25.5,0,0,1,26,.5Z" fill="none"/>
      </g>
    </g>
    <g id="Group_124722" data-name="Group 124722" transform="translate(-14652.41 3391.395)">
      <path id="Rectangle_44868" data-name="Rectangle 44868" d="M17.5,0h48A17.5,17.5,0,0,1,83,17.5V31.111A3.889,3.889,0,0,1,79.111,35H17.5A17.5,17.5,0,0,1,0,17.5v0A17.5,17.5,0,0,1,17.5,0Z" fill="#9f08b9"/>
      <text id="Thank_you" data-name="Thank you" transform="translate(14.41 22)" fill="#fff" font-size="11" font-family="Arial-BoldMT, Arial" font-weight="700"><tspan x="0" y="0">Thank you</tspan></text>
    </g>
    <g id="Group_124728" data-name="Group 124728" transform="translate(-14813 3550)">
      <rect id="Rectangle_44868-2" data-name="Rectangle 44868" width="55" height="32" rx="16" fill="#efefef"/>
      <text id="Nike" transform="translate(17 20)" fill="#1794e5" font-size="10" font-family="Arial-BoldMT, Arial" font-weight="700"><tspan x="0" y="0">Nike</tspan></text>
    </g>
    <g id="Group_124729" data-name="Group 124729" transform="translate(-14752 3550)">
      <rect id="Rectangle_44868-3" data-name="Rectangle 44868" width="66" height="32" rx="16" fill="#efefef"/>
      <text id="Adidas" transform="translate(17 20)" fill="#1794e5" font-size="10" font-family="Arial-BoldMT, Arial" font-weight="700"><tspan x="0" y="0">Adidas</tspan></text>
    </g>
    <g id="Group_124730" data-name="Group 124730" transform="translate(-14680 3550)">
      <rect id="Rectangle_44868-4" data-name="Rectangle 44868" width="61" height="32" rx="16" fill="#efefef"/>
      <text id="Puma" transform="translate(17 20)" fill="#1794e5" font-size="10" font-family="Arial-BoldMT, Arial" font-weight="700"><tspan x="0" y="0">Puma</tspan></text>
    </g>
    <g id="Group_124731" data-name="Group 124731" transform="translate(-14613 3550)">
      <rect id="Rectangle_44868-5" data-name="Rectangle 44868" width="50" height="32" rx="16" fill="#efefef"/>
      <text id="Fila" transform="translate(17 20)" fill="#1794e5" font-size="10" font-family="Arial-BoldMT, Arial" font-weight="700"><tspan x="0" y="0">Fila</tspan></text>
    </g>
    <g id="Group_124720" data-name="Group 124720" transform="translate(-14813.311 3347.316)">
      <path id="Rectangle_44867" data-name="Rectangle 44867" d="M3.889,0H88.5A17.5,17.5,0,0,1,106,17.5v0A17.5,17.5,0,0,1,88.5,35h-71A17.5,17.5,0,0,1,0,17.5V3.889A3.889,3.889,0,0,1,3.889,0Z" fill="#efefef"/>
      <text id="SMATCHAT25" transform="translate(15.311 22)" fill="#232323" font-size="11" font-family="Arial-BoldMT, Arial" font-weight="700"><tspan x="0" y="0">SMATCHAT25</tspan></text>
    </g>
    <g id="Group_124721" data-name="Group 124721" transform="translate(-14813.311 3295.23)">
      <path id="Rectangle_44866" data-name="Rectangle 44866" d="M4,0H146a18,18,0,0,1,18,18V28a18,18,0,0,1-18,18H4a4,4,0,0,1-4-4V4A4,4,0,0,1,4,0Z" fill="#efefef"/>
      <text id="Here_s_a_20_off_coupon_for_the_next_purchase_" data-name="Here&apos;s a 20% off coupon
for the next purchase!" transform="translate(15.311 20)" fill="#232323" font-size="11" font-family="Arial-BoldMT, Arial" font-weight="700"><tspan x="0" y="0">Here&apos;s a 20% off coupon</tspan><tspan x="0" y="16">for the next purchase!</tspan></text>
    </g>
    <g id="Group_124726" data-name="Group 124726" transform="translate(-14813.311 3496.23)">
      <path id="Rectangle_44866-2" data-name="Rectangle 44866" d="M4,0H146a18,18,0,0,1,18,18V28a18,18,0,0,1-18,18H4a4,4,0,0,1-4-4V4A4,4,0,0,1,4,0Z" fill="#efefef"/>
      <text id="Please_select_the_brand_from_below_options." data-name="Please select the brand
from below options." transform="translate(15.311 20)" fill="#232323" font-size="11" font-family="Arial-BoldMT, Arial" font-weight="700"><tspan x="0" y="0">Please select the brand</tspan><tspan x="0" y="16">from below options.</tspan></text>
    </g>
    <g id="Group_124723" data-name="Group 124723" transform="translate(-14733.41 3432.481)">
      <path id="Rectangle_44869" data-name="Rectangle 44869" d="M18,0H160a4,4,0,0,1,4,4V28a18,18,0,0,1-18,18H18A18,18,0,0,1,0,28V18A18,18,0,0,1,18,0Z" fill="#9f08b9"/>
      <text id="Remembered_i_wanted_to_buy_some_socks_too_" data-name="Remembered i wanted to
buy some socks too!" transform="translate(18.41 19)" fill="#fff" font-size="11" font-family="Arial-BoldMT, Arial" font-weight="700"><tspan x="0" y="0">Remembered i wanted to</tspan><tspan x="0" y="16">buy some socks too!</tspan></text>
    </g>
    <g id="man" transform="translate(-14838.971 3362.134)">
      <ellipse id="Ellipse_6699" data-name="Ellipse 6699" cx="9.696" cy="9.696" rx="9.696" ry="9.696" fill="#c1edff"/>
      <g id="Group_80859" data-name="Group 80859" transform="translate(2.154 12.774)">
        <path id="Path_259196" data-name="Path 259196" d="M252.891,362.8c-.015,0-.03.015-.046.015s-.03-.015-.046-.015Z" transform="translate(-245.366 -361.814)" fill="#84dbff"/>
        <path id="Path_259197" data-name="Path 259197" d="M71.759,339.728a9.628,9.628,0,0,1-14.959,0,8.534,8.534,0,0,1,4.764-2.928,5.294,5.294,0,0,0,.41,2.306c.531-1.214,2.306-1.32,2.306-1.32s1.775.106,2.291,1.32a5.064,5.064,0,0,0,.41-2.306A8.47,8.47,0,0,1,71.759,339.728Z" transform="translate(-56.8 -336.8)" fill="#84dbff"/>
      </g>
      <path id="Path_259198" data-name="Path 259198" d="M201.139,296.992v.015c0,.152-.076,1.123-2.124,1.9h-.091c-2.048-.774-2.124-1.745-2.124-1.9v-.015a2.661,2.661,0,0,1,.091-.592,2.358,2.358,0,0,0,4.157,0A2.665,2.665,0,0,1,201.139,296.992Z" transform="translate(-189.336 -285.158)" fill="#fff"/>
      <g id="Group_80860" data-name="Group 80860" transform="translate(6.904 11.833)">
        <path id="Path_259199" data-name="Path 259199" d="M256.169,312s.106,1.092-2.169,1.942c0,0,1.775.106,2.291,1.32C256.321,315.292,257.338,312.652,256.169,312Z" transform="translate(-251.27 -312)" fill="#54c0eb"/>
        <path id="Path_259200" data-name="Path 259200" d="M182.59,312c-1.168.652-.152,3.292-.121,3.247.531-1.214,2.291-1.32,2.291-1.32C182.484,313.092,182.59,312,182.59,312Z" transform="translate(-182.03 -312)" fill="#54c0eb"/>
      </g>
      <g id="Group_80861" data-name="Group 80861" transform="translate(5.623 4.1)">
        <path id="Path_259201" data-name="Path 259201" d="M178.68,112a4.318,4.318,0,0,1-1.229,2.488,2.936,2.936,0,0,1-.41.349l-.243-.774h-2.609l-.243.774a3.73,3.73,0,0,1-1.517-2.336c-.425-5.446,3.747-4.293,3.747-4.293C178.984,108.015,178.893,110.488,178.68,112Z" transform="translate(-171.483 -108.11)" fill="#fff"/>
        <path id="Path_259202" data-name="Path 259202" d="M333.174,199.856a1.552,1.552,0,0,1-.774.683,6.431,6.431,0,0,0,.273-.759v-.015l.182-.683h-.015c.061-.228.121-.455.167-.683a.432.432,0,0,1,.182.061C333.523,198.673,333.507,199.3,333.174,199.856Z" transform="translate(-325.415 -194.976)" fill="#fff"/>
        <path id="Path_259203" data-name="Path 259203" d="M149.286,201.694a1.552,1.552,0,0,1-.774-.683c-.349-.561-.349-1.183-.015-1.381.03-.015.046-.03.076-.03a10.326,10.326,0,0,0,.44,1.35A7.344,7.344,0,0,0,149.286,201.694Z" transform="translate(-148.249 -196.13)" fill="#fff"/>
      </g>
      <path id="SVGCleanerId_0" d="M150.211,37.674c.121-1.4-2.094-1.3-2.094-1.3A4.291,4.291,0,0,0,144.4,39.98l.455-.546c-.713,1.563.364,4.248.455,4.46.561,1.866,1.805,3.58,3.247,3.58s2.685-1.714,3.247-3.58h0v-.015c.061-.228.121-.455.167-.683h-.015c.3-1.214.637-2.442.637-2.442C153.457,36.4,150.211,37.674,150.211,37.674Zm1.532,5.31a4.318,4.318,0,0,1-1.229,2.488,4.179,4.179,0,0,1-.41.349l-.243-.759h-2.609l-.243.774a4.766,4.766,0,0,1-1.229-1.441,3.224,3.224,0,0,1-.288-.9c-.425-5.446,3.747-4.293,3.747-4.293C152.046,38.994,151.955,41.467,151.743,42.984Z" transform="translate(-138.923 -34.989)" fill="#324a5e"/>
      <g id="Group_80862" data-name="Group 80862" transform="translate(5.477 1.379)">
        <path id="SVGCleanerId_0_1_" d="M150.211,37.674c.121-1.4-2.094-1.3-2.094-1.3A4.291,4.291,0,0,0,144.4,39.98l.455-.546c-.713,1.563.364,4.248.455,4.46.561,1.866,1.805,3.58,3.247,3.58s2.685-1.714,3.247-3.58h0v-.015c.061-.228.121-.455.167-.683h-.015c.3-1.214.637-2.442.637-2.442C153.457,36.4,150.211,37.674,150.211,37.674Zm1.532,5.31a4.318,4.318,0,0,1-1.229,2.488,4.179,4.179,0,0,1-.41.349l-.243-.759h-2.609l-.243.774a4.766,4.766,0,0,1-1.229-1.441,3.224,3.224,0,0,1-.288-.9c-.425-5.446,3.747-4.293,3.747-4.293C152.046,38.994,151.955,41.467,151.743,42.984Z" transform="translate(-144.4 -36.368)" fill="#324a5e"/>
      </g>
      <path id="Path_259204" data-name="Path 259204" d="M150.211,37.674c.121-1.4-2.094-1.3-2.094-1.3A4.291,4.291,0,0,0,144.4,39.98l.455-.546c-.713,1.563.364,4.248.455,4.46.561,1.866,1.805,3.58,3.247,3.58s2.685-1.714,3.247-3.58h0v-.015c.061-.228.121-.455.167-.683h-.015c.3-1.214.637-2.442.637-2.442C153.457,36.4,150.211,37.674,150.211,37.674Zm1.532,5.31a4.318,4.318,0,0,1-1.229,2.488,4.179,4.179,0,0,1-.41.349l-.243-.759h-2.609l-.243.774a3.73,3.73,0,0,1-1.517-2.336c-.425-5.446,3.747-4.293,3.747-4.293C152.046,38.994,151.955,41.467,151.743,42.984Z" transform="translate(-138.923 -34.989)" fill="#324a5e"/>
      <path id="Path_259205" data-name="Path 259205" d="M226,279.2a1.433,1.433,0,0,0,1.062.486,1.38,1.38,0,0,0,1.062-.486Z" transform="translate(-217.428 -268.611)" fill="#fff"/>
    </g>
    <g id="man-2" data-name="man" transform="translate(-14838.971 3523.134)">
      <ellipse id="Ellipse_6699-2" data-name="Ellipse 6699" cx="9.696" cy="9.696" rx="9.696" ry="9.696" fill="#c1edff"/>
      <g id="Group_80859-2" data-name="Group 80859" transform="translate(2.154 12.774)">
        <path id="Path_259196-2" data-name="Path 259196" d="M252.891,362.8c-.015,0-.03.015-.046.015s-.03-.015-.046-.015Z" transform="translate(-245.366 -361.814)" fill="#84dbff"/>
        <path id="Path_259197-2" data-name="Path 259197" d="M71.759,339.728a9.628,9.628,0,0,1-14.959,0,8.534,8.534,0,0,1,4.764-2.928,5.294,5.294,0,0,0,.41,2.306c.531-1.214,2.306-1.32,2.306-1.32s1.775.106,2.291,1.32a5.064,5.064,0,0,0,.41-2.306A8.47,8.47,0,0,1,71.759,339.728Z" transform="translate(-56.8 -336.8)" fill="#84dbff"/>
      </g>
      <path id="Path_259198-2" data-name="Path 259198" d="M201.139,296.992v.015c0,.152-.076,1.123-2.124,1.9h-.091c-2.048-.774-2.124-1.745-2.124-1.9v-.015a2.661,2.661,0,0,1,.091-.592,2.358,2.358,0,0,0,4.157,0A2.665,2.665,0,0,1,201.139,296.992Z" transform="translate(-189.336 -285.158)" fill="#fff"/>
      <g id="Group_80860-2" data-name="Group 80860" transform="translate(6.904 11.833)">
        <path id="Path_259199-2" data-name="Path 259199" d="M256.169,312s.106,1.092-2.169,1.942c0,0,1.775.106,2.291,1.32C256.321,315.292,257.338,312.652,256.169,312Z" transform="translate(-251.27 -312)" fill="#54c0eb"/>
        <path id="Path_259200-2" data-name="Path 259200" d="M182.59,312c-1.168.652-.152,3.292-.121,3.247.531-1.214,2.291-1.32,2.291-1.32C182.484,313.092,182.59,312,182.59,312Z" transform="translate(-182.03 -312)" fill="#54c0eb"/>
      </g>
      <g id="Group_80861-2" data-name="Group 80861" transform="translate(5.623 4.1)">
        <path id="Path_259201-2" data-name="Path 259201" d="M178.68,112a4.318,4.318,0,0,1-1.229,2.488,2.936,2.936,0,0,1-.41.349l-.243-.774h-2.609l-.243.774a3.73,3.73,0,0,1-1.517-2.336c-.425-5.446,3.747-4.293,3.747-4.293C178.984,108.015,178.893,110.488,178.68,112Z" transform="translate(-171.483 -108.11)" fill="#fff"/>
        <path id="Path_259202-2" data-name="Path 259202" d="M333.174,199.856a1.552,1.552,0,0,1-.774.683,6.431,6.431,0,0,0,.273-.759v-.015l.182-.683h-.015c.061-.228.121-.455.167-.683a.432.432,0,0,1,.182.061C333.523,198.673,333.507,199.3,333.174,199.856Z" transform="translate(-325.415 -194.976)" fill="#fff"/>
        <path id="Path_259203-2" data-name="Path 259203" d="M149.286,201.694a1.552,1.552,0,0,1-.774-.683c-.349-.561-.349-1.183-.015-1.381.03-.015.046-.03.076-.03a10.326,10.326,0,0,0,.44,1.35A7.344,7.344,0,0,0,149.286,201.694Z" transform="translate(-148.249 -196.13)" fill="#fff"/>
      </g>
      <path id="SVGCleanerId_0-2" data-name="SVGCleanerId_0" d="M150.211,37.674c.121-1.4-2.094-1.3-2.094-1.3A4.291,4.291,0,0,0,144.4,39.98l.455-.546c-.713,1.563.364,4.248.455,4.46.561,1.866,1.805,3.58,3.247,3.58s2.685-1.714,3.247-3.58h0v-.015c.061-.228.121-.455.167-.683h-.015c.3-1.214.637-2.442.637-2.442C153.457,36.4,150.211,37.674,150.211,37.674Zm1.532,5.31a4.318,4.318,0,0,1-1.229,2.488,4.179,4.179,0,0,1-.41.349l-.243-.759h-2.609l-.243.774a4.766,4.766,0,0,1-1.229-1.441,3.224,3.224,0,0,1-.288-.9c-.425-5.446,3.747-4.293,3.747-4.293C152.046,38.994,151.955,41.467,151.743,42.984Z" transform="translate(-138.923 -34.989)" fill="#324a5e"/>
      <g id="Group_80862-2" data-name="Group 80862" transform="translate(5.477 1.379)">
        <path id="SVGCleanerId_0_1_2" data-name="SVGCleanerId_0_1_" d="M150.211,37.674c.121-1.4-2.094-1.3-2.094-1.3A4.291,4.291,0,0,0,144.4,39.98l.455-.546c-.713,1.563.364,4.248.455,4.46.561,1.866,1.805,3.58,3.247,3.58s2.685-1.714,3.247-3.58h0v-.015c.061-.228.121-.455.167-.683h-.015c.3-1.214.637-2.442.637-2.442C153.457,36.4,150.211,37.674,150.211,37.674Zm1.532,5.31a4.318,4.318,0,0,1-1.229,2.488,4.179,4.179,0,0,1-.41.349l-.243-.759h-2.609l-.243.774a4.766,4.766,0,0,1-1.229-1.441,3.224,3.224,0,0,1-.288-.9c-.425-5.446,3.747-4.293,3.747-4.293C152.046,38.994,151.955,41.467,151.743,42.984Z" transform="translate(-144.4 -36.368)" fill="#324a5e"/>
      </g>
      <path id="Path_259204-2" data-name="Path 259204" d="M150.211,37.674c.121-1.4-2.094-1.3-2.094-1.3A4.291,4.291,0,0,0,144.4,39.98l.455-.546c-.713,1.563.364,4.248.455,4.46.561,1.866,1.805,3.58,3.247,3.58s2.685-1.714,3.247-3.58h0v-.015c.061-.228.121-.455.167-.683h-.015c.3-1.214.637-2.442.637-2.442C153.457,36.4,150.211,37.674,150.211,37.674Zm1.532,5.31a4.318,4.318,0,0,1-1.229,2.488,4.179,4.179,0,0,1-.41.349l-.243-.759h-2.609l-.243.774a3.73,3.73,0,0,1-1.517-2.336c-.425-5.446,3.747-4.293,3.747-4.293C152.046,38.994,151.955,41.467,151.743,42.984Z" transform="translate(-138.923 -34.989)" fill="#324a5e"/>
      <path id="Path_259205-2" data-name="Path 259205" d="M226,279.2a1.433,1.433,0,0,0,1.062.486,1.38,1.38,0,0,0,1.062-.486Z" transform="translate(-217.428 -268.611)" fill="#fff"/>
    </g>
    <g id="Group_124725" data-name="Group 124725" transform="translate(-14823 3224.708)">
      <text id="SmatFashion_solution" data-name="SmatFashion solution" transform="translate(53.766 18)" fill="#00253c" font-size="10" font-family="Arial-BoldMT, Arial" font-weight="700"><tspan x="0" y="0">SmatFashion solution</tspan></text>
      <g id="man-3" data-name="man" transform="translate(16.94)">
        <ellipse id="Ellipse_6699-3" data-name="Ellipse 6699" cx="14.42" cy="14.42" rx="14.42" ry="14.42" fill="#c1edff"/>
        <g id="Group_80859-3" data-name="Group 80859" transform="translate(3.204 18.998)">
          <path id="Path_259196-3" data-name="Path 259196" d="M252.935,362.8c-.023,0-.045.023-.068.023s-.045-.023-.068-.023Z" transform="translate(-241.744 -361.333)" fill="#84dbff"/>
          <path id="Path_259197-3" data-name="Path 259197" d="M79.047,341.155a14.319,14.319,0,0,1-22.247,0,12.692,12.692,0,0,1,7.085-4.355,7.874,7.874,0,0,0,.609,3.43c.79-1.805,3.43-1.963,3.43-1.963s2.64.158,3.407,1.963a7.531,7.531,0,0,0,.609-3.43A12.6,12.6,0,0,1,79.047,341.155Z" transform="translate(-56.8 -336.8)" fill="#84dbff"/>
        </g>
        <path id="Path_259198-3" data-name="Path 259198" d="M203.253,297.28v.023c0,.226-.113,1.67-3.159,2.82h-.135c-3.046-1.151-3.159-2.595-3.159-2.82v-.023a3.957,3.957,0,0,1,.135-.88,3.507,3.507,0,0,0,6.182,0A3.963,3.963,0,0,1,203.253,297.28Z" transform="translate(-185.699 -279.681)" fill="#fff"/>
        <g id="Group_80860-3" data-name="Group 80860" transform="translate(10.268 17.599)">
          <path id="Path_259199-3" data-name="Path 259199" d="M257.227,312s.158,1.625-3.227,2.888c0,0,2.64.158,3.407,1.963C257.452,316.9,258.964,312.97,257.227,312Z" transform="translate(-249.94 -312)" fill="#54c0eb"/>
          <path id="Path_259200-3" data-name="Path 259200" d="M182.863,312c-1.737.97-.226,4.9-.181,4.828.79-1.805,3.407-1.963,3.407-1.963C182.7,313.625,182.863,312,182.863,312Z" transform="translate(-182.03 -312)" fill="#54c0eb"/>
        </g>
        <g id="Group_80861-3" data-name="Group 80861" transform="translate(8.362 6.098)">
          <path id="Path_259201-3" data-name="Path 259201" d="M181.741,113.9a6.422,6.422,0,0,1-1.828,3.7,4.365,4.365,0,0,1-.609.519l-.361-1.151h-3.881l-.361,1.151c-.722-.541-2.234-2.053-2.256-3.475-.632-8.1,5.573-6.385,5.573-6.385C182.192,107.969,182.056,111.646,181.741,113.9Z" transform="translate(-171.037 -108.11)" fill="#fff"/>
          <path id="Path_259202-3" data-name="Path 259202" d="M333.551,200.566a2.308,2.308,0,0,1-1.151,1.015,9.565,9.565,0,0,0,.406-1.128v-.023l.271-1.015h-.022c.09-.339.18-.677.248-1.015a.642.642,0,0,1,.271.09C334.07,198.806,334.047,199.731,333.551,200.566Z" transform="translate(-322.012 -193.307)" fill="#fff"/>
          <path id="Path_259203-3" data-name="Path 259203" d="M149.792,202.714a2.308,2.308,0,0,1-1.151-1.015c-.519-.835-.519-1.76-.023-2.053.045-.023.068-.045.113-.045a15.352,15.352,0,0,0,.654,2.008A10.922,10.922,0,0,0,149.792,202.714Z" transform="translate(-148.249 -194.439)" fill="#fff"/>
        </g>
        <path id="SVGCleanerId_0-3" data-name="SVGCleanerId_0" d="M153.042,38.31c.181-2.076-3.114-1.94-3.114-1.94a6.381,6.381,0,0,0-5.528,5.37l.677-.812c-1.06,2.324.542,6.318.677,6.634.835,2.775,2.685,5.325,4.829,5.325s3.994-2.55,4.829-5.325h0v-.023c.09-.338.18-.677.248-1.015h-.023c.451-1.805.948-3.633.948-3.633C157.87,36.415,153.042,38.31,153.042,38.31Zm2.279,7.9a6.422,6.422,0,0,1-1.828,3.7,6.22,6.22,0,0,1-.609.519l-.361-1.128h-3.881l-.361,1.151a7.089,7.089,0,0,1-1.828-2.143,4.8,4.8,0,0,1-.429-1.331c-.632-8.1,5.573-6.385,5.573-6.385C155.772,40.273,155.637,43.951,155.321,46.207Z" transform="translate(-136.255 -34.317)" fill="#324a5e"/>
        <g id="Group_80862-3" data-name="Group 80862" transform="translate(8.145 2.051)">
          <path id="SVGCleanerId_0_1_3" data-name="SVGCleanerId_0_1_" d="M153.042,38.31c.181-2.076-3.114-1.94-3.114-1.94a6.381,6.381,0,0,0-5.528,5.37l.677-.812c-1.06,2.324.542,6.318.677,6.634.835,2.775,2.685,5.325,4.829,5.325s3.994-2.55,4.829-5.325h0v-.023c.09-.338.18-.677.248-1.015h-.023c.451-1.805.948-3.633.948-3.633C157.87,36.415,153.042,38.31,153.042,38.31Zm2.279,7.9a6.422,6.422,0,0,1-1.828,3.7,6.22,6.22,0,0,1-.609.519l-.361-1.128h-3.881l-.361,1.151a7.089,7.089,0,0,1-1.828-2.143,4.8,4.8,0,0,1-.429-1.331c-.632-8.1,5.573-6.385,5.573-6.385C155.772,40.273,155.637,43.951,155.321,46.207Z" transform="translate(-144.4 -36.368)" fill="#324a5e"/>
        </g>
        <path id="Path_259204-3" data-name="Path 259204" d="M153.042,38.31c.181-2.076-3.114-1.94-3.114-1.94a6.381,6.381,0,0,0-5.528,5.37l.677-.812c-1.06,2.324.542,6.318.677,6.634.835,2.775,2.685,5.325,4.829,5.325s3.994-2.55,4.829-5.325h0v-.023c.09-.338.18-.677.248-1.015h-.023c.451-1.805.948-3.633.948-3.633C157.87,36.415,153.042,38.31,153.042,38.31Zm2.279,7.9a6.422,6.422,0,0,1-1.828,3.7,6.22,6.22,0,0,1-.609.519l-.361-1.128h-3.881l-.361,1.151c-.722-.542-2.234-2.053-2.256-3.475-.632-8.1,5.573-6.385,5.573-6.385C155.772,40.273,155.637,43.951,155.321,46.207Z" transform="translate(-136.255 -34.317)" fill="#324a5e"/>
        <path id="Path_259205-3" data-name="Path 259205" d="M226,279.2a2.131,2.131,0,0,0,1.579.722,2.053,2.053,0,0,0,1.579-.722Z" transform="translate(-213.252 -263.451)" fill="#fff"/>
      </g>
      <g id="Layer_2" data-name="Layer 2" transform="translate(166.136 8)">
        <path id="Path_301100" data-name="Path 301100" d="M13.235,6.7a2.078,2.078,0,0,1-.519-.428,2.031,2.031,0,0,1,.167-.686c.175-.494.373-1.053.055-1.487s-.917-.421-1.443-.409a2.057,2.057,0,0,1-.694-.047A2.025,2.025,0,0,1,10.545,3c-.149-.508-.319-1.082-.842-1.254-.5-.162-.97.195-1.383.509a1.975,1.975,0,0,1-.608.379A1.975,1.975,0,0,1,7.1,2.255c-.411-.312-.876-.673-1.382-.508-.521.17-.691.745-.842,1.253a2.055,2.055,0,0,1-.253.638,2.093,2.093,0,0,1-.7.048c-.528-.014-1.122-.03-1.443.409s-.12.994.055,1.487a2.006,2.006,0,0,1,.169.686,2.074,2.074,0,0,1-.519.429c-.44.3-.94.643-.94,1.2s.5.9.94,1.2a2.074,2.074,0,0,1,.519.428,2,2,0,0,1-.164.687c-.174.493-.372,1.052-.055,1.487s.914.421,1.443.409a2.06,2.06,0,0,1,.695.047,2.044,2.044,0,0,1,.255.639c.149.508.319,1.082.842,1.254a.856.856,0,0,0,.259.041A2.033,2.033,0,0,0,7.1,13.534a1.975,1.975,0,0,1,.608-.379,1.975,1.975,0,0,1,.615.379c.412.314.878.673,1.383.508.521-.17.691-.745.842-1.253a2.037,2.037,0,0,1,.255-.638A2.059,2.059,0,0,1,11.5,12.1c.528.013,1.122.03,1.443-.409s.12-.994-.055-1.487a2.032,2.032,0,0,1-.169-.685,2.066,2.066,0,0,1,.519-.429c.44-.3.94-.643.94-1.2S13.676,7,13.235,6.7Z" transform="translate(-1.247 -1.705)" fill="#49adf4"/>
        <path id="Path_301101" data-name="Path 301101" d="M9.911,12.955a.448.448,0,0,1-.319-.132l-1.2-1.2a.451.451,0,0,1,.637-.637l.926.926,2.092-1.569a.451.451,0,1,1,.541.721l-2.4,1.8a.451.451,0,0,1-.271.09Z" transform="translate(-4.047 -5.113)" fill="#fff"/>
      </g>
      <path id="Icon_ionic-ios-arrow-forward" data-name="Icon ionic-ios-arrow-forward" d="M13.38,12.383,18.064,7.7a.881.881,0,0,0,0-1.249.892.892,0,0,0-1.253,0l-5.307,5.3a.883.883,0,0,0-.026,1.22l5.329,5.34a.885.885,0,0,0,1.253-1.249Z" transform="translate(-11.246 1.804)"/>
      <path id="video" d="M14.824,1.1a1.469,1.469,0,0,0-1.526.08l-2.832,1.9V1.57A1.572,1.572,0,0,0,8.9,0H1.57A1.572,1.572,0,0,0,0,1.57V8.9a1.572,1.572,0,0,0,1.57,1.57H8.9a1.572,1.572,0,0,0,1.57-1.57V7.384l2.833,1.9a1.459,1.459,0,0,0,1.526.08A1.7,1.7,0,0,0,15.7,7.847V2.619A1.7,1.7,0,0,0,14.824,1.1ZM9.419,8.9a.524.524,0,0,1-.523.523H1.57A.524.524,0,0,1,1.047,8.9V1.57a.524.524,0,0,1,.523-.523H8.9a.524.524,0,0,1,.523.523Zm5.233-1.049a.656.656,0,0,1-.32.595.417.417,0,0,1-.45-.026L10.465,6.124V4.342L13.881,2.05a.424.424,0,0,1,.451-.026.656.656,0,0,1,.32.594Z" transform="translate(229.296 9)" fill="#00253c"/>
      <g id="Layer_14" data-name="Layer 14" transform="translate(209.888 9)">
        <path id="Path_301148" data-name="Path 301148" d="M9.288,6.854A8.444,8.444,0,0,0,8.3,6.2a1.464,1.464,0,0,0-1.414.072l0,0a4.485,4.485,0,0,0-.688.591l-.006.006a.25.25,0,0,1-.322.036A8.629,8.629,0,0,1,4.608,5.862,8.615,8.615,0,0,1,3.564,4.6.249.249,0,0,1,3.6,4.283L3.6,4.276A4.481,4.481,0,0,0,4.2,3.588l0,0A1.463,1.463,0,0,0,4.271,2.17a8.518,8.518,0,0,0-.656-.988A8.168,8.168,0,0,0,2.838.306,1.247,1.247,0,0,0,1.466.135l-.005,0A4.286,4.286,0,0,0,.733.66L.71.68A2.22,2.22,0,0,0,0,2.332,5.666,5.666,0,0,0,.674,4.965,10.707,10.707,0,0,0,2.713,7.757,10.768,10.768,0,0,0,5.505,9.8a5.829,5.829,0,0,0,2.5.671l.13,0A2.218,2.218,0,0,0,9.789,9.76l.02-.023a4.282,4.282,0,0,0,.522-.728l0-.005a1.247,1.247,0,0,0-.17-1.371,8.08,8.08,0,0,0-.876-.779Zm.366,1.777a3.423,3.423,0,0,1-.425.59L9.2,9.248a1.45,1.45,0,0,1-1.1.44A4.983,4.983,0,0,1,5.848,9.1,9.925,9.925,0,0,1,3.263,7.207,9.939,9.939,0,0,1,1.372,4.622,4.984,4.984,0,0,1,.781,2.361a1.451,1.451,0,0,1,.44-1.1l.028-.024A3.431,3.431,0,0,1,1.84.816a.465.465,0,0,1,.479.068A7.522,7.522,0,0,1,3,1.653l0,.006a7.792,7.792,0,0,1,.579.87.694.694,0,0,1-.026.62,3.628,3.628,0,0,1-.489.567l0,0A1.024,1.024,0,0,0,2.921,5.04,9.412,9.412,0,0,0,4.06,6.412,9.4,9.4,0,0,0,5.431,7.55a1.024,1.024,0,0,0,1.321-.144l0,0a3.635,3.635,0,0,1,.567-.488.694.694,0,0,1,.621-.025,7.791,7.791,0,0,1,.869.579l.006,0a7.429,7.429,0,0,1,.769.679h0a.464.464,0,0,1,.067.478Z" transform="translate(-0.002 -0.002)"/>
      </g>
    </g>
  </g>
</svg>
