<svg id="Icon" xmlns="http://www.w3.org/2000/svg" width="42.354" height="29.727" viewBox="0 0 42.354 29.727">
  <path id="Path_308093" data-name="Path 308093" d="M13.237,14.236A10.065,10.065,0,1,1,1.25,24.117c0-7.4,2.494-12,5.421-14.875A17.528,17.528,0,0,1,16.765,4.459a1.478,1.478,0,0,1,1.31,2.328s-2.667,3.755-4.33,6.532c-.173.292-.349.613-.508.916Z" transform="translate(20.975 -4.455)" fill="#0b1320" fill-rule="evenodd"/>
  <path id="Path_308094" data-name="Path 308094" d="M24.519,14.236a10.065,10.065,0,1,1-11.987,9.881c0-7.4,2.494-12,5.421-14.875A17.528,17.528,0,0,1,28.047,4.459a1.478,1.478,0,0,1,1.31,2.328s-2.667,3.755-4.33,6.532c-.173.292-.349.613-.508.916Z" transform="translate(-12.532 -4.455)" fill="#0b1320" fill-rule="evenodd"/>
</svg>
