<svg id="Icon" xmlns="http://www.w3.org/2000/svg" width="42.354" height="29.727" viewBox="0 0 42.354 29.727">
  <path id="Path_308093" data-name="Path 308093" d="M9.392,24.4A10.065,10.065,0,1,1,21.379,14.52c0,7.4-2.494,12-5.421,14.875A17.528,17.528,0,0,1,5.864,34.178a1.478,1.478,0,0,1-1.31-2.328s2.667-3.755,4.33-6.532c.173-.292.349-.613.508-.916Z" transform="translate(-1.25 -4.455)" fill="#0b1320" fill-rule="evenodd"/>
  <path id="Path_308094" data-name="Path 308094" d="M20.674,24.4A10.065,10.065,0,1,1,32.661,14.52c0,7.4-2.494,12-5.421,14.875a17.528,17.528,0,0,1-10.094,4.783,1.478,1.478,0,0,1-1.31-2.328s2.667-3.755,4.33-6.532c.173-.292.349-.613.508-.916Z" transform="translate(9.693 -4.455)" fill="#0b1320" fill-rule="evenodd"/>
</svg>
