<svg xmlns="http://www.w3.org/2000/svg" width="16.756" height="16.736" viewBox="0 0 16.756 16.736">
  <g id="support" transform="translate(-5 -5.045)">
    <path id="Path_203461" data-name="Path 203461" d="M22.7,16.5V13.85a4.85,4.85,0,0,0-9.7,0V16.5a4.85,4.85,0,1,0,9.7,0Zm-6.486,1.451a.441.441,0,0,1,.626,0,1.424,1.424,0,0,0,2.02,0,.443.443,0,0,1,.626.626C17.956,20.085,15.491,18.67,16.214,17.947Z" transform="translate(-4.472 -2.211)" fill="#465def"/>
    <path id="Path_203462" data-name="Path 203462" d="M20.433,10.757h-.5a6.614,6.614,0,0,0-13.1,0h-.5A1.323,1.323,0,0,0,5,12.08v2.646a1.323,1.323,0,0,0,1.323,1.323H7.646a.441.441,0,0,0,.441-.441V11.2a.441.441,0,0,0-.37-.441,5.732,5.732,0,0,1,11.323,0,.441.441,0,0,0-.37.441v4.409a.441.441,0,0,0,.441.441,4.85,4.85,0,0,1-3.968,4.771,1.107,1.107,0,0,0-1.1-1.243h-.882a1.1,1.1,0,0,0,0,2.2h1.1a5.732,5.732,0,0,0,5.732-5.732h.441a1.323,1.323,0,0,0,1.323-1.323V12.08A1.323,1.323,0,0,0,20.433,10.757Z" transform="translate(0)" fill="#465def"/>
  </g>
</svg>
