<svg xmlns="http://www.w3.org/2000/svg" viewBox="0 0 650.9 168.5"><defs><style>.a{fill:#8c98a4;}</style></defs><path class="a" d="M192.7,23.6H144a7.2,7.2,0,0,0-5.9,3.4l-8.3,13.5h49.1c3,.2,5.5,3.1,5.5,6.6V72.9H147.6V65.5h0a2.6,2.6,0,0,1,2.4-2.7h25.7V53.3c0-2.4-1.3-3.7-3.1-3.7H137c-4.4,0-7.9,4-7.9,8.9V82a.8.8,0,0,0,.1.4,6.8,6.8,0,0,0,6.5,6.1h69.4V37.6c0-7.7-5.5-14-12.4-14"/><path class="a" d="M635.9,23.6H587.2a7.2,7.2,0,0,0-5.9,3.4l-8.2,13.5h49c3.1.2,5.5,3.1,5.5,6.6V72.9H590.8V65.5h0a2.6,2.6,0,0,1,2.4-2.7h25.7V53.3c0-2.4-1.3-3.7-3.1-3.7H580.2c-4.3,0-7.9,4-7.9,8.9V82c0,.1.1.2.1.4a6.8,6.8,0,0,0,6.5,6.1h69.5V37.6c0-7.7-5.6-14-12.5-14"/><path class="a" d="M482.7.1V72.3H452.2a3.9,3.9,0,0,1-3.6-3.8V47.1h0c0-3.7,2.7-6.6,5.9-6.6H470a6.6,6.6,0,0,0,5.6-3.3l7.1-13.5H439.9c-6.9,0-12.5,6.2-12.5,14h0V76.9c0,7.4,5.4,11.6,10.3,11.6h66.2V.1Z"/><path class="a" d="M526.5,23.6c-5.3,0-8.7,4.6-8.7,9.5V88.5H539V47.2c0-3.7,2.3-6.8,5.7-6.8h15.7a7.1,7.1,0,0,0,5.4-3.6l8.3-13.2Z"/><path class="a" d="M306.5,44.7V88.5h21.1V24.4L310.9,36a10.8,10.8,0,0,0-4.4,8.7m0-44.7h21.1V16.3L306.5,32Z"/><path class="a" d="M101.2.1H0V88.5H21V20.7H43.5c2.1,0,3.8,2,3.8,4.4h0V88.5H68.4V25.1a4.2,4.2,0,0,1,3.9-4.4H88.9c3.2,0,5.8,2.9,5.8,6.5V88.5h21V16.3c0-9-6.5-16.2-14.5-16.2"/><path class="a" d="M401.3,23.7H341.4V88.5h21.2v-48h24.1c3.3,0,5.9,2.9,5.9,6.6h0V88.5h21.2V37.7c0-7.8-5.6-14-12.5-14"/><path class="a" d="M292.7,37.6c0-7.7-5.6-14-12.5-14H252.5c-2.5,0-3.7,1.4-5,3.6,0,.1-8.2,13.3-8.2,13.3H266c3.1.1,5.6,3,5.6,6.6V88.5h21.1V37.6M218.2.1h21.1V88.5H218.2Z"/><polygon class="a" points="248.7 168.5 248.7 104.7 261.8 104.7 261.8 156.3 285.8 156.3 285.8 168.5 248.7 168.5"/><path class="a" d="M311.4,168.5a31.5,31.5,0,0,1-8.8-1.1,15.2,15.2,0,0,1-6.2-3.6,13.6,13.6,0,0,1-3.2-5.9,25,25,0,0,1-.8-7V121.3a25,25,0,0,1,.8-7,13.6,13.6,0,0,1,3.2-5.9,15.2,15.2,0,0,1,6.2-3.6,31.5,31.5,0,0,1,8.8-1.1h9.2a31.5,31.5,0,0,1,8.8,1.1,14.2,14.2,0,0,1,6.1,3.6,12.3,12.3,0,0,1,3.3,5.9,24.8,24.8,0,0,1,.9,7v29.6a26,26,0,0,1-.9,7.1,12.4,12.4,0,0,1-3.3,5.8,14.2,14.2,0,0,1-6.1,3.6,31.5,31.5,0,0,1-8.8,1.1Zm0-52.6a17.3,17.3,0,0,0-3.6.3,3.7,3.7,0,0,0-1.4.7,2.3,2.3,0,0,0-.6,1.3,10.9,10.9,0,0,0-.4,3.4v29a10.9,10.9,0,0,0,.4,3.4,2.3,2.3,0,0,0,.6,1.3,3.7,3.7,0,0,0,1.4.7,17.3,17.3,0,0,0,3.6.3h9.2a17.3,17.3,0,0,0,3.6-.3,3.7,3.7,0,0,0,1.4-.7,2.3,2.3,0,0,0,.6-1.3,15.8,15.8,0,0,0,.3-3.4v-29a15.8,15.8,0,0,0-.3-3.4,2.3,2.3,0,0,0-.6-1.3,3.7,3.7,0,0,0-1.4-.7,17.3,17.3,0,0,0-3.6-.3Z"/><path class="a" d="M371.4,168.5a30.7,30.7,0,0,1-8.7-1.1,14.5,14.5,0,0,1-6.2-3.6,12.8,12.8,0,0,1-3.3-5.9,29.3,29.3,0,0,1-.8-7V121.3a29.3,29.3,0,0,1,.8-7,12.8,12.8,0,0,1,3.3-5.9,14.5,14.5,0,0,1,6.2-3.6,30.7,30.7,0,0,1,8.7-1.1h9.3a30.7,30.7,0,0,1,8.7,1.1,14.5,14.5,0,0,1,6.2,3.6,12.3,12.3,0,0,1,3.3,5.9,24.8,24.8,0,0,1,.9,7v4H386.6v-3.7a15.8,15.8,0,0,0-.3-3.4,5.3,5.3,0,0,0-.6-1.3,4.2,4.2,0,0,0-1.5-.7,15.6,15.6,0,0,0-3.5-.3h-9.3a16.9,16.9,0,0,0-3.5.3,4.2,4.2,0,0,0-1.5.7,5.3,5.3,0,0,0-.6,1.3,15.8,15.8,0,0,0-.3,3.4v29a15.8,15.8,0,0,0,.3,3.4,5.3,5.3,0,0,0,.6,1.3,4.2,4.2,0,0,0,1.5.7,16.9,16.9,0,0,0,3.5.3h9.3a15.6,15.6,0,0,0,3.5-.3,4.2,4.2,0,0,0,1.5-.7,5.3,5.3,0,0,0,.6-1.3,15.8,15.8,0,0,0,.3-3.4v-4.4H370.9V134.6h28.9v16.3a26,26,0,0,1-.9,7.1,12.4,12.4,0,0,1-3.3,5.8,14.5,14.5,0,0,1-6.2,3.6,30.7,30.7,0,0,1-8.7,1.1Z"/><rect class="a" x="407.3" y="104.7" width="13.1" height="63.8"/><path class="a" d="M446.6,168.5a31,31,0,0,1-8.8-1.1,15.2,15.2,0,0,1-6.2-3.6,13.6,13.6,0,0,1-3.2-5.9,25,25,0,0,1-.8-7v-3.6h13v3.3c0,3.2.8,4.3,1.1,4.7s1.3,1,4.9,1h9.2a17.3,17.3,0,0,0,3.6-.3,3.2,3.2,0,0,0,1.3-.7,2.6,2.6,0,0,0,.7-1.4,14.8,14.8,0,0,0,.3-3.3v-1.8a14.5,14.5,0,0,0-.3-3.2,2.6,2.6,0,0,0-.6-1.3,3.6,3.6,0,0,0-1.5-1l-3.6-.9-10.2-.9a40.4,40.4,0,0,1-8-2,17.5,17.5,0,0,1-5.8-3.7,12.6,12.6,0,0,1-3.3-5.7,26.4,26.4,0,0,1-.8-7.2v-1.7a25.7,25.7,0,0,1,.8-7.1,13.6,13.6,0,0,1,3.2-5.9,15.2,15.2,0,0,1,6.2-3.6,31,31,0,0,1,8.8-1.1h9.2a31.5,31.5,0,0,1,8.8,1.1,14.5,14.5,0,0,1,6.2,3.6,12.8,12.8,0,0,1,3.3,5.9,30.2,30.2,0,0,1,.8,7.1v4H461.8v-3.7a15.8,15.8,0,0,0-.3-3.4,3.2,3.2,0,0,0-.7-1.3,2.6,2.6,0,0,0-1.4-.7,11.9,11.9,0,0,0-3.6-.4h-9.2a11.9,11.9,0,0,0-3.6.4,2.6,2.6,0,0,0-1.4.7,2.3,2.3,0,0,0-.6,1.3,10.9,10.9,0,0,0-.4,3.4v1.7a13.9,13.9,0,0,0,.3,3.2,4.6,4.6,0,0,0,.7,1.4,5.6,5.6,0,0,0,1.4.9,13.4,13.4,0,0,0,3.6.9l10.2.9a36.5,36.5,0,0,1,8.1,2.1,14.9,14.9,0,0,1,5.8,3.7,12.5,12.5,0,0,1,3.2,5.6,25.3,25.3,0,0,1,.9,7.2v1.8a29.3,29.3,0,0,1-.8,7,12.8,12.8,0,0,1-3.3,5.9,14.2,14.2,0,0,1-6.1,3.6,31.5,31.5,0,0,1-8.8,1.1Z"/><polygon class="a" points="494.9 168.5 494.9 116.9 481.5 116.9 481.5 104.7 521.4 104.7 521.4 116.9 508.1 116.9 508.1 168.5 494.9 168.5"/><rect class="a" x="529.7" y="104.7" width="13.1" height="63.8"/><path class="a" d="M570.2,168.5a31,31,0,0,1-8.8-1.1,15.2,15.2,0,0,1-6.2-3.6,12.6,12.6,0,0,1-3.2-5.9,25,25,0,0,1-.8-7V121.3a25,25,0,0,1,.8-7,11.8,11.8,0,0,1,3.2-5.9,15.2,15.2,0,0,1,6.2-3.6,31,31,0,0,1,8.8-1.1h9.2a30.2,30.2,0,0,1,8.7,1.1,14,14,0,0,1,6.2,3.6,12.3,12.3,0,0,1,3.3,5.9,24.8,24.8,0,0,1,.9,7v5.6H585.3v-5.3a15.8,15.8,0,0,0-.3-3.4,3.2,3.2,0,0,0-.6-1.3,3.5,3.5,0,0,0-1.5-.7,15.6,15.6,0,0,0-3.5-.3h-9.2a17.3,17.3,0,0,0-3.6.3,3.7,3.7,0,0,0-1.4.7,3.2,3.2,0,0,0-.7,1.3,15.8,15.8,0,0,0-.3,3.4v29a15.8,15.8,0,0,0,.3,3.4,3.2,3.2,0,0,0,.7,1.3,3.7,3.7,0,0,0,1.4.7,17.3,17.3,0,0,0,3.6.3h9.2a15.6,15.6,0,0,0,3.5-.3,3.5,3.5,0,0,0,1.5-.7,2.3,2.3,0,0,0,.6-1.3,15.8,15.8,0,0,0,.3-3.4v-4.9h13.2v5.2a26,26,0,0,1-.9,7.1,12.4,12.4,0,0,1-3.3,5.8,14,14,0,0,1-6.2,3.6,30.2,30.2,0,0,1-8.7,1.1Z"/><path class="a" d="M622.6,168.5a30.7,30.7,0,0,1-8.7-1.1,14.5,14.5,0,0,1-6.2-3.6,12.8,12.8,0,0,1-3.3-5.9,29.3,29.3,0,0,1-.8-7v-3.6h13.1v3.3c0,3.2.7,4.3,1.1,4.7s1.3,1,4.8,1h9.3a15.6,15.6,0,0,0,3.5-.3,2.5,2.5,0,0,0,2.1-2.1,14.8,14.8,0,0,0,.3-3.3v-1.8a14.5,14.5,0,0,0-.3-3.2,2.6,2.6,0,0,0-.6-1.3,5.6,5.6,0,0,0-1.5-1l-3.6-.9-10.2-.9a43.5,43.5,0,0,1-8.1-2,18.6,18.6,0,0,1-5.8-3.7,13.4,13.4,0,0,1-3.2-5.7,26.3,26.3,0,0,1-.9-7.2v-1.7a30.2,30.2,0,0,1,.8-7.1,12.8,12.8,0,0,1,3.3-5.9,14.5,14.5,0,0,1,6.2-3.6,30.7,30.7,0,0,1,8.7-1.1h9.3a31.5,31.5,0,0,1,8.8,1.1,15.2,15.2,0,0,1,6.2,3.6,12.8,12.8,0,0,1,3.3,5.9,30.5,30.5,0,0,1,.7,7.1v4h-13v-3.7a15.8,15.8,0,0,0-.3-3.4,3.2,3.2,0,0,0-.7-1.3,2.6,2.6,0,0,0-1.5-.7,11.6,11.6,0,0,0-3.5-.4h-9.3a11.6,11.6,0,0,0-3.5.4,2.6,2.6,0,0,0-1.4.7,3.2,3.2,0,0,0-.7,1.3,15.8,15.8,0,0,0-.3,3.4v1.7a13.9,13.9,0,0,0,.3,3.2,3,3,0,0,0,.6,1.4l1.5.9a13.4,13.4,0,0,0,3.6.9l10.2.9a36.5,36.5,0,0,1,8.1,2.1,15.6,15.6,0,0,1,5.8,3.7,12.5,12.5,0,0,1,3.2,5.6,25.3,25.3,0,0,1,.9,7.2v1.8a29.3,29.3,0,0,1-.8,7,12.8,12.8,0,0,1-3.3,5.9,14.5,14.5,0,0,1-6.2,3.6,30.7,30.7,0,0,1-8.7,1.1Z"/></svg>