<svg xmlns="http://www.w3.org/2000/svg" width="16.756" height="16.756" viewBox="0 0 16.756 16.756">
  <g id="Icon" transform="translate(-1.25 -1.25)">
    <path id="Path_203447" data-name="Path 203447" d="M11.04,8.42a.585.585,0,1,1,1.129-.3c.532,1.98,1.481,5.508,2.012,7.488a.585.585,0,0,1-1.129.3C12.521,13.927,11.573,10.4,11.04,8.42Z" transform="translate(-2.156 -1.42)" fill="#465def" fill-rule="evenodd"/>
    <path id="Path_203448" data-name="Path 203448" d="M10.114,16.307,7,16.293l-2.936.786a1.753,1.753,0,0,1-2.147-1.24L1.31,13.581a1.753,1.753,0,0,1,1.24-2.147l2.936-.787L8.172,9.079c.528,1.966,1.419,5.279,1.942,7.228Z" transform="translate(0 -1.728)" fill="#465def" fill-rule="evenodd"/>
    <path id="Path_203449" data-name="Path 203449" d="M14.391,11.914a.585.585,0,0,1,.9-.745,3.4,3.4,0,0,1,.731,2.728A.585.585,0,1,1,14.87,13.7a2.225,2.225,0,0,0-.479-1.789Z" transform="translate(-2.87 -2.142)" fill="#465def" fill-rule="evenodd"/>
    <path id="Path_203450" data-name="Path 203450" d="M15.912,9.954a.585.585,0,1,1,.9-.745A6.208,6.208,0,0,1,18.149,14.2.585.585,0,0,1,17,14a5.037,5.037,0,0,0-1.084-4.047Z" transform="translate(-3.206 -1.709)" fill="#465def" fill-rule="evenodd"/>
    <path id="Path_203451" data-name="Path 203451" d="M21.536,2.614V4.173a1.364,1.364,0,0,1-1.364,1.364H18.614A1.364,1.364,0,0,1,17.25,4.173V2.614A1.364,1.364,0,0,1,18.614,1.25h1.559A1.364,1.364,0,0,1,21.536,2.614Z" transform="translate(-3.531)" fill="#465def" fill-rule="evenodd"/>
    <path id="Path_203452" data-name="Path 203452" d="M6.705,2.614V5.342A1.364,1.364,0,0,1,5.342,6.705H2.614A1.364,1.364,0,0,1,1.25,5.342V2.614A1.364,1.364,0,0,1,2.614,1.25H5.342A1.364,1.364,0,0,1,6.705,2.614Z" transform="translate(0)" fill="#465def" fill-rule="evenodd"/>
    <path id="Path_203453" data-name="Path 203453" d="M21.757,19.224v1.559a.974.974,0,0,1-.974.974H19.224a.974.974,0,0,1-.974-.974V19.224a.974.974,0,0,1,.974-.974h1.559a.974.974,0,0,1,.974.974Z" transform="translate(-3.751 -3.751)" fill="#465def" fill-rule="evenodd"/>
    <path id="Path_203454" data-name="Path 203454" d="M8.4,19.337l.226.841a1.364,1.364,0,0,1-.965,1.671l-.376.1a1.364,1.364,0,0,1-1.67-.964l-.253-.941,2.647-.709Z" transform="translate(-0.907 -3.991)" fill="#465def" fill-rule="evenodd"/>
  </g>
</svg>
