<svg xmlns="http://www.w3.org/2000/svg" xmlns:xlink="http://www.w3.org/1999/xlink" width="63.641" height="63.641" viewBox="0 0 63.641 63.641">
  <defs>
    <filter id="Rectangle_15679" x="0" y="0" width="63.641" height="63.641" filterUnits="userSpaceOnUse">
      <feOffset dx="2" dy="3" input="SourceAlpha"/>
      <feGaussianBlur stdDeviation="3" result="blur"/>
      <feFlood flood-color="#465def" flood-opacity="0.141"/>
      <feComposite operator="in" in2="blur"/>
      <feComposite in="SourceGraphic"/>
    </filter>
    <linearGradient id="linear-gradient" x1="0.198" y1="0.216" x2="0.762" y2="0.785" gradientUnits="objectBoundingBox">
      <stop offset="0" stop-color="#004c8c"/>
      <stop offset="0.19" stop-color="#004c8c" stop-opacity="0.839"/>
      <stop offset="0.6" stop-color="#004c8c" stop-opacity="0.42"/>
      <stop offset="0.97" stop-color="#004c8c" stop-opacity="0"/>
    </linearGradient>
  </defs>
  <g id="Group_56678" data-name="Group 56678" transform="translate(7 6)">
    <g transform="matrix(1, 0, 0, 1, -7, -6)" filter="url(#Rectangle_15679)">
      <rect id="Rectangle_15679-2" data-name="Rectangle 15679" width="45.641" height="45.641" rx="22.821" transform="translate(7 6)" fill="#fff"/>
    </g>
    <g id="Layer_2" data-name="Layer 2" transform="translate(9.609 8.808)">
      <g id="_13.messenger" data-name="13.messenger" transform="translate(0 0)">
        <ellipse id="background" cx="14.013" cy="14.413" rx="14.013" ry="14.413" transform="translate(0)" fill="#0077db"/>
        <path id="shadow" d="M67.877,59.23a14.407,14.407,0,0,1-11.47,10.564l-6.974-6.982,1.312-2.573c-7.425-9.564,8.759-9.38,8.759-9.38Z" transform="translate(-40.006 -40.794)" fill="url(#linear-gradient)"/>
        <path id="icon" d="M45.194,38A6.942,6.942,0,0,0,38,44.662a6.48,6.48,0,0,0,2.681,5.187v2.539l2.45-1.342a7.762,7.762,0,0,0,2.063.278,6.941,6.941,0,0,0,7.194-6.662A6.941,6.941,0,0,0,45.194,38Zm.714,8.97-1.831-1.952L40.5,46.971,44.437,42.8l1.878,1.954L49.843,42.8Z" transform="translate(-31.254 -30.369)" fill="#fff"/>
      </g>
    </g>
  </g>
</svg>
