<svg xmlns="http://www.w3.org/2000/svg" xmlns:xlink="http://www.w3.org/1999/xlink" width="31" height="31" viewBox="0 0 31 31">
  <defs>
    <linearGradient id="linear-gradient" x1="0.183" y1="0.12" x2="0.82" y2="0.807" gradientUnits="objectBoundingBox">
      <stop offset="0" stop-color="#b83200"/>
      <stop offset="0.243" stop-color="#b83200" stop-opacity="0.757"/>
      <stop offset="0.531" stop-color="#b83200" stop-opacity="0.451"/>
      <stop offset="0.899" stop-color="#b83200" stop-opacity="0.039"/>
      <stop offset="1" stop-opacity="0"/>
    </linearGradient>
  </defs>
  <g id="Group_56673" data-name="Group 56673" transform="translate(-0.383)">
    <circle id="background" cx="15.5" cy="15.5" r="15.5" transform="translate(0.383)" fill="#ff4500"/>
    <path id="shadow" d="M66.681,61.858a15.583,15.583,0,0,1-10.9,10.866l-9.56-9.55C41.718,53.782,57.825,53,57.825,53Z" transform="translate(-35.872 -42.15)" fill="url(#linear-gradient)"/>
    <path id="verified" d="M13.822,7.7H12.757a.1.1,0,0,0-.1.1.1.1,0,0,0,.1.1h1.065a.1.1,0,0,0,.1-.1.1.1,0,0,0-.1-.1Zm.544,0h-.275a.1.1,0,0,0-.1.1.1.1,0,0,0,.1.1h.275a.1.1,0,0,0,.1-.1.1.1,0,0,0-.1-.1ZM13.673,9.42a1.234,1.234,0,1,0,1.235,1.235A1.234,1.234,0,0,0,13.673,9.42Zm-.3,1.736v0a.136.136,0,0,1-.059.018H13.3a.107.107,0,0,1-.073-.044c-.015-.023-.325-.462-.325-.462a.1.1,0,0,1,.023-.138.1.1,0,0,1,.138.023c.138.193.222.313.272.392.143-.111.436-.319,1.036-.74l.114.161-1.118.787Zm.3-1.736a1.234,1.234,0,1,0,1.235,1.235A1.234,1.234,0,0,0,13.673,9.42Zm-.3,1.736v0a.136.136,0,0,1-.059.018H13.3a.107.107,0,0,1-.073-.044c-.015-.023-.325-.462-.325-.462a.1.1,0,0,1,.023-.138.1.1,0,0,1,.138.023c.138.193.222.313.272.392.143-.111.436-.319,1.036-.74l.114.161-1.118.787Zm1-3.453h-.275a.1.1,0,0,0-.1.1.1.1,0,0,0,.1.1h.275a.1.1,0,0,0,.1-.1.1.1,0,0,0-.1-.1Zm-.544,0H12.757a.1.1,0,0,0-.1.1.1.1,0,0,0,.1.1h1.065a.1.1,0,0,0,.1-.1.1.1,0,0,0-.1-.1ZM12.195,4a8.195,8.195,0,1,0,8.195,8.195A8.195,8.195,0,0,0,12.195,4ZM11.65,8.106a.692.692,0,0,1,.691-.691H15a.693.693,0,0,1,.694.691v.059H11.65Zm0,.258H15.7V12.88H11.65Zm0,4.712H15.7V13.2a.693.693,0,0,1-.694.691H12.341a.692.692,0,0,1-.691-.691ZM8.709,16.7a.273.273,0,0,1-.272.269H8.051a.273.273,0,0,1-.272-.269V14.12a.274.274,0,0,1,.272-.272h.386a.274.274,0,0,1,.272.272Zm7.762-1.867-2.145,1.229a5.322,5.322,0,0,1-.623.3c-.17.067-.348.12-.348.12a4.477,4.477,0,0,1-.755.173l-1.507.217a4.8,4.8,0,0,1-1.311.012l-.875-.111V14.091l1.428-.237a.291.291,0,0,1,.158.015l2.169.808a.46.46,0,0,0,.179.032h.155a.313.313,0,0,1,0,.626h-.6a.284.284,0,0,1-.05,0l-2.125-.345a.1.1,0,0,0-.114.079.1.1,0,0,0,.082.117l2.125.345a.723.723,0,0,0,.082.006h.6a.506.506,0,0,0,.392-.187l2.851-1.018a.278.278,0,0,1,.217.015.266.266,0,0,1,.143.164.283.283,0,0,1-.126.331Zm-2.8-5.417a1.234,1.234,0,1,0,1.235,1.235A1.234,1.234,0,0,0,13.673,9.42Zm-.3,1.736v0a.136.136,0,0,1-.059.018H13.3a.107.107,0,0,1-.073-.044c-.015-.023-.325-.462-.325-.462a.1.1,0,0,1,.023-.138.1.1,0,0,1,.138.023c.138.193.222.313.272.392.143-.111.436-.319,1.036-.74l.114.161-1.118.787Zm1-3.453h-.275a.1.1,0,0,0-.1.1.1.1,0,0,0,.1.1h.275a.1.1,0,0,0,.1-.1.1.1,0,0,0-.1-.1Zm-.544,0H12.757a.1.1,0,0,0-.1.1.1.1,0,0,0,.1.1h1.065a.1.1,0,0,0,.1-.1.1.1,0,0,0-.1-.1Zm0,0H12.757a.1.1,0,0,0-.1.1.1.1,0,0,0,.1.1h1.065a.1.1,0,0,0,.1-.1.1.1,0,0,0-.1-.1Zm.544,0h-.275a.1.1,0,0,0-.1.1.1.1,0,0,0,.1.1h.275a.1.1,0,0,0,.1-.1.1.1,0,0,0-.1-.1Zm0,0h-.275a.1.1,0,0,0-.1.1.1.1,0,0,0,.1.1h.275a.1.1,0,0,0,.1-.1.1.1,0,0,0-.1-.1Zm-.544,0H12.757a.1.1,0,0,0-.1.1.1.1,0,0,0,.1.1h1.065a.1.1,0,0,0,.1-.1.1.1,0,0,0-.1-.1Z" transform="translate(3.525 3.525)" fill="#fff"/>
  </g>
</svg>
