<svg id="secure" xmlns="http://www.w3.org/2000/svg" width="16.756" height="16.756" viewBox="0 0 16.756 16.756">
  <path id="Path_203437" data-name="Path 203437" d="M20.023,11.275l-3.665-1.247a.515.515,0,0,0-.337,0l-3.665,1.247a.522.522,0,0,0-.355.5v2.805c0,3.424,3.822,5.088,3.984,5.157a.533.533,0,0,0,.2.041.521.521,0,0,0,.2-.042c.163-.069,3.984-1.733,3.984-5.157V11.77a.522.522,0,0,0-.355-.5Zm-1.539,2.647-1.92,2.444a.7.7,0,0,1-1,.1l-1.222-1.047a.7.7,0,0,1,.908-1.06l.669.573,1.47-1.87a.7.7,0,0,1,1.1.862Z" transform="translate(-3.622 -3.018)" fill="#465def"/>
  <path id="Path_203438" data-name="Path 203438" d="M13.265,0H2.094a2.094,2.094,0,0,0,0,4.189H13.265a2.094,2.094,0,1,0,0-4.189ZM2.094,2.793a.7.7,0,1,1,.7-.7A.7.7,0,0,1,2.094,2.793Zm2.793,0a.7.7,0,1,1,.7-.7A.7.7,0,0,1,4.887,2.793Z" fill="#465def"/>
  <path id="Path_203439" data-name="Path 203439" d="M2.094,8a2.094,2.094,0,1,0,0,4.189H6.982V11.17A1.923,1.923,0,0,1,8.287,9.347L11.946,8.1a1.9,1.9,0,0,1,.621-.1Zm0,2.793a.7.7,0,1,1,.7-.7A.7.7,0,0,1,2.094,10.793Zm2.793,0a.7.7,0,1,1,.7-.7A.7.7,0,0,1,4.887,10.793Z" transform="translate(0 -2.415)" fill="#465def"/>
  <path id="Path_203440" data-name="Path 203440" d="M6.982,16.384V16H2.094a2.094,2.094,0,0,0,0,4.189H8.357A6.089,6.089,0,0,1,6.982,16.384ZM2.094,18.793a.7.7,0,1,1,.7-.7A.7.7,0,0,1,2.094,18.793Zm2.793,0a.7.7,0,1,1,.7-.7A.7.7,0,0,1,4.887,18.793Z" transform="translate(0 -4.829)" fill="#465def"/>
</svg>
