<svg xmlns="http://www.w3.org/2000/svg" width="71.599" height="80.678" viewBox="0 0 71.599 80.678">
  <path id="Path_16" data-name="Path 16" d="M29.727,35.355c0,.737-.315,2.317.411,2.772.99.607,1.378-.562,1.631-1.316.5-1.479.27-3.936,1.181-5.145A49.267,49.267,0,0,0,59.531,53.895c11.343,3.993,25.244,4.763,35.928-1.625,5.23-3.121,9.56-7.648,11.208-13.648.141-.517.956-3.031-.135-2.924-.562.051-1.58,3.29-1.85,3.841a24.1,24.1,0,0,1-5.623,7.434c-8.1,7.237-20.126,8.705-30.406,6.782a51.28,51.28,0,0,1-19.288-8.013,44.268,44.268,0,0,1-8.193-7.069c-2.013-2.249-5.415-5.927-6.028-9,2.7.4,5.112,3.453,7.749,4.257,1.4.427,3-.259,2.03-1.833-.787-1.282-3.329-2.092-4.617-2.778-1.44-.765-2.9-1.479-4.4-2.109-1.125-.461-3.273-1.906-4.448-1.44-2.075.832-1.687,7.682-1.732,9.56C29.727,36.125,29.755,34.562,29.727,35.355Z" transform="translate(109.957 10.606) rotate(127)" fill="#6393c4"/>
</svg>
