<svg xmlns="http://www.w3.org/2000/svg" xmlns:xlink="http://www.w3.org/1999/xlink" width="177.104" height="55.646" viewBox="0 0 177.104 55.646">
  <defs>
    <clipPath id="clip-path">
      <path id="Path_201897" data-name="Path 201897" d="M0,0H67.313V55.646H0Z" fill="#fff"/>
    </clipPath>
  </defs>
  <g id="Group_81342" data-name="Group 81342" transform="translate(-699.896 -1069)">
    <rect id="Rectangle_14516" data-name="Rectangle 14516" width="103.069" height="18.184" rx="3" transform="translate(772 1078)" fill="#fff0dd"/>
    <g id="Group_54470" data-name="Group 54470" transform="translate(776.977 1081)">
      <path id="Path_201912" data-name="Path 201912" d="M11.366,12.657h8.621V9.388l-8.621,3.269Z" transform="translate(-11.366 -7.844)" fill="#ff6200" stroke="#fff0dd" stroke-width="0.5"/>
      <path id="Path_201913" data-name="Path 201913" d="M19.342,9.5V21.047L23.411,7.96,19.342,9.5Z" transform="translate(-10.721 -7.96)" fill="#ff6200" stroke="#fff0dd" stroke-width="0.5"/>
      <path id="Path_201914" data-name="Path 201914" d="M19.586,12.412h-3.26l3.26,8.275V12.412Z" transform="translate(-10.965 -7.6)" fill="#ff6200" stroke="#fff0dd" stroke-width="0.5"/>
      <path id="Path_201915" data-name="Path 201915" d="M11.366,12.412l6.2,2.124-.836-2.124H11.366Z" transform="translate(-11.366 -7.6)" fill="#ff6200" stroke="#fff0dd" stroke-width="0.5"/>
    </g>
    <text id="EMERGING_FAVORITE" data-name="EMERGING FAVORITE" transform="translate(794.857 1090)" fill="#ff6200" font-size="7" font-family="Inter" font-weight="600"><tspan x="0" y="0">EMERGING FAVORITE</tspan></text>
    <text id="Conversational_AI_Platform_Software" data-name="Conversational AI Platform Software" transform="translate(770 1111)" fill="#1c6fd1" font-size="6" font-family="Inter" font-weight="700"><tspan x="0" y="0">Conversational AI Platform Software</tspan></text>
    <g id="download_2_" data-name="download (2)" transform="translate(699.896 1069)" clip-path="url(#clip-path)">
      <path id="Path_201882" data-name="Path 201882" d="M61.466,24.7C58.2,38.235,45.317,50.174,34.449,55.646,23.581,50.174,10.7,38.24,7.433,24.7A57.57,57.57,0,0,1,7.394,0H61.507a57.53,57.53,0,0,1-.04,24.7Z" transform="translate(-0.792)" fill="#002f47"/>
      <path id="Path_201883" data-name="Path 201883" d="M7.433,24.7C10.7,38.235,23.581,50.174,34.449,55.646V0H7.392a57.589,57.589,0,0,0,.042,24.7Z" transform="translate(-0.792)" fill="#014e81" opacity="0.2"/>
      <path id="Path_201884" data-name="Path 201884" d="M21.576,9.4,18.3,19.929l-1.95-4.947-4.982-1.71L21.576,9.4Zm5.678,8.083a1.217,1.217,0,0,1-.19.144,2.082,2.082,0,0,1-.347.173,2.947,2.947,0,0,1-.522.15,3.72,3.72,0,0,1-.708.063,3.241,3.241,0,0,1-1.33-.251,2.48,2.48,0,0,1-.922-.694,2.881,2.881,0,0,1-.537-1.058,5,5,0,0,1-.171-1.342,4.682,4.682,0,0,1,.186-1.35,3.02,3.02,0,0,1,.556-1.072,2.548,2.548,0,0,1,.926-.707,3.45,3.45,0,0,1,1.975-.188,3.2,3.2,0,0,1,.522.159,2.062,2.062,0,0,1,.595.361.778.778,0,0,1,.141.184.452.452,0,0,1,.061.232.637.637,0,0,1-.142.383,2.776,2.776,0,0,1-.313.356q-.122-.121-.252-.235a1.662,1.662,0,0,0-.317-.211,2.008,2.008,0,0,0-.4-.154,1.859,1.859,0,0,0-.5-.063,1.548,1.548,0,0,0-.811.2,1.565,1.565,0,0,0-.528.515,2.2,2.2,0,0,0-.285.726,4.305,4.305,0,0,0,0,1.7,2.08,2.08,0,0,0,.3.731,1.57,1.57,0,0,0,.545.51,1.773,1.773,0,0,0,1.722-.047,1.939,1.939,0,0,0,.3-.2c.085-.07.157-.125.214-.182a3.6,3.6,0,0,1,.276.365,1.828,1.828,0,0,1,.113.211.456.456,0,0,1,0,.4.908.908,0,0,1-.151.192l0,0Zm4.9-.737a2.152,2.152,0,0,0,.22,1.113,1.861,1.861,0,0,1-.32.1,1.56,1.56,0,0,1-.312.03.846.846,0,0,1-.52-.136A.608.608,0,0,1,31,17.462a1.739,1.739,0,0,1-.554.376,2.055,2.055,0,0,1-.842.154,1.894,1.894,0,0,1-.516-.072,1.326,1.326,0,0,1-.467-.236,1.217,1.217,0,0,1-.344-.439,1.525,1.525,0,0,1-.134-.67,1.283,1.283,0,0,1,.235-.8,1.669,1.669,0,0,1,.588-.487,2.65,2.65,0,0,1,.763-.25,7.457,7.457,0,0,1,.978-.1h.206v-.176a.638.638,0,0,0-.2-.529,1.019,1.019,0,0,0-.636-.157,1.842,1.842,0,0,0-.73.137,5.906,5.906,0,0,0-.629.31,1.431,1.431,0,0,1-.215-.363.887.887,0,0,1-.082-.3.354.354,0,0,1,.148-.261,1.457,1.457,0,0,1,.408-.227,3.174,3.174,0,0,1,.591-.164,3.778,3.778,0,0,1,.707-.064,3.147,3.147,0,0,1,.879.107,1.363,1.363,0,0,1,.583.33,1.238,1.238,0,0,1,.321.556,2.87,2.87,0,0,1,.1.777l0,1.826Zm-1.223-1.129h-.134a.794.794,0,0,0-.134.01q-.238.018-.473.057a1.339,1.339,0,0,0-.422.142.864.864,0,0,0-.3.25.647.647,0,0,0-.115.4.71.71,0,0,0,.154.46.629.629,0,0,0,.516.188,1.194,1.194,0,0,0,.63-.174.732.732,0,0,0,.2-.169.286.286,0,0,0,.071-.169l.006-.993Zm3.6-1.9A1.784,1.784,0,0,1,35,13.342a1.607,1.607,0,0,1,.819-.189,1.883,1.883,0,0,1,.671.125,1.452,1.452,0,0,1,.567.392,1.956,1.956,0,0,1,.4.716,3.5,3.5,0,0,1,.148,1.093,3.792,3.792,0,0,1-.172,1.243,2.114,2.114,0,0,1-.442.774,1.538,1.538,0,0,1-.605.4,2.015,2.015,0,0,1-.667.117,1.618,1.618,0,0,1-.481-.063,1.8,1.8,0,0,1-.348-.141.911.911,0,0,1-.315-.261v2.381h-1.3V13.293l.116-.019c.039-.006.084-.01.136-.015h.183a1.261,1.261,0,0,1,.539.1.5.5,0,0,1,.28.359v0Zm1.72,1.789a2.951,2.951,0,0,0-.047-.542,1.339,1.339,0,0,0-.157-.435.769.769,0,0,0-.3-.285.925.925,0,0,0-.45-.1.79.79,0,0,0-.556.154.471.471,0,0,0-.157.339v2.055a1.26,1.26,0,0,0,.27.184.938.938,0,0,0,.451.107.768.768,0,0,0,.713-.388,2.126,2.126,0,0,0,.228-1.083Zm2.36,1.665a1.729,1.729,0,0,1-.085-.407q-.019-.212-.019-.426V11.852l.143-.018q.071-.01.143-.016h.154a1.557,1.557,0,0,1,.3.03.706.706,0,0,1,.278.115.63.63,0,0,1,.2.237.86.86,0,0,1,.076.392v.687h1.338v.977H39.8v2.061q0,.676.544.675a.716.716,0,0,0,.252-.044,1.42,1.42,0,0,0,.381-.207,1.207,1.207,0,0,0,.1-.087,3.262,3.262,0,0,1,.22.368.68.68,0,0,1,.077.292.391.391,0,0,1-.1.25.981.981,0,0,1-.283.224,1.721,1.721,0,0,1-.439.167,2.33,2.33,0,0,1-.563.063,1.576,1.576,0,0,1-.923-.233,1.228,1.228,0,0,1-.463-.609l0,0Zm5.824-.126a1.505,1.505,0,0,0,.422-.054,1.687,1.687,0,0,0,.326-.125,1.4,1.4,0,0,0,.252-.169l.191-.17a2.7,2.7,0,0,1,.24.376.843.843,0,0,1,.126.376.49.49,0,0,1-.239.387,1.791,1.791,0,0,1-.569.266,3.008,3.008,0,0,1-.865.111,3.366,3.366,0,0,1-.879-.117,1.928,1.928,0,0,1-.776-.406,2.074,2.074,0,0,1-.548-.778,3.127,3.127,0,0,1-.21-1.235,2.676,2.676,0,0,1,.174-1.061,2.1,2.1,0,0,1,.5-.731,1.976,1.976,0,0,1,.7-.426,2.45,2.45,0,0,1,.8-.136,2.195,2.195,0,0,1,.908.17,1.692,1.692,0,0,1,.607.455,1.814,1.814,0,0,1,.339.652,2.92,2.92,0,0,1,.1.776v.3a.9.9,0,0,1-.01.169,1.143,1.143,0,0,1-.014.125H43.189a1.548,1.548,0,0,0,.326.887,1.107,1.107,0,0,0,.91.353v0Zm.435-1.963a1.435,1.435,0,0,0-.177-.752.689.689,0,0,0-.64-.29.787.787,0,0,0-.628.276,1.148,1.148,0,0,0-.235.769l1.681,0Zm3.437-1.34a1.571,1.571,0,0,1,.153-.193,1.089,1.089,0,0,1,.233-.191,1.5,1.5,0,0,1,.307-.145,1.114,1.114,0,0,1,.357-.057,1.746,1.746,0,0,1,.243.02.827.827,0,0,1,.239.071.484.484,0,0,1,.177.144.373.373,0,0,1,.066.226,1.386,1.386,0,0,1-.1.484,3.735,3.735,0,0,1-.21.467,1.4,1.4,0,0,0-.325-.209.939.939,0,0,0-.377-.071.727.727,0,0,0-.5.174.535.535,0,0,0-.2.417v3.134h-1.3V13.293l.113-.019c.039,0,.083-.011.135-.015s.112,0,.181,0a1.13,1.13,0,0,1,.531.125.536.536,0,0,1,.282.376v-.016Zm3.7,0a1.578,1.578,0,0,1,.154-.193,1.061,1.061,0,0,1,.233-.191,1.487,1.487,0,0,1,.305-.145,1.121,1.121,0,0,1,.359-.057,1.746,1.746,0,0,1,.243.02.827.827,0,0,1,.239.071.484.484,0,0,1,.177.144.373.373,0,0,1,.066.226,1.368,1.368,0,0,1-.105.484,3.93,3.93,0,0,1-.21.467,1.431,1.431,0,0,0-.332-.209.945.945,0,0,0-.376-.071.732.732,0,0,0-.5.174.538.538,0,0,0-.2.417v3.134H50.75V13.293l.115-.019c.039,0,.083-.011.134-.015s.111,0,.181,0a1.122,1.122,0,0,1,.53.125.539.539,0,0,1,.283.376v-.016Zm6.2,3a2.162,2.162,0,0,0,.219,1.113,1.567,1.567,0,0,1-.63.125.847.847,0,0,1-.52-.136.608.608,0,0,1-.225-.387,1.736,1.736,0,0,1-.554.376,2.053,2.053,0,0,1-.842.154,1.883,1.883,0,0,1-.516-.072,1.326,1.326,0,0,1-.468-.236,1.215,1.215,0,0,1-.343-.439,1.524,1.524,0,0,1-.135-.67,1.283,1.283,0,0,1,.235-.8A1.683,1.683,0,0,1,55,15.287a2.661,2.661,0,0,1,.765-.25,7.384,7.384,0,0,1,.978-.1h.2v-.176a.638.638,0,0,0-.2-.529,1.014,1.014,0,0,0-.635-.157,1.832,1.832,0,0,0-.73.137,5.826,5.826,0,0,0-.629.31,1.43,1.43,0,0,1-.214-.363.887.887,0,0,1-.082-.295.355.355,0,0,1,.148-.262,1.428,1.428,0,0,1,.407-.227,3.7,3.7,0,0,1,1.3-.228,3.128,3.128,0,0,1,.88.106,1.348,1.348,0,0,1,.583.33,1.227,1.227,0,0,1,.319.556,2.786,2.786,0,0,1,.1.777l0,1.826Zm-1.222-1.129h-.135a.794.794,0,0,0-.133.01q-.238.018-.474.057a1.337,1.337,0,0,0-.416.136.865.865,0,0,0-.3.25.647.647,0,0,0-.115.4.711.711,0,0,0,.153.461.632.632,0,0,0,.516.188,1.183,1.183,0,0,0,.63-.174.751.751,0,0,0,.2-.169.285.285,0,0,0,.072-.17v-.986ZM31.159,44.978H27.613v-.865l1.193-1.205q.511-.533.669-.729a1.625,1.625,0,0,0,.217-.335.722.722,0,0,0,.063-.294.383.383,0,0,0-.125-.3.509.509,0,0,0-.348-.11.939.939,0,0,0-.466.132,3.316,3.316,0,0,0-.533.389l-.726-.847a3.886,3.886,0,0,1,.636-.483,2.265,2.265,0,0,1,.56-.222,2.756,2.756,0,0,1,.68-.077,2.072,2.072,0,0,1,.848.166,1.33,1.33,0,0,1,.577.476,1.217,1.217,0,0,1,.206.691,1.835,1.835,0,0,1-.073.532,1.9,1.9,0,0,1-.221.477,3.31,3.31,0,0,1-.4.5q-.25.258-1.061.986v.025h1.848l0,1.09Zm4.165-2.431a3.282,3.282,0,0,1-.435,1.9,1.535,1.535,0,0,1-1.33.6,1.507,1.507,0,0,1-1.32-.627,3.27,3.27,0,0,1-.445-1.869,3.323,3.323,0,0,1,.435-1.908,1.526,1.526,0,0,1,1.33-.606,1.5,1.5,0,0,1,1.318.626,3.259,3.259,0,0,1,.446,1.885Zm-2.216,0a4.191,4.191,0,0,0,.1,1.139c.07.206.184.309.348.309s.281-.106.349-.319a6.323,6.323,0,0,0,0-2.264c-.07-.216-.186-.324-.348-.324s-.278.1-.348.313a4.213,4.213,0,0,0-.1,1.148Zm6.282,2.431H35.845v-.865l1.193-1.205q.511-.533.668-.729a1.6,1.6,0,0,0,.219-.334.72.72,0,0,0,.061-.294.385.385,0,0,0-.125-.3.509.509,0,0,0-.348-.11.939.939,0,0,0-.466.132,3.316,3.316,0,0,0-.534.389l-.718-.847a3.807,3.807,0,0,1,.635-.483,2.293,2.293,0,0,1,.559-.222,2.768,2.768,0,0,1,.681-.077,2.037,2.037,0,0,1,.847.166,1.338,1.338,0,0,1,.579.476,1.221,1.221,0,0,1,.206.691,1.78,1.78,0,0,1-.3,1.009,3.12,3.12,0,0,1-.4.5c-.167.174-.521.5-1.061.987v.025h1.848l0,1.09Zm3.335,0H41.385V42.4q0-.47.019-.861a2.828,2.828,0,0,1-.308.313l-.555.457-.684-.841L41.536,40.1h1.189v4.875Z" transform="translate(-1.484 -1.227)" fill="#002f47"/>
      <path id="Path_201885" data-name="Path 201885" d="M34.715,53.934l-.118-.063A58.872,58.872,0,0,1,19.335,41.93C14.243,36.37,10.81,30.361,9.414,24.552A55.891,55.891,0,0,1,9.049,2.222l.037-.2H60.344l.039.2a56.012,56.012,0,0,1-.362,22.331c-1.4,5.808-4.834,11.817-9.921,17.378A58.736,58.736,0,0,1,34.839,53.871l-.123.063ZM9.5,2.52A55.461,55.461,0,0,0,9.9,24.435C11.279,30.162,14.67,36.09,19.7,41.593a58.488,58.488,0,0,0,15.01,11.773,58.316,58.316,0,0,0,15.01-11.773c5.035-5.5,8.428-11.432,9.808-17.158A55.428,55.428,0,0,0,59.928,2.52H9.5Z" transform="translate(-1.057 -0.263)" fill="#fff"/>
      <path id="Path_201886" data-name="Path 201886" d="M0,33.812,3.481,22.783h8.075L8.075,33.812Z" transform="translate(0 -2.974)" fill="#e44848"/>
      <path id="Path_201887" data-name="Path 201887" d="M3.755,36.319,7.237,25.29l4.81-2.507L8.566,33.812l-4.81,2.507Z" transform="translate(-0.49 -2.974)" fill="#002f47" opacity="0.4"/>
      <path id="Path_201888" data-name="Path 201888" d="M75.685,28.55,72.2,39.578H64.13l3.48-11.029h8.075Z" transform="translate(-8.371 -3.727)" fill="#e44848"/>
      <path id="Path_201889" data-name="Path 201889" d="M72.419,25.666,68.938,36.7,64.13,39.2l3.48-11.029Z" transform="translate(-8.371 -3.35)" fill="#002f47" opacity="0.4"/>
      <path id="Path_201890" data-name="Path 201890" d="M64.538,25.666,61.057,36.7H3.755L7.237,25.666h57.3Z" transform="translate(-0.49 -3.35)" fill="#f99c2d"/>
      <path id="Path_201891" data-name="Path 201891" d="M18.114,32.7a1.964,1.964,0,0,1-.765,1.393,2.749,2.749,0,0,1-1.716.5,3.286,3.286,0,0,1-.828-.1,1.9,1.9,0,0,1-.647-.287l.172-1.411a3.032,3.032,0,0,0,.733.358,2.4,2.4,0,0,0,.776.146.765.765,0,0,0,.467-.126.494.494,0,0,0,.2-.354.42.42,0,0,0-.023-.2.7.7,0,0,0-.114-.19,5.639,5.639,0,0,0-.426-.417,2.216,2.216,0,0,1-.591-.774,1.668,1.668,0,0,1-.108-.866,1.942,1.942,0,0,1,.376-.949,2.089,2.089,0,0,1,.828-.652,2.632,2.632,0,0,1,1.109-.232,3.207,3.207,0,0,1,1.688.431l-.693,1.2a2.4,2.4,0,0,0-1.13-.355.683.683,0,0,0-.412.113.46.46,0,0,0-.179.33.524.524,0,0,0,.09.369,2.48,2.48,0,0,0,.458.457,2.17,2.17,0,0,1,.617.737,1.6,1.6,0,0,1,.12.883ZM23,34.506H21.417l.8-2.4h-1.4l-.809,2.4H18.431L20.4,28.616h1.578l-.72,2.184h1.406l.719-2.184H24.97L23,34.506Zm5.4-5.986a1.937,1.937,0,0,1,1.56.6,2.073,2.073,0,0,1,.377,1.669,5.151,5.151,0,0,1-.643,1.961,3.773,3.773,0,0,1-1.275,1.362,3.161,3.161,0,0,1-1.7.474,2.007,2.007,0,0,1-1.605-.6,2.065,2.065,0,0,1-.385-1.669,5.027,5.027,0,0,1,.656-1.962,3.808,3.808,0,0,1,1.3-1.365,3.234,3.234,0,0,1,1.713-.47Zm.342,2.287a1.1,1.1,0,0,0-.105-.72.575.575,0,0,0-.53-.261,1.158,1.158,0,0,0-.776.339,2.808,2.808,0,0,0-.649.93,4.087,4.087,0,0,0-.35,1.214q-.117.974.689.976a1.132,1.132,0,0,0,.754-.335,2.691,2.691,0,0,0,.628-.9,4.235,4.235,0,0,0,.34-1.241ZM32.4,32.361l-.718,2.145H30.1l1.97-5.891h1.564a2.344,2.344,0,0,1,1.507.4,1.26,1.26,0,0,1,.39,1.21,2.287,2.287,0,0,1-.421,1.1,2.156,2.156,0,0,1-.941.715l.715,2.467H33.27l-.576-2.145h-.3Zm.4-1.2h.206a.892.892,0,0,0,.939-.835.454.454,0,0,0-.094-.376.516.516,0,0,0-.389-.125h-.215L32.8,31.165Zm4.794,3.341H36.015l1.525-4.591H36.255l.438-1.3h4.152l-.447,1.3H39.114l-1.522,4.591Zm2.165,0,1.97-5.891h1.58l-1.539,4.61h1.877l-.434,1.285Zm4.3,0,1.969-5.891h1.6l-1.97,5.891h-1.6Zm6.813-1.81a1.968,1.968,0,0,1-.765,1.393,2.742,2.742,0,0,1-1.716.5,3.248,3.248,0,0,1-.828-.1,1.921,1.921,0,0,1-.648-.287l.17-1.415a3.032,3.032,0,0,0,.733.358,2.394,2.394,0,0,0,.776.145.763.763,0,0,0,.468-.125.492.492,0,0,0,.2-.355.406.406,0,0,0-.023-.2.674.674,0,0,0-.115-.19A5.525,5.525,0,0,0,48.695,32a2.2,2.2,0,0,1-.591-.774A1.669,1.669,0,0,1,48,30.362a1.936,1.936,0,0,1,.376-.948,2.087,2.087,0,0,1,.828-.654,2.659,2.659,0,0,1,1.109-.232,3.2,3.2,0,0,1,1.683.431l-.692,1.2a2.433,2.433,0,0,0-1.13-.355.683.683,0,0,0-.412.113.461.461,0,0,0-.179.33.52.52,0,0,0,.09.369,2.508,2.508,0,0,0,.458.457,2.158,2.158,0,0,1,.616.737A1.587,1.587,0,0,1,50.871,32.7Zm2.73,1.81H52.023l1.52-4.591h-1.28l.436-1.3h4.152l-.445,1.3H55.12L53.6,34.506Z" transform="translate(-1.848 -3.723)" fill="#002f47"/>
      <path id="Path_201892" data-name="Path 201892" d="M11.366,12.017H18.3V9.388l-6.935,2.629Z" transform="translate(-1.484 -1.226)" fill="#f99c2d"/>
      <path id="Path_201893" data-name="Path 201893" d="M19.342,9.2v9.286L22.616,7.96,19.342,9.2Z" transform="translate(-2.525 -1.039)" fill="#6ac5ec"/>
      <path id="Path_201894" data-name="Path 201894" d="M18.948,12.412H16.326l2.622,6.657V12.412Z" transform="translate(-2.131 -1.62)" fill="#014e81"/>
      <path id="Path_201895" data-name="Path 201895" d="M11.366,12.412l4.985,1.708-.672-1.708H11.366Z" transform="translate(-1.484 -1.62)" fill="#e44848"/>
      <path id="Path_201896" data-name="Path 201896" d="M28.929,16.326a1.217,1.217,0,0,1-.19.144,2.152,2.152,0,0,1-.347.173,3.054,3.054,0,0,1-.522.149,3.651,3.651,0,0,1-.708.063,3.241,3.241,0,0,1-1.33-.25,2.48,2.48,0,0,1-.922-.695,2.881,2.881,0,0,1-.537-1.057A5,5,0,0,1,24.2,13.51a4.682,4.682,0,0,1,.186-1.351,3.017,3.017,0,0,1,.556-1.071,2.547,2.547,0,0,1,.926-.707,3.45,3.45,0,0,1,1.975-.188,3.115,3.115,0,0,1,.522.159,2.062,2.062,0,0,1,.595.361.778.778,0,0,1,.141.184.452.452,0,0,1,.061.231.637.637,0,0,1-.142.383,2.776,2.776,0,0,1-.313.356q-.122-.122-.252-.236a1.662,1.662,0,0,0-.317-.21,2.008,2.008,0,0,0-.4-.155,1.859,1.859,0,0,0-.5-.063,1.546,1.546,0,0,0-.813.193,1.573,1.573,0,0,0-.527.516,2.168,2.168,0,0,0-.285.725,4.292,4.292,0,0,0,0,1.7,2.038,2.038,0,0,0,.3.73,1.554,1.554,0,0,0,.544.51,1.878,1.878,0,0,0,1.33.125,1.9,1.9,0,0,0,.394-.168,1.939,1.939,0,0,0,.3-.2c.085-.07.157-.125.214-.183a3.639,3.639,0,0,1,.276.365,1.84,1.84,0,0,1,.113.212.456.456,0,0,1,0,.4.906.906,0,0,1-.151.193m4.9-.736a2.15,2.15,0,0,0,.22,1.113,1.826,1.826,0,0,1-.32.1,1.56,1.56,0,0,1-.312.03.846.846,0,0,1-.52-.136.608.608,0,0,1-.224-.387,1.739,1.739,0,0,1-.554.376,2.055,2.055,0,0,1-.842.155,1.9,1.9,0,0,1-.516-.073,1.326,1.326,0,0,1-.467-.235,1.217,1.217,0,0,1-.344-.439,1.529,1.529,0,0,1-.134-.671,1.282,1.282,0,0,1,.235-.8,1.661,1.661,0,0,1,.588-.487,2.661,2.661,0,0,1,.763-.25,7.783,7.783,0,0,1,.978-.1h.206v-.176a.638.638,0,0,0-.2-.529,1.019,1.019,0,0,0-.636-.157,1.861,1.861,0,0,0-.73.135,6.184,6.184,0,0,0-.629.311A1.429,1.429,0,0,1,30.179,13a.877.877,0,0,1-.08-.3.353.353,0,0,1,.147-.261,1.428,1.428,0,0,1,.407-.227,3.243,3.243,0,0,1,.591-.165,3.777,3.777,0,0,1,.707-.063,3.155,3.155,0,0,1,.879.107,1.361,1.361,0,0,1,.583.33,1.247,1.247,0,0,1,.321.556,2.9,2.9,0,0,1,.1.778l0,1.825ZM32.6,14.46H32.47a.8.8,0,0,0-.134.01q-.238.018-.473.057a1.335,1.335,0,0,0-.422.142.864.864,0,0,0-.3.251.647.647,0,0,0-.115.4.71.71,0,0,0,.154.461.632.632,0,0,0,.516.187,1.194,1.194,0,0,0,.63-.173.732.732,0,0,0,.2-.169.286.286,0,0,0,.071-.17l.006-.992Zm3.6-1.9a1.8,1.8,0,0,1,.476-.376,1.608,1.608,0,0,1,.819-.19,1.883,1.883,0,0,1,.671.125,1.459,1.459,0,0,1,.567.391,1.957,1.957,0,0,1,.4.717,3.493,3.493,0,0,1,.148,1.093,3.792,3.792,0,0,1-.172,1.243,2.122,2.122,0,0,1-.442.774,1.548,1.548,0,0,1-.605.4,2.012,2.012,0,0,1-.667.115,1.623,1.623,0,0,1-.481-.063,1.8,1.8,0,0,1-.348-.14.911.911,0,0,1-.315-.261v2.381h-1.3V12.134l.116-.018q.068-.01.136-.016h.183a1.249,1.249,0,0,1,.539.105.5.5,0,0,1,.28.359v0Zm1.72,1.794a2.95,2.95,0,0,0-.047-.542,1.339,1.339,0,0,0-.157-.435.768.768,0,0,0-.3-.285.925.925,0,0,0-.45-.1.79.79,0,0,0-.556.154.471.471,0,0,0-.157.339v2.051a1.293,1.293,0,0,0,.27.184.926.926,0,0,0,.451.1.769.769,0,0,0,.713-.385,2.129,2.129,0,0,0,.228-1.084m2.36,1.661a1.729,1.729,0,0,1-.085-.406q-.019-.212-.019-.426V10.693l.143-.019c.043-.006.091-.01.143-.015h.154a1.556,1.556,0,0,1,.3.03.708.708,0,0,1,.278.116.635.635,0,0,1,.2.236.86.86,0,0,1,.076.393v.687H42.81V13.1H41.473v2.061q0,.673.544.674a.716.716,0,0,0,.252-.043,1.42,1.42,0,0,0,.381-.207c.048-.039.082-.07.1-.088a3.351,3.351,0,0,1,.22.369.68.68,0,0,1,.077.291.391.391,0,0,1-.1.251.981.981,0,0,1-.283.224,1.722,1.722,0,0,1-.439.166,2.37,2.37,0,0,1-.564.063,1.577,1.577,0,0,1-.922-.232,1.228,1.228,0,0,1-.463-.609m5.826-.13a1.637,1.637,0,0,0,.748-.179,1.393,1.393,0,0,0,.25-.17l.191-.17a2.622,2.622,0,0,1,.239.376.819.819,0,0,1,.126.376.489.489,0,0,1-.239.388,1.771,1.771,0,0,1-.569.265,3.008,3.008,0,0,1-.865.112,3.4,3.4,0,0,1-.879-.117,1.943,1.943,0,0,1-.776-.406,2.074,2.074,0,0,1-.548-.779,3.127,3.127,0,0,1-.21-1.235,2.679,2.679,0,0,1,.177-1.061,2.1,2.1,0,0,1,.5-.73,1.941,1.941,0,0,1,.7-.426A2.413,2.413,0,0,1,45.758,12a2.193,2.193,0,0,1,.907.169,1.7,1.7,0,0,1,.608.455,1.831,1.831,0,0,1,.339.653,2.914,2.914,0,0,1,.1.775v.3c0,.057-.009.115-.01.169a1.122,1.122,0,0,1-.014.125H44.865a1.546,1.546,0,0,0,.326.887,1.107,1.107,0,0,0,.91.353v.005Zm.435-1.97a1.435,1.435,0,0,0-.177-.752.689.689,0,0,0-.64-.29.786.786,0,0,0-.628.276,1.144,1.144,0,0,0-.235.769l1.681,0Zm3.437-1.334a1.714,1.714,0,0,1,.153-.193,1.115,1.115,0,0,1,.233-.191,1.545,1.545,0,0,1,.307-.144A1.091,1.091,0,0,1,51.024,12a1.516,1.516,0,0,1,.243.02.827.827,0,0,1,.239.071.467.467,0,0,1,.177.144.373.373,0,0,1,.066.226,1.39,1.39,0,0,1-.1.484,3.742,3.742,0,0,1-.21.466,1.4,1.4,0,0,0-.325-.209.939.939,0,0,0-.377-.07.732.732,0,0,0-.5.174.537.537,0,0,0-.2.417v3.134h-1.3V12.134l.114-.018c.039,0,.083-.011.135-.016s.11,0,.181,0a1.105,1.105,0,0,1,.531.126.536.536,0,0,1,.282.376m3.7-.017a1.81,1.81,0,0,1,.152-.193,1.1,1.1,0,0,1,.235-.191,1.53,1.53,0,0,1,.305-.144A1.121,1.121,0,0,1,54.72,12a1.516,1.516,0,0,1,.243.02.839.839,0,0,1,.239.071.467.467,0,0,1,.177.144.373.373,0,0,1,.066.226,1.372,1.372,0,0,1-.105.484,3.93,3.93,0,0,1-.21.466A1.428,1.428,0,0,0,54.8,13.2a.943.943,0,0,0-.376-.07.732.732,0,0,0-.5.174.538.538,0,0,0-.2.417v3.134H52.426V12.134l.115-.018c.037,0,.083-.011.134-.016s.111,0,.181,0a1.1,1.1,0,0,1,.53.126.541.541,0,0,1,.283.376m6.2,2.987a2.166,2.166,0,0,0,.22,1.113,1.781,1.781,0,0,1-.321.1,1.554,1.554,0,0,1-.31.03.844.844,0,0,1-.52-.136.608.608,0,0,1-.225-.387,1.736,1.736,0,0,1-.554.376,2.052,2.052,0,0,1-.842.155,1.884,1.884,0,0,1-.516-.073,1.227,1.227,0,0,1-.811-.675,1.509,1.509,0,0,1-.135-.669,1.292,1.292,0,0,1,.234-.8,1.693,1.693,0,0,1,.588-.486,2.661,2.661,0,0,1,.765-.25,7.5,7.5,0,0,1,.977-.1h.205v-.176a.638.638,0,0,0-.2-.529,1.015,1.015,0,0,0-.636-.157,1.863,1.863,0,0,0-.73.135,6.043,6.043,0,0,0-.629.311A1.431,1.431,0,0,1,56.22,13a.887.887,0,0,1-.082-.3.349.349,0,0,1,.148-.261,1.452,1.452,0,0,1,.407-.227,3.263,3.263,0,0,1,.591-.165,3.793,3.793,0,0,1,.708-.063,3.123,3.123,0,0,1,.879.107,1.345,1.345,0,0,1,.583.33,1.217,1.217,0,0,1,.321.556,2.818,2.818,0,0,1,.1.777ZM58.647,14.46h-.135a.784.784,0,0,0-.133.01q-.238.018-.474.057a1.307,1.307,0,0,0-.416.136.865.865,0,0,0-.3.25.648.648,0,0,0-.115.4.7.7,0,0,0,.153.46.628.628,0,0,0,.515.188,1.184,1.184,0,0,0,.632-.173.752.752,0,0,0,.195-.169.281.281,0,0,0,.073-.17ZM32.834,43.821H29.288v-.867l1.193-1.2q.511-.535.669-.729a1.6,1.6,0,0,0,.217-.335.722.722,0,0,0,.063-.293.383.383,0,0,0-.125-.3.51.51,0,0,0-.348-.11.953.953,0,0,0-.466.133,3.315,3.315,0,0,0-.533.389l-.726-.848a3.986,3.986,0,0,1,.636-.483,2.3,2.3,0,0,1,.56-.222,2.8,2.8,0,0,1,.68-.077,2.058,2.058,0,0,1,.848.167,1.328,1.328,0,0,1,.577.475,1.219,1.219,0,0,1,.206.692,1.835,1.835,0,0,1-.073.531,1.9,1.9,0,0,1-.221.478,3.3,3.3,0,0,1-.4.5q-.25.26-1.061.986v.026h1.848l0,1.089ZM37,41.39a3.283,3.283,0,0,1-.435,1.9,1.537,1.537,0,0,1-1.33.6,1.508,1.508,0,0,1-1.32-.626,3.273,3.273,0,0,1-.445-1.869,3.319,3.319,0,0,1,.435-1.908,1.525,1.525,0,0,1,1.33-.607,1.5,1.5,0,0,1,1.318.626A3.263,3.263,0,0,1,37,41.39Zm-2.216,0a4.176,4.176,0,0,0,.1,1.137c.07.206.184.31.348.31s.281-.107.349-.32a4.236,4.236,0,0,0,.1-1.128,4.284,4.284,0,0,0-.1-1.136c-.07-.217-.186-.325-.348-.325s-.278.1-.348.313a4.229,4.229,0,0,0-.1,1.149Zm6.282,2.431H37.52v-.867l1.193-1.2q.511-.535.668-.729a1.61,1.61,0,0,0,.219-.335.72.72,0,0,0,.061-.293.385.385,0,0,0-.125-.3.509.509,0,0,0-.348-.11.954.954,0,0,0-.466.133,3.316,3.316,0,0,0-.534.389l-.718-.848a3.928,3.928,0,0,1,.635-.483,2.329,2.329,0,0,1,.559-.222,2.765,2.765,0,0,1,.681-.077,2.051,2.051,0,0,1,.847.167,1.336,1.336,0,0,1,.579.475,1.226,1.226,0,0,1,.206.692,1.785,1.785,0,0,1-.3,1.009,3.159,3.159,0,0,1-.4.5q-.25.26-1.061.986v.026h1.848l0,1.089Zm3.335,0H43.061V41.239q0-.47.019-.861a2.685,2.685,0,0,1-.308.313l-.555.458-.684-.842,1.678-1.363H44.4v4.875Z" transform="translate(-3.159 -1.322)" fill="#fff"/>
    </g>
  </g>
</svg>
