<svg xmlns="http://www.w3.org/2000/svg" xmlns:xlink="http://www.w3.org/1999/xlink" width="169.994" height="55.646" xmlns:v="https://vecta.io/nano"><defs><clipPath id="A"><path fill="#fff" d="M0 0h169.994v55.646H0z"/></clipPath><path id="B" d="M66.591 33.693c.378.019.722.225.917.55l.978 2.018c.138.294.413.501.734.55l2.263.306c.553.091.933.607.856 1.162-.025.217-.135.414-.306.55l-1.651 1.59a1.01 1.01 0 0 0-.306.917l.367 2.2a.95.95 0 0 1-.795 1.162h-.183a1.44 1.44 0 0 1-.489-.122l-2.018-1.04a.83.83 0 0 0-.917 0l-2.018 1.04a1 1 0 0 1-1.345-.428 1.21 1.21 0 0 1-.122-.673l.367-2.2c.051-.338-.063-.68-.307-.919l-1.59-1.529a.93.93 0 0 1 0-1.406 1.25 1.25 0 0 1 .55-.306l2.262-.306c.321-.049.596-.256.734-.55l.978-2.018a1.6 1.6 0 0 1 1.041-.548zm0-.611c-.62.016-1.182.367-1.468.917l-.978 2.018c-.058.115-.177.186-.306.184l-2.262.306c-.422.064-.801.294-1.053.638s-.357.775-.292 1.197c.062.35.233.671.489.917l1.651 1.59c.122.061.122.245.122.367l-.367 2.2a1.75 1.75 0 0 0 .367 1.345 1.6 1.6 0 0 0 1.223.611c.257.005.51-.058.734-.183l2.018-1.04c.061 0 .122-.061.183-.061.067-.008.134.014.183.061l2.018 1.04a1.63 1.63 0 0 0 .734.183 1.6 1.6 0 0 0 1.222-.616 1.75 1.75 0 0 0 .367-1.345l-.367-2.2a.45.45 0 0 1 .122-.367l1.651-1.59c.628-.614.655-1.615.061-2.262-.255-.244-.572-.413-.917-.489l-2.262-.306a.52.52 0 0 1-.306-.184l-.978-2.018a2.08 2.08 0 0 0-1.589-.914z"/><path id="C" d="M81.572 33.693c.378.019.722.225.917.55l.978 2.018c.138.294.413.501.734.55l2.263.306c.553.091.933.607.856 1.162-.025.217-.135.414-.306.55l-1.59 1.59a1.01 1.01 0 0 0-.306.917l.367 2.2a.98.98 0 0 1-.795 1.162h-.183a1.44 1.44 0 0 1-.489-.122L82 43.536a.83.83 0 0 0-.917 0l-2.018 1.04a1.03 1.03 0 0 1-1.345-.489c-.08-.172-.102-.365-.061-.55l.367-2.2c.051-.337-.063-.678-.306-.917l-1.651-1.59a.93.93 0 0 1 0-1.406 1.25 1.25 0 0 1 .55-.306l2.262-.306c.321-.05.596-.256.734-.55l.978-2.018c.231-.317.588-.519.979-.551zm0-.611c-.624 0-1.194.356-1.468.917l-.975 2.017c-.058.115-.177.186-.306.184l-2.263.306c-.422.064-.801.294-1.053.638s-.357.775-.292 1.197c.062.35.233.671.489.917l1.651 1.59c.122.061.122.245.122.367l-.367 2.2a1.75 1.75 0 0 0 .367 1.345 1.6 1.6 0 0 0 1.223.611 1.45 1.45 0 0 0 .734-.183l2.018-1.04c.061 0 .122-.061.183-.061.067-.008.135.014.184.061l2.018 1.04a1.63 1.63 0 0 0 .734.183 1.6 1.6 0 0 0 1.223-.611 1.75 1.75 0 0 0 .367-1.345l-.367-2.2a.45.45 0 0 1 .122-.367l1.59-1.529c.628-.614.655-1.616.061-2.263-.246-.256-.567-.427-.917-.489l-2.265-.311a.52.52 0 0 1-.306-.183l-.978-2.017c-.299-.575-.882-.946-1.529-.975z"/></defs><g clip-path="url(#A)"><g fill="#002e47"><path d="M161.005.428H21.586a8.98 8.98 0 0 0-8.928 8.194L2.141 12.596a3.04 3.04 0 0 0-1.774 3.853c.29.852.973 1.512 1.834 1.773l10.4 3.485v24.521a9 9 0 0 0 8.989 8.989h139.415a9 9 0 0 0 8.989-8.989V9.417a9 9 0 0 0-8.989-8.989z"/><path d="M34.549 14.92c.696-1.11 1.932-1.763 3.241-1.712a8.3 8.3 0 0 1 1.223.122 3.2 3.2 0 0 1 .978.367c.286.126.553.291.795.489.183.183.428.367.611.55a3.22 3.22 0 0 0 .734-.856 1.35 1.35 0 0 0 .367-.917c-.011-.189-.052-.374-.122-.55a2.66 2.66 0 0 0-.367-.428c-.184-.122-.367-.306-.55-.428a6.7 6.7 0 0 0-.917-.49c-.41-.178-.842-.302-1.284-.367a7.59 7.59 0 0 0-1.651-.183c-1.091-.016-2.173.192-3.18.611a6.18 6.18 0 0 0-2.263 1.712 6.91 6.91 0 0 0-1.345 2.568c-.326 1.048-.471 2.144-.428 3.241a11.51 11.51 0 0 0 .428 3.241 7.25 7.25 0 0 0 1.284 2.568c.614.721 1.389 1.286 2.262 1.651 1.03.414 2.131.622 3.241.612a16.1 16.1 0 0 0 1.712-.122c.437-.115.866-.258 1.284-.428.302-.105.59-.249.856-.428.183-.122.306-.245.489-.367a3.39 3.39 0 0 0 .367-.489 1.04 1.04 0 0 0 0-.978c-.061-.183-.183-.306-.245-.489-.122-.184-.245-.306-.367-.489l-.306-.428c-.175.153-.358.296-.55.428-.23.184-.476.347-.734.489a6.18 6.18 0 0 1-.917.428c-.396.125-.808.187-1.223.183-.724.02-1.44-.148-2.079-.489a4.3 4.3 0 0 1-1.345-1.223 4.97 4.97 0 0 1-.734-1.773 11.94 11.94 0 0 1-.182-2.079 11.26 11.26 0 0 1 .183-2.018 5.7 5.7 0 0 1 .734-1.529z"/><path d="M37.362 27.823a9.48 9.48 0 0 1-3.424-.673 6.47 6.47 0 0 1-2.629-1.957 7.5 7.5 0 0 1-1.532-2.935 11.52 11.52 0 0 1-.428-3.547 11.83 11.83 0 0 1 .489-3.547 8.41 8.41 0 0 1 1.529-2.935c.72-.84 1.62-1.509 2.632-1.956 1.137-.493 2.37-.723 3.608-.673a9.33 9.33 0 0 1 1.834.183 13.28 13.28 0 0 1 1.468.428 4.63 4.63 0 0 1 1.1.55 4.67 4.67 0 0 1 .673.489 2.66 2.66 0 0 1 .55.673 2.06 2.06 0 0 1 .306 1.04 2.73 2.73 0 0 1-.55 1.529 12.23 12.23 0 0 1-.856.978.98.98 0 0 1-1.406-.061 3.96 3.96 0 0 0-.55-.489 1.27 1.27 0 0 0-.612-.367 3.11 3.11 0 0 0-.795-.306 4.81 4.81 0 0 0-.978-.122 2.72 2.72 0 0 0-2.446 1.223 5.61 5.61 0 0 0-.55 1.406 9.33 9.33 0 0 0-.183 1.834 9.93 9.93 0 0 0 .183 1.9 5.61 5.61 0 0 0 .55 1.406 3.5 3.5 0 0 0 .978.917 3.14 3.14 0 0 0 1.529.367 3.7 3.7 0 0 0 .917-.122c.255-.076.501-.178.734-.306.192-.108.376-.231.55-.367.183-.183.367-.306.489-.428.199-.179.463-.268.73-.245a.96.96 0 0 1 .676.367l.306.367c.122.183.306.367.428.55a5.64 5.64 0 0 1 .306.611 3.5 3.5 0 0 1 .245.856c.014.343-.072.682-.245.978a.06.06 0 0 1-.061.061 1.91 1.91 0 0 1-.55.673 4.28 4.28 0 0 1-.612.489c-.328.199-.676.363-1.039.489a5.33 5.33 0 0 1-1.406.428 10.6 10.6 0 0 1-1.957.184c.183.06.06.06-.001.06zm.061-16.2a6.54 6.54 0 0 0-2.629.55 4.82 4.82 0 0 0-1.9 1.406 6.37 6.37 0 0 0-1.162 2.2 9.87 9.87 0 0 0-.428 3 12.19 12.19 0 0 0 .367 3c.244.788.618 1.529 1.106 2.194a4.82 4.82 0 0 0 1.9 1.406c.893.364 1.849.551 2.813.55a13.9 13.9 0 0 0 1.59-.122 3.01 3.01 0 0 0 1.039-.367 8.2 8.2 0 0 0 .734-.367c.116-.062.22-.145.306-.245l.183-.183v-.061a3.5 3.5 0 0 0-.245-.428l-.611.367a8.68 8.68 0 0 1-1.1.489c-.474.151-.972.213-1.468.183a5.98 5.98 0 0 1-2.507-.55 5.15 5.15 0 0 1-1.712-1.529 5.44 5.44 0 0 1-.862-2.143 9.5 9.5 0 0 1-.245-2.263 9 9 0 0 1 .245-2.2c.146-.733.415-1.436.795-2.079.908-1.408 2.483-2.241 4.158-2.2a6.42 6.42 0 0 1 1.468.184c.397.116.785.259 1.162.428l.856.55v-.061c.122-.122.122-.245.183-.367-.046-.092-.108-.175-.183-.245a2.59 2.59 0 0 0-.428-.306 2.07 2.07 0 0 0-.734-.367l-1.1-.367c-.467-.052-.936-.073-1.406-.061zm16.45 7.761c.009-.642-.073-1.282-.245-1.9a3.03 3.03 0 0 0-.795-1.345 3.62 3.62 0 0 0-1.406-.795c-.699-.175-1.419-.258-2.14-.245a16.1 16.1 0 0 0-1.712.122c-.496.093-.986.216-1.468.367a3.1 3.1 0 0 0-.978.55 1.04 1.04 0 0 0-.367.612 3.21 3.21 0 0 0 .183.734 3.9 3.9 0 0 0 .489.856c.478-.305.992-.552 1.529-.734a4.34 4.34 0 0 1 1.773-.306 2.21 2.21 0 0 1 1.529.367 1.44 1.44 0 0 1 .489 1.284v.428h-1.039l-1.835.184c-.638.111-1.257.317-1.834.611a3.88 3.88 0 0 0-1.468 1.162 2.74 2.74 0 0 0-.55 1.957 4.6 4.6 0 0 0 .306 1.59 2.99 2.99 0 0 0 .856 1.1 4.05 4.05 0 0 0 1.162.55 4.67 4.67 0 0 0 1.284.183c.709-.003 1.412-.127 2.079-.367a5.23 5.23 0 0 0 1.345-.917 1.45 1.45 0 0 0 .55.917c.376.257.833.366 1.284.306.246.01.493-.01.734-.061a3.95 3.95 0 0 0 .795-.245c-.421-.832-.611-1.761-.55-2.691zm-3 4.036a.66.66 0 0 1-.183.428 1.65 1.65 0 0 1-.489.428 3.28 3.28 0 0 1-.673.306 3.61 3.61 0 0 1-.856.122 1.5 1.5 0 0 1-1.284-.489 1.83 1.83 0 0 1-.367-1.1 1.44 1.44 0 0 1 .306-.978 1.8 1.8 0 0 1 .734-.612 2.06 2.06 0 0 1 1.04-.306 6.77 6.77 0 0 1 1.162-.122h.611z"/><path d="M47.761 27.762h-.183c-.515-.004-1.028-.066-1.529-.184a3.33 3.33 0 0 1-1.468-.734 3.88 3.88 0 0 1-1.162-1.468 4.61 4.61 0 0 1-.428-2.018 4.03 4.03 0 0 1 .734-2.507 4.7 4.7 0 0 1 1.712-1.406c-.308.008-.602-.127-.795-.367a4.8 4.8 0 0 1-.673-1.1 5.17 5.17 0 0 1-.306-1.04v-.183a1.93 1.93 0 0 1 .795-1.345 5.78 5.78 0 0 1 1.223-.673 8.2 8.2 0 0 1 1.651-.428 9.93 9.93 0 0 1 1.9-.184 7.99 7.99 0 0 1 2.378.308 4.23 4.23 0 0 1 1.834 1.04 4.02 4.02 0 0 1 1.04 1.773c.202.694.285 1.418.245 2.14v4.464a4.34 4.34 0 0 0 .428 2.14 1.19 1.19 0 0 1 .061.795c-.099.252-.298.451-.55.55a4.13 4.13 0 0 1-1.9.367 2.78 2.78 0 0 1-1.834-.489.06.06 0 0 1-.061-.061c-.061-.061-.183-.122-.245-.245a2.26 2.26 0 0 1-.673.306 3.82 3.82 0 0 1-2.194.549zm-.367-6.971a1.9 1.9 0 0 0-.795.367 3.27 3.27 0 0 0-1.1.917 2.26 2.26 0 0 0-.367 1.284v.061a2.48 2.48 0 0 0 .245 1.162c.143.273.329.52.55.734a1.9 1.9 0 0 0 .795.367 2.7 2.7 0 0 0 .978.122 2.86 2.86 0 0 0 1.039-.122c-.757.044-1.495-.247-2.018-.795l-.061-.061a2.92 2.92 0 0 1-.611-1.712 2.29 2.29 0 0 1 .489-1.529 2.16 2.16 0 0 1 .853-.795zm4.77 4.831c.177.127.399.171.611.122h.245c-.182-.656-.244-1.34-.183-2.018v-4.342c.003-.535-.059-1.069-.184-1.59a2.43 2.43 0 0 0-.55-.917 2.55 2.55 0 0 0-.978-.55c-.596-.171-1.215-.254-1.835-.245a13.9 13.9 0 0 0-1.59.122c-.442.065-.874.189-1.284.367a1.84 1.84 0 0 0-.673.367c.006.046.028.089.061.122l.795-.367a5.15 5.15 0 0 1 2.14-.428c.736-.066 1.472.129 2.079.55.061.061.122.061.183.122a2.63 2.63 0 0 1 .795 2.079v.367c0 .32-.161.619-.428.795.306.176.493.503.489.856v2.446a1.79 1.79 0 0 1-.428.978v.061a1 1 0 0 1 .673.795.27.27 0 0 0 .059.307zm-3.975-2.079c.117.103.274.148.428.122h.122c.185.01.371-.011.55-.061l.489-.183c.061-.061.122-.061.183-.122v-1.166c-.245 0-.428.061-.673.061a3.45 3.45 0 0 0-.734.245.63.63 0 0 0-.367.306.27.27 0 0 0-.061.306v.061c-.078.141-.053.316.06.43zm.55-5.2a3.29 3.29 0 0 0-1.345.245c-.245.122-.489.183-.734.306a7.4 7.4 0 0 1 1.1-.306 8.73 8.73 0 0 1 1.773-.183 2.2 2.2 0 0 0-.673-.122h-.122zm17.119-2.017a3.14 3.14 0 0 0-1.406-.917c-.53-.19-1.088-.293-1.651-.306a4.61 4.61 0 0 0-2.019.429 4.27 4.27 0 0 0-1.162.917c-.072-.378-.323-.697-.673-.856a3.29 3.29 0 0 0-1.345-.245h-.428a.46.46 0 0 0-.306.061l-.306.061v16.021h3.177v-5.809a.48.48 0 0 0 .245.245c.184.122.306.306.55.367a3.57 3.57 0 0 0 .856.306 2.52 2.52 0 0 0 1.162.122c.563-.013 1.121-.116 1.651-.306a3.87 3.87 0 0 0 1.467-.978c.48-.536.854-1.159 1.1-1.835.296-.972.441-1.984.428-3a9.43 9.43 0 0 0-.367-2.629 7.8 7.8 0 0 0-.973-1.648zm-2.568 7.032c-.35.606-1.014.961-1.712.917a2.4 2.4 0 0 1-1.1-.245 2.52 2.52 0 0 1-.673-.428V18.65c-.008-.308.127-.602.367-.795a1.75 1.75 0 0 1 1.345-.367 2.4 2.4 0 0 1 1.1.245c.299.157.552.389.734.673a3.01 3.01 0 0 1 .367 1.04 9.13 9.13 0 0 1 .121 1.286 4.76 4.76 0 0 1-.549 2.627z"/><path d="M59.739 32.409h-3.18a.97.97 0 0 1-.693-.284c-.184-.184-.285-.434-.282-.693V15.41a.99.99 0 0 1 .855-.978l.306-.061c.122 0 .245-.061.428-.061h.489c.59.004 1.172.129 1.712.367.176.08.341.182.489.306l.489-.306a4.57 4.57 0 0 1 2.507-.55c.651.003 1.295.127 1.9.367a4.41 4.41 0 0 1 1.773 1.223 5.37 5.37 0 0 1 1.162 2.079 9.75 9.75 0 0 1 .428 2.935 9.7 9.7 0 0 1-.489 3.241 6.4 6.4 0 0 1-1.287 2.26 4.84 4.84 0 0 1-1.9 1.223 6.93 6.93 0 0 1-1.957.367 6.03 6.03 0 0 1-1.468-.183c-.122-.061-.245-.061-.367-.122v3.915c.038.258-.043.519-.221.71a.85.85 0 0 1-.694.267zm-2.14-1.957h1.162v-4.77a.92.92 0 0 1 .673-.917c.061 0 .061 0 .122-.061-.122-.122-.306-.183-.428-.306a.96.96 0 0 1-.367-.734v-4.952c.006-.472.18-.926.492-1.28-.309-.136-.537-.409-.614-.738 0-.061-.061-.122-.122-.183a1.96 1.96 0 0 0-.856-.184H57.6zm3.057-5.259c.122.061.183.183.306.183a3 3 0 0 0 .673.245 4.8 4.8 0 0 0 .856.122 3.29 3.29 0 0 0 1.345-.245 2.2 2.2 0 0 0 1.1-.734c.378-.429.668-.928.856-1.468a9.74 9.74 0 0 0 .367-2.629 7.74 7.74 0 0 0-.306-2.385 5.75 5.75 0 0 0-.734-1.345 2.17 2.17 0 0 0-.978-.673c-.415-.14-.847-.223-1.284-.245a3.14 3.14 0 0 0-1.529.367.06.06 0 0 0-.061.061h.372a3.32 3.32 0 0 1 1.529.367 2.59 2.59 0 0 1 1.1 1.04 3.86 3.86 0 0 1 .489 1.406 11.86 11.86 0 0 1 .122 1.472 6.26 6.26 0 0 1-.673 3.119v.061a2.85 2.85 0 0 1-2.629 1.406 4.66 4.66 0 0 1-.918-.125zm.917-1.9c.343.027.672-.137.856-.428a3.98 3.98 0 0 0 .428-2.079v-.054c.02-.371-.021-.743-.122-1.1a3.45 3.45 0 0 0-.244-.734.74.74 0 0 0-.306-.306 1.81 1.81 0 0 0-.611-.122h-.122a1.1 1.1 0 0 0-.612.122v4.464c.061 0 .061.061.122.061.122.184.367.184.612.184zm14.068.25c-.07.075-.153.137-.245.183-.12.117-.267.201-.428.245-.355.207-.752.332-1.162.367-.856 0-1.345-.55-1.345-1.651v-4.954h3.241V15.41h-3.24v-1.651a2.24 2.24 0 0 0-.183-.917c-.113-.222-.281-.412-.489-.55s-.433-.242-.673-.306a2.98 2.98 0 0 0-.734-.061h-.367a.77.77 0 0 0-.367.061l-.367.061V22.87c-.01.347.01.695.061 1.039a5.5 5.5 0 0 0 .183.978 2.94 2.94 0 0 0 1.1 1.468 3.68 3.68 0 0 0 2.263.55 9.05 9.05 0 0 0 1.345-.122c.385-.089.756-.233 1.1-.428a1.9 1.9 0 0 0 .673-.55c.167-.158.257-.381.245-.611a1.63 1.63 0 0 0-.183-.734c-.067-.336-.214-.65-.428-.917z"/><path d="M72.767 27.823c-.89.011-1.763-.245-2.507-.734a3.61 3.61 0 0 1-1.529-2.018c-.146-.392-.229-.805-.245-1.223a7.4 7.4 0 0 1-.061-1.162V11.924a.99.99 0 0 1 .856-.978l.367-.061c.122 0 .245-.061.428-.061h.428a4.63 4.63 0 0 1 .917.061c.369.079.721.224 1.039.428a2.1 2.1 0 0 1 .795.978 3.63 3.63 0 0 1 .307 1.407v.611h2.262a.97.97 0 0 1 .978.978v2.446a.97.97 0 0 1-.978.978h-2.262v3.975c0 .612.122.612.306.612a.55.55 0 0 0 .306-.061l.367-.183c.061-.061.183-.122.245-.183s.122-.122.183-.122a1.16 1.16 0 0 1 .795-.306.93.93 0 0 1 .734.428 8.57 8.57 0 0 1 .612.978 2.53 2.53 0 0 1 .306 1.162 1.86 1.86 0 0 1-.489 1.284 2.43 2.43 0 0 1-.985.733 5.05 5.05 0 0 1-1.345.489c-.521.125-1.055.186-1.59.183-.048.086-.143.134-.24.123zm-2.446-14.982v9.906a3.78 3.78 0 0 0 .061.856v.061a1.63 1.63 0 0 0 .184.734c.152.386.406.724.734.978a2.55 2.55 0 0 0 1.651.367h.061a7.5 7.5 0 0 0 1.162-.122 4.8 4.8 0 0 0 .856-.306.9.9 0 0 0 .367-.306v-.122c-.183.061-.367.184-.55.245-.291.12-.602.182-.917.184-1.468 0-2.324-.978-2.324-2.629v-4.954a.97.97 0 0 1 .978-.978h2.258v-.367h-2.258a.97.97 0 0 1-.978-.978v-1.652a.91.91 0 0 0-.122-.55q0-.092-.183-.183a.47.47 0 0 0-.306-.122c-.184 0-.367-.061-.55-.061zm16.328 3.791a4.22 4.22 0 0 0-1.468-1.1 5.43 5.43 0 0 0-2.2-.428 6.87 6.87 0 0 0-1.957.306 4.96 4.96 0 0 0-1.712 1.04 4.41 4.41 0 0 0-1.223 1.773 7.03 7.03 0 0 0-.489 2.507 7.19 7.19 0 0 0 .489 3 5.95 5.95 0 0 0 1.345 1.9c.55.468 1.2.803 1.9.978a8.61 8.61 0 0 0 2.14.306 7.75 7.75 0 0 0 2.079-.245c.494-.141.967-.346 1.406-.612a1.2 1.2 0 0 0 .612-.917 1.82 1.82 0 0 0-.306-.917 7.96 7.96 0 0 0-.611-.917l-.489.428a2.19 2.19 0 0 1-.611.428 4.25 4.25 0 0 1-.795.306 5.39 5.39 0 0 1-1.04.122 2.66 2.66 0 0 1-2.2-.856 3.82 3.82 0 0 1-.795-2.14h6.849a.55.55 0 0 1 .061-.306v-1.17a6.31 6.31 0 0 0-.245-1.835 2.94 2.94 0 0 0-.74-1.651zm-5.87 3.119a2.83 2.83 0 0 1 .55-1.835c.394-.428.948-.672 1.529-.673.611-.068 1.214.187 1.59.673.319.557.467 1.195.424 1.835z"/><path d="M83.651 27.884h-.122a10.62 10.62 0 0 1-2.385-.306 6.13 6.13 0 0 1-2.262-1.162 6.02 6.02 0 0 1-1.651-2.263c-.409-1.074-.616-2.214-.611-3.363a6.69 6.69 0 0 1 .55-2.874 6.37 6.37 0 0 1 1.468-2.14 5.51 5.51 0 0 1 2.079-1.223 7.3 7.3 0 0 1 2.263-.367 6.2 6.2 0 0 1 2.568.489 5.11 5.11 0 0 1 1.834 1.345 6.04 6.04 0 0 1 1.04 1.957 8.17 8.17 0 0 1 .306 2.079v1.162a1.19 1.19 0 0 1-.061.489.99.99 0 0 1-.978.856h-.306c.061 0 .061.061.061.122.245.306.489.673.734 1.04a2.91 2.91 0 0 1 .428 1.284v.184a2.21 2.21 0 0 1-1.1 1.712c-.488.366-1.052.617-1.651.734-.726.149-1.463.231-2.204.245zm-.122-2.018a6.32 6.32 0 0 0 1.834-.245 4.34 4.34 0 0 0 1.1-.489c.061 0 .061-.061.122-.061a.06.06 0 0 0 .061-.061.47.47 0 0 0-.122-.306 2.67 2.67 0 0 1-.428.245 3.2 3.2 0 0 1-.978.367 4.66 4.66 0 0 1-1.284.183 3.96 3.96 0 0 1-3-1.162l-.061-.061a4.89 4.89 0 0 1-1.04-2.691.89.89 0 0 1 .306-.734.85.85 0 0 1 .245-.184c-.321-.169-.529-.494-.55-.856a3.73 3.73 0 0 1 .795-2.507 3.03 3.03 0 0 1 2.262-1.04 2.79 2.79 0 0 1 2.385 1.1l.061.061a4.05 4.05 0 0 1 .55 2.385.98.98 0 0 1-.306.673h1.162v-.428a4.79 4.79 0 0 0-.245-1.59 3.83 3.83 0 0 0-.612-1.223 2.83 2.83 0 0 0-1.1-.795 3.52 3.52 0 0 0-1.773-.306 6.7 6.7 0 0 0-1.651.245 3.73 3.73 0 0 0-1.345.795 3.88 3.88 0 0 0-.978 1.406 5.1 5.1 0 0 0-.367 2.14A7.42 7.42 0 0 0 79 23.356c.239.573.617 1.078 1.1 1.468a4.27 4.27 0 0 0 1.467.795 7.14 7.14 0 0 0 1.962.247zm-1.162-2.874a1.62 1.62 0 0 0 1.345.489h.122a1.55 1.55 0 0 0 .734-.122 2.55 2.55 0 0 0 .612-.245c.156-.081.301-.184.428-.306l.428-.369h-3.975a1.6 1.6 0 0 0 .306.553zm-.428-4.219h1.773c-.061-.122-.061-.183-.122-.306a.71.71 0 0 0-.611-.245h-.184a1.01 1.01 0 0 0-.734.306.32.32 0 0 1-.122.244zm15.043-3.425l-.612-.184c-.183 0-.428-.061-.611-.061-.289.006-.577.047-.856.122a2.07 2.07 0 0 0-.734.367 2.11 2.11 0 0 0-.55.489 3.39 3.39 0 0 0-.367.489c-.092-.384-.334-.714-.673-.917a3.28 3.28 0 0 0-1.284-.306h-.428a.46.46 0 0 0-.306.061l-.306.061v11.375h3.18v-7.582c.008-.383.188-.742.489-.978a1.87 1.87 0 0 1 1.223-.428c.315.002.626.064.917.183a3.47 3.47 0 0 1 .793.493c.188-.355.352-.722.489-1.1a2.65 2.65 0 0 0 .245-1.162c-.005-.198-.068-.389-.183-.55a.82.82 0 0 0-.426-.372z"/><path d="M93.313 27.827h-3.18a.97.97 0 0 1-.978-.978V15.41a.99.99 0 0 1 .856-.983l.306-.061c.122 0 .306-.061.428-.061h.489a4.1 4.1 0 0 1 1.712.367 1.28 1.28 0 0 1 .367.245 1.07 1.07 0 0 0 .306-.245c.293-.168.6-.311.917-.428.397-.12.809-.182 1.223-.183a2.98 2.98 0 0 1 .734.061 5.1 5.1 0 0 1 .917.245c.299.157.552.389.734.673a1.88 1.88 0 0 1 .367 1.162 4.26 4.26 0 0 1-.306 1.529c-.122.367-.367.795-.55 1.223-.137.258-.385.439-.673.489a1.06 1.06 0 0 1-.856-.184l-.55-.367c-.157-.054-.324-.075-.489-.061h-.062c-.198.005-.389.068-.55.183-.087.049-.135.146-.122.245v7.521a1.07 1.07 0 0 1-1.04 1.047zm-2.14-2.018h1.162v-6.547a2.41 2.41 0 0 1 .795-1.773h-.122c-.396-.09-.705-.399-.795-.795 0-.122-.061-.183-.184-.245-.248-.118-.52-.181-.795-.183h-.061zm3.914-8.989a2.74 2.74 0 0 1 1.223.245v-.061a2.11 2.11 0 0 0 .183-.795.55.55 0 0 0-.306-.061c-.183 0-.306-.061-.489-.061a1.7 1.7 0 0 0-.55.061 2.17 2.17 0 0 0-.55.245 1.62 1.62 0 0 0-.367.306c-.061.061-.122.184-.184.245a6.03 6.03 0 0 1 1.039-.128zm1.468-.55l.428-.917zm9.477-.922l-.55-.184c-.184 0-.428-.061-.612-.061-.289.006-.577.047-.856.122a2.07 2.07 0 0 0-.734.367 2.11 2.11 0 0 0-.55.489 3.4 3.4 0 0 0-.367.489 1.28 1.28 0 0 0-.673-.917 3.05 3.05 0 0 0-1.284-.306h-.425a.46.46 0 0 0-.306.061l-.306.061v11.375h3.18v-7.582c.008-.383.188-.742.489-.978a1.87 1.87 0 0 1 1.223-.428c.315.002.626.064.917.183.285.128.552.294.793.493.188-.355.352-.722.489-1.1a2.65 2.65 0 0 0 .245-1.162.99.99 0 0 0-.184-.55 2 2 0 0 0-.489-.372z"/><path d="M102.425 27.827h-3.18a.97.97 0 0 1-.978-.978V15.41a.99.99 0 0 1 .856-.983l.306-.061c.122 0 .306-.061.428-.061h.489a4.1 4.1 0 0 1 1.712.367 1.28 1.28 0 0 1 .367.245 1.07 1.07 0 0 0 .306-.245 6.18 6.18 0 0 1 .917-.428c.397-.12.809-.182 1.223-.183a2.98 2.98 0 0 1 .734.061 3.51 3.51 0 0 1 .856.245c.313.133.587.343.795.612l.061.061c.256.33.366.749.306 1.162a4.26 4.26 0 0 1-.306 1.529c-.122.367-.367.795-.55 1.223-.137.258-.385.439-.673.489a.91.91 0 0 1-.856-.245l-.55-.367c-.157-.054-.324-.075-.489-.061a1.03 1.03 0 0 0-.611.183c-.076.059-.12.149-.122.245v7.529a1.13 1.13 0 0 1-1.041 1.1zm-2.2-2.018h1.162v-6.547a2.51 2.51 0 0 1 .795-1.773h-.183c-.396-.09-.705-.399-.795-.795a.2.2 0 0 0-.183-.183c-.248-.118-.52-.181-.795-.183h-.061v9.478zm3.975-8.989a2.65 2.65 0 0 1 1.162.245v-.061c.118-.248.181-.52.183-.795h-.061a.46.46 0 0 0-.306-.061c-.184 0-.306-.061-.489-.061-.185-.01-.371.011-.55.061a2.17 2.17 0 0 0-.55.245 1.62 1.62 0 0 0-.367.306c-.061.061-.122.184-.183.245.332-.125.684-.187 1.039-.183zm13.207 6.967v-4.4a6.72 6.72 0 0 0-.245-1.9c-.144-.511-.42-.974-.8-1.345a3.62 3.62 0 0 0-1.406-.795 8.21 8.21 0 0 0-2.14-.245 16.1 16.1 0 0 0-1.713.122 12.85 12.85 0 0 0-1.468.367 3.1 3.1 0 0 0-.978.55.81.81 0 0 0-.367.612 1.63 1.63 0 0 0 .183.734 2.56 2.56 0 0 0 .55.856 7.04 7.04 0 0 1 1.529-.734 4.34 4.34 0 0 1 1.773-.306 2.21 2.21 0 0 1 1.529.367 1.44 1.44 0 0 1 .489 1.284v.428h-1.039l-1.834.184a6.48 6.48 0 0 0-1.835.611 3.88 3.88 0 0 0-1.468 1.162c-.427.558-.624 1.258-.55 1.957a4.6 4.6 0 0 0 .306 1.59 2.39 2.39 0 0 0 .856 1.039 4.05 4.05 0 0 0 1.162.55 4.66 4.66 0 0 0 1.284.183 6.21 6.21 0 0 0 2.079-.367 5.23 5.23 0 0 0 1.346-.917c.06.364.257.692.55.917.376.257.833.366 1.284.306.247.01.493-.01.735-.061a3.97 3.97 0 0 0 .795-.245 3.85 3.85 0 0 1-.607-2.504zm-3-.367a.66.66 0 0 1-.184.428c-.133.174-.299.319-.489.428-.212.127-.438.23-.673.306a3.6 3.6 0 0 1-.856.122 1.5 1.5 0 0 1-1.284-.489 1.83 1.83 0 0 1-.367-1.1 1.44 1.44 0 0 1 .306-.978 1.8 1.8 0 0 1 .734-.612 2.06 2.06 0 0 1 1.039-.306 6.77 6.77 0 0 1 1.162-.122h.611z"/><path d="M111.291 27.762h-.185a4.44 4.44 0 0 1-1.529-.245c-.544-.118-1.05-.37-1.471-.734a4.34 4.34 0 0 1-1.162-1.406 4.61 4.61 0 0 1-.428-2.018c-.04-.894.218-1.776.734-2.507.451-.598 1.038-1.08 1.712-1.406-.308.008-.602-.127-.795-.367a4.1 4.1 0 0 1-.673-1.1 5.16 5.16 0 0 1-.306-1.04v-.183c.041-.533.308-1.023.734-1.345a3.45 3.45 0 0 1 1.223-.673 6.75 6.75 0 0 1 1.59-.428 9.95 9.95 0 0 1 1.9-.184 8 8 0 0 1 2.385.306 4.23 4.23 0 0 1 1.834 1.04 4.02 4.02 0 0 1 1.039 1.773 6.4 6.4 0 0 1 .245 2.14v4.4a3.76 3.76 0 0 0 .427 2.14 1.19 1.19 0 0 1 .061.795.97.97 0 0 1-.55.55 4.6 4.6 0 0 1-.978.306c-.306.061-.612.061-.917.122-.65.057-1.3-.116-1.835-.489a.06.06 0 0 1-.061-.061c-.061-.061-.184-.122-.244-.245-.206.138-.433.242-.673.306-.621.39-1.345.583-2.077.553zm-.367-6.971a2.59 2.59 0 0 0-.856.367 3.52 3.52 0 0 0-1.162.917 2.26 2.26 0 0 0-.367 1.284v.061a2.48 2.48 0 0 0 .245 1.162c.265.535.761.918 1.345 1.04a2.69 2.69 0 0 0 .978.122c.307.01.614-.01.917-.061a2.41 2.41 0 0 1-1.834-.795l-.061-.061c-.406-.477-.624-1.086-.612-1.712a2.29 2.29 0 0 1 .489-1.529 3.55 3.55 0 0 1 .918-.795zm4.77 4.77c.177.127.4.172.612.122h.244a5.68 5.68 0 0 1-.184-2.018v-4.342a6.66 6.66 0 0 0-.183-1.59c-.114-.343-.302-.656-.551-.917a2.55 2.55 0 0 0-.978-.55 6.31 6.31 0 0 0-1.834-.245 13.93 13.93 0 0 0-1.59.122c-.442.065-.874.189-1.284.367a1.46 1.46 0 0 0-.673.367c.006.046.028.089.061.122l.795-.367a5.15 5.15 0 0 1 2.14-.428 3.15 3.15 0 0 1 2.079.55c.061.061.122.061.122.122a2.63 2.63 0 0 1 .795 2.079v.367c0 .32-.16.618-.427.795.306.176.493.503.489.856v2.446a1.44 1.44 0 0 1-.427.978v.061a1.04 1.04 0 0 1 .611.795.65.65 0 0 0 .182.307zm-3.974-2.018c.117.103.274.148.427.122h.122a1.7 1.7 0 0 0 .551-.061l.489-.183c.061-.061.122-.061.184-.122v-1.166c-.245 0-.428.061-.672.061a3.47 3.47 0 0 0-.735.245.9.9 0 0 0-.366.306.27.27 0 0 0-.061.306v.061a.5.5 0 0 0 .06.43zm.55-5.2c-.461-.013-.919.07-1.345.245-.244.122-.489.183-.734.306a7.4 7.4 0 0 1 1.1-.306c.583-.121 1.177-.183 1.773-.183a2.17 2.17 0 0 0-.672-.122c-.001.062-.062.062-.123.062zm-96.982 1.163L3.18 15.414l16.877-6.36 8.011-3-8.011 25.376z"/></g><path d="M3.18 15.471h16.877v-6.3z" fill="#ff9d28"/><path d="M20.057 9.173v22.38l8.011-25.377z" fill="#69c3ea"/><path d="M20.057 15.47h-6.36l6.36 16.082z" fill="#004f80"/><path d="M3.18 15.47l12.107 4.158-1.589-4.158z" fill="#e14748"/><g fill="#fff"><path d="M41.887 25.622a3.4 3.4 0 0 1-.489.367c-.266.179-.553.323-.856.428a10.11 10.11 0 0 1-1.284.367 5.4 5.4 0 0 1-1.712.122c-1.11.01-2.211-.198-3.241-.612-.874-.365-1.649-.93-2.263-1.651a6.36 6.36 0 0 1-1.284-2.568 11.5 11.5 0 0 1-.428-3.241 11.5 11.5 0 0 1 .428-3.241c.262-.942.72-1.817 1.345-2.568a6.18 6.18 0 0 1 2.262-1.712 7.97 7.97 0 0 1 3.18-.611 7.59 7.59 0 0 1 1.651.183l1.284.367a6.69 6.69 0 0 1 .917.489c.198.123.382.267.55.428.122.122.245.306.367.428.126.153.171.358.122.55a1.5 1.5 0 0 1-.367.978c-.229.298-.474.584-.734.856-.184-.183-.428-.367-.612-.55a3.47 3.47 0 0 0-.795-.489 3.2 3.2 0 0 0-.978-.367 2.79 2.79 0 0 0-1.223-.122 3.59 3.59 0 0 0-3.241 1.712 5.62 5.62 0 0 0-.673 1.773c-.122.666-.183 1.341-.183 2.018a11.94 11.94 0 0 0 .183 2.079 4.97 4.97 0 0 0 .734 1.773 4.3 4.3 0 0 0 1.345 1.223 4.58 4.58 0 0 0 3.241.306l.978-.367a5.11 5.11 0 0 0 .734-.489 3.35 3.35 0 0 1 .55-.428l.306.428c.137.152.26.315.367.489a3.6 3.6 0 0 1 .245.489 1.04 1.04 0 0 1 0 .978c-.12-.06-.243.062-.426.185zm11.984-1.774c-.061.93.129 1.859.55 2.691a3.03 3.03 0 0 1-.795.245c-.241.051-.488.071-.734.061a2.35 2.35 0 0 1-1.284-.306 1.45 1.45 0 0 1-.55-.917 5.23 5.23 0 0 1-1.345.917c-.666.245-1.37.369-2.079.367a4.65 4.65 0 0 1-1.284-.183 3.1 3.1 0 0 1-1.1-.55 3.38 3.38 0 0 1-.856-1.04 2.86 2.86 0 0 1-.306-1.59c.002-.69.192-1.367.55-1.957a3.69 3.69 0 0 1 1.406-1.162 6.5 6.5 0 0 1 1.835-.611 9.33 9.33 0 0 1 1.834-.183h1.04v-.428a1.5 1.5 0 0 0-.489-1.284 2.29 2.29 0 0 0-1.529-.367 5.68 5.68 0 0 0-1.773.306l-1.529.734a2.56 2.56 0 0 1-.55-.856 1.63 1.63 0 0 1-.184-.734.81.81 0 0 1 .367-.611 3.1 3.1 0 0 1 .978-.55c.473-.18.966-.303 1.468-.367a5.4 5.4 0 0 1 1.712-.122 8.21 8.21 0 0 1 2.14.245c.534.128 1.021.403 1.406.795a3.03 3.03 0 0 1 .795 1.345 6.45 6.45 0 0 1 .245 1.9zm-3-2.691h-.612c-.39.01-.778.051-1.162.122-.354.074-.702.176-1.04.306a1.8 1.8 0 0 0-.734.612 2.06 2.06 0 0 0-.306 1.039c-.01.398.12.787.367 1.1a1.62 1.62 0 0 0 1.284.489 4.13 4.13 0 0 0 .856-.122 2.26 2.26 0 0 0 .673-.306 1.65 1.65 0 0 0 .489-.428c.121-.109.188-.265.184-.428zm8.811-4.585a4.28 4.28 0 0 1 1.162-.917c.62-.328 1.319-.476 2.018-.428.563.013 1.121.116 1.651.306a4.3 4.3 0 0 1 1.406.917 4.8 4.8 0 0 1 .978 1.712 9.74 9.74 0 0 1 .367 2.629 9.87 9.87 0 0 1-.428 3 5.65 5.65 0 0 1-1.1 1.835c-.408.435-.91.769-1.468.978a7.85 7.85 0 0 1-1.651.306c-.39-.01-.778-.051-1.162-.122-.309-.058-.601-.183-.856-.367l-.55-.367-.245-.245v5.748h-3.18V15.532l.306-.061a2.64 2.64 0 0 0 .306-.061h.428a3.48 3.48 0 0 1 1.345.245 2 2 0 0 1 .673.917zm4.158 4.28a9.13 9.13 0 0 0-.122-1.284c-.057-.366-.182-.719-.367-1.04-.164-.299-.422-.535-.734-.673a2.4 2.4 0 0 0-1.1-.245 1.75 1.75 0 0 0-1.345.367c-.24.193-.375.487-.367.795v4.953a2.52 2.52 0 0 0 .673.428 2.4 2.4 0 0 0 1.1.245 1.73 1.73 0 0 0 1.712-.917 4.87 4.87 0 0 0 .55-2.629zm5.747 4.036a2.77 2.77 0 0 1-.184-.978c0-.367-.061-.673-.061-1.039V12.047l.367-.061c.122 0 .245-.061.367-.061h.367a2.98 2.98 0 0 1 .734.061c.248.038.481.144.673.306a2.11 2.11 0 0 1 .489.55c.119.291.181.602.183.917v1.651h3.241v2.324h-3.241v4.953c0 1.1.428 1.651 1.345 1.651.41-.035.807-.16 1.162-.367.122-.061.306-.184.428-.245.061-.061.183-.122.245-.183l.55.917c.125.224.188.477.183.734.012.23-.078.453-.245.611a1.91 1.91 0 0 1-.673.55 5.87 5.87 0 0 1-1.1.428 3.36 3.36 0 0 1-1.345.122 3.68 3.68 0 0 1-2.262-.55c-.564-.334-.996-.852-1.223-1.467zm14.248-.306a6.03 6.03 0 0 0 1.04-.122 4.25 4.25 0 0 0 .795-.306 2.2 2.2 0 0 0 .612-.428l.489-.428a7.97 7.97 0 0 1 .612.917 1.5 1.5 0 0 1 .306.917 1.2 1.2 0 0 1-.611.917 4.1 4.1 0 0 1-1.407.611 6.06 6.06 0 0 1-2.079.245c-.724-.007-1.443-.11-2.14-.306a4.69 4.69 0 0 1-1.9-.978c-.598-.486-1.062-1.117-1.345-1.834a7.03 7.03 0 0 1-.489-3 5.92 5.92 0 0 1 .489-2.507 4.41 4.41 0 0 1 1.223-1.773 6.11 6.11 0 0 1 1.712-1.039 6.89 6.89 0 0 1 1.957-.306 5.43 5.43 0 0 1 2.2.428 3.73 3.73 0 0 1 1.467 1.1 4.98 4.98 0 0 1 .856 1.59c.171.596.254 1.215.245 1.835v1.162a.55.55 0 0 1-.061.306h-6.91a3.82 3.82 0 0 0 .795 2.14 2.4 2.4 0 0 0 2.144.859zm1.04-4.709a3.86 3.86 0 0 0-.428-1.834 1.63 1.63 0 0 0-1.59-.673 1.99 1.99 0 0 0-1.529.673 2.52 2.52 0 0 0-.55 1.834zm8.382-3.24c.122-.183.245-.306.367-.489a3.99 3.99 0 0 1 .55-.489l.734-.367a3.07 3.07 0 0 1 1.468-.061 1.18 1.18 0 0 1 .611.183.82.82 0 0 1 .428.367.99.99 0 0 1 .184.55c-.016.398-.099.791-.245 1.162-.137.378-.301.745-.489 1.1-.242-.198-.509-.363-.795-.489-.291-.119-.602-.181-.917-.183a1.87 1.87 0 0 0-1.223.428c-.301.236-.481.595-.489.978v7.582h-3.184V15.532l.306-.061a2.67 2.67 0 0 0 .306-.061h.428a2.35 2.35 0 0 1 1.284.306 1.41 1.41 0 0 1 .676.917zm8.984 0c.122-.183.245-.306.367-.489.183-.184.367-.306.55-.489l.734-.367a3.07 3.07 0 0 1 1.468-.061c.198.005.389.068.55.183.181.068.333.198.428.367.115.161.178.352.183.55-.016.398-.098.791-.244 1.162a8.68 8.68 0 0 1-.489 1.1c-.242-.198-.509-.363-.795-.489-.291-.119-.602-.181-.917-.183a1.87 1.87 0 0 0-1.223.428c-.301.236-.481.595-.489.978v7.582h-3.18V15.532l.306-.061a2.67 2.67 0 0 0 .306-.061h.428a2.35 2.35 0 0 1 1.284.306 1.22 1.22 0 0 1 .733.917zm15.164 7.215c-.06.93.13 1.859.551 2.691a3.04 3.04 0 0 1-.795.245 2.98 2.98 0 0 1-.735.061 2.35 2.35 0 0 1-1.283-.306 1.45 1.45 0 0 1-.551-.917 5.23 5.23 0 0 1-1.346.917c-.666.245-1.37.369-2.079.367a4.65 4.65 0 0 1-1.284-.183 4.04 4.04 0 0 1-1.162-.55 2.39 2.39 0 0 1-.856-1.04 2.86 2.86 0 0 1-.306-1.59 3.29 3.29 0 0 1 .55-1.957 3.69 3.69 0 0 1 1.406-1.162 6.5 6.5 0 0 1 1.835-.611 9.33 9.33 0 0 1 1.834-.183h1.1v-.428a1.5 1.5 0 0 0-.489-1.284 2.29 2.29 0 0 0-1.529-.367 5.68 5.68 0 0 0-1.773.306l-1.529.734a2.56 2.56 0 0 1-.55-.856 1.63 1.63 0 0 1-.184-.734.81.81 0 0 1 .367-.611 3.1 3.1 0 0 1 .978-.55c.473-.18.966-.303 1.468-.367a5.4 5.4 0 0 1 1.713-.122c.721-.013 1.441.07 2.14.245a2.92 2.92 0 0 1 1.406.795c.38.371.656.834.8 1.345.176.618.258 1.258.245 1.9zm-3-2.691h-.611a7.47 7.47 0 0 0-1.162.122 6.64 6.64 0 0 0-1.039.306 1.8 1.8 0 0 0-.734.612c-.192.291-.298.63-.306.978-.01.398.12.787.367 1.1a1.62 1.62 0 0 0 1.284.489 4.12 4.12 0 0 0 .856-.122c.24-.064.467-.168.673-.306.19-.109.356-.254.489-.428.121-.109.188-.265.184-.428z"/></g><g fill="#ff9d28"><path d="M53.933 45.067c-.208-.011-.414-.052-.611-.122l-2.018-1.04a.66.66 0 0 0-.673 0l-2.018 1.04c-.177.127-.4.172-.612.122-.369-.012-.719-.166-.978-.428a1.32 1.32 0 0 1-.306-1.04l.367-2.263a.74.74 0 0 0-.184-.611l-1.59-1.59a1.38 1.38 0 0 1-.367-1.345c.148-.476.549-.83 1.04-.917l2.262-.367a.89.89 0 0 0 .55-.367l.978-2.018a1.32 1.32 0 0 1 1.773-.611c.26.138.473.351.611.611l1.04 2.018a.7.7 0 0 0 .55.367l2.262.306a1.24 1.24 0 0 1 1.04.917 1.38 1.38 0 0 1-.367 1.345l-1.651 1.651c-.176.15-.248.389-.183.611l.367 2.263a1.42 1.42 0 0 1-.245 1.1 1.37 1.37 0 0 1-1.037.368z"/><path d="M50.998 33.693c.378.019.722.225.917.55l.978 2.018c.138.294.413.501.734.55l2.263.306c.553.091.933.607.856 1.162-.025.217-.135.414-.306.55l-1.651 1.59a1.01 1.01 0 0 0-.306.917l.367 2.2a1.07 1.07 0 0 1-.856 1.162 1.1 1.1 0 0 1-.611-.122l-2.018-1.04a.83.83 0 0 0-.917 0l-1.9 1.1a.98.98 0 0 1-1.345-.489.91.91 0 0 1-.122-.55l.367-2.2c.051-.337-.063-.678-.306-.917l-1.651-1.59a.93.93 0 0 1 0-1.406 1.25 1.25 0 0 1 .55-.306l2.262-.306c.321-.05.596-.256.734-.55l.978-2.018c.208-.353.575-.581.983-.611zm0-.611c-.625-.001-1.197.355-1.471.917l-.978 2.018c-.058.115-.177.186-.306.184l-2.263.306a1.5 1.5 0 0 0-1.284 1.1 1.52 1.52 0 0 0 .431 1.649l1.59 1.59c.122.061.122.245.122.367l-.367 2.262a1.75 1.75 0 0 0 .367 1.345 1.6 1.6 0 0 0 1.223.612c.257.005.51-.059.734-.184l2.018-1.1a.39.39 0 0 1 .367 0l2.018 1.04a1.63 1.63 0 0 0 .734.183 1.6 1.6 0 0 0 1.224-.615 1.75 1.75 0 0 0 .37-1.341l-.367-2.2a.45.45 0 0 1 .122-.367l1.59-1.529c.433-.431.597-1.064.428-1.651a1.5 1.5 0 0 0-1.284-1.1l-2.266-.312a.52.52 0 0 1-.306-.183l-.978-2.017c-.261-.58-.832-.959-1.468-.975z"/></g><g fill="#68c5ed"><path d="M124.376 45.189c-.065-.005-.117-.057-.122-.122V10.579c0-.068.055-.123.123-.123s.123.055.123.123v34.488c-.005.066-.057.118-.123.122zm15.961-12.597h-1.771v3.119h-4.28v-3.119h-6.482v-3.18l6.726-9.845h4.036v9.784h1.774zm-6.115-3.241v-1.9a12.31 12.31 0 0 1 .061-1.406 5.21 5.21 0 0 1 .061-.917h-.122a12.96 12.96 0 0 1-.856 1.59l-1.773 2.691h2.629zm7.399 4.526a1.99 1.99 0 0 1 .611-1.59 2.57 2.57 0 0 1 1.774-.55 2.24 2.24 0 0 1 1.65.55c.408.427.628 1 .612 1.59a1.86 1.86 0 0 1-.612 1.529c-.464.379-1.051.575-1.65.55-.619.035-1.23-.161-1.713-.55a1.67 1.67 0 0 1-.672-1.529zm6.175-5.503c0-3.18.672-5.442 2.018-6.849s3.547-2.14 6.543-2.14a19.89 19.89 0 0 1 2.263.122v3.485a9.97 9.97 0 0 0-1.9-.183 5.64 5.64 0 0 0-3.6.978 4.04 4.04 0 0 0-1.411 3.058h.123a3.8 3.8 0 0 1 .856-1.162c.304-.254.658-.441 1.039-.55.499-.132 1.013-.194 1.529-.183a4.16 4.16 0 0 1 3.302 1.406 5.69 5.69 0 0 1 1.162 3.852c.09 1.557-.462 3.082-1.529 4.219a5.68 5.68 0 0 1-4.219 1.529 5.74 5.74 0 0 1-4.586-1.957 8.93 8.93 0 0 1-1.59-5.625zm6.114 4.1c.439.007.86-.17 1.162-.489.329-.484.48-1.068.428-1.651a2.6 2.6 0 0 0-.367-1.468c-.269-.369-.706-.576-1.162-.55a1.71 1.71 0 0 0-1.223.489 1.63 1.63 0 0 0-.55 1.223c-.006.606.164 1.201.489 1.712.235.457.71.74 1.224.73z"/></g><g fill="#ff9d28"><use xlink:href="#B"/><path d="M69.526 45.067a2.17 2.17 0 0 1-.611-.122l-2.018-1.039c-.096-.044-.201-.065-.306-.061a.46.46 0 0 0-.306.061l-2.018 1.039c-.177.127-.399.171-.611.122-.398-.019-.772-.195-1.04-.489a1.32 1.32 0 0 1-.306-1.04l.367-2.263a.74.74 0 0 0-.184-.611l-1.59-1.529c-.34-.36-.457-.878-.303-1.349s.552-.821 1.039-.913l2.263-.306a.89.89 0 0 0 .55-.367l1.039-2.018a1.32 1.32 0 0 1 1.773-.611c.26.138.473.351.611.611l.978 2.018a.7.7 0 0 0 .55.367l2.263.306a1.32 1.32 0 0 1 1.1 1.529c-.046.276-.174.532-.367.734l-1.651 1.59c-.176.15-.248.39-.183.612l.367 2.262c.061.375-.052.758-.306 1.04-.303.271-.694.423-1.1.427z"/><use xlink:href="#B"/><path d="M84.446 45.067a2.17 2.17 0 0 1-.612-.122l-2.018-1.039c-.096-.044-.201-.065-.306-.061a.46.46 0 0 0-.306.061l-2.018 1.039c-.177.127-.399.171-.611.122-.398-.019-.772-.195-1.04-.489a1.32 1.32 0 0 1-.306-1.04l.367-2.263a.74.74 0 0 0-.183-.611l-1.59-1.59c-.34-.36-.457-.877-.304-1.349s.551-.822 1.038-.913l2.262-.306a.89.89 0 0 0 .55-.367l.978-2.018a1.32 1.32 0 0 1 1.773-.612c.26.138.473.351.611.612l.978 2.018a.7.7 0 0 0 .55.367l2.263.306a1.3 1.3 0 0 1 1.1 1.467c-.046.276-.174.532-.367.734l-1.59 1.59c-.177.15-.249.39-.184.612l.372 2.262c.061.375-.052.757-.306 1.039a1.39 1.39 0 0 1-1.101.551z"/><path d="M81.511 33.693c.378.019.722.225.917.55l.978 2.018c.138.294.413.501.734.55l2.263.306c.553.091.933.607.856 1.162a.82.82 0 0 1-.306.55l-1.651 1.59a1.01 1.01 0 0 0-.306.917l.367 2.2a.98.98 0 0 1-.795 1.162h-.183a1.44 1.44 0 0 1-.489-.122l-2.018-1.04a.83.83 0 0 0-.917 0l-2.018 1.04a1 1 0 0 1-1.345-.428 1.21 1.21 0 0 1-.122-.673l.367-2.2c.051-.338-.063-.679-.306-.919l-1.651-1.59a.93.93 0 0 1 0-1.406 1.25 1.25 0 0 1 .55-.306l2.263-.306c.321-.05.596-.256.734-.55l.978-2.018a2.2 2.2 0 0 1 1.1-.487zm0-.611c-.608.002-1.159.361-1.406.917l-.976 2.017c-.058.115-.177.186-.306.184l-2.263.306c-.422.064-.801.294-1.053.638a1.61 1.61 0 0 0-.292 1.197c.062.35.233.671.489.917l1.651 1.59c.122.061.122.245.122.367l-.367 2.2a1.75 1.75 0 0 0 .367 1.345 1.6 1.6 0 0 0 1.223.611 1.45 1.45 0 0 0 .734-.183l1.957-1.1c.061 0 .122-.061.183-.061.067-.008.134.014.183.061l2.018 1.04a1.63 1.63 0 0 0 .734.183 1.6 1.6 0 0 0 1.223-.612 1.75 1.75 0 0 0 .365-1.343l-.368-2.2a.45.45 0 0 1 .122-.367l1.714-1.533c.628-.613.656-1.614.064-2.261-.246-.256-.567-.427-.917-.489l-2.263-.306a.52.52 0 0 1-.306-.184l-.978-2.018c-.374-.551-.988-.892-1.654-.917zm18.407 11.985a2.17 2.17 0 0 1-.612-.122l-2.018-1.039a.66.66 0 0 0-.673 0l-2.018 1.039c-.177.127-.4.172-.612.122-.383-.008-.742-.188-.978-.489a1.32 1.32 0 0 1-.306-1.04l.367-2.263a.74.74 0 0 0-.184-.611l-1.59-1.59c-.249-.24-.39-.571-.39-.917s.141-.677.39-.917a1.21 1.21 0 0 1 .734-.367l2.263-.306a.89.89 0 0 0 .55-.367l.982-2.017a1.32 1.32 0 0 1 1.773-.611c.26.138.473.351.611.611l.978 2.018a.7.7 0 0 0 .55.367l2.262.306a1.24 1.24 0 0 1 1.04.917c.151.471.034.986-.306 1.345l-1.59 1.59a.59.59 0 0 0-.183.612l.367 2.262c.052.393-.058.79-.306 1.1-.298.273-.699.406-1.101.367z"/><path d="M96.982 33.693c.378.019.722.225.917.55l.978 2.018c.138.294.413.5.734.55l2.263.306c.553.091.933.607.856 1.162-.025.217-.135.414-.306.55l-1.59 1.59a1.01 1.01 0 0 0-.306.917l.367 2.2a1.07 1.07 0 0 1-.856 1.162c-.212.049-.434.005-.611-.122l-2.018-1.04a.83.83 0 0 0-.917 0l-2.018 1.04a1 1 0 0 1-1.345-.428 1.21 1.21 0 0 1-.122-.673l.367-2.2c.051-.338-.063-.68-.307-.919l-1.59-1.59a.93.93 0 0 1 0-1.406 1.25 1.25 0 0 1 .55-.306l2.263-.306c.321-.05.596-.256.734-.55l.978-2.018a1.51 1.51 0 0 1 .979-.487zm.061-.611c-.62.016-1.182.367-1.468.917l-.977 2.017c-.058.115-.177.186-.306.184l-2.263.306a1.5 1.5 0 0 0-1.284 1.1 1.52 1.52 0 0 0 .428 1.651l1.59 1.59c.122.061.122.245.122.367l-.367 2.2a1.75 1.75 0 0 0 .367 1.345 1.6 1.6 0 0 0 1.223.611c.257.005.51-.058.734-.183l2.018-1.04c.061 0 .122-.061.183-.061.067-.008.134.014.183.061l2.018 1.04a1.63 1.63 0 0 0 .734.183 1.6 1.6 0 0 0 1.22-.614 1.75 1.75 0 0 0 .367-1.345l-.367-2.197a.45.45 0 0 1 .122-.367l1.59-1.59c.628-.614.655-1.615.061-2.262-.246-.256-.567-.427-.917-.489l-2.256-.306a.52.52 0 0 1-.306-.184l-.978-2.018c-.299-.539-.855-.886-1.471-.917z"/><use xlink:href="#C"/><use xlink:href="#C"/><use xlink:href="#C"/><use xlink:href="#C"/><path d="M81.572 33.693c.378.019.722.225.917.55l.978 2.018c.138.294.413.501.734.55l2.263.306c.553.091.933.607.856 1.162a.82.82 0 0 1-.306.55l-1.59 1.59a1.01 1.01 0 0 0-.306.917l.367 2.2a.98.98 0 0 1-.795 1.162h-.183a1.44 1.44 0 0 1-.489-.122L82 43.536a.83.83 0 0 0-.917 0l-2.018 1.04a1 1 0 0 1-1.345-.428 1.21 1.21 0 0 1-.122-.673l.367-2.2c.051-.338-.062-.68-.306-.919l-1.651-1.59a.93.93 0 0 1 0-1.406 1.25 1.25 0 0 1 .55-.306l2.263-.306c.321-.05.596-.256.734-.55l.978-2.018a1.66 1.66 0 0 1 1.039-.487zm0-.611c-.62.016-1.182.367-1.468.917l-.975 2.017c-.058.115-.177.186-.306.184l-2.263.306c-.422.064-.801.294-1.053.638a1.61 1.61 0 0 0-.292 1.197c.062.35.233.671.489.917l1.651 1.59c.122.061.122.245.122.367l-.367 2.2a1.75 1.75 0 0 0 .367 1.345 1.6 1.6 0 0 0 1.223.611 1.45 1.45 0 0 0 .734-.183l2.018-1.04c.061 0 .122-.061.183-.061.067-.008.135.014.184.061l1.957 1.1a1.63 1.63 0 0 0 .734.184 1.6 1.6 0 0 0 1.223-.612 1.75 1.75 0 0 0 .367-1.345l-.367-2.2a.45.45 0 0 1 .122-.367l1.651-1.59c.628-.614.655-1.616.061-2.263-.246-.256-.567-.427-.917-.489l-2.265-.31a.52.52 0 0 1-.306-.183l-.978-2.017c-.299-.575-.882-.946-1.529-.975zm36.568 6.174a1.63 1.63 0 0 0 .061-2.262 1.93 1.93 0 0 0-.917-.489l-2.263-.306a.52.52 0 0 1-.306-.184l-.978-2.018a2.08 2.08 0 0 0-1.59-.917c-.619.017-1.181.368-1.467.917l-.979 2.019c-.058.115-.177.186-.306.184l-2.264.306c-.422.064-.801.294-1.053.638a1.61 1.61 0 0 0-.292 1.197 1.68 1.68 0 0 0 .489.917l1.651 1.59c.122.061.122.245.122.367l-.367 2.2a1.75 1.75 0 0 0 .367 1.345 1.6 1.6 0 0 0 1.223.611c.257.005.51-.058.734-.183l2.017-1.04c.061 0 .122-.061.184-.061.067-.008.135.014.184.061l2.018 1.04a1.63 1.63 0 0 0 .735.183c.478-.01.927-.234 1.222-.611a1.75 1.75 0 0 0 .366-1.345l-.367-2.2a.45.45 0 0 1 .122-.367zm-.245-.978a.82.82 0 0 1-.306.55l-.795.795v-2.506l.245.061c.265.021.508.152.671.361s.23.478.185.74z"/></g></g></svg>