<svg xmlns="http://www.w3.org/2000/svg" xmlns:xlink="http://www.w3.org/1999/xlink" width="252" height="192" viewBox="0 0 252 192"><defs><style>.a,.h{fill:#fff;}.a{stroke:#dfe8fe;}.b{fill:none;}.c{fill:#f7f5fe;}.d{fill:#04ca00;}.e{fill:#ffc403;}.f{fill:#f5411f;}.g{fill:url(#a);}.h{font-size:10px;font-family:Arial-BoldMT, Arial;font-weight:700;}.i{stroke:none;}</style><linearGradient id="a" x1="0.187" y1="0.243" x2="0.668" y2="0.799" gradientUnits="objectBoundingBox"><stop offset="0" stop-color="#899bf4"/><stop offset="1" stop-color="#546af0"/></linearGradient></defs><g transform="translate(21545 -14309)"><g class="a" transform="translate(-21545 14334)"><path class="i" d="M12,0H240a12,12,0,0,1,12,12V167a0,0,0,0,1,0,0H0a0,0,0,0,1,0,0V12A12,12,0,0,1,12,0Z"/><path class="b" d="M12,.5H240A11.5,11.5,0,0,1,251.5,12V166.5a0,0,0,0,1,0,0H.5a0,0,0,0,1,0,0V12A11.5,11.5,0,0,1,12,.5Z"/></g><g transform="translate(-22461.75 8128.109)"><g transform="translate(929.139 6256.047)"><path class="b" d="M0,0H21.839V30.248H0Z"/></g><rect class="c" width="175.446" height="10" rx="5" transform="translate(964.033 6282.517)"/><rect class="c" width="175.446" height="10" rx="5" transform="translate(964.033 6304.306)"/><rect class="c" width="89.528" height="9" rx="4.5" transform="translate(1050.033 6326.747)"/></g><g transform="translate(-22094.926 7852.648)"><ellipse class="d" cx="3.381" cy="3.381" rx="3.381" ry="3.381" transform="translate(572.492 6513.393)"/><ellipse class="e" cx="3.381" cy="3.381" rx="3.381" ry="3.381" transform="translate(585.172 6513.393)"/><ellipse class="f" cx="3.381" cy="3.381" rx="3.381" ry="3.381" transform="translate(597.852 6513.393)"/></g><g transform="translate(-42 -20)"><path class="g" d="M21,0H87a21,21,0,0,1,0,42H21A21,21,0,0,1,21,0Z" transform="translate(-21433 14329)"/><text class="h" transform="translate(-21411 14345)"><tspan x="0" y="9">Right To Left</tspan></text></g></g></svg>