<svg xmlns="http://www.w3.org/2000/svg" xmlns:xlink="http://www.w3.org/1999/xlink" width="358" height="65" viewBox="0 0 358 65">
  <defs>
    <filter id="Rectangle_15681" x="117.065" y="0" width="64.882" height="64.882" filterUnits="userSpaceOnUse">
      <feOffset dx="2" dy="3" input="SourceAlpha"/>
      <feGaussianBlur stdDeviation="3" result="blur"/>
      <feFlood flood-color="#465def" flood-opacity="0.141"/>
      <feComposite operator="in" in2="blur"/>
      <feComposite in="SourceGraphic"/>
    </filter>
    <linearGradient id="linear-gradient" x1="0.5" y1="0.995" x2="0.5" y2="0.067" gradientUnits="objectBoundingBox">
      <stop offset="0" stop-color="#ee9823"/>
      <stop offset="0.24" stop-color="#d83234"/>
      <stop offset="0.65" stop-color="#e21e89"/>
      <stop offset="1" stop-color="#7914e9"/>
    </linearGradient>
    <linearGradient id="linear-gradient-2" x1="0.04" y1="0.027" x2="0.779" y2="0.776" gradientUnits="objectBoundingBox">
      <stop offset="0" stop-color="#99155b"/>
      <stop offset="0.14" stop-color="#99155b" stop-opacity="0.91"/>
      <stop offset="0.39" stop-color="#99165a" stop-opacity="0.659"/>
      <stop offset="0.74" stop-color="#99175a" stop-opacity="0.271"/>
      <stop offset="0.97" stop-color="#991859" stop-opacity="0"/>
    </linearGradient>
    <filter id="Rectangle_15680" x="58.901" y="0" width="64.882" height="64.882" filterUnits="userSpaceOnUse">
      <feOffset dx="2" dy="3" input="SourceAlpha"/>
      <feGaussianBlur stdDeviation="3" result="blur-2"/>
      <feFlood flood-color="#465def" flood-opacity="0.141"/>
      <feComposite operator="in" in2="blur-2"/>
      <feComposite in="SourceGraphic"/>
    </filter>
    <linearGradient id="linear-gradient-3" x1="0.084" y1="0.138" x2="0.732" y2="0.8" gradientUnits="objectBoundingBox">
      <stop offset="0" stop-color="#1a6610"/>
      <stop offset="0.26" stop-color="#1a6610" stop-opacity="0.78"/>
      <stop offset="0.79" stop-color="#1a6610" stop-opacity="0.2"/>
      <stop offset="0.97" stop-color="#1a6610" stop-opacity="0"/>
    </linearGradient>
    <filter id="Rectangle_15681-2" x="293.118" y="0" width="64.882" height="64.882" filterUnits="userSpaceOnUse">
      <feOffset dx="2" dy="3" input="SourceAlpha"/>
      <feGaussianBlur stdDeviation="3" result="blur-3"/>
      <feFlood flood-color="#465def" flood-opacity="0.141"/>
      <feComposite operator="in" in2="blur-3"/>
      <feComposite in="SourceGraphic"/>
    </filter>
    <linearGradient id="linear-gradient-4" x1="0.183" y1="0.12" x2="0.82" y2="0.807" gradientUnits="objectBoundingBox">
      <stop offset="0" stop-color="#b83200"/>
      <stop offset="0.243" stop-color="#b83200" stop-opacity="0.757"/>
      <stop offset="0.531" stop-color="#b83200" stop-opacity="0.451"/>
      <stop offset="0.899" stop-color="#b83200" stop-opacity="0.039"/>
      <stop offset="1" stop-opacity="0"/>
    </linearGradient>
    <filter id="Rectangle_15680-2" x="233.395" y="0" width="64.882" height="64.882" filterUnits="userSpaceOnUse">
      <feOffset dx="2" dy="3" input="SourceAlpha"/>
      <feGaussianBlur stdDeviation="3" result="blur-4"/>
      <feFlood flood-color="#465def" flood-opacity="0.141"/>
      <feComposite operator="in" in2="blur-4"/>
      <feComposite in="SourceGraphic"/>
    </filter>
    <linearGradient id="linear-gradient-5" x1="0.202" y1="0.19" x2="0.798" y2="0.773" gradientUnits="objectBoundingBox">
      <stop offset="0" stop-color="#2f2966"/>
      <stop offset="0.26" stop-color="#2f2966" stop-opacity="0.78"/>
      <stop offset="0.79" stop-color="#2f2966" stop-opacity="0.2"/>
      <stop offset="0.97" stop-color="#2f2966" stop-opacity="0"/>
    </linearGradient>
    <filter id="Rectangle_15679" x="0" y="0" width="65" height="65" filterUnits="userSpaceOnUse">
      <feOffset dx="2" dy="3" input="SourceAlpha"/>
      <feGaussianBlur stdDeviation="3" result="blur-5"/>
      <feFlood flood-color="#465def" flood-opacity="0.141"/>
      <feComposite operator="in" in2="blur-5"/>
      <feComposite in="SourceGraphic"/>
    </filter>
    <linearGradient id="linear-gradient-6" x1="0.183" y1="0.12" x2="0.82" y2="0.807" gradientUnits="objectBoundingBox">
      <stop offset="0" stop-color="#0040b3"/>
      <stop offset="0.18" stop-color="#0040b3" stop-opacity="0.871"/>
      <stop offset="0.435" stop-color="#0040b3" stop-opacity="0.529"/>
      <stop offset="0.97" stop-opacity="0"/>
      <stop offset="1" stop-opacity="0"/>
    </linearGradient>
    <filter id="Rectangle_15679-2" x="175.23" y="0" width="64.882" height="64.882" filterUnits="userSpaceOnUse">
      <feOffset dx="2" dy="3" input="SourceAlpha"/>
      <feGaussianBlur stdDeviation="3" result="blur-6"/>
      <feFlood flood-color="#465def" flood-opacity="0.141"/>
      <feComposite operator="in" in2="blur-6"/>
      <feComposite in="SourceGraphic"/>
    </filter>
    <linearGradient id="linear-gradient-7" x1="0.198" y1="0.216" x2="0.762" y2="0.785" gradientUnits="objectBoundingBox">
      <stop offset="0" stop-color="#004c8c"/>
      <stop offset="0.19" stop-color="#004c8c" stop-opacity="0.839"/>
      <stop offset="0.6" stop-color="#004c8c" stop-opacity="0.42"/>
      <stop offset="0.97" stop-color="#004c8c" stop-opacity="0"/>
    </linearGradient>
  </defs>
  <g id="Group_80802" data-name="Group 80802" transform="translate(7 5.997)">
    <g id="Group_56677" data-name="Group 56677" transform="translate(117.065 0.003)">
      <g transform="matrix(1, 0, 0, 1, -124.07, -6)" filter="url(#Rectangle_15681)">
        <rect id="Rectangle_15681-3" data-name="Rectangle 15681" width="46.882" height="46.882" rx="23.441" transform="translate(124.07 6)" fill="#fff"/>
      </g>
      <g id="Layer_2" data-name="Layer 2" transform="translate(10.285 9.022)">
        <g id="_05.instagram" data-name="05.instagram" transform="translate(0 0)">
          <path id="background" d="M29.443,14.764a14.529,14.529,0,0,1-.194,2.391,14.723,14.723,0,1,1,.194-2.391Z" transform="translate(0.004 -0.051)" fill="url(#linear-gradient)"/>
          <path id="shadow" d="M63.413,52.381a14.779,14.779,0,0,1-12.2,12.185l-8.486-8.486c-1.4-8.681.848-12.379.848-12.379H54.731Z" transform="translate(-34.161 -35.324)" fill="url(#linear-gradient-2)"/>
          <g id="icon" transform="translate(7.334 7.324)">
            <path id="Path_203382" data-name="Path 203382" d="M48.376,38H42.4A4.408,4.408,0,0,0,38,42.4v5.974a4.408,4.408,0,0,0,4.4,4.4h5.974a4.406,4.406,0,0,0,4.4-4.4V42.4A4.408,4.408,0,0,0,48.376,38Zm2.917,10.376a2.917,2.917,0,0,1-2.917,2.917H42.4a2.917,2.917,0,0,1-2.917-2.917V42.4A2.917,2.917,0,0,1,42.4,39.486h5.974A2.917,2.917,0,0,1,51.293,42.4Z" transform="translate(-38 -38)" fill="#fff"/>
            <path id="Path_203383" data-name="Path 203383" d="M60.155,56.35a3.823,3.823,0,1,0,3.821,3.822,3.823,3.823,0,0,0-3.821-3.822Zm0,6.155a2.333,2.333,0,1,1,2.333-2.333A2.333,2.333,0,0,1,60.155,62.5Z" transform="translate(-52.766 -52.782)" fill="#fff"/>
            <ellipse id="Ellipse_5683" data-name="Ellipse 5683" cx="0.945" cy="0.945" rx="0.945" ry="0.945" transform="translate(10.289 2.623)" fill="#fff"/>
          </g>
        </g>
      </g>
    </g>
    <g id="Group_56676" data-name="Group 56676" transform="translate(58.901 0.003)">
      <g transform="matrix(1, 0, 0, 1, -65.9, -6)" filter="url(#Rectangle_15680)">
        <rect id="Rectangle_15680-3" data-name="Rectangle 15680" width="46.882" height="46.882" rx="23.441" transform="translate(65.9 6)" fill="#fff"/>
      </g>
      <g id="Layer_2-2" data-name="Layer 2" transform="translate(9.243 9.497)">
        <g id="_08.whatsapp" data-name="08.whatsapp" transform="translate(0)">
          <ellipse id="background-2" data-name="background" cx="14.723" cy="14.668" rx="14.723" ry="14.668" fill="#2aa81a"/>
          <path id="shadow-2" data-name="shadow" d="M60.178,53.736A14.779,14.779,0,0,1,46.15,64.668l-7.51-7.514,1.525-3.765C37.481,39.054,51.118,44.67,51.118,44.67Z" transform="translate(-31.319 -35.221)" fill="url(#linear-gradient-3)"/>
          <g id="icon-2" data-name="icon" transform="translate(7.255 7.333)">
            <path id="Path_203384" data-name="Path 203384" d="M50.844,40.173A7.331,7.331,0,0,0,39.1,48.656l-.778,3.776a.276.276,0,0,0,.045.22.282.282,0,0,0,.3.117l3.695-.877a7.331,7.331,0,0,0,8.478-11.718Zm-1.155,9.211a5.748,5.748,0,0,1-6.612,1.083l-.517-.257-2.269.537v-.029l.478-2.289-.253-.5a5.74,5.74,0,0,1,9.173-6.664l.025.035a5.74,5.74,0,0,1-.029,8.086Z" transform="translate(-38.299 -37.997)" fill="#fff"/>
            <path id="Path_203385" data-name="Path 203385" d="M64.541,63.495a2.4,2.4,0,0,1-1.27,1.106c-.972.233-2.452,0-4.305-1.713l-.023-.021C57.33,61.362,56.9,60.107,57,59.114a2.378,2.378,0,0,1,.924-1.41.529.529,0,0,1,.826.194l.6,1.35a.525.525,0,0,1-.064.537l-.3.389a.515.515,0,0,0-.041.574,5.639,5.639,0,0,0,1.025,1.14,6.061,6.061,0,0,0,1.42,1.017.515.515,0,0,0,.562-.119l.348-.354a.527.527,0,0,1,.531-.148l1.42.406a.533.533,0,0,1,.3.805Z" transform="translate(-53.352 -53.771)" fill="#fff"/>
          </g>
        </g>
      </g>
    </g>
    <g id="Group_56680" data-name="Group 56680" transform="translate(293.118 0.003)">
      <g transform="matrix(1, 0, 0, 1, -300.12, -6)" filter="url(#Rectangle_15681-2)">
        <rect id="Rectangle_15681-4" data-name="Rectangle 15681" width="46.882" height="46.882" rx="23.441" transform="translate(300.12 6)" fill="#fff"/>
      </g>
      <g id="Group_56673" data-name="Group 56673" transform="translate(9.047 9.048)">
        <circle id="background-3" data-name="background" cx="14.805" cy="14.805" r="14.805" fill="#ff4500"/>
        <path id="shadow-3" data-name="shadow" d="M65.616,61.414A14.8,14.8,0,0,1,55.259,71.736l-9.081-9.071C41.9,53.743,57.2,53,57.2,53Z" transform="translate(-36.847 -42.245)" fill="url(#linear-gradient-4)"/>
        <path id="verified" d="M13.33,7.517H12.318a.094.094,0,0,0-.095.095.1.1,0,0,0,.095.095H13.33a.1.1,0,0,0,.095-.095.094.094,0,0,0-.095-.095Zm.517,0h-.261a.1.1,0,0,0-.095.095.1.1,0,0,0,.095.095h.261a.093.093,0,0,0,.092-.095.091.091,0,0,0-.092-.095Zm-.659,1.632a1.172,1.172,0,1,0,1.173,1.173A1.172,1.172,0,0,0,13.188,9.149ZM12.9,10.8v0a.129.129,0,0,1-.056.017h-.008a.1.1,0,0,1-.07-.042c-.014-.022-.309-.439-.309-.439a.091.091,0,0,1,.022-.131.094.094,0,0,1,.131.022c.131.183.211.3.259.373.136-.106.414-.3.984-.7l.108.153Zm.286-1.649a1.172,1.172,0,1,0,1.173,1.173A1.172,1.172,0,0,0,13.188,9.149ZM12.9,10.8v0a.129.129,0,0,1-.056.017h-.008a.1.1,0,0,1-.07-.042c-.014-.022-.309-.439-.309-.439a.091.091,0,0,1,.022-.131.094.094,0,0,1,.131.022c.131.183.211.3.259.373.136-.106.414-.3.984-.7l.108.153Zm.945-3.28h-.261a.1.1,0,0,0-.095.095.1.1,0,0,0,.095.095h.261a.093.093,0,0,0,.092-.095.091.091,0,0,0-.092-.095Zm-.517,0H12.318a.094.094,0,0,0-.095.095.1.1,0,0,0,.095.095H13.33a.1.1,0,0,0,.095-.095.094.094,0,0,0-.095-.095ZM11.784,4a7.784,7.784,0,1,0,7.784,7.784A7.784,7.784,0,0,0,11.784,4Zm-.517,3.9a.657.657,0,0,1,.656-.656h2.53a.658.658,0,0,1,.659.656v.056H11.267Zm0,.245h3.845v4.29H11.267Zm0,4.476h3.845v.12a.658.658,0,0,1-.659.656h-2.53a.657.657,0,0,1-.656-.656ZM8.473,16.068a.259.259,0,0,1-.259.256H7.848a.259.259,0,0,1-.259-.256V13.613a.26.26,0,0,1,.259-.259h.367a.26.26,0,0,1,.259.259Zm7.373-1.774-2.038,1.168a5.055,5.055,0,0,1-.592.286c-.161.064-.331.114-.331.114a4.253,4.253,0,0,1-.717.164l-1.432.206a4.557,4.557,0,0,1-1.245.011l-.831-.106V13.586l1.357-.225a.276.276,0,0,1,.15.014l2.06.767a.437.437,0,0,0,.17.031h.147a.3.3,0,0,1,0,.595h-.567a.27.27,0,0,1-.047,0L9.91,14.436a.092.092,0,0,0-.108.075.1.1,0,0,0,.078.111l2.018.328a.687.687,0,0,0,.078.006h.567a.481.481,0,0,0,.373-.178l2.708-.967a.264.264,0,0,1,.206.014.252.252,0,0,1,.136.156.269.269,0,0,1-.12.314ZM13.188,9.149a1.172,1.172,0,1,0,1.173,1.173A1.172,1.172,0,0,0,13.188,9.149ZM12.9,10.8v0a.129.129,0,0,1-.056.017h-.008a.1.1,0,0,1-.07-.042c-.014-.022-.309-.439-.309-.439a.091.091,0,0,1,.022-.131.094.094,0,0,1,.131.022c.131.183.211.3.259.373.136-.106.414-.3.984-.7l.108.153Zm.945-3.28h-.261a.1.1,0,0,0-.095.095.1.1,0,0,0,.095.095h.261a.093.093,0,0,0,.092-.095.091.091,0,0,0-.092-.095Zm-.517,0H12.318a.094.094,0,0,0-.095.095.1.1,0,0,0,.095.095H13.33a.1.1,0,0,0,.095-.095.094.094,0,0,0-.095-.095Zm0,0H12.318a.094.094,0,0,0-.095.095.1.1,0,0,0,.095.095H13.33a.1.1,0,0,0,.095-.095.094.094,0,0,0-.095-.095Zm.517,0h-.261a.1.1,0,0,0-.095.095.1.1,0,0,0,.095.095h.261a.093.093,0,0,0,.092-.095.091.091,0,0,0-.092-.095Zm0,0h-.261a.1.1,0,0,0-.095.095.1.1,0,0,0,.095.095h.261a.093.093,0,0,0,.092-.095.091.091,0,0,0-.092-.095Zm-.517,0H12.318a.094.094,0,0,0-.095.095.1.1,0,0,0,.095.095H13.33a.1.1,0,0,0,.095-.095.094.094,0,0,0-.095-.095Z" transform="translate(2.651 3.596)" fill="#fff"/>
      </g>
    </g>
    <g id="Group_56679" data-name="Group 56679" transform="translate(233.395 0.003)">
      <g transform="matrix(1, 0, 0, 1, -240.39, -6)" filter="url(#Rectangle_15680-2)">
        <rect id="Rectangle_15680-4" data-name="Rectangle 15680" width="46.882" height="46.882" rx="23.441" transform="translate(240.39 6)" fill="#fff"/>
      </g>
      <g id="Group_56674" data-name="Group 56674" transform="translate(9.87 9.048)">
        <g id="Layer_2-3" data-name="Layer 2" transform="translate(0 0)">
          <g id="_75.discord" data-name="75.discord" transform="translate(0)">
            <circle id="background-4" data-name="background" cx="14.805" cy="14.805" r="14.805" fill="#5046af"/>
            <path id="shadow-4" data-name="shadow" d="M63.823,48.317A14.181,14.181,0,0,1,52.556,60.77L43.7,51.917c-.162-12.65,12.028-11.69,12.028-11.69Z" transform="translate(-35.037 -31.059)" fill="url(#linear-gradient-5)"/>
          </g>
        </g>
        <g id="landing-page" transform="translate(8.188 9.272)">
          <path id="Path_203392" data-name="Path 203392" d="M14.032,2.437V2.086A1.756,1.756,0,0,0,12.278.332H1.754A1.756,1.756,0,0,0,0,2.086v.351Zm0,0" transform="translate(0 -0.332)" fill="#fff"/>
          <path id="Path_203393" data-name="Path 203393" d="M0,85.668v8.068A1.756,1.756,0,0,0,1.754,95.49H12.277a1.756,1.756,0,0,0,1.754-1.754V85.668Zm2.1,2.455a.35.35,0,0,1,.351-.351H5.262a.351.351,0,0,1,.351.351v2.1a.351.351,0,0,1-.351.351H2.456a.35.35,0,0,1-.351-.351Zm9.471,4.56H2.456a.351.351,0,1,1,0-.7h9.12a.351.351,0,1,1,0,.7Zm0-2.1H7.366a.351.351,0,1,1,0-.7h4.209a.351.351,0,1,1,0,.7Zm0-2.1H7.366a.351.351,0,1,1,0-.7h4.209a.351.351,0,1,1,0,.7Zm0,0" transform="translate(0 -82.862)" fill="#fff"/>
          <path id="Path_203394" data-name="Path 203394" d="M85.332,171h2.1v1.4h-2.1Zm0,0" transform="translate(-82.526 -165.387)" fill="#fff"/>
        </g>
      </g>
    </g>
    <g id="Group_56675" data-name="Group 56675" transform="translate(0 0.003)">
      <g transform="matrix(1, 0, 0, 1, -7, -6)" filter="url(#Rectangle_15679)">
        <rect id="Rectangle_15679-3" data-name="Rectangle 15679" width="47" height="47" rx="23.5" transform="translate(7 6)" fill="#fff"/>
      </g>
      <g id="Group_56672" data-name="Group 56672" transform="translate(9.048 9.048)">
        <g id="Layer_2-4" data-name="Layer 2" transform="translate(0 0)">
          <g id="_60.ello" data-name="60.ello">
            <circle id="background-5" data-name="background" cx="15" cy="15" r="15" transform="translate(-0.047 -0.048)" fill="#005cff"/>
            <path id="shadow-5" data-name="shadow" d="M65.616,61.414A14.8,14.8,0,0,1,55.259,71.736l-9.081-9.071C41.9,53.743,57.2,53,57.2,53Z" transform="translate(-36.556 -42.245)" fill="url(#linear-gradient-6)"/>
          </g>
        </g>
        <path id="internet" d="M49.806,50.623H46.847V47.269h3.436A13.191,13.191,0,0,1,49.806,50.623Zm-7.488-3.354H39.163a7.365,7.365,0,0,0,.944,3.354h2.668A13.855,13.855,0,0,1,42.318,47.269Zm1.2-5.837a5.653,5.653,0,0,1,1.2-1.616,7.443,7.443,0,0,0-4.262,3h2.491A9.294,9.294,0,0,1,43.513,41.432Zm-.738,1.936H40.107a7.364,7.364,0,0,0-.944,3.354h3.155A13.855,13.855,0,0,1,42.775,43.368Zm7.031,0H46.847v3.354h3.436A13.19,13.19,0,0,0,49.806,43.368Zm1.024,3.354h3.155a7.365,7.365,0,0,0-.944-3.354H50.373a13.861,13.861,0,0,1,.457,3.354Zm-1.681-5.039a3.46,3.46,0,0,0-2.3-2.084v3.222h2.786A8.6,8.6,0,0,0,49.149,41.683Zm.486-.251a9.3,9.3,0,0,1,.575,1.389H52.7a7.443,7.443,0,0,0-4.262-3A5.656,5.656,0,0,1,49.635,41.432ZM44,41.683a8.617,8.617,0,0,0-.484,1.137H46.3V39.6A3.46,3.46,0,0,0,44,41.683Zm5.636,10.875a5.655,5.655,0,0,1-1.2,1.616,7.441,7.441,0,0,0,4.262-3H50.21A9.286,9.286,0,0,1,49.635,52.559Zm.738-1.936h2.668a7.365,7.365,0,0,0,.944-3.354H50.83a13.861,13.861,0,0,1-.457,3.354Zm-.739.547H46.847v3.222a3.461,3.461,0,0,0,2.3-2.084A8.6,8.6,0,0,0,49.634,51.17Zm-6.292-.547H46.3V47.269H42.865A13.19,13.19,0,0,0,43.342,50.623ZM44,52.307a3.461,3.461,0,0,0,2.3,2.084V51.17H43.514A8.616,8.616,0,0,0,44,52.307Zm-1.134-5.585H46.3V43.368H43.342A13.189,13.189,0,0,0,42.865,46.722Zm.648,5.837a9.289,9.289,0,0,1-.575-1.389H40.447a7.441,7.441,0,0,0,4.262,3A5.654,5.654,0,0,1,43.513,52.559Z" transform="translate(-31.374 -31.615)" fill="#fff"/>
      </g>
    </g>
    <g id="Group_56678" data-name="Group 56678" transform="translate(175.23 0.003)">
      <g transform="matrix(1, 0, 0, 1, -182.23, -6)" filter="url(#Rectangle_15679-2)">
        <rect id="Rectangle_15679-4" data-name="Rectangle 15679" width="46.882" height="46.882" rx="23.441" transform="translate(182.23 6)" fill="#fff"/>
      </g>
      <g id="Layer_2-5" data-name="Layer 2" transform="translate(9.87 9.048)">
        <g id="_13.messenger" data-name="13.messenger" transform="translate(0 0)">
          <ellipse id="background-6" data-name="background" cx="14.394" cy="14.805" rx="14.394" ry="14.805" fill="#0077db"/>
          <path id="shadow-6" data-name="shadow" d="M68.4,59.458A14.8,14.8,0,0,1,56.614,70.309L49.45,63.137,50.8,60.494c-7.627-9.824,9-9.635,9-9.635Z" transform="translate(-39.767 -40.52)" fill="url(#linear-gradient-7)"/>
          <path id="icon-3" data-name="icon" d="M45.389,38A7.131,7.131,0,0,0,38,44.843a6.656,6.656,0,0,0,2.754,5.328v2.608L43.27,51.4a7.973,7.973,0,0,0,2.12.286,7.13,7.13,0,0,0,7.389-6.843A7.13,7.13,0,0,0,45.389,38Zm.733,9.213-1.88-2-3.671,2.007,4.041-4.288,1.929,2.007,3.625-2.007Z" transform="translate(-31.071 -30.162)" fill="#fff"/>
        </g>
      </g>
    </g>
  </g>
</svg>
