<svg xmlns="http://www.w3.org/2000/svg" xmlns:xlink="http://www.w3.org/1999/xlink" width="76.709" height="120.838" viewBox="0 0 76.709 120.838">
  <defs>
    <linearGradient id="linear-gradient" x1="-1.574" y1="2.097" x2="-0.579" y2="2.193" gradientUnits="objectBoundingBox">
      <stop offset="0.05" stop-color="#f43"/>
      <stop offset="0.96" stop-color="#ffe705"/>
    </linearGradient>
    <linearGradient id="linear-gradient-2" x1="0.664" y1="0.228" x2="-0.006" y2="1.139" gradientUnits="objectBoundingBox">
      <stop offset="0" stop-color="#ffe705"/>
      <stop offset="1" stop-color="#ffd012"/>
    </linearGradient>
    <linearGradient id="linear-gradient-3" x1="0.297" y1="1.358" x2="0.56" y2="0.248" gradientUnits="objectBoundingBox">
      <stop offset="0" stop-color="#ff5f2b"/>
      <stop offset="0.29" stop-color="#ff8922"/>
      <stop offset="0.6" stop-color="#ffaf19"/>
      <stop offset="0.85" stop-color="#ffc714"/>
      <stop offset="1" stop-color="#ffd012"/>
    </linearGradient>
    <linearGradient id="linear-gradient-4" x1="0.487" y1="-0.882" x2="0.509" y2="1.451" gradientUnits="objectBoundingBox">
      <stop offset="0" stop-color="#ff5f2b"/>
      <stop offset="0.14" stop-color="#ff6529"/>
      <stop offset="0.32" stop-color="#ff7425"/>
      <stop offset="0.53" stop-color="#ff8e1e"/>
      <stop offset="0.75" stop-color="#ffb314"/>
      <stop offset="0.97" stop-color="#ffe107"/>
      <stop offset="1" stop-color="#ffe705"/>
    </linearGradient>
    <linearGradient id="linear-gradient-5" x1="0.626" y1="0.864" x2="0.454" y2="0.367" gradientUnits="objectBoundingBox">
      <stop offset="0" stop-color="#fcae25"/>
      <stop offset="1" stop-color="#fcae25"/>
    </linearGradient>
    <linearGradient id="linear-gradient-6" x1="0.36" y1="0.829" x2="0.691" y2="0.051" xlink:href="#linear-gradient-5"/>
    <linearGradient id="linear-gradient-7" x1="0.801" y1="-0.345" x2="0.433" y2="0.688" gradientUnits="objectBoundingBox">
      <stop offset="0" stop-color="#ff5f2b"/>
      <stop offset="0.14" stop-color="#ff6828"/>
      <stop offset="0.36" stop-color="#ff8121"/>
      <stop offset="0.64" stop-color="#ffaa16"/>
      <stop offset="0.98" stop-color="#ffe306"/>
      <stop offset="1" stop-color="#ffe705"/>
    </linearGradient>
    <linearGradient id="linear-gradient-8" x1="-2.362" y1="4.755" x2="-1.71" y2="4.942" xlink:href="#linear-gradient"/>
    <linearGradient id="linear-gradient-9" x1="0.36" y1="0.16" x2="0.601" y2="0.744" gradientUnits="objectBoundingBox">
      <stop offset="0" stop-color="#f43"/>
      <stop offset="1" stop-color="#fcae25"/>
    </linearGradient>
  </defs>
  <g id="Group_124665" data-name="Group 124665" transform="translate(-625 -2945.65)" style="mix-blend-mode: normal;isolation: isolate">
    <g id="super" transform="translate(625 2945.65)">
      <path id="Path_200475" data-name="Path 200475" d="M1103.731,1080.912h0a38.637,38.637,0,0,1-18-4.463,38.36,38.36,0,0,1,17.927-72.25,38.64,38.64,0,0,1,18,4.463,38.36,38.36,0,0,1-17.927,72.249Zm-.072-75.848a37.491,37.491,0,0,0,.07,74.983h0a37.491,37.491,0,0,0-.07-74.983Z" transform="translate(-1065.341 -991.868)" fill="url(#linear-gradient)"/>
      <g id="Group_54307" data-name="Group 54307" transform="translate(17.782 1.063)">
        <path id="Path_200476" data-name="Path 200476" d="M484.889,67.168H463.4L478.375,26.1l-41.6,54.78,25.347-1.645-17.963,53.2Z" transform="translate(-436.78 -26.1)" fill="url(#linear-gradient-2)"/>
      </g>
      <g id="Group_54309" data-name="Group 54309" transform="translate(14.951 1.063)">
        <path id="Path_200478" data-name="Path 200478" d="M367.26,82.525l18.305-9.667L411.686,26.1Z" transform="translate(-367.26 -26.1)" fill="url(#linear-gradient-3)"/>
      </g>
      <g id="Group_54310" data-name="Group 54310" transform="translate(17.008 47.821)">
        <path id="Path_200479" data-name="Path 200479" d="M455.194,1174.24l-12.341,8.021-25.093.617,16.249-8.639Z" transform="translate(-417.76 -1174.24)" fill="url(#linear-gradient-4)"/>
      </g>
      <g id="Group_54311" data-name="Group 54311" transform="translate(33.256 1.337)">
        <path id="Path_200480" data-name="Path 200480" d="M829.16,73.349l-12.41,5.965L844.311,32.83Z" transform="translate(-816.75 -32.83)" fill="url(#linear-gradient-5)"/>
      </g>
      <g id="Group_54312" data-name="Group 54312" transform="translate(22.492 47.821)">
        <path id="Path_200481" data-name="Path 200481" d="M584.389,1174.24l-31.949,64.036,20.637-57.659Z" transform="translate(-552.44 -1174.24)" fill="url(#linear-gradient-6)"/>
      </g>
      <g id="Group_54313" data-name="Group 54313" transform="translate(18.036 41.856)">
        <path id="Path_200482" data-name="Path 200482" d="M492.785,1027.78l-13.37,5.964-36.405,73.017Z" transform="translate(-443.01 -1027.78)" fill="url(#linear-gradient-7)"/>
      </g>
      <path id="Path_200485" data-name="Path 200485" d="M1251.106,2467.751a38.57,38.57,0,0,1-21.433-6.524,38.094,38.094,0,0,1-10.693-10.844l.724-.473a37.515,37.515,0,0,0,51.891,10.854l.473.724a38.235,38.235,0,0,1-20.962,6.263Z" transform="translate(-1212.723 -2378.701)" fill="url(#linear-gradient-8)"/>
      <g id="Group_54316" data-name="Group 54316" transform="translate(45.803)">
        <path id="Path_200486" data-name="Path 200486" d="M1139.32,0l-14.5,26.43,7.2-4.319Z" transform="translate(-1124.82)" fill="url(#linear-gradient-9)"/>
      </g>
    </g>
  </g>
</svg>
