<svg xmlns="http://www.w3.org/2000/svg" width="16.756" height="15.616" viewBox="0 0 16.756 15.616">
  <g id="handshake" transform="translate(0 -13.875)">
    <path id="Path_203455" data-name="Path 203455" d="M70.707,270.521a.7.7,0,0,0-.906-.07l-.007,0-.6.6a.692.692,0,0,0-.2.493.7.7,0,0,0,.7.7.733.733,0,0,0,.555-.266l.465-.465a.7.7,0,0,0,0-.987Z" transform="translate(-66.155 -245.907)" fill="#465def"/>
    <path id="Path_203456" data-name="Path 203456" d="M29.919,220.741a.7.7,0,0,0-.987,0l-.526.527a.7.7,0,0,0,.987.987l.527-.527A.7.7,0,0,0,29.919,220.741Z" transform="translate(-27.04 -198.171)" fill="#465def"/>
    <path id="Path_203457" data-name="Path 203457" d="M117,314.025a.694.694,0,0,0-.494.2l-.527.527-.007.008a.7.7,0,0,0,.995.979l.527-.527A.7.7,0,0,0,117,314.025Z" transform="translate(-111.016 -287.818)" fill="#465def"/>
    <path id="Path_203458" data-name="Path 203458" d="M10.664,18.524A2.8,2.8,0,0,1,7.2,18.136L5.982,16.916l1.524-1.524a4.292,4.292,0,1,0-6.063,6.052A1.934,1.934,0,0,1,4.311,23.26a1.94,1.94,0,0,1,1.673,1.781,1.942,1.942,0,0,1,1.859,1.426,1.938,1.938,0,0,1,1.941.592l.014-.016a.7.7,0,0,0,.9-1.052v0L7.92,23.215l.871-.871,2.743,2.743a.7.7,0,0,0,.987-.987L9.779,21.356l.871-.871,2.743,2.743a.7.7,0,1,0,.987-.987Z" transform="translate(0 -0.066)" fill="#465def"/>
    <path id="Path_203459" data-name="Path 203459" d="M195.832,15.127a4.289,4.289,0,0,0-6.058,0l-1.723,1.723.349.349a1.558,1.558,0,0,0,2.2,0l.436-.436c.232.234,4.486,4.481,4.606,4.609a4.308,4.308,0,0,0,.188-6.246Z" transform="translate(-180.326 0)" fill="#465def"/>
    <path id="Path_203460" data-name="Path 203460" d="M174.793,347.42a.7.7,0,0,0-.987,0l-.527.527a.7.7,0,1,0,.987.987l.527-.527A.7.7,0,0,0,174.793,347.42Z" transform="translate(-165.965 -319.646)" fill="#465def"/>
  </g>
</svg>
