<svg xmlns="http://www.w3.org/2000/svg" width="28.894" height="28.894" viewBox="0 0 28.894 28.894">
  <g id="Layer_2" data-name="Layer 2" transform="translate(-1.25 -1.25)">
    <circle id="Ellipse_6788" data-name="Ellipse 6788" cx="13.103" cy="13.103" r="13.103" transform="translate(1.25 3.938)" fill="#ff6174"/>
    <circle id="Ellipse_6789" data-name="Ellipse 6789" cx="8.063" cy="8.063" r="8.063" transform="translate(6.29 8.977)" fill="#fff"/>
    <circle id="Ellipse_6790" data-name="Ellipse 6790" cx="4.032" cy="4.032" r="4.032" transform="translate(10.321 13.009)" fill="#ff6174"/>
    <g id="Group_81586" data-name="Group 81586" transform="translate(13.346 1.25)">
      <path id="Path_260832" data-name="Path 260832" d="M11.258,17.01a1.008,1.008,0,0,1-.712-1.72L21.3,4.539a1.008,1.008,0,0,1,1.425,1.425L11.97,16.715A1,1,0,0,1,11.258,17.01Z" transform="translate(-10.251 -0.212)" fill="#ffc545"/>
      <path id="Path_260833" data-name="Path 260833" d="M23.29,7.3H19.258A1.008,1.008,0,0,1,18.25,6.29V2.258a1.008,1.008,0,1,1,2.016,0V5.282H23.29a1.008,1.008,0,0,1,0,2.016Z" transform="translate(-7.5 -1.25)" fill="#ffc545"/>
    </g>
  </g>
</svg>
