<svg id="telegram" xmlns="http://www.w3.org/2000/svg" xmlns:xlink="http://www.w3.org/1999/xlink" width="31" height="31" viewBox="0 0 31 31">
  <defs>
    <linearGradient id="linear-gradient" x1="-0.186" y1="0.083" x2="1.065" y2="0.877" gradientUnits="objectBoundingBox">
      <stop offset="0" stop-color="#1678bf"/>
      <stop offset="0.205" stop-color="#1678bf" stop-opacity="0.78"/>
      <stop offset="0.665" stop-color="#1678bf" stop-opacity="0.322"/>
      <stop offset="1" stop-color="#288ad1" stop-opacity="0.349"/>
    </linearGradient>
  </defs>
  <circle id="Ellipse_5689" data-name="Ellipse 5689" cx="15.5" cy="15.5" r="15.5" fill="#3fa9f5"/>
  <path id="Path_203482" data-name="Path 203482" d="M230.424,143.175l-6.561-6.55-10.688,13.027,7.7,7.7a14.786,14.786,0,0,0,9.558-13.83C230.428,143.4,230.426,143.289,230.424,143.175Z" transform="translate(-199.867 -127.737)" fill="url(#linear-gradient)"/>
  <path id="Path_203483" data-name="Path 203483" d="M126.235,132.609a.828.828,0,0,1,1.132.9l-2.8,12.632a.9.9,0,0,1-1.384.5l-4.225-2.928-2.154,2.076a.733.733,0,0,1-1.193-.27l-1.554-4.657-4.165-1.162a.555.555,0,0,1-.048-1.067Zm-2.055,2.8c.182-.152-.03-.421-.236-.3l-8.99,5.264a.376.376,0,0,0-.175.443l1.226,5.083a.079.079,0,0,0,.153-.014l.274-3.874a.376.376,0,0,1,.135-.247Z" transform="translate(-103.144 -124.414)" fill="#fff"/>
  <path id="Path_203484" data-name="Path 203484" d="M204.747,176.376a.187.187,0,0,1,.223.3l-7.188,6.356a.384.384,0,0,0-.127.247l-.259,3.874a.074.074,0,0,1-.144.014l-1.158-5.083a.386.386,0,0,1,.165-.443Z" transform="translate(-184.217 -165.632)" fill="#9ec2e5"/>
  <path id="Path_203485" data-name="Path 203485" d="M116.053,145.957a.683.683,0,0,1-.438-.431l-1.554-4.657-4.167-1.162a.555.555,0,0,1-.049-1.067l16.4-6.03a.867.867,0,0,1,1.019.315.847.847,0,0,0-.134-.15L116,141.345v.375l-.061-.042.061,2.363v1.9a.412.412,0,0,0,.05.018v0Z" transform="translate(-103.145 -124.44)" fill="#fff"/>
  <g id="Group_56708" data-name="Group 56708" transform="translate(13.14 8.366)">
    <path id="Path_203486" data-name="Path 203486" d="M227.093,136.893a.865.865,0,0,1-.017.212l-2.643,12.632a.832.832,0,0,1-1.307.5l-3.989-2.928-2.794-2v-.375l10.5-8.571a.83.83,0,0,1,.126.15l.021.034c.006.012.013.024.019.035s.012.024.017.036.011.025.016.038.009.023.013.036a.791.791,0,0,1,.03.12C227.088,136.839,227.091,136.865,227.093,136.893Z" transform="translate(-216.343 -136.364)" fill="#d1d1d1"/>
    <path id="Path_203487" data-name="Path 203487" d="M219.138,293.309l-2.033,2.076c-.017.017-.035.034-.053.049s-.036.028-.055.041h0a.7.7,0,0,1-.117.063.49.49,0,0,1-.062.021.674.674,0,0,1-.263.024c-.023,0-.046-.006-.068-.01l-.009,0-.066-.019a.089.089,0,0,1-.021-.008l-.047-1.913V291.31Z" transform="translate(-216.344 -282.364)" fill="#d1d1d1"/>
  </g>
  <g id="Group_56709" data-name="Group 56709" transform="translate(13.132 21.645)">
    <path id="Path_203488" data-name="Path 203488" d="M227.707,362.73c-.018.015-.036.029-.055.042h0C227.671,362.758,227.689,362.745,227.707,362.73Z" transform="translate(-227.209 -362.73)" fill="#dadde0"/>
    <path id="Path_203489" data-name="Path 203489" d="M227.636,363.437h0Z" transform="translate(-227.193 -363.396)" fill="#dadde0"/>
    <path id="Path_203490" data-name="Path 203490" d="M225.6,363.518a.7.7,0,0,0,.117-.063A.752.752,0,0,1,225.6,363.518Z" transform="translate(-225.277 -363.413)" fill="#dadde0"/>
    <path id="Path_203491" data-name="Path 203491" d="M219.981,364.926a.674.674,0,0,0,.263-.024.633.633,0,0,1-.192.029.55.55,0,0,1-.059,0A.024.024,0,0,1,219.981,364.926Z" transform="translate(-219.981 -364.777)" fill="#dadde0"/>
  </g>
  <g id="Group_56710" data-name="Group 56710" transform="translate(13.077 21.789)">
    <path id="Path_203492" data-name="Path 203492" d="M220.247,365.353a.55.55,0,0,1-.059,0A.55.55,0,0,0,220.247,365.353Z" transform="translate(-220.128 -365.342)" fill="#fff"/>
    <path id="Path_203493" data-name="Path 203493" d="M219.2,365.218a.026.026,0,0,0,.012,0,.383.383,0,0,1-.06-.008A.374.374,0,0,0,219.2,365.218Z" transform="translate(-219.154 -365.212)" fill="#fff"/>
  </g>
  <g id="Group_56711" data-name="Group 56711" transform="translate(12.979 21.764)">
    <path id="Path_203494" data-name="Path 203494" d="M218.877,365.154a.391.391,0,0,1-.048-.006l-.02,0C218.831,365.148,218.854,365.152,218.877,365.154Z" transform="translate(-218.734 -365.123)" fill="#dadde0"/>
    <path id="Path_203495" data-name="Path 203495" d="M217.516,364.782l.066.019-.027-.006-.011,0A.15.15,0,0,1,217.516,364.782Z" transform="translate(-217.516 -364.782)" fill="#dadde0"/>
  </g>
  <g id="Group_56712" data-name="Group 56712" transform="translate(12.961 21.759)">
    <path id="Path_203496" data-name="Path 203496" d="M218.188,365.006l.027.006A.127.127,0,0,1,218.188,365.006Z" transform="translate(-218.132 -364.988)" fill="#fff"/>
    <path id="Path_203497" data-name="Path 203497" d="M217.24,364.7a.149.149,0,0,0,.028.009.26.26,0,0,1-.045-.014Z" transform="translate(-217.223 -364.696)" fill="#fff"/>
  </g>
  <path id="Path_203498" data-name="Path 203498" d="M217.175,364.653l-.017,0s0,0,0,0v0A.094.094,0,0,0,217.175,364.653Z" transform="translate(-204.198 -342.89)" fill="#dadde0"/>
  <path id="Path_203499" data-name="Path 203499" d="M216.343,331.511l.047,1.913a.376.376,0,0,1-.047-.018Z" transform="translate(-203.435 -311.689)" fill="#d1d1d1"/>
  <path id="Path_203500" data-name="Path 203500" d="M215.4,290.627v2.321l-.058-2.363Z" transform="translate(-202.495 -273.2)" fill="#dadde0"/>
  <path id="Path_203501" data-name="Path 203501" d="M204.969,176.677l-7.188,6.356a.383.383,0,0,0-.127.247l-.258,3.874a.074.074,0,0,1-.145.014l-1.157-5.083a.386.386,0,0,1,.165-.443l8.488-5.264A.187.187,0,0,1,204.969,176.677Z" transform="translate(-184.216 -165.632)" fill="#adbcc9"/>
</svg>
