<svg xmlns="http://www.w3.org/2000/svg" xmlns:xlink="http://www.w3.org/1999/xlink" width="556.691" height="574.326" xmlns:v="https://vecta.io/nano"><style><![CDATA[.B{fill:#fff}.C{font-family:Arial-BoldMT, Arial}.D{font-weight:700}.E{fill:#ffcfca}.F{fill:#f9bfbb}.G{fill:none}.H{font-size:8px}.I{flood-color:#3493e6}.J{flood-opacity:.161}.K{fill:#f7f8f7}.L{fill:#f3f3f3}.M{fill:#3b607d}.N{fill:#eef1f3}.O{fill:#9b3050}.P{fill:#b3495d}.Q{fill:#dcf5f8}.R{fill:#0080f9}.S{fill:#fc4755}.T{fill:#db4955}.U{fill:#f3f0f3}.V{fill:#fee45a}.W{fill:#fedf30}.X{fill:#ffceed}.Y{fill:#e6e6e6}.Z{fill:#211a17}.a{flood-color:#465def}.b{flood-opacity:.141}.c{font-family:Arial-ItalicMT, Arial}.d{font-style:italic}.e{font-family:SegoeUIEmoji, Segoe UI Emoji}]]></style><defs><filter id="A" x="129.186" y="144.137" width="26.411" height="19.617" filterUnits="userSpaceOnUse"><feOffset dy="3"/><feGaussianBlur stdDeviation="3" result="A"/><feFlood class="I J"/><feComposite operator="in" in2="A"/><feComposite in="SourceGraphic"/></filter><filter id="B" x="123.973" y="148.863" width="19.526" height="22.27" filterUnits="userSpaceOnUse"><feOffset dy="3"/><feGaussianBlur stdDeviation="3" result="A"/><feFlood class="I J"/><feComposite operator="in" in2="A"/><feComposite in="SourceGraphic"/></filter><filter id="C" x="141.456" y="148.863" width="19.526" height="22.27" filterUnits="userSpaceOnUse"><feOffset dy="3"/><feGaussianBlur stdDeviation="3" result="A"/><feFlood class="I J"/><feComposite operator="in" in2="A"/><feComposite in="SourceGraphic"/></filter><filter id="D" x="125.125" y="145.754" width="34.648" height="28.975" filterUnits="userSpaceOnUse"><feOffset dy="3"/><feGaussianBlur stdDeviation="3" result="A"/><feFlood class="I J"/><feComposite operator="in" in2="A"/><feComposite in="SourceGraphic"/></filter><filter id="E" x="135.725" y="156.559" width="20.822" height="20.074" filterUnits="userSpaceOnUse"><feOffset dy="3"/><feGaussianBlur stdDeviation="3" result="A"/><feFlood class="I J"/><feComposite operator="in" in2="A"/><feComposite in="SourceGraphic"/></filter><filter id="F" x="453" y="0" width="103.23" height="103.23" filterUnits="userSpaceOnUse"><feOffset dx="2" dy="3"/><feGaussianBlur stdDeviation="3" result="A"/><feFlood class="a b"/><feComposite operator="in" in2="A"/><feComposite in="SourceGraphic"/></filter><linearGradient id="G" x1=".084" y1=".138" x2=".732" y2=".8"><stop offset="0" stop-color="#1a6610"/><stop offset=".26" stop-color="#1a6610" stop-opacity=".78"/><stop offset=".79" stop-color="#1a6610" stop-opacity=".2"/><stop offset=".97" stop-color="#1a6610" stop-opacity="0"/></linearGradient><filter id="H" x="0" y="308.059" width="340.533" height="266.268" filterUnits="userSpaceOnUse"><feOffset dx="-27" dy="17"/><feGaussianBlur stdDeviation="32" result="A"/><feFlood flood-color="#395486" flood-opacity=".078"/><feComposite operator="in" in2="A"/><feComposite in="SourceGraphic"/></filter><filter id="I" x="93.307" y="115" width="209.385" height="97.27" filterUnits="userSpaceOnUse"><feOffset dy="3"/><feGaussianBlur stdDeviation="5" result="A"/><feFlood class="a b"/><feComposite operator="in" in2="A"/><feComposite in="SourceGraphic"/></filter><clipPath id="J"><path d="M1281.965,43.806a27.328,27.328,0,1,0,27.328-27.328,27.328,27.328,0,0,0-27.328,27.328" transform="translate(-1281.965 -16.478)" class="G"/></clipPath><clipPath id="K"><path d="M0 0h2.254v5.821H0z" class="G"/></clipPath><clipPath id="L"><path d="M699.6,797.3a27.41,27.41,0,1,0,27.41-27.41A27.41,27.41,0,0,0,699.6,797.3" transform="translate(-699.603 -769.891)" class="G"/></clipPath><clipPath id="M"><path d="M1281.965,796.128a26.134,26.134,0,1,0,26.134-26.134,26.134,26.134,0,0,0-26.134,26.134" transform="translate(-1281.965 -769.994)" class="G"/></clipPath><path id="N" d="M-15697.158 21351.682c.185-2.127-3.191-1.988-3.191-1.988a6.54 6.54 0 0 0-5.665 5.5l.694-.832c-1.087 2.382.555 6.474.694 6.8.856 2.844 2.751 5.457 4.948 5.457s4.093-2.613 4.948-5.457h0v-.023l.254-1.04h-.023l.971-3.723c1.314-6.636-3.63-4.694-3.63-4.694zm2.335 8.093a6.58 6.58 0 0 1-1.873 3.792c-.196.191-.405.368-.624.532l-.37-1.156h-3.977l-.37 1.179c-.765-.601-1.402-1.349-1.873-2.2-.212-.431-.36-.89-.439-1.364-.647-8.3 5.711-6.543 5.711-6.543 4.277-.321 4.139 3.448 3.815 5.76z"/><path id="O" d="M31.622 20.835c-.087.009-.153.084-.15.171s.072.158.16.162c.087-.009.153-.084.15-.171s-.072-.158-.16-.162"/><path id="P" d="M25.896 20.197c.09-.007.17.057.184.146s-.044.174-.132.195c-.09.007-.17-.057-.184-.146s.044-.174.132-.195"/></defs><g transform="translate(15934 -21280.59)"><g transform="translate(-15801.027 21428.887)"><g class="B"><path d="M9.39.778h.058v1.069H9.39z"/><circle cx="9.447" cy=".403" r=".403"/></g><g transform="translate(-132.97 -148.3)" filter="url(#A)" class="B"><path d="M378.8,166.306s.461-1.613,4.263-1.613c0,0,3.572-.144,4.148,1.613Z" transform="translate(-240.61 -14.55)"/></g><g transform="translate(-132.97 -148.3)" filter="url(#B)" class="B"><rect width="1.527" height="4.269" rx=".763" transform="translate(132.97 154.86)"/></g><g transform="translate(-132.97 -148.3)" filter="url(#C)" class="B"><rect width="1.527" height="4.269" rx=".763" transform="translate(150.46 154.86)"/></g><g transform="translate(-132.97 -148.3)" filter="url(#D)" class="B"><rect width="16.648" height="10.974" rx="4" transform="translate(134.12 151.75)"/></g><rect width="12.933" height="7.938" rx="2" fill="#522874" x="2.996" y="4.8"/><path d="M6.164 10.051s3.283 2.99 6.6 0a6.6 6.6 0 0 1-6.6 0z" class="B"/><path d="M9.563 11.406c-.458.005-.914-.057-1.354-.183-.758-.239-1.462-.623-2.074-1.13l-.23-.214.288.153a6.66 6.66 0 0 0 6.567 0v.061c-.861.827-2.004 1.296-3.197 1.313zm-3.058-1.127c.527.383 1.11.682 1.728.886 1.484.447 3.093.101 4.263-.916a6.72 6.72 0 0 1-5.991.03z" fill="#431d68"/><g transform="translate(-132.97 -148.3)" filter="url(#E)" class="B"><path d="M401.5,208.5l2.823,2.074-.288-2.074" transform="translate(-256.78 -45.94)"/></g><g fill="#431d68"><path d="M2.995 8.487V6.212c.098-.779.742-1.375 1.527-1.411h9.966c.765.135 1.35.756 1.44 1.527v2.16s-.144-2.074-1.7-2.592l-9.534.058c-.955.506-1.593 1.457-1.699 2.533z"/><rect width="1.746" height="1.702" rx=".851" transform="matrix(.681998 .731354 -.731354 .681998 6.933 6.553)"/><rect width="1.746" height="1.702" rx=".851" transform="matrix(.681998 .731354 -.731354 .681998 12.455 6.654)"/></g><g class="B"><rect width="1.746" height="1.702" rx=".851" transform="matrix(.681998 .731354 -.731354 .681998 6.766 6.563)"/><rect width="1.746" height="1.702" rx=".851" transform="matrix(.681998 .731354 -.731354 .681998 12.288 6.662)"/></g></g><g transform="translate(-15473.539 21286.701)"><g transform="translate(-460.46 -6.11)" filter="url(#F)" class="B"><rect width="85.23" height="85.23" rx="42.615" transform="translate(460 6)"/></g><ellipse cx="42.29" cy="42.544" rx="25.753" ry="25.656" fill="#2aa81a"/><path d="M67.016 49.272a25.85 25.85 0 0 1-24.537 19.122L29.343 55.251l2.667-6.585c-4.694-25.074 19.159-15.251 19.159-15.251z" fill="url(#G)"/><path d="M51.169 33.518c-4.445-4.493-11.502-5.077-16.625-1.375s-6.785 10.584-3.916 16.215l-1.361 6.605c-.029.133-.001.273.078.384.116.169.325.249.524.2l6.459-1.529c5.615 2.798 12.431 1.122 16.108-3.961s3.137-12.081-1.278-16.539zm-2.02 16.112c-3.05 3.046-7.702 3.81-11.565 1.898l-.9-.449-3.969.939v-.051l.837-4-.442-.871a10.04 10.04 0 0 1 16.039-11.659l.044.061c3.869 3.929 3.846 10.242-.051 14.142zm-.352-2.908a4.19 4.19 0 0 1-2.221 1.935c-1.7.408-4.289 0-7.53-3l-.041-.037c-2.82-2.633-3.568-4.826-3.4-6.564a4.16 4.16 0 0 1 1.615-2.46c.224-.189.524-.261.809-.194s.521.265.637.534l1.044 2.36a.92.92 0 0 1-.112.939l-.531.68a.9.9 0 0 0-.071 1c.504.743 1.107 1.413 1.792 1.993a10.6 10.6 0 0 0 2.483 1.779.9.9 0 0 0 .983-.207l.609-.619a.92.92 0 0 1 .929-.258l2.483.711a.93.93 0 0 1 .524 1.408z" class="B"/></g><path d="M-15732.926 21329.316h274.313c12.703 0 23 10.297 23 23v485.277h0-320.313 0v-485.277c0-12.703 10.297-23 23-23z" class="B"/><rect width="209" height="253" rx="7" x="-15719.693" y="21392.59" class="L"/><rect width="188" height="114" rx="7" fill="#779cb9" x="-15708.693" y="21402.59"/><text font-size="23" letter-spacing="-0.01em" class="C D M"><tspan x="-15597.693" y="21453.589">%</tspan></text><text font-size="23" letter-spacing="-0.01em" class="C D K"><tspan x="-15598.693" y="21453.589">%</tspan></text><text font-size="10" letter-spacing="-0.01em" class="C D M"><tspan x="-15597.693" y="21466.589">OFF</tspan></text><text font-size="10" letter-spacing="-0.01em" class="C D K"><tspan x="-15598.693" y="21466.589">OFF</tspan></text><text font-size="46" letter-spacing="-0.01em" class="C D M"><tspan x="-15648.693" y="21467.589">60</tspan></text><text font-size="46" letter-spacing="-0.01em" class="C D K"><tspan x="-15650.693" y="21467.589">60</tspan></text><text font-size="6" letter-spacing="0.3em" class="K c d"><tspan x="-15643.193" y="21423.59">Hello Fashion</tspan></text><path d="M-15577.693 21422.09h14m-101 0h14" stroke="#f9f9f9" class="G"/><text font-size="11" letter-spacing="0.01em" class="C D K"><tspan x="-15643.693" y="21479.59">ALL ITEMS</tspan></text><path d="M-15649.693 21485.59h72v11h-72z" class="M"/><path d="M-15651 21484.59h72v11h-72z" class="B"/><text fill="#a5a5a5" font-size="3" letter-spacing="0.2em" class="c d"><tspan x="-15638" y="21491.591">Fashion Brightens You Up</tspan></text><g transform="matrix(.939693 -.34202 .34202 .939693 -15570.692446 21478.54774)"><path d="M.24 16.723c0 .657 5.608 2.982 5.608 2.982v3.542l.67 3.237-.67 4.689v4.809c0 .425.148 1.461.769 1.461H27.74l.1-3.084.667-1.889V19.705s5.608-1.965 5.608-2.982l-1.733-5.091-4.774-6.167-4.068-1.72H10.809L5.664 5.922l-4.3 7.493z" fill="#dd646e"/><path d="M22.406 28.142h0a3.89 3.89 0 1 0-.976-3.006c-1.094-.55-2.427-.112-2.981.98s-.121 2.427.969 2.985 2.426.13 2.988-.959h0zm-10.4-10.03h0c-.074.705.423 1.342 1.125 1.44s1.356-.378 1.478-1.076-.331-1.368-1.025-1.513c.647.291 1.407.016 1.719-.62s.064-1.406-.562-1.739-1.403-.111-1.757.503c.23-.871-.176-1.786-.976-2.2-.8.414-1.206 1.329-.976 2.2-.354-.614-1.132-.836-1.757-.503s-.874 1.103-.562 1.739 1.073.911 1.719.62c-.694.146-1.147.815-1.025 1.513s.776 1.174 1.478 1.076 1.2-.735 1.125-1.44h0z" class="N"/><path d="M20.935 36.752H6.615a.77.77 0 0 1-.769-.769v1.384a.77.77 0 0 0 .769.769h2.7l2.393-.67 2.393.67h2.494l.577-.67.577.67h4.424l.361-.714z" class="T"/><path d="M27.737 37.444c.424 0 .768-1.035.769-1.459v-3.514a4.6 4.6 0 0 0-1.612-1.585s-2.743 1.478-1.857 4.179c-2.3-1.676-4.549.478-4.549.478.092.422.242.829.446 1.209z" class="N"/><path d="M27.737 36.752h-6.8c.285.562.714 1.04 1.242 1.384h5.56a.77.77 0 0 0 .769-.769v-1.382a.77.77 0 0 1-.771.767z" fill="#dee7ed"/><path d="M9.771 27.784c1.864 1.343.774 3.614.774 3.614s-2.495.34-3.2-1.847h0a2.5 2.5 0 0 1-1.5 1.622v-7.926a3.54 3.54 0 0 1 1.5-1.7s2.217 1.194 1.5 3.378c1.856-1.355 3.676.386 3.676.386s-.452 2.482-2.75 2.473zM6.447 9.834c1.838 1.325.764 3.564.764 3.564s-2.46.335-3.157-1.821h0a2.72 2.72 0 0 1-2.689 1.84l2.145-6.3c.07-.208.226-.376.428-.461l1.726-.73a2.6 2.6 0 0 1-.127 1.1c1.83-1.335 3.624.381 3.624.381s-.445 2.435-2.714 2.427zm23.968-3.182l-1.819-.77h0l-.984-.416h0a2.96 2.96 0 0 0-2.244.773A2.62 2.62 0 0 0 27.8 8.423c-.95.774-1.235 2.104-.686 3.2 1.209.185 2.386-.493 2.832-1.632h0a2.45 2.45 0 0 0 2.44 1.648h0l-1.537-4.517a.77.77 0 0 0-.434-.47z" class="N"/><path d="M21.454 0h-8.555l-.479 2.137 1.417.736L17.181 4.4l3.338-1.525 1.409-.6z" class="O"/><path d="M25.434 19.41l-2.239 1.394c-.127.079-.288.079-.415 0l-2.239-1.394c-.115-.072-.185-.197-.185-.333V15.43c0-.216.176-.392.392-.392h4.477c.216 0 .392.176.392.392v3.647c0 .135-.069.261-.183.333z" class="P"/><path d="M13.836 2.873h6.68l-.9 4.81-2.438 5.42-2.421-5.362z" fill="#365e7d"/><path d="M21.454 0l-4.277 13.105h0L12.895 0l-2.09 3.745.158 2.915c.005.099.05.192.124.258s.171.1.27.094l1.4-.084c.124-.008.243.047.318.146s.096.228.057.345l-.472 1.394c-.049.142-.007.3.106.4l3.834 3.386h0v24.153l.576.67.577-.67V12.6l3.833-3.385c.113-.1.155-.258.106-.4l-.472-1.394c-.04-.117-.019-.247.057-.345s.195-.153.318-.146l1.4.084c.099.006.196-.028.27-.094s.119-.159.124-.258l.158-2.915zm-4.277 13.105h0z" class="P"/><path d="M16.6 36.752h1.153v1.383H16.6z" class="O"/><path d="M4.686 19.395l.577-.559-.577-.825-4.116-1.1c-.125-.033-.239-.098-.332-.187l-.2.58a.77.77 0 0 0 .529.99z" class="T"/><path d="M5.839 14.793c.009-.212-.099-.411-.281-.52s-.409-.108-.591 0-.29.308-.281.52v3.218l.577.825.577-.516z" class="P"/><path d="M5.839 18.32l-1.153-.309v1.384l1.16.31z" class="O"/><path d="M34.312 17.303l-.2-.58c-.093.089-.207.154-.332.187l-4.116 1.1-.577.768.577.616h0l4.116-1.1a.77.77 0 0 0 .532-.991z" class="T"/><path d="M15.434 36.752c.042-.116.076-.235.1-.356-.727-.718-1.855-.836-2.716-.285.259-.989-.202-2.025-1.109-2.495-.908.47-1.368 1.506-1.11 2.495-.861-.551-1.989-.433-2.716.285a2.44 2.44 0 0 0 .1.356l3.721.67z" class="N"/><path d="M7.991 36.752a2.15 2.15 0 0 0 1.328 1.384h4.79a2.15 2.15 0 0 0 1.328-1.384z" fill="#dee7ed"/><path d="M29.666 14.793c.009-.212-.099-.411-.281-.52s-.409-.108-.591 0-.29.308-.281.52v3.526l.577.46.577-.768z" class="P"/><path d="M28.513 18.32l1.153-.309v1.384l-1.16.31z" class="O"/></g><g transform="matrix(.838671 -.544639 .544639 .838671 -15726.261 21439.858)"><path d="M50.431 32.431c-1.25 1.764-3.3.268-6.38.268-3.8 0-2.765 1.892-7.071 1.892s-2.9-1.6-7.92-.946a6.35 6.35 0 0 1-3.839-.492c-1.329-.708-1.907-2.306-1.338-3.7 1.677-4.16 3.669-9.6 5.147-13.718h0q.2-.546.379-1.058h-.012a7.17 7.17 0 0 1-.973-.178 5.5 5.5 0 0 1-3.939-3.568.85.85 0 0 1 .152-.819c.225-.269.465-.525.718-.768 2.131-1.873 4.44-3.534 6.894-4.957.108-.064.228-.104.353-.116h.082 9.128l.032.018.931.561a39.76 39.76 0 0 1 6.148 4.504 9.92 9.92 0 0 1 .7.756.85.85 0 0 1 .15.819 5.51 5.51 0 0 1-4.136 3.614c-.325.072-.654.123-.985.151l.054.154q.181.529.374 1.068c1.912 5.346 4.526 11.262 5.6 13.638a2.91 2.91 0 0 1-.249 2.877z" fill="#ffa81e"/><path d="M43.852 7.414a3.61 3.61 0 0 1-2.507 3.438c-1.495.479-3.127-.065-4.037-1.344-.858 1.205-2.365 1.763-3.802 1.409s-2.51-1.55-2.71-3.016.516-2.905 1.805-3.63a.81.81 0 0 1 .082 0h9.128l.032.018.931.561a3.59 3.59 0 0 1 1.077 2.564zm-14.443 7.263a5.59 5.59 0 0 1-4.924-3.747.85.85 0 0 1 .152-.819 9.65 9.65 0 0 1 .718-.768 5.87 5.87 0 0 0 1.858 3.07c.656.534 1.525.73 2.347.53a.3.3 0 0 1 .36.4zm14.527-1.709a.3.3 0 0 1 .412-.383 2.5 2.5 0 0 0 2.739-.172 4.91 4.91 0 0 0 1.836-3.057 9.87 9.87 0 0 1 .7.756.85.85 0 0 1 .15.819c-.764 2.194-2.8 3.69-5.122 3.765z" fill="#ff7300"/><g fill="#ffe4cf"><circle cx="34.372" cy="7.414" r="2.597"/><circle cx="40.245" cy="7.414" r="2.597"/></g><path d="M41.852 4.489c0 1.937-2.034 3.507-4.544 3.507s-4.544-1.57-4.544-3.507l.009-.223h9.038l.032.018.009.205z" fill="#c95100"/><path d="M38.151 6.133h-1.686a.49.49 0 0 1-.443-.741.49.49 0 0 1 .443-.238h1.686a.49.49 0 0 1 .443.741.49.49 0 0 1-.443.238z" fill="#ffe4cf"/><path d="M31.463 31.485a.49.49 0 0 1-.478-.6c1.957-8.579 2.889-16.173 2.9-16.249a.49.49 0 0 1 .972.118 181.49 181.49 0 0 1-2.915 16.349.49.49 0 0 1-.479.382zm11.238-.271a.49.49 0 0 1-.468-.347 86.54 86.54 0 0 1-2.474-10.372.49.49 0 1 1 .97-.137A85.46 85.46 0 0 0 43.17 30.58a.49.49 0 0 1-.469.633zm.643-19.642a.49.49 0 0 1 .275-.606.49.49 0 0 1 .625.23l1.38 3.312.014.037a7.41 7.41 0 0 1-.985.151zm-12.728-.095l-1.219 3.2a7.17 7.17 0 0 1-.973-.178.47.47 0 0 1 .022-.077l1.255-3.291a.49.49 0 0 1 .632-.283.49.49 0 0 1 .283.632z" fill="#ff7300"/></g><g transform="matrix(-.799 -.602 .602 -.799 -15679.125 21515.797)"><path d="M29.666 21.934a6.1 6.1 0 0 0-.1-1.1l-.438-2.374" class="U"/><path d="M29.11 18.363l.018.1a6.11 6.11 0 0 1 .1 1.106" class="V"/><path d="M29.11 18.363l.018.1a6.11 6.11 0 0 1 .1 1.106" class="W"/><path d="M2.451 8.08a6.04 6.04 0 0 1 1.491-3l10.109 1.865c.42 1.057.533 2.212.325 3.331l-.042.228-4.077 2.8-7.506-1.07-.346-3.928zm13.166-1.135l10.109-1.862a6.04 6.04 0 0 1 1.491 3l.042.227-1.005 3.289-7.339 1.555-3.582-2.65-.042-.228c-.208-1.119-.095-2.274.326-3.331z" class="X"/><circle cx="20.873" cy="6.955" r="5.281" class="Q"/><path d="M23.444 7.991a5.28 5.28 0 0 0-5.281-5.281l-.46.02a5.28 5.28 0 0 1 8.287 5.534 5.28 5.28 0 0 1-4.657 3.95 5.27 5.27 0 0 0 2.111-4.223z" fill="#d4f2f6"/><circle cx="20.901" cy="7.166" r="3.497" fill="#a6e7f0"/><path d="M21.219 3.684a3.5 3.5 0 0 1 1.873 6.206c.867-2.254.096-4.808-1.873-6.206z" fill="#6bd9e7"/><path d="M.101 20.829c-.608 3.293 1.57 6.455 4.863 7.062s6.455-1.57 7.063-4.862l.437-2.37-11.925-2.2z" class="U"/><circle cx="8.794" cy="7.254" r="5.264" class="Q"/><path d="M11.534 7.254c0-2.421-1.65-4.53-4-5.112 2.123-.523 4.349.322 5.59 2.122s1.242 4.18 0 5.98-3.467 2.644-5.59 2.122c2.35-.582 4-2.691 4-5.112z" fill="#d4f2f6"/><circle cx="8.734" cy="7.224" r="3.706" fill="#a6e7f0"/><path d="M10.878 7.224c0-1.746-1.219-3.255-2.925-3.623 1.479-.318 3.003.294 3.851 1.548s.847 2.896 0 4.15-2.371 1.866-3.851 1.548c1.706-.368 2.925-1.877 2.925-3.623z" fill="#6bd9e7"/><path d="M9.534 19.47l.017-.1-.163-1.2 2.846.575.246 1.815-.017.1c-.381 2.069-1.808 3.793-3.769 4.555s-4.178.451-5.855-.82c3.183.387 6.117-1.771 6.695-4.925z" class="W"/><path d="M.538 18.46l.018-.1 1.619-1.652 10.059 2.038.246 1.815-.017.1c-.608 3.293-3.77 5.47-7.062 4.863s-5.47-3.77-4.863-7.062z" class="V"/><g fill="#fe93d3"><path d="M8.247 19.781l-3.459-.637 2.146-10 2.872.529z"/><path d="M7.252 15.873l.579-3.141a4.76 4.76 0 0 1 1.827-2.951l.147-.111 2 .369h0l-1.5 10.122-2.063-.38-.232-.337a4.74 4.74 0 0 1-.758-3.571zm-2.32-7.101l2 .369.1.156c.64 1.013.875 2.23.656 3.408l-.581 3.138a4.74 4.74 0 0 1-1.986 3.064l-.336.232-2.159-.4z"/></g><path d="M8.721 16.144c-.157.854.032 1.735.524 2.45l.929 1.348.133.218 2.169.4 1.852-10.056-2.524-.465-1.251.939a3.28 3.28 0 0 0-1.254 2.025zM2.407 8.307L.555 18.363l2.074.382.3-.139 1.349-.929c.714-.492 1.204-1.247 1.362-2.1l.578-3.141a3.27 3.27 0 0 0-.45-2.338l-.835-1.324z" class="X"/><path d="M10.493 13.504a.45.45 0 0 0 .449-.408.45.45 0 0 0-.368-.483l-5.478-1.009a.45.45 0 0 0-.524.361.45.45 0 0 0 .361.523l5.478 1.009a.45.45 0 0 0 .082.007zm-.383 2.081a.45.45 0 0 0 .449-.408.45.45 0 0 0-.368-.483l-5.479-1.009a.45.45 0 0 0-.524.36.45.45 0 0 0 .361.523l5.479 1.009c.027.005.055.007.082.007zm-.384 2.081a.45.45 0 0 0 .449-.408.45.45 0 0 0-.368-.483l-5.479-1.009a.45.45 0 0 0-.524.361.45.45 0 0 0 .361.524l5.479 1.009a.46.46 0 0 0 .082.007z" class="Q"/><path d="M29.128 18.46l-11.925 2.196.437 2.37c.567 3.083 3.39 5.225 6.511 4.942s5.512-2.899 5.515-6.034" class="U"/><path d="M29.228 19.566c-.003 3.134-2.395 5.749-5.516 6.032s-5.943-1.859-6.51-4.942l-.017-.1 1.134-2.446 8.5-1.576 2.289 1.826" class="V"/><path d="M29.229 19.566c-.004 1.858-.859 3.612-2.32 4.76s-3.368 1.562-5.174 1.125c3.132-.752 5.126-3.824 4.54-6.991l-.018-.1-1.751-1.4 2.314-.429 2.289 1.826" class="W"/><g fill="#fe93d3"><path d="M21.417 19.781L19.859 9.67l2.872-.529 2.146 10z"/><path d="M17.857 10.039h0l2-.369.148.111a4.76 4.76 0 0 1 1.827 2.951l.579 3.142a4.74 4.74 0 0 1-.763 3.571l-.232.337-2.078.383zm4.775-.742l.1-.156 2-.369 2.286 9.976-2.144.395-.337-.232a4.74 4.74 0 0 1-1.985-3.065l-.578-3.141c-.218-1.178.017-2.396.658-3.408z"/></g><path d="M29.11 18.363L27.258 8.307l-2.524.465-.834 1.324a3.27 3.27 0 0 0-.45 2.338l.578 3.141c.158.853.648 1.608 1.362 2.1l1.348.929.282.142zm-13.777-7.859l1.852 10.057 2.154-.4.148-.221.929-1.348c.492-.715.681-1.596.524-2.45l-.579-3.141a3.28 3.28 0 0 0-1.254-2.025l-1.251-.939z" class="X"/><path d="M19.173 13.505c.027 0 .055-.002.082-.007l5.475-1.01a.45.45 0 0 0 .361-.523.45.45 0 0 0-.523-.36l-5.475 1.014a.45.45 0 0 0-.368.483.45.45 0 0 0 .449.408zm.383 2.08c.027 0 .055-.002.082-.007l5.473-1.012a.45.45 0 0 0 .361-.524.45.45 0 0 0-.523-.36l-5.479 1.009a.45.45 0 0 0-.368.483.45.45 0 0 0 .449.408zm.384 2.081c.027 0 .055-.002.082-.007l5.479-1.009a.45.45 0 0 0 .361-.524.45.45 0 0 0-.523-.361l-5.479 1.009a.45.45 0 0 0-.368.483.45.45 0 0 0 .449.408z" class="Q"/></g><g transform="matrix(.951 .309 -.309 .951 -15533.964 21354.938)"><path d="M3.25 85.1a13.95 13.95 0 0 1 7.864-8.72S13.59 72.808 21.313 75c0 0 2.288 1.525 2.669 2.382a4.29 4.29 0 0 1 3.384 4.48 5.89 5.89 0 0 1 .477 3.479l.524 5.29-2.527 1.955-.143-.953s-2.431-3.67-2.574-4.813c0 0-.667-.524-.667.763l.667 2-18.54-1.436z" fill="#e14b4b"/><g fill="#d03f3e"><path d="M24.112 82.29a34.83 34.83 0 0 0-2.38-7 13.87 13.87 0 0 1 1.807 1.5 32.28 32.28 0 0 1 .573 5.5zm-7.018-5.274a.78.78 0 0 1 .555.211l-.555-.211z"/><path d="M23.117 86.813c-.069-.046-.652-.44-.657.755-.258-.343-.475-.732-.721-1.081-.746-.947-1.642-1.764-2.654-2.419-1.786-1.461-3.81-2.606-5.982-3.385a7.75 7.75 0 0 1 3.157.726c2 .778 4.066 1.676 5.388 3.363a6.31 6.31 0 0 0-1.2-3.129l-2.317-3.809a2.38 2.38 0 0 0-.481-.606 6.5 6.5 0 0 1 2.333 1.367 7.72 7.72 0 0 1 1.664 3.18l1.47 5.038z"/></g><path d="M.021 91.49c0-.744-.007.11-.014-.2-.027.837-.01-3.775.7-4.261.51-.513.976-2.067 1.384-1.471.348-.291.592.138.788-.375.2-.1.345-.565.5-.072.158-.114.327.333.564.2.237.353.54.137.969.43 0 .335.159-.4.4-.046.241.307.564.064.892-.134.328-.344.662-.538.924-.213.2.231.471.289.773-.049.3-.28.63-.181.933.134.3.423.583.455.787.181.2.3.33-.1.33.091 0 .014.077.288.216-.009.139-.076.338.155.582-.014.244.352.533-.063.849 0 .317-.321.66-.579 1.016.034a.84.84 0 0 1 1.082.086 1.3 1.3 0 0 1 1.05.157c.333-.076.645.471.917.246.273-.266.507-.5.685.355 0-.178.084.245.235.056.151.095.367-.092.631.157a2.57 2.57 0 0 1 .919.242c.342-.367.713.243 1.1.313.383.2.778.668 1.165.366.388-.377.768.184 1.125.4.356.682.687.154.975.426.288.142.533.047.715.432a5.21 5.21 0 0 0 .182.532c.05.077.105.664.158.622.282 1.389.276 2.821-.018 4.208 0 0-.042-.18-.129.151-.087.06-.218-.133-.394.32-.176.246-.4.1-.665.287-.267.451-.582.253-.943.053a2.79 2.79 0 0 0-1.228-.381c0-.457-.027-.141-.079-.027-.052.239-.13-.229-.233-.075-.1-.583-.229.065-.377-.116-.15-.159-.321.007-.515-.147-.194.478-.409-.192-.645-.17-.236-.344-.492-.616-.767-.185-.275.047-.57-.543-.881-.191-.312-.314-.642.317-.989-.189-.347.14-.71-.279-1.087-.179-.378-.145-.771.08-1.179-.159a2.08 2.08 0 0 1-1.262-.132c-.433-.051-.88-.352-1.338-.1a3.49 3.49 0 0 0-1.406-.051 3.15 3.15 0 0 0-1.466 0 6.19 6.19 0 0 0-2.3.013 11.45 11.45 0 0 1-1.737-.066c-.406-.117-.83-.157-1.25-.118-.345.41-.622-.178-.844-.147-.222-.064-.39-.435-.516-.153-.126-.013-.212-.363-.27-.138-.058-.068-.088.053-.1-.1-.015.2-.016.472-.016-.039 0 .606-.17.139-.366-.165-.201.042-.425.361-.532-.62zm30.477.016a3.29 3.29 0 0 1-1.135 4.253c-.871.551-1.97.594-2.883.115s-1.5-1.409-1.541-2.439.47-2.003 1.342-2.554c1.35-.937 3.196-.663 4.217.625z" fill="#dae5ef"/><g fill="#cbd6e0"><path d="M30.392 94.646c-.247.45-.602.832-1.033 1.11-1.346.84-3.117.435-3.964-.906s-.451-3.115.885-3.969a1.9 1.9 0 0 1 .193-.106 2.88 2.88 0 0 0 3.919 3.871z"/><path d="M26.605 90.834a.19.19 0 0 0-.007-.116l-.014.007z"/></g></g><text transform="translate(-15708.693 21535.59)" fill="#2d332a" class="C D H"><tspan x="0" y="0">Hey {{1}}</tspan><tspan font-weight="400" class="e"><tspan y="18" x="0">🎉👗</tspan><tspan y="18" xml:space="preserve" class="C D"> Exclusive Sneak Peek: Get Ready </tspan></tspan><tspan y="27" x="0">for Our Sale! </tspan><tspan y="27" font-weight="400" class="e">👗🎉</tspan><tspan y="45" x="0">Jaw Dropping offers start in 24 hours. </tspan><tspan y="63" x="0">*Upto 60% off on clothing, shoes, </tspan><tspan y="72" x="0">accessories &amp; home decor. *</tspan></text><text fill="#b9b9b9" font-size="7" class="C D"><tspan x="-15708.693" y="21632.59">Powered By SmatBot</tspan></text><rect width="209" height="32" rx="7" x="-15720" y="21652.59" class="L"/><text class="C D H R"><tspan x="-15631.999" y="21671.59">Buy Now</tspan></text><rect width="209" height="32" rx="7" x="-15720" y="21690.59" class="L"/><text class="C D H R"><tspan x="-15650" y="21709.59">Check Offers Now</tspan></text><rect width="209" height="32" rx="7" x="-15720" y="21728.59" class="L"/><text class="C D H R"><tspan x="-15646" y="21747.59">Check Watchlist</tspan></text><circle cx="-15699.584" cy="21362.367" fill="#c1edff" r="14.777"/><g fill="#84dbff"><path d="M-15699.609 21368.561c-.023 0-.046.023-.069.023s-.046-.023-.069-.023z"/><path d="M-15688.278 21371.52c-2.786 3.438-6.975 5.435-11.4 5.435s-8.614-1.997-11.4-5.435c1.85-2.26 4.408-3.832 7.26-4.462a8.07 8.07 0 0 0 .624 3.515c.809-1.85 3.515-2.012 3.515-2.012s2.705.162 3.491 2.012c.48-1.107.694-2.311.624-3.515a12.91 12.91 0 0 1 7.286 4.462z"/></g><path d="M-15696.372 21365.623v.023c0 .231-.116 1.711-3.237 2.89h-.139c-3.121-1.179-3.237-2.659-3.237-2.89v-.023c.012-.304.059-.606.139-.9.626 1.167 1.843 1.896 3.167 1.896s2.542-.729 3.167-1.896a4.06 4.06 0 0 1 .139.9z" class="B"/><path d="M-15696.373 21365.625s.162 1.665-3.306 2.96c0 0 2.705.162 3.491 2.012.047.045 1.596-3.978-.185-4.972zm-6.612 0c-1.78.994-.231 5.017-.185 4.948.809-1.85 3.491-2.012 3.491-2.012-3.468-1.271-3.306-2.936-3.306-2.936z" fill="#54c0eb"/><g class="B"><path d="M-15694.823 21359.775a6.58 6.58 0 0 1-1.873 3.792c-.191.196-.4.374-.624.532l-.37-1.179h-3.977l-.37 1.179c-.74-.555-2.289-2.1-2.312-3.561-.647-8.3 5.711-6.543 5.711-6.543 4.277-.301 4.143 3.468 3.815 5.78z"/><path d="M-15693.968 21361.278c-.263.471-.679.838-1.179 1.04a9.65 9.65 0 0 0 .416-1.156v-.023l.277-1.04h-.023l.254-1.04a.66.66 0 0 1 .278.092c.509.323.486 1.271-.023 2.127zm-10.243 1.04c-.5-.202-.916-.569-1.179-1.04-.532-.856-.532-1.8-.023-2.1.046-.023.069-.046.116-.046a15.65 15.65 0 0 0 .671 2.058 11.28 11.28 0 0 0 .415 1.128z"/></g><g fill="#324a5e"><use xlink:href="#N"/><use xlink:href="#N"/><path d="M-15697.158 21351.682c.185-2.127-3.191-1.988-3.191-1.988a6.54 6.54 0 0 0-5.665 5.5l.694-.832c-1.087 2.382.555 6.474.694 6.8.856 2.844 2.751 5.457 4.948 5.457s4.093-2.613 4.948-5.457h0v-.023l.254-1.04h-.023l.971-3.723c1.314-6.636-3.63-4.694-3.63-4.694zm2.335 8.093a6.58 6.58 0 0 1-1.873 3.792c-.196.191-.405.368-.624.532l-.37-1.156h-3.977l-.37 1.179c-.74-.555-2.289-2.1-2.312-3.561-.647-8.3 5.711-6.543 5.711-6.543 4.277-.324 4.139 3.445 3.815 5.757z"/></g><path d="M-15701.297 21363.729c.41.465.999.734 1.619.74a2.1 2.1 0 0 0 1.618-.74z" class="B"/><text fill="#040404" font-size="10" class="C D"><tspan x="-15676.093" y="21366.59">WhatsApp Templates</tspan></text><g fill="#25d366"><path d="M-15554.208 21363.619c-.239.278-.315.662-.2 1.01.032.106.049.217.05.328.001.396-.221.759-.575.938a1.04 1.04 0 0 0-.4.352 1.05 1.05 0 0 0-.175.5h0c-.037.518-.449.93-.967.967h0a1.05 1.05 0 0 0-.855.575 1.05 1.05 0 0 1-.941.575c-.111-.001-.22-.017-.326-.05a1.06 1.06 0 0 0-.328-.052 1.04 1.04 0 0 0-.682.252h0a1.05 1.05 0 0 1-1.369 0h0c-.278-.239-.662-.315-1.01-.2-.106.033-.217.049-.328.05-.396.002-.76-.221-.938-.575a1.04 1.04 0 0 0-.352-.4c-.149-.1-.321-.16-.5-.175h0c-.518-.037-.93-.449-.967-.967h0a1.05 1.05 0 0 0-.575-.855 1.05 1.05 0 0 1-.575-.94c0-.111.017-.22.05-.326s.052-.217.052-.328a1.04 1.04 0 0 0-.252-.682h0a1.05 1.05 0 0 1 0-1.369h0c.239-.278.315-.662.2-1.01a1.13 1.13 0 0 1-.05-.328c-.002-.396.221-.76.575-.938a1.05 1.05 0 0 0 .575-.855h0c.037-.518.449-.93.967-.967h0a1.05 1.05 0 0 0 .855-.575 1.05 1.05 0 0 1 .941-.575c.111.001.22.017.326.05a1.06 1.06 0 0 0 .328.052 1.04 1.04 0 0 0 .682-.252h0a1.05 1.05 0 0 1 1.369 0h0c.278.239.662.315 1.01.2.106-.033.217-.049.328-.05.396-.002.76.221.938.575a1.04 1.04 0 0 0 .352.4 1.05 1.05 0 0 0 .5.175h0c.518.037.93.449.967.967h0a1.05 1.05 0 0 0 .575.855 1.05 1.05 0 0 1 .575.94 1.13 1.13 0 0 1-.05.326c-.035.106-.053.217-.053.328a1.04 1.04 0 0 0 .252.682h0a1.05 1.05 0 0 1 0 1.371z"/><circle cx="-15560.297" cy="21362.934" r="4.826"/></g><path d="M-15561.388 21365.119a.22.22 0 0 1-.155-.064l-.875-.875a.22.22 0 0 1 .092-.378.22.22 0 0 1 .217.069l.7.7 2.91-3.742a.22.22 0 0 1 .383.047.22.22 0 0 1-.038.222l-3.062 3.937a.22.22 0 0 1-.159.084z" class="B"/><g class="R"><circle cx="-15479.288" cy="21357.901" r="1.311"/><circle cx="-15479.288" cy="21363.147" r="1.311"/><circle cx="-15479.288" cy="21368.394" r="1.311"/></g><g transform="translate(-15810.266 21667.648)"><g transform="translate(-123.73 -387.06)" filter="url(#H)" class="B"><g transform="translate(123 387.06)" stroke="#dee9ff"><rect width="148.533" height="74.267" rx="10" stroke="none"/><rect x=".5" y=".5" width="147.533" height="73.267" rx="9.5" class="G"/></g></g><text fill="#222" class="C D H"><tspan x="27.265" y="48.441">Recover Abandoned Cart</tspan><tspan x="29.265" y="59.441">and Increase your Sales</tspan></text><circle cx="74.072" cy="23.441" r="13.5" fill="#2aa81a"/><g class="B"><ellipse cx="72.291" cy="29.276" rx="1.32" ry="1.1"/><circle cx="76.03" cy="29.276" r="1.1"/><path d="M66.95 19.694h1.577l1.825 6.39-.143.286c-.176.352-.157.769.05 1.104s.572.538.965.537h6.363c.209 0 .378-.169.378-.378s-.169-.378-.378-.378h-6.364c-.131 0-.253-.068-.321-.179s-.075-.251-.017-.368l.1-.209h6.6c.169 0 .318-.112.364-.274l1.513-5.288c.033-.114.01-.237-.062-.332s-.183-.15-.302-.15h-9.569l-.357-1.243c-.046-.161-.192-.273-.36-.275H66.95c-.209 0-.378.169-.378.378s.169.378.378.378z"/></g></g><rect width="167.385" height="72.105" rx="11" fill="#d7e3fe" x="-15544.693" y="21570.59"/><rect width="138.682" height="43.307" rx="6" x="-15530.342" y="21584.59" class="B"/><text fill="#222" class="C D H"><tspan x="-15484.646" y="21603.742">Product Updates &amp; </tspan><tspan y="21614.742" x="-15484.646">Notifications</tspan></text><path d="M-15501.866 21595.59c-3.289 0-5.955 2.666-5.955 5.955s2.666 5.955 5.955 5.955 5.955-2.666 5.955-5.955-2.668-5.952-5.955-5.955zm.916 8.016c0 .379-.308.687-.687.687s-.687-.308-.687-.687v-2.978h-.458c-.379 0-.687-.308-.687-.687s.308-.687.687-.687h1.145c.182 0 .357.072.486.201s.201.304.201.486zm0 0" fill="#f44336"/><path d="M-15505.073 21613.915c0 1.482-.893 2.818-2.262 3.385s-2.945.254-3.993-.794-1.361-2.624-.794-3.993 1.903-2.262 3.385-2.262c2.024 0 3.664 1.64 3.664 3.664zm0 0" fill="#ffa000"/><path d="M-15501.573 21609.316c-.1 0-.194.015-.293.015a7.77 7.77 0 0 1-6.6-11.9c-.09 0-.178-.014-.269-.014a6.42 6.42 0 0 0-6.415 6.417v2.554c0 1.813-.801 3.533-2.188 4.7a1.6 1.6 0 0 0 1.04 2.824h15.119a1.6 1.6 0 0 0 1.033-2.829c-.581-.495-1.065-1.094-1.427-1.766zm0 0" fill="#ffc107"/><g transform="translate(-15934.001 21280.588)" filter="url(#I)" class="B"><g transform="translate(108.31 127)" stroke="#dee9ff"><rect width="179.385" height="67.269" rx="11" stroke="none"/><rect x=".5" y=".5" width="178.385" height="66.269" rx="10.5" class="G"/></g></g><text fill="#222" class="C D H"><tspan x="-15754.928" y="21439.242">Marketing and </tspan><tspan y="21450.242" x="-15754.928">Promotional Messages</tspan></text><rect width="44" height="44" rx="6" fill="#fec5c9" x="-15812" y="21420"/><circle cx="-15791.452" cy="21443.778" r="14.548" fill="#fd646f"/><path d="M-15776.905 21443.778a14.55 14.55 0 0 1-25.485 9.59 14.55 14.55 0 0 0 20.528-20.528 14.51 14.51 0 0 1 4.957 10.938z" class="S"/><circle cx="-15791.452" cy="21443.778" r="10.978" fill="#f5f5f5"/><path d="M-15780.475 21443.777a10.98 10.98 0 0 1-19.385 7.06 10.98 10.98 0 0 0 15.468-15.47 10.96 10.96 0 0 1 3.917 8.41z" class="Y"/><circle cx="-15791.453" cy="21443.777" r="7.408" fill="#fd646f"/><path d="M-15784.044 21443.778a7.41 7.41 0 0 1-13.277 4.522 7.41 7.41 0 0 0 10.391-10.391 7.4 7.4 0 0 1 2.886 5.869z" class="S"/><circle cx="-15791.452" cy="21443.778" r="3.772" fill="#f5f5f5"/><path d="M-15777.688 21448.498c-.284.831-.644 1.634-1.074 2.4l-3.248-1.515c.449-.754.806-1.56 1.061-2.4z" class="S"/><path d="M-15780.948 21446.978c-.255.84-.612 1.646-1.061 2.4l-3.26-1.52c.488-.736.839-1.553 1.037-2.414z" class="Y"/><path d="M-15784.233 21445.446c-.198.861-.549 1.678-1.037 2.414l-3.369-1.571a3.76 3.76 0 0 0 .958-2.452z" class="S"/><path d="M-15787.682 21443.838a3.76 3.76 0 0 1-.958 2.452l-3.155-1.472a1.31 1.31 0 0 1-.685-1.622l.05-.123c.307-.657 1.088-.941 1.745-.635z" class="Y"/><path d="M-15772.785 21431.073c.05.009.09.044.106.092s.003.1-.033.136l-1.425 1.431-.874.878-2.389 2.4c-.154.154-.372.224-.587.189l-3.563-.587 2.668-2.647.884-.877 1.626-1.614z" fill="#50758d"/><path d="M-15774.136 21432.733l-.874.878-3.87-.645.884-.877z" fill="#2b597f"/><path d="M-15778.074 21428.92l-1.618 1.583-.88.861-2.659 2.6-.594-3.608c-.035-.214.035-.432.188-.585l2.4-2.4.878-.879 1.449-1.453c.036-.035.089-.048.136-.032s.083.057.092.106z" fill="#50758d"/><path d="M-15779.693 21430.504l-.88.861-.666-3.993.878-.879z" fill="#2b597f"/><path d="M-15774.996 21428.701c0 .348-.138.682-.385.928l-14.932 14.933a1.31 1.31 0 0 1-1.758.089l-.1-.089c-.246-.246-.385-.58-.385-.929s.138-.682.385-.928l14.931-14.931a1.31 1.31 0 0 1 1.857 0 1.2 1.2 0 0 1 .089.1 1.31 1.31 0 0 1 .298.827z" fill="#918291"/><path d="M-15775 21428.702c0 .348-.138.682-.385.928l-14.926 14.931a1.31 1.31 0 0 1-1.759.089l16.778-16.778a1.31 1.31 0 0 1 .292.83z" fill="#7a6e79"/><g clip-path="url(#J)" transform="matrix(.97437 -.224951 .224951 .97437 -15798.189 21550.074)"><path d="M54.656 27.328A27.33 27.33 0 0 1 8.004 46.652 27.33 27.33 0 0 1 27.328 0c15.093 0 27.328 12.235 27.328 27.328" fill="#ffa582"/><path d="M47.929 40.221a6.99 6.99 0 0 0-8.432-6.835c-.562-2.816-.076-6.249.062-8.33.32-4.823.164-11.1-4.051-14.554a9.85 9.85 0 0 0-9.23-1.464c-3.445 1.244-5.528 4.42-6.509 7.607-.629 2.042-.849 4.15-1.388 6.177-.808-.377-1.743-.37-2.545.02s-1.387 1.119-1.591 1.986a7.3 7.3 0 0 0-7.806 9.694c-2.452 1.476-3.712 4.335-3.147 7.141s2.833 4.954 5.665 5.366c.753 3.203 3.61 5.467 6.9 5.469.147 0 .292-.006.437-.015 1.116 2.819 3.778 4.725 6.807 4.873s5.864-1.489 7.249-4.186c2.327 1.584 5.331 1.776 7.842.503s4.129-3.812 4.225-6.625a6.99 6.99 0 0 0 5.51-6.828" fill="#602826"/><path d="M63.636 99.425a16.37 16.37 0 0 0 1.069-1.465h0l.078-.12q.4-.628.744-1.29l-.193-.335-.839-1.555-.17.57q-.182.476-.391.941a18.25 18.25 0 0 1-1.033 1.972 1.94 1.94 0 0 0-.378.977c0 .068.011.135.033.2.039.127.111.241.209.33l.023.019c.015.013.031.024.048.034.1.07.224.096.344.072a.5.5 0 0 0 .054-.015h0c.119-.048.225-.126.307-.225l.094-.109" class="E"/><path d="M62.836 99.702c-.017-.01-.033-.021-.048-.034l-.023-.019c-.098-.089-.17-.203-.209-.329l.183-.268 1.166-1.715c.088-.129.269-.557.457-.556.29 0 .245.5.182.662-.044.104-.101.202-.168.293a12.41 12.41 0 0 1-1.539 1.967" class="F"/><path d="M63.709 100.565l.226-.284q.228-.29.444-.592.369-.518.7-1.063.256-.422.485-.859l.31-.624-.537-.928-.54-.985a7.37 7.37 0 0 0-.4 1.14l-.136.346a18.23 18.23 0 0 1-1.288 2.568l-.209.367a1.32 1.32 0 0 0-.168.61c0 .354.31.729.657.655a.71.71 0 0 0 .362-.241l.094-.109" class="E"/><path d="M63.935 100.281a7.81 7.81 0 0 1 .236-.984c.258-.813.687-1.569.893-2.4l-.006.11a.1.1 0 0 1 .058-.024.24.24 0 0 1 .187.133 1.97 1.97 0 0 1 .258.647q-.229.437-.485.859-.327.546-.7 1.063-.216.3-.444.592" class="F"/><path d="M65.006 102.171c.042-.068.078-.139.114-.21a11.14 11.14 0 0 0 .6-1.481 19.95 19.95 0 0 0 .582-2.3l.043-.226q-.51-.868-1.011-1.742l-.492-.895a.79.79 0 0 0-.062.151 2.41 2.41 0 0 0-.033.8c.027.479.021.96-.017 1.438l-.024.255c-.054.526-.147 1.047-.279 1.559q-.022.084-.046.17c-.236.677-.374 1.384-.411 2.1.007.3.111.666.4.738.17.031.344-.024.466-.146.065-.062.122-.132.168-.209" class="E"/><g opacity=".3" class="F"><g clip-path="url(#K)" transform="translate(64.091 94.659)"><path d="M2.253 3.297q-.51-.868-1.01-1.742L.404-.001l-.17.57-.233.575a13.17 13.17 0 0 1 .995 2.531l.433 1.586.2.559a19.91 19.91 0 0 0 .582-2.3l.043-.226"/></g></g><path d="M6.15 102.007c.065.285.145.566.24.842l.754 2.223c.116.318.183.652.2.99s-.11.676-.348.922c-.25.243-.631.29-.932.115-.225-.198-.374-.469-.419-.766l-.307-1.131-.392-1.533a5.5 5.5 0 0 1 .025-3.165c.123-.317.886-1.266 1.115-.528a3.5 3.5 0 0 1-.045.97c-.003.357.033.712.108 1.061" fill="#f4b9b8"/><path d="M5.709 102.667a8.39 8.39 0 0 0 .24.842l.754 2.223a3.37 3.37 0 0 1 .2.99c.016.342-.11.676-.348.922-.25.243-.631.29-.932.115-.225-.198-.374-.469-.419-.766l-.307-1.131-.392-1.533a5.5 5.5 0 0 1 .025-3.165c.123-.317.886-1.266 1.115-.528a3.5 3.5 0 0 1-.045.97 4.85 4.85 0 0 0 .108 1.061" class="F"/><path d="M68.583 101.16q-1.046-2.622-2.095-5.246a38.21 38.21 0 0 0-2.136-4.7l-1.265-2.143-5.886-10.825-3.724-6.848c-.847-1.482-1.599-3.016-2.254-4.593a36.46 36.46 0 0 1-1.644-6.12c-.702-4.286-1.704-8.517-3-12.662a21.01 21.01 0 0 0-5.072-8.415 17.65 17.65 0 0 0-13.386-4.332 20.46 20.46 0 0 0-2.477.32c-2.255.437-4.422 1.245-6.412 2.391a14.8 14.8 0 0 0-5.07 4.608 19.79 19.79 0 0 0-1.141 1.926c-1.309 2.513-2.162 5.233-3.227 7.859-1.892 4.664-4.609 9.077-5.49 14.032-.915 5.146 1.321 17.615 1.305 24.911-.312 2.639-.783 5.256-1.412 7.838a14.2 14.2 0 0 0-.261 3.682c.177 1.288.446 2.561.806 3.81a1.63 1.63 0 0 0 .221.564.6.6 0 0 0 .944.056c.357-.793.378-1.698.059-2.507-.193-.712-.327-1.438-.4-2.172-.019-.705.13-1.405.435-2.041l.611-1.43a4.12 4.12 0 0 1 .2-.391c.027-.049.055-.1.085-.142.136-.231.335-.42.573-.543s.508-.138.756-.051c.231.12.221.422.241.645a3.27 3.27 0 0 1-.049.793c-.073.353-.119.712-.14 1.072-.002.098.004.195.017.292a1.66 1.66 0 0 0 .044.229c.217.807 1.31 1.525 1.726.445.078-.235.13-.479.153-.726a19.65 19.65 0 0 0 .529-3.5 20.58 20.58 0 0 0-.259-2.256c-.19-1.248-.747-3.066-.877-3.665.777-7.44 1.169-13.759 1.6-21.171.015-.787.121-1.569.316-2.331a10.41 10.41 0 0 1 1.4-2.659q5.078-7.768 9.649-15.851c1.065-1.884 2.14-3.9 2.091-6.06a10.63 10.63 0 0 0 10.025 1.237c4.059 9.1 5.954 19.127 10.821 27.819 3.9 6.969 9.687 12.458 14.4 18.905.171.233.1.934.111 1.231.052.965-.029 1.928.089 2.889a13.5 13.5 0 0 0 .672 2.854c.148.418.55.8.978.426.041-.025.077-.056.109-.091a2.12 2.12 0 0 0 .4-1.64c-.063-.643.037-1.292.291-1.886a.59.59 0 0 1 .387-.352c.11-.015.222-.002.325.039.331.117.62.328.832.608.113.144.213.298.3.46a6.81 6.81 0 0 1 .24.475l.273.591q.028.059.057.115l.052.1.338.67q.306.611.615 1.221l.537 1.065a5 5 0 0 0 1.209 1.755.53.53 0 0 0 .858-.586" class="E"/><path d="M8.418 100.041l-.141.464a7.4 7.4 0 0 1 .14-1.072 3.27 3.27 0 0 0 .049-.793c-.02-.223-.01-.525-.241-.645-.248-.087-.521-.068-.756.051s-.437.312-.573.543l-.085.142.158-.42c.11-.298.298-.562.545-.762.254-.2.603-.232.889-.08.215.161.353.405.377.673.032.653-.092 1.305-.362 1.9" class="F"/><path d="M34.519 37.536c-.593.307-1.247.478-1.914.5-.796.104-1.598.15-2.4.137-1.531-.156-3.031-.531-4.455-1.114q.038-1.35.075-2.7a33.73 33.73 0 0 0-.02-3.376l-.1-1.03-.41-2.544-.376-2.086a5.38 5.38 0 0 0 1.275.862l6.31 3.241c.63.333 1.293.598 1.979.791l.019 3.943z" class="E"/><path d="M34.502 34.156c-2.395-.605-4.684-1.574-6.786-2.872l-2.012-1.335-.41-2.544q-.188-1.042-.376-2.086a5.38 5.38 0 0 0 1.275.862l6.31 3.241a10.01 10.01 0 0 0 1.979.791z" class="F"/><g class="E"><path d="M38.592 19.1a16.13 16.13 0 0 0-.454-1.672c-.571-1.763-1.677-3.304-3.165-4.408-2.928-2.075-6.927-1.73-9.457.815-.581.599-1.057 1.291-1.408 2.048a9.43 9.43 0 0 0-.59 5.81 15.2 15.2 0 0 0 1.916 4.888c.539.92 1.194 1.767 1.948 2.521a9.17 9.17 0 0 0 1.442 1.154 7.33 7.33 0 0 0 3.477 1.2c2.423.215 4.688-1.224 5.523-3.509a14.4 14.4 0 0 0 .768-8.851"/><path d="M25.969 26.001c-1.114.502-2.41.38-3.411-.32a3.41 3.41 0 0 1-1.385-2.584 3.25 3.25 0 0 1 .024-.55 2.47 2.47 0 0 1 .3-.916c.433-.692 1.225-1.075 2.037-.985.805.11 1.504.612 1.866 1.34l.22 1.544z"/></g><path d="M35.403 12.022a12.59 12.59 0 0 1-5.266 6.372 16.78 16.78 0 0 1-7.987 2.386c.032-1.362.194-2.717.486-4.048.581-1.905 1.794-3.555 3.438-4.678.245-.167.499-.32.76-.459 1.631-.856 3.492-1.173 5.315-.907.744.093 1.466.313 2.136.649.129.068 1.174.525 1.118.685" fill="#602826"/><path d="M39.513 66.301c.526-4.187.924-8.366 1.772-12.506.752-3.673 1.612-7.56.216-11.181-.606-.614-1.289-1.147-2.032-1.586-6.27-3.868-14.141-3.472-21.092-1.031-.371 5.75.377 11.527.86 17.285.144.826.247 1.659.345 2.492.608 5.21.935 10.443 1.286 15.675a5.22 5.22 0 0 1 .507-.043 17.71 17.71 0 0 1 3.506.35l8.953 1.5c1.156.194 2.319.389 3.458.665l2.088-8.989c-.02-.878.025-1.756.134-2.628" class="E"/><path d="M46.808 171.049l-6.44-.7c-1.221-14.863-2.716-36.112-2.776-44.825-.606-1.346-1.2-2.535-1.781-3.614-3.4-6.317-6.337-8.893-8.655-17.262-.865-3.121-1.64-6.517-2.281-10.023-1.416-7.4-2.029-14.931-1.83-22.462 4.951.48 10.733 1.552 15.546.234 1.807 4.8 4.56 11.618 5.774 16.618 2.443 10.064 6.236 31.018 6.44 34.955.241 4.65-2.376 39.618-4 47.081" fill="#397272"/><path d="M36.091 112.485q-.066 3.936-.246 7.868l-.035 1.554c-3.4-6.317-6.337-8.893-8.654-17.262-.865-3.121-1.64-6.517-2.281-10.024q.245-.658.468-1.322c1.764-5.288 2.226-10.943 4.035-16.215a34.95 34.95 0 0 1 4.811 10.08c1.556 5.32 1.822 10.923 1.909 16.464q.068 4.429-.007 8.857" fill="#326b69"/><path d="M23.699 169.731c-2.275-.348-4.571-.534-6.872-.556-1.332-13.451.333-46.652.333-46.652-2.482-7.863-3.901-16.022-4.22-24.261-.052-2.068-.349-8.392 1-13.809 1.777-7.139 4.664-10.3 6.551-13.23a43.39 43.39 0 0 0 18.1 1.17c-1.257 8.012-2.833 21.3-4.09 29.316l-7.681 50.38-3.121 17.642" fill="#397272"/><path d="M49.317 54.703c-.893 1.126-2.065 1.999-3.4 2.531l-1.008.381a16.39 16.39 0 0 1-3.878.729l-1.293 12.957a20.21 20.21 0 0 1-5.1.764 69.45 69.45 0 0 1-8.026-.289 19.05 19.05 0 0 1-7.16-1.726q.087-4.7-.191-9.406-.113-1.962-.287-3.921v-.047a13.42 13.42 0 0 0-.919 1.308 41.91 41.91 0 0 1-8.487-7.463l.161-.391c.311-.753.677-1.483 1.094-2.183l2.736-4.534q.267-.415.548-.82a18.67 18.67 0 0 1 4.585-4.741c.971-.679 2.018-1.24 3.12-1.673.572-.224 3.756-1.1 3.79-1.044.317.569.863.975 1.5 1.114 1.738.497 3.563.614 5.35.343.842-.201 1.644-.543 2.371-1.013 1.624.458 3.199 1.077 4.7 1.848a15.76 15.76 0 0 1 1.96 1.42 16.35 16.35 0 0 1 4.349 5.74 65.06 65.06 0 0 1 2.524 7.086l.969 3.029" fill="#f9713d"/><g fill="#ef5d30"><path d="M41.731 52.145c.043-.583.049-1.168.017-1.751a12.29 12.29 0 0 0-.354-2.032 35.48 35.48 0 0 0-1.353-4.342l.384.678a14.84 14.84 0 0 1 2.143 5.244c.221 1.459.074 2.981.419 4.409a6.56 6.56 0 0 0 1.841 3.186l.083.077a16.35 16.35 0 0 1-3.877.73l.7-6.2m-20.245 1.054a26.82 26.82 0 0 1-2.225 7.446q-.114-1.962-.287-3.921a8.2 8.2 0 0 0 2.512-3.526"/></g><g class="Z"><path d="M30.59 18.662a2.55 2.55 0 0 1 .466.009l.823.067c.091.007.2 0 .245-.079.018-.042.018-.089 0-.131a.5.5 0 0 0-.432-.234 2.48 2.48 0 0 0-1.265.143c-.077.032-.519.234-.488.338s.566-.1.655-.112m5.982-.187a2.49 2.49 0 0 0-.464.043l-.816.127c-.09.014-.2.018-.25-.061-.02-.041-.022-.088-.006-.131.055-.163.245-.231.413-.265.421-.094.86-.077 1.272.05.079.027.535.2.512.3s-.572-.061-.661-.064"/></g><path d="M36.089 25.695a1.97 1.97 0 0 1-1.561 1.41c-.727 0-1.393-.408-1.723-1.056-.321-.532-.516-1.131-.57-1.751l.13-.01 3.823-.315.142-.012a4.09 4.09 0 0 1-.241 1.735" fill="#ce7872"/><path d="M36.187 23.972a2.36 2.36 0 0 1-3.823.315z" class="B"/><path d="M36.088 25.695a1.97 1.97 0 0 1-1.561 1.41c-.727 0-1.393-.408-1.723-1.056a4.01 4.01 0 0 1 .586-.322 3.2 3.2 0 0 1 2.7-.032" fill="#ea8c8b"/><path d="M32.104 21.138c.016.521-.27.953-.638.964s-.678-.4-.694-.923.27-.952.637-.964.679.4.694.923" class="Z"/><use xlink:href="#O" class="B"/><path d="M35.656 21.031c.016.521.327.934.694.923s.653-.442.637-.964-.327-.934-.694-.923-.653.442-.638.964" class="Z"/><path d="M36.514 20.589c-.087.009-.153.084-.15.171s.072.158.16.162c.087-.009.153-.084.15-.171s-.072-.158-.16-.162" class="B"/><path d="M34.519 22.202a.61.61 0 0 0-.76.02l.594 1.026a.45.45 0 0 0 .362-.3.66.66 0 0 0-.2-.744" fill="#ce7872"/><g class="F"><path d="M31.147 23.798c.209.739-.07 1.53-.697 1.974s-1.465.446-2.094.004-.91-1.232-.704-1.972.856-1.27 1.623-1.323c.878-.143 1.71.442 1.872 1.317m7.55-.834a1.02 1.02 0 1 1-1.051-.739.92.92 0 0 1 1.051.739"/></g></g><g clip-path="url(#L)" transform="matrix(.981627 -.190809 .190809 .981627 -15460.724 21457.066)"><path d="M54.82 27.41A27.41 27.41 0 0 1 8.028 46.792 27.41 27.41 0 0 1 27.41 0c15.138 0 27.41 12.272 27.41 27.41" fill="#f386a8"/><g fill="#d23a64"><path d="M22.154 36.385c-.006-.329-.162-.638-.424-.837a1.08 1.08 0 0 0-.92-.187c-4.225 1.167-8.592 3.134-10.559 7.307a23.6 23.6 0 0 0-1.418 5.2q-.63 2.942-1.171 5.9c-.456 2.5-.829 5.007-1.182 7.52-.321 2.284-.261 5.089-1.314 7.143L-.856 80.014q-1.545 2.963-3.073 5.935-.744 1.452-1.48 2.908c-.239.472-.656 1.033-.4 1.574.5 1.062 1.933 1.647 2.872 2.265.267.196.564.351.878.457 1.455.408 2.683-1.952 3.377-2.868q1.779-2.349 3.5-4.743c2.525-3.515 5.122-7.1 7.341-10.867a46.67 46.67 0 0 0 2.513-4.571c1.665-3.728 2.286-7.84 3.639-11.687 1.428-4.061 3.178-8.166 3.658-12.481.355-3.172.419-6.369.191-9.553m33.773 58.616a24.48 24.48 0 0 1-6.052-.212c-.735-.445-.786-24.465-1.911-26.44-.621-1.089-3.04-5.073-5.522-9.28-2.342-3.974-4.741-8.147-5.73-10.264-1.85-3.958-1.069-13.3-.789-14.341a30.62 30.62 0 0 1 4.485 1.491l.016.007c1.685.819 3.255 1.854 4.672 3.079 5.84 5.416 11.335 22.274 12.266 26.827 1.114 5.454-.464 28.886-1.435 29.133"/></g><path d="M46.588 87.462c-3.039 2.279-36.634 2.442-36.634.849 0-6.077 1.372-12.938 1.805-19.007l1.805-24.317.425-6.69s3-1.806 4.566-2.549c2.131-1.002 4.398-1.684 6.728-2.024 3.562-.455 7.179-.204 10.645.738a30.6 30.6 0 0 1 4.485 1.491l.016.007a4.1 4.1 0 0 0-2.018 3.292c-.924 6.846.497 13.803 4.031 19.739l2.447 14.453c.566 3.1 2.124 13.7 1.7 14.017" fill="#c6305f"/><path d="M19.489 15.351c.799-3.095 3.696-5.178 6.885-4.95a6.3 6.3 0 0 1 4.853 2.921 5.81 5.81 0 0 1-.249 6.23 7.92 7.92 0 0 1-3.066 2.477c-.361.165-.736.301-1.119.406-2.032.554-4.693.318-6.238-1.256-1.464-1.491-1.582-3.911-1.066-5.827" fill="#32334c"/><path d="M31.941 23.812q-.148.819-.293 1.639l-.017.1-.009.045-.347 2.174-.087.88-.04.99.027 1.894q.035 1.154.068 2.306c-.549.592-1.139 1.145-1.765 1.655-1.368.374-2.773.594-4.189.657-.9-.526-1.7-1.3-1.568-2l.042-2.772v-.455-1.2l.006-1.712a8.6 8.6 0 0 0 1.689-.678l5.387-2.778.138-.076a4.12 4.12 0 0 0 .951-.662" class="E"/><path d="M23.765 31.376c2.046-.52 4-1.351 5.794-2.463l1.717-1.143.346-2.174.318-1.783a4.59 4.59 0 0 1-1.088.738l-5.387 2.777c-.538.286-1.104.514-1.69.679z" class="F"/><g class="E"><path d="M19.739 25.995c.33 1.133 1.012 2.131 1.946 2.851a5.38 5.38 0 0 0 3.02.967 6.84 6.84 0 0 0 3.382-.917 8.74 8.74 0 0 0 1.452-1.018c.773-.681 1.456-1.458 2.033-2.311.984-1.404 1.722-2.966 2.181-4.618.547-1.867.504-3.858-.123-5.7a7.25 7.25 0 0 0-1.179-2.1c-2.172-2.656-5.976-3.29-8.892-1.483a8.69 8.69 0 0 0-3.327 4.059 16.11 16.11 0 0 0-.555 1.594 14.42 14.42 0 0 0 .063 8.671"/><path d="M30.756 25.071a3.29 3.29 0 0 0 3.222.447 3.24 3.24 0 0 0 1.842-2.087 3.07 3.07 0 0 0 .1-.514c.035-.306.01-.615-.075-.911a2.02 2.02 0 0 0-1.668-1.354 2.33 2.33 0 0 0-2.016.833l-.539 1.379z"/></g><g fill="#1f3c49"><path d="M25.755 21.227c.148.016.366-.21.442-.558.041-.169.033-.346-.022-.511-.019-.049-.072-.164-.162-.184h-.014c-.148-.016-.366.21-.442.558-.041.169-.033.346.022.511.019.049.072.164.162.184h.014m-4.435-.674c.125.013.347-.185.424-.539a.9.9 0 0 0-.021-.495c-.038-.1-.094-.163-.153-.175h-.013c-.125-.013-.347.186-.424.539a.9.9 0 0 0 .021.495c.038.1.094.162.153.175h.013m2.193.931a.55.55 0 0 0-.491-.176.66.66 0 0 0-.521.879.55.55 0 0 0 .391.346.75.75 0 0 1-.192-.4c-.033-.267.119-.523.369-.623a.75.75 0 0 1 .445-.025m3.591-3.047a.1.1 0 0 0 .009-.193 1.56 1.56 0 0 0-1.228-.011c-.053.022-.077.083-.055.136s.083.077.136.055a1.34 1.34 0 0 1 1.062.009.1.1 0 0 0 .075 0m-4.454-.676a.1.1 0 0 0 .042-.184 1.44 1.44 0 0 0-1.081-.275c-.056.01-.094.063-.086.119a.1.1 0 0 0 .119.086 1.23 1.23 0 0 1 .923.235.1.1 0 0 0 .084.019"/></g><g class="B"><use xlink:href="#P"/><path d="M21.391 19.517c.09-.007.17.057.184.146s-.044.174-.132.195c-.09.007-.17-.057-.184-.146s.044-.174.132-.195"/></g><path d="M21.085 23.133a2.32 2.32 0 0 0 .271 1.227c.278.585.858.967 1.505.992s1.255-.31 1.579-.871c.224-.345.352-.743.371-1.154v-.048l-3.721-.193v.048" fill="#d55454"/><path d="M21.237 23.093a2.39 2.39 0 0 0 3.419.177z" class="B"/><path d="M21.352 24.36c.279.585.859.967 1.506.992s1.255-.311 1.578-.872c-.629-.173-1.28-.254-1.933-.242a6.88 6.88 0 0 0-1.151.122" fill="#f37c7c"/><g class="F"><path d="M25.475 22.733c-.061.565.512 1.09 1.279 1.172.653.157 1.314-.228 1.5-.874.061-.565-.512-1.09-1.279-1.172-.653-.157-1.314.228-1.5.874m-5.954-1.396c-.041.382.346.736.864.792a.85.85 0 0 0 1.012-.59c.041-.381-.346-.736-.864-.792a.85.85 0 0 0-1.012.59"/></g><path d="M19.508 12.979c-.137-1.423 2.06-2.973 6.151-3.688 3.162-.553 7.372.53 9.547 2.863 1.321 1.368 2.007 3.226 1.892 5.124-.233 1.552-.716 3.057-1.432 4.454a2.3 2.3 0 0 0-2.676-.912 3 3 0 0 0-1.389.991c-.014-1.793-.468-3.528-.467-5.324-.006.037-2.971-.362-3.181-.389a33.63 33.63 0 0 1-5.083-.92q-1.064-.308-2.094-.719a2.65 2.65 0 0 1-1.269-1.481" fill="#32334c"/><path d="M34.132 20.542h-.277l-2.331-.039-1.352-.023-1.784-.029v-.057a2.12 2.12 0 0 0-4.09-.568l-.79-.112c.001-.078-.002-.156-.01-.234a2.12 2.12 0 0 0-3.929-.892l-.042-.28a.1.1 0 0 0-.081-.087c-.014-.002-.027-.002-.041 0-.028.004-.053.019-.07.042s-.024.052-.019.08l.042.279.046.3-.02.056a2.12 2.12 0 0 0 1.913 2.829h.03a2.12 2.12 0 0 0 2.115-1.614l.729.111a2.11 2.11 0 0 0 1.338 2.275c.069.027.139.051.211.07.719.193 1.486-.005 2.022-.52l.038-.038a2.13 2.13 0 0 0 .614-1.429l1.558.027 1.593.026 1.737.03h.037l.485.009.324.005h.013a.1.1 0 0 0 .094-.094c.001-.068-.043-.115-.1-.118m-12.566 1.039a1.74 1.74 0 0 1-.176.008 1.8 1.8 0 0 1-.428-.047c-.804-.183-1.401-.859-1.482-1.68a1.87 1.87 0 0 1 .016-.488h0a1.91 1.91 0 0 1 3.797.286 1.91 1.91 0 0 1-1.727 1.922m2.645-1.491l-.728-.11c0-.021.007-.04.009-.06l.736.1-.017.065m3.335 1.927a1.91 1.91 0 0 1-3.054-2.12 1.91 1.91 0 0 1 3.682.513 1.9 1.9 0 0 1-.628 1.607"/><path d="M32.246 34.263c-.067.736-1.471 1.332-3.239 1.691-1.39.279-2.807.401-4.224.366a5.64 5.64 0 0 1-2.8-.612c-.517-.374-.344-4.877 1.466-4.713a1.38 1.38 0 0 0 .177 0c.477-.016 1.607-.152 2.895-.3l4.558-.463a2.31 2.31 0 0 1 1.033.066c.574.558.245 2.749.135 3.969" fill="#d23a64"/></g><g clip-path="url(#M)" transform="translate(-15456.906 21737.916)"><path d="M52.269 26.134c0 14.433-11.701 26.134-26.134 26.134S.001 40.567.001 26.134 11.702 0 26.135 0c6.931 0 13.578 2.753 18.48 7.654s7.654 11.548 7.654 18.48" fill="#fce3c3"/><path d="M-28.642 73.984l3.822-3.193a33.7 33.7 0 0 1 3.626-2.754l1.879-1.133 9.1-5.934 5.756-3.754c1.278-.796 2.504-1.671 3.672-2.62C.635 53.39 8.784 41.232 9.662 40.176a15.58 15.58 0 0 1 4.639 9.04c-2.9 2.678-9.63 9.932-12.958 12.044-5.945 3.773-12.732 5.61-19.09 8.636-.23.11-.465.685-.6.909-.444.727-.785 1.508-1.279 2.2-.5.705-1.076 1.353-1.716 1.933-.29.262-.763.391-.937-.079-.021-.036-.037-.075-.047-.116a1.87 1.87 0 0 1 .378-1.439c.318-.472.512-1.018.564-1.585.019-.161-.037-.322-.153-.435a.57.57 0 0 0-.268-.105 1.58 1.58 0 0 0-.9.124 2.77 2.77 0 0 0-.427.23 5.89 5.89 0 0 0-.385.268l-.46.344-.092.065-.084.059-.543.378-.988.69-.862.6c-.49.402-1.06.694-1.673.855a.47.47 0 0 1-.421-.814" class="E"/><path d="M22.366 21.206A7.98 7.98 0 0 1 31.4 10.029a7.98 7.98 0 0 1 5.966 6.034q.041.187.073.374a31.94 31.94 0 0 0 6.275 8.953c2.747 6.166.436 13.411-5.373 16.848s-13.272 1.975-17.354-3.401-3.487-12.957 1.384-17.63" fill="#ac1b35"/><g class="E"><path d="M31.835 32.282c-.73-.388-1.375-.92-2.112-1.292a1.99 1.99 0 0 0-.193-.027l-3.511-.334a6.11 6.11 0 0 0-1.1.028 12.56 12.56 0 0 1-5.655 2.043.9.9 0 0 0-.5 1.306 5.96 5.96 0 0 0 1.239 1.807q.225.243.47.468c2.232 2.04 6.192 3.108 9.078 1.782 1.468-.712 2.73-1.786 3.669-3.12a9.02 9.02 0 0 0 .718-1.283l.1-.222-2.205-1.155"/><path d="M24.186 33.033c.433.286.923.472 1.437.544.605.147 1.22.25 1.84.307a12.49 12.49 0 0 0 3.536-.487q.084-1.046.169-2.092c.056-.873.156-1.743.3-2.606l.167-.787.53-1.931.466-1.58c-.324.236-.68.424-1.057.559l-5.147 1.974c-.516.205-1.052.354-1.6.445l-.346 3.045z"/></g><path d="M24.483 30.423c1.901-.266 3.751-.823 5.484-1.649l1.667-.863.53-1.931q.233-.79.466-1.58a4.18 4.18 0 0 1-1.057.559l-5.147 1.974a7.78 7.78 0 0 1-1.6.445z" class="F"/><g class="E"><path d="M21.379 25.155c.185 1.057.702 2.028 1.475 2.772a4.89 4.89 0 0 0 2.634 1.175 6.22 6.22 0 0 0 3.149-.492 7.95 7.95 0 0 0 1.414-.776 11.05 11.05 0 0 0 2.069-1.887c1.03-1.171 1.852-2.51 2.432-3.958.68-1.633.84-3.437.457-5.164a6.6 6.6 0 0 0-.858-2.013 6.22 6.22 0 0 0-7.892-2.228c-1.455.735-2.647 1.901-3.413 3.339-.244.45-.465.913-.661 1.386a13.12 13.12 0 0 0-.807 7.847"/><path d="M31.433 25.419a3 3 0 0 0 2.869.726 2.95 2.95 0 0 0 1.874-1.7 2.81 2.81 0 0 0 .14-.455c.062-.273.07-.555.023-.831-.153-.689-.686-1.229-1.373-1.391a2.12 2.12 0 0 0-1.906.552l-.625 1.193z"/></g><path d="M23.354 13.827l.835-.644.109-.076.04-.029h0l.409-.263a7.68 7.68 0 0 1 .877-.466c.052-.023.124-.041.181-.069l.329-.085a3.06 3.06 0 0 1 4.251-1.169 2.66 2.66 0 0 1 4.076 1.636q.03.136.046.271a3.06 3.06 0 0 1 1.357 4.151 2.46 2.46 0 0 1 1.56 3.086 2.46 2.46 0 0 1-3.069 1.592 2.46 2.46 0 0 1-1.625-3.052 2.19 2.19 0 0 0-3.248-2.061 3.06 3.06 0 0 1-3.019-1.039c-.633.586-1.506.838-2.353.679s-1.57-.711-1.947-1.487q.591-.491 1.191-.971" fill="#ac1b35"/><path d="M20.764 34.819h.019l-.295.076a2.76 2.76 0 0 1 .276-.073" class="E"/><g fill="#1f3c49"><path d="M27.19 21.367c.135.015.335-.188.406-.5.038-.153.033-.315-.016-.465-.017-.044-.064-.15-.146-.169h-.013c-.135-.015-.335.188-.406.5-.038.153-.033.315.016.465.017.044.064.15.146.168h.013m-4.029-.645c.114.013.317-.166.39-.487a.82.82 0 0 0-.016-.45c-.033-.09-.084-.149-.138-.161h-.012c-.114-.013-.317.166-.39.488a.82.82 0 0 0 .016.45.23.23 0 0 0 .138.161h.012m1.988.863a.5.5 0 0 0-.446-.164.6.6 0 0 0-.48.8.5.5 0 0 0 .353.318c-.093-.102-.153-.23-.172-.367a.54.54 0 0 1 .34-.564c.13-.047.271-.054.405-.019m3.227-2.574c.039.001.074-.022.089-.058s.006-.077-.022-.104a1.42 1.42 0 0 0-1.049-.384c-.052.003-.091.048-.088.1s.048.091.1.088a1.22 1.22 0 0 1 .907.332c.017.016.04.026.064.026m-4.056-.767c.036-.01.062-.04.068-.077s-.011-.073-.043-.093a1.31 1.31 0 0 0-1-.17.1.1 0 0 0-.069.114c.006.024.021.045.043.058s.047.017.071.011a1.12 1.12 0 0 1 .854.145c.023.015.052.019.078.011"/></g><g class="B"><path d="M27.327 20.432c.086-.012.166.047.178.133s-.047.166-.133.178-.166-.047-.178-.133.047-.166.133-.178m-4.092-.653c.086-.012.166.047.178.133s-.047.166-.133.178-.166-.047-.178-.133.047-.166.133-.178"/></g><path d="M22.925 23.062a2.11 2.11 0 0 0 .237 1.118c.25.531.774.881 1.36.909s1.141-.271 1.44-.777a2.1 2.1 0 0 0 .346-1.047v-.043l-3.384-.2v.043" fill="#d55454"/><path d="M23.067 23.031c.384.443.93.713 1.515.749s1.16-.167 1.594-.562z" class="B"/><path d="M23.162 24.184c.25.532.773.882 1.36.91s1.141-.272 1.44-.778a6.15 6.15 0 0 0-2.8-.132" fill="#f37c7c"/><g class="F"><path d="M26.923 22.735c-.059.513.458 1 1.155 1.076a1.14 1.14 0 0 0 1.37-.784c.059-.513-.458-1-1.155-1.076-.593-.147-1.196.199-1.37.784m-5.403-1.311c-.04.347.309.672.78.727a.77.77 0 0 0 .925-.529c.04-.347-.309-.672-.78-.727a.77.77 0 0 0-.925.529"/></g><path d="M42.533 87.51a53.49 53.49 0 0 1-.269-6.472c.8-5.88 3.981-15.679 3.814-19.927-.161-4.09-1.86-7.948-2.868-11.915-.567-2.234-.953-4.52-1.729-6.69a16.09 16.09 0 0 0-.705-1.678 12.04 12.04 0 0 0-3.575-4.275c-1.27-.984-2.673-1.781-4.168-2.369l-.83 6.03.043-.022c-.125 1.765.225 3.531 1.013 5.115q2.785 7.015 6.018 13.841c.387.722.667 1.497.832 2.3a8.3 8.3 0 0 1 0 1.913c-.477 6.02-.862 11.155-1.06 17.236-.172.469-.822 1.872-1.113 2.856-.186.587-.339 1.185-.459 1.789a15.95 15.95 0 0 0 .038 2.879c-.008.201.006.402.043.6.215.916 1.176.459 1.44-.167a1.36 1.36 0 0 0 .061-.179 1.61 1.61 0 0 0 .046-.234 6 6 0 0 0 .006-.879 2.66 2.66 0 0 1 .049-.644c.041-.177.066-.422.266-.493.209-.041.425.004.6.125a1.16 1.16 0 0 1 .4.5c.019.041.037.082.053.124.044.11.081.225.115.337.123.405.22.814.334 1.22a3.62 3.62 0 0 1 .124 1.693 10.93 10.93 0 0 1-.564 1.706c-.347.617-.431 1.348-.231 2.027.082.126.219.207.369.218s.297-.047.398-.158a1.32 1.32 0 0 0 .241-.43 22.01 22.01 0 0 0 1.072-2.98c.197-.987.264-1.996.2-3" class="E"/><path d="M44.148 48.623c-3.63 2.742-5.536 4.23-8.1 5.333v.014l-.722 2.225-.2.628-.841 2.692c-3.46 1.057-16.714 3.182-18.453 3.414l-.52-2.909c-.38-2.272-.761-5.055-1.2-9.857l-.027.057-1.035 2.15-.23.468c-1.575-1.416-7.213-7.829-7.213-7.829s3.813-6.639 6.848-8.891a29.87 29.87 0 0 1 9.2-4.139s1.323 1.385 1.723 1.688c1.107.865 2.453 1.368 3.855 1.442a6.52 6.52 0 0 0 5.678-2.69c4.921 2 8.445 4.365 11.245 16.2" fill="#fe8f8c"/><g fill="#f98080"><path d="M13.045 52.37l1.035-2.15a11.68 11.68 0 0 1 .133-3.042 8.17 8.17 0 0 0-1.232 3.2 5.83 5.83 0 0 0 .063 1.989m22.997 1.603l-.722 2.225a10.91 10.91 0 0 1-1.393-7.378 13.92 13.92 0 0 0 2.115 5.153"/></g></g></g></svg>