<svg xmlns="http://www.w3.org/2000/svg" width="13.241" height="13.241" viewBox="0 0 13.241 13.241">
  <path id="time-quarter-to" d="M13.241,6.621A6.621,6.621,0,1,1,0,6.621a.552.552,0,0,1,1.1,0A5.517,5.517,0,1,0,6.621,1.1a.552.552,0,0,1,0-1.1A6.628,6.628,0,0,1,13.241,6.621ZM5.67,6.069H4.414a.552.552,0,1,0,0,1.1H5.67a1.1,1.1,0,1,0,1.5-1.5V3.862a.552.552,0,0,0-1.1,0V5.67a1.1,1.1,0,0,0-.4.4ZM1.008,4.846a.552.552,0,1,0-.552-.552A.552.552,0,0,0,1.008,4.846ZM2.329,2.873a.552.552,0,1,0-.552-.552A.552.552,0,0,0,2.329,2.873ZM4.292,1.567a.552.552,0,1,0-.552-.552A.552.552,0,0,0,4.292,1.567Z" fill="#677a9d"/>
</svg>
