<svg fill="none" height="512" viewBox="0 0 512 512" width="512" xmlns="http://www.w3.org/2000/svg"><g clip-rule="evenodd" fill-rule="evenodd"><path d="m256 32c-123.712 0-224 100.288-224 224s100.288 224 224 224 224-100.288 224-224-100.288-224-224-224z" fill="#e92b2b"/><path d="m450.034 368h-388.0652c12.1933 21.079 27.7229 39.986 45.8662 56h296.333c18.143-16.014 33.673-34.921 45.866-56z" fill="#fbfbfb"/><path d="m480 256h-448c0 19.337 2.4502 38.101 7.057 56h433.886c4.607-17.899 7.057-36.663 7.057-56z" fill="#fbfbfb"/><path d="m450.038 144h-388.0653c-10.0262 17.332-17.7967 36.133-22.9102 56h433.8865c-5.114-19.867-12.884-38.668-22.911-56z" fill="#fbfbfb"/><path d="m404.145 88h-296.333c39.488-34.8524 91.358-56 148.167-56s108.678 21.1476 148.166 56z" fill="#fbfbfb"/><path d="m233.606 33.1055v222.8945h-201.606c0-116.154 88.409-211.6588 201.606-222.8945z" fill="#2a2faf"/><path d="m66.1579 137.078h9.5621l-13.1664 9.566 5.0292 15.478-11.0828-8.052c2.9771-5.816 6.201-11.484 9.6579-16.992z" fill="#fbfbfb"/><path d="m37.3125 207.332c.2264-1.022.4597-2.041.7-3.057h11.3665l5.0291-15.478 5.0292 15.478h16.2745l-13.1664 9.566 5.0291 15.478-13.1664-9.566-13.1663 9.566 5.0291-15.478z" fill="#fbfbfb"/><path d="m111.795 84.5865c6.229-5.2464 12.749-10.1594 19.531-14.7115h11.582l-13.167 9.5659 5.029 15.4781-13.166-9.566-13.166 9.566z" fill="#fbfbfb"/></g><path d="m121.616 121.602 5.029 15.478h16.275l-13.167 9.566 5.03 15.478-13.167-9.566-13.166 9.566 5.029-15.478-13.167-9.566h16.275z" fill="#fbfbfb"/><path d="m121.616 188.797 5.029 15.478h16.275l-13.167 9.566 5.03 15.478-13.167-9.566-13.166 9.566 5.029-15.478-13.167-9.566h16.275z" fill="#fbfbfb"/><path d="m188.804 54.3984 5.029 15.4781h16.274l-13.166 9.5659 5.029 15.478-13.166-9.5659-13.167 9.5659 5.029-15.478-13.166-9.5659h16.275z" fill="#fbfbfb"/><path d="m188.804 121.602 5.029 15.478h16.274l-13.166 9.566 5.029 15.478-13.166-9.566-13.167 9.566 5.029-15.478-13.166-9.566h16.275z" fill="#fbfbfb"/><path d="m188.804 188.797 5.029 15.478h16.274l-13.166 9.566 5.029 15.478-13.166-9.566-13.167 9.566 5.029-15.478-13.166-9.566h16.275z" fill="#fbfbfb"/></svg>