<svg xmlns="http://www.w3.org/2000/svg" xmlns:xlink="http://www.w3.org/1999/xlink" width="31" height="31" viewBox="0 0 31 31">
  <defs>
    <linearGradient id="linear-gradient" x1="0.183" y1="0.12" x2="0.82" y2="0.807" gradientUnits="objectBoundingBox">
      <stop offset="0" stop-color="#0040b3"/>
      <stop offset="0.18" stop-color="#0040b3" stop-opacity="0.871"/>
      <stop offset="0.435" stop-color="#0040b3" stop-opacity="0.529"/>
      <stop offset="0.97" stop-opacity="0"/>
      <stop offset="1" stop-opacity="0"/>
    </linearGradient>
  </defs>
  <g id="Group_56672" data-name="Group 56672" transform="translate(0.309)">
    <g id="Layer_2" data-name="Layer 2" transform="translate(-0.309 0)">
      <g id="_60.ello" data-name="60.ello" transform="translate(0)">
        <circle id="background" cx="15.5" cy="15.5" r="15.5" fill="#005cff"/>
        <path id="shadow" d="M66.681,61.858a15.583,15.583,0,0,1-10.9,10.866l-9.56-9.55C41.718,53.782,57.825,53,57.825,53Z" transform="translate(-36.563 -42.15)" fill="url(#linear-gradient)"/>
      </g>
    </g>
    <path id="internet" d="M50.367,51.2H47.253V47.673H50.87A13.887,13.887,0,0,1,50.367,51.2Zm-7.883-3.531H39.163a7.754,7.754,0,0,0,.994,3.531h2.808A14.586,14.586,0,0,1,42.484,47.673Zm1.258-6.145A5.951,5.951,0,0,1,45,39.827a7.836,7.836,0,0,0-4.487,3.163h2.622A9.784,9.784,0,0,1,43.743,41.528Zm-.777,2.038H40.157a7.753,7.753,0,0,0-.994,3.531h3.321A14.586,14.586,0,0,1,42.965,43.566Zm7.4,0H47.253V47.1H50.87A13.886,13.886,0,0,0,50.367,43.566ZM51.445,47.1h3.321a7.753,7.753,0,0,0-.994-3.531H50.964a14.592,14.592,0,0,1,.481,3.531Zm-1.769-5.3A3.643,3.643,0,0,0,47.253,39.6V42.99h2.933A9.054,9.054,0,0,0,49.676,41.793Zm.511-.265a9.787,9.787,0,0,1,.606,1.462h2.622a7.836,7.836,0,0,0-4.487-3.163A5.954,5.954,0,0,1,50.187,41.528Zm-5.933.265a9.071,9.071,0,0,0-.51,1.2h2.933V39.6A3.643,3.643,0,0,0,44.254,41.793Zm5.933,11.449a5.953,5.953,0,0,1-1.259,1.7,7.833,7.833,0,0,0,4.487-3.163H50.793A9.776,9.776,0,0,1,50.187,53.242Zm.777-2.038h2.808a7.754,7.754,0,0,0,.994-3.531H51.445a14.592,14.592,0,0,1-.481,3.531Zm-.778.576H47.253v3.392a3.643,3.643,0,0,0,2.423-2.194A9.048,9.048,0,0,0,50.186,51.78ZM43.562,51.2h3.115V47.673H43.06A13.885,13.885,0,0,0,43.562,51.2Zm.691,1.773a3.644,3.644,0,0,0,2.423,2.194V51.78H43.744A9.069,9.069,0,0,0,44.254,52.977ZM43.06,47.1h3.617V43.566H43.562A13.885,13.885,0,0,0,43.06,47.1Zm.683,6.145a9.779,9.779,0,0,1-.606-1.462H40.515A7.834,7.834,0,0,0,45,54.943,5.952,5.952,0,0,1,43.743,53.242Z" transform="translate(-31.747 -31.666)" fill="#fff"/>
  </g>
</svg>
