<svg xmlns="http://www.w3.org/2000/svg" width="16.756" height="15.608" viewBox="0 0 16.756 15.608">
  <g id="chatbot_1_" data-name="chatbot (1)" transform="translate(-82 -134.62)">
    <g id="Group_56688" data-name="Group 56688" transform="translate(82 134.62)">
      <g id="XMLID_1_" transform="translate(0)">
        <path id="Path_203414" data-name="Path 203414" d="M645.8,521.98a.569.569,0,0,1,.569.568v.869H641.83v-.869a.569.569,0,0,1,.569-.568Z" transform="translate(-635.723 -517.754)" fill="#465def"/>
        <path id="Path_203415" data-name="Path 203415" d="M1442.842,860.725v.777a.946.946,0,0,1-.945.945h-.859v-1.775a3.15,3.15,0,0,0-.128-.891h1.023A.941.941,0,0,1,1442.842,860.725Z" transform="translate(-1426.086 -851.87)" fill="#465def"/>
        <path id="Path_203416" data-name="Path 203416" d="M82.945,859.79h.987a3.15,3.15,0,0,0-.128.891v1.775h-.859a.946.946,0,0,1-.945-.945v-.777a.942.942,0,0,1,.908-.944h.037Z" transform="translate(-82 -851.879)" fill="#465def"/>
        <circle id="Ellipse_5684" data-name="Ellipse 5684" cx="0.884" cy="0.884" r="0.884" transform="translate(4.918 8.749)" fill="#465def"/>
        <circle id="Ellipse_5685" data-name="Ellipse 5685" cx="0.884" cy="0.884" r="0.884" transform="translate(10.071 8.749)" fill="#465def"/>
        <path id="Path_203417" data-name="Path 203417" d="M290.781,687.54a2.77,2.77,0,0,1,2.77,2.771v4.035a2.774,2.774,0,0,1-2.77,2.771h-6.87a2.774,2.774,0,0,1-2.771-2.771V690.31a2.77,2.77,0,0,1,2.77-2.771Zm.393,3.6a1.252,1.252,0,1,0-1.252,1.252A1.253,1.253,0,0,0,291.174,691.141Zm-2,3.188A.184.184,0,0,0,289,694a3.663,3.663,0,0,1-3.316,0,.184.184,0,0,0-.167.328,4.021,4.021,0,0,0,3.651,0Zm-3.15-3.188a1.252,1.252,0,1,0-1.252,1.252A1.253,1.253,0,0,0,286.021,691.141Z" transform="translate(-278.968 -681.508)" fill="#465def"/>
        <path id="Path_203418" data-name="Path 203418" d="M163.189,142.182a1.305,1.305,0,0,0-.176-.018h-.193a7.292,7.292,0,0,0-14.581,0h-.192a1.3,1.3,0,0,0-.177.019,7.657,7.657,0,0,1,12.532-5.813,7.652,7.652,0,0,1,2.787,5.813Z" transform="translate(-147.151 -134.62)" fill="#465def"/>
        <path id="Path_203419" data-name="Path 203419" d="M833.488,322.024v1.631h-.368v-1.631a.184.184,0,1,1,.368,0Z" transform="translate(-824.926 -319.798)" fill="#465def"/>
      </g>
    </g>
  </g>
</svg>
