<svg xmlns="http://www.w3.org/2000/svg" width="365.707" height="479.555" viewBox="0 0 365.707 479.555">
  <g id="Website_Bot" data-name="Website Bot" transform="translate(16629.836 -1852.945)">
    <path id="Rectangle_12919" data-name="Rectangle 12919" d="M22,0H343.481a22,22,0,0,1,22,22V479.265a0,0,0,0,1,0,0H0a0,0,0,0,1,0,0V22A22,22,0,0,1,22,0Z" transform="translate(-16629.836 1853.235)" fill="#fff"/>
    <path id="Rectangle_12920" data-name="Rectangle 12920" d="M22,0H343.481a22,22,0,0,1,22,22V70.568a0,0,0,0,1,0,0H0a0,0,0,0,1,0,0V22A22,22,0,0,1,22,0Z" transform="translate(-16629.609 1852.945)" fill="#1d2d35"/>
    <g id="Group_124745" data-name="Group 124745" transform="translate(0 0.842)">
      <text id="Available_24_7" data-name="Available 24/7" transform="translate(-16533.023 1899.845)" fill="#fff" font-size="7" font-family="Arial-BoldMT, Arial" font-weight="700"><tspan x="0" y="0">Available 24/7</tspan></text>
      <text id="SmatBot_AI_Chatbot" data-name="SmatBot AI Chatbot" transform="translate(-16533.023 1886.103)" fill="#fff" font-size="12" font-family="Arial-BoldMT, Arial" font-weight="700"><tspan x="0" y="0">SmatBot AI Chatbot</tspan></text>
    </g>
    <path id="angle-small-down" d="M18.179,7.827a1.409,1.409,0,0,0-1.994,0l-4.308,4.307a.47.47,0,0,1-.664,0L6.906,7.827A1.409,1.409,0,0,0,4.912,9.82l4.308,4.308a3.288,3.288,0,0,0,4.65,0L18.179,9.82A1.409,1.409,0,0,0,18.179,7.827Z" transform="translate(-16315.287 1878.588)" fill="#fff"/>
    <g id="menu-dots-vertical" transform="translate(-16336.992 1881.635)">
      <circle id="Ellipse_88" data-name="Ellipse 88" cx="1.82" cy="1.82" r="1.82" transform="translate(0)" fill="#fff"/>
      <circle id="Ellipse_89" data-name="Ellipse 89" cx="1.82" cy="1.82" r="1.82" transform="translate(0 6.915)" fill="#fff"/>
      <circle id="Ellipse_90" data-name="Ellipse 90" cx="1.82" cy="1.82" r="1.82" transform="translate(0 13.83)" fill="#fff"/>
    </g>
    <path id="angle-left_1_" data-name="angle-left (1)" d="M14.7,1.1a1.092,1.092,0,0,1-.32.772L8.794,7.453a1.82,1.82,0,0,0,0,2.574L14.371,15.6a1.092,1.092,0,1,1-1.544,1.544L7.25,11.575a4.008,4.008,0,0,1,0-5.662L12.835.324A1.092,1.092,0,0,1,14.7,1.1Z" transform="translate(-16612.396 1881.631)" fill="#fff"/>
    <rect id="Rectangle_12921" data-name="Rectangle 12921" width="4.367" height="254.039" rx="2.184" transform="translate(-16269.152 1984.149)" fill="#dbe5ed"/>
    <rect id="Rectangle_44397" data-name="Rectangle 44397" width="235.842" height="179.521" rx="28" transform="translate(-16573.059 2068.581)" fill="#f5f9ff"/>
    <rect id="Rectangle_12926" data-name="Rectangle 12926" width="125.963" height="46" rx="23" transform="translate(-16573.059 1941)" fill="#f5f9ff"/>
    <rect id="Rectangle_12924" data-name="Rectangle 12924" width="237.298" height="46" rx="23" transform="translate(-16524.289 2003)" fill="#1d2d35"/>
    <text id="Yes_we_offer_ChatGPT_integration_with_SmatBot._It_allows_you_to_supercharge_conversations_and_provide_an_exceptional_user_experience._You_can_learn_more_about_our_ChatGPT_integration_and_its_benefits_on_our_website_:_https:_www.smatbot.com_ai-services" data-name="Yes, we offer ChatGPT integration with
SmatBot. It allows you to supercharge 
conversations and provide an exceptional user experience. You can learn more about our ChatGPT integration and its benefits on 
our website :
https://www.smatbot.com/ai-services" transform="translate(-16552.678 2088.234)" fill="#1d2d35" font-size="10" font-family="Arial-BoldMT, Arial" font-weight="700"><tspan x="0" y="9">Yes, we offer ChatGPT integration with</tspan><tspan x="0" y="27">SmatBot. It allows you to supercharge </tspan><tspan x="0" y="45">conversations and provide an </tspan><tspan x="0" y="63">exceptional user experience. You can </tspan><tspan x="0" y="81">learn more about our ChatGPT </tspan><tspan x="0" y="99">integration and its benefits on </tspan><tspan x="0" y="117">our website :</tspan><tspan fill="#1793ff"><tspan x="0" y="135">https://www.smatbot.com/ai-services</tspan></tspan></text>
    <text id="Ask_Us_Anything" data-name="Ask Us Anything" transform="translate(-16552.678 1968)" fill="#1d2d35" font-size="10" font-family="Arial-BoldMT, Arial" font-weight="700"><tspan x="0" y="0">Ask Us Anything</tspan></text>
    <text id="_12:34" data-name="12:34" transform="translate(-16572.836 1998.859)" fill="#1d2d35" font-size="6" font-family="Arial-BoldMT, Arial" font-weight="700" opacity="0.6"><tspan x="0" y="0">12:34</tspan></text>
    <text id="_12:34-2" data-name="12:34" transform="translate(-16572.836 2259.102)" fill="#1d2d35" font-size="6" font-family="Arial-BoldMT, Arial" font-weight="700" opacity="0.6"><tspan x="0" y="0">12:34</tspan></text>
    <text id="_12:34-3" data-name="12:34" transform="translate(-16303 2060.187)" fill="#1d2d35" font-size="6" font-family="Arial-BoldMT, Arial" font-weight="700" opacity="0.6"><tspan x="0" y="0">12:34</tspan></text>
    <text id="We_are_looking_for_ChatGpt_Integration" data-name="We are looking for ChatGpt Integration" transform="translate(-16500.27 2030)" fill="#fff" font-size="10" font-family="Arial-BoldMT, Arial" font-weight="700"><tspan x="0" y="0">We are looking for ChatGpt Integration</tspan></text>
    <g id="woman" transform="translate(-16583.023 1869.989)">
      <ellipse id="Ellipse_6713" data-name="Ellipse 6713" cx="19.958" cy="19.948" rx="19.958" ry="19.948" fill="#ffcf02"/>
      <path id="Path_259232" data-name="Path 259232" d="M144.328,88.663h0a9.509,9.509,0,0,1-9.509-9.509V71.2a9.509,9.509,0,0,1,9.509-9.509h0a9.509,9.509,0,0,1,9.509,9.509v7.95A9.509,9.509,0,0,1,144.328,88.663Z" transform="translate(-124.3 -56.855)" fill="#1a1a1a"/>
      <path id="Path_259233" data-name="Path 259233" d="M255.956,61.7h0V88.663h0a9.509,9.509,0,0,0,9.509-9.509V71.2A9.509,9.509,0,0,0,255.956,61.7Z" transform="translate(-235.947 -56.855)" fill="#1a1a1a"/>
      <circle id="Ellipse_6714" data-name="Ellipse 6714" cx="2.102" cy="2.102" r="2.102" transform="translate(10.77 17.563)" fill="#ffcdbe"/>
      <circle id="Ellipse_6715" data-name="Ellipse 6715" cx="2.102" cy="2.102" r="2.102" transform="translate(25.081 17.563)" fill="#ffdecf"/>
      <path id="Path_259234" data-name="Path 259234" d="M132.125,322.164a19.8,19.8,0,0,0,10.483-2.987l-.724-6.692a2.361,2.361,0,0,0-2.047-2.093l-5.037-.606V306h-5.351v3.786l-5.037.606a2.361,2.361,0,0,0-2.047,2.093l-.724,6.692A19.8,19.8,0,0,0,132.125,322.164Z" transform="translate(-112.097 -282.129)" fill="#ffcdbe"/>
      <path id="Path_259235" data-name="Path 259235" d="M266.5,319.177l-.728-6.692a2.368,2.368,0,0,0-2.058-2.093l-5.065-.606V306h-2.694v16.164h0A19.992,19.992,0,0,0,266.5,319.177Z" transform="translate(-235.95 -282.129)" fill="#ffcdbe"/>
      <path id="Path_259236" data-name="Path 259236" d="M141.885,359.473a2.361,2.361,0,0,0-2.047-2.093l-3.249-.391a4.713,4.713,0,0,1-9.078.018l-3.1.372a2.361,2.361,0,0,0-2.047,2.093l-.724,6.692a19.888,19.888,0,0,0,20.966,0Z" transform="translate(-112.098 -329.117)" fill="#ff6838"/>
      <path id="Path_259237" data-name="Path 259237" d="M266.5,366.165l-.728-6.692a2.368,2.368,0,0,0-2.058-2.093l-3.267-.391a4.748,4.748,0,0,1-4.493,3.452v8.711h0A19.992,19.992,0,0,0,266.5,366.165Z" transform="translate(-235.949 -329.117)" fill="#ff6838"/>
      <path id="Path_259238" data-name="Path 259238" d="M303.374,357.912l-1.495,11.768a19.94,19.94,0,0,0,4.53-1.392l-.024-9.985a2.36,2.36,0,0,0-.35-.073Z" transform="translate(-278.271 -329.968)" fill="#06a"/>
      <path id="Path_259239" data-name="Path 259239" d="M152.761,358.231a2.381,2.381,0,0,0-.35.073l-.024,9.985a19.944,19.944,0,0,0,4.53,1.392l-1.495-11.768Z" transform="translate(-140.47 -329.969)" fill="#06a"/>
      <path id="Path_259240" data-name="Path 259240" d="M184.524,355.42l2.774,3.871a1.52,1.52,0,0,0,2.508-.052l.324-.5-3.272-3.6Z" transform="translate(-170.095 -327.384)" fill="#e86035"/>
      <path id="Path_259241" data-name="Path 259241" d="M261.565,355.42l-2.774,3.871a1.521,1.521,0,0,1-2.508-.052l-.331-.5,3.279-3.6Z" transform="translate(-235.939 -327.385)" fill="#e86035"/>
      <path id="SVGCleanerId_0" d="M168.915,115.067h0a7.415,7.415,0,0,1-7.415-7.415v-4.237A7.415,7.415,0,0,1,168.915,96h0a7.415,7.415,0,0,1,7.415,7.415v4.237A7.415,7.415,0,0,1,168.915,115.067Z" transform="translate(-148.887 -88.517)" fill="#ffdecf"/>
      <g id="Group_81954" data-name="Group 81954" transform="translate(12.613 7.483)">
        <path id="SVGCleanerId_0_1_" d="M168.915,115.067h0a7.415,7.415,0,0,1-7.415-7.415v-4.237A7.415,7.415,0,0,1,168.915,96h0a7.415,7.415,0,0,1,7.415,7.415v4.237A7.415,7.415,0,0,1,168.915,115.067Z" transform="translate(-161.5 -96)" fill="#ffdecf"/>
      </g>
      <path id="Path_259242" data-name="Path 259242" d="M255.956,96h0v19.067h0a7.415,7.415,0,0,0,7.415-7.415v-4.237A7.415,7.415,0,0,0,255.956,96Z" transform="translate(-235.942 -88.517)" fill="#ffdecf"/>
      <path id="Path_259243" data-name="Path 259243" d="M149.271,79.821a2.962,2.962,0,0,0,2.965,2.942h.543a3.668,3.668,0,0,1,3.668,3.668v2.078a1.2,1.2,0,0,0,1.205-1.193V79.38a5.424,5.424,0,0,0-2.738-4.712l-6.9-2.1a8.757,8.757,0,0,0-7.828,8.707v2.16l.726-.224v4.1a1.193,1.193,0,0,0,1.193,1.193h0V86.432a3.668,3.668,0,0,1,3.668-3.668h.543A2.956,2.956,0,0,0,149.271,79.821Z" transform="translate(-129.241 -66.878)" fill="#1a1a1a"/>
      <path id="Path_259244" data-name="Path 259244" d="M261.6,79.146l-5.648-1.715v7.014c0-.048,0-.1,0-.146a2.962,2.962,0,0,0,2.965,2.942h.543a3.668,3.668,0,0,1,3.668,3.668v2.078a1.2,1.2,0,0,0,1.205-1.193V83.858A5.424,5.424,0,0,0,261.6,79.146Z" transform="translate(-235.944 -71.39)" fill="#1a1a1a"/>
      <path id="Path_259245" data-name="Path 259245" d="M205.038,231.463h0a.638.638,0,0,1-.638-.638v-.934a.638.638,0,0,1,.638-.638h0a.638.638,0,0,1,.638.638v.934A.638.638,0,0,1,205.038,231.463Z" transform="translate(-188.411 -211.331)" fill="#4d4d4d"/>
      <path id="Path_259246" data-name="Path 259246" d="M291.976,231.463h0a.638.638,0,0,1-.638-.638v-.934a.638.638,0,0,1,.638-.638h0a.638.638,0,0,1,.638.638v.934A.638.638,0,0,1,291.976,231.463Z" transform="translate(-268.548 -211.331)" fill="#333"/>
      <path id="Path_259247" data-name="Path 259247" d="M165.065,218.3h-1.772a2.5,2.5,0,0,1-2.5-2.5v-2.348h6.77V215.8A2.5,2.5,0,0,1,165.065,218.3Zm-3.329-3.905V215.8a1.559,1.559,0,0,0,1.557,1.557h1.772a1.559,1.559,0,0,0,1.557-1.557V214.4Z" transform="translate(-148.222 -196.772)" fill="gray"/>
      <path id="Path_259248" data-name="Path 259248" d="M266.523,218.3h-1.772a2.5,2.5,0,0,1-2.5-2.5v-2.348h6.77V215.8A2.5,2.5,0,0,1,266.523,218.3Zm-3.329-3.905V215.8a1.559,1.559,0,0,0,1.557,1.557h1.772a1.559,1.559,0,0,0,1.557-1.557V214.4Z" transform="translate(-241.748 -196.772)" fill="#666"/>
      <rect id="Rectangle_44395" data-name="Rectangle 44395" width="2.103" height="0.942" transform="translate(18.916 17.45)" fill="gray"/>
      <rect id="Rectangle_44396" data-name="Rectangle 44396" width="0.995" height="0.942" transform="translate(20.022 17.45)" fill="#666"/>
      <path id="Path_259249" data-name="Path 259249" d="M229.736,286.986a2.239,2.239,0,0,1-2.236-2.236h.942a1.295,1.295,0,0,0,2.589,0h.942A2.239,2.239,0,0,1,229.736,286.986Z" transform="translate(-209.709 -262.489)" fill="#ff6838"/>
      <path id="Path_259250" data-name="Path 259250" d="M257.25,284.75a1.3,1.3,0,0,1-1.295,1.295h0v.942h0a2.239,2.239,0,0,0,2.236-2.236Z" transform="translate(-235.932 -262.489)" fill="#ff6838"/>
    </g>
    <g id="man_1_" data-name="man (1)" transform="translate(-16606.543 1958.464)">
      <path id="Path_259251" data-name="Path 259251" d="M37.266,41.88A13.83,13.83,0,1,0,12.4,41.9Z" transform="translate(-10.998 -20.754)" fill="#88ce65"/>
      <path id="Path_259252" data-name="Path 259252" d="M138.839,296.651a4.183,4.183,0,0,0-2.648-2.308l-5.5-1.9-6.451-.019-.083,2.083a11.608,11.608,0,0,0-2.614.8c-1.773.807-2.71,1.952-2.71,3.309v3.83a13.834,13.834,0,0,0,20.181-5.407C138.96,296.913,138.9,296.781,138.839,296.651Z" transform="translate(-112.746 -275.922)" fill="#49b1f7"/>
      <path id="Path_259253" data-name="Path 259253" d="M44.174,292.341l-5.49,1.878a4.185,4.185,0,0,0-2.658,2.3q-.114.228-.206.466a13.893,13.893,0,0,0,4.771,5.446v-3.887c0-3.232,5.321-4.039,5.321-4.039L46,292.346Z" transform="translate(-34.42 -275.839)" fill="#1fa2ea"/>
      <path id="Path_259254" data-name="Path 259254" d="M241.044,319.24v-5.447a.383.383,0,0,0-.382-.382h-1.176a.383.383,0,0,0-.382.382v5.447Z" transform="translate(-226.227 -295.719)" fill="#73c3f9"/>
      <path id="Path_259255" data-name="Path 259255" d="M167.482,0a5.329,5.329,0,0,0-5.313,5.313V7.79H172.8V5.313A5.329,5.329,0,0,0,167.482,0Z" transform="translate(-153.635)" fill="#56415e"/>
      <path id="Path_259256" data-name="Path 259256" d="M162.169,5.313V7.79H163c1.788-1.2,4.59-3.346,3.819-4.629A2.4,2.4,0,0,1,167.482,0a5.329,5.329,0,0,0-5.313,5.313Z" transform="translate(-153.635 0)" fill="#45304c"/>
      <path id="Path_259257" data-name="Path 259257" d="M335.689,130.1a.94.94,0,0,0-.949.025,2.8,2.8,0,0,1,.008.825l-.235,1.714c0,.138,0,.274-.012.407a.776.776,0,0,0,.964-.7,2.629,2.629,0,0,1,.1-.449C335.719,131.452,336.269,130.632,335.689,130.1Z" transform="translate(-316.239 -122.643)" fill="#ffd9a1"/>
      <path id="Path_259258" data-name="Path 259258" d="M152.693,130.1a.94.94,0,0,1,.949.025,2.8,2.8,0,0,0-.008.825l.235,1.714q0,.207.012.407a.776.776,0,0,1-.964-.7,2.632,2.632,0,0,0-.1-.449C152.663,131.452,152.112,130.632,152.693,130.1Z" transform="translate(-144.449 -122.643)" fill="#f9c98a"/>
      <path id="Path_259259" data-name="Path 259259" d="M224.683,55.324a2.287,2.287,0,0,0-.2-.41,1.232,1.232,0,0,1-.186-.752c.055-.759.025-2.242-.97-2.69a3.678,3.678,0,0,0-2.546.06,2.1,2.1,0,0,1-1.325,0c-.06-.02-.123-.04-.188-.059-.765.585-.784,1.9-.732,2.607a1.251,1.251,0,0,1-.191.764,2.335,2.335,0,0,0-.2.407,2.811,2.811,0,0,0-.159,1.4l.241,1.758a6.46,6.46,0,0,0,2.5,5.137,3.4,3.4,0,0,0,.553.349,3.326,3.326,0,0,0,.893-.494,6.3,6.3,0,0,0,2.435-5.01l.235-1.714a2.743,2.743,0,0,0-.15-1.355Z" transform="translate(-206.267 -48.371)" fill="#fce6ca"/>
      <g id="Group_81955" data-name="Group 81955" transform="translate(9.101 2.894)">
        <path id="Path_259260" data-name="Path 259260" d="M177.591,63.4a6.3,6.3,0,0,1-2.436-5.01l-.235-1.715a2.742,2.742,0,0,1,.155-1.368,2.271,2.271,0,0,1,.2-.4,1.221,1.221,0,0,0,.187-.745c-.053-.726-.03-2.126.852-2.636h0a3.678,3.678,0,0,0-2.546-.06c-1,.449-1.025,1.94-.97,2.7a1.22,1.22,0,0,1-.187.745,2.279,2.279,0,0,0-.2.4,2.742,2.742,0,0,0-.155,1.368l.235,1.715a6.3,6.3,0,0,0,2.435,5.01,3.347,3.347,0,0,0,3.382.423A3.323,3.323,0,0,1,177.591,63.4Z" transform="translate(-172.226 -51.264)" fill="#ffd9a1"/>
      </g>
      <path id="Path_259261" data-name="Path 259261" d="M239.179,170.553a4.551,4.551,0,0,0,.088-2.8h-.088a1.019,1.019,0,0,0-1.016.953,4.366,4.366,0,0,1-.77,2.534c-.631.631-1.5.2-1.944-.1a1.322,1.322,0,0,0-.741-.227h0a1.323,1.323,0,0,0-.742.227,3.076,3.076,0,0,1-.454.256,2.455,2.455,0,0,0,.96,2.7c.632.481.352,1.1,0,1.882a2.675,2.675,0,0,0-.214,2.591,4.187,4.187,0,0,0,2.634-.557C240.962,175.1,238.663,171.649,239.179,170.553Z" transform="translate(-220.861 -158.286)" fill="#56415e"/>
      <path id="Path_259262" data-name="Path 259262" d="M176.769,174.011a2.33,2.33,0,0,1-.892-2.68,1.323,1.323,0,0,1-1.622-.089,4.366,4.366,0,0,1-.77-2.534,1.1,1.1,0,0,0-1.1-.953,4.551,4.551,0,0,0,.088,2.8c.516,1.1-1.807,4.585,2.289,7.459a3.694,3.694,0,0,0,1.86.566C175.474,176.817,178.176,175.083,176.769,174.011Z" transform="translate(-163.094 -158.285)" fill="#45304c"/>
      <path id="Path_259263" data-name="Path 259263" d="M256.294,181.593v.349a1.034,1.034,0,0,0,.7.99l.22.049a2.784,2.784,0,0,1,2,1.715.247.247,0,0,0,.476-.095l-.019-.886a2.323,2.323,0,0,0-1.584-2.174l-1.234-.363A.433.433,0,0,0,256.294,181.593Z" transform="translate(-242.447 -170.933)" fill="#56415e"/>
      <path id="Path_259264" data-name="Path 259264" d="M219.529,182.535a1.065,1.065,0,0,0,.57.616l0,.012a2.78,2.78,0,0,1,.544-.182l.22-.049a1.034,1.034,0,0,0,.7-.989v-.349a.433.433,0,0,0-.555-.416l-1.234.363c-.047.011-.093.024-.139.039A1.354,1.354,0,0,0,219.529,182.535Z" transform="translate(-207.71 -170.934)" fill="#56415e"/>
      <path id="Path_259265" data-name="Path 259265" d="M196.226,190.074l-.019.886a.247.247,0,0,0,.476.095,2.783,2.783,0,0,1,1.6-1.594v0a1.048,1.048,0,0,1-.474-1.559,2.323,2.323,0,0,0-1.584,2.174Z" transform="translate(-185.752 -177.293)" fill="#45304c"/>
      <path id="Path_259266" data-name="Path 259266" d="M239.1,415.674v1.306a.383.383,0,0,0,.382.382h1.176a.383.383,0,0,0,.382-.382v-1.306Z" transform="translate(-226.228 -392.209)" fill="#9bd8f9"/>
      <path id="Path_259267" data-name="Path 259267" d="M380.278,77.746a3.172,3.172,0,0,0-1.5,3.314c.693,4.135-2.5,6.245,2.488,8.462a10.21,10.21,0,0,1,3.585,2.5,13.848,13.848,0,0,0-4.575-14.274Z" transform="translate(-357.664 -73.357)" fill="#b4d667"/>
      <path id="Path_259268" data-name="Path 259268" d="M16.045,77.746a3.172,3.172,0,0,1,1.5,3.314c-.693,4.135,2.5,6.245-2.488,8.462a10.21,10.21,0,0,0-3.585,2.5,13.848,13.848,0,0,1,4.575-14.274Z" transform="translate(-10.998 -73.357)" fill="#b4d667"/>
      <path id="Path_259269" data-name="Path 259269" d="M398.349,394.233a3.442,3.442,0,0,0-1.536-2.141.529.529,0,0,0-.813.445V396.3A13.9,13.9,0,0,0,398.349,394.233Z" transform="translate(-374.267 -369.879)" fill="#1fa2ea"/>
    </g>
    <g id="man_1_2" data-name="man (1)" transform="translate(-16606.543 2107.888)">
      <path id="Path_259251-2" data-name="Path 259251" d="M37.266,41.88A13.83,13.83,0,1,0,12.4,41.9Z" transform="translate(-10.998 -20.754)" fill="#88ce65"/>
      <path id="Path_259252-2" data-name="Path 259252" d="M138.839,296.651a4.183,4.183,0,0,0-2.648-2.308l-5.5-1.9-6.451-.019-.083,2.083a11.608,11.608,0,0,0-2.614.8c-1.773.807-2.71,1.952-2.71,3.309v3.83a13.834,13.834,0,0,0,20.181-5.407C138.96,296.913,138.9,296.781,138.839,296.651Z" transform="translate(-112.746 -275.922)" fill="#49b1f7"/>
      <path id="Path_259253-2" data-name="Path 259253" d="M44.174,292.341l-5.49,1.878a4.185,4.185,0,0,0-2.658,2.3q-.114.228-.206.466a13.893,13.893,0,0,0,4.771,5.446v-3.887c0-3.232,5.321-4.039,5.321-4.039L46,292.346Z" transform="translate(-34.42 -275.839)" fill="#1fa2ea"/>
      <path id="Path_259254-2" data-name="Path 259254" d="M241.044,319.24v-5.447a.383.383,0,0,0-.382-.382h-1.176a.383.383,0,0,0-.382.382v5.447Z" transform="translate(-226.227 -295.719)" fill="#73c3f9"/>
      <path id="Path_259255-2" data-name="Path 259255" d="M167.482,0a5.329,5.329,0,0,0-5.313,5.313V7.79H172.8V5.313A5.329,5.329,0,0,0,167.482,0Z" transform="translate(-153.635)" fill="#56415e"/>
      <path id="Path_259256-2" data-name="Path 259256" d="M162.169,5.313V7.79H163c1.788-1.2,4.59-3.346,3.819-4.629A2.4,2.4,0,0,1,167.482,0a5.329,5.329,0,0,0-5.313,5.313Z" transform="translate(-153.635 0)" fill="#45304c"/>
      <path id="Path_259257-2" data-name="Path 259257" d="M335.689,130.1a.94.94,0,0,0-.949.025,2.8,2.8,0,0,1,.008.825l-.235,1.714c0,.138,0,.274-.012.407a.776.776,0,0,0,.964-.7,2.629,2.629,0,0,1,.1-.449C335.719,131.452,336.269,130.632,335.689,130.1Z" transform="translate(-316.239 -122.643)" fill="#ffd9a1"/>
      <path id="Path_259258-2" data-name="Path 259258" d="M152.693,130.1a.94.94,0,0,1,.949.025,2.8,2.8,0,0,0-.008.825l.235,1.714q0,.207.012.407a.776.776,0,0,1-.964-.7,2.632,2.632,0,0,0-.1-.449C152.663,131.452,152.112,130.632,152.693,130.1Z" transform="translate(-144.449 -122.643)" fill="#f9c98a"/>
      <path id="Path_259259-2" data-name="Path 259259" d="M224.683,55.324a2.287,2.287,0,0,0-.2-.41,1.232,1.232,0,0,1-.186-.752c.055-.759.025-2.242-.97-2.69a3.678,3.678,0,0,0-2.546.06,2.1,2.1,0,0,1-1.325,0c-.06-.02-.123-.04-.188-.059-.765.585-.784,1.9-.732,2.607a1.251,1.251,0,0,1-.191.764,2.335,2.335,0,0,0-.2.407,2.811,2.811,0,0,0-.159,1.4l.241,1.758a6.46,6.46,0,0,0,2.5,5.137,3.4,3.4,0,0,0,.553.349,3.326,3.326,0,0,0,.893-.494,6.3,6.3,0,0,0,2.435-5.01l.235-1.714a2.743,2.743,0,0,0-.15-1.355Z" transform="translate(-206.267 -48.371)" fill="#fce6ca"/>
      <g id="Group_81955-2" data-name="Group 81955" transform="translate(9.101 2.894)">
        <path id="Path_259260-2" data-name="Path 259260" d="M177.591,63.4a6.3,6.3,0,0,1-2.436-5.01l-.235-1.715a2.742,2.742,0,0,1,.155-1.368,2.271,2.271,0,0,1,.2-.4,1.221,1.221,0,0,0,.187-.745c-.053-.726-.03-2.126.852-2.636h0a3.678,3.678,0,0,0-2.546-.06c-1,.449-1.025,1.94-.97,2.7a1.22,1.22,0,0,1-.187.745,2.279,2.279,0,0,0-.2.4,2.742,2.742,0,0,0-.155,1.368l.235,1.715a6.3,6.3,0,0,0,2.435,5.01,3.347,3.347,0,0,0,3.382.423A3.323,3.323,0,0,1,177.591,63.4Z" transform="translate(-172.226 -51.264)" fill="#ffd9a1"/>
      </g>
      <path id="Path_259261-2" data-name="Path 259261" d="M239.179,170.553a4.551,4.551,0,0,0,.088-2.8h-.088a1.019,1.019,0,0,0-1.016.953,4.366,4.366,0,0,1-.77,2.534c-.631.631-1.5.2-1.944-.1a1.322,1.322,0,0,0-.741-.227h0a1.323,1.323,0,0,0-.742.227,3.076,3.076,0,0,1-.454.256,2.455,2.455,0,0,0,.96,2.7c.632.481.352,1.1,0,1.882a2.675,2.675,0,0,0-.214,2.591,4.187,4.187,0,0,0,2.634-.557C240.962,175.1,238.663,171.649,239.179,170.553Z" transform="translate(-220.861 -158.286)" fill="#56415e"/>
      <path id="Path_259262-2" data-name="Path 259262" d="M176.769,174.011a2.33,2.33,0,0,1-.892-2.68,1.323,1.323,0,0,1-1.622-.089,4.366,4.366,0,0,1-.77-2.534,1.1,1.1,0,0,0-1.1-.953,4.551,4.551,0,0,0,.088,2.8c.516,1.1-1.807,4.585,2.289,7.459a3.694,3.694,0,0,0,1.86.566C175.474,176.817,178.176,175.083,176.769,174.011Z" transform="translate(-163.094 -158.285)" fill="#45304c"/>
      <path id="Path_259263-2" data-name="Path 259263" d="M256.294,181.593v.349a1.034,1.034,0,0,0,.7.99l.22.049a2.784,2.784,0,0,1,2,1.715.247.247,0,0,0,.476-.095l-.019-.886a2.323,2.323,0,0,0-1.584-2.174l-1.234-.363A.433.433,0,0,0,256.294,181.593Z" transform="translate(-242.447 -170.933)" fill="#56415e"/>
      <path id="Path_259264-2" data-name="Path 259264" d="M219.529,182.535a1.065,1.065,0,0,0,.57.616l0,.012a2.78,2.78,0,0,1,.544-.182l.22-.049a1.034,1.034,0,0,0,.7-.989v-.349a.433.433,0,0,0-.555-.416l-1.234.363c-.047.011-.093.024-.139.039A1.354,1.354,0,0,0,219.529,182.535Z" transform="translate(-207.71 -170.934)" fill="#56415e"/>
      <path id="Path_259265-2" data-name="Path 259265" d="M196.226,190.074l-.019.886a.247.247,0,0,0,.476.095,2.783,2.783,0,0,1,1.6-1.594v0a1.048,1.048,0,0,1-.474-1.559,2.323,2.323,0,0,0-1.584,2.174Z" transform="translate(-185.752 -177.293)" fill="#45304c"/>
      <path id="Path_259266-2" data-name="Path 259266" d="M239.1,415.674v1.306a.383.383,0,0,0,.382.382h1.176a.383.383,0,0,0,.382-.382v-1.306Z" transform="translate(-226.228 -392.209)" fill="#9bd8f9"/>
      <path id="Path_259267-2" data-name="Path 259267" d="M380.278,77.746a3.172,3.172,0,0,0-1.5,3.314c.693,4.135-2.5,6.245,2.488,8.462a10.21,10.21,0,0,1,3.585,2.5,13.848,13.848,0,0,0-4.575-14.274Z" transform="translate(-357.664 -73.357)" fill="#b4d667"/>
      <path id="Path_259268-2" data-name="Path 259268" d="M16.045,77.746a3.172,3.172,0,0,1,1.5,3.314c-.693,4.135,2.5,6.245-2.488,8.462a10.21,10.21,0,0,0-3.585,2.5,13.848,13.848,0,0,1,4.575-14.274Z" transform="translate(-10.998 -73.357)" fill="#b4d667"/>
      <path id="Path_259269-2" data-name="Path 259269" d="M398.349,394.233a3.442,3.442,0,0,0-1.536-2.141.529.529,0,0,0-.813.445V396.3A13.9,13.9,0,0,0,398.349,394.233Z" transform="translate(-374.267 -369.879)" fill="#1fa2ea"/>
    </g>
  </g>
</svg>
