<svg xmlns="http://www.w3.org/2000/svg" xmlns:xlink="http://www.w3.org/1999/xlink" width="294" height="144" viewBox="0 0 294 144">
  <defs>
    <linearGradient id="linear-gradient" x1="0.5" y1="1.674" x2="0.5" y2="-0.3" gradientUnits="objectBoundingBox">
      <stop offset="0" stop-color="#fff"/>
      <stop offset="0.09" stop-color="#fffff8" stop-opacity="0"/>
      <stop offset="0.22" stop-color="#ffffe7" stop-opacity="0"/>
      <stop offset="0.36" stop-color="#ffffca" stop-opacity="0.102"/>
      <stop offset="0.52" stop-color="#ffffa2"/>
      <stop offset="0.69" stop-color="#ffff6e"/>
      <stop offset="0.87" stop-color="#ffff30"/>
      <stop offset="1" stop-color="#ff0"/>
    </linearGradient>
    <linearGradient id="linear-gradient-2" x1="0.164" y1="0.824" x2="0.897" y2="0.139" gradientUnits="objectBoundingBox">
      <stop offset="0" stop-color="#fff"/>
      <stop offset="0.56" stop-color="#fff"/>
      <stop offset="1" stop-color="#fff"/>
    </linearGradient>
    <linearGradient id="linear-gradient-3" x1="0.164" y1="0.824" x2="0.897" y2="0.139" xlink:href="#linear-gradient-2"/>
    <linearGradient id="linear-gradient-4" x1="0.17" y1="0.832" x2="0.874" y2="0.13" xlink:href="#linear-gradient-2"/>
    <filter id="Rectangle_15679" x="0" y="43" width="71" height="71" filterUnits="userSpaceOnUse">
      <feOffset dx="2" dy="3" input="SourceAlpha"/>
      <feGaussianBlur stdDeviation="3" result="blur"/>
      <feFlood flood-color="#465def" flood-opacity="0.141"/>
      <feComposite operator="in" in2="blur"/>
      <feComposite in="SourceGraphic"/>
    </filter>
    <linearGradient id="linear-gradient-5" x1="0.198" y1="0.216" x2="0.762" y2="0.785" gradientUnits="objectBoundingBox">
      <stop offset="0" stop-color="#004c8c"/>
      <stop offset="0.19" stop-color="#004c8c" stop-opacity="0.839"/>
      <stop offset="0.6" stop-color="#004c8c" stop-opacity="0.42"/>
      <stop offset="0.97" stop-color="#004c8c" stop-opacity="0"/>
    </linearGradient>
  </defs>
  <g id="Group_126388" data-name="Group 126388" transform="translate(18168 -3980)">
    <path id="Path_308008" data-name="Path 308008" d="M72,0H189a72,72,0,0,1,0,144H72A72,72,0,0,1,72,0Z" transform="translate(-18135 3980)" fill="#0a72d4"/>
    <g id="_4200_3_03_Converted_" data-name="4200_3_03 [Converted]" transform="translate(-18072.766 3980)">
      <g id="Group_80804" data-name="Group 80804" transform="translate(23.76 30.893)">
        <path id="Path_259081" data-name="Path 259081" d="M601.77,844.263,629.1,782.42h29.866l27.257,62.488" transform="translate(-601.77 -782.42)" fill="url(#linear-gradient)"/>
      </g>
      <rect id="Rectangle_28754" data-name="Rectangle 28754" width="2.834" height="18.139" transform="translate(64.637 0.744)" fill="#9a9a9a"/>
      <path id="Path_259082" data-name="Path 259082" d="M1622.522,19.627H1618.2V0h4.322Zm-2.834-1.488h1.347V1.488h-1.347V18.139Z" transform="translate(-1554.307)" fill="#000072"/>
      <g id="Group_80805" data-name="Group 80805" transform="translate(64.637 12.683)" opacity="0.3">
        <path id="Path_259083" data-name="Path 259083" d="M1637.05,327.42h2.834v-6.2l-2.834,1.453Z" transform="translate(-1637.05 -321.22)" fill="#000072"/>
      </g>
      <path id="Path_259084" data-name="Path 259084" d="M1300.022,401.142a5.56,5.56,0,0,0-2.728-1.436,45.021,45.021,0,0,0-17.669.007,5.545,5.545,0,0,0-2.786,1.4c-3.8,3.6-4.09,9.429-4.09,9.429l31.6-.284a15.827,15.827,0,0,0-4.329-9.118Z" transform="translate(-1222.497 -383.087)" fill="#9a9a9a"/>
      <g id="Group_80806" data-name="Group 80806" transform="translate(50.254 15.748)" opacity="0.5">
        <path id="Path_259085" data-name="Path 259085" d="M1276.85,402.633a5.545,5.545,0,0,1,2.786-1.4,45.021,45.021,0,0,1,17.669-.007,5.557,5.557,0,0,1,2.728,1.436,15.143,15.143,0,0,1,4.029,7.6l.3,0a15.827,15.827,0,0,0-4.329-9.118,5.56,5.56,0,0,0-2.728-1.436,45.021,45.021,0,0,0-17.669.007,5.545,5.545,0,0,0-2.786,1.4c-3.8,3.6-4.09,9.429-4.09,9.429l.193,0A14.531,14.531,0,0,1,1276.85,402.633Z" transform="translate(-1272.76 -398.834)" fill="#fff"/>
      </g>
      <g id="Group_80807" data-name="Group 80807" transform="translate(50.253 21.432)" opacity="0.3">
        <path id="Path_259086" data-name="Path 259086" d="M1302.505,542.81a3.961,3.961,0,0,1-3.51,2.167l-21.117.19a3.972,3.972,0,0,1-3.583-2.166,17.211,17.211,0,0,0-1.545,5.834l31.6-.283A18.7,18.7,0,0,0,1302.505,542.81Z" transform="translate(-1272.75 -542.81)" fill="#000072"/>
      </g>
      <path id="Path_259087" data-name="Path 259087" d="M1252.95,393.32l.039-.787c.012-.25.346-6.17,4.321-9.933a6.27,6.27,0,0,1,3.159-1.592,45.976,45.976,0,0,1,17.959,0h0a6.289,6.289,0,0,1,3.093,1.629,16.515,16.515,0,0,1,4.547,9.534l.139.855Zm16.723-11.711a48.006,48.006,0,0,0-8.927.861,4.785,4.785,0,0,0-2.412,1.211c-2.743,2.6-3.55,6.485-3.776,8.137l29.885-.268a14.634,14.634,0,0,0-3.955-7.846,4.8,4.8,0,0,0-2.363-1.243h0A41.494,41.494,0,0,0,1269.673,381.609Z" transform="translate(-1203.478 -365.113)" fill="#000072"/>
      <path id="Path_259088" data-name="Path 259088" d="M1277.848,631.854v1.872a1.312,1.312,0,0,1-1.312,1.313h-31.173a1.312,1.312,0,0,1-1.312-1.312v-1.872a1.313,1.313,0,0,1,1.044-1.285l4.57-.955a29.955,29.955,0,0,1,6.129-.634h10.314a29.956,29.956,0,0,1,6.129.634l4.569.955A1.312,1.312,0,0,1,1277.848,631.854Z" transform="translate(-1194.93 -604.145)" fill="#ccc9c6"/>
      <g id="Group_80808" data-name="Group 80808" transform="translate(49.12 27.951)" opacity="0.6">
        <path id="Path_259089" data-name="Path 259089" d="M1276.525,709.223h-31.173a1.312,1.312,0,0,1-1.312-1.312v1.629a1.312,1.312,0,0,0,1.312,1.312h31.173a1.312,1.312,0,0,0,1.312-1.312V707.91A1.312,1.312,0,0,1,1276.525,709.223Z" transform="translate(-1244.04 -707.91)" fill="#fff"/>
      </g>
      <path id="Path_259090" data-name="Path 259090" d="M1258.429,617.686h-31.173a2.059,2.059,0,0,1-2.056-2.057v-1.872a2.065,2.065,0,0,1,1.636-2.013l4.569-.955a30.78,30.78,0,0,1,6.281-.649H1248a30.781,30.781,0,0,1,6.281.649l4.569.955a2.065,2.065,0,0,1,1.636,2.013v1.872A2.059,2.059,0,0,1,1258.429,617.686Zm-20.743-6.058a29.261,29.261,0,0,0-5.977.618l-4.57.955a.571.571,0,0,0-.452.556v1.872a.569.569,0,0,0,.569.569h31.173a.569.569,0,0,0,.569-.569v-1.872a.571.571,0,0,0-.452-.556l-4.57-.955a29.279,29.279,0,0,0-5.976-.618Z" transform="translate(-1176.824 -586.049)" fill="#000072"/>
      <path id="Path_259091" data-name="Path 259091" d="M411.878,3155.114a3.364,3.364,0,0,1-5.67,2.455,3.376,3.376,0,0,1,0-4.91,3.367,3.367,0,0,1,5.67,2.455Zm-1.225,0a1.89,1.89,0,0,0-.161-.757,1.911,1.911,0,0,0-.451-.621,1.836,1.836,0,0,0-1.378-.463,1.848,1.848,0,0,0,0,3.682,1.834,1.834,0,0,0,1.378-.463,1.857,1.857,0,0,0,.612-1.378Z" transform="translate(-389.153 -3027.303)" fill="#fff"/>
      <g id="Group_80809" data-name="Group 80809" transform="translate(17.823 124.443)" opacity="0.3">
        <path id="Path_259092" data-name="Path 259092" d="M455.38,3152.8a3.366,3.366,0,0,0-3.613-.861,3.526,3.526,0,0,0-.377.17,3.333,3.333,0,0,1,.925.691,3.239,3.239,0,0,1,.405.529,1.828,1.828,0,0,1,1.735.4,1.857,1.857,0,0,1,.612,1.378,1.887,1.887,0,0,1-.161.757,1.914,1.914,0,0,1-.451.621,1.834,1.834,0,0,1-1.378.463,1.863,1.863,0,0,1-.357-.066,3.276,3.276,0,0,1-.405.529,3.323,3.323,0,0,1-.925.691,3.476,3.476,0,0,0,.377.17,3.367,3.367,0,0,0,3.613-5.466Z" transform="translate(-451.39 -3151.736)" fill="#000072"/>
      </g>
      <path id="Path_259093" data-name="Path 259093" d="M396.115,3146.6a3.856,3.856,0,0,1-2.658-1.052,3.885,3.885,0,0,1,0-5.648,3.871,3.871,0,0,1,5.483.173,3.877,3.877,0,0,1-2.653,6.523c-.056,0-.113,0-.17,0Zm0-6.735a2.839,2.839,0,0,0-1.955.773,2.867,2.867,0,0,0,0,4.174,2.859,2.859,0,0,0,4.809-2.087v0a2.846,2.846,0,0,0-.772-1.951,2.9,2.9,0,0,0-1.956-.9c-.042,0-.085,0-.128,0Zm.308,5.216q-.1,0-.2-.009a2.355,2.355,0,0,1-1.559-3.913,2.378,2.378,0,0,1,1.561-.782,2.333,2.333,0,0,1,1.763.592,2.439,2.439,0,0,1,.575.791,2.382,2.382,0,0,1,.205.96v.009a2.387,2.387,0,0,1-.206.961,2.421,2.421,0,0,1-.57.786,2.339,2.339,0,0,1-1.565.605Zm0-3.7c-.037,0-.073,0-.109,0a1.35,1.35,0,0,0-.889.446,1.335,1.335,0,0,0,0,1.774,1.351,1.351,0,0,0,.89.448,1.329,1.329,0,0,0,.993-.334,1.345,1.345,0,0,0,.445-1,1.376,1.376,0,0,0-.117-.55,1.407,1.407,0,0,0-.332-.455A1.33,1.33,0,0,0,396.417,3141.383Z" transform="translate(-376.753 -3014.91)" fill="#000072"/>
      <path id="Path_259094" data-name="Path 259094" d="M518.951,3104.185h-8.272c-1.522-2.207-2.211-5.474-2.619-9.537,1.766-1.257,11.575-1.257,13.51,0C521.162,3098.711,520.473,3101.978,518.951,3104.185Z" transform="translate(-488 -2971.554)" fill="#fff"/>
      <path id="Path_259095" data-name="Path 259095" d="M501.612,3087.555h-8.271a.713.713,0,0,1-.587-.308c-1.435-2.081-2.255-5.033-2.742-9.871a.711.711,0,0,1,.3-.652c1.4-1,5.792-1.074,7.1-1.074s5.7.076,7.207,1.057a.713.713,0,0,1,.321.669c-.486,4.838-1.307,7.79-2.742,9.87a.712.712,0,0,1-.587.308Zm-7.887-1.426h7.5c1.108-1.777,1.809-4.406,2.244-8.407-2.245-.852-9.869-.862-11.991-.015.434,4.009,1.136,6.643,2.245,8.423Z" transform="translate(-470.661 -2954.211)" fill="#000072"/>
      <path id="Path_259096" data-name="Path 259096" d="M518.951,3104.185h-8.272c-1.522-2.207-2.211-5.474-2.619-9.537,1.766-1.257,11.575-1.257,13.51,0C521.162,3098.711,520.473,3101.978,518.951,3104.185Z" transform="translate(-488 -2971.554)" fill="#fff"/>
      <g id="Group_80810" data-name="Group 80810" transform="translate(28.888 110.897)" opacity="0.6">
        <path id="Path_259097" data-name="Path 259097" d="M733.522,2808.66s.229,1.12-1.2,3.232a3.541,3.541,0,0,0-.178,3.921,5.83,5.83,0,0,1,1.145-1.935C734.769,2811.969,733.522,2808.66,733.522,2808.66Z" transform="translate(-731.642 -2808.66)" fill="#fff"/>
      </g>
      <g id="Group_80811" data-name="Group 80811" transform="translate(20.91 113.573)" opacity="0.6">
        <path id="Path_259098" data-name="Path 259098" d="M532.106,2876.44a3.7,3.7,0,0,0-.611,3.5,7.239,7.239,0,0,1,.407,3.394,3.329,3.329,0,0,1-2.316-3.038,4.116,4.116,0,0,1,2.52-3.854Z" transform="translate(-529.58 -2876.44)" fill="#fff"/>
      </g>
      <g id="Group_80812" data-name="Group 80812" transform="translate(23.838 108.414)" opacity="0.6">
        <path id="Path_259099" data-name="Path 259099" d="M606.172,2745.79s1.147,1.711-1.274,4.922c-3.123,4.141,1.052,6.517,1.052,6.517s-.535-1.2,1.6-4.413c2.681-4.039-1.374-7.026-1.374-7.026Z" transform="translate(-603.739 -2745.79)" fill="#fff"/>
      </g>
      <path id="Path_259100" data-name="Path 259100" d="M629.86,3168.257a1.508,1.508,0,0,0-1.568.037l-.047.024a3.517,3.517,0,0,0-1.657,1.605,1.707,1.707,0,0,0-.03,1.36,1.089,1.089,0,0,0,.469.538,1.437,1.437,0,0,0,.585.188,1.644,1.644,0,0,0,.827-.145,3.471,3.471,0,0,0,1.665-2v0l.017-.049a1.318,1.318,0,0,0-.262-1.557Zm-.748.7a1.4,1.4,0,0,0-.558.786,2.159,2.159,0,0,1-.341.664,1.4,1.4,0,0,1-.5.413c-.339.15-.543.065-.528,0s.186-.121.4-.294a1.515,1.515,0,0,0,.305-.351,2.47,2.47,0,0,0,.24-.525,1.754,1.754,0,0,1,.37-.631,1.259,1.259,0,0,1,.511-.335c.33-.1.527-.028.514.027s-.187.1-.405.245Z" transform="translate(-601.697 -3042.969)" fill="#a55942"/>
      <path id="Path_259101" data-name="Path 259101" d="M501.612,3087.555h-8.271a.713.713,0,0,1-.587-.308c-1.435-2.081-2.255-5.033-2.742-9.871a.711.711,0,0,1,.3-.652c1.4-1,5.792-1.074,7.1-1.074s5.7.076,7.207,1.057a.713.713,0,0,1,.321.669c-.486,4.838-1.307,7.79-2.742,9.87a.712.712,0,0,1-.587.308Zm-7.887-1.426h7.5c1.108-1.777,1.809-4.407,2.244-8.407-2.245-.852-9.869-.862-11.991-.015.434,4.009,1.136,6.643,2.245,8.423Z" transform="translate(-470.661 -2954.211)" fill="#000072"/>
      <path id="Path_259102" data-name="Path 259102" d="M490.369,3371.045h-14a.967.967,0,1,1,0-1.935h14a.967.967,0,1,1,0,1.935Z" transform="translate(-456.629 -3236.085)" fill="#fff"/>
      <g id="Group_80813" data-name="Group 80813" transform="translate(18.771 133.026)" opacity="0.3">
        <path id="Path_259103" data-name="Path 259103" d="M490.369,3371.045h-14a.967.967,0,1,1,0-1.935h14a.967.967,0,1,1,0,1.935Z" transform="translate(-475.4 -3369.11)" fill="#000072"/>
      </g>
      <path id="Path_259104" data-name="Path 259104" d="M475.961,3357.229h-14a1.559,1.559,0,1,1,0-3.119h14a1.559,1.559,0,1,1,0,3.119Zm-14-1.935a.375.375,0,0,0,0,.75h14a.375.375,0,0,0,0-.75Z" transform="translate(-442.222 -3221.677)" fill="#000072"/>
      <path id="Path_259105" data-name="Path 259105" d="M1092.853,2709.4H1043.42v-19.887a9.292,9.292,0,0,1,9.292-9.292h30.85a9.292,9.292,0,0,1,9.292,9.292Z" transform="translate(-1002.222 -2574.395)" fill="#5f5272"/>
      <g id="Group_80814" data-name="Group 80814" transform="translate(41.199 119.732)" opacity="0.3">
        <path id="Path_259106" data-name="Path 259106" d="M1079.607,3045.881h-22.717a13.461,13.461,0,0,1-13.461-13.461v15.273h49.433v-15.068a13.255,13.255,0,0,1-13.255,13.255Z" transform="translate(-1043.43 -3032.42)" fill="#000072"/>
      </g>
      <g id="Group_80815" data-name="Group 80815" transform="translate(41.198 105.825)" opacity="0.3">
        <path id="Path_259107" data-name="Path 259107" d="M1083.562,2680.21h-30.85a9.292,9.292,0,0,0-9.292,9.292v2.046a9.292,9.292,0,0,1,9.292-9.292h30.85a9.292,9.292,0,0,1,9.292,9.292V2689.5A9.292,9.292,0,0,0,1083.562,2680.21Z" transform="translate(-1043.42 -2680.21)" fill="#fff"/>
      </g>
      <path id="Path_259108" data-name="Path 259108" d="M1075.516,2692.765h-49.433a.713.713,0,0,1-.713-.713v-19.887a10.016,10.016,0,0,1,10-10h30.85a10.016,10.016,0,0,1,10.005,10v19.887a.713.713,0,0,1-.713.713Zm-48.721-1.426H1074.8v-19.175a8.589,8.589,0,0,0-8.579-8.579h-30.85a8.589,8.589,0,0,0-8.579,8.579v19.175Z" transform="translate(-984.884 -2557.048)" fill="#000072"/>
      <path id="Path_259109" data-name="Path 259109" d="M2044.13,3033.2v-9.338c1.592,1.089,4.264-.041,4.264-.041,2.448-1.519,3.609-2.633,4.085-3.44C2052.479,3020.38,2063.77,3031.212,2044.13,3033.2Z" transform="translate(-1963.42 -2901.124)" fill="#f9c4b2"/>
      <path id="Path_259110" data-name="Path 259110" d="M2026.793,3016.563a.713.713,0,0,1-.713-.713v-9.337a.713.713,0,0,1,1.115-.588c1.011.691,2.847.187,3.536-.089,2.518-1.569,3.455-2.587,3.8-3.166a.713.713,0,0,1,1.107-.152c.187.179,4.558,4.435,3.182,8.428-1.044,3.028-5.066,4.917-11.953,5.613a.646.646,0,0,1-.072,0Zm.713-8.982v7.473c5.724-.68,9.163-2.255,9.964-4.57.826-2.39-1.228-5.15-2.265-6.341a17.081,17.081,0,0,1-3.771,2.934.772.772,0,0,1-.1.051A7.113,7.113,0,0,1,2027.505,3007.581Z" transform="translate(-1946.083 -2883.776)" fill="#000072"/>
      <ellipse id="Ellipse_6691" data-name="Ellipse 6691" cx="9.47" cy="7.346" rx="9.47" ry="7.346" transform="translate(55.734 107.183)" fill="#f9c4b2"/>
      <path id="Path_259111" data-name="Path 259111" d="M1069.748,2838.12c.03,1.609-.444,2.509-1.12,2.983v0c-1.544,1.087-4.132-.043-4.132-.043-2.375-1.52-3.5-2.634-3.961-3.44-.843-1.465.491-1.912.491-1.912s2.851-3.8,5.77-5.228a5.8,5.8,0,0,1,1.1-.373S1069.646,2832.843,1069.748,2838.12Z" transform="translate(-1018.392 -2718.366)" fill="#fff"/>
      <path id="Path_259112" data-name="Path 259112" d="M1049.606,2824.949a7.541,7.541,0,0,1-2.707-.571.7.7,0,0,1-.1-.053,12.774,12.774,0,0,1-4.2-3.685,2.118,2.118,0,0,1-.263-1.856,1.888,1.888,0,0,1,.916-.987c.575-.74,3.175-3.955,5.914-5.292a6.476,6.476,0,0,1,1.238-.423.713.713,0,0,1,.775.306c.076.119,1.861,2.965,1.966,8.38h0a4.018,4.018,0,0,1-1.38,3.55c-.014.011-.028.022-.043.032a3.634,3.634,0,0,1-2.122.6Zm-2.087-1.857c.654.271,2.384.762,3.356.115l.033-.025a2.7,2.7,0,0,0,.817-2.386h0a17.485,17.485,0,0,0-1.5-7.18,3.509,3.509,0,0,0-.43.169c-2.727,1.332-5.485,4.979-5.513,5.015a.716.716,0,0,1-.343.248.519.519,0,0,0-.268.245.887.887,0,0,0,.168.636c.333.58,1.241,1.6,3.677,3.162Z" transform="translate(-1001.081 -2701.028)" fill="#000072"/>
      <path id="Path_259113" data-name="Path 259113" d="M999.221,3023.863v9.335c-19.041-1.986-8.093-12.818-8.093-12.818.462.806,1.586,1.92,3.961,3.44,0,0,2.589,1.13,4.132.043Z" transform="translate(-948.985 -2901.124)" fill="#f9c4b2"/>
      <g id="Group_80816" data-name="Group 80816" transform="translate(80.71 123.919)" opacity="0.3">
        <path id="Path_259114" data-name="Path 259114" d="M2044.13,3143.548v3.087c10.944-1.106,12.283-4.96,11.324-8.155C2054.634,3140.73,2051.651,3142.788,2044.13,3143.548Z" transform="translate(-2044.13 -3138.48)" fill="#000072"/>
      </g>
      <g id="Group_80817" data-name="Group 80817" transform="translate(39.011 123.92)" opacity="0.3">
        <path id="Path_259115" data-name="Path 259115" d="M988.274,3138.5c-.93,3.2.368,7.048,10.978,8.154v-3.087C991.961,3142.807,989.069,3140.75,988.274,3138.5Z" transform="translate(-988.028 -3138.5)" fill="#000072"/>
      </g>
      <path id="Path_259116" data-name="Path 259116" d="M981.873,3016.574a.624.624,0,0,1-.074,0c-6.634-.692-10.531-2.558-11.581-5.547-1.408-4,2.878-8.305,3.061-8.487a.713.713,0,0,1,1.12.152c.332.579,1.24,1.6,3.677,3.161.661.274,2.422.773,3.388.093a.713.713,0,0,1,1.123.583v9.335a.713.713,0,0,1-.713.713Zm-8.153-12.4c-1.02,1.215-3,3.988-2.157,6.379.8,2.281,4.116,3.834,9.6,4.51V3007.6a6.788,6.788,0,0,1-3.7-.463.7.7,0,0,1-.1-.053,16.788,16.788,0,0,1-3.636-2.909Z" transform="translate(-931.638 -2883.787)" fill="#000072"/>
      <path id="Path_259117" data-name="Path 259117" d="M1099.258,3090.667a2.392,2.392,0,0,0-.259-.138c-.094-.046-.19-.089-.287-.129a5,5,0,0,0-.6-.206,2.451,2.451,0,0,0-1.232-.066l-.013,0a.161.161,0,0,1-.137-.284,2.409,2.409,0,0,1,.678-.354,4.1,4.1,0,0,1,.743-.17,5.793,5.793,0,0,1,.755-.054c.126,0,.252,0,.38.006a3.877,3.877,0,0,1,.4.033l.1.014a.741.741,0,1,1-.525,1.345Z" transform="translate(-1053.369 -2967.291)" fill="#000072"/>
      <path id="Path_259118" data-name="Path 259118" d="M2132.142,3089.309a3.827,3.827,0,0,1,.4-.033c.127-.005.253-.008.38-.006a5.865,5.865,0,0,1,.754.054,4.057,4.057,0,0,1,.743.17,2.426,2.426,0,0,1,.678.354.161.161,0,0,1-.137.285l-.012,0a2.455,2.455,0,0,0-1.231.066,4.836,4.836,0,0,0-.6.207c-.1.04-.193.083-.287.128a2.483,2.483,0,0,0-.259.138.741.741,0,1,1-.529-1.344l.1-.014Z" transform="translate(-2047.257 -2967.292)" fill="#000072"/>
      <path id="Path_259119" data-name="Path 259119" d="M1284.948,2817.561v12.223h-30.475v-12.223c.677-.475,1.151-1.375,1.12-2.984-.1-5.276-1.853-8.01-1.853-8.01a51.372,51.372,0,0,1,7.769-.968s.159,6.619,7.967,6.619,8.215-6.619,8.215-6.619a54.619,54.619,0,0,1,8.016.968s-1.808,2.733-1.912,8.01a3.246,3.246,0,0,0,1.152,2.984Z" transform="translate(-1204.238 -2694.823)" fill="#11b6ef"/>
      <path id="Path_259120" data-name="Path 259120" d="M1267.621,2813.164h-30.475a.713.713,0,0,1-.713-.713v-12.223a.714.714,0,0,1,.3-.583,2.7,2.7,0,0,0,.817-2.386,16,16,0,0,0-1.742-7.641.714.714,0,0,1,.426-1.073,49.976,49.976,0,0,1,7.9-.987.713.713,0,0,1,.762.694c.007.24.261,5.923,7.255,5.923s7.5-5.684,7.5-5.926a.715.715,0,0,1,.76-.691,53.156,53.156,0,0,1,8.139.986.713.713,0,0,1,.424,1.085,15.589,15.589,0,0,0-1.794,7.63,2.651,2.651,0,0,0,.843,2.381.713.713,0,0,1,.31.588v12.223a.713.713,0,0,1-.713.713Zm-29.762-1.425h29.049v-11.166a4.162,4.162,0,0,1-1.152-3.343,18.689,18.689,0,0,1,1.552-7.495,61.255,61.255,0,0,0-6.321-.71c-.331,1.858-1.86,6.574-8.838,6.574s-8.269-4.712-8.591-6.572a57.528,57.528,0,0,0-6.086.707,19.179,19.179,0,0,1,1.508,7.5,4.228,4.228,0,0,1-1.12,3.337v11.171Z" transform="translate(-1186.91 -2677.491)" fill="#000072"/>
      <g id="Group_80818" data-name="Group 80818" transform="translate(43.438 110.488)" opacity="0.3">
        <path id="Path_259121" data-name="Path 259121" d="M1100.141,2804.607s4.349-3.607,14.907-2.686c0,0-1.05,3.433,3.668,4.383s12.117-4.888,12.117-4.888,6.34-.878,11.248.919a5.776,5.776,0,0,0-3.909-2.786c-2.719-.475-8.016-.967-8.016-.967s-18.46-1.091-23.952.967a14.18,14.18,0,0,0-6.064,5.058Z" transform="translate(-1100.14 -2798.294)" fill="#000072"/>
      </g>
      <path id="Path_259122" data-name="Path 259122" d="M2024.4,2837.622c-.477.807-1.638,1.92-4.085,3.44,0,0-2.672,1.13-4.265.041a3.245,3.245,0,0,1-1.152-2.983c.1-5.277,1.912-8.01,1.912-8.01a6.153,6.153,0,0,1,1.132.373c3.01,1.426,5.95,5.228,5.95,5.228s1.377.448.507,1.912Z" transform="translate(-1935.335 -2718.366)" fill="#fff"/>
      <path id="Path_259123" data-name="Path 259123" d="M2000.483,2824.936a3.8,3.8,0,0,1-2.171-.594,3.943,3.943,0,0,1-1.463-3.586c.107-5.421,1.952-8.27,2.031-8.389a.713.713,0,0,1,.765-.3,6.731,6.731,0,0,1,1.268.421c2.822,1.336,5.5,4.554,6.093,5.289a1.907,1.907,0,0,1,.952,1.006,2.091,2.091,0,0,1-.28,1.852c-.628,1.062-2.042,2.266-4.323,3.682a.694.694,0,0,1-.1.051A7.938,7.938,0,0,1,2000.483,2824.936Zm2.5-1.224h0Zm-3.154-10.116a16.965,16.965,0,0,0-1.551,7.188,2.65,2.65,0,0,0,.843,2.381c1.011.691,2.848.187,3.536-.089,2.519-1.569,3.455-2.586,3.8-3.165h0a.856.856,0,0,0,.173-.619.558.558,0,0,0-.3-.255.678.678,0,0,1-.333-.238c-.029-.037-2.875-3.685-5.692-5.02a3.8,3.8,0,0,0-.476-.181Z" transform="translate(-1918.004 -2701.017)" fill="#000072"/>
      <path id="Path_259124" data-name="Path 259124" d="M2455.5,2988.862l-5.733,13.93H2434.63l7.026-17.072h12.071Z" transform="translate(-2338.501 -2867.833)" fill="#8c7969"/>
      <g id="Group_80819" data-name="Group 80819" transform="translate(96.129 117.888)" opacity="0.3">
        <path id="Path_259125" data-name="Path 259125" d="M2442.374,2986.8h11.963l-.61-1.082h-12.071l-7.026,17.072h1.163Z" transform="translate(-2434.63 -2985.72)" fill="#fff"/>
      </g>
      <path id="Path_259126" data-name="Path 259126" d="M2432.423,2986.158h-15.135a.714.714,0,0,1-.66-.985l7.026-17.072a.713.713,0,0,1,.659-.441h12.071a.713.713,0,0,1,.621.363l1.772,3.143a.714.714,0,0,1,.038.621l-5.733,13.93a.712.712,0,0,1-.659.441Zm-14.072-1.426h13.594l5.419-13.168-1.4-2.479h-11.177l-6.439,15.647Z" transform="translate(-2321.158 -2850.485)" fill="#000072"/>
      <path id="Path_259127" data-name="Path 259127" d="M2558.874,3114.127a.714.714,0,0,1-.665-.968l4.16-10.844H2555.9l-4.356,11.354a.713.713,0,1,1-1.331-.51l4.531-11.812a.714.714,0,0,1,.666-.458h7.994a.713.713,0,0,1,.666.968l-4.531,11.812a.713.713,0,0,1-.666.458Z" transform="translate(-2449.478 -2978.454)" fill="#000072"/>
      <path id="Path_259128" data-name="Path 259128" d="M2646.977,3046.938h0l-12.285-.072a.713.713,0,0,1,0-1.426h0l12.284.072a.713.713,0,0,1,0,1.426Z" transform="translate(-2529.98 -2925.194)" fill="#000072"/>
      <path id="Path_259129" data-name="Path 259129" d="M2488.984,2986.152a.713.713,0,0,1-.659-.984l5.629-13.7-1.41-2.78a.713.713,0,0,1,1.271-.645l1.558,3.071a.712.712,0,0,1,.023.594l-5.753,14a.712.712,0,0,1-.659.442Z" transform="translate(-2390.024 -2850.479)" fill="#000072"/>
      <path id="Path_259130" data-name="Path 259130" d="M2693.283,3229.849l-1.273-7.1.637-.636h3.462l3.42,7.784-6.247-.045" transform="translate(-2585.719 -3094.888)" fill="#8c7969"/>
      <path id="Path_259131" data-name="Path 259131" d="M2682.19,3213.259h-.005l-6.246-.045a.712.712,0,0,1-.7-.587l-1.273-7.1a.714.714,0,0,1,.2-.63l.636-.636a.714.714,0,0,1,.5-.209h3.462a.712.712,0,0,1,.653.426l3.42,7.783a.713.713,0,0,1-.653,1Zm-5.649-1.466,4.554.033-2.791-6.35h-2.7l-.164.164Z" transform="translate(-2568.38 -3077.542)" fill="#000072"/>
      <g id="Group_80820" data-name="Group 80820" transform="translate(106.291 127.221)" opacity="0.3">
        <path id="Path_259132" data-name="Path 259132" d="M2693.283,3229.849l4.663.033-3.416-7.772h-1.884l-.637.636Z" transform="translate(-2692.01 -3222.11)" fill="#000072"/>
      </g>
      <path id="Path_259133" data-name="Path 259133" d="M2692.62,3215.62l1.473,5.806-2.8-5.293Z" transform="translate(-2585.027 -3088.655)" fill="#000072"/>
      <path id="Path_259134" data-name="Path 259134" d="M2268.606,3048.433a4.035,4.035,0,0,1-.633-2.191,3.445,3.445,0,1,1,6.857,0,4.118,4.118,0,0,1-.228,1.346,2.329,2.329,0,0,1,.9.179,3.046,3.046,0,0,1,1.265,4.081,3.325,3.325,0,0,1-2.792,2.139l-6.718-.878a2.529,2.529,0,0,1,1.336-4.676" transform="translate(-2176.587 -2922.332)" fill="#0fd15d"/>
      <g id="Group_80821" data-name="Group 80821" transform="translate(92.454 120.128)" opacity="0.3">
        <path id="Path_259135" data-name="Path 259135" d="M2348.027,3047.767a2.331,2.331,0,0,0-.9-.179,4.123,4.123,0,0,0,.229-1.346,3.618,3.618,0,0,0-3.43-3.782,3.252,3.252,0,0,0-2.359,1.042,3.127,3.127,0,0,1,.577-.058,3.618,3.618,0,0,1,3.43,3.782,4.117,4.117,0,0,1-.228,1.346,2.324,2.324,0,0,1,.9.179,3.046,3.046,0,0,1,1.264,4.081,3.79,3.79,0,0,1-.726,1.124,3.4,3.4,0,0,0,2.508-2.109A3.046,3.046,0,0,0,2348.027,3047.767Z" transform="translate(-2341.57 -3042.46)" fill="#000072"/>
      </g>
      <path id="Path_259136" data-name="Path 259136" d="M2314.787,3178.218a2.035,2.035,0,0,0-1.944-1.249.762.762,0,0,1-.8-.713.728.728,0,0,1,.8-.713C2315.706,3175.926,2314.9,3178.519,2314.787,3178.218Z" transform="translate(-2220.752 -3050.155)" fill="#000072"/>
      <path id="Path_259137" data-name="Path 259137" d="M2256.591,3037.364l-6.931-.905-.131-.082a3.242,3.242,0,0,1,.672-5.823,4.829,4.829,0,0,1-.287-1.65,4.155,4.155,0,1,1,8.283,0,4.79,4.79,0,0,1-.062.763,2.851,2.851,0,0,1,.294.106,3.757,3.757,0,0,1,1.645,5.013,4.017,4.017,0,0,1-3.421,2.575l-.061,0Zm-6.427-2.278,6.486.847a2.65,2.65,0,0,0,2.108-1.7,2.348,2.348,0,0,0-.884-3.148,1.617,1.617,0,0,0-.625-.124l-.992-.007.323-.938a3.412,3.412,0,0,0,.189-1.114,2.736,2.736,0,1,0-5.432,0,3.319,3.319,0,0,0,.52,1.805.713.713,0,0,1-.213.985.693.693,0,0,1-.4.114h-.006a1.816,1.816,0,0,0-1.077,3.278Z" transform="translate(-2159.24 -2904.994)" fill="#000072"/>
      <path id="Path_259138" data-name="Path 259138" d="M2265.138,3299.208h-6.11a2.444,2.444,0,0,1,0-4.888h6.11a2.444,2.444,0,0,1,0,4.888Z" transform="translate(-2167.485 -3164.248)" fill="#ead9b9"/>
      <path id="Path_259139" data-name="Path 259139" d="M2247.814,3282.583h-6.11a3.156,3.156,0,1,1,0-6.313h6.11a3.156,3.156,0,1,1,0,6.313Zm-6.11-4.888a1.731,1.731,0,0,0-1.719,1.934,1.731,1.731,0,0,0,1.719,1.528h6.11a1.732,1.732,0,0,0,1.719-1.528,1.731,1.731,0,0,0-1.72-1.934h-6.11Z" transform="translate(-2150.161 -3146.91)" fill="#000072"/>
      <path id="Path_259140" data-name="Path 259140" d="M2265.209,3294.32h-6.11a2.443,2.443,0,0,0-2.43,2.682h10.97a2.443,2.443,0,0,0-2.43-2.682Z" transform="translate(-2167.556 -3164.247)" fill="#fff"/>
      <path id="Path_259141" data-name="Path 259141" d="M2250.294,3280.377h-10.97a.713.713,0,0,1-.71-.643,3.155,3.155,0,0,1,3.139-3.465h6.11a3.155,3.155,0,0,1,3.139,3.465.713.713,0,0,1-.709.644Zm-10.2-1.425h9.439a1.73,1.73,0,0,0-.385-.689,1.708,1.708,0,0,0-1.28-.567h-6.11a1.706,1.706,0,0,0-1.28.567,1.728,1.728,0,0,0-.385.689Z" transform="translate(-2150.211 -3146.91)" fill="#000072"/>
      <g id="Group_80822" data-name="Group 80822" transform="translate(95.497 130.073)" opacity="0.3">
        <path id="Path_259142" data-name="Path 259142" d="M2420.8,3294.32h-2.156a2.444,2.444,0,0,1,0,4.888h2.156a2.444,2.444,0,0,0,0-4.888Z" transform="translate(-2418.64 -3294.32)" fill="#000072"/>
      </g>
      <path id="Path_259143" data-name="Path 259143" d="M524.557,3422.275H430.329a1.306,1.306,0,0,1-1.242-.9l-.509-1.564a1.305,1.305,0,0,1,1.242-1.709h95.245a1.306,1.306,0,0,1,1.242,1.709l-.509,1.564A1.305,1.305,0,0,1,524.557,3422.275Z" transform="translate(-411.595 -3283.14)" fill="#d19d71"/>
      <g id="Group_80823" data-name="Group 80823" transform="translate(16.92 135.472)" opacity="0.3">
        <path id="Path_259144" data-name="Path 259144" d="M525.812,3431.989a1.305,1.305,0,0,1-1.242.9H430.342a1.306,1.306,0,0,1-1.242-.9l-.3-.928a1.3,1.3,0,0,0-.207,1.2l.509,1.564a1.306,1.306,0,0,0,1.242.9h94.228a1.305,1.305,0,0,0,1.242-.9l.508-1.564a1.3,1.3,0,0,0-.206-1.2l-.3.928Z" transform="translate(-428.528 -3431.06)" fill="#000072"/>
      </g>
      <path id="Path_259145" data-name="Path 259145" d="M507.2,3405.65H412.974a2.014,2.014,0,0,1-1.92-1.394l-.509-1.564a2.019,2.019,0,0,1,1.92-2.643H507.71a2.018,2.018,0,0,1,1.919,2.643l-.509,1.564a2.013,2.013,0,0,1-1.919,1.394Zm-94.736-4.175a.593.593,0,0,0-.564.776l.509,1.564a.592.592,0,0,0,.564.41H507.2a.591.591,0,0,0,.564-.409l.509-1.564a.593.593,0,0,0-.564-.776H412.465Z" transform="translate(-394.239 -3265.803)" fill="#000072"/>
      <path id="Path_259146" data-name="Path 259146" d="M1274.02,3359.173h-31.169a1.211,1.211,0,0,1,0-2.423h31.169a1.211,1.211,0,0,1,0,2.423Z" transform="translate(-1192.615 -3224.213)" fill="#a8a8a8"/>
      <g id="Group_80824" data-name="Group 80824" transform="translate(49.025 132.538)" opacity="0.3">
        <path id="Path_259147" data-name="Path 259147" d="M1274.02,3359.173h-31.169a1.211,1.211,0,0,1,0-2.423h31.169a1.211,1.211,0,0,1,0,2.423Z" transform="translate(-1241.64 -3356.75)" fill="#000072"/>
      </g>
      <path id="Path_259148" data-name="Path 259148" d="M1256.683,3342.548h-31.169a1.924,1.924,0,0,1,0-3.848h31.169a1.924,1.924,0,0,1,0,3.848Zm-31.169-2.422a.5.5,0,0,0,0,1h31.169a.5.5,0,0,0,0-1Z" transform="translate(-1175.278 -3206.875)" fill="#000072"/>
      <path id="Path_259149" data-name="Path 259149" d="M1201.7,2919.635h-30.742a3.381,3.381,0,0,1-3.319-2.755,50.759,50.759,0,0,1-.736-12.266,3.373,3.373,0,0,1,3.37-3.174h32.11a3.373,3.373,0,0,1,3.37,3.173,50.692,50.692,0,0,1-.736,12.266A3.381,3.381,0,0,1,1201.7,2919.635Z" transform="translate(-1120.741 -2786.88)" fill="#a8a8a8"/>
      <g id="Group_80825" data-name="Group 80825" transform="translate(46.071 114.56)" opacity="0.6">
        <path id="Path_259150" data-name="Path 259150" d="M1166.93,2906.029a3.373,3.373,0,0,1,3.37-3.174h32.11a3.373,3.373,0,0,1,3.37,3.174c.048.828.073,1.633.084,2.417.017-1.221-.007-2.5-.084-3.843a3.373,3.373,0,0,0-3.37-3.173H1170.3a3.373,3.373,0,0,0-3.37,3.174c-.077,1.339-.1,2.621-.083,3.84C1166.857,2907.661,1166.883,2906.857,1166.93,2906.029Z" transform="translate(-1166.842 -2901.43)" fill="#fff"/>
      </g>
      <g id="Group_80826" data-name="Group 80826" transform="translate(47.31 115.037)" opacity="0.3">
        <path id="Path_259151" data-name="Path 259151" d="M1235.9,2916.216a3.359,3.359,0,0,0-1.645-2.7,3.346,3.346,0,0,1,.459,1.51q.086,1.5.089,2.9a12.082,12.082,0,0,1-12.089,12.119h-22.8a3.356,3.356,0,0,1-1.718-.472,3.373,3.373,0,0,0,2.9,1.659h30.742a3.382,3.382,0,0,0,3.319-2.755,50.7,50.7,0,0,0,.736-12.266Z" transform="translate(-1198.2 -2913.52)" fill="#000072"/>
      </g>
      <ellipse id="Ellipse_6692" data-name="Ellipse 6692" cx="10.437" cy="0.28" rx="10.437" ry="0.28" transform="translate(48.674 116.339)" fill="#000072"/>
      <path id="Path_259152" data-name="Path 259152" d="M1879.377,2946.77a34.371,34.371,0,0,1-8.757,0,34.371,34.371,0,0,1,8.757,0Z" transform="translate(-1796.76 -2830.151)" fill="#000072"/>
      <path id="Path_259154" data-name="Path 259154" d="M1184.367,2903.01h-30.742a4.1,4.1,0,0,1-4.019-3.335,51.443,51.443,0,0,1-.747-12.439,4.087,4.087,0,0,1,4.082-3.846h32.11a4.087,4.087,0,0,1,4.082,3.845,51.375,51.375,0,0,1-.748,12.44,4.1,4.1,0,0,1-4.019,3.334Zm-31.426-18.195a2.66,2.66,0,0,0-2.659,2.5,50.007,50.007,0,0,0,.724,12.091,2.674,2.674,0,0,0,2.619,2.177h30.742a2.674,2.674,0,0,0,2.618-2.176,49.928,49.928,0,0,0,.724-12.092,2.661,2.661,0,0,0-2.659-2.5h-32.11Z" transform="translate(-1103.411 -2769.543)" fill="#000072"/>
      <path id="Path_259155" data-name="Path 259155" d="M966.658,1485.327s-.776,13.805,3.513,19.449,49.437,0,49.437,0,3.53-16.6,2.715-19.449a8.73,8.73,0,0,0-2.579-4.243,7.043,7.043,0,0,1,3.029-.433,5.309,5.309,0,0,0-4.234-2.333s1.952-1.375,2.206-2.9a5.26,5.26,0,0,1-4.5-1.731s-20.739-17.786-41.528.34v-3.869a6.071,6.071,0,0,0-2.232,3.488,22.167,22.167,0,0,1-.764-3.87,7.223,7.223,0,0,0-.56,6.848s-3.182.967-4.073,3.131l2.088-.1a9.606,9.606,0,0,0-1.731,2.418l1.4-.407-2.189,3.666Z" transform="translate(-928.438 -1408.001)" fill="#494963"/>
      <g id="Group_80827" data-name="Group 80827" transform="translate(42.195 61.882)" opacity="0.5">
        <path id="Path_259156" data-name="Path 259156" d="M1069.7,1569.854c.687,2.81,1.289,3.5,1.289,3.5.451-2.6,1.729-3.423,1.729-3.423l-.263-2.583a6.071,6.071,0,0,0-1.867,3.7,22.169,22.169,0,0,1-1.152-3.772,6.939,6.939,0,0,0-.5,5.24,6.3,6.3,0,0,1,.762-2.657Z" transform="translate(-1068.661 -1567.27)" fill="#fff"/>
      </g>
      <g id="Group_80828" data-name="Group 80828" transform="translate(46.295 57.878)" opacity="0.5">
        <path id="Path_259157" data-name="Path 259157" d="M1214.038,1475.29a4.974,4.974,0,0,0,2.789,1.638,6.643,6.643,0,0,0,1.306-1.488,5.2,5.2,0,0,1-4.108-1.76s-20.73-17.778-41.515.328v1.621c20.79-18.125,41.528-.34,41.528-.34Z" transform="translate(-1172.51 -1465.876)" fill="#fff"/>
      </g>
      <g id="Group_80829" data-name="Group 80829" transform="translate(38.333 74.543)" opacity="0.3">
        <path id="Path_259158" data-name="Path 259158" d="M1018.824,1897.571l-4.2-4.2.074-1.392.741-2.324s-2.037.458-2.342,3.259a9.061,9.061,0,0,1-5.855-4.888s1.12,3.767-.967,5.906l-6.466-4.277a5.114,5.114,0,0,0-.357,4.277s-5.906-.475-6.415-3.725a4.43,4.43,0,0,0,1.493,3.133s-9.606-1.665-12.287-5.4v5.634s-6.869,6.983-11.393,4.306c.315,4.251,1.177,9.367,3.4,12.292,4.289,5.644,49.437,0,49.437,0s1.5-7.039,2.316-12.736a18.761,18.761,0,0,1-7.178.135Z" transform="translate(-970.85 -1887.94)" fill="#000072"/>
      </g>
      <path id="Path_259159" data-name="Path 259159" d="M967.441,1490.655q-2.878,0-5.228-.129c-5.723-.313-8.921-1.159-10.062-2.661-4.4-5.786-3.689-19.346-3.657-19.921l.01-.175,1.35-2.26-1.332.387.851-1.519c.287-.512.553-.935.79-1.28l-1.611.078.428-1.038c.74-1.8,2.756-2.841,3.831-3.286a7.777,7.777,0,0,1,.9-6.859l1.036-1.332.233,1.671c.092.661.182,1.221.266,1.689a5.681,5.681,0,0,1,1.648-1.815l1.089-.675v3.621a31.958,31.958,0,0,1,14.42-6.872,30.2,30.2,0,0,1,13.62.748,37.614,37.614,0,0,1,13.24,6.772l.077.077a4.508,4.508,0,0,0,3.852,1.49l.965-.139-.157.961a4.693,4.693,0,0,1-1.283,2.3,6.446,6.446,0,0,1,3.207,2.436l.83,1.286-1.519-.192a5.125,5.125,0,0,0-1.6.087,10.126,10.126,0,0,1,1.921,3.686c.839,2.937-2.339,18.076-2.7,19.793l-.105.5-.5.063c-.113.014-11.446,1.422-23.156,2.121-4.387.262-8.284.393-11.646.393ZM949.908,1468.2c-.068,1.594-.451,13.768,3.377,18.806.915,1.2,5.474,3.044,25.717,1.836,10.267-.612,20.24-1.772,22.561-2.051,1.391-6.621,3.17-16.689,2.622-18.607a8.141,8.141,0,0,0-2.338-3.88l-.954-.765,1.134-.455a8.349,8.349,0,0,1,1.7-.438,3.968,3.968,0,0,0-2.615-.953l-2.379.076,1.946-1.37a6.615,6.615,0,0,0,1.559-1.6,5.784,5.784,0,0,1-3.942-1.944,37.03,37.03,0,0,0-12.709-6.465c-10.065-2.8-19.435-.5-27.85,6.831l-1.181,1.03v-3.641a6.8,6.8,0,0,0-.832,1.884l-.6,2.136-.758-2.085a12.435,12.435,0,0,1-.395-1.583,7.183,7.183,0,0,0,.406,4.062l.276.715-.733.223a8.116,8.116,0,0,0-2.889,1.668l2.735-.134-1.574,1.354a5.173,5.173,0,0,0-.569.662l1.314-.382-3.027,5.068Z" transform="translate(-910.985 -1390.659)" fill="#000072"/>
      <path id="Path_259160" data-name="Path 259160" d="M938.889,2353.5a4.794,4.794,0,1,1-4.794-4.794A4.794,4.794,0,0,1,938.889,2353.5Z" transform="translate(-892.608 -2255.974)" fill="#f9c4b2"/>
      <g id="Group_80830" data-name="Group 80830" transform="translate(36.692 92.736)" opacity="0.6">
        <path id="Path_259161" data-name="Path 259161" d="M933.806,2350.84a4.794,4.794,0,0,1,4.774,4.359,4.794,4.794,0,1,0-9.279-1.695c0,.147.008.292.021.435A4.8,4.8,0,0,1,933.806,2350.84Z" transform="translate(-929.3 -2348.71)" fill="#fff"/>
      </g>
      <path id="Path_259162" data-name="Path 259162" d="M916.757,2341.655a5.507,5.507,0,1,1,5.507-5.507A5.513,5.513,0,0,1,916.757,2341.655Zm0-9.589a4.081,4.081,0,1,0,4.081,4.081A4.086,4.086,0,0,0,916.757,2332.066Z" transform="translate(-875.27 -2238.617)" fill="#000072"/>
      <path id="Path_259163" data-name="Path 259163" d="M2171.969,2353.5a4.794,4.794,0,1,1-4.794-4.794A4.794,4.794,0,0,1,2171.969,2353.5Z" transform="translate(-2077.001 -2255.974)" fill="#f9c4b2"/>
      <g id="Group_80831" data-name="Group 80831" transform="translate(85.379 92.736)" opacity="0.6">
        <path id="Path_259164" data-name="Path 259164" d="M2167.165,2350.84a4.8,4.8,0,0,1,4.674,3.729,4.794,4.794,0,1,0-9.349,0,4.8,4.8,0,0,1,4.674-3.729Z" transform="translate(-2162.37 -2348.71)" fill="#fff"/>
      </g>
      <path id="Path_259165" data-name="Path 259165" d="M2149.827,2341.655a5.507,5.507,0,1,1,5.507-5.507A5.513,5.513,0,0,1,2149.827,2341.655Zm0-9.589a4.081,4.081,0,1,0,4.081,4.081A4.086,4.086,0,0,0,2149.827,2332.066Z" transform="translate(-2059.654 -2238.617)" fill="#000072"/>
      <path id="Path_259166" data-name="Path 259166" d="M1144.838,1941.634v10.828c0,8.594-10.15,15.562-22.669,15.562s-22.669-6.967-22.669-15.562a10.949,10.949,0,0,1,.46-3.136,28.1,28.1,0,0,0,.609-9.271l5.906-4.99v-3.717s3.666,4.378,12.117,4.888a10.9,10.9,0,0,1-.988-1.444l.071-.041s2.664,2.112,8.631,2.214a7.386,7.386,0,0,1-2.173-4.65s5.981,1.324,7,5.228a6.724,6.724,0,0,0,.849-4.957s2.6,3.6,6.415,4.311a13.074,13.074,0,0,1-.179-2.189h0l6.617,6.924Z" transform="translate(-1056.087 -1855.093)" fill="#f9c4b2"/>
      <g id="Group_80832" data-name="Group 80832" transform="translate(50.961 77.224)" opacity="0.3">
        <path id="Path_259167" data-name="Path 259167" d="M1724.129,1957.684s4.957,1.21,5.975,5.114a5.219,5.219,0,0,0,1.873-4.844s2.6,3.6,6.415,4.311a13.078,13.078,0,0,1-.179-2.189h0l5.9,6.172v-1.091l-6.617-6.924h0a13.094,13.094,0,0,0,.179,2.189c-3.818-.713-6.415-4.311-6.415-4.311a6.723,6.723,0,0,1-.849,4.957c-1.018-3.9-7-5.228-7-5.228a6.293,6.293,0,0,0,.851,2.9,5.517,5.517,0,0,1-.132-1.053Z" transform="translate(-1706.323 -1955.84)" fill="#000072"/>
        <path id="Path_259168" data-name="Path 259168" d="M1302.017,1962.79s2.664,2.112,8.631,2.214a7.989,7.989,0,0,1-1.384-1.865c-5.5-.239-7.967-2.193-7.967-2.193l-.072.041a10.9,10.9,0,0,0,.988,1.444,19.189,19.189,0,0,1-10.951-3.811l-.594.451c.968,1.629,5.495,4.8,12.264,5.2a10.9,10.9,0,0,1-.988-1.444l.072-.041Z" transform="translate(-1290.67 -1958.51)" fill="#000072"/>
      </g>
      <g id="Group_80833" data-name="Group 80833" transform="translate(43.413 77.495)" opacity="0.3">
        <path id="Path_259169" data-name="Path 259169" d="M1922.291,1962.819c-.058-.075-.091-.119-.091-.119.023.115.042.227.06.339.011-.072.022-.145.031-.22Z" transform="translate(-1889.717 -1962.7)" fill="#000072"/>
        <path id="Path_259170" data-name="Path 259170" d="M1126.7,2149.57l-.106.09c.048.591.079,1.16.1,1.706.019-.563.024-1.162.01-1.8Z" transform="translate(-1125.521 -2142.192)" fill="#000072"/>
        <path id="Path_259171" data-name="Path 259171" d="M1122.188,2427.061c-11.993,0-21.808-6.393-22.614-14.484-.036.356-.055.715-.055,1.077,0,8.594,10.148,15.561,22.669,15.561s22.669-6.967,22.669-15.561V2411.5c0,8.594-10.15,15.561-22.669,15.561Z" transform="translate(-1099.52 -2393.779)" fill="#000072"/>
      </g>
      <path id="Path_259172" data-name="Path 259172" d="M1542.69,1891.355c.033.024.113.08.178.122s.143.088.214.132c.148.085.3.17.456.247.31.16.638.3.967.431a15.272,15.272,0,0,0,2.058.626l.53.115c.177.036.357.063.535.094.356.069.719.1,1.079.152s.726.064,1.089.1l1.1.044-.5,1.233c-.11-.105-.182-.183-.267-.276s-.16-.179-.236-.27q-.229-.274-.435-.563a8.744,8.744,0,0,1-.733-1.225,7.356,7.356,0,0,1-.512-1.357,6.37,6.37,0,0,1-.215-1.461l-.03-.926.9.211c.42.1.784.209,1.167.335s.75.264,1.118.417a13.521,13.521,0,0,1,2.139,1.107,8.7,8.7,0,0,1,1.887,1.609,5.712,5.712,0,0,1,1.224,2.276l-1.27-.235.058-.092.068-.117c.045-.08.088-.164.13-.248.082-.171.157-.347.223-.527a6.123,6.123,0,0,0,.294-1.114,6.342,6.342,0,0,0-.044-2.3l-.63-3.14,1.907,2.582c.075.1.179.232.276.347s.2.236.306.351q.313.346.652.672a12.335,12.335,0,0,0,1.435,1.189,9.566,9.566,0,0,0,1.589.919,7.562,7.562,0,0,0,1.711.55l-.832.832a4.563,4.563,0,0,1-.167-.776,6.661,6.661,0,0,1-.055-.773,9.62,9.62,0,0,1,.128-1.552,7.634,7.634,0,0,1,.406-1.522,4.477,4.477,0,0,1,.807-1.362.231.231,0,0,1,.39.229l0,.008a5.852,5.852,0,0,0-.286,1.353,9.817,9.817,0,0,0-.03,1.38c.013.462.07.924.117,1.384.022.23.045.461.063.692s.034.47.032.679v.992l-.832-.161a8.992,8.992,0,0,1-2.038-.653,11,11,0,0,1-1.822-1.052,13.772,13.772,0,0,1-1.6-1.326q-.374-.359-.722-.744-.174-.192-.342-.393c-.114-.138-.217-.263-.337-.426l1.276-.558a7.772,7.772,0,0,1,.053,2.819,7.536,7.536,0,0,1-.363,1.372q-.122.334-.279.658c-.053.108-.108.215-.168.322l-.094.161c-.036.058-.062.1-.116.179l-.88,1.268-.389-1.5a4.28,4.28,0,0,0-.926-1.707,7.29,7.29,0,0,0-1.579-1.34,12.092,12.092,0,0,0-1.912-.988c-.335-.139-.676-.266-1.021-.38s-.705-.221-1.026-.3l.867-.714a4.937,4.937,0,0,0,.167,1.131,5.92,5.92,0,0,0,.414,1.1,7.347,7.347,0,0,0,.614,1.025c.116.164.239.322.367.475.064.077.13.152.2.224s.141.15.189.2l1.364,1.308-1.863-.075-1.16-.047c-.386-.035-.773-.056-1.159-.1s-.772-.09-1.156-.164c-.192-.034-.385-.063-.576-.1l-.573-.125a16.611,16.611,0,0,1-2.256-.687c-.369-.147-.735-.3-1.094-.487-.18-.089-.358-.189-.536-.291-.089-.055-.177-.1-.267-.165s-.169-.11-.286-.2a.712.712,0,0,1,.859-1.137l.026.02Z" transform="translate(-1480.659 -1812.254)" fill="#000072"/>
      <path id="Path_259173" data-name="Path 259173" d="M1121.214,1889.659l6.623,6.918.2.208v.29l.01,10.489v.328l-.011.349c-.013.233-.006.467-.039.7s-.048.464-.079.7l-.126.688a12.849,12.849,0,0,1-.886,2.638,13.8,13.8,0,0,1-1.414,2.374,15.632,15.632,0,0,1-1.8,2.065,18.488,18.488,0,0,1-2.084,1.753,22.475,22.475,0,0,1-2.281,1.462,26.621,26.621,0,0,1-4.949,2.121,33.286,33.286,0,0,1-15.913.885,29.392,29.392,0,0,1-5.166-1.463l-.626-.248c-.207-.086-.412-.18-.618-.269-.415-.174-.814-.382-1.219-.577a23.638,23.638,0,0,1-2.336-1.364l-.283-.186-.276-.2c-.183-.133-.368-.263-.549-.4-.355-.283-.716-.557-1.052-.863s-.668-.617-1-.932c-.311-.334-.631-.66-.917-1.018a13.787,13.787,0,0,1-2.661-4.812,11.783,11.783,0,0,1-.3-5.53c.043-.229.094-.456.15-.682l.089-.337.048-.165.036-.135c.1-.395.184-.812.258-1.227.145-.834.246-1.682.312-2.533a33.148,33.148,0,0,0-.018-5.125l-.028-.371.282-.238,5.908-4.988-.255.548v-5.549l1.266,1.372.111.12c.039.044.089.089.132.133.087.09.185.176.28.264s.195.172.3.256.2.17.305.248l.314.241c.105.079.217.152.325.228s.215.154.328.224l.339.21a17.817,17.817,0,0,0,2.873,1.407c.508.172,1.008.366,1.531.5.26.069.515.154.778.211l.79.171c.132.027.263.06.4.083l.4.061.8.123c.536.066,1.077.1,1.615.156l-.587,1.168c-.135-.168-.241-.312-.353-.471s-.211-.317-.305-.482a7.585,7.585,0,0,1-.5-1.03,5.8,5.8,0,0,1-.307-1.114,3.562,3.562,0,0,1-.006-1.163.135.135,0,0,1,.251-.041l0,.007c.176.326.344.626.524.919s.373.573.567.852.4.55.6.821l.307.4c.1.132.21.273.3.382l1.127,1.326-1.714-.158c-.57-.053-1.142-.094-1.71-.162l-.851-.13-.425-.065c-.141-.025-.281-.059-.422-.088l-.843-.183c-.281-.062-.555-.151-.833-.225-.558-.142-1.1-.349-1.645-.535a19.226,19.226,0,0,1-3.118-1.525l-.371-.231c-.123-.078-.241-.165-.361-.246s-.241-.164-.359-.252l-.349-.267c-.118-.087-.23-.183-.343-.278s-.227-.188-.336-.291-.22-.2-.327-.309c-.054-.055-.107-.1-.162-.164s-.1-.108-.171-.187l1.266-.46v4.05l-.255.215-5.9,4.992.253-.609a34.584,34.584,0,0,1,.021,5.353c-.07.892-.174,1.783-.328,2.671-.079.445-.167.886-.281,1.338l-.049.182-.043.149-.078.3c-.049.2-.094.4-.131.6a10.336,10.336,0,0,0,.27,4.843,12.328,12.328,0,0,0,2.389,4.3c.259.326.554.623.838.929.3.289.6.588.919.857s.646.536.975.8c.168.127.342.247.512.371l.257.185.265.173a22.33,22.33,0,0,0,2.191,1.278c.383.183.758.38,1.151.544.195.084.388.173.584.255l.593.234a27.98,27.98,0,0,0,4.913,1.388,30.613,30.613,0,0,0,5.091.536,30.924,30.924,0,0,0,10.1-1.388,25.171,25.171,0,0,0,4.674-2.005,21.015,21.015,0,0,0,2.13-1.367,17.1,17.1,0,0,0,1.925-1.62,14.331,14.331,0,0,0,1.645-1.877,12.375,12.375,0,0,0,1.27-2.121,11.361,11.361,0,0,0,.785-2.321l.112-.6.07-.607c.031-.2.022-.407.035-.61l.012-.306v-.328l.01-10.489.2.5-6.61-6.93a.713.713,0,0,1,1.031-.985Z" transform="translate(-1038.566 -1810.534)" fill="#000072"/>
      <path id="Path_259174" data-name="Path 259174" d="M2200.8,2332.72a.713.713,0,0,1-.582-1.125l2.16-3.056a.966.966,0,0,1,1.188-.164c.322.227.372.425.146.747l-2.329,3.3A.712.712,0,0,1,2200.8,2332.72Z" transform="translate(-2113.216 -2236.314)" fill="#000072"/>
      <path id="Path_259175" data-name="Path 259175" d="M1046.476,2332.72a.713.713,0,0,0,.582-1.125l-2.16-3.056a.966.966,0,0,0-1.188-.164c-.321.227-.372.425-.145.747l2.329,3.3A.713.713,0,0,0,1046.476,2332.72Z" transform="translate(-1002.226 -2236.314)" fill="#000072"/>
      <circle id="Ellipse_6693" data-name="Ellipse 6693" cx="1.572" cy="1.572" r="1.572" transform="translate(42.56 94.866)" fill="#000072"/>
      <path id="Path_259176" data-name="Path 259176" d="M1062.155,2389.159a2.285,2.285,0,1,1,2.285-2.284A2.287,2.287,0,0,1,1062.155,2389.159Zm0-3.144a.859.859,0,1,0,.859.859A.86.86,0,0,0,1062.155,2386.015Z" transform="translate(-1018.022 -2290.437)" fill="#000072"/>
      <circle id="Ellipse_6694" data-name="Ellipse 6694" cx="1.572" cy="1.572" r="1.572" transform="translate(86.142 94.866)" fill="#000072"/>
      <path id="Path_259177" data-name="Path 259177" d="M2165.945,2389.159a2.285,2.285,0,1,1,2.285-2.284A2.287,2.287,0,0,1,2165.945,2389.159Zm0-3.144a.859.859,0,1,0,.859.859A.86.86,0,0,0,2165.945,2386.015Z" transform="translate(-2078.23 -2290.437)" fill="#000072"/>
      <circle id="Ellipse_6695" data-name="Ellipse 6695" cx="8.655" cy="8.655" r="8.655" transform="translate(44.703 89.172)" fill="#0077db"/>
      <g id="Group_80834" data-name="Group 80834" transform="translate(47.881 89.771)">
        <path id="Path_259178" data-name="Path 259178" d="M1221.325,2273.6l-6.766,9.449,3.19-1.222-5.069,6.532,2.163,1.3,8.541-11.766-3.191,1.154,3.191-4.286Z" transform="translate(-1212.68 -2273.6)" fill="url(#linear-gradient-2)"/>
      </g>
      <circle id="Ellipse_6696" data-name="Ellipse 6696" cx="8.655" cy="8.655" r="8.655" transform="translate(69.548 89.172)" fill="#0077db"/>
      <path id="Path_259179" data-name="Path 259179" d="M1752.758,2259.126a9.368,9.368,0,1,1,9.368-9.368A9.379,9.379,0,0,1,1752.758,2259.126Zm0-17.31a7.943,7.943,0,1,0,7.943,7.943A7.952,7.952,0,0,0,1752.758,2241.815Z" transform="translate(-1674.554 -2151.93)" fill="#000072"/>
      <g id="Group_80835" data-name="Group 80835" transform="translate(71.013 89.249)">
        <path id="Path_259180" data-name="Path 259180" d="M1805.845,2260.38l-5.725,8,2.7-1.034-4.29,5.527,1.831,1.1,7.227-9.956-2.7.977,2.7-3.627Z" transform="translate(-1798.53 -2260.38)" fill="url(#linear-gradient-3)"/>
      </g>
      <path id="Path_259181" data-name="Path 259181" d="M1123.5,2259.126a9.368,9.368,0,1,1,9.368-9.368A9.379,9.379,0,0,1,1123.5,2259.126Zm0-17.31a7.943,7.943,0,1,0,7.943,7.943A7.952,7.952,0,0,0,1123.5,2241.815Z" transform="translate(-1070.14 -2151.93)" fill="#000072"/>
      <g id="Group_80836" data-name="Group 80836" transform="translate(73.757 91.073)">
        <path id="Path_259182" data-name="Path 259182" d="M1876.593,2306.58l-8.553,12.525,1.527,1.578,8.5-12.932Z" transform="translate(-1868.04 -2306.58)" fill="url(#linear-gradient-4)"/>
      </g>
      <path id="Path_259183" data-name="Path 259183" d="M1565.032,2397.447a6.838,6.838,0,0,0-7.005-.032l-.807-1.175a8.2,8.2,0,0,1,8.518-.032l-.706,1.238Z" transform="translate(-1495.735 -2300.468)" fill="#000072"/>
      <path id="Path_259184" data-name="Path 259184" d="M1566.236,2662.941c.7.145,1.395.293,2.069.407a12.243,12.243,0,0,0,1.98.191,5.593,5.593,0,0,0,1.794-.267,4.358,4.358,0,0,0,.807-.381,7.509,7.509,0,0,0,.786-.593l.022-.018a.31.31,0,0,1,.494.322,3.023,3.023,0,0,1-.555,1.09,3.476,3.476,0,0,1-.976.819,4.464,4.464,0,0,1-2.415.5,7.445,7.445,0,0,1-4.214-1.676.227.227,0,0,1,.194-.4l.014,0Z" transform="translate(-1504.119 -2557.097)" fill="#000072"/>
      <path id="Path_259185" data-name="Path 259185" d="M1226.4,2161.754a4.69,4.69,0,0,1,.6-1.03,5.253,5.253,0,0,1,.824-.875,4.793,4.793,0,0,1,2.244-1.071,4.895,4.895,0,0,1,1.274-.068,5.531,5.531,0,0,1,1.231.24,6.621,6.621,0,0,1,2.127,1.12.715.715,0,0,1-.777,1.194l-.006,0a11.16,11.16,0,0,0-1.815-.8,4.826,4.826,0,0,0-1.837-.251,4.323,4.323,0,0,0-1.8.549,6.654,6.654,0,0,0-1.593,1.264l-.019.02a.269.269,0,0,1-.445-.286Z" transform="translate(-1177.959 -2073.463)" fill="#000072"/>
      <path id="Path_259186" data-name="Path 259186" d="M1904.462,2162.04a6.649,6.649,0,0,0-1.594-1.264,4.307,4.307,0,0,0-1.8-.549,4.827,4.827,0,0,0-1.837.25,11.131,11.131,0,0,0-1.816.8l-.006,0a.715.715,0,0,1-.777-1.194,6.618,6.618,0,0,1,2.127-1.119,5.546,5.546,0,0,1,1.231-.24,4.906,4.906,0,0,1,1.274.068,4.8,4.8,0,0,1,2.244,1.071,5.284,5.284,0,0,1,.824.875,4.708,4.708,0,0,1,.6,1.03.269.269,0,0,1-.445.287l-.019-.02Z" transform="translate(-1821.481 -2073.482)" fill="#000072"/>
      <path id="Path_259187" data-name="Path 259187" d="M501.612,3087.555h-8.271a.713.713,0,0,1-.587-.308c-1.435-2.081-2.255-5.033-2.742-9.871a.711.711,0,0,1,.3-.652c1.4-1,5.792-1.074,7.1-1.074s5.7.076,7.207,1.057a.713.713,0,0,1,.321.669c-.486,4.838-1.307,7.79-2.742,9.87a.712.712,0,0,1-.587.308Zm-7.887-1.426h7.5c1.108-1.777,1.809-4.406,2.244-8.407-2.245-.852-9.869-.862-11.991-.015.434,4.009,1.136,6.643,2.245,8.423Z" transform="translate(-470.661 -2954.211)" fill="#000072"/>
      <g id="Group_80837" data-name="Group 80837" transform="translate(22.208 122.952)" opacity="0.3">
        <path id="Path_259188" data-name="Path 259188" d="M562.934,3123.639h6.8c1.475-2.139,2.143-5.306,2.539-9.245a3.864,3.864,0,0,0-1.127-.423,10.173,10.173,0,0,1-8.677,8.911C562.616,3123.145,562.769,3123.4,562.934,3123.639Z" transform="translate(-562.47 -3113.97)" fill="#000072"/>
      </g>
      <path id="Path_259189" data-name="Path 259189" d="M177.564,3509.975a56.013,56.013,0,0,1,7.329-.5c2.443-.051,4.886-.024,7.329,0l3.665.022,3.664,0h80.621l3.664,0,1.832-.017,1.832-.029q1.833-.023,3.665.068a23.983,23.983,0,0,1,3.664.453.242.242,0,0,1,0,.474,23.994,23.994,0,0,1-3.664.453q-1.832.089-3.665.068l-1.832-.029-1.832-.017h-87.95l-3.664.022c-2.443.028-4.886.054-7.329,0a55.918,55.918,0,0,1-7.329-.5.239.239,0,0,1,0-.473Z" transform="translate(-170.358 -3370.88)" fill="#000072"/>
      <ellipse id="Ellipse_6697" data-name="Ellipse 6697" cx="65.839" cy="2.468" rx="65.839" ry="2.468" transform="translate(0 138.049)" fill="#000072" opacity="0.3"/>
    </g>
    <path id="Path_259190" data-name="Path 259190" d="M-16763,9106.136s7.764-31.905,27.186-22.657,20.809,47.628,39.3,49.478,19.422,14.334,19.422,14.334" transform="translate(-1345 -5048)" fill="none" stroke="#fff" stroke-width="1" stroke-dasharray="3" opacity="0.27"/>
    <g id="Group_124704" data-name="Group 124704">
      <g transform="matrix(1, 0, 0, 1, -18168, 3980)" filter="url(#Rectangle_15679)">
        <rect id="Rectangle_15679-2" data-name="Rectangle 15679" width="53" height="53" rx="26.5" transform="translate(7 49)" fill="#fff"/>
      </g>
      <g id="Layer_2" data-name="Layer 2" transform="translate(-18150.629 4038.81)">
        <g id="_13.messenger" data-name="13.messenger" transform="translate(0 0)">
          <ellipse id="background" cx="16.129" cy="16.59" rx="16.129" ry="16.59" fill="#0077db"/>
          <path id="shadow" d="M70.76,60.495a16.583,16.583,0,0,1-13.2,12.159l-8.028-8.036,1.51-2.961c-8.546-11.009,10.083-10.8,10.083-10.8Z" transform="translate(-38.679 -39.274)" fill="url(#linear-gradient-5)"/>
          <path id="icon" d="M46.28,38C41.7,38,38,41.434,38,45.668a7.459,7.459,0,0,0,3.086,5.971v2.922l2.82-1.545a8.934,8.934,0,0,0,2.375.32c4.576,0,8.28-3.432,8.28-7.668S50.856,38,46.28,38ZM47.1,48.324l-2.107-2.247-4.114,2.249,4.528-4.8,2.162,2.249,4.062-2.249Z" transform="translate(-30.235 -29.217)" fill="#fff"/>
        </g>
      </g>
    </g>
    <g id="Group_126397" data-name="Group 126397" transform="translate(-26346 3565)">
      <g id="Group_126392" data-name="Group 126392" transform="translate(4 -5)">
        <path id="Path_308010" data-name="Path 308010" d="M8334,517s18.988-8,25.288-20.459a15.891,15.891,0,0,0,1.7-8.986c-1.956-17.248-20.448,10.682,2.489,8.986s5.157-33.346,5.157-33.346" transform="translate(43.399 5.805)" fill="none" stroke="#e6f3ff" stroke-width="0.56" stroke-dasharray="1"/>
        <rect id="Rectangle_47986" data-name="Rectangle 47986" width="34" height="15" rx="5" transform="translate(8398 467)" fill="#e6f3ff"/>
        <g id="Group_126391" data-name="Group 126391" transform="translate(0 -1)">
          <circle id="Ellipse_6879" data-name="Ellipse 6879" cx="2.5" cy="2.5" r="2.5" transform="translate(8405 473)" fill="#fff"/>
          <circle id="Ellipse_6880" data-name="Ellipse 6880" cx="2.5" cy="2.5" r="2.5" transform="translate(8413 473)" fill="#fff"/>
          <circle id="Ellipse_6881" data-name="Ellipse 6881" cx="2.5" cy="2.5" r="2.5" transform="translate(8421 473)" fill="#fff"/>
        </g>
      </g>
    </g>
  </g>
</svg>
