<svg xmlns="http://www.w3.org/2000/svg" xmlns:xlink="http://www.w3.org/1999/xlink" width="31" height="31" viewBox="0 0 31 31">
  <defs>
    <linearGradient id="linear-gradient" x1="0.084" y1="0.138" x2="0.732" y2="0.8" gradientUnits="objectBoundingBox">
      <stop offset="0" stop-color="#1a6610"/>
      <stop offset="0.26" stop-color="#1a6610" stop-opacity="0.78"/>
      <stop offset="0.79" stop-color="#1a6610" stop-opacity="0.2"/>
      <stop offset="0.97" stop-color="#1a6610" stop-opacity="0"/>
    </linearGradient>
  </defs>
  <g id="Layer_2" data-name="Layer 2" transform="translate(0.012)">
    <g id="_08.whatsapp" data-name="08.whatsapp" transform="translate(-0.012)">
      <ellipse id="background" cx="15.5" cy="15.442" rx="15.5" ry="15.442" fill="#2aa81a"/>
      <path id="shadow" d="M61.314,54.271A15.558,15.558,0,0,1,46.546,65.78L38.64,57.87l1.6-3.963c-2.825-15.091,11.532-9.179,11.532-9.179Z" transform="translate(-30.932 -34.78)" fill="url(#linear-gradient)"/>
      <g id="icon" transform="translate(7.638 7.72)">
        <path id="Path_203384" data-name="Path 203384" d="M51.505,40.288a7.718,7.718,0,0,0-12.365,8.93l-.819,3.976a.291.291,0,0,0,.047.231.3.3,0,0,0,.315.123l3.89-.923A7.718,7.718,0,0,0,51.5,40.288Zm-1.216,9.7a6.051,6.051,0,0,1-6.96,1.14l-.545-.27-2.389.565V51.39l.5-2.409-.266-.524a6.042,6.042,0,0,1,9.656-7.016l.027.037a6.043,6.043,0,0,1-.031,8.512Z" transform="translate(-38.299 -37.997)" fill="#fff"/>
        <path id="Path_203385" data-name="Path 203385" d="M64.939,63.807A2.523,2.523,0,0,1,63.6,64.972c-1.024.246-2.581,0-4.532-1.8l-.025-.023c-1.7-1.584-2.147-2.9-2.047-3.951a2.5,2.5,0,0,1,.972-1.484.557.557,0,0,1,.87.2l.628,1.421a.553.553,0,0,1-.068.565l-.319.409a.542.542,0,0,0-.043.6,5.937,5.937,0,0,0,1.079,1.2,6.381,6.381,0,0,0,1.494,1.071.542.542,0,0,0,.592-.125l.366-.373a.555.555,0,0,1,.559-.156l1.494.428a.561.561,0,0,1,.315.848Z" transform="translate(-53.16 -53.571)" fill="#fff"/>
      </g>
    </g>
  </g>
</svg>
