<svg xmlns="http://www.w3.org/2000/svg" width="72" height="72" viewBox="0 0 72 72">
  <g id="Layer_2" data-name="Layer 2" transform="translate(-0.318)">
    <g id="_08.whatsapp" data-name="08.whatsapp">
      <circle id="background" cx="36" cy="36" r="36" transform="translate(0.318)" fill="#2aa81a"/>
      <g id="icon" transform="translate(18.222 18.078)">
        <path id="Path_260835" data-name="Path 260835" d="M68.992,43.322A17.937,17.937,0,0,0,40.255,64.076l-1.9,9.24a.676.676,0,0,0,.109.538.69.69,0,0,0,.733.285l9.04-2.146a17.937,17.937,0,0,0,20.744-28.67ZM66.166,65.86a14.064,14.064,0,0,1-16.176,2.65l-1.266-.628L43.171,69.2v-.071l1.17-5.6-.619-1.218A14.043,14.043,0,0,1,66.166,46l.062.086a14.045,14.045,0,0,1-.071,19.783Z" transform="translate(-38.299 -37.997)" fill="#fff"/>
        <path id="Path_260836" data-name="Path 260836" d="M75.472,72.053a5.863,5.863,0,0,1-3.107,2.707c-2.379.571-6,0-10.534-4.192l-.057-.052c-3.944-3.683-4.991-6.751-4.758-9.183a5.819,5.819,0,0,1,2.26-3.449,1.294,1.294,0,0,1,2.022.476l1.461,3.3a1.285,1.285,0,0,1-.157,1.313l-.742.952a1.261,1.261,0,0,0-.1,1.4,13.8,13.8,0,0,0,2.507,2.788,14.83,14.83,0,0,0,3.473,2.488,1.261,1.261,0,0,0,1.375-.29l.852-.866a1.289,1.289,0,0,1,1.3-.362l3.473.994a1.3,1.3,0,0,1,.733,1.97Z" transform="translate(-48.095 -48.262)" fill="#fff"/>
      </g>
    </g>
  </g>
</svg>
