<svg xmlns="http://www.w3.org/2000/svg" width="303.157" height="479.205" viewBox="0 0 303.157 479.205">
  <g id="WhatsApp_Bot" data-name="WhatsApp Bot" transform="translate(-805.065 -4810.5)">
    <g id="Group_81685" data-name="Group 81685" transform="translate(-3.678 26.5)">
      <path id="Rectangle_44165" data-name="Rectangle 44165" d="M26,0H276.9a26,26,0,0,1,26,26V432.93a0,0,0,0,1,0,0H0a0,0,0,0,1,0,0V26A26,26,0,0,1,26,0Z" transform="translate(809 4784)" fill="#fff"/>
      <path id="Rectangle_44166" data-name="Rectangle 44166" d="M26,0H276.9a26,26,0,0,1,26,26V479.205a0,0,0,0,1,0,0H0a0,0,0,0,1,0,0V26A26,26,0,0,1,26,0Z" transform="translate(809 4784)" fill="#ece9e2"/>
      <path id="Path_260856" data-name="Path 260856" d="M26,0H276.9a26,26,0,0,1,26,26V64.252H0V26A26,26,0,0,1,26,0Z" transform="translate(808.743 4784.287)" fill="#fff"/>
      <g id="man" transform="translate(837.232 4801.287)">
        <ellipse id="Ellipse_6699" data-name="Ellipse 6699" cx="14.777" cy="14.777" rx="14.777" ry="14.777" fill="#c1edff"/>
        <g id="Group_80859" data-name="Group 80859" transform="translate(3.283 19.468)">
          <path id="Path_259196" data-name="Path 259196" d="M252.939,362.8c-.023,0-.046.023-.069.023s-.046-.023-.069-.023Z" transform="translate(-241.47 -361.297)" fill="#84dbff"/>
          <path id="Path_259197" data-name="Path 259197" d="M79.6,341.262a14.674,14.674,0,0,1-22.8,0,13.006,13.006,0,0,1,7.26-4.462,8.068,8.068,0,0,0,.624,3.515c.809-1.85,3.515-2.012,3.515-2.012s2.705.162,3.491,2.012a7.717,7.717,0,0,0,.624-3.515A12.909,12.909,0,0,1,79.6,341.262Z" transform="translate(-56.8 -336.8)" fill="#84dbff"/>
        </g>
        <path id="Path_259198" data-name="Path 259198" d="M203.413,297.3v.023c0,.231-.116,1.711-3.237,2.89h-.139c-3.121-1.179-3.237-2.659-3.237-2.89V297.3a4.055,4.055,0,0,1,.139-.9,3.594,3.594,0,0,0,6.335,0A4.06,4.06,0,0,1,203.413,297.3Z" transform="translate(-185.424 -279.267)" fill="#fff"/>
        <g id="Group_80860" data-name="Group 80860" transform="translate(10.522 18.035)">
          <path id="Path_259199" data-name="Path 259199" d="M257.306,312s.162,1.665-3.306,2.96c0,0,2.705.162,3.491,2.012C257.538,317.017,259.087,312.994,257.306,312Z" transform="translate(-249.84 -312)" fill="#54c0eb"/>
          <path id="Path_259200" data-name="Path 259200" d="M182.884,312c-1.78.994-.231,5.017-.185,4.948.809-1.85,3.491-2.012,3.491-2.012C182.722,313.665,182.884,312,182.884,312Z" transform="translate(-182.03 -312)" fill="#54c0eb"/>
        </g>
        <g id="Group_80861" data-name="Group 80861" transform="translate(8.569 6.249)">
          <path id="Path_259201" data-name="Path 259201" d="M181.972,114.046a6.581,6.581,0,0,1-1.873,3.792,4.475,4.475,0,0,1-.624.532l-.37-1.179h-3.977l-.37,1.179c-.74-.555-2.289-2.1-2.312-3.561-.647-8.3,5.711-6.543,5.711-6.543C182.434,107.965,182.3,111.734,181.972,114.046Z" transform="translate(-171.003 -108.11)" fill="#fff"/>
          <path id="Path_259202" data-name="Path 259202" d="M333.579,200.62a2.365,2.365,0,0,1-1.179,1.04,9.807,9.807,0,0,0,.416-1.156v-.023l.277-1.04h-.023c.092-.347.185-.694.254-1.04a.658.658,0,0,1,.278.092C334.111,198.816,334.088,199.764,333.579,200.62Z" transform="translate(-321.755 -193.181)" fill="#fff"/>
          <path id="Path_259203" data-name="Path 259203" d="M149.83,202.791a2.365,2.365,0,0,1-1.179-1.04c-.532-.856-.532-1.8-.023-2.1.046-.023.069-.046.116-.046a15.736,15.736,0,0,0,.671,2.058A11.194,11.194,0,0,0,149.83,202.791Z" transform="translate(-148.249 -194.312)" fill="#fff"/>
        </g>
        <path id="SVGCleanerId_0" d="M153.256,38.358c.185-2.127-3.191-1.988-3.191-1.988a6.539,6.539,0,0,0-5.665,5.5l.694-.832c-1.087,2.382.555,6.474.694,6.8.856,2.844,2.751,5.457,4.948,5.457s4.093-2.613,4.948-5.457h0v-.023c.092-.347.185-.694.254-1.04h-.023c.462-1.85.971-3.723.971-3.723C158.2,36.416,153.256,38.358,153.256,38.358Zm2.335,8.093a6.581,6.581,0,0,1-1.873,3.792,6.377,6.377,0,0,1-.624.532l-.37-1.156h-3.977l-.37,1.179a7.265,7.265,0,0,1-1.873-2.2,4.913,4.913,0,0,1-.439-1.364c-.647-8.3,5.711-6.543,5.711-6.543C156.053,40.37,155.915,44.139,155.591,46.451Z" transform="translate(-136.053 -34.266)" fill="#324a5e"/>
        <g id="Group_80862" data-name="Group 80862" transform="translate(8.347 2.102)">
          <path id="SVGCleanerId_0_1_" d="M153.256,38.358c.185-2.127-3.191-1.988-3.191-1.988a6.539,6.539,0,0,0-5.665,5.5l.694-.832c-1.087,2.382.555,6.474.694,6.8.856,2.844,2.751,5.457,4.948,5.457s4.093-2.613,4.948-5.457h0v-.023c.092-.347.185-.694.254-1.04h-.023c.462-1.85.971-3.723.971-3.723C158.2,36.416,153.256,38.358,153.256,38.358Zm2.335,8.093a6.581,6.581,0,0,1-1.873,3.792,6.377,6.377,0,0,1-.624.532l-.37-1.156h-3.977l-.37,1.179a7.265,7.265,0,0,1-1.873-2.2,4.913,4.913,0,0,1-.439-1.364c-.647-8.3,5.711-6.543,5.711-6.543C156.053,40.37,155.915,44.139,155.591,46.451Z" transform="translate(-144.4 -36.368)" fill="#324a5e"/>
        </g>
        <path id="Path_259204" data-name="Path 259204" d="M153.256,38.358c.185-2.127-3.191-1.988-3.191-1.988a6.539,6.539,0,0,0-5.665,5.5l.694-.832c-1.087,2.382.555,6.474.694,6.8.856,2.844,2.751,5.457,4.948,5.457s4.093-2.613,4.948-5.457h0v-.023c.092-.347.185-.694.254-1.04h-.023c.462-1.85.971-3.723.971-3.723C158.2,36.416,153.256,38.358,153.256,38.358Zm2.335,8.093a6.581,6.581,0,0,1-1.873,3.792,6.377,6.377,0,0,1-.624.532l-.37-1.156h-3.977l-.37,1.179c-.74-.555-2.289-2.1-2.312-3.561-.647-8.3,5.711-6.543,5.711-6.543C156.053,40.37,155.915,44.139,155.591,46.451Z" transform="translate(-136.053 -34.266)" fill="#324a5e"/>
        <path id="Path_259205" data-name="Path 259205" d="M226,279.2a2.184,2.184,0,0,0,1.619.74,2.1,2.1,0,0,0,1.618-.74Z" transform="translate(-212.936 -263.061)" fill="#fff"/>
      </g>
      <text id="SmatBot_AI_Chatbot" data-name="SmatBot AI Chatbot" transform="translate(875.5 4820.287)" fill="#040404" font-size="10" font-family="Arial-BoldMT, Arial" font-weight="700"><tspan x="0" y="0">SmatBot AI Chatbot</tspan></text>
      <g id="approved_2_" data-name="approved (2)" transform="translate(976.956 4810.287)">
        <path id="Path_259206" data-name="Path 259206" d="M13.43,8.031a1.045,1.045,0,0,0-.2,1.01,1.146,1.146,0,0,1,.05.328,1.047,1.047,0,0,1-.575.938,1.04,1.04,0,0,0-.4.352,1.052,1.052,0,0,0-.175.5v0a1.043,1.043,0,0,1-.967.967h0a1.05,1.05,0,0,0-.855.575,1.05,1.05,0,0,1-.941.575,1.124,1.124,0,0,1-.326-.05,1.06,1.06,0,0,0-.328-.052,1.04,1.04,0,0,0-.682.252l0,0a1.05,1.05,0,0,1-1.369,0l0,0a1.046,1.046,0,0,0-1.01-.2,1.137,1.137,0,0,1-.328.05,1.046,1.046,0,0,1-.938-.575,1.04,1.04,0,0,0-.352-.4,1.053,1.053,0,0,0-.5-.175h0a1.044,1.044,0,0,1-.967-.967v0a1.048,1.048,0,0,0-.575-.855,1.05,1.05,0,0,1-.575-.94,1.115,1.115,0,0,1,.05-.326,1.067,1.067,0,0,0,.052-.328,1.042,1.042,0,0,0-.252-.682l0,0a1.048,1.048,0,0,1,0-1.369l0,0a1.046,1.046,0,0,0,.2-1.01,1.131,1.131,0,0,1-.05-.328,1.046,1.046,0,0,1,.575-.938,1.048,1.048,0,0,0,.575-.855v0a1.044,1.044,0,0,1,.967-.967h0a1.05,1.05,0,0,0,.855-.575,1.05,1.05,0,0,1,.941-.575,1.124,1.124,0,0,1,.326.05,1.062,1.062,0,0,0,.328.052,1.04,1.04,0,0,0,.682-.252l0,0a1.05,1.05,0,0,1,1.369,0l0,0a1.045,1.045,0,0,0,1.01.2,1.137,1.137,0,0,1,.328-.05,1.046,1.046,0,0,1,.938.575,1.041,1.041,0,0,0,.352.4,1.052,1.052,0,0,0,.5.175h0a1.043,1.043,0,0,1,.967.967v0a1.05,1.05,0,0,0,.575.855,1.05,1.05,0,0,1,.575.94,1.131,1.131,0,0,1-.05.326,1.055,1.055,0,0,0-.053.328,1.041,1.041,0,0,0,.252.682l0,0a1.052,1.052,0,0,1,0,1.371Z" transform="translate(-1 -1.002)" fill="#25d366"/>
        <ellipse id="Ellipse_6700" data-name="Ellipse 6700" cx="4.826" cy="4.826" rx="4.826" ry="4.826" transform="translate(1.516 1.517)" fill="#25d366"/>
        <path id="Path_259207" data-name="Path 259207" d="M21.094,24.374a.219.219,0,0,1-.155-.064l-.875-.875a.219.219,0,1,1,.309-.309l.7.7,2.91-3.742a.219.219,0,1,1,.345.269L21.266,24.29a.219.219,0,0,1-.159.084Z" transform="translate(-15.844 -15.845)" fill="#fff"/>
      </g>
      <g id="Group_81608" data-name="Group 81608" transform="translate(47.5 3022.699)">
        <circle id="Ellipse_6707" data-name="Ellipse 6707" cx="1.311" cy="1.311" r="1.311" transform="translate(1023.494 1787.589)" fill="#0080f9"/>
        <circle id="Ellipse_6707-2" data-name="Ellipse 6707" cx="1.311" cy="1.311" r="1.311" transform="translate(1023.494 1792.834)" fill="#0080f9"/>
        <circle id="Ellipse_6707-3" data-name="Ellipse 6707" cx="1.311" cy="1.311" r="1.311" transform="translate(1023.494 1798.079)" fill="#0080f9"/>
      </g>
    </g>
    <g id="Group_81688" data-name="Group 81688" transform="translate(500.644 2301)">
      <rect id="Rectangle_44154" data-name="Rectangle 44154" width="186" height="39" rx="6" transform="translate(397.5 2704)" fill="#e2fed4"/>
      <text id="I_want_to_buy_WhatsApp_Chatbots_" data-name="I want to buy WhatsApp Chatbots
" transform="translate(414.398 2718)" fill="#2d332a" font-size="9" font-family="Arial-BoldMT, Arial" font-weight="700" letter-spacing="0.015em"><tspan x="0" y="8">I want to buy WhatsApp Chatbots</tspan></text>
    </g>
    <g id="Group_81686" data-name="Group 81686" transform="translate(500.644 2407)">
      <rect id="Rectangle_44154-2" data-name="Rectangle 44154" width="97" height="39" rx="6" transform="translate(486.5 2704)" fill="#e2fed4"/>
      <text id="Great_Thanks_" data-name="Great, Thanks
" transform="translate(503.398 2718)" fill="#2d332a" font-size="9" font-family="Arial-BoldMT, Arial" font-weight="700" letter-spacing="0.015em"><tspan x="0" y="8">Great, Thanks</tspan></text>
    </g>
    <g id="Group_81690" data-name="Group 81690" transform="translate(41.144 3108)">
      <rect id="Rectangle_44153" data-name="Rectangle 44153" width="218" height="39" rx="6" transform="translate(788 1801)" fill="#f9f9f9"/>
      <text id="Agent_Catherine_Joined_the_conversation" data-name="Agent Catherine Joined the conversation" transform="translate(804.923 1816.447)" fill="#2d332a" font-size="9" font-family="Arial-BoldMT, Arial" font-weight="700" letter-spacing="0.015em"><tspan x="0" y="8">Agent Catherine Joined the conversation</tspan></text>
    </g>
    <g id="Group_81689" data-name="Group 81689" transform="translate(41.144 3156)">
      <rect id="Rectangle_44153-2" data-name="Rectangle 44153" width="227" height="39" rx="6" transform="translate(788 1801)" fill="#f9f9f9"/>
      <text id="Hello_this_is_Catherine_How_may_I_help_you_" data-name="Hello this is Catherine, How may I help you?" transform="translate(804.923 1815.947)" fill="#2d332a" font-size="9" font-family="Arial-BoldMT, Arial" font-weight="700" letter-spacing="0.015em"><tspan x="0" y="8">Hello this is Catherine, How may I help you?</tspan></text>
    </g>
    <g id="Group_81687" data-name="Group 81687" transform="translate(41.144 3252)">
      <rect id="Rectangle_44153-3" data-name="Rectangle 44153" width="210" height="49" rx="6" transform="translate(788 1801.5)" fill="#f9f9f9"/>
      <text id="Okay_I_will_setup_a_demo_with_our_team_they_will_take_it_further_and_will_help_you." data-name="Okay I will setup a demo with our team,they will take it further and will help you." transform="translate(804.923 1813.5)" fill="#2d332a" font-size="9" font-family="Arial-BoldMT, Arial" font-weight="700" letter-spacing="0.015em"><tspan x="0" y="8">Okay I will setup a demo with our team,</tspan><tspan x="0" y="23">they will take it further and will help you.</tspan></text>
    </g>
  </g>
</svg>
