<svg xmlns="http://www.w3.org/2000/svg" width="50" height="50" viewBox="0 0 50 50"><defs><style>.a{fill:#32d951;}.b{fill:#fff;}</style></defs><g transform="translate(10862 9111)"><g transform="translate(-10870 -9115)"><circle class="a" cx="25" cy="25" r="25" transform="translate(8 4)"/></g><path class="b" d="M42.252,20.635A12.271,12.271,0,0,0,33.491,17,12.4,12.4,0,0,0,22.752,35.579L21,42l6.569-1.722a12.4,12.4,0,0,0,5.922,1.509H33.5a12.386,12.386,0,0,0,8.755-21.151ZM33.491,39.689a10.27,10.27,0,0,1-5.245-1.437l-.374-.226-3.9,1.022,1.039-3.8-.243-.392a10.292,10.292,0,1,1,8.719,4.835Zm5.649-7.71c-.309-.154-1.829-.9-2.115-1.01s-.493-.155-.695.154-.8,1.01-.98,1.212-.362.232-.671.077a8.407,8.407,0,0,1-2.489-1.538,9.42,9.42,0,0,1-1.722-2.144c-.178-.309-.018-.475.137-.63.137-.137.309-.362.463-.541a1.991,1.991,0,0,0,.309-.517.573.573,0,0,0-.024-.541c-.077-.154-.695-1.681-.956-2.3s-.5-.523-.695-.529-.386-.012-.594-.012a1.139,1.139,0,0,0-.826.386A3.463,3.463,0,0,0,27.2,26.634a6.013,6.013,0,0,0,1.265,3.2,13.777,13.777,0,0,0,5.286,4.675,17.066,17.066,0,0,0,1.764.653,4.248,4.248,0,0,0,1.948.125,3.2,3.2,0,0,0,2.091-1.473,2.607,2.607,0,0,0,.178-1.473C39.656,32.211,39.449,32.134,39.14,31.98Z" transform="translate(-10870.443 -9115.5)"/></g></svg>