<svg xmlns="http://www.w3.org/2000/svg" width="16.756" height="16.756" viewBox="0 0 16.756 16.756">
  <g id="whatsapp_1_" data-name="whatsapp (1)" transform="translate(-2 -2)">
    <path id="Path_203430" data-name="Path 203430" d="M6.325,17.707a8.4,8.4,0,1,0-3.26-3.252L2,18.756ZM6.789,6.675a.825.825,0,0,1,.74-.2l.268.057a.83.83,0,0,1,.594.48l.528,1.171a.8.8,0,0,1-.13.862l-.325.382a.406.406,0,0,0-.049.455,4.922,4.922,0,0,0,2.78,2.455.379.379,0,0,0,.439-.163l.236-.366a.862.862,0,0,1,1.171-.228l.976.488a.815.815,0,0,1,.406,1.008,1.68,1.68,0,0,1-1.764,1.26c-2.813-.073-5.016-2.667-5.967-4a3.206,3.206,0,0,1-.626-2.154,2.329,2.329,0,0,1,.724-1.5Z" transform="translate(0)" fill="#465def"/>
  </g>
</svg>
