<svg xmlns="http://www.w3.org/2000/svg" width="223.618" height="224.693" viewBox="0 0 223.618 224.693">
  <path id="whatsapp_8_" data-name="whatsapp (8)" d="M191.287,32.653A111.368,111.368,0,0,0,16.046,167l-15.8,57.7L59.274,209.21a111.224,111.224,0,0,0,53.207,13.552h.047A111.389,111.389,0,0,0,191.287,32.654ZM112.527,203.959h-.038a92.428,92.428,0,0,1-47.1-12.9l-3.378-2.006-35.026,9.188,9.349-34.15-2.2-3.5a92.542,92.542,0,1,1,78.4,43.369Zm50.762-69.31c-2.781-1.393-16.46-8.122-19.011-9.051s-4.4-1.391-6.258,1.393-7.186,9.051-8.81,10.907-3.245,2.09-6.027.7-11.746-4.331-22.373-13.809a83.918,83.918,0,0,1-15.476-19.271c-1.621-2.787-.014-4.147,1.221-5.678,3.012-3.74,6.027-7.661,6.954-9.516a5.117,5.117,0,0,0-.233-4.874c-.694-1.392-6.258-15.086-8.575-20.658-2.26-5.423-4.552-4.69-6.261-4.775-1.621-.081-3.477-.1-5.332-.1A10.218,10.218,0,0,0,65.687,63.4c-2.549,2.785-9.736,9.515-9.736,23.209s9.969,26.922,11.359,28.779,19.618,29.957,47.525,42.006a159.247,159.247,0,0,0,15.86,5.861,38.138,38.138,0,0,0,17.523,1.1c5.346-.8,16.458-6.731,18.779-13.229s2.318-12.068,1.621-13.23-2.549-1.856-5.331-3.249Zm0,0" transform="translate(-0.25)" fill-rule="evenodd" opacity="0.03"/>
</svg>
