<svg xmlns="http://www.w3.org/2000/svg" width="16.756" height="12.691" viewBox="0 0 16.756 12.691"><defs><style>.a{fill:#465def;}</style></defs><g transform="translate(0.001 0)"><path class="a" d="M220.949,145.892l2.767-1.488-2.767-1.514Zm0,0" transform="translate(-213.719 -138.214)"/><path class="a" d="M16.632,3V2.988a3.832,3.832,0,0,0-.739-1.945A2.727,2.727,0,0,0,14.086.2L14,.186l-.029,0C11.759.022,8.413,0,8.38,0H8.374C8.341,0,5,.022,2.76.183l-.03,0L2.652.2a2.658,2.658,0,0,0-1.8.873,4.017,4.017,0,0,0-.732,1.91L.122,3C.117,3.051,0,4.387,0,5.729V6.982C0,8.324.117,9.66.122,9.716v.009a3.794,3.794,0,0,0,.736,1.921,2.782,2.782,0,0,0,1.866.835c.068.008.127.015.167.022l.039.005c1.279.122,5.289.182,5.459.184H8.4c.034,0,3.379-.022,5.594-.183l.029,0,.094-.011a2.6,2.6,0,0,0,1.78-.851,4.017,4.017,0,0,0,.732-1.91l0-.017c0-.056.123-1.392.123-2.733V5.729c0-1.341-.118-2.677-.123-2.733Zm-5.68,3.8L7.25,8.782a.68.68,0,0,1-1-.6V4.167a.68.68,0,0,1,1.006-.6l3.7,2.026a.68.68,0,0,1,0,1.2Zm0,0"/></g></svg>