<svg xmlns="http://www.w3.org/2000/svg" xmlns:xlink="http://www.w3.org/1999/xlink" width="67.208" height="67.208" viewBox="0 0 67.208 67.208">
  <defs>
    <clipPath id="clip-path">
      <path id="Path_259958" data-name="Path 259958" d="M0,0H54.875V54.875H0Z" fill="#fff"/>
    </clipPath>
  </defs>
  <g id="zappier" transform="matrix(0.966, -0.259, 0.259, 0.966, 0, 14.203)" opacity="0.23" clip-path="url(#clip-path)">
    <path id="Path_259957" data-name="Path 259957" d="M34.3,27.431a16.354,16.354,0,0,1-1.029,5.83,16.377,16.377,0,0,1-11.575,0,16.462,16.462,0,0,1,0-11.575,16.377,16.377,0,0,1,11.575,0A15.56,15.56,0,0,1,34.3,27.431Zm20.235-4.544H38.5L49.731,11.568a27.609,27.609,0,0,0-6.345-6.431L31.9,16.284V.336a27.609,27.609,0,0,0-9.174,0V16.37L11.661,5.138a27.609,27.609,0,0,0-6.516,6.345L16.291,22.972H.343S0,25.887,0,27.431a39.041,39.041,0,0,0,.343,4.544H16.377L5.145,43.293a24.791,24.791,0,0,0,6.516,6.516L22.979,38.491V54.525a27.609,27.609,0,0,0,9.174,0V38.491L43.214,49.724a27.609,27.609,0,0,0,6.431-6.431l-11.061-11.4H54.618a27.609,27.609,0,0,0,0-9.174Z" transform="translate(0 0.007)" fill="#fff"/>
  </g>
</svg>
